<svg xmlns="http://www.w3.org/2000/svg" xmlns:xlink="http://www.w3.org/1999/xlink" version="1.1" id="Calque_1" x="0px" y="0px" viewBox="0 0 132 193" enable-background="new 0 0 132 193" xml:space="preserve"><g><rect x="13.41" y="1" fill="#1D1D1B" width="106.83" height="21.48"/><g><path fill="#1D1D1B" d="M130.73 129.71H27.7c0.82 22.19 19.45 39.46 42.19 39.46c17.54 0 30.42-8.77 37.81-19.73l18.08 14.52 c-13.97 18.08-32.88 26.58-55.9 26.58c-39.46 0-68.5-27.4-68.5-68.23c0-40.55 29.05-68.78 67.13-68.78 c38.36 0 62.47 26.03 62.47 67.4C131 123.68 131 126.7 130.73 129.71z M104.97 110.53c-0.55-20.55-12.6-36.72-36.44-36.72 c-22.19 0-39.18 16.44-40.83 36.72H104.97z"/></g></g></svg>