<?xml version="1.0" encoding="utf-8"?>
<!-- Generator: Adobe Illustrator 19.1.0, SVG Export Plug-In . SVG Version: 6.00 Build 0)  -->
<svg version="1.1" id="Calque_1" xmlns="http://www.w3.org/2000/svg" xmlns:xlink="http://www.w3.org/1999/xlink" x="0px" y="0px"
	 viewBox="0 0 595.3 841.9" style="enable-background:new 0 0 595.3 841.9;" xml:space="preserve">
<style type="text/css">
	.st0{fill:#FFFFFF;stroke:#000000;stroke-width:2;stroke-miterlimit:10;}
	.st1{fill:#C52528;}
	.st2{fill:none;stroke:#8A1211;stroke-width:2;stroke-miterlimit:10;}
	.st3{fill:#FBF7EE;}
	.st4{fill:#FFFEF2;}
</style>
<g>
	<polygon class="st0" points="248.1,346.7 235.8,431.2 306.4,455.7 352.5,352.9 	"/>
	<path class="st0" d="M381.7,475.7c0,0,21.5-24.6,16.9-86l-56.8-21.5l-43,81.4L381.7,475.7z"/>
	<path class="st1" d="M61.5,404.2c0,0,130.8-200.1,286.6-147.2c36.5,8.6,110.8,24.3,140.1,82.9c15,28.6,71.5,90.8-1.4,176.5
		c-33.6-33.6-93.6-94.4-93.6-94.4c-32.2-23.6-64.3-69.3-219.4-25C132.2,404.9,82.9,430.6,61.5,404.2z"/>
	<path class="st1" d="M60,404.2c0,0,74.3,167.3,260.9,170.1c40.7,8.6,150.1,32.2,168.7-31.5c-0.7-10.7,1.4-60-38.6-72.2
		c-25-14.3-66.5-32.9-110.8-31.5c-30.7-12.9-115.8-52.2-170.1-42.9C140.1,398.4,69.3,402.7,60,404.2z"/>
	<path class="st2" d="M211,445.9c3.8-15.6,5.4-31.9,4.9-48.1"/>
	<path class="st2" d="M234,503.3c-5.4-30.8,9.7-62.3,6.5-93.5"/>
	<path class="st2" d="M264.1,468.1c0-16.9,0-33.7,0-50.6"/>
	<path class="st2" d="M289.8,505.2c6-27.3,2.7-57-9.1-81.7"/>
	<path class="st2" d="M315.9,468c2.1-8.1,0.8-17.2-3.3-24.2"/>
	<path class="st2" d="M348.2,514.1c3.1-15,1.9-31.1-3.4-45.4c-3.5-9.5-8.9-19-7.6-29.2"/>
	<path class="st2" d="M370.1,492.3c2.4-13.5-0.6-28.2-8-39.1"/>
	<path class="st2" d="M199,379.9c-6.4-2.1-6.8-9.6-6.2-15.6c0.6-6,0.2-13.5-6.2-15.6"/>
	<path class="st2" d="M230,372.4c-4.3-4.1-7.5-9.5-7.1-15.2c0.3-4.6,2.9-9.1,3.3-13.7c0.6-6.1-2.5-11.8-5.5-17.1"/>
	<path class="st2" d="M283.5,364.7c-5-8.6-4.9-19.4,0.3-28.6c1.3-2.3,2.9-4.5,3.3-7c0.4-2.4-0.9-5.2-3.6-5.7"/>
	<path class="st2" d="M336.6,368.5c-3.4-5.4,1.4-12.2,4.5-18.2c5.1-9.9,5.4-21.2,0.9-30.6"/>
	<path class="st2" d="M252.9,365.9c-0.7-10.6-1.3-21.2-2-31.8"/>
	<path class="st2" d="M304.2,362.2c-2.5-4.1,0.8-9.4,4.3-13.4s7.8-8.2,7.7-13"/>
	<path class="st3" d="M381.6,445.3c10.4,12.5,11.1,38.5,10.2,54.1c-1.2,21.4-1,42.5,16.2,57.9c15.7,14.1,37.1,12.5,54.5,2.4
		c15.9-9.2,22.5-32.6,17.2-49.2c-7.5-23.8-31-30.4-51.3-39.8C414.7,464.3,391.6,457.3,381.6,445.3z"/>
	<path class="st4" d="M420.8,552.1c0,0,8.2,7.2,15.8,3.6c-0.5-8.7-29-63.3-28-67.8c-2.3,10.7,2.8,22.5,5.1,32.8
		c1.6,7.1,3.2,14.2,4.8,21.3C418.9,543.8,419.3,550.7,420.8,552.1z"/>
	<path class="st3" d="M377.6,535.1c-2.9,7.5-14,13.9-20.9,17.3c-9.5,4.6-18.6,9.7-21.1,20.8c-2.4,10.2,3.5,19,12,24.1
		c7.7,4.7,19.5,1.9,25.4-4.3c8.5-8.9,5.8-20.6,5-31.6C377.3,554,374.9,542.3,377.6,535.1z"/>
	<path class="st4" d="M341,575c0,0-1.1,5.2,2.2,7.7c3.6-2.3,20.4-27.6,22.6-28.3c-5.2,1.5-9,6.6-12.9,10c-2.7,2.4-5.4,4.7-8,7.2
		C344.1,572.2,341.2,574,341,575z"/>
	<path class="st3" d="M405.1,569.4c0.2,8-7.4,18.3-12.5,24.1c-7,7.9-13.3,16.1-11.4,27.4c1.8,10.3,10.6,16.1,20.4,17.5
		c8.9,1.3,18.7-5.8,21.7-13.8c4.3-11.5-2.7-21.2-7.8-31.1C412.1,586.8,405.3,577.1,405.1,569.4z"/>
	<path class="st4" d="M386.8,620.4c0,0,1,5.3,5,6.2c2.4-3.5,8-33.4,9.8-34.8c-4.2,3.4-5.8,9.6-8,14.3c-1.5,3.2-3.1,6.5-4.6,9.7
		C388.6,616.6,386.7,619.4,386.8,620.4z"/>
	<path class="st2" d="M357.3,376.3c-3.1-6,1.8-11.6,6.4-15.5c4.6-3.9,9.5-9.5,6.4-15.5"/>
	<path class="st2" d="M384.8,392.5c-0.2-6,1.2-12,5.5-15.9c3.4-3.1,8.4-4.5,11.9-7.5c4.7-4,6.4-10.2,7.9-16.1"/>
	<path class="st2" d="M428.7,424.1c2.4-9.6,10-17.3,20.1-20.4c2.5-0.7,5.2-1.3,7.2-2.7c2-1.5,3-4.3,1.4-6.6"/>
	<path class="st2" d="M405.8,403.7c6.9-8.1,13.8-16.2,20.7-24.3"/>
	<path class="st2" d="M445.3,436.8c1.1-4.7,7.1-6.2,12.4-6.6s11.3-0.5,14.5-4"/>
</g>
<g>
</g>
<g>
</g>
<g>
</g>
<g>
</g>
<g>
</g>
<g>
</g>
</svg>
