<?xml version="1.0" encoding="utf-8"?>
<!-- Generator: Adobe Illustrator 19.1.0, SVG Export Plug-In . SVG Version: 6.00 Build 0)  -->
<svg version="1.1" id="Calque_1" xmlns="http://www.w3.org/2000/svg" xmlns:xlink="http://www.w3.org/1999/xlink" x="0px" y="0px"
	 viewBox="0 0 595.3 841.9" style="enable-background:new 0 0 595.3 841.9;" xml:space="preserve">
<style type="text/css">
	.st0{fill:#EED4B7;}
	.st1{fill:none;stroke:#F8EEE3;stroke-miterlimit:10;}
	.st2{fill:none;stroke:#D696B0;stroke-miterlimit:10;}
	.st3{fill:#C60086;}
	.st4{fill:#EFD51F;}
</style>
<g>
	<path class="st0" d="M398.3,599.6c-90.1,0-163.1-104.7-163.1-233.8s326.1-129.1,326.1,0S488.3,599.6,398.3,599.6z"/>
	<path class="st0" d="M198.7,607.7c-90.2,0-163.4-104.7-163.4-233.8s326.8-129.1,326.8,0S289,607.7,198.7,607.7z"/>
	<path class="st1" d="M421.9,526.4c-5.4-7.5-9.6-16.4-12.2-25.8c-1.7-6.2-2.8-12.6-4.6-18.8c-6-20.6-19.8-36.3-34.2-49.5
		c-14.4-13.2-29.9-24.8-42-41"/>
	<path class="st1" d="M414.1,438.7c0.9-22.9-3.1-46.2-11.4-66.4c-2.2-5.4-4.7-10.6-6.9-16c-3.4-8.8-5.8-18.2-7.1-27.9"/>
	<path class="st1" d="M434.4,307.5c9.9,19.6,17.4,41.3,22.3,63.9c5.8,26.9,18.3,36,26.2,5.3c5.4-21.2,6.5-44.2,3.2-66.1"/>
	<path class="st2" d="M461.8,516.5c-2.7-26.5,7.6-51.4,17.4-73c6.8-15,13.8-30.4,23.4-40.8c4.5-4.9,9.4-8.5,13.6-14
		c9.7-12.6,14.4-34.8,11.4-54.5"/>
	<path class="st2" d="M351.3,545.4c-6.7-9.4-2.3-23.1-3.1-35c-1.4-21.7-20.1-36.7-25.7-57.2c-0.3-1.2-0.6-2.4-0.4-3.7
		c0.3-1.5,1.3-2.9,2.1-4.2c2.9-4.7,4.7-9.9,4.9-15.1"/>
	<path class="st1" d="M158.2,528.3c5.4-7.5,9.6-16.4,12.2-25.8c1.7-6.2,2.8-12.6,4.6-18.8c6-20.6,19.8-36.3,34.2-49.5
		c14.4-13.2,29.9-24.8,42-41"/>
	<path class="st1" d="M165.9,440.6c-0.9-22.9,3.1-46.2,11.4-66.4c2.2-5.4,4.7-10.6,6.9-16c3.4-8.8,5.8-18.2,7.1-27.9"/>
	<path class="st1" d="M145.6,309.4c-9.9,19.6-17.4,41.3-22.3,63.9c-5.8,26.9-18.3,36-26.2,5.3c-5.4-21.2-6.5-44.2-3.2-66.1"/>
	<path class="st2" d="M118.3,518.4c2.7-26.5-7.6-51.4-17.4-73c-6.8-15-13.8-30.4-23.4-40.8c-4.5-4.9-9.4-8.5-13.6-14
		c-9.7-12.6-14.4-34.8-11.4-54.5"/>
	<path class="st1" d="M238.8,545.9c6.2-9.7,1.2-23.2,1.5-35.1c0.4-21.7,18.4-37.7,23-58.5c0.3-1.2,0.5-2.4,0.2-3.7
		c-0.4-1.5-1.4-2.8-2.3-4.1c-3.2-4.5-5.1-9.7-5.6-14.8"/>
	<path class="st3" d="M301.1,452.7c0.9-7.3,2.2-14.6,4-21.7c9.1-35.9,32.3-66.7,62.4-88c11.3-8,23.4-14.3,36.1-18.8
		c40.9-14.3,121.1-17.4,153.3,16.6c-10.5-41.8-31.4-76.6-31.4-76.6c-33.7-19.7-54.7-26.4-150.1-20.6c-95.3,5.8-305.3,5.8-314.6,26.7
		c-12.8,20.9-22,81.3-22,81.3c2.9-8.4,11.5-12.2,19.3-14.8c26.8-8.8,56-12.8,84-7.5c27.3,5.1,53,19.6,73.6,38.1
		c3.3,3,6.5,6.1,9.6,9.4c31.1,32.9,46.4,79.9,58.4,122.7c5.8,20.8,11.3,43,9.6,64.9c0,0,9.1-9.5,9.1-9.5c1.1-1.2-0.4-9.8-0.5-11.7
		C300.6,513.6,297.4,482.7,301.1,452.7z"/>
	<g>
		<ellipse class="st4" cx="119.8" cy="303.1" rx="9.3" ry="10"/>
		<ellipse class="st4" cx="193.6" cy="317.1" rx="9.3" ry="10"/>
		<ellipse class="st4" cx="239.9" cy="275.9" rx="9.3" ry="10"/>
		<ellipse class="st4" cx="257.4" cy="364.5" rx="9.3" ry="10"/>
		<ellipse class="st4" cx="248.7" cy="318.3" rx="9.3" ry="10"/>
		<ellipse class="st4" cx="330.6" cy="269.2" rx="9.3" ry="10"/>
		<ellipse class="st4" cx="394.5" cy="281" rx="9.3" ry="10"/>
		<ellipse class="st4" cx="278.7" cy="430.2" rx="9.3" ry="10"/>
		<ellipse class="st4" cx="317.5" cy="361" rx="9.3" ry="10"/>
		<ellipse class="st4" cx="296.7" cy="305.9" rx="9.3" ry="10"/>
		<ellipse class="st4" cx="67.6" cy="295.9" rx="9.3" ry="10"/>
		<ellipse class="st4" cx="158.2" cy="278.8" rx="9.3" ry="10"/>
		<ellipse class="st4" cx="444.4" cy="295.5" rx="9.3" ry="10"/>
		<ellipse class="st4" cx="473.7" cy="263.2" rx="9.3" ry="10"/>
		<ellipse class="st4" cx="506.2" cy="297.2" rx="9.3" ry="10"/>
		<ellipse class="st4" cx="351.3" cy="313" rx="9.3" ry="10"/>
	</g>
</g>
<g>
</g>
<g>
</g>
<g>
</g>
<g>
</g>
<g>
</g>
<g>
</g>
</svg>
