<svg id="Calque_1" data-name="Calque 1" xmlns="http://www.w3.org/2000/svg" width="3.586mm" height="3.973mm" viewBox="0 0 10.166 11.262">
  <defs>
    <style>
      .cls-1 {
        fill: #f6cada;
      }
    </style>
  </defs>
  <title>curseurfacade</title>
  <g>
    <path class="cls-1" d="M14.283,39.8a10.544,10.544,0,0,1-1.477-2.578,8.091,8.091,0,0,1-.152-5.73,11.231,11.231,0,0,1,1.629-2.953h0.756q-0.709,1.219-.937,1.74a9.507,9.507,0,0,0-.562,1.688,9.8,9.8,0,0,0-.252,2.2A10.574,10.574,0,0,0,15.039,39.8H14.283Z" transform="translate(-12.203 -28.54)"/>
    <path class="cls-1" d="M16.539,37.276v-1.2h1.2v1.2a2.132,2.132,0,0,1-.234,1.069,1.528,1.528,0,0,1-.744.63l-0.293-.451a1,1,0,0,0,.492-0.431,1.835,1.835,0,0,0,.176-0.817h-0.6Zm0-5.021v-1.2h1.2v1.2h-1.2Z" transform="translate(-12.203 -28.54)"/>
    <path class="cls-1" d="M20.289,39.8H19.533a10.574,10.574,0,0,0,1.752-5.631,9.623,9.623,0,0,0-.252-2.186,9.186,9.186,0,0,0-.557-1.687,19.8,19.8,0,0,0-.943-1.758h0.756a11.231,11.231,0,0,1,1.629,2.953,8.072,8.072,0,0,1-.155,5.73A10.73,10.73,0,0,1,20.289,39.8Z" transform="translate(-12.203 -28.54)"/>
  </g>
</svg>
