<svg xmlns="http://www.w3.org/2000/svg" width="161.59mm" height="210.16mm" viewBox="0 0 458.05 595.73">
  <defs>
    <style>
      .cls-1 {
        fill: #ead9ca;
      }

      .cls-2 {
        fill: #6db043;
      }

      .cls-3 {
        fill: none;
        stroke: #6db043;
        stroke-miterlimit: 10;
        stroke-width: 2px;
      }

      .cls-4 {
        fill: #000001;
      }

      .cls-5 {
        fill: #fff;
      }
    </style>
  </defs>
  <title>Fichier 1</title>
  <g id="Calque_2" data-name="Calque 2">
    <g id="Calque_1-2" data-name="Calque 1">
      <path class="cls-1" d="M185.73.07c-2.6.08-104.72-6-140.3,90.74,0,0-16,46.61-27.53,92.65S0,278.09,0,302.39,11.7,447.78,20.65,474.64s39.45,57.94,76.54,84.8S235.3,588.85,235.3,588.85L312,594s44.28,4.22,77.08-.37a54.13,54.13,0,0,0,39.75-27c13-23.08,31.48-66.74,29-124.8,0,0-7.67-125.32-23-154.74s-30.69-40.92-38.36-49.87-16.75-50.45-16.75-50.45-16-51.16-35.74-68.82c-3.11-2.78-5.49-9.21-7.47-12.88C323.52,81,271.13-2.72,185.73.07Z"/>
      <path class="cls-2" d="M182,136.82l12.17,24.35s-127-53-149.57,52.18C44.64,213.35,39.42,102.9,182,136.82Z"/>
      <path class="cls-2" d="M283.57,132.67l.83,15.85s53.13-37,71.21-17C355.61,131.56,331.13,100.4,283.57,132.67Z"/>
      <path class="cls-3" d="M278.28,153.6s-16.89,18.14,2.5,37.54c15,15,36.72,29.24,45.81,34.93a39.3,39.3,0,0,1,10.61,9.63c2.31,3.07,4.54,6.83,5.29,10.6a43.09,43.09,0,0,0,1.06,4.45c1.55,5,5,15.45,7.31,19.21,3.13,5,6.88,23.77-.63,35.66"/>
      <path class="cls-3" d="M251,266.81s-17.49,12-10,36.44a22.67,22.67,0,0,0,17.24,15.84c6.2,1.19,14,.41,22.39-6.11"/>
      <path class="cls-2" d="M277.74,301.85s4.23-27.6,23.62-24.37c0,0,7.21.5,1,11.19C302.35,288.68,286.19,301.85,277.74,301.85Z"/>
      <path class="cls-2" d="M334.17,274s-4.72,3-5.47,7.46c0,0-1.74,5.22,3,12.68,0,0,6.71,4.23,7.71-2.24C339.4,291.91,344.62,275.25,334.17,274Z"/>
      <path class="cls-2" d="M271.39,436.4s19,23.48,67.55,26.87c0,0,68,8.18,69.74-31.21,0,0,.82-8.22-2.91-11.27,0,0-2.88-50.43-28.95-74.57-.35-.33-.7-.65-1-1-3-3-22-20.72-37.55-8.59,0,0-21.08-9.58-32.87,5q-1.36,1.69-2.86,3.25c-7.18,7.48-33.48,36.72-35.53,65.7C267,410.61,265.28,431,271.39,436.4Z"/>
      <path class="cls-4" d="M291.75,402.46l-15.42,30.39s-2,5.44,6.8,7c0,0,16.94,2,27.66-3.18a52,52,0,0,1,6.31-2.65c8.63-2.84,30-8.73,60.82-9.59a28.42,28.42,0,0,0-10-31.75s-13.61-15.19-20.41-16.33C347.54,376.38,304.23,369.13,291.75,402.46Z"/>
      <path class="cls-5" d="M365.07,389.6s-5.73,3.13-11.24,1c0,0-8.18,6.08-20.92,4.52,0,0-11.09,5.89-23.26,4.27,0,0-13.78,3.56-17.88,2.71l2.45-5c8.9-16.19,22.19-19.27,28.76-20l5-.8c1.16-.15,2.61-.24,4.51-.42,4.34-.4,14-3,24.58,5.59Z"/>
      <path class="cls-3" d="M196.35,223.54S120.9,199.9,96.56,250.32"/>
      <path class="cls-2" d="M121.77,225.81"/>
      <path class="cls-2" d="M145.83,236.57c.16,11-8.23,14.56-16,14.56A14.14,14.14,0,0,1,115.65,237c0-7.81,4.93-12.87,12.45-15C141.61,218.21,145.75,231.08,145.83,236.57Z"/>
      <path class="cls-3" d="M296,205s20.17-22.18,51.54-10.53c0,0,7.84,2.24,19.72,18.37"/>
      <path class="cls-2" d="M337.48,207.17c.16,11-8.25,15.12-16,14.56-5.4-.39-14-7.22-14.14-14.14-.19-7.81,4.93-12.87,12.45-15C333.26,188.81,337.4,201.68,337.48,207.17Z"/>
    </g>
  </g>
</svg>
