<svg xmlns="http://www.w3.org/2000/svg" width="156.08mm" height="204.66mm" viewBox="0 0 442.43 580.14">
  <defs>
    <style>
      .cls-1 {
        fill: #7f665e;
      }

      .cls-2 {
        fill: #fbf8a5;
      }

      .cls-3 {
        fill: #000606;
      }

      .cls-4 {
        fill: #fff;
      }

      .cls-5 {
        fill: none;
        stroke: #fbf8a5;
        stroke-miterlimit: 10;
        stroke-width: 2px;
      }
    </style>
  </defs>
  <title>Fichier 5</title>
  <g id="Calque_2" data-name="Calque 2">
    <g id="Calque_1-2" data-name="Calque 1">
      <path class="cls-1" d="M33.71,125.28C27,137.67.15,276,.15,276c-1.8,11.43,12.63,120.77,20.61,179.34a101.82,101.82,0,0,0,47.89,73.33,397.62,397.62,0,0,0,77.52,36c59.1,19.64,115,23.42,170.19-5.51,48-25.16,104.37-62,109.27-96.53L442.43,280c.26-8.13-22.35-147.32-28.62-159.49h0C388.6,54.45,353.87,0,229.8,0,77.89,0,33.71,125.28,33.71,125.28Z"/>
      <path class="cls-2" d="M277.56,138.53l12.13-25.77s77.32,0,114.46,62.91C404.15,175.67,357.15,127.16,277.56,138.53Z"/>
      <path class="cls-2" d="M187.36,104.42l-1.52,25.77s-99.3-18.95-138.71,28C47.13,158.23,80.49,102.9,187.36,104.42Z"/>
      <path class="cls-2" d="M145.67,402.31s11.84-85.69,64.25-79.41a22.56,22.56,0,0,1,10,3.89,15,15,0,0,0,8.4,2.76,16.84,16.84,0,0,0,8.81-2.61,19.59,19.59,0,0,1,10.36-3.11c12.48.06,37.3,8.26,54.51,66.49a94,94,0,0,1,3.56,19.62l.64,8.5s3.23,30.88-36.95,35.43S183.08,458,170.42,451C154.56,442.16,144.16,425.81,145.67,402.31Z"/>
      <path class="cls-3" d="M164.21,408S176.84,357.5,207,362.84c0,0,37.9-1.94,48.1,3.89s31.58,38.38,31.58,51c0,8.53-17.91,4.24-29.55.55a77.5,77.5,0,0,0-22.72-3.65c-12.22-.11-29.6.06-36.12,1.73C189.85,418.54,163.73,422.12,164.21,408Z"/>
      <path class="cls-4" d="M179.74,375.39s7.18,7.75,17.16,2.43c0,0,18,5.65,30.26,4,0,0,15,5,27.2-.66,0,0,13.31-1.63,11.5-4a107.89,107.89,0,0,0-8.19-9.05c-3.79-3.47-17-5.37-22.13-5.64L200,362.15c-4.61-.08-14.05,6.14-15.79,7.92Z"/>
      <path class="cls-5" d="M190.39,133.27s28.74,27.08,19.9,60.24"/>
      <path class="cls-5" d="M273.29,142.67S249,165.88,249,183.56"/>
      <path class="cls-2" d="M209.57,253.36a.79.79,0,0,0-.75,0c-2.29,1.35-14.8,8.87-16.77,12.5-2.27,4.18-7.18,11.61-2.76,14.92a9.17,9.17,0,0,0,6.05,1.82,6.4,6.4,0,0,0,4.7-2.43l8.6-10.87a6.4,6.4,0,0,0,.91-1.55C210.74,264.89,214.12,255.58,209.57,253.36Z"/>
      <path class="cls-2" d="M247,260.94l-3.65,5.93a2.38,2.38,0,0,0-.34,1.53c.32,2.73,1.55,11.4,4.33,14.64,2.26,2.64,6.58,3.48,9.1,3.74a3.92,3.92,0,0,0,3.41-1.35c1.6-1.88,3.71-5.33,1.86-9a44.83,44.83,0,0,1-3.18-7.75,3.21,3.21,0,0,0-.54-1.09c-1.41-1.85-6.18-7.74-9.88-7.37A1.51,1.51,0,0,0,247,260.94Z"/>
      <path class="cls-5" d="M167.71,486.86s59.88-37.53,104.59,0"/>
      <path class="cls-5" d="M78.58,183.25s52.28-43.48,87.75.87"/>
      <path class="cls-5" d="M277.85,184.95s56.31-38.11,87.24,9.51"/>
      <path class="cls-5" d="M184,289.3s-16.77-8.1-3.47-31.23"/>
      <path class="cls-5" d="M265.59,293.93s11.19-9.83,4.83-28.34"/>
    </g>
  </g>
</svg>
