<svg xmlns="http://www.w3.org/2000/svg" width="145.59mm" height="227.6mm" viewBox="0 0 412.7 645.17">
  <defs>
    <style>
      .cls-1 {
        fill: #f1dba6;
      }

      .cls-2 {
        fill: #d27a25;
      }

      .cls-3 {
        fill: none;
        stroke: #d27a25;
        stroke-miterlimit: 10;
        stroke-width: 2px;
      }

      .cls-4 {
        fill: #000001;
      }

      .cls-5 {
        fill: #fff;
      }
    </style>
  </defs>
  <title>Fichier 9</title>
  <g id="Calque_2" data-name="Calque 2">
    <g id="Calque_1-2" data-name="Calque 1">
      <path class="cls-1" d="M151.7,2s-36,21.84-59.09,96.35l-12.85,45s-2,9.16,7.71,33.86c0,0,5.85,16.89-11.7,46.78,0,0-33.14,45.48-55.23,65,0,0-31.84,18.84-16.24,50,0,0,15.59,29.89,41.59,39.64,0,0-4.59,34.71-10.64,41.52L37.05,428H77.87s23.41,9.17,23.41,13,20.08,26.55,7.23,47c0,0-14,50.44-53.32,55,0,0,5.52,5.91,7.45,18.31a53.44,53.44,0,0,1-1.33,22.05C57.09,599,46,641.73,96.76,644.16c0,0,150.41,15.87,240.35-78.61L412.7,499,411.19,337.3l-4.53-66.51s-72.56-31-86.16-73.32c0,0-48.37-98.26-62-111.11C258.51,86.36,187.69-15.5,151.7,2Z"/>
      <path class="cls-2" d="M104,129.82l5,17.41s32.5-51.85,95.18,1.55C204.22,148.78,159.73,87.26,104,129.82Z"/>
      <path class="cls-3" d="M184.88,213.4s-27.69-19-49.88-8.59"/>
      <path class="cls-2" d="M162.62,215.44c.14,9.76-4.81,11.95-14.51,11-3.73-.35-8.72-3.91-8.72-10.85s3.19-13,7.48-13.12C160.57,202.1,162.55,210.56,162.62,215.44Z"/>
      <path class="cls-2" d="M68.24,360.36S42.37,339.06,28,344.64a2.25,2.25,0,0,0-.53,3.87,6.57,6.57,0,0,0,2.86,1.43l31.9,11.15a6.45,6.45,0,0,0,4.86-.19Z"/>
      <g>
        <path class="cls-4" d="M75.89,516.81,108,493l11.26-25.75-1.5-4.71L105.82,448.8,73.35,432.74l-6.91,2.15c-7.89,2.46-19.77.76-15.42,7.78L61,457.41a36.74,36.74,0,0,1,4.27,32.53l-3,8.77-6.23,9,5.36,11.54Z"/>
        <path class="cls-2" d="M119.25,467.29s-17.94-36.6-68-27a10.37,10.37,0,0,1-4.86-.2c-5.27-1.53-16-6.31-12-19.29,0,0,20.66-17.71,59.77,13.28C94.16,434.09,116.3,448.11,119.25,467.29Z"/>
        <path class="cls-2" d="M108.7,492.13s-29.94,21.42-42.59,18.8c0,0-10.91-1.31-3.93-12.21,0,0-10.08,1.75-17,16.58,0,0-6.32,19.66,11,28.59C56.19,543.88,96.92,545.78,108.7,492.13Z"/>
        <path class="cls-5" d="M54.77,439.78s.33,7.42,4.95,12.07a9.62,9.62,0,0,0,7.1,2.87c1.57-.05,3.2-.52,3.92-2,0,0,3.59,4.65,13.15,2.08,0,0,8.68,4.29,11.42-.52,0,0,7.63,4.9,13.67.15C109,454.38,89.91,433.33,54.77,439.78Z"/>
      </g>
    </g>
  </g>
</svg>
