<svg id="Calque_1" data-name="Calque 1" xmlns="http://www.w3.org/2000/svg" width="126.675mm" height="90.051mm" viewBox="0 0 359.077 255.262">
  <defs>
    <style>
      .cls-1, .cls-5 {
        fill: #141412;
      }

      .cls-2 {
        fill: #e8c3b3;
      }

      .cls-3 {
        fill: #cbe1e3;
      }

      .cls-4 {
        fill: none;
        stroke: #cbe1e3;
        stroke-width: 2px;
      }

      .cls-4, .cls-5 {
        stroke-miterlimit: 10;
      }

      .cls-5 {
        stroke: #dfaa6e;
      }

      .cls-6 {
        fill: #fff;
      }
    </style>
  </defs>
  <title>femme menthe</title>
  <polygon class="cls-1" points="211.555 72.474 261.102 70.793 283.455 101.904 276.081 123.567 260.622 144.268 243.587 157.904 216.855 157.904 203.028 144.307 195.884 127.631 199.341 102.993 211.555 72.474"/>
  <path class="cls-2" d="M2021.122,324.986s25.522-19.3,70.963-26.144c0,0,27.389-4.357,54.779,0,0,0,15.726.619,27.471-1.937,0,0,80.322,3.506,147.762,67.915,0,0,48.117,68.577-10.987,127.681s-120.483,59.484-120.483,59.484S2110.3,555.4,2045.9,532.662c0,0-64.409-43.485-64.409-108.127S2021.122,324.986,2021.122,324.986Z" transform="translate(-1981.486 -296.905)"/>
  <path class="cls-3" d="M2073.351,341.32s0.712,9.73-10.442,10.442-7.12-13.053-7.12-13.053,9.018-23.969,20.647-30.377c0,0,4.272-4.509,24.919-9.018C2101.355,299.314,2070.266,306.671,2073.351,341.32Z" transform="translate(-1981.486 -296.905)"/>
  <path class="cls-3" d="M2049.857,399.937s-18.511-2.611-20.647,34.411,16.612,58.381,25.156,64.076c0,0-29.428-26.342-13.765-60.279S2049.857,399.937,2049.857,399.937Z" transform="translate(-1981.486 -296.905)"/>
  <path class="cls-4" d="M2109.307,351.788s9.22-34.535,21.648-40.148" transform="translate(-1981.486 -296.905)"/>
  <path class="cls-4" d="M2086.935,424.536s-18.519,37.436-6.091,63.494" transform="translate(-1981.486 -296.905)"/>
  <path class="cls-3" d="M2124.294,387.9s-6.163-1.121-1.868,8.218a14.535,14.535,0,0,0,10.646,8.218c7.844,1.307-5.043-12.327-5.043-12.327Z" transform="translate(-1981.486 -296.905)"/>
  <path class="cls-3" d="M2130.955,366.234s-8.528,5.977,2.118,7.658c0,0,7.1.934,13.074-2.241s-9.212-6.91-9.212-6.91A16.767,16.767,0,0,0,2130.955,366.234Z" transform="translate(-1981.486 -296.905)"/>
  <path class="cls-4" d="M2120.131,359.546s14.522-7.683,30.293-2.426" transform="translate(-1981.486 -296.905)"/>
  <path class="cls-4" d="M2107.963,399.9s2.714,13.835,22.992,21.519" transform="translate(-1981.486 -296.905)"/>
  <path class="cls-5" d="M2232,371.16l-12.147-1.449-30.626,2.831-12.963,16.787v23.139l5.059,14.062,12.594,13.886,9.379,8.608,10.5-.224,13.7-3.777,8.846-5.221,13.494-17.046,2.549-13.389,3.9-16.863-2.849-8.753-8.7-7.351S2237.71,371.841,2232,371.16Z" transform="translate(-1981.486 -296.905)"/>
  <path class="cls-3" d="M2211.272,448.117s15.321,1.021,27.067-19.151c0,0,18.13-34.468,9.959-41.109,0,0-2.554-9.45-14.81-15.068a48.5,48.5,0,0,1,29.876,12.768s17.109,29.876-14.81,52.347C2248.553,437.9,2246.51,442.244,2211.272,448.117Z" transform="translate(-1981.486 -296.905)"/>
  <path class="cls-6" d="M2200.911,377.918s-0.958,4.852-2.51,5.434c0,0,.582,13.879-5.434,16.546,0,0-.194,14.7-3.493,15.669h-1.553s0.788,7.9,0,8.969a5.855,5.855,0,0,1-2.48,1.627l-8.332-9.1-2.124-27.221,12.963-11.923S2197.809,376.344,2200.911,377.918Z" transform="translate(-1981.486 -296.905)"/>
  <path class="cls-3" d="M2202.016,448.126s-29.905-9.542-35.032-29.536c0,0-10.937-29.392,3.247-44.943,0,0,37.658-21.643,58.785-2.051,0,0-35.544-7.006-47.165,17.772,0,0-11.62,19.931,3.589,36.795S2202.016,448.126,2202.016,448.126Z" transform="translate(-1981.486 -296.905)"/>
</svg>
