<svg id="Calque_1" data-name="Calque 1" xmlns="http://www.w3.org/2000/svg" width="104.379mm" height="114.958mm" viewBox="0 0 295.878 325.864">
  <defs>
    <style>
      .cls-1 {
        fill: #e3b792;
      }

      .cls-2 {
        fill: none;
        stroke: #91a7d0;
        stroke-miterlimit: 10;
        stroke-width: 2px;
      }

      .cls-3 {
        fill: #141412;
      }

      .cls-4 {
        fill: #91a7d0;
      }

      .cls-5 {
        fill: #fff;
      }
    </style>
  </defs>
  <title>femmeserenity</title>
  <path class="cls-1" d="M197.584,274.809s89.509-43.663,132.444-6.549c0,0,23.287,10.916,49.485,51.668,0,0,35.658,54.579,36.386,61.856,0,0,16.737,49.64,17.465,58.295s9.46,79.971-13.827,100.347a360.912,360.912,0,0,1-90.964,6.549s-47.3-5.094-90.964,21.1c0,0-45.118,21.1-61.128,5.094s-31.292-70.588-31.292-70.588-7.277-30.786-5.094-86.345,9.46-70.841,9.46-70.841S175.025,293.73,197.584,274.809Z" transform="translate(-139.686 -253.307)"/>
  <path class="cls-2" d="M269.888,336.21s29.175,12.661,29.175,20.718" transform="translate(-139.686 -253.307)"/>
  <path class="cls-2" d="M239.115,342.2s-13.506,27.976-13.347,38.367" transform="translate(-139.686 -253.307)"/>
  <polyline class="cls-1" points="94.092 207.778 87.626 207.75 98.255 179.556 116.34 156.128 162.786 150.59 185.803 162.932 200.276 181.297 195.192 183.345"/>
  <path class="cls-3" d="M334.878,436.652s-18.212-2.518-27.241-1.56-46.65,10.4-46.65,10.4-25.69,12.86-27.209,15.6h0a28.228,28.228,0,0,1-6.466-.027c-2.345-.469,4.262-13.653,4.262-13.653l10.4-26.4,10.807-12.039,21.889-7.387,24.625,3.967,15.459,6.019,14.775,8.619L339.962,434.6s-2.467,2.1-5.083,2.048" transform="translate(-139.686 -253.307)"/>
  <path class="cls-2" d="M219.932,368.981s-28.775-2.23-47.159,22.265" transform="translate(-139.686 -253.307)"/>
  <path class="cls-2" d="M305.457,342.2s32.372-9.538,50.756-2.171" transform="translate(-139.686 -253.307)"/>
  <path class="cls-4" d="M244.311,361.388s7.993-5.2,8.792,4.8c0,0-6.794,11.19-8.792,16.785,0,0-10.254,5.6-8.524-5.995S244.311,361.388,244.311,361.388Z" transform="translate(-139.686 -253.307)"/>
  <path class="cls-4" d="M269.089,364.185s-5.2-8.521,5.6-7.258c0,0,10.591-.735,13.289,7.258,0,0,1.5,8.393-6.894,7.993Z" transform="translate(-139.686 -253.307)"/>
  <path class="cls-4" d="M210.19,331.768s13.56-7.4-2.876-8.629c0,0-39.859,6.986-54.241,23.011l-6.8,10.778S164.578,336.7,196.63,333Z" transform="translate(-139.686 -253.307)"/>
  <path class="cls-4" d="M284.328,298.894s-3.222,12.328,3.645,9.862c0,0,13.852-11.095,38.1-9.862,0,0,11.917-1.233,31.641,3.287a24.261,24.261,0,0,1,9.04,6.9s-8.218-14.708-25.888-19.228C340.862,289.854,303.4,286.567,284.328,298.894Z" transform="translate(-139.686 -253.307)"/>
  <path class="cls-5" d="M322.739,428.5s4.346-10.539-3.908-13.966c0,0-3.02-.967-4.091.7s-0.56-6.2-8.976-7.134a4.822,4.822,0,0,0-4.909,1.415s-4.944-6.294-11.275-5.55c0,0-10.105-.465-12.231,5.562,0,0-9.5-5.049-12.867-.644,0,0-1.164.117-3.878,6.3,0,0-7.041-4.311-12.483-.619,0,0-3.611,5.16-2.042,10.656,0,0-5.5-1.321-7.961,3.913,0,0-3.152,4.034-2.418,7.549l0.618,2.352,3.393,4.121s12.781-6.922,12.9-11.731c0,0,6.668-4.768,8.661-5.795,0,0,16.815-.64,19.04-5.312,0,0,16.662,1.443,18.909-.517,0,0,8.007,1.3,10.693,1.479S316.982,428.155,322.739,428.5Z" transform="translate(-139.686 -253.307)"/>
  <path class="cls-4" d="M341.822,434.908s-10.562-24.186-25.167-36.04c0,0-12.235-9.955-44.68-6.462,0,0-30.877,4.9-40.738,35.326,0,0-8.086,24.662-6.269,32.856,0,0,3.181,1.794,4.89-1.44s4.984-14.166,4.984-14.166,10.081-27.481,29.45-31.967,44.317,2.655,44.317,2.655,16.352,6.386,21.17,12.584A18.018,18.018,0,0,0,341.822,434.908Z" transform="translate(-139.686 -253.307)"/>
  <path class="cls-4" d="M233.778,461.085s10.11-20.22,40.44-27.8c0,0,29.066-6.319,60.66,3.37,0,0-24.854.843-44.231,5.476s-39.6,11.8-39.6,11.8Z" transform="translate(-139.686 -253.307)"/>
</svg>
