<svg id="fond_noir" data-name="fond noir" xmlns="http://www.w3.org/2000/svg" width="106.028mm" height="126.82mm" viewBox="0 0 300.552 359.489">
  <defs>
    <style>
      .cls-1 {
        fill: #141412;
      }

      .cls-2 {
        fill: #d7a583;
      }

      .cls-3 {
        fill: #a28bc1;
      }

      .cls-4 {
        fill: none;
        stroke: #a28bc1;
        stroke-miterlimit: 10;
        stroke-width: 2px;
      }
    </style>
  </defs>
  <title>femmeviolet</title>
  <polygon class="cls-1" points="91.937 73.844 121.616 58.83 142.372 76.87 153.622 101.311 141.014 109.95 121.005 104.502 100.278 88.315 91.937 73.844"/>
  <path class="cls-2" d="M1614.134,490.254s78.022-104.651,62.232-127.872-90.1-121.583-90.1-121.583-22.711-17-26.608-17-14.289-10.825-34.639,14.722c0,0-11.258,25.979-22.949,29.01a81.037,81.037,0,0,0-7.249,6.2c-5.525,5.045,26.081,33.473,26.081,33.473l4.928,11.088s2.464,5.339-5.749,5.749l-25.909-1.232-22.55-16.837-9.856-10.677s-4.928,4.517-4.928,6.981-4.107,5.749-4.107,5.749-4.928,5.339-9.035,6.16-11.909-2.464-11.909-2.464-7.8-2.875-13.552,0-9.445,10.677-9.445,10.677-4.107,36.96,0,65.3c0,0,1.643,6.16-9.856,9.035,0,0-13.141,9.856-15.605,19.712s-5.339,12.731,0,33.675c0,0-4.174,33.023-5.408,35.183,0,0,.347,56.463,13.869,66.6s55.535,26.077,71.955,28.975C1463.747,580.879,1515.819,588.449,1614.134,490.254Z" transform="translate(-1377.924 -221.526)"/>
  <path class="cls-3" d="M1489.971,281.469s1.715,6.173,2.829,7.287c0,0-7.1-1.581-9.514,10.9,0,0-4.234,16.415,37.8,24.391,0,0-22.489,5.488-38.807-1.43s-25.672-20.252-24.331-29.411S1474.191,288.724,1489.971,281.469Z" transform="translate(-1377.924 -221.526)"/>
  <path class="cls-3" d="M1439.214,322.786s-9.492-7.973-9.112,1.519,15.946,18.6,24.678,18.983-2.278-8.828-4.936-11.817S1439.214,322.786,1439.214,322.786Z" transform="translate(-1377.924 -221.526)"/>
  <path class="cls-4" d="M1437.7,363.41s15.187,9.871,26.2-3.417a18.066,18.066,0,0,0,2.658-14.048" transform="translate(-1377.924 -221.526)"/>
  <path class="cls-4" d="M1441.112,447.7s-3.714-15.187,11.242-23.16c0,0,17.613,25.438,33.179,28.855" transform="translate(-1377.924 -221.526)"/>
  <path class="cls-4" d="M1444.09,415.8a22.221,22.221,0,0,1,19.028-5.315" transform="translate(-1377.924 -221.526)"/>
  <path class="cls-3" d="M1406.805,410.945s-18.708,16-25.622,20.064,4.41-25.179,12.508-29.739C1393.692,401.27,1398.74,413.03,1406.805,410.945Z" transform="translate(-1377.924 -221.526)"/>
  <path class="cls-3" d="M1416.148,428.557s-16.7-2.655-16.7,10.407,6.473,42.987,44.645,65.257c0,0,30.169,1.392,47.915-4.872,0,0-34.054-2.784-51.3-17.05S1416.148,428.557,1416.148,428.557Z" transform="translate(-1377.924 -221.526)"/>
  <path class="cls-3" d="M1490.11,285.307s-3.25-10.622,5.55-14.943c0,0,25.19,13.876,28.819,37.144,0,0,1.782,8.381,1.627,12.867,0,0-6.93-5.858-11.022-9.734S1500.023,303.69,1490.11,285.307Z" transform="translate(-1377.924 -221.526)"/>
</svg>
