<svg xmlns="http://www.w3.org/2000/svg" width="148.22mm" height="204.07mm" viewBox="0 0 420.14 578.46">
  <defs>
    <style>
      .cls-1 {
        fill: #e6ceb8;
      }

      .cls-2 {
        fill: #c82b6a;
      }

      .cls-3 {
        fill: none;
        stroke: #c82b6a;
        stroke-miterlimit: 10;
        stroke-width: 2px;
      }

      .cls-4 {
        fill: #000001;
      }
    </style>
  </defs>
  <title>Fichier 6</title>
  <g id="Calque_2" data-name="Calque 2">
    <g id="Calque_1-2" data-name="Calque 1">
      <path class="cls-1" d="M274.46,1.12C236.48,11.35,83.75,51.61,41.53,49A30.09,30.09,0,0,0,12.65,65.59C9.44,72.14,6.91,81,6.14,92.88,3.46,134.55-10,152,14.21,230c0,0,6.72,25.54,8.07,78,0,0,10.67,156,83.79,227.65.68.67,1.39,1.3,2.12,1.91,10.47,8.75,86.51,68.58,158.49,25.48a28.8,28.8,0,0,1,3.13-1.64c14.85-6.58,133.66-61.87,145-152.58l3.92-42.3a334,334,0,0,0,.09-60.58l-3.2-35.78c-1-11.05-37.4-100.06-42.48-108.68C364.88,147.43,332,18,293.81,2.15A30.07,30.07,0,0,0,274.46,1.12Z"/>
      <path class="cls-2" d="M149.32,188.92l3.29,19.74s89.94-27.42,148.07-7.68C300.68,201,240.35,170.27,149.32,188.92Z"/>
      <path class="cls-2" d="M92.29,203.18l1.1,19.74s-68-8.77-73.49,16.45C19.9,239.37,23.19,206.47,92.29,203.18Z"/>
      <path class="cls-3" d="M101.06,225.11s23,16.45,15.36,65.81c0,0-3.73,35.57-6.91,59.3-1.42,10.63,1.73,21.57,9.32,29.14,4,3.94,9,7,15.14,7"/>
      <path class="cls-2" d="M150.05,381.73s-4.29-8,5.82-15.35c0,0,9-5.82,15.87-3.7C171.75,362.68,173.34,371.15,150.05,381.73Z"/>
      <path class="cls-3" d="M189.73,245.09s48.58,28,81.19-1.33"/>
      <path class="cls-3" d="M101.89,261.06s-40.6,8.65-46.59,21.3"/>
      <path class="cls-2" d="M60.41,277s15.14,8.95,16.17-8.26"/>
      <path class="cls-2" d="M218.14,256.1s6.35,16.62,18.17,1.58"/>
      <path class="cls-2" d="M236.64,440.74s-28.24,34.8-67.07,34.8-49.93-23.2-49.93-23.2,0-21.69,17.15-25.22,25.72,2,25.72,2S188.23,412,236.64,440.74Z"/>
      <path class="cls-4" d="M132.75,449.82s.2-7,18.35-9c13-1.44,34.18-3.44,45.15-4.46a27,27,0,0,1,13.61,2.28l3.57,1.61S186.4,461.43,132.75,449.82Z"/>
    </g>
  </g>
</svg>
