<svg xmlns="http://www.w3.org/2000/svg" width="156.59mm" height="203.49mm" viewBox="0 0 443.89 576.82">
  <defs>
    <style>
      .cls-1 {
        fill: #b5985e;
      }

      .cls-2 {
        fill: #aace9c;
      }

      .cls-3 {
        fill: none;
        stroke: #aace9c;
        stroke-miterlimit: 10;
        stroke-width: 2px;
      }

      .cls-4 {
        fill: #000001;
      }

      .cls-5 {
        fill: #fff;
      }
    </style>
  </defs>
  <title>Fichier 12</title>
  <g id="Calque_2" data-name="Calque 2">
    <g id="Calque_1-2" data-name="Calque 1">
      <path class="cls-1" d="M61,55.17a171.76,171.76,0,0,0-48,62.13S-23.68,217,26.3,424.55c0,0,42.9,122.82,124.28,141.56L183.12,573a158.63,158.63,0,0,0,20.75,3,264.19,264.19,0,0,0,99.24-11.31l1.76-.55a195.09,195.09,0,0,0,124.71-120c9.56-26.65,14.83-45.45,14.28-57.63-.84-18.38-15.8-130.29-31.18-247.85-2.65-20.22-11.34-40.6-24-59.37C352.88,26.42,291.43-3.22,227.65.28L200.48,1.77C149.54,4.57,100.5,22.92,61,55.17Z"/>
      <path class="cls-2" d="M230.68,175.94,239.3,194s94.79-23.27,106-23.27S321.16,145.78,230.68,175.94Z"/>
      <path class="cls-2" d="M148,187.14v21.54S51.45,219.88,48,228.5,70.41,180.25,148,187.14Z"/>
      <path class="cls-3" d="M158.3,201.79s16.37,7.76,16.37,31.88"/>
      <path class="cls-3" d="M216,189.72s-8.62,0,0,28.44"/>
      <path class="cls-3" d="M165.2,331.9S129,312.08,154.86,288.82"/>
      <path class="cls-3" d="M253.95,309.5s18.1-23.27-6.89-39.64"/>
      <path class="cls-2" d="M188.93,309.4s-12.36-3.76-14-7.53c0,0-9.41-1.08-4.57,9.68C170.39,311.55,185.44,326.33,188.93,309.4Z"/>
      <path class="cls-2" d="M222.53,299.18s16.66-8.33,16.66-11.56c0,0,8.06,5.38,2.15,13.71C241.35,301.33,233,308.59,222.53,299.18Z"/>
      <path class="cls-3" d="M252.69,200.66s69.64,5.57,84.5,0"/>
      <path class="cls-3" d="M66,251.73S124.55,235,140.33,222"/>
      <path class="cls-2" d="M154.33,439.23s19.48,23.49,69.32,17.76c0,0,51.56-4.58,80.78-53.85,0,0-14.32-68.18-83.65-45.83C220.79,357.3,122.25,367.61,154.33,439.23Z"/>
      <path class="cls-4" d="M160.86,427.44s68.85,11.14,130.62-25.31c0,0-7.61-38.88-69.72-29.33C221.75,372.8,167.61,382.36,160.86,427.44Z"/>
      <path class="cls-5" d="M173,400.07a9.87,9.87,0,0,0,6.78,3.62c4.74.46,14.4,1,14.4-2.65,0,0,18,.87,24.46-2.81,0,0,22.94,1.95,26.62-3,0,0,17.1,3.25,20.13-.22,0,0,16.11,4.16,23-.6,0,0-8.68-23-48.72-23.45C239.67,370.93,193.31,370.2,173,400.07Z"/>
    </g>
  </g>
</svg>
