<svg xmlns="http://www.w3.org/2000/svg" width="145.06mm" height="229.36mm" viewBox="0 0 411.2 650.15">
  <defs>
    <style>
      .cls-1 {
        fill: #e8c5a1;
      }

      .cls-2 {
        fill: #c84b24;
      }

      .cls-3 {
        fill: none;
        stroke: #c84b24;
        stroke-miterlimit: 10;
        stroke-width: 2px;
      }

      .cls-4 {
        fill: #000001;
      }

      .cls-5 {
        fill: #fff;
      }
    </style>
  </defs>
  <title>Fichier 7</title>
  <g id="Calque_2" data-name="Calque 2">
    <g id="Calque_1-2" data-name="Calque 1">
      <path class="cls-1" d="M180.34,3.33S93,22.74,46.11,103.59c0,0-53.37,135.84-45.28,271.68,0,0,0,153.63,82.48,216.7,0,0,22.64,34,72.77,55,0,0,56.6,16.17,110-24.26,0,0,108.35-82.48,135.84-210.23,0,0,22.25-234.61-2-303.85C399.84,108.62,333.64-22.32,180.34,3.33Z"/>
      <path class="cls-2" d="M275.27,127.48,273,154s39.41,0,65.93,15.91c0,0,40.92,18.19,44,28,0,0-.76-30.31-25-46.23C357.87,151.73,317.71,127.48,275.27,127.48Z"/>
      <path class="cls-2" d="M166.13,119.14l-.76,29.56S75.19,138.09,54,168.4c0,0,12.13-35.62,32.59-44.71S166.13,119.14,166.13,119.14Z"/>
      <path class="cls-3" d="M68.66,211.89s36.16,14.59,73.59-2.54"/>
      <path class="cls-3" d="M276.1,225.85s29.18,22.84,71.69,22.2"/>
      <path class="cls-3" d="M175,157.62s17.66,24.28,7.36,66.94"/>
      <path class="cls-3" d="M253.76,168.66S230.22,190,233.9,216.47"/>
      <path class="cls-2" d="M160.68,321.7s22-1.12,22-13.2c0,0-3.52-16.71-19.79-10.56C162.88,297.94,147.92,307.62,160.68,321.7Z"/>
      <path class="cls-2" d="M237.15,307.55a10.22,10.22,0,0,0-9.83-2.32c-4.34,1.25-9.91,3.64-9.91,7.66,0,0-1.16,9,5.74,12.15a10.16,10.16,0,0,0,9.68-1C237.6,321,244.65,314.65,237.15,307.55Z"/>
      <path class="cls-2" d="M117.39,450.39c3.5,16.67,16.42,58.37,58.44,60.78,1.15.07,2.3.17,3.44.35C189,513,242.21,518.78,263.63,468a34.57,34.57,0,0,0,2.68-14.92c-.92-21.3-8.14-81-60-81.25a32.42,32.42,0,0,0-3.5.2c-3.78.4-13.32,1.2-18.69-.11a32.93,32.93,0,0,0-16.64.49c-16.32,4.58-42.7,19.12-50.36,65.28A34.47,34.47,0,0,0,117.39,450.39Z"/>
      <path class="cls-4" d="M129.49,437.79s19.44-38.58,50.63-31.75a39.18,39.18,0,0,0,6.82.84c5.89.24,16.78.6,25.58.46a28.64,28.64,0,0,1,23.11,10.86c4.27,5.49,11.08,12.24,14.31,21,0,0-8.36,27.05-42.57,27.43l-47.84-.38c-5.32-.2-15.55-3.82-19.46-7.43A33.72,33.72,0,0,1,129.49,437.79Z"/>
      <path class="cls-5" d="M152.33,412.2s-1.11,4.16,4.43,6.37,23.56,6.1,29.38,3.33c0,0,15.21,5.13,27.19,1l12,.78a42.26,42.26,0,0,0,4.27-.59,7.56,7.56,0,0,0,4.87-3.17l1.14-1.66s-7.24-9.13-13.76-10a83.35,83.35,0,0,0-20.43-.79s-18.88-.5-21.33-1.38C180.12,406,164.44,402.15,152.33,412.2Z"/>
      <path class="cls-2" d="M185.45,359.9s-54.4,5.52-70.58,36.8c0,0-12.06,30.19-12.4,42.06,0,1.23-17.26-5.93-17.26-5.93l6.31-37.75s6.6-29.59,60.29-53.8c0,0,21.73-10.24,38-2.29Z"/>
      <path class="cls-2" d="M212.2,339.83l.82,22.35s31.82,7,41,24.27c0,0,16.72,22.11,21.57,46.38l4.31,18.87,15.64-2.7-3.12-13c-3.16-13.14-5.11-25.8-11.84-37.52a165.5,165.5,0,0,0-16.7-24.39C248.23,355.81,244,345.23,212.2,339.83Z"/>
      <path class="cls-3" d="M154.53,329.09s-21-11.74-3.09-35.21"/>
      <path class="cls-3" d="M246.58,337.74s18.53-9.88,9.88-32.74"/>
    </g>
  </g>
</svg>
