<svg id="Calque_1" data-name="Calque 1" xmlns="http://www.w3.org/2000/svg" width="92.858mm" height="136.335mm" viewBox="0 0 263.221 386.462">
  <defs>
    <style>
      .cls-1 {
        fill: #704036;
      }

      .cls-2 {
        fill: #e9c6c4;
      }

      .cls-3 {
        fill: none;
        stroke: #e9c6c4;
        stroke-miterlimit: 10;
        stroke-width: 2px;
      }
    </style>
  </defs>
  <title>homme metisse quartz</title>
  <path class="cls-1" d="M771.192,277.036s-19.025,42.673-5.945,84.29c0,0,14.269,76.695,15.458,91.558s-2.378,44,20.214,71.344c0,0,44,58.264,82.046,68.966,0,0,46.374,6.54,81.451-20.809s49.941-76.695,49.941-76.695,11.3-97.5,7.134-112.961c0,0,8.918-72.266-7.729-105.693,0,0-18.431-53.642-72.533-65.532s-107.611,5.945-107.611,5.945S806.864,223.662,771.192,277.036Z" transform="translate(-760.655 -207.416)"/>
  <path class="cls-2" d="M925.388,349.553s-4.724-14.227,11.865-17.716c0,0,40.21-2.416,54.705,5.905,0,0,14.763,9.663,14.227,19.6,0,0-7.784-13.747-29.258-12.913,0,0-16.091,4.324-24.151,6.739C952.774,351.163,931.561,353.847,925.388,349.553Z" transform="translate(-760.655 -207.416)"/>
  <path class="cls-2" d="M869.913,357.337s16.083-6.064,0-15.783c0,0-30.419-5.346-51.8-2.916,0,0-24.3,4.374-29.157,25.27,0,0,16.279-13.754,34.26-12.951C823.215,350.957,863.885,358.784,869.913,357.337Z" transform="translate(-760.655 -207.416)"/>
  <path class="cls-3" d="M932.389,383.5s38.155,16.991,56.42,6.8" transform="translate(-760.655 -207.416)"/>
  <path class="cls-3" d="M866.289,386.9s-26.625,22.368-61.83,9.345" transform="translate(-760.655 -207.416)"/>
  <path class="cls-2" d="M861.7,508.777s-0.3-6.558,6.26-12.67,25.372-12.223,25.372-12.223a19.069,19.069,0,0,1,13.382.745s3.577-2.385,10.434-2.534c0,0,19.974,2.534,29.96,12.67,0,0,5.664,6.708,5.664,9.689,0,0-22.358-1.491-32.345.745s-10.434,3.279-21.017.6c0,0-15.949-.745-27.277,2.981S861.7,508.777,861.7,508.777Z" transform="translate(-760.655 -207.416)"/>
  <path class="cls-2" d="M952.774,507.3s-6.005,23.788-25.326,32.023c0,0-24.389,4.751-37.058,0,0,0-22.48-8.816-27.4-24.728l-0.616-1.41,12.856-3.3,17.032-2.1,12.951,1.27s11.358-.185,12.016-1.121,16.349-1.938,16.349-1.938Z" transform="translate(-760.655 -207.416)"/>
  <path class="cls-2" d="M885.715,457.424s-11.513-3.454-5.373-7.292c0,0,10.362-1.919,17.27,3.646,0,0,1.2,2.111-5.347,2.878A20.906,20.906,0,0,1,885.715,457.424Z" transform="translate(-760.655 -207.416)"/>
  <path class="cls-2" d="M915.35,451.253a15.25,15.25,0,0,1,12.219-3.91s5.181,0.88,2.346,3.91-11.046,3.03-11.046,3.03S915.252,453.99,915.35,451.253Z" transform="translate(-760.655 -207.416)"/>
  <path class="cls-3" d="M932.389,426.768s16.632,10.491,6.4,25.588" transform="translate(-760.655 -207.416)"/>
  <path class="cls-3" d="M873.537,428.3s-13.562,9.739-3.582,29.178" transform="translate(-760.655 -207.416)"/>
</svg>
