<?xml version="1.0" encoding="utf-8"?>
<!-- Generator: Adobe Illustrator 22.1.0, SVG Export Plug-In . SVG Version: 6.00 Build 0)  -->
<svg version="1.1" id="Calque_1" xmlns="http://www.w3.org/2000/svg" xmlns:xlink="http://www.w3.org/1999/xlink" x="0px" y="0px"
	 viewBox="0 0 1644 744.5" style="enable-background:new 0 0 1644 744.5;" xml:space="preserve">
<style type="text/css">
	.st0{fill:#FFFFFF;}
</style>
<title>logo_eracom_footer</title>
<path class="st0" d="M1643.5,340.1c-1.7-0.1-3.5-0.4-5.2-0.4c-11.7,0-23.4,0-35,0c-1.7,0-3.5,0.4-5.4-0.8c-0.1-0.9-0.3-2-0.3-3.1
	c-0.1-1.6,0-3.2,0-4.8c0-40.8,0-81.6,0-122.4c0-9.8-0.7-19.5-2.7-29.1c-1.4-6.8-3.5-13.3-6.7-19.4c-8.1-15.5-21.1-23.5-38.4-24.7
	c-6.7-0.5-13.4-0.2-20,1.4c-12.4,3.1-22.4,9.9-30,20.2c-6.3,8.5-10.2,18.1-12.7,28.2c-2.2,9.2-3.1,18.6-3,28.1
	c0.1,39.5,0,79,0,118.5c0,1.6,0,3.2,0,4.8c0,0.8-0.2,1.5-0.4,2.4c-0.7,0.2-1.3,0.6-1.9,0.6c-13.9,0-27.8,0-41.7,0
	c-0.6,0-1.2-0.3-1.9-0.5c-0.2-0.8-0.4-1.6-0.4-2.4c-0.1-1.6,0-3.2,0-4.8c0-43.5,0-87,0-130.5c0-6.9-0.1-13.8-1.1-20.6
	c-1.1-7.1-2.7-14.1-5.8-20.7c-5.7-12-14.8-19.9-27.8-23.1c-10.4-2.6-20.9-2.7-31.3,0.4c-11.4,3.3-20.6,10-28,19.3
	c-7.7,9.7-12.3,20.9-15,32.9c-1.8,8.3-2.5,16.7-2.5,25.2c0,39.2,0,78.4,0,117.6c0,2.2,0.2,4.5-0.4,6.8c-1.2,0.2-2.3,0.5-3.4,0.5
	c-13,0-25.9,0-38.9,0c-0.9,0-1.9-0.2-3.1-0.4c-0.2-1-0.4-1.9-0.4-2.8c-0.1-1.6,0-3.2,0-4.8c0-58.7,0.1-117.4,0-176.1
	c0-13.1-0.6-26.2-1-39.3c0-1.8-0.3-3.5-0.5-5.3c-0.2-2.4-0.2-4.8-0.4-7.3c1.1-0.3,2-0.7,2.9-0.7c12.6,0,25.3,0,37.9,0
	c0.8,0,1.5,0.2,2.5,0.4c0.9,4.1,0.9,8.3,1.3,12.4c0.4,4.3,0.5,8.6,0.7,12.9c0.2,4.1,0.4,8.3,0.6,12.8c1-0.3,1.8-0.4,2.2-0.8
	c0.7-0.8,1.2-1.9,1.7-2.9c12.1-21,30.2-33.9,53.7-39.3c14.2-3.3,28.6-3,42.8,0.7c18.2,4.7,32.3,15,42.6,30.6
	c2.2,3.3,3.9,6.9,5.9,10.4c0.5,0.9,1.1,1.8,1.8,2.9c1.8-1.3,2.3-3,3.2-4.4c8.6-14,20.1-24.8,34.7-32.3c12.9-6.6,26.6-9.9,41.1-10.1
	c10-0.2,19.8,0.7,29.4,3.4c24.4,6.7,41.5,21.9,51.6,45c3.7,8.4,6,17.2,7.5,26.2c0.3,1.7,0.2,3.5,0.4,5.3c0.1,1.3,0,2.6,1.1,3.6
	C1643.5,233.3,1643.5,286.7,1643.5,340.1z"/>
<path class="st0" d="M0.5,221.1c0,6.4,0.5,9.9,0.7,12.6c0.6,9.5,2.3,18.7,5,27.8c8.5,28.1,24.8,50.3,49.8,65.8
	c15.7,9.8,32.9,15.4,51.3,17.6c18.1,2.1,36.1,1.4,53.8-3c25.9-6.5,47-20.4,63.8-41c0.8-0.9,1.9-1.8,1.6-3.3c-0.3-0.3-0.6-0.7-0.9-1
	c-9.7-7.8-19.5-15.6-29.2-23.4c-0.4-0.4-1.1-0.5-1.7-0.7c-1.1,1.4-2.1,2.7-3.1,3.9c-4.8,6.1-10.2,11.4-16.5,15.9
	c-15.5,11.1-32.9,16-51.9,15.5c-16.6-0.5-31.8-5.5-45-15.5c-17.5-13.2-27.4-30.9-29.9-52.7c-0.2-1.4-0.6-2.8,0.8-4.4
	c2.1,0,4.5-0.1,6.9-0.1c57.1,0,114.2,0,171.3,0c1.9,0,3.8,0.1,5.8-0.1c1.1-0.1,2.1-0.5,3.3-0.7c0.2-2.1,0.5-4,0.6-5.9
	c0.2-11-0.1-22.1-1.6-33c-1.7-12.4-4.8-24.5-9.8-36c-12.2-27.7-32.3-46.9-61.1-56.5c-22.6-7.6-45.9-8.6-69.1-3.4
	c-42,9.4-70.9,34.5-86.4,74.7c-4.4,11.4-6.8,23.3-7.7,35.5 M189.7,200c-0.9,0.2-1.6,0.4-2.4,0.4c-1.4,0.1-2.9,0-4.3,0
	c-42.7,0-85.4,0-128.1,0c-2,0-4.1,0.3-6.5-0.5c-0.5-3.1,0.3-5.7,0.8-8.3c5.7-28.3,28.2-50.9,56.5-57c14-3,27.9-2.6,41.7,1.7
	c16.1,5.2,27.7,15.5,35.1,30.6c4.8,9.8,7,20.2,7.5,31C190,198.5,189.8,199.1,189.7,200z"/>
<path class="st0" d="M492.5,684.8c-4-7.8-10.1-13.2-18.4-15.9c-5.7-1.8-11.5-2.3-17.5-1.6c-12.6,1.4-25.7,9.8-30.1,26.4
	c-1.6,6.1-1.8,12.3-1,18.5c2,14.9,11.7,27.7,28.5,30.9c1.1,0.2,2.1,0.7,3.1,1.1c3.5,0,7,0,10.6,0c0.9-1.2,2.3-1,3.5-1.3
	c10.7-2.5,18.8-8.4,23.5-18.7c0.3-0.7,0.4-1.4,0.6-2.1c-3.6-0.8-10.2-0.9-15.8-0.3c-2.6,3.9-6.3,6.9-11.2,8.1
	c-4.8,1.1-9.5,0.8-14.1-1c-7.5-3.1-12.7-11.1-12.3-18.8c1.6-1.1,3.4-0.6,5.1-0.6c14.9,0,29.7,0,44.6,0c1.7,0,3.5,0.3,5.2-0.4
	c0.2-0.6,0.4-1,0.5-1.4C497.6,699.6,496.2,691.9,492.5,684.8z M477.2,698c-15.7,0.6-31.3,0.3-34.8-0.7c-0.6-9.6,7.6-17.4,18.3-17.8
	c5.5-0.2,10.4,1.3,14.3,5.3c3.3,3.4,5.3,7.4,5.5,12.5C479.3,697.7,478.2,698,477.2,698z"/>
<path class="st0" d="M750.9,693.3c-3.9-13.6-12.9-22.1-26.8-25.2c-5.2-1.2-10.4-1.4-15.7-0.5c-13.8,2.2-23.5,9.5-28.6,22.5
	c-2.9,7.6-3.4,15.5-2.1,23.6c2.3,14.2,11.9,26.6,28.6,29.6c1.1,0.2,2.1,0.7,3.1,1.1c3.5,0,7,0,10.6,0c0.9-1.1,2.3-0.9,3.5-1.2
	c14.2-3.1,23.6-11.6,27.5-25.6C753.3,709.4,753.2,701.3,750.9,693.3z M733.7,716.9c-2.9,8.4-9.9,13.4-18.9,13.5
	c-10.7,0.1-17-6.5-19.3-13.6c-2.6-7.9-2.5-15.7,0.5-23.5c2.4-6.2,6.7-10.6,13.2-12.2c9.7-2.3,18.4,1.2,23.1,10.1
	c2.3,4.5,3.2,9.3,3.2,14.3C735.6,709.5,735,713.2,733.7,716.9z"/>
<path class="st0" d="M1547.1,690.4c-4.1-11.3-12.1-18.6-23.7-21.8c-5.7-1.6-11.6-2-17.5-1.1c-14.6,2.2-24.5,10-29.4,24
	c-2.1,6.1-2.4,12.5-1.9,18.9c1,13.8,9.5,29.3,29.1,32.8c0.9,0.2,1.7,0.7,2.6,1c3.5,0,7,0,10.6,0c1.4-0.4,2.7-0.9,4.1-1.2
	c13.6-3,22.9-11,27-24.4C1550.7,709.2,1550.4,699.7,1547.1,690.4z M1530.6,717.5c-2.6,7.2-9.1,12.7-18.3,12.9
	c-11.3,0.2-17.5-6.8-19.8-14.2c-2.3-7.4-2.3-14.8,0.4-22.1c2.3-6.3,6.5-11.1,13.2-12.8c10.2-2.6,19.1,1.5,23.5,10.1
	c2.3,4.5,3.2,9.3,3,14.3C1532.6,709.8,1532,713.7,1530.6,717.5z"/>
<path class="st0" d="M340,744.2c-1-0.4-2-0.9-3.1-1.1c-3-0.6-5.9-1.5-8.6-2.9c-7.7-3.9-12.9-11.9-13.2-20.3
	c3.2-0.8,8.8-0.9,14.5-0.2c0.6,1.1,1.2,2.4,1.9,3.6c2,3.5,5,5.7,8.9,6.9c4.1,1.2,8.2,1,12.2-0.4c2.5-0.9,4.5-2.4,5.7-4.8
	c1.7-3.5,0.9-6.7-2.4-8.7c-1.5-0.9-3.2-1.6-4.8-2.1c-4.4-1.3-8.9-2.5-13.3-3.8c-3.3-1.1-6.7-2.2-9.9-3.7c-14.4-6.7-13.4-25-3.8-32.8
	c3.7-3,7.8-5,12.4-5.9c6.4-1.2,12.8-1.2,19,0.7c7.9,2.4,13.8,7.2,16.4,15.4c0.6,1.8,0.5,1.8,0.2,4.8c-4.2,0.8-8.5,0.1-12.9,0.4
	c-1-1.4-1.8-2.8-2.8-4c-4.2-5.7-14.1-7-20.1-3.4c-2,1.2-3.3,3-3.6,5.4c-0.4,2.8,0.5,5.2,3,6.5c1.9,1.1,4,1.9,6.2,2.6
	c3.7,1.1,7.4,1.9,11.1,3c3.1,0.9,6.1,1.9,9.1,3.1c13,5.3,13.7,16.9,10.7,25.7c-1.8,5.2-5.5,8.9-10.2,11.6c-2.9,1.7-6.1,2.7-9.4,3.4
	c-0.9,0.2-1.7,0.7-2.6,1.1C347,744.2,343.5,744.2,340,744.2z"/>
<path class="st0" d="M627,744.2c-1-0.4-2-0.9-3.1-1.1c-14.9-2.7-26.1-13.8-28.3-31c-0.9-7-0.7-14.1,1.8-20.8
	c5-13.7,14.6-21.7,29.1-23.9c6.6-1,13.1-0.4,19.3,1.9c9.8,3.6,16,10.8,19.2,20.6c0.2,0.6,0.2,1.3,0.3,2.1c-0.7,0.3-1.4,0.8-2.1,0.8
	c-4.5,0.1-8.9,0-13.6,0c-0.7-1.1-1.5-2.1-2-3.2c-6.2-12.6-24.3-12-31.4-0.9c-3.2,5-4.4,10.6-4.4,16.4c0,4.5,0.7,8.9,2.5,13.1
	c4.3,10.1,14.4,14,24.1,11.3c3.8-1,6.9-3.3,9.2-6.6c0.8-1.2,1.6-2.4,2.3-3.5c4.2-0.7,10.7-0.7,15.2,0c-0.1,0.9-0.1,1.8-0.4,2.6
	c-4.3,11.1-12.3,18-23.9,20.7c-1.4,0.3-2.7,0.8-4.1,1.2C633.4,744.2,630.2,744.2,627,744.2z"/>
<path class="st0" d="M1261.5,744.2c-1-0.4-2-0.9-3.1-1.1c-15-2.8-26.1-13.9-28.3-31c-0.9-7-0.7-14.1,1.8-20.8
	c5-13.7,14.6-21.7,29.1-23.9c6.8-1,13.4-0.4,19.8,2.1c9.4,3.6,15.4,10.6,18.7,20c0.3,0.8,0.2,1.8,0.3,2.7c-3.5,1-8,1.1-15.8,0.5
	c-0.6-0.9-1.3-1.9-1.9-3c-6.1-12.4-23.9-12-31.1-1.3c-3.1,4.7-4.4,9.9-4.7,15.4c-0.2,5,0.5,9.9,2.5,14.5c4.2,10.1,14.4,14,24.1,11.3
	c3.8-1,6.9-3.3,9.2-6.6c0.8-1.2,1.6-2.4,2.3-3.5c4.3-0.7,10.8-0.7,15.2,0c-0.1,0.9-0.1,1.8-0.4,2.6c-4.3,11.1-12.3,18-23.9,20.7
	c-1.4,0.3-2.7,0.8-4.1,1.2C1267.9,744.2,1264.7,744.2,1261.5,744.2z"/>
<path class="st0" d="M1220.2,197.4c-7.5-41.3-30.5-71.1-68.5-88.9c-23-10.8-47.4-13.8-72.5-11.3c-12.7,1.2-24.9,4.1-36.7,8.9
	c-34.3,14.2-57.8,38.8-69.4,74.2c-7.3,22.3-8.2,45.2-3.3,68.2c8,37.2,28.7,65.1,62.4,83c19.3,10.2,40.1,14.7,63,14.6
	c14.2,0.2,29.1-2,43.6-7.1c35.7-12.5,61.1-35.9,74.9-71.3C1222.6,244.9,1224.5,221.3,1220.2,197.4z M1160.9,270.3
	c-11,18.3-26.8,30.2-47.7,34.9c-14.8,3.3-29.6,2.9-44-1.7c-19.2-6.2-33.3-18.6-42.9-36.2c-6.2-11.4-9.6-23.6-10.9-36.5
	c-1.6-15.9,0.4-31.3,6.1-46.1c3.7-9.8,9.1-18.7,16.3-26.3c12.6-13.4,28-20.8,46.2-23c11.4-1.4,22.7-0.6,33.7,2.5
	c17.1,4.8,30.7,14.8,40.7,29.4c7.4,10.9,12,22.9,14,35.9c0.9,5.8,1.2,11.7,1.5,14.7C1173.7,238.4,1170,255,1160.9,270.3z"/>
<path class="st0" d="M678.4,328.5c-1.3-12.6-1.7-25.2-1.7-37.8c0-32,0-64,0-96c0-3.4-0.1-6.7-0.1-10.1c0-7.9-1.1-15.6-3.1-23.2
	c-7.4-28.6-24.8-48.1-52.7-58.2c-10.5-3.8-21.3-5.7-32.3-6.4c-9.3-0.5-18.5-0.4-27.8,0.6c-13.3,1.4-26.2,4.4-38.6,9.1
	c-13.4,5.1-25.8,12.1-36.7,21.4c-1.3,1.1-2.9,2-3.6,4c0.4,0.6,0.7,1.3,1.2,1.9c7,8.4,13.9,16.7,20.9,25c0.6,0.7,1.4,1.2,2.1,1.8
	c2.4-2,4.5-4,6.8-5.7c22.2-16.9,47-23.9,74.7-20.2c7.3,1,14.4,3.2,20.9,6.7c10.4,5.7,17.5,14.3,21.2,25.6c2.5,7.8,3.3,15.9,2.7,24.2
	c0,0.4-0.4,0.8-0.6,1.4c-1.8,0.8-3.7,0.6-5.6,0.6c-12.1,0.2-24.3,0.2-36.4,1c-12.9,0.8-25.8,2-38.6,4.2c-12.3,2.1-24.4,5-36.1,9.6
	c-8.8,3.5-17.1,7.8-24.6,13.8c-10.2,8.1-17.3,18.3-20.8,30.9c-3.5,12.6-3.5,25.3-0.7,38c2.7,12.2,8.5,22.7,17.5,31.4
	c6.6,6.4,14.3,11.4,22.7,14.9c19.9,8.5,40.7,10.6,62,7.3c24.7-3.9,44.7-15.7,59.4-36.1c0.5-0.6,1-1.3,1.5-1.8
	c0.3-0.3,0.9-0.4,1.3-0.3c0.4,0.1,0.8,0.6,0.9,1c0.2,1.3,0.2,2.5,0.3,3.8c0.2,8.5,1.4,16.9,3,25.2c0.2,1.2,0.8,2.3,1.3,3.7
	c12.9,0,25.5,0,38.1,0c0.8,0,1.5-0.2,2.9-0.4C679.2,335.4,678.7,332,678.4,328.5z M630.7,257.1c-1.2,5.7-2.8,11.2-5.3,16.4
	c-8.6,18.1-22.9,29.2-42.3,33.8c-13.5,3.2-26.9,3.2-40.3-0.4c-4.2-1.1-8.2-2.8-11.9-5c-13.3-7.8-17.8-21.3-16.2-34.3
	c1.1-9.6,5.9-17.1,13.4-22.9c6-4.6,12.9-7.7,20.1-10c9-2.9,18.3-4.6,27.6-5.8c17.5-2.2,35.1-2.3,52.7-2.2c1.1,0,2.2,0.2,3.5,0.4
	c0.2,1,0.5,1.4,0.5,1.9C632.6,238.4,632.6,247.8,630.7,257.1z"/>
<path class="st0" d="M904.3,161.7c-0.8-0.8-1.2-1.1-1.5-1.4c-10-12.9-23.4-20.3-39-23.5c-19.2-3.9-37.6-1-54.5,9.2
	c-14.3,8.7-24.2,21.3-30.6,36.6c-6,14.4-8.2,29.5-7.3,45c0.8,13.9,4.2,27.1,10.8,39.4c9.4,17.5,23.2,30.1,42.2,36.2
	c19.1,6.2,38.1,5.4,56.7-2.4c9-3.8,16.7-9.3,23.3-16.6c0.7-0.8,1.5-1.6,2.1-2.3c0.4,0,0.6,0,0.7,0.1c0.1,0,0.3,0.1,0.4,0.2
	c9.3,8.3,18.6,16.7,27.8,25c0.5,0.4,0.9,0.9,1.3,1.4c0.2,0.2,0.3,0.6,0.5,1.2c-0.9,1-1.9,2.3-3,3.4c-14,14.4-30.9,23.6-50.2,28.7
	c-14.4,3.8-29,4.7-43.8,4c-17.3-0.9-33.9-4.6-49.6-12c-34.3-16.1-55.9-42.9-64.8-79.7c-6-24.6-5.5-49.3,2.2-73.4
	c12.6-39.8,39.4-65.7,79.1-78.4c16.5-5.2,33.5-6.9,50.7-5.7c18.9,1.4,36.8,6.5,53.3,16c8.5,4.9,16.2,10.9,22.7,18.2
	c1,1.2,2,2.4,3,3.8c-0.6,0.7-0.9,1.3-1.3,1.7C925.4,144.8,915,153.2,904.3,161.7z"/>
<path class="st0" d="M348.4,338.8c-4,1.1-21.3,1.4-42.2,0.9c-1.2,0-2.4-0.3-3.8-0.5c-0.2-1.1-0.4-1.8-0.4-2.6c-0.1-1.6,0-3.2,0-4.8
	c0-56.9,0-113.9,0-170.8c0-16-0.3-32-1.2-48c-0.1-1.9-0.4-3.8-0.5-5.7c-0.1-1.2,0-2.5,0-3.9c1-0.2,1.8-0.4,2.5-0.4
	c7-0.4,36.9-0.1,40.5,0.4c0.2,0.9,0.6,2,0.7,3c0.6,9.1,1.1,18.2,1.6,27.3c0.1,2.6,0.2,5.1,0.3,7.7c0,0.4,0.5,0.9,0.9,1
	c0.4,0.1,1.1-0.1,1.3-0.4c0.9-1.3,1.7-2.7,2.5-4.1c10.6-18.6,25.9-31.4,46.4-38c12.6-4,25.4-4.5,38.4-2.4c0.9,0.1,1.8,0.6,2.8,0.9
	c1,3.6-0.1,7-0.1,10.5c0,3.5-0.2,7-0.3,10.5c-0.2,3.4-0.4,6.7-0.6,10.1c-0.2,3.5-0.3,7-0.4,10.7c-1.2,0.1-2.1,0.2-3,0.1
	c-4.1-0.4-8.2-1-12.4-1.4c-10.2-1-20.1,0.3-29.7,3.8c-12.3,4.4-22,12.3-29.3,23c-5.9,8.7-9.6,18.4-11.8,28.7
	c-1.6,7.5-2.1,15.2-2.1,22.9c0.1,31.8,0,63.7,0,95.5c0,7,0,14.1,0,21.1C348.4,335.5,348.4,337.1,348.4,338.8z"/>
<path class="st0" d="M23.2,38.3c-0.2-0.5-0.5-1.1-0.5-1.7c0-11.4,0-22.7,0-34.1c0-0.6,0.4-1.2,0.6-1.8c0.9-0.1,1.6-0.4,2.4-0.4
	c63,0,126,0,189,0c0.6,0,1.2,0.2,2,0.4c0.2,0.8,0.5,1.5,0.5,2.3c0,11,0,22.1,0,33.1c0,0.6-0.2,1.2-0.4,2.1c-0.9,0.2-1.8,0.5-2.7,0.6
	c-1.3,0.1-2.6,0.1-3.8,0.1c-60.3,0-120.6,0-180.8,0C27.5,38.8,25.4,39.1,23.2,38.3z"/>
<path class="st0" d="M1008.3,741.5c-4.9,0.6-9.9,0.6-14.8,0c-1-2-0.6-3.8-0.6-5.5c0-10.6,0.1-21.1-0.1-31.7c0-3.7-0.4-7.3-0.9-11
	c-0.3-2.2-1.2-4.3-2.1-6.3c-1.5-3.2-4.2-5.2-7.7-6c-6.7-1.4-14.5,0.6-18.1,9c-1.5,3.6-1.9,7.4-1.9,11.3c0,8.2,0,16.3,0,24.5
	c0,3.7,0,7.4,0,11c0,1.4-0.2,2.8-0.2,4.1c-4,1.2-11.7,1.2-15.4,0.1c-0.9-1.6-0.5-3.4-0.5-5.1c0-11,0-22.1,0-33.1
	c0-3.7,0-7.4-1.1-10.9c-0.5-1.7-1.1-3.4-1.9-4.9c-1.4-2.9-3.8-4.7-6.8-5.7c-7.9-2.5-15.9,1-18.9,8.7c-0.9,2.2-1.3,4.6-1.6,7
	c-0.3,2.5-0.2,5.1-0.3,7.7c0,10.4,0,20.8,0,31.2c0,1.7,0.3,3.5-0.8,5.5c-0.7,0.1-1.6,0.5-2.5,0.5c-3.5,0.1-7,0.1-10.6,0
	c-1.7,0-2.3-0.7-2.4-2.4c-0.1-1.3-0.1-2.6-0.1-3.8c0-20.5,0-41,0-61.4c0-1.4-0.3-2.9,0.9-4.3c4.4-0.5,9-0.1,13.4-0.2
	c1.4,1.2,1.2,2.5,1.3,3.7c0.1,1.2-0.5,2.5,0.8,3.6c2-1.8,3.9-3.7,6-5.3c2.3-1.8,5-3,7.8-3.5c2.7-0.5,5.4-0.9,8.1-0.8
	c2.7,0.1,5.4,0.6,8,1.2c2.8,0.7,5.4,2.1,7.5,4.1c1.9,1.9,3.7,4,5.5,6c1.2,0.2,1.6-0.8,2.2-1.5c8.4-9.6,19.2-11.5,31-8.8
	c7,1.6,11.8,6.2,14.6,12.8c1.7,4,2.7,8.2,2.8,12.6c0.1,5.6,0.1,11.2,0.1,16.8c0,8.6,0,17.3,0,25.9
	C1008.9,738,1009.2,739.6,1008.3,741.5z"/>
<path class="st0" d="M832.1,740.9c-3.5,1.2-10.9,1.4-15.4,0.3c-0.8-1.4-0.5-3-0.5-4.6c0-10.7,0-21.4-0.1-32.1c0-3.5-0.4-7-0.8-10.5
	c-0.1-0.9-0.3-1.9-0.6-2.8c-1.9-6.6-5.6-10-11.5-10.5c-7.3-0.6-12.8,2.4-15.6,8.6c-1.8,4-2.3,8.3-2.3,12.6c0,11.2,0,22.4,0,33.6
	c0,1.7,0,3.5,0,5.4c-1.1,0.3-2,0.8-2.8,0.8c-4.3,0-8.6,0.5-12.9-0.4c-0.1-1.4-0.3-2.5-0.3-3.6c0-22.5,0-45,0-67.7
	c5-1,9.7-0.3,14.3-0.5c1.6,2.5,0.2,5.1,1.2,7.3c1.4,0.4,1.8-0.6,2.4-1.3c7.6-8,19.3-10.6,29.5-6.6c3.5,1.4,6.5,3.5,8.8,6.4
	c0.9,1.1,1.8,2.3,2.8,3.7c0.9-0.8,1.8-1.4,2.5-2.2c8.4-9.4,19-11.1,30.7-8.4c7.2,1.6,12,6.4,14.8,13.1c1.9,4.5,2.7,9.2,2.7,14
	c0.1,14.2,0.1,28.5,0,42.7c0,0.9-0.2,1.9-0.3,2.7c-3.5,1.2-11.1,1.3-15.2,0.2c-1-1.6-0.7-3.4-0.7-5.1c0-10.1,0-20.1,0-30.2
	c0-3.4-0.2-6.7-0.5-10.1c-0.2-3.1-1.1-6-2.5-8.7c-1.7-3.3-4.5-5.4-8.1-6.1c-8-1.5-14.9,2-17.8,9.5c-1.2,3.2-1.7,6.5-1.7,9.8
	c0,11.8,0,23.7,0,35.5C832.2,737.5,832.1,739.3,832.1,740.9z"/>
<path class="st0" d="M634.4,588.6c-0.5,0.2-1,0.6-1.4,0.6c-4,0.1-8,0.1-12,0.1c-1.4,0-2.1-0.7-2.2-2c-0.1-1.3-0.1-2.6-0.1-3.8
	c0-11.4,0-22.7,0-34.1c0-3.5-0.2-7-1.1-10.5c-1.8-6.5-5.6-10-11.5-10.6c-6.8-0.7-12.3,2.1-15.2,7.7c-1.5,2.9-2.3,6-2.5,9.2
	c-0.1,1.9-0.1,3.8-0.1,5.8c0,10.7,0,21.4,0,32.2c0,1.7-0.1,3.5-0.1,5.1c-2.5,1.8-5.2,1-7.6,1.1c-2.5,0.1-5.1,0.4-7.8-0.5
	c-0.2-0.9-0.5-1.8-0.6-2.7c-0.1-2.1-0.1-4.2-0.1-6.2c0-18.9,0-37.8,0-56.6c0-1.9-0.3-3.8,0.5-5.6c3.8-0.9,10.3-0.9,14.5,0
	c0.2,2.2,0.4,4.5,0.6,7.5c2-1.9,3.3-3.4,4.9-4.7c1.6-1.3,3.4-2.4,5.2-3.3c1.9-0.9,3.9-1.5,5.9-1.9c2.2-0.4,4.5-0.4,6.7-0.4
	c2.1,0.1,4.2,0.2,6.2,0.7c2,0.5,4,1.3,5.7,2.3c1.8,1,3.4,2.4,4.9,3.8c1.5,1.4,2.7,3.1,4.4,5.2c1-1.3,1.7-2.3,2.5-3.2
	c5.3-5.7,11.8-8.6,19.5-8.8c3.7-0.1,7.3,0,10.9,1c6.2,1.8,10.7,5.6,13.6,11.3c1.9,3.7,3,7.8,3.3,12c0.1,2.1,0.2,4.2,0.2,6.2
	c0,12.6,0,25.3,0,37.9c0,1.7-0.1,3.5-0.1,5.1c-3.8,1.2-11.6,1.2-15.5,0.1c-0.7-1.6-0.4-3.3-0.4-5.1c0-11.4-0.1-22.7,0-34.1
	c0-3.7-0.4-7.4-1.3-10.9c-1.5-5.3-4.5-9.3-10.3-10.1c-5.9-0.9-11.1,0.6-15,5.5c-2.1,2.7-3.3,5.9-3.6,9.3c-0.2,2.5-0.4,5.1-0.4,7.7
	c0,10.7,0,21.4,0,32.2C635,584.8,635.2,586.8,634.4,588.6z"/>
<path class="st0" d="M934.9,490.9c-2.3,0-4.9-0.2-7.4-0.1c-2.5,0.1-5.1-0.6-7.7,1c0,5.4,0.1,10.8,0,16.2c-0.1,5.5,0.3,11.1-0.3,17.6
	c-1.4-1.2-2-1.7-2.6-2.2c-8.2-8.3-18.3-10-29.2-7.8c-10.8,2.3-18,9.2-22.3,19.2c-2.9,6.6-3.6,13.5-3.4,20.6
	c0.2,5.5,1.3,10.8,3.4,15.8c9.2,21.4,36.5,26.5,52.9,10c0.6-0.6,1.1-1.2,2.2-0.6c0.1,2.6,0.3,5.2,0.4,7.8c1.6,1.1,3.2,0.8,4.8,0.9
	c1.8,0,3.5,0,5.3,0c1.6,0,3.2,0.3,4.8-1.4c0-1.4,0-3.1,0-4.9c0-17.3,0-34.5,0-51.8c0-11.8,0-23.6,0-35.5
	C935.8,494.2,936.3,492.6,934.9,490.9z M917.8,565.5c-3.6,8.1-10,12.2-20,12.2c-6.8,0-12.5-3.8-16.2-10.7c-1.6-3-2.4-6.3-2.8-9.6
	c-0.8-6.3,0.1-12.5,2.8-18.2c7-14.6,25-14,33-4c1.6,2,3,4.2,3.9,6.6C921.4,549.7,921.3,557.8,917.8,565.5z"/>
<path class="st0" d="M89.7,646.7c-0.1-1.1-0.4-2.1-0.6-3.4c-5.1-0.6-10-0.6-15.4,0c-0.1,2.2-0.2,3.8-0.2,5.4c0,8.5,0,17,0,25.4
	c0,1,0.4,2.3-1,3.1c-0.5-0.5-1.2-0.9-1.7-1.5c-5.6-5.7-12.4-8.4-20.2-8.6c-14-0.3-24.5,5.7-30.5,18.4c-6,12.8-5.9,26.1-0.2,39.1
	c3,7,8.1,12.2,15,15.5c10.5,5.1,28.2,4.2,37.2-6.3c0.5-0.6,1-1.3,2-0.8c0.9,2.5-0.3,5.4,0.9,7.8c4.5,1.2,10.8,1,14.5-0.3
	c0.1-1.6,0.2-3.3,0.2-5c0-28.8,0-57.6,0-86.4C89.7,648.3,89.8,647.5,89.7,646.7z M71.2,719.1c-4.6,9-13.3,12.7-23.4,10.5
	c-5.6-1.2-9.6-4.8-12.3-9.9c-2.3-4.3-3.2-9-3.1-14c-0.1-4.9,0.8-9.7,3-14.2c2.3-4.6,5.7-8.1,10.6-9.9c7.5-2.7,17.3-1.1,23.4,7.3
	c2.2,3,3.5,6.4,4.2,10.1C75,706,74.4,712.8,71.2,719.1z"/>
<path class="st0" d="M329.1,556.8c14.7,0,29.4,0,44.1,0c1.7,0,3.5,0.3,5.4-0.5c0.1-0.8,0.4-1.5,0.4-2.3c0.2-7.6-1.2-15-4.7-21.8
	c-4.2-8.1-10.6-13.5-19.3-16.2c-5-1.5-10.1-1.8-15.2-1.3c-15,1.5-25.2,9.3-30.5,23.4c-3.1,8.2-3.4,16.6-1.4,25
	c3.2,13.5,11.2,22.8,24.8,26.7c7.2,2.1,14.5,2.1,21.8,0.2c9.8-2.6,17.1-8.4,21.6-17.6c0.4-0.8,0.6-1.7,1-2.8c-1.2-0.2-2.1-0.6-3-0.6
	c-3.2-0.1-6.4,0.1-9.6-0.1c-2.1-0.1-3.6,0.6-4.9,2.4c-1.7,2.4-4.1,4.1-6.8,5.1c-11.4,4.5-26-0.4-29.3-16.1c-0.2-1,0-2.1,0.1-3.5
	C325.7,556.9,327.4,556.8,329.1,556.8z M344.7,527.1c5.2,0.2,9.6,2.2,13,6.2c2.9,3.3,4.7,7.1,4.7,11.5c-3.8,1-20.6,1.3-35.2,0.7
	c-1.1,0-2.1-0.4-3.1-0.5C324.2,534,332.8,526.6,344.7,527.1z"/>
<path class="st0" d="M83.9,533.6c-4.6-9.7-12.2-15.8-22.7-18.1c-2.3-0.5-4.8-0.7-7.1-0.8c-19.1-0.7-32.7,10.7-36.9,27.2
	c-2.1,8.4-1.9,16.8,0.8,25.1c3.9,11.8,11.7,19.6,23.8,23c8.1,2.3,16.2,2.1,24.1-0.5c8.6-2.8,15-8.3,19.1-16.4c0.5-0.9,0.7-2,1.1-3.3
	c-1-0.2-1.8-0.6-2.5-0.6c-3.5-0.1-7,0-10.6,0c-1.8,0-3,0.6-4.1,2c-3.1,4.3-7.6,6.2-12.7,6.9c-12.5,1.7-23.5-7.7-23.7-20.5
	c1.6-1.1,3.4-0.7,5.1-0.7c14.7,0,29.4,0,44.1,0c1.7,0,3.5,0,5.4,0c0.4-1,0.7-1.4,0.8-1.8c0.1-0.6,0.2-1.3,0.2-1.9
	C87.8,546.4,86.9,539.8,83.9,533.6z M71,545c-0.5,0.2-1.1,0.5-1.7,0.5c-11.7,0-23.3,0-35-0.1c-0.4,0-0.8-0.4-1.2-0.5
	c-0.4-10.2,8.4-17.8,20-17.9C62.2,527,71.8,535.3,71,545z"/>
<path class="st0" d="M1020.3,533.9c-4.6-10-12.3-16.2-23-18.5c-2.3-0.5-4.8-0.7-7.1-0.8c-20.4-0.7-33.2,12.2-36.8,27.3
	c-1.5,6.3-1.8,12.7-0.6,19c2.2,12.4,8.5,22.1,20.4,27.2c10.5,4.5,21.2,4.5,31.7,0.1c8.4-3.5,14.2-9.6,17.7-18.7
	c-1.6-0.3-2.5-0.5-3.4-0.6c-3-0.1-6.1,0.1-9.1-0.1c-2.2-0.1-3.9,0.6-5.3,2.5c-1.9,2.7-4.6,4.4-7.7,5.4c-10.9,3.6-23.2-0.9-27.4-13.4
	c-0.7-1.9-1.5-3.9-0.8-6.1c1.6-1,3.4-0.6,5.1-0.6c14.9,0,29.7,0,44.6,0c1.7,0,3.5,0.3,5.1-0.4c0.2-0.6,0.4-1.1,0.4-1.5
	C1024.5,547.6,1023.3,540.6,1020.3,533.9z M1005.3,545.5c-11.5,0-23,0-34.5-0.1c-0.4,0-0.9-0.3-1.3-0.5c-0.9-9,7.1-17.3,17.2-17.9
	c5.7-0.4,10.8,0.9,15,4.9c3.6,3.4,5.6,7.6,6,13.1C1006.5,545.3,1005.9,545.5,1005.3,545.5z"/>
<path class="st0" d="M554.7,544.3c-3.2-14.9-11.8-24.8-26.9-28.6c-5-1.3-10.1-1.4-15.2-0.8c-14.2,1.6-24.3,8.9-29.7,22.3
	c-2.1,5.1-2.9,10.4-3.1,16c0.5,3.8,0.7,7.7,1.6,11.3c3.4,13.3,11.8,22,25.2,25.5c7.7,2,15.5,1.8,23.2-0.4
	c12.3-3.6,20.3-11.8,23.9-24C555.8,558.7,556.2,551.5,554.7,544.3z M536,565.8c-3.6,8.3-10.1,12.3-18.9,12.2
	c-8.6-0.1-15-4.2-18.2-12.4c-3.3-8.5-3.5-17.2,0.2-25.7c5-11.4,16.1-13.6,24.7-10.9c5.2,1.6,8.8,5,11.3,9.8
	c2.2,4.1,3.3,9.4,3.2,14.5C538.1,557.8,537.7,561.9,536,565.8z"/>
<path class="st0" d="M257.1,544.3c-3.1-14.9-11.8-24.9-26.9-28.5c-3.2-0.8-6.6-1-9-1.3c-2.5,0.2-4.1,0.3-5.7,0.4
	c-14.8,1.2-26.5,10.5-30.9,24.7c-2.9,9.3-2.9,18.6,0.2,27.8c4.3,12.7,13.2,20.4,26.3,23.1c5.9,1.2,11.7,1.2,17.6,0
	c14.1-2.9,23.4-11.1,27.6-24.9C258.4,558.6,258.6,551.4,257.1,544.3z M238.5,565.8c-3.5,8.1-9.8,12.1-18.4,12.1
	c-8.8,0-15.2-3.9-18.5-12c-3.5-8.6-3.6-17.5,0.2-26.1c3.4-7.7,9.5-11.8,18.1-11.8c8.6,0,14.6,4.1,18.3,11.7
	c1.8,3.7,2.7,8.5,2.7,14.2C240.8,557.5,240.3,561.8,238.5,565.8z"/>
<path class="st0" d="M1375.5,731.6c-0.1-11.2-0.1-22.4-0.1-33.6c0-5.1-0.7-10.2-2.4-15.1c-2.6-7.5-7.8-12.4-15.5-14.3
	c-3.4-0.8-6.9-1.4-10.4-1.5c-6.1-0.2-12.1,0.6-17.8,3.2c-7.6,3.5-12.4,9.3-14.6,17.4c-0.2,0.9-0.2,1.9-0.4,3.5
	c5.4,0.2,10.3,0.3,15.3-0.1c0.4-1.2,0.8-2.2,1.2-3.2c1.6-4,4.6-6.5,8.7-7.6c3.5-0.9,7-0.9,10.4-0.1c3.1,0.7,5.7,2.3,7.2,5.2
	c1.9,3.4,2.9,7.1,2,11.2c-0.9,0.3-1.8,0.6-2.7,0.7c-3.5,0.4-7,0.7-10.5,1.2c-5.9,0.8-11.7,1.9-17.3,3.8c-3.7,1.2-7.1,2.8-10.2,5.2
	c-3.3,2.5-5.8,5.7-6.6,9.7c-1.7,8.5,0.6,16.6,8.6,21.7c3.7,2.4,7.9,3.6,12.2,4c9.4,0.9,18.2-0.6,25.5-7.2c0.6-0.5,1.2-0.9,2.2-1.6
	c0.5,2.6,1,4.9,1.4,7.4c2.5,0.1,4.7,0.2,6.9,0.2c2.3-0.1,4.8,0.5,7.2-0.7C1375.7,737.7,1375.5,734.7,1375.5,731.6z M1356.4,724.7
	c-2.1,3.2-5.2,5.1-8.9,6c-3.4,0.8-7,0.9-10.5,0.1c-3.6-0.7-6.5-2.6-7.9-6.3c-1.5-4.1-0.3-8.1,3.2-10.5c1.4-1,3.1-1.8,4.7-2.3
	c6.7-2,13.7-3.1,20.7-3.4c0.4,0,0.9,0.2,1.6,0.4C1360.2,714.4,1359.5,719.8,1356.4,724.7z"/>
<path class="st0" d="M204.5,732.7c-0.1-11.4-0.1-22.7-0.1-34.1c0-4.8-0.6-9.6-1.9-14.2c-2.5-8.3-7.8-13.9-16.3-15.9
	c-3.2-0.8-6.6-1.3-9.9-1.4c-6.3-0.2-12.4,0.6-18.2,3.4c-7.2,3.4-11.9,9-14.1,16.7c-0.3,1.2-0.3,2.4-0.5,3.7c5,0.8,12.2,0.7,15.5-0.2
	c0.2-0.7,0.5-1.5,0.7-2.2c2-5.4,6.1-8,11.6-8.6c1.9-0.2,3.8-0.1,5.7,0c6.9,0.4,13.2,7.4,10.8,17.1c-1.4,0.2-3,0.4-4.6,0.5
	c-7.6,0.8-15.2,1.9-22.6,3.9c-4.3,1.2-8.5,2.8-12.2,5.4c-7.2,5.1-9.8,12.7-6.9,22c2,6.3,6.6,10.3,12.6,12.2c12,3.8,23.3,3,33.3-5.6
	c0.5-0.5,1.1-1.3,2.2-0.6c0.3,2,0.7,4.1,1.1,6.4c4.7,0.7,9.1,0.4,14.2,0.3C204.7,738.1,204.5,735.4,204.5,732.7z M187.3,720.7
	c-2.1,6-6.4,9.5-12.6,10.2c-2.7,0.3-5.4,0.3-8.1,0c-3.5-0.4-6.4-2.1-8-5.3c-2.2-4.3-1-9.2,3.1-11.7c1.6-1,3.4-1.8,5.2-2.3
	c6.5-1.8,13.1-2.8,19.8-3.2c0.5,0,0.9,0.1,1.8,0.3C189,713,188.7,716.9,187.3,720.7z"/>
<path class="st0" d="M762,585.7c-0.8-6.5-0.6-13.1-0.7-19.6c0-6.9,0-13.7,0-20.6c0-4.8-0.5-9.6-2-14.2c-2.6-8.1-8-13.3-16.3-15.3
	c-6.6-1.7-13.3-1.6-20-0.5c-4.6,0.7-8.9,2.5-12.7,5.4c-5.7,4.4-9,10.1-10,17.2c3.5,0.9,10.4,1,15.5,0.3c0.4-1,0.8-2,1.2-3.1
	c1.5-3.8,4.3-6.2,8.2-7.4c2.5-0.8,5-0.9,7.6-0.7c7.2,0.4,11.5,4.4,12.5,11.5c0.2,1.8,1,3.8-0.5,5.7c-3.8,0.5-7.8,0.9-11.7,1.4
	c-6.2,0.8-12.3,2-18.2,3.9c-3.8,1.2-7.4,2.9-10.6,5.5c-5.1,4.1-7.4,9.5-6.8,16c0.8,8.3,5.2,14.2,12.9,16.9c12,4.3,23.6,3.6,33.8-5
	c0.7-0.6,1.5-0.9,2.6-1.6c0.3,2.7,0.5,4.8,0.8,6.9c3.8,1.2,10.6,1.2,14.5,0C762,587.5,762.1,586.6,762,585.7z M740.8,574
	c-1.3,1.3-3,2.4-4.7,3.2c-4.5,2-9.4,2-14.1,0.8c-3.6-0.9-6.3-3.1-7.1-7c-1-4.4,0.5-7.9,4.4-10.1c1.4-0.8,2.9-1.4,4.4-1.9
	c6.3-1.8,12.8-2.7,19.3-3.3c0.7-0.1,1.5,0.2,2.2,0.2C746.8,562.2,744.9,570,740.8,574z"/>
<path class="st0" d="M797.5,588.3c-4.5,1.3-12.1,1.2-15.7,0.1c-0.1-0.6-0.4-1.2-0.4-1.8c0-22.4,0-44.8,0-67.2c0-0.6,0.2-1.2,0.4-1.8
	c3.3-0.9,9-1.1,14.5-0.3c1.1,2.3-0.1,5,0.8,7.2c1.1,0.4,1.6-0.3,2.1-0.9c7.9-9,18-10.4,28.9-7.9c7,1.6,11.8,6.2,14.7,12.7
	c1.7,3.8,2.7,7.9,2.9,12.1c0.1,2.7,0.1,5.4,0.1,8.2c0,11.5,0,23,0,34.6c0,1.7-0.1,3.5-0.1,5.1c-3.7,1.2-11.4,1.2-15.4,0.2
	c-0.9-1.4-0.5-3-0.5-4.6c0-10.2,0.1-20.5-0.1-30.7c0-3.8-0.5-7.6-0.9-11.5c-0.1-1.1-0.4-2.2-0.8-3.3c-2.7-8.4-9.4-12.2-17.9-10
	c-4.4,1.1-7.7,3.7-9.8,7.8c-1.6,3-2.5,6.2-2.6,9.7c-0.1,2.7-0.1,5.4-0.1,8.2c0,9.8,0,19.5,0,29.3C797.5,585,797.5,586.6,797.5,588.3
	z"/>
<path class="st0" d="M1582.1,741.2c-5.5,0.7-10.3,0.6-15,0.2c-1.4-1.9-1-3.7-1-5.4c0-13.8,0-27.5,0-41.3c0-6.7,0-13.4,0-20.1
	c0-1.4,0-2.8,0-4.5c5-1.2,9.7-0.3,14.4-0.6c1.8,2.6,0.6,5.5,1.5,7.9c1.3,0.2,1.6-0.7,2.1-1.2c4.9-5.7,11.1-8.6,18.5-8.7
	c3.2-0.1,6.4,0,9.5,0.7c7.5,1.7,12.8,6.3,15.8,13.4c1.8,4.3,2.8,8.9,2.8,13.5c0.1,14.2,0.1,28.5,0,42.7c0,1.1-0.3,2.2-0.4,3.1
	c-3.9,1.1-10.3,1.1-14.9,0.2c-1.2-1.5-0.8-3.3-0.9-5c0-10.1,0-20.1-0.1-30.2c0-3.2-0.1-6.4-0.6-9.6c-0.4-2.8-1.1-5.7-2.3-8.3
	c-2-4.6-5.9-7-10.9-7.3c-9.4-0.6-16.1,4.8-17.7,14.4c-0.5,2.8-0.6,5.7-0.6,8.6c-0.1,10.4,0,20.8,0,31.2
	C1582.3,736.8,1582.2,738.7,1582.1,741.2z"/>
<path class="st0" d="M1077.9,741.4c-1.6-3-0.1-6-2-8.6c-0.7,0.7-1.3,1.2-1.8,1.8c-5.4,6.6-12.5,9.1-20.8,9c-2.1,0-4.2-0.2-6.2-0.6
	c-7-1.4-12.3-5.2-15.5-11.7c-1.8-3.6-2.9-7.5-3.2-11.5c-0.3-2.7-0.4-5.4-0.4-8.1c0-12.2,0-24.3,0-36.5c0-1.7-0.2-3.5,0.7-5.4
	c4.9-0.6,9.8-0.2,14.5-0.2c1.4,1.9,0.9,3.7,0.9,5.4c0,10.4,0,20.8,0,31.2c0,1.9,0,3.8,0.1,5.8c0.2,2.2,0.4,4.5,1,6.6
	c2.5,10.6,10,13,18.9,11.2c3.8-0.8,6.6-3.1,8.5-6.5c1.5-2.7,2.5-5.6,2.7-8.6c0.3-3,0.5-6.1,0.5-9.1c0.1-9.9,0-19.8,0-29.7
	c0-1.9-0.2-3.8,0.6-5.9c4.9-0.7,9.8-0.3,14.6-0.3c1.5,1.8,1,3.6,1,5.3c0,12.6,0,25.3,0,37.9c0,7.8,0,15.7,0,23.5c0,1.4,0,2.8,0,4.3
	c-2.4,1.6-4.8,0.9-7.2,1C1082.7,741.6,1080.3,741.4,1077.9,741.4z"/>
<path class="st0" d="M1176.8,741.3c-5.5,0.5-10.3,0.5-15,0.1c-1.3-1.8-0.9-3.4-0.9-5c0-10.4,0.1-20.8-0.1-31.2c0-3.7-0.5-7.3-0.9-11
	c-0.1-0.9-0.4-1.9-0.6-2.8c-2-6.7-5.9-10.3-11.9-10.8c-7.3-0.6-12.9,2.2-16,8.2c-1.5,2.9-2.4,5.9-2.5,9.2c-0.1,1.9-0.1,3.8-0.1,5.7
	c0,10.5,0,21.1,0,31.6c0,1.7-0.1,3.5-0.2,5.4c-0.9,0.3-1.6,0.7-2.4,0.7c-4.3,0-8.6,0.5-13.1-0.4c-0.2-1.1-0.5-2.2-0.6-3.2
	c-0.1-1.4,0-2.9,0-4.3c0-19.3,0-38.7,0-58c0-1.7,0.1-3.5,0.2-5.2c2.6-1.4,5.2-0.8,7.7-0.8c2.3,0,4.8-0.4,7.3,0.4
	c0.2,2.5,0.3,4.8,0.5,7.1c1.4,0.6,1.9-0.4,2.4-1.1c3.4-3.8,7.5-6.5,12.4-7.7c5.2-1.3,10.5-1.3,15.7-0.1c7.1,1.7,12.2,6.1,15.3,12.7
	c1.7,3.7,2.6,7.5,2.9,11.6c0.1,2.1,0.2,4.2,0.2,6.2c0,12.3,0,24.6,0,36.9C1176.9,737.2,1176.8,738.9,1176.8,741.3z"/>
<path class="st0" d="M170.4,540c-3.6,0.6-10.9,0.7-15.9,0.1c-0.6-1-1.2-2-1.8-3.1c-6.5-12.2-23.1-11.1-30-2.2
	c-2.6,3.4-4.2,7.1-5,11.3c-1.3,6.8-0.8,13.4,1.8,19.8c4.6,11.2,15.5,13.6,23.1,11.7c4.2-1.1,7.6-3.3,10.1-6.8
	c0.8-1.2,1.6-2.4,2.5-3.9c4.9-0.3,9.9-0.2,15.3-0.1c-0.2,1.2-0.3,2.2-0.6,3c-4.5,11.5-12.7,18.5-24.9,20.9c-6.2,1.2-12.4,1-18.5-0.6
	c-11.3-3-19.2-10-23.3-20.9c-3.9-10.4-4.1-21-0.1-31.4c5.2-13.6,15.3-21.2,29.9-22.9c5.3-0.6,10.6-0.3,15.7,1.2
	c11.3,3.3,18.4,11,22,22.1c0.1,0.4,0,0.9,0,1.4C170.6,539.7,170.5,539.8,170.4,540z"/>
<path class="st0" d="M275.7,681.7c-3.3-0.1-6.3-0.3-9.2-0.4c-1.4-3-1.5-6.7-0.4-11.6c3-0.1,6.2-0.3,9.6-0.4c0.3-1.1,0.7-2.2,0.7-3.2
	c0.1-3.5,0-7,0.1-10.6c0-1.6,0.1-3.2,0.2-4.7c1.3-1.2,2.8-1.2,4.2-1.1c3.8,0.2,7.6-0.7,11.6,0.8c0.1,6.1,0.2,12.1,0.3,18.2
	c4.3,1.7,8.8-0.1,13.2,1.3c0.3,3.5,0.3,6.9,0,10.6c-4.1,1.9-8.6,0-12.9,1.3c-0.1,0.9-0.4,1.8-0.4,2.7c0,12.3,0,24.6,0,36.9
	c0,0.8,0,1.6,0.1,2.4c0.5,4.3,2.7,6.5,7.1,7.1c1.4,0.2,2.8,0.3,4.1,0.5c1.2,4.2,1.1,7.3,0,10.9c-5.4,1.3-13,0.8-17.8-1.1
	c-5.4-2.2-8.4-6.2-9.2-11.9c-0.4-2.5-0.4-5.1-0.4-7.7c0-11.4,0-22.7,0-34.1C276.5,685.9,276.7,683.9,275.7,681.7z"/>
<path class="st0" d="M532.9,681.9c-0.1,1.2-0.3,2.3-0.3,3.4c0,12,0,24,0,36c0,0.6,0,1.3,0.1,1.9c0.4,5.1,2.6,7.4,7.8,7.9
	c1.1,0.1,2.2,0.2,3.5,0.4c1.3,3.7,0.8,7.2,0.3,11c-1,0.2-1.9,0.6-2.8,0.6c-4.3,0.1-8.6,0.3-12.9-0.9c-7.4-2-11.3-6.6-12-14.3
	c-0.2-2.4-0.3-4.8-0.3-7.2c0-11,0-22.1,0-33.1c0-1.9,0.3-3.8-0.7-5.7c-3.1-1.2-6.4,0.2-9.7-1c-1.1-3.5-0.6-7.1-0.4-10.9
	c3.3-1.3,6.8,0.1,10.3-1.1c1.1-6-0.1-12.3,0.7-18.3c3.8-1.3,11-1.4,15.5-0.2c0.1,1,0.4,2,0.4,3.1c0.1,3.7,0,7.4,0,11
	c0,1.4,0.2,2.8,0.3,4.5c4.3,1,8.5,0,12.7,0.8c0.9,3.6,0.5,7.2,0.3,10.9C541.8,682.3,537.6,680.8,532.9,681.9z"/>
<path class="st0" d="M1425.8,742.4c-6,1.6-14.6,0.8-19.4-1.5c-5.1-2.5-7.6-6.7-8.3-12.1c-0.3-2.1-0.2-4.2-0.2-6.2
	c0-11.7,0-23.4,0-35c0-1.7-0.1-3.5-0.2-5.2c-3.3-1.7-6.9,0-10.2-1.5c-1.1-3.6-0.9-7.1-0.1-10.8c3.2-1.2,6.5,0,9.7-1
	c1.4-3,0.6-6.2,0.7-9.3c0.1-3,0-6,0-8.8c1.8-1.5,3.6-1.2,5.4-1.2c1.8-0.1,3.5,0,5.3,0c1.7,0,3.5-0.2,5.4,0.9c0,3,0.1,6,0.1,9.1
	c0,3,0.1,6,0.1,9.1c4.3,1.5,8.5,0.2,12.5,1c1.1,2.9,1.2,4.9,0.5,11c-4,1.7-8.4-0.1-12.7,1.2c-0.2,1.1-0.4,2.2-0.4,3.2
	c0,12,0,24,0,36c0,1.6,0.2,3.2,0.6,4.7c0.8,2.9,2.8,4.6,5.8,5.1c1.3,0.2,2.6,0.2,3.8,0.3c1,0.1,1.9,0.7,2,1.8
	C1426.2,736.2,1426.6,739.4,1425.8,742.4z"/>
<path class="st0" d="M290.1,588.5c-3.7,1-10.7,1.1-15,0.1c-0.2-0.8-0.5-1.7-0.6-2.6c-0.1-1.3-0.1-2.6-0.1-3.8c0-28.2,0-56.3,0-84.5
	c0-2,0.2-4.1,0.3-6.1c2.7-1.4,5.3-0.8,7.8-0.9c2.4-0.1,4.8,0.1,7.4,0.1c0.3,1.2,0.6,2.3,0.8,3.3c0.1,0.9,0,1.9,0,2.9
	c0,28.6,0,57.3,0,85.9C290.6,584.8,290.9,586.8,290.1,588.5z"/>
<path class="st0" d="M470.5,516c0.3,4.7,0.5,9.3-0.2,14.1c-1.1,0.1-2,0.1-2.9,0.2c-1.9,0.2-3.8,0.2-5.7,0.6c-4,0.8-7,3.1-8.7,6.8
	c-0.9,2-1.6,4.2-1.9,6.4c-0.5,3.6-0.8,7.3-0.8,11c-0.1,9.4,0,18.9,0,28.3c0,1.7-0.1,3.5-0.2,5.1c-4.1,1.1-11.9,1.1-15.6,0
	c-0.1-0.7-0.3-1.4-0.3-2.2c0-22.9,0-45.7,0-68.6c2.5-1.1,4.9-0.6,7.3-0.7c2.4-0.1,4.7,0.1,7.4,0.1c0.2,1.5,0.3,2.7,0.4,4
	c0.1,1.1,0.2,2.2,0.3,3.6c2.2-0.9,2.6-3.2,4.1-4.2c1.7-1.2,3.3-2.6,5.1-3.4c1.7-0.8,3.6-1.2,5.5-1.6
	C466.2,515,468.1,514.8,470.5,516z"/>
<path class="st0" d="M240.1,741c-4.5,1.2-12.1,1.1-15.8,0c-0.1-1-0.3-2.1-0.3-3.2c0-22.5,0-45,0-67.8c5-1.1,9.7-0.3,14.7-0.6
	c0.2,2.7,0.4,5.1,0.6,7.7c2.2-0.9,2.6-3.1,4-4.2c1.7-1.2,3.3-2.6,5.1-3.5c1.7-0.8,3.6-1.3,5.5-1.6c1.9-0.3,3.8-0.4,5.6,0.2
	c1.2,3.5,1.3,9.8,0.2,14.4c-1.1,0.1-2.4,0.2-3.6,0.3c-9.1,0.4-13.8,4.4-15.2,13.5c-0.5,3.5-0.8,7-0.8,10.5c-0.1,9.6,0,19.2,0,28.8
	C240.1,737.3,240.1,739.1,240.1,741z"/>
<path class="st0" d="M1212.8,669.6c0.6,4.5,0.7,66.4,0.1,71.2c-2.2,1.5-4.8,0.8-7.3,0.8c-2.5,0.1-5.1-0.1-7.4-0.2
	c-1.4-1.9-1-3.7-1-5.4c0-14.1,0-28.1,0-42.2c0-6.2,0-12.5,0-18.7c0-1.6,0-3.2,0-4.8c2.7-1.4,5.2-0.7,7.7-0.8
	C1207.4,669.4,1210,669.5,1212.8,669.6z"/>
<path class="st0" d="M1442.7,669.7c5,0,9.8,0,14.8,0c0.2,1,0.5,1.9,0.5,2.8c0,22.1,0,44.1,0,66.2c0,0.6-0.1,1.3-0.2,2
	c-2.3,1.6-4.9,0.9-7.4,1c-2.5,0.1-5.1-0.1-7.3-0.2c-1.5-1.5-1.1-3-1.2-4.4c0-6.9,0-13.7,0-20.6c0-13.9,0-27.8,0-41.7
	C1441.9,673,1441.6,671.2,1442.7,669.7z"/>
<path class="st0" d="M105,677.8c0.1-1.4,0-2.2,0.2-3c1.4-6.2,8-28.3,9.3-31.2c3.7-0.9,10.5-1,14.9,0c0,0.7,0.2,1.5,0,2.2
	c-3.4,10-6.9,19.9-10.4,29.9c-0.2,0.6-0.6,1.1-0.9,1.8c-2,0.6-4.1,0.3-6.1,0.3C109.7,677.8,107.7,677.8,105,677.8z"/>
<path class="st0" d="M40.6,505.8c1-1.3,1.4-1.9,1.9-2.5c3.3-3.5,6.6-6.9,9.9-10.4c1.4-1.5,2.9-2.3,5-2.2c4.8,0.1,9.6,0,14.3,0.1
	c0.6,0,1.2,0.2,1.7,0.3c0.3,1.2-0.5,1.6-1.1,2.1c-4.3,3.8-8.7,7.4-13,11.2c-1.5,1.3-3.1,2-5.2,2c-3.5-0.1-7,0-10.5,0
	C42.9,506.3,42.2,506.1,40.6,505.8z"/>
<path class="st0" d="M1457.9,657.4c-3.6,1.2-11.7,1.3-16,0.2c-0.2-0.8-0.5-1.7-0.5-2.6c0-3.2,0-6.4,0-9.6c0-1.4,0.7-2.2,2-2.3
	c4.6-0.2,9.2-0.7,13.8,0.4c0.1,0,0.3,0.2,0.7,0.5C1458.1,648.4,1458.1,652.9,1457.9,657.4z"/>
<path class="st0" d="M1197.5,657.6c-0.9-3.7-0.9-9.4,0-14c1.1-0.2,2.3-0.6,3.5-0.6c4,0,8-0.4,12.2,0.5c0.3,4.8,0.2,9.4,0.1,13.9
	C1209.6,658.7,1201.5,658.7,1197.5,657.6z"/>
</svg>
