<?xml version="1.0" encoding="UTF-8" standalone="no"?>
<svg
   xmlns:dc="http://purl.org/dc/elements/1.1/"
   xmlns:cc="http://creativecommons.org/ns#"
   xmlns:rdf="http://www.w3.org/1999/02/22-rdf-syntax-ns#"
   xmlns:svg="http://www.w3.org/2000/svg"
   xmlns="http://www.w3.org/2000/svg"
   xmlns:sodipodi="http://sodipodi.sourceforge.net/DTD/sodipodi-0.dtd"
   xmlns:inkscape="http://www.inkscape.org/namespaces/inkscape"
   width="157.85mm"
   height="110.08mm"
   viewBox="0 0 447.44 312.04"
   version="1.1"
   id="svg24"
   sodipodi:docname="LOGO_X_grand.svg"
   inkscape:version="0.92.2 (5c3e80d, 2017-08-06)">
  <metadata
     id="metadata28">
    <rdf:RDF>
      <cc:Work
         rdf:about="">
        <dc:format>image/svg+xml</dc:format>
        <dc:type
           rdf:resource="http://purl.org/dc/dcmitype/StillImage" />
      </cc:Work>
    </rdf:RDF>
  </metadata>
  <sodipodi:namedview
     pagecolor="#ffffff"
     bordercolor="#666666"
     borderopacity="1"
     objecttolerance="10"
     gridtolerance="10"
     guidetolerance="10"
     inkscape:pageopacity="0"
     inkscape:pageshadow="2"
     inkscape:window-width="802"
     inkscape:window-height="480"
     id="namedview26"
     showgrid="false"
     inkscape:zoom="0.56723897"
     inkscape:cx="298.29922"
     inkscape:cy="208.0252"
     inkscape:window-x="0"
     inkscape:window-y="34"
     inkscape:window-maximized="0"
     inkscape:current-layer="svg24" />
  <defs
     id="defs4">
    <style
       id="style2">
      .cls-1 {
        font-size: 296.76px;
      }

      .cls-1, .cls-2 {
        fill: #e9c6d5;
        font-family: VTFGulax_regular, VTF Gulax;
      }

      .cls-2 {
        font-size: 61.26px;
      }

      .cls-3 {
        letter-spacing: 0.24em;
      }

      .cls-4 {
        letter-spacing: 0em;
      }
    </style>
  </defs>
  <title
     id="title6">Fichier 1</title>
  <g
     id="Calque_2"
     data-name="Calque 2">
    <g
       id="Calque_1-2"
       data-name="Calque 1">
      <g
         aria-label="X"
         transform="translate(0 263.67)"
         style="font-size:296.76000977px;font-family:VTFGulax_regular, 'VTF Gulax';fill:#e9c6d5"
         id="text8">
        <path
           d="m 189.62965,-79.234923 c -5.34168,-11.8704 -11.8704,-22.850517 -19.58616,-32.940357 -6.23196,-8.01252 -13.3542,-15.43152 -20.77321,-21.96024 10.08985,-2.07732 20.17969,-3.26436 30.26953,-3.26436 h 17.21208 v -93.18265 h -34.72092 v 59.352 c -17.80561,1.78056 -34.72093,6.23196 -50.74597,13.3542 -15.728277,-7.12224 -33.533877,-11.57364 -52.823278,-13.3542 v -59.352 H 24.037561 v 93.18265 h 17.21208 c 10.980121,0 21.663481,1.18704 32.050081,3.26436 -16.61856,14.24448 -29.676001,31.45656 -39.469081,51.636237 -10.98012,23.740801 -16.91532,49.855682 -16.91532,78.0478829 V 0 h 34.720921 v -4.4514001 c 0,-12.7606809 1.4838,-25.2246009 4.4514,-36.7982409 2.9676,-11.573641 7.12224,-22.257001 12.46392,-32.346841 10.386601,-18.695881 25.224601,-34.424158 43.030198,-45.404278 9.49632,5.9352 17.8056,12.76068 25.2246,20.773197 7.419,8.30928 13.94772,17.8056 19.28941,28.192201 9.79308,19.58616 14.838,42.436681 14.838,65.5839619 V 0 h 34.72092 v -4.4514001 c 0,-25.8181209 -5.34168,-51.6362419 -16.02504,-74.7835229 z"
           style="font-size:296.76000977px;font-family:VTFGulax_regular, 'VTF Gulax';fill:#e9c6d5"
           id="path835" />
      </g>
      <g
         aria-label="porn"
         transform="translate(231.75 65.51)"
         style="font-size:61.25999832px;font-family:VTFGulax_regular, 'VTF Gulax';fill:#e9c6d5"
         id="text10">
        <path
           d="m 23.217539,-32.284019 c -7.412459,0 -12.864599,1.71528 -16.2338992,5.02332 -1.40898,1.34772 -2.4503999,3.063 -3.1242599,4.96206 -0.55134,1.65402 -0.79638,3.43056 -0.79638,5.329619 V 9.3115197 H 9.6178197 V 0 C 12.74208,-0.18377999 15.37626,-0.67385998 17.58162,-1.5315 c 2.327879,-0.8576399 4.104419,-2.0828399 5.513399,-3.7368599 2.38914,-2.8179599 3.43056,-6.7386001 3.43056,-12.6808201 v -14.334839 z m -3.24678,6.67734 v 7.657499 c 0,3.79812 -0.24504,6.37104 -1.65402,8.2088403 C 16.8465,-7.8412798 14.0898,-6.7998598 9.6178197,-6.4935598 V -16.96902 c 0,-2.389139 0.5513403,-4.104419 1.7765403,-5.452139 1.65402,-1.77654 4.53324,-2.81796 8.576399,-3.18552 z"
           style="font-size:61.25999832px;font-family:VTFGulax_regular, 'VTF Gulax';fill:#e9c6d5"
           id="path838" />
        <path
           d="m 46.522183,-32.161499 c -4.2882,0 -8.33136,1.65402 -11.39436,4.71702 -3.063,3.063 -4.717019,7.10616 -4.717019,11.394359 0,8.8827002 7.228679,16.05012 16.111379,16.05012 8.82144,0 16.05012,-7.1674198 16.05012,-16.05012 0,-8.882699 -7.22868,-16.111379 -16.05012,-16.111379 z m 0,25.6679392 c -5.32962,0 -9.61782,-4.2882002 -9.61782,-9.5565602 0,-5.329619 4.2882,-9.617819 9.61782,-9.617819 5.26836,0 9.55656,4.2882 9.55656,9.617819 0,2.57292 -0.98016,4.96206 -2.81796,6.7386003 -1.77654,1.8377999 -4.22694,2.8179599 -6.7386,2.8179599 z"
           style="font-size:61.25999832px;font-family:VTFGulax_regular, 'VTF Gulax';fill:#e9c6d5"
           id="path840" />
        <path
           d="m 78.116073,-32.406539 c -6.79986,0 -11.14932,4.41072 -11.14932,12.98712 V -0.12252 h 6.67734 v -19.419419 c 0,-4.71702 2.32788,-6.18726 4.47198,-6.18726 2.63418,0 3.49182,1.10268 3.92064,1.8378 l 0.36756,0.85764 5.94222,-3.12426 -0.42882,-0.79638 c -1.8378,-3.55308 -5.32962,-5.45214 -9.8016,-5.45214 z"
           style="font-size:61.25999832px;font-family:VTFGulax_regular, 'VTF Gulax';fill:#e9c6d5"
           id="path842" />
        <path
           d="m 111.04236,-32.345279 c -5.57466,0 -10.1079,0.98016 -13.415939,2.87922 v -2.57292 h -6.49356 V 0 h 6.49356 v -17.39784 c 0,-2.450399 0.55134,-4.104419 1.77654,-5.390879 1.592759,-1.65402 4.410719,-2.63418 8.392619,-2.94048 V 0 h 6.49356 v -32.345279 z"
           style="font-size:61.25999832px;font-family:VTFGulax_regular, 'VTF Gulax';fill:#e9c6d5"
           id="path844" />
      </g>
      <g
         aria-label="ï¬lm"
         transform="translate(231.75 131.48)"
         style="font-size:61.25999832px;font-family:VTFGulax_regular, 'VTF Gulax';fill:#e9c6d5"
         id="text12">
        <path
           d="m 26.586839,-37.123559 -0.42882,-0.79638 c -0.85764,-1.77654 -2.32788,-3.18552 -4.22694,-4.2882 -1.89906,-1.04142 -4.043159,-1.5315 -6.248519,-1.5315 -3.43056,0 -6.5548203,1.28646 -8.9439602,3.73686 -2.2053599,2.32788 -3.4918199,5.39088 -3.4918199,8.51514 V 0 H 9.7403397 V -18.684299 H 15.68256 v -6.49356 H 9.7403397 v -6.30978 c 0,-2.7567 2.2666203,-5.69718 5.9422203,-5.69718 2.02158,0 4.043159,0.9189 4.778279,2.26662 l 0.42882,0.79638 z m -5.57466,5.57466 V 0 h 6.49356 v -31.548899 z"
           style="font-size:61.25999832px;font-family:VTFGulax_regular, 'VTF Gulax';fill:#e9c6d5"
           id="path847" />
        <path
           d="M 40.011393,-6.4935598 V -43.617119 h -6.55482 V 0 h 14.94744 v -6.4935598 z"
           style="font-size:61.25999832px;font-family:VTFGulax_regular, 'VTF Gulax';fill:#e9c6d5"
           id="path849" />
        <path
           d="m 91.212309,-32.345279 c -5.57466,0 -10.1079,0.98016 -13.41594,2.87922 v -2.87922 h -3.24678 c -5.57466,0 -10.107899,0.98016 -13.415939,2.87922 v -2.57292 H 54.64009 V 0 h 6.49356 v -17.39784 c 0,-2.450399 0.55134,-4.104419 1.77654,-5.390879 1.59276,-1.65402 4.410719,-2.63418 8.392619,-2.94048 V 0 h 6.49356 v -17.39784 c 0,-2.450399 0.55134,-4.104419 1.77654,-5.390879 1.59276,-1.65402 4.41072,-2.63418 8.39262,-2.94048 V 0 h 6.49356 v -32.345279 z"
           style="font-size:61.25999832px;font-family:VTFGulax_regular, 'VTF Gulax';fill:#e9c6d5"
           id="path851" />
      </g>
      <g
         aria-label="festival"
         transform="translate(231.75 197.46)"
         style="font-size:61.25999832px;font-family:VTFGulax_regular, 'VTF Gulax';fill:#e9c6d5"
         id="text14">
        <path
           d="m 26.280539,-38.287499 c -0.98016,-1.77654 -2.26662,-3.18552 -3.9819,-4.10442 -1.71528,-0.9189 -3.6756,-1.34772 -5.942219,-1.34772 -3.063,0 -5.94222,1.10268 -7.9638002,3.063 -2.08284,2.02158 -3.2467799,4.83954 -3.2467799,7.9638 V 0 H 11.70066 v -18.868079 h 6.00348 v -6.55482 h -6.00348 v -7.28994 c 0,-2.81796 1.8378,-4.53324 4.65576,-4.53324 2.082839,0 3.369299,0.6126 4.043159,1.89906 l 0.42882,0.85764 5.88096,-3.00174 z"
           style="font-size:61.25999832px;font-family:VTFGulax_regular, 'VTF Gulax';fill:#e9c6d5"
           id="path854" />
        <path
           d="m 28.819957,-11.21058 c 1.47024,0.67386 3.00174,1.04142 4.53324,1.04142 2.94048,0 5.69718,-1.16394 7.71876,-3.24678 2.08284,-2.1441 3.18552,-4.900799 3.18552,-7.841279 0,-2.32788 -0.67386,-4.47198 -1.96032,-6.4323 -0.73512,-1.10268 -1.5315,-1.89906 -2.51166,-2.57292 -1.89906,-1.34772 -4.10442,-2.08284 -6.4323,-2.08284 -1.8378,0 -3.73686,0.49008 -5.32962,1.40898 -3.55308,1.77654 -5.69718,5.32962 -5.69718,9.55656 V 0 h 21.31848 v -6.4935598 h -14.82492 z m 4.53324,-14.641139 c 2.4504,0 4.41072,2.02158 4.41072,4.5945 0,2.51166 -1.96032,4.594499 -4.41072,4.594499 -2.38914,0 -4.41072,-2.082839 -4.41072,-4.594499 0,-2.57292 2.02158,-4.5945 4.41072,-4.5945 z"
           style="font-size:61.25999832px;font-family:VTFGulax_regular, 'VTF Gulax';fill:#e9c6d5"
           id="path856" />
        <path
           d="m 66.983979,-16.90776 c -2.87922,-1.347719 -6.4323,-1.715279 -9.43404,-1.837799 v -2.81796 c 0,-1.28646 0.42882,-2.38914 1.2252,-3.12426 0.73512,-0.73512 1.8378,-1.16394 3.18552,-1.16394 0.73512,0 2.94048,0 3.85938,1.8378 l 1.5315,2.87922 5.8197,-3.00174 -1.5315,-2.87922 c -0.9189,-1.71528 -2.20536,-3.063 -3.85938,-3.9819 -1.65402,-0.9189 -3.61434,-1.40898 -5.8197,-1.40898 -6.30978,0 -10.90428,4.53324 -10.90428,10.84302 V -12.252 h 3.24678 c 5.02332,0 8.14758,0.42882 9.92412,1.28646 1.28646,0.67386 1.77654,1.5927603 1.77654,3.3693002 v 1.04142 H 50.872599 V 0 h 21.62478 v -7.5962398 c 0,-4.4107202 -1.8378,-7.5349802 -5.5134,-9.3115202 z"
           style="font-size:61.25999832px;font-family:VTFGulax_regular, 'VTF Gulax';fill:#e9c6d5"
           id="path858" />
        <path
           d="m 85.962133,-18.13296 c 0,-2.082839 0.49008,-3.736859 1.40898,-4.962059 0.98016,-1.2252 2.4504,-2.1441 4.5945,-2.81796 l 3.18552,-0.79638 -1.8378,-6.37104 -3.12426,0.98016 c -1.5315,0.36756 -2.94048,0.98016 -4.22694,1.71528 v -13.29342 h -6.55482 V 0 h 14.27358 v -6.4935598 h -7.71876 z"
           style="font-size:61.25999832px;font-family:VTFGulax_regular, 'VTF Gulax';fill:#e9c6d5"
           id="path860" />
        <path
           d="m 98.60945,0 h 6.67734 v -32.284019 h -6.67734 z m 0,-44.842319 v 7.10616 h 6.67734 v -7.10616 z"
           style="font-size:61.25999832px;font-family:VTFGulax_regular, 'VTF Gulax';fill:#e9c6d5"
           id="path862" />
        <path
           d="m 129.898,-32.284019 v 3.24678 c 0,4.71702 -0.24504,10.65924 -2.20536,15.069959 -0.9189,2.1441 -2.1441,3.73686 -3.73686,4.9008002 -1.47024,1.16394 -3.30804,1.89906 -5.45214,2.26662 V -32.284019 h -6.49356 V 0 h 3.24678 c 3.55308,0 6.7386,-0.61259998 9.37278,-1.77654 2.69544,-1.2251999 4.96206,-3.0629999 6.67734,-5.4521398 3.49182,-4.7782802 5.14584,-11.9456992 5.14584,-21.8085592 v -3.24678 z"
           style="font-size:61.25999832px;font-family:VTFGulax_regular, 'VTF Gulax';fill:#e9c6d5"
           id="path864" />
        <path
           d="m 154.4489,-32.406539 c -4.34946,0 -7.84128,1.96032 -9.67908,5.32962 l -0.49008,0.79638 5.8197,3.00174 0.42882,-0.79638 c 0.6126,-1.16394 1.89906,-1.77654 3.92064,-1.77654 1.34772,0 2.4504,0.42882 3.24678,1.16394 0.73512,0.73512 1.16394,1.77654 1.16394,3.063 v 1.5315 c -1.34772,-0.55134 -2.87922,-0.85764 -4.5945,-0.85764 -3.18552,0 -5.94222,0.98016 -7.9638,2.879219 -2.02158,1.96032 -3.12426,4.5945 -3.12426,7.6575 V 0 h 22.23738 v -21.624779 c 0,-6.24852 -4.5945,-10.78176 -10.96554,-10.78176 z m -0.18378,17.949179 c 1.34772,0 4.5945,0 4.5945,6.4323002 v 1.5315 h -9.12774 V -10.4142 c 0,-1.59276 0.55134,-2.69544 1.65402,-3.3693 1.04142,-0.6126 2.26662,-0.67386 2.87922,-0.67386 z"
           style="font-size:61.25999832px;font-family:VTFGulax_regular, 'VTF Gulax';fill:#e9c6d5"
           id="path866" />
        <path
           d="M 178.68393,-6.4935598 V -43.617119 h -6.55482 V 0 h 14.94744 v -6.4935598 z"
           style="font-size:61.25999832px;font-family:VTFGulax_regular, 'VTF Gulax';fill:#e9c6d5"
           id="path868" />
      </g>
      <g
         aria-label="berlin13"
         transform="translate(231.75 263.44)"
         style="font-size:61.25999832px;font-family:VTFGulax_regular, 'VTF Gulax';fill:#e9c6d5"
         id="text20">
        <path
           d="m 22.421159,-32.406539 c -5.207099,0 -9.372779,0.85764 -12.4970393,2.63418 v -14.02854 H 3.3692999 V 0 H 6.6160798 C 10.96554,0 14.64114,-0.67385998 17.52036,-2.0828399 c 2.511659,-1.16394 4.471979,-2.87922 5.819699,-5.1458399 2.38914,-3.9206402 2.38914,-8.5151402 2.38914,-11.5781392 v -13.59972 z M 9.9241197,-6.6773398 V -18.0717 c 0,-3.369299 1.1026803,-6.922379 9.2502593,-7.657499 v 6.92238 c 0,4.962059 -0.6126,6.983639 -1.592759,8.453879 -1.34772,2.0828402 -3.79812,3.2467802 -7.6575003,3.6756002 z"
           style="font-size:61.25999832px;font-family:VTFGulax_regular, 'VTF Gulax';fill:#e9c6d5"
           id="path871" />
        <path
           d="m 38.750777,-11.21058 c 1.47024,0.67386 3.00174,1.04142 4.53324,1.04142 2.94048,0 5.69718,-1.16394 7.71876,-3.24678 2.08284,-2.1441 3.18552,-4.900799 3.18552,-7.841279 0,-2.32788 -0.67386,-4.47198 -1.96032,-6.4323 -0.73512,-1.10268 -1.5315,-1.89906 -2.51166,-2.57292 -1.89906,-1.34772 -4.10442,-2.08284 -6.4323,-2.08284 -1.8378,0 -3.73686,0.49008 -5.32962,1.40898 -3.553079,1.77654 -5.697179,5.32962 -5.697179,9.55656 V 0 h 21.318479 v -6.4935598 h -14.82492 z m 4.53324,-14.641139 c 2.4504,0 4.41072,2.02158 4.41072,4.5945 0,2.51166 -1.96032,4.594499 -4.41072,4.594499 -2.38914,0 -4.41072,-2.082839 -4.41072,-4.594499 0,-2.57292 2.02158,-4.5945 4.41072,-4.5945 z"
           style="font-size:61.25999832px;font-family:VTFGulax_regular, 'VTF Gulax';fill:#e9c6d5"
           id="path873" />
        <path
           d="m 72.013999,-32.406539 c -6.799859,0 -11.149319,4.41072 -11.149319,12.98712 V -0.12252 h 6.677339 v -19.419419 c 0,-4.71702 2.32788,-6.18726 4.47198,-6.18726 2.63418,0 3.49182,1.10268 3.92064,1.8378 l 0.36756,0.85764 5.94222,-3.12426 -0.42882,-0.79638 c -1.8378,-3.55308 -5.32962,-5.45214 -9.8016,-5.45214 z"
           style="font-size:61.25999832px;font-family:VTFGulax_regular, 'VTF Gulax';fill:#e9c6d5"
           id="path875" />
        <path
           d="M 91.340575,-6.4935598 V -43.617119 h -6.55482 V 0 h 14.947439 v -6.4935598 z"
           style="font-size:61.25999832px;font-family:VTFGulax_regular, 'VTF Gulax';fill:#e9c6d5"
           id="path877" />
        <path
           d="m 105.90801,0 h 6.67734 v -32.284019 h -6.67734 z m 0,-44.842319 v 7.10616 h 6.67734 v -7.10616 z"
           style="font-size:61.25999832px;font-family:VTFGulax_regular, 'VTF Gulax';fill:#e9c6d5"
           id="path879" />
        <path
           d="m 139.18006,-32.345279 c -5.57466,0 -10.1079,0.98016 -13.41594,2.87922 v -2.57292 h -6.49356 V 0 h 6.49356 v -17.39784 c 0,-2.450399 0.55134,-4.104419 1.77654,-5.390879 1.59276,-1.65402 4.41072,-2.63418 8.39262,-2.94048 V 0 h 6.49356 v -32.345279 z"
           style="letter-spacing:0.23999999em"
           id="path881" />
        <path
           d="m 170.42286,-47.844059 -6.98364,7.0449 5.02332,5.14584 1.40898,-1.34772 V 0 h 7.22868 v -47.844059 z"
           style="letter-spacing:0em"
           id="path883" />
        <path
           d="m 184.46193,-47.782799 v 11.21058 h 7.16742 v -4.04316 h 13.7835 v 10.1079 h -13.10964 v 7.53498 h 13.10964 v 7.473719 c 0,1.5315 -0.42882,3.063 -1.2252,4.22694 v 0.06126 c -0.73512,1.16394 -1.71528,2.1441002 -2.94048,2.8179602 -1.2252,0.73512 -2.57292,1.10268 -4.10442,1.10268 -0.73512,0 -1.59276,-0.18378 -2.38914,-0.49008 -2.08284,-0.67386 -3.79812,-2.0828399 -4.77828,-4.0431602 l -0.36756,-0.73512 -6.86112,2.51166 0.42882,0.9189003 c 0.9189,2.0215799 2.32788,3.9818998 4.04316,5.4521398 C 189.91407,-1.34772 193.52841,0 197.14275,0 c 3.73686,0 7.3512,-1.34772 10.1079,-3.7368599 2.7567,-2.3278799 4.5945,-5.5746598 5.2071,-9.1890001 0.18378,-0.6126 0.24504,-1.28646 0.24504,-2.02158 v -32.835359 z"
           style="letter-spacing:0em"
           id="path885" />
      </g>
    </g>
  </g>
</svg>
