<?xml version="1.0" encoding="utf-8"?>
<!-- Generator: Adobe Illustrator 19.1.0, SVG Export Plug-In . SVG Version: 6.00 Build 0)  -->
<svg version="1.1" id="Calque_1" xmlns="http://www.w3.org/2000/svg" xmlns:xlink="http://www.w3.org/1999/xlink" x="0px" y="0px"
	 viewBox="0 0 595.3 841.9" style="enable-background:new 0 0 595.3 841.9;" xml:space="preserve">
<style type="text/css">
	.st0{fill:#CD9D95;}
	.st1{fill:#EED4B7;}
	.st2{fill:#DB9992;}
	.st3{fill:#FBF7EE;}
	.st4{fill:#FFFEF2;}
	.st5{fill:none;stroke:#8B6735;stroke-miterlimit:10;}
	.st6{fill:none;stroke:#F8EEE3;stroke-miterlimit:10;}
</style>
<g>
	<path class="st0" d="M227.6,782.4c-18.2,4.2-49.4-20.7-64.5-31.3c-30.8-21.7-57-48.2-66.1-80.3c-12.3-42.9,14.8-70.1,27.5-105.5
		c8-22.2,32.8-70.2,71.8-36.4c8.1,7,13.4,15.9,18.3,24.6c19.8,35.3,43.2,73.3,49.6,111.4c4.5,26.9-1.1,52.4-10.5,75.9
		c-4.7,11.9-9.6,25.4-17.3,35.8C234,779.8,231,781.6,227.6,782.4z"/>
	<path class="st0" d="M385,789c18.3,3.9,49.1-21.5,64-32.3c30.5-22.2,56.2-49.1,64.9-81.4c11.6-43.1-15.9-69.9-29.2-105
		c-8.4-22-33.9-69.6-72.4-35.2c-8,7.2-13.2,16.1-17.9,24.8c-19.3,35.7-42,74-47.8,112.2c-4,27,2,52.4,11.7,75.7
		c4.9,11.8,10,25.3,17.9,35.5C378.6,786.5,381.6,788.3,385,789z"/>
	<path class="st1" d="M399.5,786.9c-9.1,8.3-180.3-4.3-180.3-4.3s25.4-4.9,16.9-266c-2.9-145.5,20-205.4,20-205.4
		C218.8,289.8,267.3,190,313,188.6c52.8,28.5,69.9,48.5,64.2,115.5"/>
	<path class="st2" d="M255.6,316.3c-0.2,0.5-10.6-9.9-11.2-10.7c-8.7-11.5-9.1-25.7-1.5-37.8c3.4-5.5,4.6-13.8,6.9-19.9
		c2.9-7.5,6.2-14.9,10.2-21.9c12.5-22,32.6-37.6,58.6-38.3c37.5,11.9,56.2,42.9,62.2,61.1c8.1,9.2,15.9,21,15.7,33.7
		c-0.2,12.1-8.6,21.1-18.7,26.7c1.5-0.8-14.6-25-16.8-27.5c-5.3-6-15.5-9.4-18.6-16.5c-3.3-7.3-6.4-14.6-10-21.7
		c-2.8-5.5-6-13.6-11.1-17.5c-1.4-1.1-3.3-1.6-4.9-1c-1.2,0.5-2.1,1.6-2.9,2.7c-4.5,6.5-6.4,13.9-9.9,20.9
		c-3.4,6.6-7.1,13.1-11.9,18.8c-5.5,6.5-13,10.2-17.8,17.4C267.1,295,261,305.5,255.6,316.3z"/>
	<path class="st3" d="M256,201c-10.4-12.5-11.1-38.5-10.2-54.1c1.2-21.4,1-42.5-16.2-57.9c-15.7-14.1-37.1-12.5-54.5-2.4
		c-15.9,9.2-22.5,32.6-17.2,49.2c7.5,23.8,31,30.4,51.3,39.8C222.9,181.9,246,189,256,201z"/>
	<path class="st4" d="M223.6,95.2c0,0-8.2-7.2-15.8-3.6c0.5,8.7,29,63.3,28,67.8c2.3-10.7-2.8-22.5-5.1-32.8
		c-1.6-7.1-3.2-14.2-4.8-21.3C225.6,103.5,225.2,96.6,223.6,95.2z"/>
	<path class="st3" d="M285.6,168.4c0.7-8,9.5-17.3,15.2-22.5c7.9-7.1,15.1-14.5,14.5-25.9c-0.6-10.4-8.6-17.2-18.2-19.8
		c-8.7-2.3-19.2,3.6-23.1,11.2c-5.7,11,0.3,21.4,4.1,31.8C280.6,150.2,286.2,160.7,285.6,168.4z"/>
	<path class="st4" d="M311,120.2c0,0-0.4-5.3-4.3-6.7c-2.8,3.2-11.8,32.2-13.8,33.5c4.5-2.9,6.8-8.8,9.6-13.2c1.9-3,3.8-6.1,5.7-9.1
		C308.8,123.7,311.1,121.2,311,120.2z"/>
	<path class="st5" d="M209,759.6c-22.8-2.5-45.7-4.1-68.6-4.8"/>
	<path class="st5" d="M220.6,739.7c-18.5-0.7-36.9-1.5-55.4-2.2"/>
	<path class="st5" d="M176.8,703.6c-17.9-0.9-36,1.3-53.2,6.3"/>
	<path class="st5" d="M218.6,710.1c-4.8-15.3-18.4-27.6-34.2-30.7c-7.8-1.6-17.2-1.9-21.3-8.7"/>
	<path class="st5" d="M221.4,680.2c-1.4-6.8-9.6-9.1-15.3-13.1c-7.5-5.2-11.1-14.2-15.4-22.2c-4.3-8-10.7-16.2-19.8-17.2"/>
	<path class="st5" d="M111.8,680c-13.4,1-26.9,0.4-40.1-1.9"/>
	<path class="st5" d="M137.8,660.6c2.9-5,1.6-11.6-1.9-16.2c-3.5-4.6-8.8-7.4-14.2-9.4c-5.9-2.2-13.7-6.2-11.9-12.3"/>
	<path class="st5" d="M156.8,620.4c4.2-6.6,0.6-15.7-5.3-20.8c-5.9-5.1-13.6-7.5-20.5-11.1c-12.6-6.6-22.8-17.7-28.3-30.8"/>
	<path class="st5" d="M222.1,627.8c-8.3,4.6-20.2-3.1-19.6-12.5"/>
	<path class="st5" d="M179.2,589.3c-9.2-14.6-18.5-29.2-27.7-43.8"/>
	<path class="st5" d="M226.1,599.9c2.8-15.9-1.5-32.9-11.4-45.7"/>
	<path class="st5" d="M412.6,764.2c15,1.6,30.8,3.1,44.4-3.4c7.6-3.7,13.9-9.7,19.4-16.1"/>
	<path class="st5" d="M420.1,743.9c0.1-2.4,0.1-4.8,0.2-7.2c12.6-3.1,24.4-9.2,34.2-17.6"/>
	<path class="st5" d="M409.9,705.3c-5.4-14.7-2.4-32.1,7.5-44.2"/>
	<path class="st5" d="M433.5,698c10.7,0.1,21.4,0.2,32.1,0.3c3.1,0,6.4,0,9.2-1.5s4.8-4.9,3.5-7.8"/>
	<path class="st5" d="M437.3,679c0-17.8,0-35.6,0-53.5"/>
	<path class="st5" d="M413.7,632.6c-5.7-12.6-0.6-29,11.2-36.2"/>
	<path class="st5" d="M462.3,674.7c5.9,0.3,12,0.5,17.7-1.4c5.6-2,10.7-6.7,11.1-12.6c0.4-4.9-2-10.8,1.5-14.1"/>
	<path class="st5" d="M494.6,639c1.8-0.1,3.7-0.2,5.5-0.4c-1.6-12.9,2.9-26.4,11.8-35.9"/>
	<path class="st5" d="M450.8,648.4c-0.1-14.9-0.1-29.9-0.2-44.8c0-2.5,0-5.1,1-7.4c2-4.8,7.5-7,12.5-8.7"/>
	<path class="st5" d="M481.6,598.9c2.2-9.2,11.4-14.5,18.9-20.2c7.4-5.8,14.2-15.9,9.5-24"/>
	<path class="st5" d="M445.8,570.1c-1.3-15.3,3.2-31,12.2-43.3"/>
	<path class="st5" d="M420.7,577.3c6.3-21.3,2.3-45.5-10.7-63.5"/>
	<path class="st5" d="M200.5,567.3c-1.4-6.8-9.6-9.1-15.3-13.1c-7.5-5.2-11.1-14.2-15.4-22.2c-4.3-8-10.7-16.2-19.8-17.2"/>
	<path class="st3" d="M260.6,92.6c-0.7-5.1,3.5-12.3,6.4-16.4c4-5.6,7.5-11.3,5.4-18.4c-1.9-6.5-7.9-9.7-14.4-9.9
		c-5.9-0.2-11.6,5-13,10.4c-2,7.7,3.2,13.5,7.1,19.5C254.8,81.8,259.9,87.7,260.6,92.6z"/>
	<path class="st4" d="M269.7,58.5c0,0-1-3.3-3.7-3.6c-1.3,2.4-2.9,22.1-3.9,23.1c2.4-2.5,3.1-6.6,4.2-9.7c0.8-2.2,1.6-4.4,2.3-6.6
		C268.8,61.1,269.9,59.1,269.7,58.5z"/>
	<path class="st6" d="M308.2,554.5c1.6-12.7,5.2-26.6,10.6-40.5c3.5-9.1,7.8-18.3,11.2-27.4c11.4-30.5,12.7-58.2,11.5-82.9
		c-1.2-24.6-4.7-47.8-1.7-75.3"/>
	<path class="st6" d="M277.7,459.2c-8.4,3.6-11.5,33.8-10.5,64.3c1,30.6,4.9,62.9,6.9,94.1c2.9,47.1,1,91.4-5.3,124"/>
	<path class="st6" d="M318.2,767.3c1.6-12.7,5.2-26.6,10.6-40.5c3.5-9.1,7.8-18.3,11.2-27.4c11.4-30.5,12.7-58.2,11.5-82.9
		s-4.7-47.8-1.7-75.3"/>
	<path class="st6" d="M304.2,441.1c0.3-9.5-1-19.5-4-29.4c-1.9-6.5-4.5-12.8-6.4-19.3c-6.2-21.6-3.4-42.6,1.2-61.6
		c4.6-18.9,11-37.1,12.2-57.6"/>
</g>
<g>
</g>
<g>
</g>
<g>
</g>
<g>
</g>
<g>
</g>
<g>
</g>
</svg>
