<?xml version="1.0" encoding="utf-8"?>
<!-- Generator: Adobe Illustrator 19.1.0, SVG Export Plug-In . SVG Version: 6.00 Build 0)  -->
<svg version="1.1" id="Calque_1" xmlns="http://www.w3.org/2000/svg" xmlns:xlink="http://www.w3.org/1999/xlink" x="0px" y="0px"
	 viewBox="0 0 595.3 841.9" style="enable-background:new 0 0 595.3 841.9;" xml:space="preserve">
<style type="text/css">
	.st0{fill:#EED4B7;}
	.st1{fill:#DB9992;}
	.st2{fill:#F2DE6C;}
	.st3{fill:#C0908B;}
	.st4{fill:none;stroke:#F8EEE3;stroke-miterlimit:10;}
	.st5{fill:none;stroke:#D696B0;stroke-miterlimit:10;}
</style>
<g>
	<circle class="st0" cx="298.2" cy="422" r="223.9"/>
	<circle class="st1" cx="306.4" cy="484.7" r="71.7"/>
	<rect x="253.9" y="479.9" class="st2" width="100.6" height="10.5"/>
	<circle class="st3" cx="306.4" cy="484.7" r="23.4"/>
	<circle class="st2" cx="252.6" cy="484.9" r="9.8"/>
	<circle class="st2" cx="359.4" cy="484.2" r="9.8"/>
	<path class="st4" d="M278.9,386.2c-5.1-6.7-9.1-14.5-11.6-22.8c-1.6-5.5-2.7-11.2-4.4-16.6c-5.7-18.2-18.8-32.1-32.5-43.8
		c-13.6-11.7-28.4-21.9-39.9-36.2"/>
	<path class="st4" d="M284.6,236.2c9.4,17.3,16.6,36.5,21.2,56.4c5.5,23.7,17.4,31.8,24.9,4.7c5.2-18.7,6.2-39.1,3-58.4"/>
	<path class="st4" d="M369.3,368.3c-0.8-10.8,3-21.4,7.2-31c2.8-6.3,5.9-12.6,10.4-17c4.4-4.3,9.9-6.4,15-9.6
		c9.3-5.8,17.1-15.1,22-26.3"/>
	<path class="st5" d="M204.1,380.1c-10.1,2.4-19.5-6.4-29.4-10c-18-6.6-37.4,4.1-56.1,1.5c-1.1-0.1-2.2-0.4-3.1-1
		c-1.1-0.8-1.8-2.1-2.6-3.4c-2.6-4.3-6.2-7.6-10.2-9.8"/>
	<path class="st4" d="M182.7,458.2c-4-1.1-7-5.1-10.3-8.2c-11.6-11.2-27.5-12.1-42.3-12.5c-9.2-0.3-18.3-0.5-27.5-0.8"/>
	<path class="st4" d="M405.5,412.3c0.3-5,4.2-8.6,7.9-10.7c8-4.7,16.9-6.5,25.2-10.3c17.1-8,31.2-25.5,37.4-46.5"/>
	<path class="st5" d="M405.5,488.4c7-4.3,14.7-7.1,22.5-8.3c12.6-1.9,26.3,0.1,37.1-8.2c3.7-2.8,6.7-6.7,9.7-10.5
		c9.4-12,18.9-24,28.3-36c4.2-5.3,8.7-11.8,7.6-19"/>
</g>
<g>
</g>
<g>
</g>
<g>
</g>
<g>
</g>
<g>
</g>
<g>
</g>
</svg>
