<?xml version="1.0" encoding="utf-8"?>
<!-- Generator: Adobe Illustrator 19.1.0, SVG Export Plug-In . SVG Version: 6.00 Build 0)  -->
<svg version="1.1" id="Calque_1" xmlns="http://www.w3.org/2000/svg" xmlns:xlink="http://www.w3.org/1999/xlink" x="0px" y="0px"
	 viewBox="0 0 595.3 841.9" style="enable-background:new 0 0 595.3 841.9;" xml:space="preserve">
<style type="text/css">
	.st0{fill:#CC6798;}
	.st1{fill:#C73364;}
	.st2{fill:#FFFFFF;}
	.st3{fill:#E8C4C3;}
</style>
<g>
	<path class="st0" d="M130.8,616.2c17.8,9.1,37.9,14.6,57.1,19.5c29.8,7.5,59.5,14.1,90.2,17c74.4,7.1,153-4.5,213.4-51.5
		c0.1-0.1,0.2-0.2,0.3-0.3c65.7-67.2,28.1-206.6-5.7-210.2c-17.8-1.9-21.7,13.8-30,25.5c-17.7,25.3-63.3,25.2-91.7,27.2
		c-11.5,0.8-27.6,2.5-38.3-3.1c-8.1-4.3-14.5-16.4-5.3-24.3c34.2-29.2,115.8-114.8-12.7-178.9c-17-6.6-43.7-4.5-57.8-16.6
		c-3-2.5-5.7-5.6-9.3-7c-4.3-1.7-13.2,1.4-15.3,6.1c-2.3,5.4,2.4,12.4,5.1,16.6c-32.9,20-64.1,42-66.7,84.8
		c-1.5,24.9,8.4,42.4,13.1,65.2c5.8,27.6-44,43.4-59.8,57.2c-15.2,13.2-28.7,30.6-36.8,49.1c-12.9,29.5-6.7,64.9,11.1,91.1
		C102,598.1,115.6,608.5,130.8,616.2z"/>
	<path class="st1" d="M166.1,305.6c-1.6,0.4-3.5,1.7-4.8,2.1c-4.7,1.4-9.8,1.5-14.7,1.2c-6.8-0.4-13.4-2.4-19.4-5.6
		c-3.4-1.8-4.8-3.8-8.7-2.3c-8.1,3.2-5.7,13.2-2.6,19.2c1.9,3.7,4.6,7.4,8,9.9c3.3,2.4,14.6,2.7,15,7.3c0.4,5.1-8.7,5.3-11.8,5.2
		c-7.6-0.2-12.9,5.8-8.6,12.9c7.4,12.1,29.1,8.2,40.6,5.9c11.8-2.3,26.8-12.3,25-26.1c-0.7-5.2-2.6-10.7-7-13.9
		c-2-1.4-6.9-1.5-8.2-2.7c-2.6-2.4,2.6-10.1-0.4-12.8C167.9,305.4,167,305.4,166.1,305.6z"/>
	<circle cx="247.4" cy="302.5" r="26.4"/>
	<circle class="st2" cx="249.4" cy="299.8" r="13"/>
	<path class="st3" d="M328.6,265.9c0,0,28.1,3.5,30.6,75.4c0,0.4-3.3-4.7-3.5-5.4c-6.2-16.8-1.8-37.6-12.1-52.9
		c-3.6-5.4-16.3-9.5-16.8-17.5C327.4,265.3,327.9,265.6,328.6,265.9z"/>
	<path class="st3" d="M473.2,429.6c0,0-4.3,37.3-99.4,41.6c-0.6,0,6.1-4.4,7.1-4.8c22.1-8.5,49.7-2.9,69.8-16.8
		c7.1-4.9,12.3-21.8,22.9-22.4C474,428,473.7,428.7,473.2,429.6z"/>
</g>
<g>
</g>
<g>
</g>
<g>
</g>
<g>
</g>
<g>
</g>
<g>
</g>
</svg>
