<?xml version="1.0" encoding="utf-8"?>
<!-- Generator: Adobe Illustrator 19.1.0, SVG Export Plug-In . SVG Version: 6.00 Build 0)  -->
<svg version="1.1" id="Calque_1" xmlns="http://www.w3.org/2000/svg" xmlns:xlink="http://www.w3.org/1999/xlink" x="0px" y="0px"
	 viewBox="0 0 595.3 841.9" style="enable-background:new 0 0 595.3 841.9;" xml:space="preserve">
<style type="text/css">
	.st0{fill:#50ABA7;}
	.st1{fill:#5C3092;}
	.st2{fill:#FFFFFF;}
	.st3{fill:#DDEBEB;}
</style>
<g>
	<path class="st0" d="M129.6,598c17.5,8.9,37.1,14.3,55.9,19c29.2,7.4,58.2,13.8,88.2,16.6c72.8,6.9,149.6-4.4,208.7-50.4
		c0.1-0.1,0.2-0.2,0.3-0.3c64.2-65.7,27.5-202.1-5.6-205.7c-17.4-1.9-21.3,13.5-29.3,25c-17.3,24.7-61.9,24.6-89.7,26.6
		c-11.3,0.8-27,2.5-37.4-3.1c-7.9-4.2-14.2-16.1-5.1-23.8c33.5-28.5,113.3-112.3-12.4-175c-16.7-6.5-42.7-4.4-56.5-16.3
		c-2.9-2.5-5.6-5.4-9.1-6.9c-4.2-1.7-12.9,1.3-14.9,5.9c-2.3,5.3,2.3,12.2,5,16.3c-32.2,19.6-62.7,41.1-65.2,82.9
		c-1.5,24.3,8.2,41.5,12.9,63.8c5.6,27-43,42.5-58.5,55.9c-14.9,12.9-28.1,29.9-36,48c-12.7,28.9-6.5,63.5,10.9,89.1
		C101.4,580.3,114.7,590.4,129.6,598z"/>
	<path class="st1" d="M164.1,294.2c-1.6,0.4-3.4,1.7-4.7,2.1c-4.6,1.4-9.6,1.5-14.3,1.2c-6.6-0.4-13.1-2.3-18.9-5.4
		c-3.4-1.8-4.7-3.7-8.5-2.2c-7.9,3.1-5.6,12.9-2.6,18.8c1.8,3.6,4.5,7.3,7.8,9.6c3.2,2.3,14.3,2.7,14.7,7.2
		c0.4,4.9-8.6,5.2-11.5,5.1c-7.4-0.2-12.7,5.7-8.4,12.6c7.2,11.8,28.5,8,39.7,5.8c11.6-2.3,26.2-12,24.5-25.6
		c-0.7-5.1-2.5-10.4-6.8-13.6c-1.9-1.4-6.7-1.4-8-2.7c-2.5-2.4,2.5-9.9-0.4-12.5C165.9,294,165,293.9,164.1,294.2z"/>
	<circle cx="243.6" cy="291.1" r="25.8"/>
	<circle class="st2" cx="245.6" cy="288.5" r="12.7"/>
	<path class="st3" d="M323.1,255.4c0,0,27.5,3.4,30,73.7c0,0.4-3.2-4.6-3.5-5.3c-6.1-16.4-1.8-36.8-11.9-51.7
		c-3.6-5.3-16-9.3-16.4-17.1C322,254.8,322.5,255,323.1,255.4z"/>
	<path class="st3" d="M464.6,415.4c0,0-4.2,36.5-97.2,40.7c-0.5,0,6-4.3,6.9-4.7c21.6-8.3,48.6-2.9,68.3-16.4
		c6.9-4.8,12-21.3,22.4-22C465.4,413.9,465.1,414.6,464.6,415.4z"/>
</g>
<g>
</g>
<g>
</g>
<g>
</g>
<g>
</g>
<g>
</g>
<g>
</g>
</svg>
