<?xml version="1.0" encoding="utf-8"?>
<!-- Generator: Adobe Illustrator 19.1.0, SVG Export Plug-In . SVG Version: 6.00 Build 0)  -->
<svg version="1.1" id="Calque_1" xmlns="http://www.w3.org/2000/svg" xmlns:xlink="http://www.w3.org/1999/xlink" x="0px" y="0px"
	 viewBox="0 0 595.3 841.9" style="enable-background:new 0 0 595.3 841.9;" xml:space="preserve">
<style type="text/css">
	.st0{fill:#FBF312;}
	.st1{fill:#C73E26;}
	.st2{fill:#FFFFFF;}
	.st3{fill:#FAF9BD;}
</style>
<g>
	<path class="st0" d="M131.7,606.8c18.2,9.3,38.7,14.9,58.4,19.9c30.5,7.7,60.8,14.4,92.2,17.4c76.1,7.2,156.3-4.6,218.1-52.7
		c0.1-0.1,0.2-0.2,0.3-0.3c67.1-68.6,28.8-211.1-5.9-214.8c-18.2-2-22.2,14.1-30.6,26.1c-18.1,25.8-64.7,25.7-93.7,27.8
		c-11.8,0.8-28.2,2.6-39.1-3.2c-8.3-4.4-14.8-16.8-5.4-24.9c35-29.8,118.4-117.3-12.9-182.9c-17.4-6.8-44.6-4.6-59-17
		c-3-2.6-5.8-5.7-9.5-7.2c-4.4-1.8-13.5,1.4-15.6,6.2c-2.4,5.5,2.4,12.7,5.2,17c-33.6,20.5-65.5,42.9-68.2,86.6
		c-1.5,25.4,8.6,43.4,13.4,66.7c5.9,28.2-44.9,44.4-61.2,58.4c-15.6,13.5-29.3,31.3-37.6,50.2c-13.2,30.2-6.8,66.4,11.4,93.1
		C102.2,588.2,116.1,598.8,131.7,606.8z"/>
	<path class="st1" d="M167.7,289.3c-1.7,0.4-3.6,1.7-4.9,2.1c-4.8,1.4-10,1.5-15,1.2c-6.9-0.4-13.7-2.4-19.8-5.7
		c-3.5-1.9-5-3.9-8.9-2.3c-8.2,3.3-5.9,13.5-2.7,19.6c1.9,3.7,4.7,7.6,8.1,10.1c3.4,2.4,14.9,2.8,15.4,7.5c0.5,5.2-8.9,5.5-12,5.4
		c-7.8-0.3-13.2,5.9-8.8,13.2c7.5,12.3,29.8,8.4,41.5,6.1c12.1-2.4,27.4-12.6,25.6-26.7c-0.7-5.3-2.6-10.9-7.1-14.2
		c-2-1.5-7-1.5-8.4-2.8c-2.6-2.5,2.7-10.3-0.4-13.1C169.5,289.1,168.6,289.1,167.7,289.3z"/>
	<circle cx="250.8" cy="286.1" r="26.9"/>
	<circle class="st2" cx="252.8" cy="283.4" r="13.3"/>
	<path class="st3" d="M333.8,248.8c0,0,28.8,3.6,31.3,77c0,0.4-3.4-4.8-3.6-5.5c-6.4-17.1-1.9-38.4-12.4-54
		c-3.7-5.5-16.7-9.7-17.1-17.9C332.6,248.1,333.1,248.4,333.8,248.8z"/>
	<path class="st3" d="M481.6,416c0,0-4.3,38.1-101.5,42.5c-0.6,0,6.3-4.5,7.2-4.9c22.6-8.7,50.8-3,71.4-17.1
		c7.3-5,12.6-22.3,23.4-22.9C482.4,414.4,482.1,415.1,481.6,416z"/>
</g>
<g>
</g>
<g>
</g>
<g>
</g>
<g>
</g>
<g>
</g>
<g>
</g>
</svg>
