<?xml version="1.0" encoding="utf-8"?>
<!-- Generator: Adobe Illustrator 19.1.0, SVG Export Plug-In . SVG Version: 6.00 Build 0)  -->
<svg version="1.1" id="Calque_1" xmlns="http://www.w3.org/2000/svg" xmlns:xlink="http://www.w3.org/1999/xlink" x="0px" y="0px"
	 viewBox="0 0 595.3 841.9" style="enable-background:new 0 0 595.3 841.9;" xml:space="preserve">
<style type="text/css">
	.st0{fill:#EAD6C3;}
	.st1{fill:#CF8590;}
	.st2{fill:#881118;}
	.st3{fill:none;stroke:#623C13;stroke-miterlimit:10;}
</style>
<g>
	<g>
		<path class="st0" d="M281.4,138.9c-49.3,11.6-89.5,68.6-111.5,111.9C133.5,322.7,120.8,407.4,130,487
			c11.6,100.2,121.6,245.9,235.4,177.5c32.1-19.3,59-51.5,78.7-83c87.5-140.4,45.1-341.3-100-431
			C322.2,136.9,301.1,134.3,281.4,138.9z"/>
		<path class="st1" d="M302.2,172.8C262.6,212.4,238,289.2,223.7,341c-27,97.6-18.8,260.9,106.7,288.8c8.9,2,37.4-34.3,42.7-41.6
			c13-18,22.6-38.8,29-60c23.8-78.4-5.4-157.5-34.4-230.2C364.2,289.2,308.3,166.8,302.2,172.8z"/>
		<path class="st2" d="M305.1,244.1c-16.8,30.7-27.2,90.2-33.3,130.4c-11.5,75.7-8,202.3,45.3,223.9c3.8,1.5,15.9-26.6,18.1-32.3
			c5.5-14,9.6-30.1,12.3-46.5c10.1-60.8-2.3-122.1-14.6-178.5C331.4,334.3,307.7,239.4,305.1,244.1z"/>
	</g>
	<g>
		<path class="st3" d="M396.1,339.4c28.3-10.6,59.3,7.5,89.4,5.7c4.5-0.3,10.3-2.4,10.1-6.9"/>
		<path class="st3" d="M210.4,332.3c-9.3-2.2-19.5-0.9-28,3.5c-7.7,4-14.1,10.4-22.2,13.5c-9.6,3.6-20.3,2.1-30.4,0.3"/>
		<path class="st3" d="M233.1,259.3c-35.7-2-71.9,3.8-105.1,17"/>
		<path class="st3" d="M174.9,461.6c-16.6-1.7-34.5-3.2-49,5.2c-10.3,6-19.8,17-31.5,14.5"/>
		<path class="st3" d="M422.3,509.4c24.4,6.9,49.9,9.6,75.2,8.1c8.3-0.5,16.8-1.5,24.5-4.8"/>
		<path class="st3" d="M425.1,423.8c24.5,0,49,0,73.4,0c2.5,0,5.9-0.8,5.8-3.3"/>
		<path class="st3" d="M386,307.1c16.1-2.6,32.6-3.6,48.9-2.8c7.7,0.4,15.5,1.1,23.1-0.4s15.1-5.6,18.5-12.5"/>
		<path class="st3" d="M199.3,525.6c-24.1-1.3-48.2-0.3-72.1,3.1c-5.6,0.8-12.8,4-11.6,9.5"/>
		<path class="st3" d="M192.8,579.1c-19.9,0.4-39.8,4.6-58.2,12.1"/>
		<path class="st3" d="M211,606.9c-7.5-0.1-14,5.3-18.7,11.2c-4.7,5.9-8.3,12.7-14.1,17.6c-5.7,4.9-14.6,7.3-20.8,3.1"/>
		<path class="st3" d="M397.7,591.8c16.9-1.2,34-0.7,50.8,1.4c5.2,0.7,10.5,1.5,15.6,0.6s10.3-4,12.1-8.9"/>
		<path class="st3" d="M420.3,552.7c16.5,0.1,32.9,0.2,49.4,0.2c4.7,0,10.5-0.7,12.1-5"/>
		<path class="st3" d="M453,475.8c0.3-3.2,4.4-4.3,7.6-4.6c28.3-2.7,56.8-4.1,85.2-4.3"/>
		<path class="st3" d="M424,394.5c12.2-6.1,26-9.1,39.7-8.6c11,0.4,22.7,3,32.8-1.6"/>
		<path class="st3" d="M251.7,619.4c-5.8,8.4-11.6,16.8-17.3,25.2c-6.3,9.1-12.9,18.5-22.4,24"/>
		<path class="st3" d="M304.9,640.8c0.7,19.5-6.1,39.2-18.7,54.2"/>
		<path class="st3" d="M363,619.1c3.4,10.1,7.7,21.4,15.8,24.4c3.8,1.4,7.7,0.7,11.6,0.5c12.4-0.5,24.9,4.7,34.8,14.6"/>
		<path class="st3" d="M244.8,221.6c-20.2-3.5-31.7-25.5-50.2-34.2"/>
		<path class="st3" d="M378.3,239.5c1.8-4.8,7.6-6.6,12.7-7.8c6.3-1.5,12.6-2.9,18.9-4.4c4.7-1.1,9.6-2.3,13.7-4.9
			c4.1-2.6,7.4-7.1,7.3-12"/>
		<path class="st3" d="M188.7,399.7c-10.8-3.2-22.9-1.7-32.5,4.1c-6,3.6-11.8,9-18.7,8.5"/>
		<path class="st3" d="M349,215c5.6-7.1,13.2-12.2,19.8-18.4s12.4-14.2,12.2-23.2"/>
		<path class="st3" d="M266.8,190.7c-11.1-17.2-2.6-40.6-8.7-60.2"/>
		<path class="st3" d="M325.8,177.4c5.6-7.1,13.2-12.2,19.8-18.4c6.6-6.2,12.4-14.2,12.2-23.2"/>
	</g>
</g>
<g>
</g>
<g>
</g>
<g>
</g>
<g>
</g>
<g>
</g>
<g>
</g>
</svg>
