<svg xmlns="http://www.w3.org/2000/svg" width="214.48" height="839.637" viewBox="0 0 214.48 839.637">
  <defs>
    <style>
      .cls-1 {
        fill: #5d5d5c;
      }
    </style>
  </defs>
  <title>Fichier 4</title>
  <g id="Calque_2" data-name="Calque 2">
    <g id="Calque_1-2" data-name="Calque 1">
      <g>
        <path class="cls-1" d="M234.467,842.38V824.355H33.309v15.151H28.346V725.212l21.029-27.038,3.788,3L33.309,726.911v92.48h86.08V745.982H104.628v-4.833h32.525v4.833h-12.8v73.409H234.467V799.667h4.964V842.38Z" transform="translate(-28.346 -2.743)"/>
        <path class="cls-1" d="M125.267,688.507q0-9.271-5.094-15.282a41.935,41.935,0,0,0-12.932-10.058l.783-4.7h93.4a83.167,83.167,0,0,0,13.454-1.045,33.7,33.7,0,0,0,11.168-3.722,20.167,20.167,0,0,0,7.576-7.38q2.811-4.7,2.809-12.018a45.971,45.971,0,0,0-2.416-14.759,65.723,65.723,0,0,0-6.466-13.716,89.948,89.948,0,0,0-9.209-12.344q-5.159-5.811-10.516-10.906H119.65a23.991,23.991,0,0,1,6.6,10.057,92.068,92.068,0,0,1,3.331,12.67l-4.833.523q-.261-1.959-1.176-5.813A34.658,34.658,0,0,0,120.7,592.3a23.267,23.267,0,0,0-5.225-6.792,12.02,12.02,0,0,0-8.36-2.938h-.131l1.307-4.964h128.14l-6.661-22.989,4.7-1.307,8.359,29.26H214.873a137.651,137.651,0,0,1,9.666,10.775,92.367,92.367,0,0,1,8.426,12.344,71.3,71.3,0,0,1,6.008,13.716,48.879,48.879,0,0,1,2.286,14.89q0,8.493-3,14.042a23.393,23.393,0,0,1-8.36,8.883,36.553,36.553,0,0,1-12.736,4.7,87.682,87.682,0,0,1-16,1.371H117.43a23.914,23.914,0,0,1,9.469,10.711,35.611,35.611,0,0,1,3.331,14.5Z" transform="translate(-28.346 -2.743)"/>
        <path class="cls-1" d="M104.89,507.074h27.953a137.547,137.547,0,0,1-9.666-10.777,89.857,89.857,0,0,1-8.425-12.409,73,73,0,0,1-6.009-13.78,48.866,48.866,0,0,1-2.286-14.891q0-8.23,3.4-13.781a26.677,26.677,0,0,1,8.947-8.947,38.778,38.778,0,0,1,12.8-4.833,77.434,77.434,0,0,1,15.086-1.437h72.365q10.06,0,15.283,8.751v-29h4.833V453.78h-4.833a36.446,36.446,0,0,0-2.09-11.756q-4.047-10.972-13.193-10.972H146.428a72.783,72.783,0,0,0-12.083,1.045,37.6,37.6,0,0,0-11.3,3.722,23.131,23.131,0,0,0-8.359,7.381q-3.264,4.7-3.266,12.017a45.622,45.622,0,0,0,2.416,14.629,69.394,69.394,0,0,0,6.4,13.781,90.608,90.608,0,0,0,9.144,12.54,126.588,126.588,0,0,0,10.646,10.907h79.026a17.456,17.456,0,0,1,13.062,5.224,9.135,9.135,0,0,1,.784.98q.523.72,1.437,1.894V484.084h4.833v50.943h-4.833v-1.568q-.521-12.276-5.878-17.764a12.767,12.767,0,0,0-9.405-3.788H111.421l6.531,23.12-4.7,1.306Z" transform="translate(-28.346 -2.743)"/>
        <path class="cls-1" d="M241.128,271.432a59.336,59.336,0,0,1-20.246,45.522,66.824,66.824,0,0,1-22.075,12.8,80.49,80.49,0,0,1-27.169,4.506,66.324,66.324,0,0,1-24.558-4.637,67.492,67.492,0,0,1-20.768-12.8,62.183,62.183,0,0,1-14.369-19.266,54.609,54.609,0,0,1-5.355-24.035,52.883,52.883,0,0,1,4.637-22.663,68.822,68.822,0,0,1,14.7-20.964l22.6,13.062-2.352,4.31-19.332-11.233a57.25,57.25,0,0,0-11.3,17.372,52.765,52.765,0,0,0-4.114,20.638,48.548,48.548,0,0,0,4.767,21.031,56.852,56.852,0,0,0,13,17.633,64.1,64.1,0,0,0,19.135,12.083,60.131,60.131,0,0,0,23.186,4.507,78.511,78.511,0,0,0,24.361-3.788,62.821,62.821,0,0,0,20.638-11.1,53.246,53.246,0,0,0,19.659-42.583,51.566,51.566,0,0,0-6.336-25.079A60.264,60.264,0,0,0,212,226.76l2.742-4.05a64.647,64.647,0,0,1,10.777,9.34,58.818,58.818,0,0,1,13.715,24.883A55.743,55.743,0,0,1,241.128,271.432Z" transform="translate(-28.346 -2.743)"/>
        <path class="cls-1" d="M206.122,205.729a33,33,0,0,1-26.32-11.886,50.115,50.115,0,0,1-7.707-12.6,84.7,84.7,0,0,1-4.833-14.956,121.83,121.83,0,0,1-2.482-15.805q-.717-7.967-.718-15.153v-14.5q-11.757.656-21.422,1.372a50.753,50.753,0,0,0-16.655,3.788,22.522,22.522,0,0,0-10.776,9.731q-3.786,6.661-3.788,19.2a72.591,72.591,0,0,0,.979,11.822,67.277,67.277,0,0,0,3,11.625,59.087,59.087,0,0,0,5.16,10.842,50.219,50.219,0,0,0,7.446,9.47l14.107-7.054,2.221,4.441-17.112,8.622a68.654,68.654,0,0,1-15.61-22.925,70.189,70.189,0,0,1-5.159-26.843,58.63,58.63,0,0,1,1.764-15.413,28.093,28.093,0,0,1,5.29-10.646,25.224,25.224,0,0,1,8.817-6.727,51.092,51.092,0,0,1,12.213-3.788,118.585,118.585,0,0,1,15.544-1.763q8.62-.456,18.81-.718v19.593q0,5.878.522,12.931a111.153,111.153,0,0,0,2.024,14.3,92.143,92.143,0,0,0,4.115,14.108,47.906,47.906,0,0,0,6.727,12.213,31.39,31.39,0,0,0,9.992,8.555,28.519,28.519,0,0,0,13.847,3.2,33.046,33.046,0,0,0,11.1-1.894,31.1,31.1,0,0,0,9.6-5.421,26.609,26.609,0,0,0,6.792-8.556,24.645,24.645,0,0,0,2.548-11.3,53.811,53.811,0,0,0-2.352-15.087,71.759,71.759,0,0,0-17.373-29.652,54.211,54.211,0,0,0-14.106-10.515l.392-1.436q3.4,0,8.686-.2a50.614,50.614,0,0,0,10.318-1.436,23.763,23.763,0,0,0,8.687-3.984,9.668,9.668,0,0,0,3.788-7.968h4.964a13.051,13.051,0,0,1-2.155,7.576,18.69,18.69,0,0,1-5.618,5.29,30.781,30.781,0,0,1-7.706,3.4,66.475,66.475,0,0,1-8.424,1.895,66.24,66.24,0,0,1,10.449,10.776,79.782,79.782,0,0,1,8.164,12.931,70.543,70.543,0,0,1,5.355,14.173,57.261,57.261,0,0,1,1.894,14.368,30.04,30.04,0,0,1-10.58,23.447,34.778,34.778,0,0,1-11.168,6.335A39.741,39.741,0,0,1,206.122,205.729Z" transform="translate(-28.346 -2.743)"/>
        <path class="cls-1" d="M109.2,104.367V95.224A24.406,24.406,0,0,0,106.261,83.4a27.665,27.665,0,0,0-7.968-9.143A33.2,33.2,0,0,0,86.6,68.838,38.012,38.012,0,0,0,72.5,68.054h-.13l-.784-4.7A32.429,32.429,0,0,1,81.835,62.9a38.758,38.758,0,0,1,10.058,2.546,39.567,39.567,0,0,1,9.209,5.226,38.976,38.976,0,0,1,7.576,7.576V2.743h4.833V62.829H224.67q6.27,0,8.947-3.4a13.284,13.284,0,0,0,2.678-8.491,22.891,22.891,0,0,0-4.768-13.976,46.112,46.112,0,0,0-11.69-10.972l2.612-4.18a41.508,41.508,0,0,1,13.063,11.952,33.938,33.938,0,0,1,4.179,8.1,26.36,26.36,0,0,1,1.568,8.948q0,8.229-4.571,12.605T224.67,67.793H113.511v36.574Z" transform="translate(-28.346 -2.743)"/>
      </g>
    </g>
  </g>
</svg>
