<svg id="Calque_1" data-name="Calque 1" xmlns="http://www.w3.org/2000/svg" width="210mm" height="297mm" viewBox="0 0 595.276 841.89">
  <defs>
    <style>
      .cls-1 {
        fill: none;
        stroke: #141412;
        stroke-miterlimit: 10;
        stroke-width: 7px;
      }
    </style>
  </defs>
  <title>Sans titre - 1</title>
  <polygon class="cls-1" points="36.627 48.961 527 48.961 527 69.202 491.49 69.202 491.49 139.512 527 139.512 527 165.08 543.909 165.08 543.909 190.647 378.197 190.647 378.197 226.868 481.344 226.868 481.344 265.219 543.909 265.219 543.909 284.394 503.327 284.394 503.327 308.182 532.072 308.182 532.072 338.725 511.781 338.725 511.781 385.598 533.763 385.598 533.763 429.524 390.034 429.524 390.034 475.084 439.071 475.084 439.071 500.652 471.199 500.652 471.199 520.892 344.378 520.892 344.378 563.505 543.909 563.505 543.909 591.203 559.128 591.203 559.128 617.835 513.472 617.835 513.472 639.142 483.035 639.142 483.035 680.689 565.891 680.689 565.891 707.166 529.197 707.166 529.197 776.712 562.57 776.712 562.57 795.581 36.627 795.581 36.627 48.961"/>
</svg>
