<svg id="Calque_1" data-name="Calque 1" xmlns="http://www.w3.org/2000/svg" width="210mm" height="297mm" viewBox="0 0 595.276 841.89">
  <defs>
    <style>
      .cls-1 {
        fill: none;
        stroke: #141412;
        stroke-miterlimit: 10;
        stroke-width: 7px;
      }
    </style>
  </defs>
  <title>Sans titre - 1</title>
  <polygon class="cls-1" points="40.235 48.298 532.784 48.298 532.784 66.186 490.686 66.186 490.686 109.331 541.204 109.331 541.204 129.556 499.106 129.556 499.106 171.353 532.784 171.353 532.784 219.891 490.686 219.891 490.686 248.206 440.168 248.206 440.168 288.654 511.735 288.654 511.735 315.62 457.008 315.62 457.008 354.721 486.476 354.721 486.476 382.365 541.204 382.365 541.204 462.815 435.474 462.815 435.474 501.431 472.65 501.431 472.65 534.898 555.041 534.898 555.041 555.493 482.698 555.493 482.698 579.949 460.593 579.949 460.593 610.842 420.403 610.842 420.403 653.963 539.969 653.963 539.969 672.627 431.455 672.627 431.455 713.817 482.698 713.817 482.698 745.354 526.907 745.354 526.907 759.513 430.45 759.513 430.45 793.592 44.622 793.592 40.235 48.298"/>
</svg>
