<svg id="Calque_1" data-name="Calque 1" xmlns="http://www.w3.org/2000/svg" width="210mm" height="297mm" viewBox="0 0 595.276 841.89">
  <defs>
    <style>
      .cls-1 {
        fill: none;
        stroke: #141412;
        stroke-miterlimit: 10;
        stroke-width: 7px;
      }
    </style>
  </defs>
  <title>Sans titre - 1</title>
  <polygon class="cls-1" points="33.809 48.961 561.466 48.961 561.466 71.845 532.152 71.845 532.152 90.878 561.466 90.878 561.466 107.797 525.981 107.797 525.981 144.806 561.466 144.806 561.466 169.126 519.809 169.126 519.809 207.192 498.209 207.192 498.209 312.932 538.323 312.932 538.323 335.138 513.638 335.138 513.638 366.86 380.952 366.86 380.952 414.443 416.438 414.443 416.438 444.05 436.876 444.05 436.876 483.192 436.876 515.333 488.71 515.333 488.71 579.051 547.948 579.051 547.948 599.915 460.736 599.915 460.736 643.334 497.76 643.334 497.76 701.977 497.76 732.426 352.132 732.426 352.132 776.409 487.887 776.409 487.887 795.581 33.809 795.581 33.809 48.961"/>
</svg>
