<svg xmlns="http://www.w3.org/2000/svg" width="316.928" height="324.052" viewBox="0 0 316.928 324.052">
  <defs>
    <style>
      .cls-1 {
        fill: red;
      }
    </style>
  </defs>
  <title>Fichier 2</title>
  <g id="Calque_2" data-name="Calque 2">
    <g id="Calque_1-2" data-name="Calque 1">
      <path class="cls-1" d="M190.547,263.1c-24.643,24.01-70.024,60.948-112.766,60.948C33.033,324.052,0,301.994,0,249.49,0,183.423,78.414,149.7,190.547,110.181c0-51.819-1.319-92.029-54.457-92.029-51.819,0-82.952,36.305-115.985,85.538H15.567V0H282.575l-14.3,55.724V275.452h.686l47.967,42.109H190.547Zm0-134.771C88.809,169.176,85.538,197.038,85.538,228.118c0,31.134,21.371,44.748,48.6,44.748,20.1,0,40.209-10.395,56.409-27.228Z"/>
    </g>
  </g>
</svg>
