<svg xmlns="http://www.w3.org/2000/svg" width="440.784" height="396.945" viewBox="0 0 440.784 396.945">
  <defs>
    <style>
      .cls-1 {
        fill: #feb5b4;
      }
    </style>
  </defs>
  <title>Fichier 10</title>
  <g id="Calque_2" data-name="Calque 2">
    <g id="Calque_1-2" data-name="Calque 1">
      <g>
        <path class="cls-1" d="M98.637,396.945l-62.1-62.105L10.96,360.413,0,349.453l62.105-62.1,10.959,10.959L47.492,323.881l62.105,62.1Z"/>
        <path class="cls-1" d="M132.543,363.039l-54.8-54.8,10.96-10.959,7.306,7.306,3.653-3.653-3.653-3.653,3.653-3.654-3.653-3.653,14.613-14.613,3.653,3.654,3.653-3.654,3.654,3.654,3.653-3.654,7.306,7.307-3.653,3.653,3.653,3.653-3.653,3.653-3.653-3.653-3.653,3.653-3.654-3.653-10.959,10.96,3.653,3.653-3.653,3.653,3.653,3.654-3.653,3.653L143.5,352.079Z"/>
        <path class="cls-1" d="M177.866,317.716,104.8,244.652l43.838-43.839,10.96,10.96-32.879,32.879,18.266,18.266,32.879-32.879L188.826,241l-32.879,32.879,21.919,21.92,32.879-32.879,10.96,10.959Z"/>
        <path class="cls-1" d="M248.99,246.592l-3.653-3.653-7.307,7.307-3.653-3.654-3.653,3.654-3.654-3.654-3.653,3.654-7.306-7.307,10.959-10.96,3.654,3.654,3.653-3.654,3.653,3.654L256.3,217.367l-3.653-3.654,3.653-3.653L245.337,199.1l-3.654,3.654L238.03,199.1l-3.653,3.654-3.653-3.654-10.96,10.96-3.653-3.653-10.96,10.96-3.653-3.654-3.653,3.654-3.654-3.654-3.653,3.654L172.272,199.1l3.653-3.653-3.653-3.653,3.653-3.653-3.653-3.653,3.653-3.654-3.653-3.653,25.573-25.572,3.653,3.653,3.653-3.653,3.653,3.653,3.654-3.653,7.306,7.306-10.96,10.96-3.653-3.654-18.266,18.267,3.653,3.653-3.653,3.653,10.96,10.96,7.306-7.307L208.8,199.1l10.96-10.959,3.653,3.653,7.307-7.306,3.653,3.653,7.306-7.307,7.307,7.307,3.653-3.653,18.266,18.266-3.653,3.653,3.653,3.653-3.653,3.653,3.653,3.654-7.306,7.306,3.653,3.653Z"/>
        <path class="cls-1" d="M305.843,138.594l-40.185,40.185L254.7,167.82l40.185-40.186Z"/>
        <path class="cls-1" d="M341.119,154.463,330.16,143.5l3.653-3.653L330.16,136.2l3.653-3.654-3.653-3.653,3.653-3.653-3.653-3.653,3.653-3.654-3.653-3.653,3.653-3.653-3.653-3.653,3.653-3.653-3.653-3.654,3.653-3.653-3.653-3.653,3.653-3.653-3.653-3.653,3.653-3.654-3.653-3.653,3.653-3.653L319.2,59.479l-3.653,3.653-3.653-3.653L297.281,74.092l3.653,3.653L297.281,81.4l3.653,3.654-3.653,3.653,7.306,7.306-10.96,10.96-7.306-7.307,3.653-3.653-7.306-7.306,3.653-3.653L282.668,81.4l3.653-3.653-3.653-3.653,3.653-3.653-3.653-3.654,21.919-21.919,3.653,3.653,3.654-3.653,3.653,3.653,3.653-3.653,3.653,3.653,3.653-3.653,21.92,21.919-3.653,3.654,3.653,3.653-3.653,3.653,3.653,3.653-3.653,3.654,3.653,3.653-3.653,3.653,3.653,3.653-3.653,3.653,3.653,3.654-3.653,3.653,3.653,3.653-3.653,3.653,3.653,3.653-3.653,3.654,3.653,3.653,32.879-32.879,10.959,10.96Z"/>
        <path class="cls-1" d="M404.252,91.33,331.187,18.266l10.96-10.96,25.572,25.573,3.654-3.653-3.654-3.653,3.654-3.654-3.654-3.653L382.332,3.653l3.653,3.653L393.292,0l3.653,3.653L400.6,0l7.307,7.306,3.653-3.653,25.573,25.573-3.654,3.653,7.307,7.306-3.653,3.654,3.653,3.653L433.477,54.8l3.654,3.654L422.518,73.064l-3.654-3.653-3.653,3.653-3.653-3.653-3.653,3.653,7.306,7.307Zm21.919-43.838-3.653-3.653,3.653-3.654L400.6,14.613l-3.653,3.653-3.653-3.653L378.679,29.226l3.653,3.653-3.653,3.653,3.653,3.653-3.653,3.654,18.266,18.266,3.653-3.653,3.654,3.653,3.653-3.653,3.653,3.653Z"/>
      </g>
    </g>
  </g>
</svg>
