<svg xmlns="http://www.w3.org/2000/svg" width="656.474" height="238.007" viewBox="0 0 656.474 238.007">
  <defs>
    <style>
      .cls-1 {
        fill: #ff0;
      }
    </style>
  </defs>
  <title>Fichier 6</title>
  <g id="Calque_2" data-name="Calque 2">
    <g id="Calque_1-2" data-name="Calque 1">
      <g>
        <path class="cls-1" d="M93.29,117.829l17.574,123.189-22.349,3.189-6.39-44.788-12.857-9.568-11.577-1.222-11.174,1.595L54.9,249l-22.438,3.2L14.889,129.015l22.439-3.2,7.983,55.963,33.613-4.8L70.94,121.019Z" transform="translate(-14.889 -25.639)"/>
        <path class="cls-1" d="M158.024,234.29,134.4,214.676l-6.427-45.052,17.2-25.437,26.838-3.83,23.539,19.626,1.607,11.264-17.2,25.438L155.315,200.2l1.606,11.263,17.145,7.52,14.481-6.735,8.536-1.218,1.167,8.184-15.589,11.561ZM154.1,191.665l10.874-4.335,9.656-12.869L173.02,163.2l-12.869-9.656-11.652-1.12Z" transform="translate(-14.889 -25.639)"/>
        <path class="cls-1" d="M247.413,263.646l-15.686-9.255-1.607-11.264,16.278-2.322,20.034,11.418-3.1-33.046L244.944,221.8l-25.157-42.29L209.577,135l22.525-3.214,13.324,66.962,16.741,9.1-7.627-79.268,22.526-3.213,9.266,118.447L267.65,260.758Z" transform="translate(-14.889 -25.639)"/>
        <path class="cls-1" d="M382.562,244.364l-15.686-9.254-1.606-11.263,16.278-2.323,20.035,11.417-3.1-33.045-18.39,2.624-25.157-42.291-10.211-44.512,22.526-3.213,13.324,66.962,16.741,9.1L389.69,109.3l22.526-3.214,9.266,118.448L402.8,241.477Z" transform="translate(-14.889 -25.639)"/>
        <path class="cls-1" d="M507.025,115.547l6.427,45.052-17.2,25.438-26.837,3.829-23.54-19.627-6.427-45.051L456.56,99.763l26.926-3.842Zm-14.1,62.256-8.411-58.954-12.869-9.657-11.665-1.208,8.424,59.042Z" transform="translate(-14.889 -25.639)"/>
        <path class="cls-1" d="M594.892,80.117l12.842,90.016-2.2.314-10.494-8.738-7.72,11.336-26.837,3.829-23.54-19.627-9.628-67.489,22.525-3.213,9.628,67.489,24.523,10.777-11.625-81.48Z" transform="translate(-14.889 -25.639)"/>
        <path class="cls-1" d="M663.791,112.485l-20.367,17.092L629.051,28.827l22.35-3.188Zm-7.824,26.346,15.4,11.629-11.542,15.385L644.35,154.314Z" transform="translate(-14.889 -25.639)"/>
      </g>
    </g>
  </g>
</svg>
