<svg xmlns="http://www.w3.org/2000/svg" width="689.621" height="220.708" viewBox="0 0 689.621 220.708">
  <defs>
    <style>
      .cls-1 {
        fill: #141412;
      }
    </style>
  </defs>
  <title>Fichier 5</title>
  <g id="Calque_2" data-name="Calque 2">
    <g id="Calque_1-2" data-name="Calque 1">
      <g>
        <path class="cls-1" d="M122.547,75.519c41.349,8.277,53.977,26.78,53.977,49.412,0,32.859-35.039,50.068-80.535,50.068C23.723,175,1.3,141.467,0,117.1l39.833-10.227s-5.007,41.349,55.5,41.349c25.69,0,41.358-7.391,41.358-20.24,0-15.455-13.275-18.291-36.563-23.289l-43.1-9.145C24.378,88.581,6.1,71.815,6.1,50.494,6.1,24.157,31.344,0,84.239,0c81.837,0,85.541,49.838,85.541,49.838L129.947,60.72s1.3-33.958-47.233-33.958c-23.075,0-36.572,8.49-36.572,19.584,0,10.9,12.194,16.341,29.82,19.815Z"/>
        <path class="cls-1" d="M270.873,48.526c47.233,0,75.094,27.861,75.094,63.13,0,35.482-27.861,63.343-75.094,63.343-46.8,0-74.659-27.861-74.659-63.343C196.214,76.387,224.075,48.526,270.873,48.526Zm0,102.529c27.861,0,37.432-19.6,37.432-39.4,0-19.814-9.571-39.186-37.432-39.186-28.082,0-37.006,19.372-37.006,39.186C233.867,131.453,242.791,151.055,270.873,151.055Z"/>
        <path class="cls-1" d="M495.161,139.074c-.221,6.753,2.171,11.981,8.7,11.981,10.014,0,16.323-10.882,16.323-10.882l7.187,23.5S517.359,175,498.422,175c-25.9,0-32.433-16.553-32.433-40.923C464.9,136.026,444.446,175,407.006,175c-22.208,0-35.7-10.456-35.7-28.729,0-20.258,23.732-43.546,89.9-49.2,0-11.095-2.614-24.6-24.812-24.6-33.09,0-33.3,26.78-33.3,26.78l-37.441-9.588s11.538-41.136,72.48-41.136c39.177,0,59.86,20.9,58.992,45.5ZM421.37,151.055c25.247,0,39.833-33.957,39.833-33.957v-8.49c-39.62,3.7-52.46,18.716-52.46,30.254C408.743,144.09,410.488,151.055,421.37,151.055Z"/>
        <path class="cls-1" d="M582.962,220.708H547.055V51.362h20.9l8.268,27.648s10.67-30.484,49.626-30.484c36.784,0,63.777,26.124,63.777,63.13S662.628,175,626.065,175c-33.736,0-43.1-22.207-43.1-22.207Zm-5.654-109.052c0,20.028,10.661,39.4,37,39.4,25.9,0,37.662-17.422,37.662-39.4,0-21.994-11.76-39.186-37.662-39.186C587.969,72.47,577.308,91.629,577.308,111.656Z"/>
      </g>
    </g>
  </g>
</svg>
