<svg id="Calque_1" data-name="Calque 1" xmlns="http://www.w3.org/2000/svg" width="210mm" height="297mm" viewBox="0 0 595.276 841.89">
  <defs>
    <style>
      .cls-1 {
        fill: none;
        stroke: #141412;
        stroke-miterlimit: 10;
        stroke-width: 7px;
      }
    </style>
  </defs>
  <title>Sans titre - 1</title>
  <polygon class="cls-1" points="33.809 48.298 485.48 48.298 485.48 84.055 539.351 84.055 539.351 105.101 394.279 105.101 394.279 143.304 539.351 143.304 539.351 160.523 474.568 160.523 474.568 202.245 539.351 202.245 539.351 219.464 456.552 219.464 456.552 322.114 561.466 322.114 561.466 338.008 443.835 338.008 443.835 382.38 496.822 382.38 496.822 412.181 537.092 412.181 537.092 427.795 455.492 427.795 455.492 442.645 488.344 442.645 488.344 459.202 422.682 459.202 422.682 500.836 489.605 500.836 489.605 551.463 466.123 551.463 466.123 596.22 538.917 596.22 538.917 621.901 538.917 640.977 517.784 640.977 517.784 670.326 494.302 670.326 494.302 702.61 452.034 702.61 452.034 745.166 502.52 745.166 502.52 762.042 450.86 762.042 450.86 793.592 33.809 793.592 33.809 48.298"/>
</svg>
