<svg xmlns="http://www.w3.org/2000/svg" width="527.657" height="746.62" viewBox="0 0 527.657 746.62">
  <defs>
    <style>
      .cls-1 {
        fill: #04ff00;
      }
    </style>
  </defs>
  <title>Fichier 19</title>
  <g id="Calque_2" data-name="Calque 2">
    <g id="Calque_1-2" data-name="Calque 1">
      <polygon class="cls-1" points="0 0 527.657 0 527.657 23.31 435.204 23.31 435.204 62.222 509.618 62.222 509.618 106.693 441.969 106.693 441.969 134.487 419.42 134.487 419.42 178.958 498.343 178.958 498.343 199.804 410.4 199.804 410.4 241.496 498.343 241.496 498.343 290.136 421.675 290.136 421.675 306.813 421.675 331.827 450.989 331.827 450.989 361.012 511.872 361.012 511.872 380.563 480.303 380.563 480.303 512.491 507.363 512.491 507.363 531.947 444.224 531.947 444.224 570.859 487.068 570.859 487.068 591.705 487.068 606.992 515.794 606.992 515.794 625.221 473.539 625.221 473.539 655.603 345.768 655.603 345.768 695.63 516.204 695.63 516.204 713.965 480.85 713.965 480.85 746.62 0 746.62 0 0"/>
    </g>
  </g>
</svg>
