<svg xmlns="http://www.w3.org/2000/svg" width="593.224" height="466.623" viewBox="0 0 593.224 466.623">
  <defs>
    <style>
      .cls-1 {
        fill: #141412;
      }
    </style>
  </defs>
  <title>Fichier 13</title>
  <g id="Calque_2" data-name="Calque 2">
    <g id="Calque_1-2" data-name="Calque 1">
      <g>
        <path class="cls-1" d="M111.142,8.725c11.922,8.921,17.137,20.673,19.678,26.8l1.548,1.159L137,30.49l5.419,4.055L114.848,71.4l-5.42-4.055L112.9,62.7c9.5-12.7,11.952-34.049-5.622-47.2-9.6-7.183-19.52-6.515-26.124,2.311-7.878,10.529-3.807,20.1.81,32.488L91.9,77.05c5.625,15.078,5.137,28-5.059,41.622-11.817,15.793-32.973,15.662-52.328,1.18-13.935-10.427-20.293-23.879-22.91-29.1L10.054,89.6,5.419,95.789,0,91.734,27.574,54.883l5.419,4.055-3.475,4.645c-9.559,12.774-10.5,35.014,7.925,48.8,11.768,8.806,23.177,8.406,30.592-1.5,6.893-9.212,6.9-16.813.7-34.5L60.389,52.506c-4.6-13.222-7.3-26.234,2.315-39.085C76.723-5.315,96.742-2.05,111.142,8.725Z"/>
        <path class="cls-1" d="M118.716,169.574l.39,2.707,13.548,10.137-4.055,5.419L84.083,154.529l4.055-5.42,12,8.979,2.707-.39,68.066-90.967-.39-2.707-12-8.979,4.055-5.419,44.9,33.6c23.226,17.378,31.855,38.931,17.663,57.9s-37.3,16.77-60.53-.608l-15.484-11.586Zm36.205-48.387,13.161,9.848c13.936,10.427,27.281,11.959,38.867-3.525s6.35-27.854-7.585-38.281L186.2,79.381Z"/>
        <path class="cls-1" d="M215.258,173.58c24.619-32.9,63.773-39.232,94.74-16.061,29.419,22.013,34,58.654,10.544,90.009C297.37,278.5,257.059,286.373,226.091,263.2,196.672,241.188,193.245,203,215.258,173.58Zm83.035,65.754c20.275-27.1,25.264-62.008,2.039-79.387-20.9-15.64-44.289-2.948-62.826,21.826-20.275,27.1-24.974,61.621-1.748,79C255.887,275.834,278.6,265.656,298.293,239.334Z"/>
        <path class="cls-1" d="M327.45,257.528c24.62-32.9,63.773-39.232,94.741-16.061,29.419,22.013,34.005,58.654,10.544,90.009-23.172,30.967-63.484,38.845-94.451,15.673C308.865,325.136,305.438,286.947,327.45,257.528Zm83.036,65.754c20.275-27.1,25.264-62.008,2.038-79.387-20.9-15.64-44.288-2.947-62.825,21.827-20.275,27.1-24.974,61.62-1.749,79C368.079,359.782,390.79,349.6,410.486,323.282Z"/>
        <path class="cls-1" d="M501.183,466.623l-6.193-4.634-4.621-136.66-1.239-.927c-26.916,37.1-34.775,47.283-58.991,78.194l.39,2.707,13.548,10.137-4.055,5.42-36.774-27.517,4.055-5.419,12,8.979,2.707-.39c26.646-37.063,32.554-44.959,68.066-90.967l-.39-2.707-11.225-8.4,4.055-5.42,27.1,20.275,4.254,120.2,1.548,1.159c24.329-33.966,26.569-37.121,50.92-68.051l-.39-2.707L552.4,349.761l4.055-5.419,36.773,27.516-4.055,5.419-12-8.979-2.707.39c-23.518,32.883-27.65,38.244-50.92,68.051Z"/>
      </g>
    </g>
  </g>
</svg>
