<svg id="Calque_1" data-name="Calque 1" xmlns="http://www.w3.org/2000/svg" width="210mm" height="297mm" viewBox="0 0 595.276 841.89">
  <defs>
    <style>
      .cls-1 {
        fill: none;
        stroke: #141412;
        stroke-miterlimit: 10;
        stroke-width: 7px;
      }
    </style>
  </defs>
  <title>Sans titre - 1</title>
  <polygon class="cls-1" points="33.809 47.635 561.466 47.635 561.466 70.945 469.014 70.945 469.014 109.857 543.427 109.857 543.427 154.328 475.778 154.328 475.778 182.122 453.229 182.122 453.229 226.593 532.152 226.593 532.152 247.439 444.209 247.439 444.209 289.131 532.152 289.131 532.152 337.771 455.484 337.771 455.484 354.448 455.484 379.463 484.798 379.463 484.798 408.647 545.682 408.647 545.682 428.198 514.113 428.198 514.113 560.126 541.172 560.126 541.172 579.582 478.033 579.582 478.033 618.494 520.877 618.494 520.877 639.34 520.877 654.627 549.603 654.627 549.603 672.856 507.348 672.856 507.348 703.238 379.577 703.238 379.577 743.266 550.014 743.266 550.014 761.6 514.659 761.6 514.659 794.255 33.809 794.255 33.809 47.635"/>
</svg>
