<svg xmlns="http://www.w3.org/2000/svg" width="577.142" height="841.836" viewBox="0 0 577.142 841.836">
  <defs>
    <style>
      .cls-1 {
        fill: none;
        stroke: #888;
        stroke-miterlimit: 10;
        stroke-width: 3px;
      }
    </style>
  </defs>
  <title>Fichier 243</title>
  <g id="Calque_2" data-name="Calque 2">
    <g id="Calque_1-2" data-name="Calque 1">
      <line class="cls-1" x1="57.512" x2="57.512" y2="841.836"/>
      <line class="cls-1" x1="110.044" x2="110.044" y2="841.836"/>
      <line class="cls-1" x1="162.577" x2="162.577" y2="841.836"/>
      <line class="cls-1" x1="215.11" x2="215.11" y2="841.836"/>
      <line class="cls-1" x1="267.643" x2="267.643" y2="841.836"/>
      <line class="cls-1" x1="320.176" x2="320.176" y2="841.836"/>
      <line class="cls-1" x1="372.709" x2="372.709" y2="841.836"/>
      <line class="cls-1" x1="425.241" x2="425.241" y2="841.836"/>
      <line class="cls-1" x1="477.774" x2="477.774" y2="841.836"/>
      <line class="cls-1" x1="530.307" x2="530.307" y2="841.836"/>
      <line class="cls-1" x1="577.142" y1="53.844" y2="53.844"/>
      <line class="cls-1" x1="577.142" y1="106.376" x2="4.979" y2="106.376"/>
      <line class="cls-1" x1="577.142" y1="158.909" x2="4.979" y2="158.909"/>
      <line class="cls-1" x1="577.142" y1="211.442" x2="4.979" y2="211.442"/>
      <line class="cls-1" x1="577.142" y1="263.975" x2="4.979" y2="263.975"/>
      <line class="cls-1" x1="577.142" y1="316.508" x2="4.979" y2="316.508"/>
      <line class="cls-1" x1="577.142" y1="369.041" x2="4.979" y2="369.041"/>
      <line class="cls-1" x1="577.142" y1="421.573" x2="4.979" y2="421.573"/>
      <line class="cls-1" x1="577.142" y1="474.106" x2="4.979" y2="474.106"/>
      <line class="cls-1" x1="577.142" y1="526.639" x2="4.979" y2="526.639"/>
      <line class="cls-1" x1="577.142" y1="579.172" x2="4.979" y2="579.172"/>
      <line class="cls-1" x1="577.142" y1="631.705" x2="4.979" y2="631.705"/>
      <line class="cls-1" x1="577.142" y1="684.238" x2="4.979" y2="684.238"/>
      <line class="cls-1" x1="577.142" y1="736.77" x2="4.979" y2="736.77"/>
      <line class="cls-1" x1="577.142" y1="789.303" x2="4.979" y2="789.303"/>
    </g>
  </g>
</svg>
