<svg xmlns="http://www.w3.org/2000/svg" width="545.417" height="207.418" viewBox="0 0 545.417 207.418">
  <defs>
    <style>
      .cls-1 {
        fill: lime;
      }
    </style>
  </defs>
  <title>Fichier 15</title>
  <g id="Calque_2" data-name="Calque 2">
    <g id="Calque_1-2" data-name="Calque 1">
      <g>
        <path class="cls-1" d="M64.867,0c42.852,0,80.059,9.523,80.059,44.936,0,26.776-23.807,39.873-44.937,48.208,35.414,8.324,57.428,25.891,57.428,56.24,0,42.853-54.75,54.46-94.925,54.46H0L16.962,172.3V30.943L0,0Zm-11,91.351c36.3,0,54.459-17.252,54.459-40.466,0-35.716-25.3-41.362-44.646-41.362H53.866ZM62.8,192.237c28.859,0,52.969-15.181,52.969-43.749,0-39.279-25.6-49.7-61.9-49.7v93.447Z"/>
        <path class="cls-1" d="M287.271,139.268c-7.729,25.588-33.923,68.15-62.782,68.15-26.485,0-44.052-19.942-44.052-59.524,0-42.852,30.361-93.738,66.962-93.738,28.266,0,37.195,28.266,37.195,34.227l-65.473,56.24c2.678,24.7,10.723,41.665,21.433,41.665,21.42,0,41.956-50,41.956-50Zm-34.517-34.226c-1.49-30.059-16.368-44.343-20.233-41.666-5.355,3.284-14.587,13.1-14.587,60.711,0,4.762.3,9.232.594,13.4Z"/>
        <path class="cls-1" d="M411.431,139.268c-7.73,25.588-33.923,68.15-62.783,68.15-26.484,0-44.052-19.942-44.052-59.524,0-42.852,30.362-93.738,66.963-93.738,28.265,0,37.195,28.266,37.195,34.227l-65.473,56.24c2.678,24.7,10.723,41.665,21.433,41.665,21.42,0,41.956-50,41.956-50Zm-34.517-34.226c-1.49-30.059-16.368-44.343-20.233-41.666-5.355,3.284-14.587,13.1-14.587,60.711,0,4.762.3,9.232.594,13.4Z"/>
        <path class="cls-1" d="M505.242,93.435c-4.168,1.793-29.465,62.2-29.465,92.26l2.386,18.149H441.55V97.906L421.317,74.983l54.46-19.93v94.634c8.638-33.329,23.213-70.827,40.768-95.833h3.877l25,49.1-.9,1.2Z"/>
      </g>
    </g>
  </g>
</svg>
