<svg xmlns="http://www.w3.org/2000/svg" width="450.045" height="442.854" viewBox="0 0 450.045 442.854">
  <defs>
    <style>
      .cls-1 {
        fill: #ff0;
      }
    </style>
  </defs>
  <title>Fichier 1</title>
  <g id="Calque_2" data-name="Calque 2">
    <g id="Calque_1-2" data-name="Calque 1">
      <path class="cls-1" d="M315.718,209.171v6.537c53.273,11.439,88.244,39.546,88.244,89.878,0,62.1-56.869,137.268-204.923,137.268H0l6.537-22.878H55.888l9.805-6.536L168.644,29.415l-6.536-6.537h-48.7L119.947,0H313.1c80.4,0,136.942,27.454,136.942,91.186C450.045,161.454,372.259,197.732,315.718,209.171Zm-117.005,201c102.624,0,128.77-62.424,128.77-111.449,0-50-29.741-68.307-77.458-68.307H181.717L131.712,404.288v5.883ZM246.43,197.732c69.614,0,126.81-40.854,126.81-103.278,0-48.7-31.376-61.771-79.42-61.771H238.259L192.83,191.2v6.537Z"/>
    </g>
  </g>
</svg>
