<svg xmlns="http://www.w3.org/2000/svg" width="551.449" height="85.684" viewBox="0 0 551.449 85.684">
  <defs>
    <style>
      .cls-1 {
        fill: aqua;
      }
    </style>
  </defs>
  <title>Fichier 8</title>
  <g id="Calque_2" data-name="Calque 2">
    <g id="Calque_1-2" data-name="Calque 1">
      <g>
        <path class="cls-1" d="M539.236,57.414l-1.872-17.431h-1.082L532.932,84.7h-8.863l10.244-52V12.8H541.7V32.792l9.751,51.9h-8.272Z"/>
        <path class="cls-1" d="M523.586,23.338V59.585c0,9.649-4.926,13.291-10.735,13.291-6.3,0-9.552-3.051-9.552-11.517V25.112c0-9.65,4.922-13.3,10.735-13.3C520.236,11.813,523.586,14.871,523.586,23.338Zm-6.895,37.227V26.691c0-7.1-1.77-8.178-3.84-8.178-2.167,0-2.658,2.171-2.658,5.611V58.005c0,7.089,1.872,8.178,3.841,8.178C516.2,66.183,516.691,64.013,516.691,60.565Z"/>
        <path class="cls-1" d="M482.327,13.883l-2.362,14.972.984.194c2.07-14.769,5.416-17.236,9.159-17.236,3.646,0,6.3,3.058,6.3,7.984V71.9h-6.894V23.633c0-3.541-.491-5.12-2.362-5.12-2.759,0-4.828,6.793-4.828,15.953V71.9h-6.891V12.8h6.891Z"/>
        <path class="cls-1" d="M461.654,50.425V12.8h6.894V71.9h-6.793V70.813l2.163-14.971-.984-.2c-2.066,14.777-4.529,17.236-7.879,17.236q-4.43,0-4.432-9.75A102.471,102.471,0,0,1,452.592,45.2h7.486c-5.614,11.82-7.681,16.054-7.681,17.828s.887,2.56,2.658,2.56C458.207,65.592,461.654,60.371,461.654,50.425Z"/>
        <path class="cls-1" d="M421.386,66.183c2.954,0,3.545-2.17,3.545-5.711V26.691c0-7.1-2.066-8.178-4.334-8.178s-3.249,3.743-3.448,10.046l-.292,11.618h-1.381l-.3-11.914c-.194-9.353,2.662-16.45,8.568-16.45,5.319,0,8.077,3.058,8.077,11.525V59.484c0,9.75-4.63,13.392-10.046,13.392-5.12,0-7.583-3.051-7.583-9.253a102.608,102.608,0,0,1,1.969-17.929h7.486c-5.91,11.525-7.583,15.268-7.583,17.828C416.068,65.39,417.643,66.183,421.386,66.183Z"/>
        <path class="cls-1" d="M407.8,23.338V59.585c0,9.649-4.926,13.291-10.735,13.291-6.3,0-9.552-3.051-9.552-11.517V25.112c0-9.65,4.922-13.3,10.735-13.3C404.453,11.813,407.8,14.871,407.8,23.338Zm-6.895,37.227V26.691c0-7.1-1.77-8.178-3.84-8.178-2.167,0-2.658,2.171-2.658,5.611V58.005c0,7.089,1.868,8.178,3.841,8.178C400.418,66.183,400.908,64.013,400.908,60.565Z"/>
        <path class="cls-1" d="M362.015,55.445c-2.07,14.972-5.121,17.431-8.669,17.431-3.346,0-5.809-3.051-5.809-7.976V12.8h6.894V61.063c0,3.541.393,5.12,1.872,5.12,2.264,0,4.334-7,4.334-15.959V12.8h6.895V61.063c0,3.541.393,5.12,1.867,5.12,2.269,0,4.335-7,4.335-15.959V12.8h6.894V71.9h-6.894V70.813L376.1,55.842l-.984-.2c-2.07,14.777-5.124,17.236-8.669,17.236-3.151,0-5.513-2.654-4.825-7.58L363,55.64Z"/>
        <path class="cls-1" d="M328.84,11.813c2.459,0,4.626,1.284,6.793,3.253l.592-.592-2.463-2.56V0h6.895V71.9h-6.8V70.813l2.268-14.971-.984-.2c-2.07,14.777-5.42,17.236-9.159,17.236-3.646,0-6.3-3.051-6.3-7.976V28.559C319.681,16.739,322.537,11.813,328.84,11.813Zm-2.07,49.25c0,3.541.887,5.12,2.56,5.12,2.167,0,4.432-6.7,4.432-15.758V20.092a5.882,5.882,0,0,0-4.233-1.976c-1.872,0-2.759,1.385-2.759,9.852Z"/>
        <path class="cls-1" d="M298.709,13.883l-2.362,14.972.984.194c2.07-14.769,5.416-17.236,9.159-17.236,3.646,0,6.3,3.058,6.3,7.984V71.9H305.9V23.633c0-3.541-.49-5.12-2.362-5.12-2.759,0-4.828,6.793-4.828,15.953V71.9h-6.895V12.8h6.895Z"/>
        <path class="cls-1" d="M276.46,26.691c0-7.1-1.77-8.178-3.447-8.178-2.362,0-3.152,2.459-3.347,9.058l-.3,12.606H267.99l-.3-12.9c-.195-8.762,2.463-15.462,8.077-15.462,5.023,0,7.584,3.058,7.584,11.525V66.869h4.529V71.9h-4.529v9.751c-2.265.49-5.222,1.673-6.794,4.038l-1.085-.3,2.069-12.708-.494-.786h-9.159V66.869h8.568Z"/>
        <path class="cls-1" d="M243.574,45.5h11.817V26.691c0-7.1-2.561-8.178-5.319-8.178-2.953,0-4.234,3.743-4.432,10.046l-.3,11.525h-1.377l-.3-11.821c-.2-9.353,2.954-16.45,9.552-16.45,6.008,0,9.062,3.058,9.062,11.525V59.484c0,9.75-4.529,13.392-10.439,13.392-5.416,0-8.272-3.051-8.272-11.618Zm8.961,20.683c2.365,0,2.856-2.17,2.856-5.711V46.877H249.48V58.005C249.48,65.195,250.566,66.183,252.535,66.183Z"/>
        <path class="cls-1" d="M229.792,50.425V12.8h6.9V71.9h-6.794V70.813l2.164-14.971-.985-.2c-2.066,14.777-4.529,17.236-7.879,17.236q-4.429,0-4.432-9.75A102.471,102.471,0,0,1,220.73,45.2h7.486c-5.614,11.82-7.68,16.054-7.68,17.828s.887,2.56,2.657,2.56C226.345,65.592,229.792,60.371,229.792,50.425Z"/>
        <path class="cls-1" d="M193.069,12.8h6.9V84.7h-6.9Z"/>
        <path class="cls-1" d="M186.182,23.338V59.585c0,9.649-4.926,13.291-10.735,13.291-6.3,0-9.552-3.051-9.552-11.517V25.112c0-9.65,4.922-13.3,10.735-13.3C182.832,11.813,186.182,14.871,186.182,23.338Zm-6.895,37.227V26.691c0-7.1-1.77-8.178-3.84-8.178-2.167,0-2.658,2.171-2.658,5.611V58.005c0,7.089,1.868,8.178,3.841,8.178C178.8,66.183,179.287,64.013,179.287,60.565Z"/>
        <path class="cls-1" d="M152.214,51.111l-2.167-19.7h-1.086L146.3,71.9h-8.078L149.553,12.8h2.069L162.949,71.9h-7.486Z"/>
        <path class="cls-1" d="M116.569,45.5h11.817V26.691c0-7.1-2.56-8.178-5.319-8.178-2.953,0-4.233,3.743-4.432,10.046l-.3,11.525h-1.378l-.3-11.821c-.2-9.353,2.953-16.45,9.552-16.45,6.007,0,9.061,3.058,9.061,11.525V59.484c0,9.75-4.529,13.392-10.439,13.392-5.416,0-8.272-3.051-8.272-11.618Zm8.961,20.683c2.365,0,2.856-2.17,2.856-5.711V46.877h-5.91V58.005C122.476,65.195,123.561,66.183,125.53,66.183Z"/>
        <path class="cls-1" d="M102.3,11.813c5.809,0,8.568,3.058,8.568,9.159a101.359,101.359,0,0,1-1.086,14.972H102.69c5.023-9.65,6.3-12.8,6.3-14.871,0-1.774-1.871-2.56-6.7-2.56-3.253,0-4.039,1.969-4.039,4.529,0,9.75,13.1,26.987,13.1,37.624,0,8.763-5.023,12.21-10.93,12.21-5.124,0-7.583-2.95-7.583-9.058A79.907,79.907,0,0,1,93.924,50.13h6.5c-4.431,8.762-5.711,11.618-5.711,13.587,0,1.774,1.575,2.466,5.711,2.466,3.249,0,4.039-1.774,4.039-4.334,0-8.373-13.1-29.352-13.1-37.92C91.364,15.462,96.387,11.813,102.3,11.813Z"/>
        <path class="cls-1" d="M65.08,50.13l-2.164-19.7H61.831L59.173,71.9H51.1L64.885,0h8.471L63.212,20.878h2.856L75.818,71.9H68.333Z"/>
        <path class="cls-1" d="M48.15,23.338V59.585c0,9.649-4.926,13.291-10.735,13.291-6.3,0-9.552-3.051-9.552-11.517V25.112c0-9.65,4.922-13.3,10.735-13.3C44.8,11.813,48.15,14.871,48.15,23.338ZM41.256,60.565V26.691c0-7.1-1.771-8.178-3.841-8.178-2.167,0-2.657,2.171-2.657,5.611V58.005c0,7.089,1.871,8.178,3.84,8.178C40.765,66.183,41.256,64.013,41.256,60.565Z"/>
        <path class="cls-1" d="M6.891,13.883,4.529,28.855l.984.194c2.07-14.769,5.417-17.236,9.16-17.236,3.645,0,6.3,3.058,6.3,7.984V71.9H14.081V23.633c0-3.541-.49-5.12-2.362-5.12-2.758,0-4.828,6.793-4.828,15.953V71.9H0V12.8H6.891Z"/>
      </g>
    </g>
  </g>
</svg>
