<svg xmlns="http://www.w3.org/2000/svg" width="262.072" height="296.141" viewBox="0 0 262.072 296.141">
  <defs>
    <style>
      .cls-1 {
        fill: #f60;
      }
    </style>
  </defs>
  <title>Fichier 11</title>
  <g id="Calque_2" data-name="Calque 2">
    <g id="Calque_1-2" data-name="Calque 1">
      <g>
        <path class="cls-1" d="M33.309,296.141,0,258.764,33.309,220.99l32.912,37.774ZM5.276,18.689,31.275,0l25.6,18.689L38.188,196.215H24.378Z"/>
        <path class="cls-1" d="M142.63,3.275c55.652,0,119.442,7.31,119.442,62.946,0,52.824-70.686,72.307-96.288,86.133l-4.466,43.861h-9.344l-6.9-49.55c35.74-13,58.084-43.464,58.084-71.513,0-44.688-14.62-56.86-30.067-56.86-29.654,0-42.653,23.981-51.171,54.015l-3.258.43L109.321,3.275Zm14.636,292.866-32.912-37.377,32.912-37.774,32.9,37.774Z"/>
      </g>
    </g>
  </g>
</svg>
