<svg xmlns="http://www.w3.org/2000/svg" width="414.761" height="563.596" viewBox="0 0 414.761 563.596">
  <defs>
    <style>
      .cls-1 {
        fill: blue;
      }
    </style>
  </defs>
  <title>Fichier 9</title>
  <g id="Calque_2" data-name="Calque 2">
    <g id="Calque_1-2" data-name="Calque 1">
      <path class="cls-1" d="M.717,563.6s-2.385-26.91,1.546-30.068c75.22-62.554,123.5-106.094,171.773-150.407C279.356,284.956,326.86,224.014,326.86,134.55c0-74.381-38.8-127.428-124.334-127.428-121.112,0-167,56.205-167,250.924,0,7.123-7.154,7.123-7.154,0,0-89.431-15.792-182.053-15.792-201.841,0-7.122.774-16.63,8.7-17.435C83.026,20.561,138.457,0,215.223,0,325.248,0,392.539,49.083,392.539,132.971c0,77.572-98.165,153.564-213.733,255.694-41.96,37.19-85.467,77.571-130.586,122.69,56.978,0,178.863,0,239.838-1.579,62.521-.806,99.712-26.137,110.025-97.36l7.928-53.82c.773-4.769,9.474-4.769,8.7.774L406.784,414C397.309,482.06,387,553.315,382.227,559.632c-1.547,1.611-9.475,3.19-34.806,3.19-20.561,0-171.773-1.579-208.964-1.579C86.184,561.243,10.191,563.6.717,563.6Z"/>
    </g>
  </g>
</svg>
