<svg xmlns="http://www.w3.org/2000/svg" width="432.1" height="56.231" viewBox="0 0 432.1 56.231">
  <defs>
    <style>
      .cls-1 {
        fill: #656de7;
      }
    </style>
  </defs>
  <title>Fichier 14</title>
  <g id="Calque_2" data-name="Calque 2">
    <g id="Calque_1-2" data-name="Calque 1">
      <g>
        <path class="cls-1" d="M5.556,3.428H32.3V5.143H24V35.728c0,15.431-6.033,20.5-13.784,20.5-4.115,0-6.857-2.261-8.5-6.239v4.869H0V35.454H1.714v3.565c0,9.4,2.608,15.361,7.407,15.361,4.663,0,6.1-4.319,6.1-18.582V5.143H5.556Z"/>
        <path class="cls-1" d="M83.754,30.792H51.521c.14,16.8,3.362,23.452,13.443,23.452,10.559,0,16.939-5.967,16.939-18.723h1.851c0,13.443-6.927,20.71-18.79,20.71-15.7,0-23.041-9.325-23.041-26.606,0-17.762,6.857-27.567,20.64-27.567C76.964,2.058,83.891,12.276,83.754,30.792ZM51.521,28.938H74.153c-.07-18.1-3.019-25.029-11.52-25.029C54.472,3.909,51.591,10.766,51.521,28.938Z"/>
        <path class="cls-1" d="M120.61,54.861H94.754V53.146h7.27V20.367c0-13.167,4.182-18.309,13.783-18.309,4.6,0,7.064,3.428,7.064,8.777,0,13.1-11.592,18.927-12.067,38.883v3.428h9.94ZM110.8,38.952c3.429-13.716,10.213-18.312,10.213-28.117,0-4.732-2.194-6.926-5.277-6.926-4.048,0-4.936,3.221-4.936,16.458Z"/>
        <path class="cls-1" d="M158.691,54.861H132.838V53.146h7.27V20.367c0-13.167,4.182-18.309,13.781-18.309,4.595,0,7.063,3.428,7.063,8.777,0,13.1-11.592,18.927-12.066,38.883v3.428h9.939Zm-9.805-15.909C152.314,25.236,159.1,20.64,159.1,10.835c0-4.732-2.194-6.926-5.276-6.926-4.048,0-4.936,3.221-4.936,16.458Z"/>
        <path class="cls-1" d="M170.232,3.428h46.016V5.143h-6.516V37.992c0,12.273-5.829,18.239-18.516,18.239-11.312,0-17.555-3.908-17.555-12.96,0-10.561,9.258-12,17.215-16.391L176.47,5.143h-6.238ZM191.077,54.38c7.063,0,11.726-1.714,14.266-5.622L191.831,28.321c-8.091,4.048-16.316,5.693-16.316,14.95C175.515,51.089,181,54.38,191.077,54.38Zm16.8-49.237h-20.09l20.09,34.22V5.143Z"/>
        <path class="cls-1" d="M248.511,3.428H287.6V26.676h-1.714V16.732c0-9.188-2.267-11.453-12.139-11.453h-9.325V30.652h10.9V19.82h1.714V43.341h-1.714V32.506h-10.9v20.64H273.2v1.715H248.511V53.146h7.136v-48h-7.136Z"/>
        <path class="cls-1" d="M299.971,14.4h24v1.647h-7.611v37.1H323.9v1.715H299.971V53.146h7.617V16.115h-7.617Zm5.9-8.3a6.106,6.106,0,0,1,12.212,0,6.106,6.106,0,0,1-12.212,0Z"/>
        <path class="cls-1" d="M367.954,3.428V20.093H366.24V19.27c0-10.012-5.83-15.361-11.933-15.361-4.936,0-7.337,2.468-7.337,9.121,0,6.446,2.675,8.641,11.586,12.206,10.018,3.978,13.854,9.8,13.854,17.282,0,9.188-8.845,13.713-19.4,13.713-10.218,0-15.981-4.869-15.981-15.017V36.825h1.715v4.252c0,9.325,5.215,13.3,14.06,13.3,7.951,0,10.765-3.221,10.765-8.571,0-7-2.881-10.218-10.9-13.646-10.079-4.253-13.92-8.5-13.92-16.322,0-9.051,7.683-13.783,14.54-13.783a13.569,13.569,0,0,1,12.96,8.571v-7.2Z"/>
        <path class="cls-1" d="M392.6,25.166c0-15.565,5.69-23.108,18.515-23.108,9.325,0,14.809,4.252,14.809,11.8,0,9.738-9.939,12.07-18.17,15.222.754-.067,1.374-.137,1.988-.137,9.258,0,15.154,5.145,15.154,17.008v7.2h7.2v1.715H385.47V53.146H392.6Zm8.777,8.231a8.326,8.326,0,0,1,5.277-5.623c7.616-3.088,17.421-5.35,17.421-13.921,0-7.2-5.622-9.944-12.826-9.944-8.09,0-9.872,5.279-9.872,21.257ZM416.12,53.146v-8.23c0-11.452-1.441-14.264-7.544-14.264-5,0-7.2,2.881-7.2,11.866V53.146Z"/>
      </g>
    </g>
  </g>
</svg>
