<?xml version="1.0" encoding="utf-8"?>
<!-- Generator: Adobe Illustrator 21.1.0, SVG Export Plug-In . SVG Version: 6.00 Build 0)  -->
<svg version="1.1" id="Calque_1" xmlns="http://www.w3.org/2000/svg" xmlns:xlink="http://www.w3.org/1999/xlink" x="0px" y="0px"
	 viewBox="0 0 841.9 595.3" style="enable-background:new 0 0 841.9 595.3;" xml:space="preserve">
<style type="text/css">
	.st0{fill:#FC0000;}
</style>
<title>Plan de travail 1</title>
<path class="st0" d="M46.7,264.2c0.2,3.3,1,6.4,2.2,9.5c2.2,5.2,5.5,9.9,9.7,13.7c3.4,3.1,7.2,5.9,11.1,8.2
	c7,4.1,14.5,7.5,22.2,10.1c7.4,2.6,14.7,4.7,22,6.6c14.6,3.8,29.1,6.4,43.6,8.9c14.5,2.4,29,4.3,43.4,6.1s28.9,3.3,43.2,4.8
	c14.4,1.5,28.7,3.1,42.7,4.9c7,0.9,14,2,20.5,3.4c2.2,0.5,4.4,1,6.3,1.6c-2.1,1.4-4.3,2.7-6.6,3.8c-6.3,3-12.7,5.6-19.2,7.9
	c-13.4,4.9-27.3,9.5-41.1,15.3c-7.1,2.9-13.8,6.5-20.3,10.6c-3.4,2.2-6.6,4.8-9.4,7.8c-3.2,3.3-5.5,7.2-6.8,11.6
	c-0.6,2.3-0.9,4.7-0.7,7.1c0.1,2.4,0.7,4.8,1.6,7c1.9,4,4.7,7.5,8.2,10.2c3.1,2.4,6.5,4.5,10.1,6.2c3.4,1.6,6.9,3,10.5,4.2
	c7,2.3,14.2,4.2,21.4,5.6c7.2,1.5,14.4,2.6,21.6,3.6c14.5,1.9,28.9,3.1,43.4,3.9c14.5,0.8,29,1.2,43.5,1.2c14.5,0,29-0.2,43.5-1
	c14.5-1,28.9-2.3,43.3-3.7c14.4-1.4,28.8-2.9,43.2-4.6c28.8-3.5,57.5-7.3,86.1-13.8c7.1-1.6,14.3-3.5,21.3-5.8
	c7.1-2.3,14.2-5,21.1-9.5c1.8-1.2,3.5-2.5,5.1-4c1.8-1.8,3.3-3.9,4.4-6.2c1.1-2.6,1.5-5.5,1.3-8.3c-0.2-2.7-0.9-5.3-2.2-7.6
	c-1.3-2.4-3-4.4-5.1-6.1c-1.8-1.5-3.9-2.7-6-3.7c-3.8-1.7-7.8-3-12-3.8c-7.5-1.4-15-2.3-22.5-2.7l-21.6-1.5
	c-7.1-0.5-14.1-1.2-20.7-2.3c-6.4-1-12.6-2.7-18.6-5.1c-5.5-2.3-9.7-5.5-12-9.2c-0.1-0.1-0.2-0.3-0.2-0.4l0.5-0.2
	c2.5-1.1,5.1-2,7.7-2.6c3-0.8,6.2-1.4,9.5-1.9c6.6-1.1,13.5-1.8,20.4-2.4c13.9-1.1,28.2-1.6,42.5-1.9s28.7-0.5,43.1-0.6
	c14.4-0.1,28.9-0.2,43.5-0.5s29.2-0.7,44.2-1.7c7.8-0.5,15.6-1.4,23.3-2.8c2.1-0.4,4.2-0.8,6.5-1.4c1.2-0.4,2.3-0.6,3.7-1.1l2-0.7
	l2.2-1l1.1-0.5l1.4-0.8l1.4-0.8c0.5-0.3,1.1-0.7,1.5-1.1c0.6-0.5,1.1-0.9,1.7-1.4c0.6-0.6,1.2-1.2,1.8-1.9c0.7-0.8,1.3-1.7,1.8-2.5
	c0.4-0.6,0.8-1.3,1.1-2l0.7-1.6c0.2-0.6,0.5-1.2,0.7-1.8c0.4-1.3,0.7-2.7,0.9-4c0.4-3,0.3-6.1-0.5-9c-1.2-4.7-3.8-9-7.3-12.3
	c-2.2-2.2-4.7-4.1-7.4-5.7c-4.1-2.4-8.4-4.4-12.8-5.9c-7.6-2.6-15.4-4.8-23.2-6.3c-12.3-2.5-24.4-4.2-36.4-5.4
	c7.7-2.9,15.5-6.1,23.1-9.5c13.8-6.2,27.5-12.9,40.9-22.4c6.6-4.8,13.3-10.3,19.2-18.1c3.2-4.2,5.7-9,7.4-14
	c0.9-2.8,1.5-5.7,1.8-8.7c0.1-0.8,0.1-1.5,0.1-2.3v-1.1c0-0.2,0-1.3-0.1-1.9c-0.1-1.4-0.3-2.7-0.7-4c-0.3-1.2-0.7-2.4-1.2-3.6
	c-1.6-3.6-3.9-6.7-6.7-9.4c-2-1.9-4.2-3.5-6.5-5c-3.8-2.4-7.8-4.4-12-6.1c-7.3-3-14.8-5.5-22.5-7.4c-14.7-3.9-29.3-6.7-43.9-9.2
	c-14.6-2.4-29.1-4.4-43.6-6.1c-29.1-3.3-58.1-5.9-87.2-7.5c-14.5-0.8-29.1-1.5-43.6-2.1c-14.5-0.5-29.1-0.9-43.6-1.1
	c-29.1-0.5-58.1-0.5-87.2,0c-58.1,1.2-116.1,3.7-174,11.1c-14.6,1.9-29,4.6-43.3,8.1c-7.3,1.8-14.5,4.2-21.4,7.3
	c-3.7,1.6-7.2,3.8-10.3,6.5c-1.8,1.5-3.3,3.4-4.4,5.5c-0.6,1.2-1.1,2.4-1.4,3.8c-0.2,0.7-0.2,1.3-0.3,2c0,0.3-0.1,0.7,0,1v0.8
	c0.1,4.2,1,8.4,2.8,12.3c1.7,3.8,4.1,7.3,7,10.3c5.6,5.9,12.4,9.9,19.2,13.3c13.7,6.5,28.1,10.3,42.3,13.5
	c28.6,6.4,57.6,9.8,85.3,16c6.7,1.4,13.3,3.4,19.7,5.9c2.6,1,5,2.4,7.2,4.2c0.1,0.1,0.2,0.2,0.3,0.3c-0.5,0.2-1,0.3-1.4,0.4
	c-0.7,0.2-1.4,0.3-2,0.4c-3.2,0.4-6.4,0.6-9.6,0.5c-6.8-0.1-13.8-0.6-20.8-1.4c-14.1-1.5-28.3-3.6-42.6-5.8l-42.9-6.6
	c-14.4-2.2-28.8-4.1-43.4-5.7c-14.6-1.6-29.4-2.9-44.6-2.9c-7.9-0.1-15.7,0.4-23.5,1.4c-4.3,0.6-8.5,1.5-12.6,2.7
	c-4.9,1.4-9.6,3.5-13.8,6.4c-1.2,0.8-2.4,1.9-3.6,2.9c-1.2,1.2-2.3,2.4-3.3,3.7c-1,1.4-2,2.9-2.8,4.5c-0.8,1.6-1.5,3.3-1.9,5
	c-0.2,0.9-0.4,1.7-0.6,2.6c-0.1,0.8-0.3,1.7-0.3,2.5c-0.1,0.8-0.1,1.7-0.2,2.5S46.6,263.4,46.7,264.2z M317.1,339.2
	C317.3,338.7,317.5,338.7,317.1,339.2z M517.4,346.4c0.1,0.1,0.1,0.2,0.2,0.3c0,0,0,0.1,0,0.2l-0.2-0.4L517.4,346.4
	C517.4,346.4,517.4,346.4,517.4,346.4L517.4,346.4z M753.3,299.9L753.3,299.9z M757,193.5C757.2,193.7,757.2,193.8,757,193.5z
	 M317.4,249.7C317.3,249.7,317.4,249.7,317.4,249.7C317.4,249.8,317.4,249.8,317.4,249.7c0,0,0-0.1,0-0.2
	C317.4,249.5,317.4,249.6,317.4,249.7L317.4,249.7z M74.5,261.3c0.1-0.1,0.2-0.2,0.3-0.3c0.2-0.1,0.3-0.4,0.6-0.6
	c1.8-1.2,3.7-2.1,5.8-2.7c2.8-0.9,5.7-1.5,8.6-2c6.5-1.1,13.1-1.7,19.8-1.8c13.7-0.4,27.9,0.1,42.1,1c14.2,0.9,28.5,2.3,42.8,3.6
	c28.7,2.6,57.5,6.1,86.9,7.6c7.4,0.3,14.8,0.5,22.5,0.2c4-0.2,8-0.6,12-1.4c1.1-0.2,2.2-0.5,3.2-0.8c1.2-0.3,2.3-0.7,3.5-1.2
	c0.7-0.3,1.3-0.6,1.9-0.9c0.7-0.3,1.4-0.8,2-1.2c0.7-0.5,1.4-1.1,2-1.7c0.7-0.8,1.4-1.6,1.9-2.5c0.5-1,1-2.1,1.3-3.2
	c0.2-1.1,0.4-2.2,0.4-3.3c0-0.9-0.1-1.8-0.2-2.6c-0.2-0.9-0.4-1.7-0.7-2.5c-1.1-2.9-2.9-5.4-5.3-7.3c-3.5-2.8-7.5-4.9-11.7-6.3
	c-7.2-2.5-14.6-4.3-22.2-5.5c-14.6-2.6-28.9-4.4-43.3-6.3c-14.3-1.9-28.5-4-42.5-6.9c-14-2.9-27.9-6.4-40.4-12.3
	c-6.2-3-12-6.5-16.4-11.1c-4.4-4.3-6.9-10.2-7.1-16.3c-0.7-3.7,5-7.9,11-10.6c6.4-2.8,13-4.9,19.7-6.5c13.7-3.4,27.9-5.4,42.2-7
	s28.6-2.7,43-3.6c14.4-0.9,28.8-1.2,43.2-1.5c28.8-0.6,57.7-0.1,86.5,0.7c28.8,0.8,57.6,2.3,86.4,4.2c14.4,1,28.7,2,43.1,3.2
	c14.4,1.2,28.7,2.4,43,3.7c28.6,2.9,57.2,5.9,85.5,10c14.1,2.1,28.2,4.3,42.2,6.9c13.9,2.6,27.7,5.6,40.9,9.4
	c6.3,1.8,12.5,4,18.6,6.5c2.5,1.1,5,2.4,7.3,3.9c0.2,0.1,0.4,0.3,0.6,0.4c0,0.1,0,0.1-0.1,0.2c-0.7,1.8-1.7,3.5-2.9,5
	c-2.9,3.7-7.5,7.6-12.6,11.2c-10.3,7.1-22.8,13.1-35.5,18.5c-12.7,5.4-26,10.2-39.5,14.7c-13.5,4.5-27.1,8.6-41.3,13.4
	c-3.6,1.2-7.1,2.4-11.4,4.2c-1.1,0.5-2.3,1-3.8,1.8c-1,0.5-2,1.2-2.9,1.8c-0.9,0.7-1.8,1.4-2.6,2.2c-2.1,2.1-3.7,4.6-4.6,7.5
	c-2.4,4.9,0.8,15.2,4,17.2c1.7,1.8,3.7,3.2,6,4.2c1.5,0.7,3.1,1.2,4.7,1.5c1.5,0.3,3.1,0.5,4.7,0.6c4.8,0.4,8.7,0.3,12.1,0.3
	l10.6,0.2c14.1,0.4,28.2,1.1,42.2,2.3c13.7,1.2,27.3,2.9,40.3,5.4c-12.5,1-25.4,1.6-38.2,2.1l-43.3,1.7c-29,1.3-58.1,2.6-87.7,6.5
	c-7.4,1-14.9,2.3-22.5,4c-3.8,0.9-7.6,1.8-11.6,3.2c-4.3,1.4-8.5,3.2-12.4,5.4c-1.2,0.7-2.3,1.4-3.4,2.2c-0.6,0.5-1.1,0.9-1.7,1.4
	c-0.6,0.5-1.2,1.1-1.8,1.7c-0.6,0.6-1.2,1.3-1.8,2c-0.6,0.8-1.2,1.6-1.6,2.4c-0.5,1-1,2-1.4,2.9c-0.4,1.1-0.7,2.2-0.9,3.3
	c-0.2,1.1-0.3,2.3-0.3,3.4c0,1.1,0.1,2.2,0.3,3.2c0.2,1,0.4,2,0.7,3c0.3,0.9,0.6,1.6,1,2.4l0.5,1.2l0.5,0.8l0.9,1.6
	c0.7,1,1.4,2.1,2.1,3.1c3,3.9,6.6,7.2,10.7,9.8c3.8,2.4,7.8,4.4,12,5.8c7.7,2.5,15.6,4.1,23.6,4.7c7.7,0.7,15.2,0.8,22.5,0.8
	l21.7-0.2c6.9-0.1,13.8,0.2,20.7,0.9c3.1,0.3,6.1,1,9,2c2.6,1,4.4,2.2,5.3,3.6c1,1.5,1.3,3.3,1,5c-0.4,1-1,1.9-1.7,2.7
	c-1,1.1-2.1,2-3.2,2.9c-5,3.8-11.4,6.8-17.9,9.4c-6.5,2.6-13.3,4.8-20.2,6.8c-13.7,4-27.8,7.2-41.9,10c-14.1,2.8-28.4,5.2-42.7,7.4
	c-28.6,4.3-57.3,7.5-86.1,9.8c-28.9,1.5-57.8,1-86.6-1.3c-14.4-1.2-28.7-2.8-42.8-5.4c-14.1-2.5-28.2-5.7-41.2-11
	c-6.4-2.6-12.7-5.8-17.4-10c-2.2-1.8-3.9-4.2-4.9-6.8c-0.4-1.1-0.6-2.4-0.6-3.6c0-1.2,0.3-2.5,0.6-3.6c1.7-4.7,6.7-8.8,12.4-12.1
	c6-3.3,12.3-6,18.8-8.1c13.3-4.6,27.2-8,41.3-12.1c7.3-2,14.5-4.4,21.5-7.1c3.9-1.5,7.7-3.4,11.3-5.7c2.2-1.4,4.2-3.1,6-5
	c2.5-2.7,4.2-6,4.9-9.6c0.1-0.5,0.2-1,0.2-1.5c0.1-0.6,0.1-1.2,0.1-1.7c0-1.8-0.4-3.5-1.1-5.2c-1-2.2-2.5-4.2-4.4-5.8
	c-1.2-1-2.5-1.9-3.8-2.7c-1.2-0.7-2.2-1.2-3.3-1.7c-3.8-1.7-7.7-3.1-11.8-4.2c-7.5-2.2-14.8-3.7-22-5.2c-14.5-2.9-28.9-5.1-43.2-7.4
	l-42.8-6.5c-14.2-2.1-28.3-4.5-42.4-7c-14-2.5-27.9-5.4-41.3-8.8c-6.7-1.7-13.3-3.7-19.6-5.9c-6-2-11.8-4.6-17.3-7.7
	c-2.3-1.3-4.4-2.8-6.4-4.5c-1.2-1-2.2-2.3-2.9-3.7c-0.1-0.3-0.2-0.7-0.3-1c0-0.1,0-0.2,0-0.3c0-0.1,0-0.1,0-0.2c0,0-0.1-0.2,0-0.2
	s0,0,0,0S74.5,261.4,74.5,261.3z"/>
</svg>
