<?xml version="1.0" encoding="utf-8"?>
<!-- Generator: Adobe Illustrator 21.1.0, SVG Export Plug-In . SVG Version: 6.00 Build 0)  -->
<svg version="1.1" id="Calque_1" xmlns="http://www.w3.org/2000/svg" xmlns:xlink="http://www.w3.org/1999/xlink" x="0px" y="0px"
	 viewBox="0 0 841.9 595.3" style="enable-background:new 0 0 841.9 595.3;" xml:space="preserve">
<style type="text/css">
	.st0{fill:#FC0000;}
</style>
<title>Plan de travail 2</title>
<path class="st0" d="M381.3,485.9c-14.3-0.2-28.5-2.5-42.2-6.6c-6.9-2-13.6-4.7-20-8c-3.2-1.7-6.3-3.8-9.1-6.1
	c-2.9-2.4-5.3-5.4-7-8.8c-0.8-1.8-1.3-3.8-1.4-5.8c-0.1-1-0.1-2,0-2.9c0.1-1,0.2-1.9,0.4-2.9c0.8-3.7,2.4-7.3,4.6-10.4
	c4.4-6.2,10.3-10.8,16.6-14.5c6.3-3.6,13.1-6.5,20.2-8.4c7.1-2,14.3-3.1,21.7-3.3c0.8,0,1.6-0.1,2.4-0.2c0.6-0.1,1.3-0.2,1.9-0.4
	l0.2-0.1c-0.1,0,0,0-0.2,0.1c-0.3,0.2-0.5,0.6-0.6,0.9c-0.2,0.5-0.3,1.1-0.1,1.6c0,0.2,0.1,0.4,0.2,0.5c0.1,0.1,0,0,0,0
	c-0.1-0.1-0.2-0.1-0.2-0.2l-0.3-0.2c-1.3-0.8-2.6-1.5-4-2.1c-1.5-0.6-3.1-1.2-4.7-1.8c-6.6-2.2-13.2-3.9-20-5.3
	c-13.7-2.7-27.5-4.6-41.4-5.6c-13.9-1.1-27.9-1.5-41.8-1.3l-10.5,0.2c-3.7,0-7.4,0.1-11.1-0.1c-3.7-0.2-7.4-0.5-11.2-0.8
	c-3.7-0.5-7.5-1-11.2-1.8c-7.7-1.5-15.2-4.1-22.3-7.7c-0.9-0.5-1.8-0.9-2.7-1.5l-2.6-1.7c-1.8-1.2-3.5-2.4-5.2-3.8
	c-0.8-0.7-1.6-1.5-2.4-2.3l-1.2-1.2c-0.4-0.4-0.8-0.9-1.1-1.3c-0.7-0.9-1.5-1.8-2.2-2.7c-0.7-0.9-1.3-2-2-3
	c-2.6-4.4-4.2-9.3-4.7-14.4c-0.4-5.3,0.6-10.7,3-15.5c2.3-4.5,5.4-8.4,9.3-11.6l2.8-2.2c1-0.7,1.9-1.2,2.9-1.9l1.5-0.9l1.5-0.8
	l3-1.5c7.8-3.2,16.1-4.9,24.4-5.2l3-0.1l2.5-0.1c1.6,0,3.3-0.1,4.9-0.2c3.2-0.2,6.3-0.6,9.5-1.1c1.4-0.2,2.8-0.5,4.1-0.9
	c1.1-0.3,2.1-0.6,3.1-1.1c0.2-0.1,0.4-0.2,0.6-0.4c0.1,0-0.1,0-0.5,0.5c-0.7,0.8-1.2,1.8-1.4,2.9c-0.3,1.2-0.2,2.5,0.2,3.7
	c0.1,0.4,0.3,0.8,0.5,1.1c0,0.1-0.1-0.1-0.3-0.3c-0.8-0.6-1.6-1.1-2.4-1.6c-2.4-1.3-5-2.3-7.6-3.1c-5.9-1.8-12-3-18.2-3.5
	c-3.2-0.3-6.3-0.5-9.5-0.5c-1.5,0-3.6,0-5.3,0l-5.5-0.1c-14.6-0.5-29.1-1.7-43.5-3.7c-14.5-2.1-29-4.9-43.6-10
	c-7.7-2.6-15-6.2-21.7-10.6c-3.8-2.5-7.2-5.5-10.2-8.9c-3.4-3.8-6-8.3-7.5-13.2c-0.8-2.5-1.3-5.2-1.5-7.8c-0.1-1.3-0.1-2.7,0-4
	c0-0.7,0-1.3,0.2-2.1c0.2-0.7,0.2-1.4,0.4-2.1c1.2-6.2,4.7-11.8,9.9-15.5c4.2-2.9,9-4.8,14-5.7c4.1-0.8,8.3-1.2,12.4-1.2
	c7.6,0,15.1,0.5,22.6,1.6c7.3,1,14.4,2.2,21.5,3.6c28.2,5.6,55.5,12.6,83,18.2c13.7,2.8,27.5,5.3,41.3,6.9
	c6.9,0.8,13.8,1.4,20.7,1.7c6.8,0.3,13.7,0.2,20.5-0.2c3.1-0.2,6.2-0.7,9.1-1.6c0.5-0.2,1.1-0.4,1.6-0.6c0.2-0.1,0.3-0.2,0.5-0.3
	c0,0,0.1-0.1,0.1-0.1l0,0c0,0,0,0,0,0.1s0,0.1-0.1,0.2c0,0.1,0,0.1,0,0.2c0,0.1,0,0.1,0,0.2c0,0.2,0.1,0.1-0.1-0.3
	c-0.5-1.1-1.2-2.1-2-3c-1-1.2-2.1-2.4-3.3-3.4c-2.4-2.3-5-4.5-7.7-6.7c-5.4-4.4-11-8.8-16.5-13.4c-5.7-4.6-11-9.7-15.9-15.1
	c-2.6-2.9-4.8-6.1-6.7-9.5c-1-1.8-1.7-3.8-2.3-5.8c-0.3-1.1-0.5-2.1-0.6-3.2c-0.1-0.6-0.1-1.1-0.1-1.7v-0.8V189
	c0.1-3.8,0.6-7.6,1.5-11.4c0.9-3.7,2-7.2,3.4-10.7c5.7-13.8,15-25.7,26-35.4c5.5-4.9,11.4-9.2,17.7-13c6.2-3.8,12.7-7.1,19.5-9.9
	c13.5-5.5,27.6-9.2,42-11.1c14.3-2.1,28.9-2.3,43.1-2c14.3,0.3,28.6,1.3,42.8,3.1c14.3,1.7,28.5,4.2,42.4,7.5
	c14.2,3.3,28,7.7,41.5,13.3c6.8,2.8,13.5,6.1,19.9,9.9c6.6,3.8,12.8,8.3,18.5,13.4c6.1,5.4,11.2,12,14.8,19.3l1.3,2.9
	c0.4,1,0.7,2,1.1,3.1c0.4,1,0.7,2.1,1,3.1l0.7,3.2c0.1,0.5,0.2,1.1,0.3,1.6l0.2,1.6l0.2,3.3c0.1,1.1,0,2.2-0.1,3.3
	c-0.1,1.1,0,2.2-0.2,3.3c-1,8.6-4.1,16.9-9.1,24c-4.7,6.7-10.5,12.5-17,17.4c-6.1,4.7-12.7,8.8-19.6,12.2c-6.7,3.4-13.6,6.4-20.6,9
	c-7,2.5-14,4.8-21.1,6.8c-7.1,1.9-14.2,3.6-21.4,5c-14.3,2.9-28.7,4.9-43.2,6.1c-3.6,0.4-7.2,0.6-10.8,0.9
	c-3.6,0.3-7.2,0.4-10.9,0.6s-7.2,0.3-10.9,0.4l-10.6,0.2c-6.6,0.1-13.2,0.6-19.7,1.5c-3.1,0.4-6.2,1-9.2,1.7c-2.7,0.6-5.4,1.5-8,2.6
	c-1,0.5-2,1-3,1.6c-0.6,0.4-1.2,0.9-1.7,1.4c-0.3,0.3-0.3,0.5-0.2,0.2c0.1-0.3,0.2-0.5,0.2-0.8c0-0.2,0,0,0.2,0.5
	c0.4,0.7,0.8,1.3,1.3,1.8c1.5,1.8,3.3,3.3,5.3,4.6c4.8,3.1,10,5.6,15.5,7.2c5.7,1.7,11.6,2.7,17.5,3c11.8,0.5,23.9-2.1,36.5-6.4
	s25.4-9.8,38.8-15.1c6.7-2.7,13.4-5.3,20.3-7.7c6.8-2.5,13.8-4.8,20.9-6.9c14.2-4.2,28.6-7.5,43.1-9.9c14.6-2.3,29.3-3.7,44-4.2
	c14.9-0.6,29.8-0.1,44.6,1.6c15.1,1.8,30,5.2,44.3,10.3c1.8,0.6,3.6,1.4,5.4,2s3.6,1.4,5.3,2.2l5.3,2.4l5.2,2.6
	c6.9,3.6,13.5,7.8,19.8,12.3c6.3,4.7,12.3,9.9,17.7,15.5c5.5,5.7,10.5,12,14.8,18.7c2.2,3.4,4.2,7,6,10.6c1.9,3.9,3.5,7.9,4.7,12.1
	c0.7,2.5,1.3,5.2,1.5,7.8l0.1,1.3c0,0.5,0,0.9,0,1.4c-0.1,1.1-0.2,2.2-0.3,3.3c-0.2,1-0.5,2-0.7,2.9c-0.3,0.9-0.6,1.7-1,2.6
	c-0.2,0.4-0.3,0.8-0.5,1.2l-0.6,1.1c-0.4,0.7-0.8,1.4-1.2,2l-1.3,1.8c-0.2,0.3-0.4,0.6-0.7,0.9l-0.7,0.8c-0.8,1-1.7,1.9-2.7,2.8
	l-1.3,1.3c-0.5,0.4-0.9,0.8-1.3,1.1c-3.4,2.8-7,5.2-10.8,7.3c-1.8,1.1-3.6,1.9-5.4,2.8c-1.8,0.9-3.6,1.6-5.4,2.4
	c-7.1,2.9-14.3,5.3-21.7,7.2c-14.2,3.6-28.7,6.3-43.3,7.9c-14.4,1.7-28.8,2.8-43.1,3.3c-14.3,0.6-28.6,0.7-42.9,0.5
	c-28.5-0.5-57-2-85.3-4.6c-14.2-1.3-28.4-3.1-42.4-5.1l-10.5-1.5c-3.5-0.5-7-1-10.3-1.3c-1.5-0.1-3-0.2-4.5-0.1
	c-0.5,0-1,0.1-1.4,0.3c-0.2,0-0.3,0.1-0.5,0.2c-0.5,1-0.8,2-0.8,3.1c-0.2,1.5-0.2,3.3-0.2,5l-0.1,5.3l0,2.7c0,0.9,0,1.6,0,2.4
	c0,3,0.8,5.9,2.3,8.5c1.4,2.4,3.9,4.2,6.8,5.8c2.9,1.6,6.3,3,9.5,5.2c3.4,2.2,6.1,5.3,7.8,9c1.5,3.6,2.3,7.4,2.3,11.3
	c0,0.5,0,0.9,0,1.4l-0.1,1.4l-0.1,1.5l-0.3,1.4l-0.3,1.4l-0.5,1.4c-0.2,0.5-0.3,0.9-0.5,1.4l-0.6,1.3c-1.8,3.4-4.2,6.4-7.1,8.8
	c-5.7,4.9-12.3,8-19,10.6c-6.7,2.4-13.6,4.3-20.7,5.7C409.8,484.4,395.6,485.8,381.3,485.9z M381.3,483.1c7-0.1,14-0.5,21-1.3
	c7-0.7,13.9-1.9,20.8-3.3c6.8-1.5,13.5-3.5,20.1-5.9c6.4-2.6,12.7-5.7,17.6-10.3c2.4-2.2,4.4-4.8,5.9-7.7c1.3-2.9,1.9-6.1,1.7-9.3
	c0-3.2-0.7-6.4-2.1-9.3c-1.4-2.7-3.5-5-6.2-6.5c-2.7-1.7-5.9-2.9-9.3-4.6c-1.8-0.8-3.4-1.8-5-3c-3.4-2.5-5.9-6.1-7.1-10.1
	c-0.3-1-0.5-2-0.7-2.9c-0.1-1-0.3-2-0.4-2.9c-0.1-0.9-0.1-2-0.1-2.9l-0.1-2.6l-0.2-5.3c0-1.8-0.1-3.6,0-5.6c0.1-1.1,0.2-2.2,0.4-3.2
	c0.3-1.4,0.8-2.7,1.5-3.8c0.9-1.3,2.2-2.4,3.6-3.1c1.2-0.5,2.4-0.9,3.7-1.1c2-0.3,4-0.4,6-0.3c3.8,0.1,7.3,0.4,10.9,0.7l10.6,0.9
	c14,1.2,28,1.9,42.1,2.4c14,0.4,28.1,0.5,42.1,0.3s28.1-0.7,42.1-1.4c28-1.4,55.9-3.9,83.1-8.5c13.4-2.2,26.7-5.3,39.8-9.2
	c6.3-1.9,12.4-4.2,18.3-6.8c1.5-0.6,2.8-1.4,4.2-2s2.7-1.4,3.9-2.2c2.3-1.4,4.6-2.9,6.6-4.7c0.2-0.2,0.5-0.4,0.7-0.6l0.5-0.6
	c0.3-0.3,0.6-0.7,0.9-1l0.2-0.2c0-0.1,0.1-0.1,0.1-0.2c0.1-0.1,0.2-0.3,0.3-0.4c0.1-0.1,0.1-0.2,0.1-0.2l0.1-0.1l0,0c0,0,0,0,0,0.1
	c-0.1,0.1-0.1,0.2-0.1,0.4c-0.1,0.2-0.1,0.5-0.1,0.7c0,0.2,0,0,0,0.1l0,0c-0.2-0.9-0.4-1.7-0.7-2.6c-0.9-2.6-1.9-5.1-3.2-7.6
	c-1.4-2.7-2.9-5.2-4.6-7.7c-3.4-5.1-7.4-9.9-11.8-14.3c-4.5-4.5-9.3-8.6-14.5-12.2c-10.5-7.3-22-13.1-34.1-17.3
	c-12.4-4.2-25.2-7-38.2-8.4c-13.3-1.4-26.7-1.8-40.1-1.2c-13.5,0.5-27,1.8-40.4,3.9c-13.4,2.1-26.6,5-39.6,8.8
	c-6.5,1.9-13,3.9-19.5,6.2c-6.5,2.3-12.9,4.7-19.4,7.2c-13,5-26.2,10.5-40.5,15.1c-7.3,2.4-14.8,4.3-22.4,5.7
	c-8,1.4-16.2,1.9-24.3,1.4c-8.2-0.5-16.3-2.1-24.1-4.6c-8.1-2.5-15.7-6.3-22.6-11.1c-3.9-2.7-7.4-6-10.4-9.6c-1.8-2.2-3.3-4.5-4.5-7
	c-1.5-3-2.4-6.3-2.6-9.7c-0.3-3.8,0.3-7.7,1.8-11.2c1.3-3.2,3.3-6.1,5.8-8.5c2-2,4.2-3.7,6.6-5.1c2.1-1.2,4.2-2.3,6.4-3.2
	c4-1.6,8.1-2.9,12.2-3.8c3.9-0.9,7.8-1.5,11.7-2c7.5-0.9,15-1.3,22.6-1.3h10.6c3.4,0,6.9-0.1,10.3-0.1l10.3-0.4
	c3.4-0.2,6.9-0.3,10.3-0.6s6.9-0.5,10.3-0.8s6.8-0.7,10.2-1.1s6.8-0.9,10.2-1.3c3.4-0.4,6.8-1,10.1-1.6c13.4-2.3,26.6-5.5,39.5-9.6
	c6.3-2.1,12.5-4.6,18.5-7.4c5.9-2.7,11.5-5.9,16.7-9.6c5-3.4,9.4-7.6,13.1-12.4c3.4-4.4,5.6-9.5,6.5-15c0.1-0.7,0.1-1.3,0.2-2
	s0.2-1.4,0.1-2l-0.1-2v-1c0-0.3-0.1-0.7-0.2-1l-0.3-2c-0.1-0.7-0.3-1.3-0.5-2c-0.2-0.6-0.3-1.3-0.6-1.9l-0.8-1.9
	c-2.5-5.5-6-10.4-10.3-14.5c-4.7-4.5-9.8-8.6-15.3-12.1c-5.7-3.6-11.6-6.9-17.7-9.7c-12.5-5.8-25.4-10.5-38.7-14.2
	c-6.7-1.9-13.4-3.5-20.2-5.1c-6.8-1.5-13.6-2.8-20.5-3.8c-13.8-2.2-27.7-3.6-41.6-4.3c-14-0.6-27.9-0.8-41.6,1l-5.1,0.7l-5.1,0.9
	c-1.7,0.3-3.4,0.6-5.1,1c-1.7,0.4-3.4,0.7-5,1.1c-6.7,1.6-13.2,3.7-19.6,6.3c-12.8,5-24.6,12.1-34.9,21.1
	c-5.1,4.5-9.7,9.5-13.8,14.9c-4,5.4-7.4,11.3-9.9,17.5c-1.3,3.1-2.3,6.2-3,9.5c-0.8,3.2-1.1,6.4-1.2,9.6c-0.2,5.3,3.5,10.9,7.9,15.8
	c4.7,5,9.7,9.6,15.1,13.8c5.4,4.3,11.1,8.5,16.8,12.9c2.8,2.2,5.7,4.4,8.5,7c1.5,1.3,2.8,2.7,4.2,4.1c1.6,1.7,2.9,3.6,3.9,5.7
	c0.7,1.5,1,3.2,0.9,4.8c0,0.5-0.1,1-0.2,1.5c-0.1,0.5-0.3,1-0.5,1.5c-0.2,0.5-0.4,0.9-0.7,1.3c-0.2,0.4-0.5,0.8-0.8,1.2
	c-0.3,0.3-0.6,0.7-0.9,1l-0.9,0.8c-0.6,0.4-1.1,0.8-1.7,1.2c-1,0.6-2.1,1-3.3,1.4c-1.9,0.7-3.9,1.2-5.9,1.6
	c-1.9,0.4-3.8,0.7-5.7,0.9c-7.3,0.8-14.6,1.2-21.9,1.1c-7.3,0-14.5-0.3-21.7-0.8c-14.4-1.1-28.6-2.9-42.7-5
	c-28.2-4.2-56-9.9-83.6-14c-6.9-1-13.7-1.9-20.5-2.5c-6.5-0.7-13.1-0.9-19.7-0.6c-2.9,0.1-5.8,0.5-8.6,1.1c-2,0.4-3.8,1.2-5.4,2.3
	c-0.6,0.5-1,1.3-1,2.1c0,0.2,0,0.3,0,0.5c0,0.2,0,0.4,0,0.6c0,0.4,0,0.9,0,1.3c0.1,0.9,0.3,1.7,0.6,2.5c0.7,1.8,1.8,3.5,3.1,4.9
	c1.8,1.8,3.8,3.4,5.9,4.8c5.2,3.2,10.8,5.7,16.6,7.5c12.2,4,25.6,6.5,39.1,8.4c13.5,1.8,27.3,2.9,41,3.3l5.1,0.1l5.3,0.1
	c3.9,0.1,7.7,0.3,11.6,0.7c7.9,0.8,15.7,2.4,23.3,4.9c4.1,1.3,8.1,3.1,11.9,5.3c2.2,1.3,4.3,2.8,6.3,4.5c1.2,1.1,2.3,2.3,3.3,3.5
	c1.3,1.7,2.4,3.6,3.1,5.7c1,2.9,1.2,5.9,0.6,8.9c-0.6,2.8-1.9,5.4-3.8,7.6c-1.3,1.5-2.8,2.8-4.5,3.9c-1.3,0.8-2.6,1.5-4,2.1
	c-4.2,1.7-8.7,2.9-13.2,3.5c-3.9,0.5-7.8,0.9-11.8,1c-1.9,0-3.8,0.1-5.7,0.1h-2.8h-2.3c-5.8,0-11.6,1-17.1,2.9l-1.8,0.8l-0.9,0.4
	l-0.8,0.5c-0.5,0.3-1.1,0.6-1.6,0.9s-1,0.7-1.4,1c-1.7,1.2-3.1,2.8-4.1,4.6c-0.9,1.5-1.4,3.2-1.3,5c0.1,2,0.6,3.9,1.5,5.7
	c0.3,0.5,0.6,1,0.8,1.5s0.7,1,1.1,1.5c0.2,0.2,0.3,0.5,0.6,0.7l0.7,0.7c0.5,0.5,0.9,1,1.4,1.4c1,0.9,2.1,1.8,3.2,2.7l1.7,1.3
	c0.6,0.4,1.3,0.8,1.9,1.1c5.4,3.1,11.2,5.5,17.3,7.1c3.1,0.9,6.3,1.5,9.6,2.2c3.3,0.5,6.6,1.1,9.9,1.3s6.7,0.5,10.1,0.7l10.7,0.5
	c14.3,0.7,28.6,2.1,42.8,4.1c14.2,2,28.3,4.8,42.2,8.5c7,1.9,13.9,4.1,20.7,6.8c1.7,0.7,3.4,1.4,5.1,2.3c1.8,0.9,3.6,1.9,5.2,3.1
	l0.7,0.6c0.2,0.2,0.5,0.5,0.7,0.7c0.3,0.3,0.6,0.6,0.8,1c0.4,0.5,0.6,1.1,0.8,1.7c0.2,1,0.2,2-0.2,2.9c-0.3,0.8-0.8,1.4-1.5,1.9
	c-0.4,0.3-0.9,0.6-1.4,0.8c-0.3,0.1-0.7,0.3-1,0.4c-1.1,0.3-2.2,0.5-3.4,0.5c-1,0.1-2,0.1-2.9,0.1c-13.7-0.3-27.3,2.9-39.5,9.2
	c-6,3.2-11.6,7.3-15.6,12.6c-2,2.6-3.4,5.6-4.2,8.7c-0.2,0.8-0.3,1.6-0.4,2.4c-0.1,0.8-0.1,1.6-0.1,2.4c0.1,1.5,0.4,3.1,1,4.5
	c1.4,3,3.4,5.6,5.9,7.7c2.6,2.2,5.4,4.2,8.4,5.8c6.1,3.3,12.6,6,19.2,8c6.7,2.1,13.5,3.7,20.4,4.8
	C367.3,482.4,374.3,483,381.3,483.1z"/>
</svg>
