<?xml version="1.0" encoding="utf-8"?>
<!-- Generator: Adobe Illustrator 21.1.0, SVG Export Plug-In . SVG Version: 6.00 Build 0)  -->
<svg version="1.1" id="Calque_1" xmlns="http://www.w3.org/2000/svg" xmlns:xlink="http://www.w3.org/1999/xlink" x="0px" y="0px"
	 viewBox="0 0 841.9 595.3" style="enable-background:new 0 0 841.9 595.3;" xml:space="preserve">
<style type="text/css">
	.st0{fill:#FF0000;}
</style>
<title>Plan de travail 4</title>
<g>
	<path class="st0" d="M782.2,356.8C782.2,356.6,782.8,357.2,782.2,356.8z"/>
	<path class="st0" d="M125.5,382.1c10.3,2.7,20.9,4.2,31.5,4.4c20.9,0.6,41.1-2.6,60.7-8.1c10-2.8,19.7-6.3,29.1-10.6
		c2.4-1.1,4.8-2.2,7.2-3.5l3.6-1.9c1.2-0.7,2.4-1.4,3.6-2.1c2.4-1.4,4.8-3.1,7.2-4.8l0.9-0.6l0.5-0.4l1-0.7c0.6-0.5,1.2-0.9,1.9-1.2
		c1.9-1.3,4.1-2,6.4-2.2c2.2-0.1,4.3,0.3,6.3,1.1c5.1,1.9,11.7,6.7,18.1,12.4c6.4,5.7,13,12.3,19.8,19c6.8,6.6,14,13.5,21.6,20.1
		c7.8,6.8,16,13,24.7,18.6c4.5,2.8,9.1,5.5,13.9,7.9l3.6,1.8l0.9,0.5l1.2,0.5l2.4,1c1.6,0.6,3.3,1.1,5,1.7c1.7,0.5,3.5,0.9,5.2,1.2
		c7.2,1.2,14.5,1,21.5-0.8c6.4-1.7,12.5-4.3,18.1-7.9c10.4-6.6,18.1-14.6,24.9-22.6c13.5-16,23.6-32.8,33.5-48.7
		c5-7.9,9.9-15.8,14.9-22.5c2.2-3,4.6-5.8,7.3-8.4l0.5-0.5l1.9,2.1l9.3,10.7c3.2,3.7,6.7,7.4,10.2,11.1c3.6,3.6,7.4,7.2,11.5,10.5
		c8.1,6.8,17.1,12.5,26.8,16.8c9.5,4.2,19.5,7.4,29.7,9.3c9.9,1.9,20,2.9,30.1,3c5,0.2,9.9-0.2,14.9-0.3l7.3-0.6
		c2.4-0.2,4.9-0.4,7.3-0.7c19.4-2.1,38.3-6.3,56.8-11.4c4.6-1.2,9.2-2.6,13.8-4.1c4.6-1.4,9.1-2.8,13.6-4.4l6.8-2.3l3.4-1.2
		c1.3-0.5,2.7-1,4-1.5c1.5-0.6,3-1.3,4.4-2l1.4-0.4l3.4-1.1l1.7-0.6l0.8-0.3l0.4-0.1c0,0,0-0.1,0-0.1c-0.2-0.1-0.6-0.4-1.2-0.9
		c0.9-0.5,1.9-0.9,2.8-1.3c-3.4-2.4-1.9-0.5-2.5-1.1l-0.4,0.1l-0.9,0.1l-1.8,0.3l-3.5,0.5l-7,1c-4.7,0.6-9.4,1.1-14,1.5
		c-9.4,0.9-18.7,1.5-28,1.7c-9.2,0.3-18.5,0.1-27.7-0.7c-8.9-0.7-17.8-2.2-26.4-4.5c-8.3-2.3-16.2-5.7-22-10.4
		c-5.7-4.3-9.7-10.5-11.3-17.5c-1.7-6.9-1.3-14.8,0.4-22.9l0.7-3l0.8-3l0.9-3.4l0.9-3.7c1.3-5,2.3-10.2,3-15.3
		c1.3-10.5,1.5-21.5-0.8-32.7c-2.3-11.7-7.6-22.6-15.3-31.7c-1.9-2.3-4.1-4.4-6.3-6.4c-2.2-2-4.7-3.7-7-5.5c-2.5-1.6-5-3.1-7.5-4.5
		c-2.6-1.2-5.2-2.6-7.8-3.6c-10.3-4-21.2-6.4-32.2-7c-21.1-1.2-42.2,2.1-61.9,9.7c-9.9,3.7-19.3,8.5-28.1,14.3
		c-2.2,1.6-4.4,3-6.5,4.6l-3.2,2.5c-1.1,0.8-2.2,1.7-2.9,2.3c-3.1,2.7-6.7,5.3-10.2,7.8c-7.3,5-14.8,9.6-22.7,13.7
		c-7.9,4.1-16,7.6-24.4,10.5c-8.1,3-16.6,5-25.2,6c-4.1,0.5-8.3,0.6-12.4,0.4c-4-0.2-7.9-0.9-11.7-2.1l-1.4-0.4l-1.3-0.6
		c-0.9-0.4-1.8-0.7-2.7-1.1c-1.7-0.9-3.3-1.8-4.9-2.9c-3.2-2.2-6-4.9-8.3-8.1c-1.2-1.6-2.3-3.3-3.2-5.1l-1.4-2.7
		c-0.5-0.9-0.8-1.9-1.2-2.9l-1.2-2.9l-0.9-3.1l-0.9-3.1l-1.1-4c-3.4-10.2-9.7-19.3-18-26.1c-7.9-6.7-17-11.5-26.2-15.1
		c-18.6-7.1-38.3-9.7-57.8-9.6c-19.5,0.1-39,3.1-57.6,8.9c-18.7,5.8-36.7,14.6-52.4,27S89.5,229.3,81,248c-4.3,9.3-7.6,19-9.6,29
		l-1.4,7.4c-0.5,2.5-0.9,5-1.1,7.6c-0.3,2.6-0.6,5.1-0.8,7.7l-0.2,7.9c0.2,10.6,1.7,21.6,6.1,32.3c4.6,10.8,11.8,20.3,21.1,27.5
		C104.2,374.3,114.5,379.3,125.5,382.1z M521,322.9c-0.5-0.3-0.6-0.5-0.3-0.2C520.8,322.7,520.9,322.8,521,322.9z M111.3,345.7
		c-6.1-4.1-11-9.7-14.2-16.2c-3.4-6.7-5.3-14.6-6.1-22.9l-0.4-6.3c0-2.1,0.1-4.3,0.1-6.5c-0.1-4.3,0.7-8.7,1.1-13.1
		c1.1-8.7,3.1-17.2,6.2-25.4c3.1-8.3,7.1-16.1,12.1-23.3c5-7.4,10.9-14.1,17.6-20c6.7-6,14.1-11.3,21.9-15.8
		c7.9-4.5,16.3-8.3,24.9-11.3c8.7-3.1,17.6-5.4,26.6-7c9.1-1.6,18.3-2.5,27.5-2.5c4.6-0.1,9.2,0.1,13.8,0.4
		c4.6,0.3,9.1,0.9,13.7,1.7c9,1.5,17.8,4,26.2,7.4c8.2,3.3,15.7,8.1,22.3,14c6.2,5.9,10.9,13.1,12.7,20.9l1.4,6.7l0.8,3.8l1.1,3.8
		c0.4,1.2,0.7,2.5,1.2,3.8l1.6,3.7c1.1,2.5,2.4,4.9,3.8,7.2c6,9.7,14.9,17.2,25.4,21.5c5.1,2.1,10.5,3.6,15.9,4.5
		c5.3,0.8,10.6,1.1,16,1c10.3-0.3,20.6-1.7,30.6-4.3c19.6-5.1,38.4-13,55.7-23.6c4.3-2.7,8.6-5.6,12.8-8.8l5.2-3.8
		c1.6-1.2,3.5-2.2,5.2-3.4c7.2-4.3,14.8-8,22.8-10.8c16-5.7,33.2-8.8,49.6-8c16.4,0.8,32,5.8,41.1,16.1c4.8,5.3,8.2,11.7,9.8,18.7
		c1.7,7.8,2.3,15.8,1.6,23.8c-0.4,4.3-1,8.5-1.8,12.7l-0.6,3.2l-0.7,3.6l-0.8,3.9l-0.6,4c-0.8,5.4-1.1,10.9-0.9,16.4
		c0.2,5.8,1.2,11.5,3,17c3.6,11.4,11.1,21.3,21.2,27.8c6.5,4.2,13.6,7.3,21.1,9.2h-1.9c-4.5-0.3-9.1-0.4-13.5-1
		c-4.5-0.4-8.9-1.1-13.3-1.8c-4.3-0.9-8.7-1.7-12.9-3c-16.5-4.4-31.6-12.8-44-24.5c-6.3-6.1-12.1-12.6-17.3-19.6L547,308l-2.3-3
		l-1.2-1.5c-0.6-0.7-1.3-1.5-2-2.2c-1.7-1.7-3.5-3.2-5.5-4.4c-2.4-1.5-5.1-2.6-7.9-3.2c-1.5-0.3-3-0.5-4.5-0.6
		c-1.4,0-2.9,0.1-4.3,0.2c-2.5,0.4-4.9,1-7.3,2c-3.5,1.5-6.8,3.6-9.7,6c-4.4,3.7-8.5,7.9-12.1,12.4c-6.7,8.2-12.2,16.2-17.6,24.1
		c-5.5,7.9-10.7,15.6-16,23c-5.1,7.2-10.6,14.2-16.4,20.8c-5.6,6.3-11.7,11.7-17.3,15.2c-2.4,1.5-5.1,2.7-7.9,3.4
		c-2.2,0.5-4.5,0.6-6.7,0.1c-0.5-0.1-1.1-0.3-1.7-0.4s-1.2-0.4-1.8-0.6l-0.9-0.4l-0.5-0.2l-0.7-0.3L400,397c-3.7-1.8-7.2-4-10.8-6.2
		c-7.2-4.7-14.2-9.9-20.7-15.6c-13.7-11.4-26.3-24.9-42-38.2c-4.1-3.5-8.5-6.8-12.9-9.8c-5.2-3.4-10.7-6.2-16.6-8.2
		c-13.9-5-29.3-3.3-41.7,4.7c-1.4,0.8-2.7,1.7-4,2.7l-3.4,2.5c-1.4,1.1-2.8,2.2-4.5,3.3c-0.8,0.5-1.6,1.1-2.5,1.6l-2.6,1.5
		c-1.7,1.1-3.6,2-5.5,2.9c-7.7,3.8-15.8,7-24,9.6c-8.4,2.7-16.9,4.8-25.5,6.3c-8.5,1.5-17.2,2.3-25.8,2.5
		C140.3,356.9,123.5,353.9,111.3,345.7z"/>
</g>
</svg>
