<?xml version="1.0" encoding="utf-8"?>
<!-- Generator: Adobe Illustrator 21.1.0, SVG Export Plug-In . SVG Version: 6.00 Build 0)  -->
<svg version="1.1" id="Calque_1" xmlns="http://www.w3.org/2000/svg" xmlns:xlink="http://www.w3.org/1999/xlink" x="0px" y="0px"
	 viewBox="0 0 841.9 595.3" style="enable-background:new 0 0 841.9 595.3;" xml:space="preserve">
<style type="text/css">
	.st0{fill:#FF0000;}
</style>
<title>Plan de travail 1</title>
<g>
	<path class="st0" d="M380.8,122.6c21,0,38,17,38,38s-17,38-38,38s-38-17-38-38l0,0C342.8,139.7,359.8,122.6,380.8,122.6
		 M380.8,117.6c-23.7,0-43,19.3-43,43s19.3,43,43,43s43-19.3,43-43l0,0C423.8,136.9,404.5,117.6,380.8,117.6z"/>
	<path class="st0" d="M434.8,127.3c7.3,2.4,17.4,8.6,27.1,24.4c8.5,13.8,15.2,32.8,20,56.2c4.4,21.5,7.2,47,8.3,76.1l-32.7-90.3
		l-4.9-13.6l-4.5,13.8c-0.2,0.6-5.1,15.8-8.6,39.3c-3.2,21.7-5.8,54.9,0.3,89.8v0.1v0.1c1.7,8.1,5.7,16.6,10.4,26.4
		c8.5,17.8,19,40,19.7,70.3c0.7,30.3-10.7,46.4-17.5,53.5c-6.3,6.4-12.2,8.8-14.6,8.8c-4.3,0-13.9-2.3-22.4-11.1
		c-10.9-11.3-16.7-29.8-16.7-53.6c0-9.2-0.2-19.1-0.5-29.6c-1.3-56.9-3-127.6,29.9-178c19-29.2,18-52.6,13.7-67.2
		C440,137.3,437.7,132.1,434.8,127.3 M426.5,120.9c-0.9,0-1.9,0-2.8,0.2c0,0,34.9,32.5,0,86c-39.9,61.1-30.2,151-30.2,210.3
		s33.7,69.7,44.2,69.7c10.5,0,38.3-19.7,37.2-67.4s-25.6-75.5-30.2-97.6c-11.6-66.2,8.1-126.6,8.1-126.6l43,118.5
		C495.8,131.8,439.8,120.9,426.5,120.9L426.5,120.9z"/>
</g>
</svg>
