<?xml version="1.0" encoding="utf-8"?>
<!-- Generator: Adobe Illustrator 21.1.0, SVG Export Plug-In . SVG Version: 6.00 Build 0)  -->
<svg version="1.1" id="Calque_1" xmlns="http://www.w3.org/2000/svg" xmlns:xlink="http://www.w3.org/1999/xlink" x="0px" y="0px"
	 viewBox="0 0 841.9 595.3" style="enable-background:new 0 0 841.9 595.3;" xml:space="preserve">
<style type="text/css">
	.st0{fill:#FF0000;}
</style>
<title>Plan de travail 2</title>
<g>
	<path class="st0" d="M397.1,122c21,0,38,17,38,38s-17,38-38,38s-38-17-38-38S376.2,122,397.1,122 M397.1,117c-23.7,0-43,19.3-43,43
		s19.3,43,43,43s43-19.3,43-43S420.9,117,397.1,117z"/>
	<path class="st0" d="M457.2,144.9c19,14,27,35.1,24.2,63.9c-2.8,29.4-16.1,59.8-24.9,79.9c-5.6,12.9-8.1,18.7-8.1,22.6
		c0,7.8,1.5,22.6,4.5,35.9c3.8,17.1,8.3,25.6,14.6,27.1c1.5,3.5,3.7,15.4,3,33.1c-0.4,12.2-2.6,35.6-12.2,54.8
		c-9.1,18.3-22.5,27.5-39.7,27.5c-12.7,0-22.4-5.2-28.7-15.5c-5.6-9.1-8.5-22.2-8.5-37.7c0-15.6,2.8-31,8-45.7
		c5.2-13.9,10.6-18.9,13-18.9c7.6,0,14.1-4.4,18.2-12.4c3.1-6.2,4.9-14.3,4.9-23c0-7.3-1.2-14.2-3.5-19.4
		c-4-9.3-10.1-10.7-13.4-10.7c-0.8,0-2.5-1.5-4-5.7c-3.3-9.4-2.9-24.7,1-39.1c3.5-12.8,11.2-31,28.6-45c23.5-19,27-41.4,25.8-56.9
		C459.4,154.7,458.5,149.8,457.2,144.9 M447.1,133.1c0,0,26.1,45.5-16.2,79.7s-38.5,98.6-22.4,98.6s17.4,55.7-6.2,55.7
		s-51,127.7,16.2,127.7s60.9-125.2,50.9-125.2c-9.9,0-16.2-43-16.2-58.2S532.9,174.8,447.1,133.1L447.1,133.1z"/>
</g>
</svg>
