<?xml version="1.0" encoding="utf-8"?>
<!-- Generator: Adobe Illustrator 21.1.0, SVG Export Plug-In . SVG Version: 6.00 Build 0)  -->
<svg version="1.1" id="Calque_1" xmlns="http://www.w3.org/2000/svg" xmlns:xlink="http://www.w3.org/1999/xlink" x="0px" y="0px"
	 viewBox="0 0 841.9 595.3" style="enable-background:new 0 0 841.9 595.3;" xml:space="preserve">
<style type="text/css">
	.st0{fill:#FF0000;}
</style>
<title>Plan de travail 3</title>
<path class="st0" d="M420.8,107.7c21,0,38,17,38,38s-17,38-38,38c-21,0-38-17-38-38c0,0,0,0,0,0
	C382.8,124.7,399.8,107.7,420.8,107.7 M420.8,102.7c-23.7,0-43,19.3-43,43s19.3,43,43,43c23.7,0,43-19.3,43-43
	S444.5,102.7,420.8,102.7z"/>
<path class="st0" d="M482.5,273.2c2.4,20.3,1.5,46.7-9,76.5l-5.9,5.6C473,335.9,480.6,303.7,482.5,273.2 M468.3,214.2
	c26.8,43-10.8,157.6-10.8,157.6l20.3-19.3C506.8,271.7,468.3,214.2,468.3,214.2L468.3,214.2z"/>
<path class="st0" d="M358.6,273.1c1.4,30.5,8.4,62.8,13.4,82.4l-5.8-5.7C356.2,319.7,355.8,293.4,358.6,273.1 M373.8,214.3
	c0,0-39.5,56.8-11.9,138.1l20,19.7C381.9,372.1,346.3,256.8,373.8,214.3L373.8,214.3z"/>
<g>
	<path class="st0" d="M444.7,489.1h-49.1v-5c0.4,0,0.8-0.4,1-0.6c16.4-16.8,15.6-205,14-276.1l5-0.1c0,0.6,1.5,65,0.4,131.1
		c-1.4,83.7-5.9,131.5-13.8,145.8h35.8c-7.9-14.2-12.4-62.1-13.8-145.8c-1.1-66.1,0.4-130.5,0.4-131.1l5,0.1
		c-1.7,71.1-2.4,259.4,14,276.1c0.2,0.2,0.7,0.6,1,0.6V489.1z"/>
</g>
</svg>
