<?xml version="1.0" encoding="utf-8"?>
<!-- Generator: Adobe Illustrator 21.1.0, SVG Export Plug-In . SVG Version: 6.00 Build 0)  -->
<svg version="1.1" id="Calque_1" xmlns="http://www.w3.org/2000/svg" xmlns:xlink="http://www.w3.org/1999/xlink" x="0px" y="0px"
	 viewBox="0 0 841.9 595.3" style="enable-background:new 0 0 841.9 595.3;" xml:space="preserve">
<style type="text/css">
	.st0{fill:#FC0000;}
</style>
<title>Plan de travail 4</title>
<path class="st0" d="M418.7,107.7c21,0,38,17,38,38s-17,38-38,38s-38-17-38-38c0,0,0,0,0,0C380.7,124.7,397.7,107.7,418.7,107.7
	 M418.7,102.7c-23.7,0-43,19.3-43,43s19.3,43,43,43s43-19.3,43-43S442.4,102.7,418.7,102.7z"/>
<path class="st0" d="M435.7,210.7c1.3,0.2,7.5,5.7,14.4,28.9c5.2,17.4,8.5,37.5,8.5,51.3c0,9.8-4.8,22-9.9,34.9
	c-6.1,15.5-12.4,31.5-12.4,47.4c0,24.5,23.6,87.5,31.7,108.5h-97.2c7.7-21,30.3-84,30.3-108.5c0-16.1-6.2-33.3-11.7-48.5
	c-4.6-12.7-9-24.8-9-33.9c0-13.5,3.3-33.5,8.5-50.9c2.1-7.4,4.8-14.7,8.3-21.6c3.8-7.1,6.1-7.7,6.1-7.7L435.7,210.7 M435.7,205.7
	h-32.4c-13.1,0-27.8,56.2-27.8,85.2c0,21.5,20.7,54,20.7,82.4s-32.5,113.5-32.5,113.5h111.8c0,0-34.1-85.1-34.1-113.5
	s22.3-59.6,22.3-82.4C463.6,261.3,448.9,205.7,435.7,205.7L435.7,205.7z"/>
<path class="st0" d="M372,231c-5.3,19.4-13,51.6-14.9,82.1c-2.4-20.4-1.5-46.8,9-76.5L372,231 M382.1,214.5l-20.3,19.3
	c-29,80.8,9.5,138.3,9.5,138.3C344.5,329.1,382.1,214.5,382.1,214.5L382.1,214.5z"/>
<path class="st0" d="M467.6,230.9l5.8,5.7c10,30,10.4,56.4,7.6,76.7C479.7,282.7,472.7,250.5,467.6,230.9 M457.8,214.2
	c0,0,35.6,115.3,8,157.8c0,0,39.5-56.8,11.9-138.1L457.8,214.2L457.8,214.2z"/>
</svg>
