<?xml version="1.0" encoding="utf-8"?>
<!-- Generator: Adobe Illustrator 21.1.0, SVG Export Plug-In . SVG Version: 6.00 Build 0)  -->
<svg version="1.1" id="Calque_1" xmlns="http://www.w3.org/2000/svg" xmlns:xlink="http://www.w3.org/1999/xlink" x="0px" y="0px"
	 viewBox="0 0 841.9 595.3" style="enable-background:new 0 0 841.9 595.3;" xml:space="preserve">
<style type="text/css">
	.st0{fill:#FF0000;}
</style>
<title>Plan de travail 2</title>
<path class="st0" d="M486.7,301l141.3-6.9l-141.1-6.3l137.8-31.3l-140.1,18.3L615,220.1l-134.8,42.4L599,185.9L473.7,251l103.7-96.1
	l-112.1,86l85.5-112.6l-95.5,104.1l64.6-125.8l-76,119.1l41.8-135.1l-54.2,130.5l17.7-140.3l-30.7,137.9l-6.9-141.2l-6.3,141.1
	L374.1,80.7l18.3,140.1L337.6,90.5L380,225.3l-76.6-118.9l65.1,125.4L272.5,128l85.9,112.2l-112.6-85.5l104.1,95.5l-125.8-64.6
	l119.1,76l-135.1-41.8l130.5,54.2l-140.3-17.7l137.9,30.7L195,293.8l141.1,6.3l-137.9,31.3L338.4,313L208,367.8l134.8-42.4
	l-118.9,76.6l125.4-65.1L245.5,433l112.1-85.9l-85.5,112.6l95.5-104.1l-64.6,125.8l76-119.1l-41.8,135.1l54.2-130.5l-17.7,140.3
	l30.7-137.9l6.9,141.2l6.3-141.2l31.3,137.9l-18.3-140.1l54.8,130.4L443,362.7l76.6,118.9l-65.2-125.4l96.1,103.8l-85.9-112.2
	l112.6,85.5l-104.1-95.5l125.8,64.6l-119.1-76l135.1,41.8L484.3,314l140.3,17.7L486.7,301z M462.7,315.5l-4,9.1l-0.6-0.5l-5.5,8.3
	l-0.5-0.6l-6.8,7.2l-0.4-0.7l-8,5.9l-0.2-0.7l-8.9,4.4l-0.1-0.8l-9.5,2.8v-0.8l-9.8,1.1l0.2-0.7l-9.9-0.6l0.3-0.7l-9.6-2.3l0.4-0.6
	l-9.1-4l0.5-0.6l-8.3-5.5l0.6-0.5l-7-6.7l0.7-0.4l-5.9-8l0.7-0.2l-4.4-8.9l0.8-0.1l-2.8-9.5h0.8l-1.1-9.9l0.7,0.2l0.6-9.9l0.7,0.3
	l2.3-9.6l0.6,0.4l4-9.1l0.6,0.5l5.5-8.3l0.5,0.6l6.8-7.2l0.4,0.7l8-5.9l0.2,0.7l8.9-4.4l0.1,0.8l9.5-2.8v0.8l9.8-1.1l-0.2,0.7
	l9.9,0.6l-0.3,0.7l9.6,2.3l-0.4,0.6l9.1,4l-0.5,0.6l8.3,5.5l-0.6,0.5l7.2,6.8l-0.7,0.3l5.9,8l-0.7,0.2l4.4,8.9l-0.7,0.1l2.8,9.5
	h-0.8l1.1,9.8l-0.7-0.2l-0.6,9.9l-0.7-0.3l-2.3,9.6L462.7,315.5z"/>
</svg>
