<?xml version="1.0" encoding="utf-8"?>
<!-- Generator: Adobe Illustrator 21.1.0, SVG Export Plug-In . SVG Version: 6.00 Build 0)  -->
<svg version="1.1" id="Calque_1" xmlns="http://www.w3.org/2000/svg" xmlns:xlink="http://www.w3.org/1999/xlink" x="0px" y="0px"
	 viewBox="0 0 841.9 595.3" style="enable-background:new 0 0 841.9 595.3;" xml:space="preserve">
<style type="text/css">
	.st0{fill:#FF0000;}
</style>
<title>Plan de travail 3</title>
<path class="st0" d="M554.6,297c3.8,0.5,7.6,1,11.3,1.3c3.8,0.3,7.6,0.5,11.3,0.7c7.6,0.4,15.1,0.8,22.7,0.6s15.1-0.6,22.7-1.4
	c3.8-0.4,7.6-0.8,11.3-1.4c3.8-0.6,7.6-1.2,11.3-2v-1c-3.8-0.9-7.6-1.5-11.3-2.1c-3.8-0.5-7.6-1-11.3-1.4
	c-7.6-0.8-15.1-1.2-22.7-1.4c-7.6-0.2-15.1,0.2-22.7,0.6c-3.8,0.2-7.6,0.3-11.3,0.7c-3.8,0.4-7.6,0.8-11.3,1.3
	c-7.5,1-15.1,1.4-22.7,1.1c-6.8-0.3-13.6-1.6-20.4-2.3c6.7-1.3,13.4-3.2,20.1-4.1c7.5-0.9,15.1-1.2,22.7-0.9
	c3.8,0.1,7.6,0.3,11.4,0.3c3.8,0,7.6-0.1,11.4-0.3c7.6-0.3,15.1-0.5,22.7-1.4c7.5-0.8,15-2,22.5-3.4c3.7-0.7,7.5-1.5,11.2-2.4
	c3.7-0.9,7.4-1.8,11.1-3l-0.1-1c-3.8-0.5-7.7-0.9-11.5-1.1c-3.8-0.2-7.6-0.4-11.4-0.4c-7.6-0.1-15.2,0.1-22.7,0.6
	c-7.5,0.5-15,1.5-22.5,2.6c-3.8,0.5-7.5,1-11.2,1.7s-7.5,1.5-11.2,2.3c-7.4,1.7-14.9,2.7-22.5,3.1c-6.8,0.3-13.7-0.4-20.5-0.5
	c6.6-1.9,13-4.4,19.7-5.8c7.4-1.6,15-2.5,22.5-2.8c3.8-0.2,7.6-0.4,11.4-0.7c3.8-0.3,7.5-0.8,11.3-1.3c7.5-0.9,15-1.9,22.5-3.3
	c7.5-1.5,14.8-3.2,22.1-5.3c3.7-1,7.3-2.1,10.9-3.3c3.6-1.2,7.2-2.5,10.8-4l-0.2-1c-3.9-0.2-7.7-0.2-11.5-0.1
	c-3.8,0.1-7.6,0.3-11.4,0.6c-7.6,0.6-15.1,1.4-22.6,2.6c-7.5,1.2-14.9,2.9-22.2,4.5c-3.7,0.9-7.4,1.6-11,2.7c-3.6,1-7.3,2.1-11,3.2
	c-7.2,2.3-14.6,4-22.1,5c-6.7,0.9-13.7,0.8-20.5,1.2c6.4-2.5,12.6-5.5,19.1-7.5c7.3-2.2,14.7-3.8,22.2-4.8c3.8-0.5,7.5-1,11.3-1.7
	c3.7-0.7,7.4-1.5,11.1-2.2c7.4-1.6,14.8-3.2,22.1-5.3c7.3-2.1,14.4-4.5,21.6-7.2c3.5-1.3,7.1-2.7,10.6-4.3c3.5-1.5,7-3.1,10.4-4.9
	l-0.3-1c-3.9,0.1-7.7,0.5-11.5,0.9c-3.8,0.4-7.6,1-11.3,1.6c-7.5,1.2-14.9,2.7-22.3,4.5c-7.3,1.8-14.5,4.1-21.8,6.5
	c-3.6,1.2-7.2,2.3-10.8,3.6c-3.6,1.3-7.1,2.7-10.6,4.2c-7,2.9-14.2,5.3-21.6,7c-6.7,1.5-13.6,2-20.3,3c6.1-3,12.1-6.6,18.4-9.2
	c7-2.8,14.3-5.1,21.7-6.7c3.7-0.9,7.4-1.7,11.1-2.7c3.7-1,7.3-2.1,10.9-3.2c7.2-2.2,14.5-4.4,21.5-7.2s14-5.8,20.8-9.1
	c3.4-1.6,6.8-3.3,10.2-5.2s6.7-3.7,10-5.8l-0.3-0.9c-3.9,0.5-7.6,1.2-11.4,1.9c-3.7,0.8-7.5,1.6-11.1,2.6c-7.4,1.9-14.6,4-21.8,6.4
	c-7.2,2.4-14.1,5.4-21.1,8.3c-3.5,1.5-7,2.9-10.4,4.5c-3.4,1.6-6.8,3.4-10.2,5.1c-6.7,3.5-13.7,6.5-20.9,8.8
	c-6.5,2.1-13.3,3.2-20,4.8c5.9-3.5,11.5-7.6,17.5-10.7c6.7-3.4,13.8-6.3,21-8.6c3.6-1.2,7.3-2.3,10.8-3.6c3.6-1.3,7.1-2.7,10.6-4.1
	c7-2.8,14-5.7,20.8-9c6.8-3.3,13.4-7,20-10.8c3.3-2,6.5-3.9,9.7-6.1c3.2-2.1,6.3-4.3,9.4-6.7l-0.4-0.9c-3.8,0.8-7.5,1.8-11.1,2.9
	c-3.6,1.1-7.3,2.3-10.9,3.5c-7.2,2.5-14.2,5.3-21.2,8.3c-6.9,3-13.6,6.6-20.3,10.1c-3.3,1.8-6.7,3.5-10,5.4c-3.3,1.9-6.5,3.9-9.7,6
	c-6.4,4.1-13.1,7.6-20.1,10.6c-6.3,2.6-13,4.3-19.5,6.5c5.5-4,10.8-8.6,16.5-12.2c6.4-4,13.2-7.5,20.2-10.4c3.5-1.5,7-3,10.5-4.6
	s6.8-3.3,10.2-5.1c6.7-3.4,13.5-6.9,20-10.8s12.8-8.1,19-12.5c3.1-2.2,6.1-4.5,9.1-6.9c3-2.4,6-4.8,8.8-7.4l-0.5-0.9
	c-3.7,1.1-7.3,2.5-10.9,3.9c-3.5,1.4-7.1,2.9-10.5,4.5c-6.9,3.1-13.7,6.5-20.3,10.1c-6.6,3.6-13,7.8-19.3,11.9
	c-3.2,2.1-6.4,4.1-9.5,6.3c-3.1,2.2-6.1,4.5-9.2,6.8c-6,4.6-12.4,8.8-19.1,12.3c-6,3.2-12.6,5.4-18.9,8.2c5.2-4.5,10-9.5,15.4-13.6
	c6.1-4.6,12.5-8.6,19.2-12.1c3.4-1.8,6.7-3.6,10-5.5c3.2-1.9,6.5-3.9,9.7-5.9c6.4-4,12.8-8,19-12.5c6.2-4.5,12-9.2,17.8-14.1
	c2.9-2.5,5.7-5,8.5-7.6c2.8-2.6,5.5-5.3,8.1-8.2l-0.6-0.8c-3.6,1.4-7.1,3.1-10.5,4.8c-3.4,1.7-6.8,3.5-10.1,5.4
	c-6.6,3.7-13.1,7.7-19.4,11.9c-6.3,4.2-12.3,8.9-18.2,13.5c-3,2.3-6,4.6-8.9,7.1c-2.9,2.5-5.7,5-8.6,7.5c-5.6,5.1-11.6,9.8-18,13.9
	c-5.7,3.7-12.1,6.5-18.1,9.8c4.7-4.9,9.1-10.3,14.1-14.9c5.6-5.1,11.7-9.7,18.1-13.7c3.2-2.1,6.4-4.1,9.5-6.3
	c3.1-2.2,6.1-4.5,9.1-6.7c6-4.6,12.1-9.1,17.8-14.1c5.7-5,11.2-10.2,16.5-15.6c2.7-2.7,5.3-5.5,7.8-8.4c2.5-2.9,5-5.8,7.4-8.9
	l-0.6-0.8c-3.5,1.8-6.8,3.7-10,5.7c-3.2,2-6.4,4.1-9.6,6.2c-6.3,4.3-12.4,8.8-18.3,13.5c-5.9,4.7-11.4,9.9-17,15.1
	c-2.8,2.6-5.6,5.1-8.2,7.8c-2.7,2.7-5.3,5.5-7.9,8.3c-5.1,5.6-10.7,10.8-16.7,15.4c-5.4,4.2-11.4,7.5-17.1,11.3
	c4.3-5.3,8.2-11.1,12.8-16.1c5.2-5.6,10.8-10.7,16.8-15.3c3-2.3,6-4.7,8.9-7.1c2.9-2.4,5.7-5,8.5-7.5c5.6-5.1,11.2-10.1,16.5-15.6
	c5.2-5.5,10.2-11.1,15.1-17c2.4-2.9,4.8-5.9,7-9c2.2-3.1,4.5-6.2,6.6-9.5l-0.7-0.7c-3.3,2.1-6.4,4.3-9.5,6.6c-3.1,2.3-6.1,4.6-9,7
	c-5.9,4.8-11.5,9.8-17,15.1c-5.5,5.2-10.5,10.9-15.6,16.5c-2.5,2.8-5.1,5.6-7.5,8.5c-2.4,2.9-4.8,5.9-7.1,8.9
	c-4.6,6-9.7,11.7-15.2,16.8c-5,4.6-10.7,8.5-16.1,12.8c3.8-5.7,7.2-11.8,11.3-17.1c4.7-6,9.8-11.6,15.4-16.7
	c2.8-2.6,5.6-5.2,8.3-7.9c2.7-2.7,5.3-5.5,7.8-8.2c5.1-5.5,10.3-11.1,15.1-17s9.2-12,13.5-18.3c2.1-3.1,4.2-6.3,6.2-9.6
	c2-3.3,4-6.5,5.7-10l-0.8-0.6c-3.1,2.3-6,4.8-8.9,7.4c-2.9,2.5-5.6,5.1-8.4,7.8c-5.4,5.3-10.7,10.8-15.7,16.5
	c-5,5.7-9.5,11.7-14.1,17.8c-2.3,3-4.6,6-6.7,9.1c-2.1,3.1-4.2,6.3-6.3,9.5c-4,6.4-8.6,12.5-13.7,18.1c-4.6,5-10,9.4-14.9,14.1
	c3.3-6,6.1-12.3,9.8-18.1c4.1-6.4,8.8-12.4,14-17.9c2.5-2.8,5.1-5.6,7.6-8.6c2.4-2.9,4.8-5.9,7.1-8.9c4.7-6,9.3-11.9,13.5-18.2
	c4.2-6.3,8.2-12.8,11.9-19.4c1.9-3.3,3.7-6.7,5.4-10.1c1.7-3.4,3.4-6.9,4.8-10.5l-0.8-0.6c-2.9,2.6-5.6,5.3-8.2,8.1
	c-2.6,2.8-5.2,5.6-7.6,8.5c-5,5.8-9.7,11.7-14.2,17.8c-4.5,6.1-8.5,12.5-12.5,18.9c-2,3.2-4.1,6.4-5.9,9.7c-1.9,3.3-3.7,6.7-5.5,10
	c-3.5,6.7-7.5,13.2-12.1,19.2c-4.1,5.4-9.1,10.2-13.6,15.4c2.8-6.3,5-12.8,8.2-18.8c3.5-6.7,7.7-13.1,12.3-19.1
	c2.3-3,4.6-6.1,6.8-9.2c2.2-3.1,4.2-6.3,6.3-9.5c4.1-6.4,8.2-12.7,11.9-19.3c3.6-6.6,7-13.4,10.1-20.3c1.6-3.5,3.1-7,4.5-10.5
	c1.4-3.5,2.8-7.1,3.9-10.9l-0.9-0.5c-2.6,2.8-5.1,5.8-7.4,8.8s-4.7,6-6.9,9.1c-4.4,6.2-8.6,12.5-12.6,19c-3.9,6.5-7.4,13.2-10.8,20
	c-1.7,3.4-3.5,6.7-5.1,10.2c-1.6,3.5-3.1,7-4.6,10.5c-2.9,7-6.3,13.8-10.4,20.2c-3.6,5.8-8.2,11-12.2,16.5
	c2.2-6.5,3.9-13.2,6.5-19.5c2.9-7,6.5-13.7,10.6-20.1c2-3.2,4.1-6.4,5.9-9.7c1.9-3.3,3.7-6.6,5.4-10c3.5-6.7,7.1-13.4,10.1-20.3
	c3-6.9,5.8-14,8.3-21.1c1.3-3.6,2.5-7.2,3.5-10.9c1.1-3.7,2.1-7.4,2.9-11.1l-0.9-0.4c-2.4,3.1-4.6,6.2-6.7,9.4
	c-2.1,3.2-4.1,6.4-6.1,9.7c-3.9,6.5-7.5,13.2-10.8,20c-3.3,6.8-6.2,13.8-9,20.8c-1.4,3.5-2.9,7-4.1,10.6c-1.3,3.6-2.5,7.2-3.6,10.8
	c-2.3,7.2-5.1,14.3-8.6,21c-3.1,6.1-7.2,11.7-10.7,17.5c1.6-6.6,2.7-13.5,4.8-20c2.3-7.2,5.3-14.2,8.8-20.9
	c1.7-3.4,3.5-6.8,5.1-10.2c1.6-3.4,3.1-6.9,4.5-10.4c3-7,5.9-13.9,8.3-21.1c2.4-7.2,4.6-14.4,6.5-21.8c0.9-3.7,1.8-7.4,2.6-11.1
	c0.8-3.7,1.5-7.5,2-11.4l-0.9-0.3c-2.1,3.3-4,6.6-5.8,10c-1.8,3.4-3.5,6.8-5.2,10.2c-3.3,6.8-6.3,13.8-9.1,20.8
	c-2.7,7-5,14.3-7.2,21.5c-1.1,3.6-2.3,7.2-3.2,10.9s-1.8,7.4-2.7,11.1c-1.6,7.4-3.9,14.7-6.7,21.7c-2.6,6.3-6.1,12.2-9.2,18.4
	c1-6.8,1.5-13.7,3-20.3c1.7-7.4,4.1-14.6,7-21.6c1.4-3.5,2.9-7.1,4.2-10.6c1.3-3.6,2.5-7.2,3.6-10.8c2.3-7.2,4.7-14.4,6.5-21.8
	c1.8-7.3,3.3-14.8,4.5-22.3c0.6-3.7,1.2-7.5,1.6-11.3s0.8-7.6,1-11.5l-1-0.3c-1.8,3.4-3.4,6.9-4.9,10.4c-1.5,3.5-2.9,7-4.3,10.6
	c-2.7,7.1-5.1,14.3-7.2,21.6c-2.1,7.3-3.7,14.7-5.3,22.1c-0.8,3.7-1.6,7.4-2.2,11.1c-0.6,3.7-1.2,7.5-1.7,11.3
	c-1,7.5-2.6,15-4.8,22.2c-2,6.5-5.1,12.7-7.5,19.1c0.5-6.8,0.3-13.8,1.2-20.5c1-7.5,2.7-14.9,5-22.2c1.1-3.6,2.3-7.3,3.2-10.9
	s1.8-7.4,2.7-11c1.7-7.4,3.4-14.8,4.5-22.2c1.1-7.5,2-15,2.6-22.6c0.3-3.8,0.5-7.6,0.6-11.4c0.1-3.8,0.1-7.6-0.1-11.5l-1-0.2
	c-1.5,3.6-2.8,7.2-4,10.8c-1.2,3.6-2.3,7.3-3.3,10.9c-2.1,7.3-3.8,14.7-5.3,22.1c-1.5,7.4-2.4,14.9-3.3,22.5
	c-0.5,3.8-1,7.5-1.3,11.3s-0.5,7.6-0.7,11.4c-0.3,7.6-1.3,15.1-2.8,22.5c-1.4,6.7-3.9,13.1-5.8,19.7c-0.1-6.8-0.9-13.7-0.5-20.5
	c0.4-7.6,1.4-15.1,3.1-22.5c0.8-3.7,1.6-7.4,2.3-11.2s1.2-7.5,1.7-11.2c1-7.5,2.1-15,2.6-22.5c0.5-7.5,0.7-15.1,0.6-22.7
	c0-3.8-0.1-7.6-0.4-11.4s-0.5-7.6-1.1-11.5l-1-0.1c-1.2,3.7-2.2,7.4-3,11.1c-0.8,3.7-1.7,7.4-2.4,11.2c-1.4,7.5-2.5,15-3.4,22.5
	c-0.8,7.5-1.1,15.1-1.4,22.7c-0.1,3.8-0.3,7.6-0.3,11.4s0.2,7.6,0.3,11.4c0.4,7.6,0.1,15.2-0.9,22.7c-0.9,6.8-2.8,13.4-4.1,20.1
	c-0.7-6.8-2.1-13.6-2.3-20.4c-0.3-7.6,0.1-15.2,1.1-22.7c0.5-3.8,1-7.6,1.3-11.3c0.3-3.8,0.5-7.6,0.7-11.3
	c0.4-7.6,0.8-15.1,0.6-22.7c-0.2-7.6-0.6-15.1-1.4-22.7c-0.4-3.8-0.8-7.6-1.4-11.3s-1.2-7.6-2.1-11.3h-1c-0.9,3.8-1.5,7.6-2.1,11.3
	s-1,7.6-1.4,11.3c-0.7,7.6-1.2,15.1-1.4,22.7c-0.2,7.6,0.2,15.1,0.6,22.7c0.2,3.8,0.3,7.6,0.7,11.3c0.4,3.8,0.8,7.6,1.3,11.3
	c1,7.5,1.4,15.1,1.1,22.7c-0.3,6.8-1.6,13.6-2.3,20.4c-1.3-6.7-3.2-13.4-4.1-20.1c-0.9-7.5-1.2-15.1-0.8-22.7
	c0.1-3.8,0.3-7.6,0.3-11.4s-0.1-7.6-0.3-11.4c-0.3-7.6-0.5-15.1-1.4-22.7c-0.8-7.5-2-15-3.4-22.5c-0.7-3.7-1.5-7.5-2.4-11.2
	c-0.9-3.7-1.8-7.4-3-11.1l-1,0.1c-0.5,3.8-0.9,7.7-1.1,11.5c-0.2,3.8-0.4,7.6-0.4,11.4c-0.1,7.6,0.1,15.2,0.6,22.7
	c0.5,7.5,1.5,15,2.6,22.5c0.5,3.7,1,7.5,1.7,11.2c0.7,3.7,1.5,7.5,2.3,11.2c1.7,7.4,2.7,14.9,3.1,22.5c0.3,6.8-0.4,13.7-0.5,20.5
	c-1.9-6.6-4.4-13-5.8-19.7c-1.6-7.4-2.5-15-2.8-22.5c-0.2-3.8-0.4-7.6-0.7-11.4c-0.3-3.8-0.8-7.5-1.3-11.3c-0.9-7.5-1.9-15-3.3-22.5
	c-1.5-7.5-3.2-14.8-5.3-22.1c-1-3.7-2.1-7.3-3.3-10.9c-1.2-3.6-2.5-7.2-4-10.8l-1,0.2c-0.2,3.9-0.2,7.7,0,11.5
	c0.1,3.8,0.3,7.6,0.6,11.4c0.6,7.6,1.4,15.1,2.6,22.6c1.1,7.5,2.9,14.9,4.5,22.2c0.9,3.7,1.6,7.4,2.7,11c1,3.7,2.1,7.3,3.2,10.9
	c2.3,7.2,4,14.6,5,22.2c0.9,6.7,0.8,13.7,1.2,20.5c-2.5-6.4-5.5-12.6-7.5-19.1c-2.2-7.3-3.8-14.7-4.8-22.2c-0.5-3.8-1-7.6-1.7-11.3
	c-0.7-3.7-1.5-7.4-2.2-11.1c-1.6-7.4-3.2-14.8-5.3-22.1c-2.1-7.3-4.5-14.4-7.2-21.6c-1.3-3.6-2.7-7.1-4.3-10.6
	c-1.5-3.5-3.1-7-4.9-10.4l-1,0.3c0.1,3.9,0.5,7.7,1,11.5c0.4,3.8,1,7.6,1.6,11.3c1.2,7.5,2.7,14.9,4.5,22.3
	c1.8,7.3,4.1,14.5,6.5,21.8c1.2,3.6,2.3,7.2,3.6,10.8c1.3,3.6,2.7,7.1,4.2,10.6c2.9,7,5.3,14.2,7,21.6c1.5,6.6,2,13.6,3,20.3
	c-3-6.1-6.6-12.1-9.2-18.4c-2.9-7-5.1-14.3-6.7-21.7c-0.9-3.7-1.7-7.4-2.7-11.1c-1-3.7-2.1-7.3-3.2-10.9c-2.2-7.2-4.4-14.5-7.2-21.5
	c-2.7-7-5.8-14-9.1-20.8c-1.6-3.4-3.4-6.8-5.2-10.2c-1.8-3.4-3.7-6.7-5.8-10l-0.9,0.3c0.5,3.8,1.2,7.6,2,11.4
	c0.8,3.7,1.6,7.5,2.6,11.1c1.9,7.4,4,14.6,6.5,21.8c2.4,7.2,5.4,14.1,8.3,21.1c1.5,3.5,2.9,7,4.5,10.4c1.6,3.4,3.4,6.8,5.1,10.2
	c3.5,6.7,6.5,13.7,8.8,20.9c2.1,6.5,3.1,13.3,4.8,20c-3.5-5.9-7.6-11.5-10.7-17.5c-3.5-6.7-6.3-13.8-8.6-21
	c-1.2-3.6-2.3-7.3-3.6-10.8c-1.3-3.6-2.7-7.1-4.1-10.6c-2.9-7-5.7-14-9-20.8c-3.3-6.8-7-13.4-10.8-20c-1.9-3.3-3.9-6.5-6.1-9.7
	c-2.1-3.2-4.3-6.3-6.7-9.4l-0.9,0.4c0.8,3.8,1.8,7.5,2.9,11.1c1.1,3.7,2.3,7.3,3.5,10.9c2.5,7.2,5.3,14.2,8.3,21.1
	c3,6.9,6.6,13.6,10.1,20.3c1.8,3.3,3.5,6.7,5.4,10c1.9,3.3,3.9,6.5,5.9,9.7c4.1,6.4,7.7,13.1,10.6,20.1c2.6,6.3,4.3,13,6.5,19.5
	c-4-5.5-8.6-10.8-12.2-16.5c-4-6.4-7.5-13.2-10.4-20.2c-1.5-3.5-2.9-7-4.6-10.5c-1.6-3.5-3.3-6.8-5.1-10.2
	c-3.5-6.7-6.9-13.5-10.8-20s-8.1-12.8-12.5-19c-2.2-3.1-4.5-6.1-6.9-9.1s-4.8-6-7.4-8.8l-0.9,0.5c1.1,3.7,2.5,7.3,3.9,10.9
	c1.4,3.5,2.9,7,4.5,10.5c3.1,6.9,6.5,13.7,10.1,20.3c3.6,6.6,7.8,13,11.9,19.3c2.1,3.2,4.1,6.4,6.3,9.5c2.2,3.1,4.5,6.1,6.8,9.2
	c4.6,6,8.8,12.4,12.3,19.1c3.2,6,5.4,12.6,8.2,18.8c-4.5-5.1-9.5-10-13.6-15.4c-4.6-6.1-8.6-12.5-12.1-19.2c-1.8-3.4-3.5-6.7-5.5-10
	c-1.9-3.2-3.9-6.5-5.9-9.7c-4-6.4-8-12.8-12.5-18.9c-4.5-6.1-9.2-12-14.2-17.8c-2.5-2.9-5-5.7-7.6-8.5c-2.6-2.8-5.3-5.5-8.2-8.1
	l-0.8,0.6c1.5,3.6,3.1,7.1,4.8,10.5c1.7,3.4,3.5,6.8,5.4,10.1c3.7,6.6,7.7,13.1,11.9,19.4c4.2,6.3,8.9,12.3,13.5,18.2
	c2.3,3,4.6,6,7.1,8.9c2.5,2.9,5,5.7,7.6,8.6c5.2,5.6,9.8,11.6,13.9,17.9c3.7,5.7,6.5,12.1,9.8,18.1c-4.9-4.7-10.3-9.1-14.9-14.1
	c-5.1-5.6-9.7-11.7-13.7-18.1c-2.1-3.2-4.1-6.4-6.3-9.5c-2.2-3.1-4.5-6.1-6.7-9.1c-4.6-6-9.1-12.1-14.1-17.8
	c-5-5.7-10.2-11.2-15.7-16.5c-2.7-2.6-5.5-5.3-8.4-7.8c-2.9-2.5-5.8-5-8.9-7.4l-0.8,0.6c1.8,3.5,3.7,6.8,5.7,10
	c2,3.2,4.1,6.4,6.2,9.6c4.3,6.3,8.8,12.4,13.5,18.3c4.7,5.9,9.9,11.4,15,17c2.6,2.8,5.1,5.6,7.8,8.2c2.7,2.7,5.5,5.3,8.3,7.9
	c5.6,5.1,10.8,10.7,15.4,16.7c4.2,5.4,7.5,11.4,11.3,17.1c-5.3-4.3-11.1-8.2-16.1-12.8c-5.6-5.2-10.7-10.8-15.2-16.8
	c-2.4-3-4.7-6-7.1-8.9c-2.5-2.9-5-5.7-7.5-8.5c-5.3-5.6-10.3-11.2-15.8-16.5c-5.5-5.2-11.1-10.2-17-15.1c-2.9-2.4-5.9-4.8-9-7
	s-6.2-4.5-9.5-6.6l-0.7,0.7c2.1,3.3,4.3,6.4,6.6,9.5c2.3,3.1,4.6,6.1,7,9c4.8,5.9,9.8,11.5,15.1,17c5.2,5.5,10.9,10.5,16.5,15.6
	c2.8,2.5,5.6,5.1,8.5,7.5c2.9,2.4,5.9,4.8,8.9,7.1c6,4.6,11.7,9.7,16.8,15.3c4.6,5,8.5,10.7,12.8,16.1c-5.7-3.8-11.8-7.2-17.1-11.3
	c-6-4.7-11.6-9.8-16.7-15.4c-2.6-2.8-5.2-5.6-7.9-8.3c-2.7-2.7-5.5-5.3-8.2-7.8c-5.5-5.1-11.1-10.3-17-15.1
	c-5.9-4.7-12-9.2-18.3-13.5c-3.1-2.1-6.3-4.2-9.6-6.2s-6.6-3.9-10-5.7l-0.6,0.8c2.3,3.1,4.8,6,7.4,8.9c2.5,2.9,5.1,5.6,7.8,8.4
	c5.3,5.4,10.8,10.7,16.5,15.6c5.7,5,11.7,9.5,17.8,14.1c3,2.3,6,4.6,9.1,6.7c3.1,2.1,6.3,4.2,9.5,6.3c6.4,4,12.5,8.6,18.1,13.7
	c5,4.6,9.4,10,14.1,14.9c-6-3.3-12.3-6.1-18.1-9.8c-6.4-4.1-12.4-8.8-17.9-13.9c-2.8-2.5-5.6-5.1-8.6-7.5s-5.9-4.8-8.9-7.1
	c-6-4.7-11.9-9.3-18.2-13.5c-6.3-4.2-12.8-8.2-19.4-11.9c-3.3-1.9-6.7-3.7-10.1-5.4c-3.4-1.7-6.9-3.4-10.5-4.8l-0.6,0.8
	c2.6,2.9,5.3,5.6,8.1,8.2c2.8,2.6,5.6,5.2,8.5,7.6c5.8,5,11.7,9.7,17.8,14.1c6.1,4.5,12.5,8.5,18.9,12.5c3.2,2,6.4,4.1,9.7,5.9
	c3.3,1.9,6.7,3.7,10,5.5c6.8,3.5,13.2,7.5,19.3,12.1c5.4,4.1,10.2,9.1,15.4,13.6c-6.3-2.8-12.8-5-18.8-8.2
	c-6.7-3.5-13.1-7.7-19.1-12.3c-3-2.3-6.1-4.6-9.2-6.8c-3.1-2.2-6.3-4.2-9.5-6.3c-6.3-4.1-12.7-8.2-19.3-11.9
	c-6.6-3.6-13.4-7-20.3-10.1c-3.5-1.6-7-3.1-10.5-4.5c-3.5-1.4-7.1-2.7-10.9-3.9l-0.5,0.9c2.8,2.6,5.8,5.1,8.8,7.4
	c3,2.4,6,4.7,9.1,6.9c6.2,4.4,12.5,8.6,19,12.5c6.5,3.9,13.2,7.4,20,10.8c3.4,1.7,6.7,3.5,10.2,5.1s7,3.1,10.5,4.6
	c7,2.9,13.8,6.3,20.2,10.4c5.8,3.6,11,8.2,16.5,12.2c-6.5-2.2-13.2-3.9-19.5-6.5c-7-3-13.7-6.5-20.1-10.6c-3.2-2-6.5-4.1-9.7-6
	s-6.6-3.7-10-5.4c-6.7-3.5-13.4-7.1-20.3-10.1c-6.9-3-14-5.8-21.2-8.3c-3.6-1.2-7.2-2.4-10.9-3.5c-3.7-1.1-7.4-2.1-11.2-2.9
	l-0.4,0.9c3.1,2.4,6.2,4.6,9.4,6.7c3.2,2.1,6.4,4.1,9.7,6.1c6.5,3.9,13.2,7.5,20,10.8c6.8,3.3,13.8,6.2,20.8,9
	c3.5,1.4,7,2.9,10.6,4.1c3.6,1.3,7.2,2.4,10.8,3.6c7.2,2.3,14.3,5.1,21,8.6c6,3.1,11.7,7.2,17.5,10.7c-6.6-1.6-13.5-2.7-20-4.8
	c-7.2-2.3-14.2-5.3-20.9-8.8c-3.4-1.7-6.8-3.5-10.2-5.1c-3.4-1.6-6.9-3.1-10.4-4.5c-7-2.9-13.9-5.9-21.1-8.3
	c-7.2-2.4-14.4-4.6-21.8-6.4c-3.7-0.9-7.4-1.8-11.1-2.6c-3.8-0.7-7.5-1.5-11.4-1.9l-0.4,0.9c3.3,2.1,6.6,4,10,5.8
	c3.4,1.8,6.8,3.5,10.2,5.2c6.9,3.3,13.8,6.3,20.8,9.1c7.1,2.7,14.3,5,21.5,7.2c3.6,1.1,7.2,2.3,10.9,3.2c3.7,0.9,7.4,1.8,11.1,2.7
	c7.4,1.6,14.7,3.9,21.7,6.7c6.3,2.6,12.2,6.2,18.4,9.2c-6.8-1-13.7-1.5-20.3-3c-7.4-1.7-14.6-4.1-21.6-7c-3.5-1.4-7.1-2.9-10.6-4.2
	c-3.6-1.3-7.2-2.5-10.8-3.6c-7.2-2.3-14.4-4.7-21.8-6.5c-7.3-1.8-14.8-3.3-22.3-4.5c-3.7-0.6-7.5-1.2-11.3-1.6
	c-3.8-0.4-7.6-0.8-11.5-0.9l-0.3,1c3.4,1.8,6.9,3.4,10.4,4.9s7,2.9,10.6,4.3c7.1,2.7,14.3,5.1,21.6,7.2c7.3,2.1,14.7,3.7,22.1,5.3
	c3.7,0.8,7.4,1.6,11.1,2.2c3.7,0.6,7.5,1.2,11.3,1.7c7.5,1,15,2.6,22.2,4.8c6.5,2,12.7,5.1,19.1,7.5c-6.8-0.5-13.8-0.3-20.5-1.2
	c-7.5-1-14.9-2.7-22.1-5c-3.6-1.1-7.3-2.3-11-3.2c-3.7-1-7.4-1.8-11-2.7c-7.4-1.7-14.8-3.4-22.2-4.5s-15-2-22.6-2.6
	c-3.8-0.3-7.6-0.5-11.4-0.6s-7.7-0.1-11.5,0.1l-0.2,1c3.6,1.5,7.2,2.8,10.8,4c3.6,1.2,7.3,2.3,10.9,3.3c7.3,2.1,14.7,3.8,22.1,5.3
	c7.4,1.5,14.9,2.4,22.5,3.3c3.8,0.5,7.5,1,11.3,1.3s7.6,0.5,11.4,0.7c7.6,0.3,15.1,1.2,22.5,2.8c6.7,1.5,13.1,3.9,19.7,5.8
	c-6.8,0.1-13.7,0.9-20.5,0.5c-7.6-0.4-15.1-1.4-22.5-3.1c-3.7-0.8-7.4-1.6-11.2-2.3s-7.5-1.2-11.2-1.7c-7.5-1-15-2.1-22.6-2.6
	s-15.1-0.7-22.7-0.6c-3.8,0-7.6,0.1-11.4,0.4s-7.6,0.5-11.5,1.1l-0.1,1c3.7,1.2,7.4,2.2,11.1,3s7.4,1.7,11.2,2.4
	c7.5,1.4,15,2.5,22.5,3.4c7.5,0.8,15.1,1.1,22.7,1.4c3.8,0.1,7.6,0.3,11.4,0.3s7.6-0.2,11.4-0.3c7.6-0.4,15.2-0.1,22.7,0.9
	c6.8,0.9,13.4,2.8,20.1,4.1c-6.8,0.7-13.6,2.1-20.4,2.3c-7.6,0.3-15.2-0.1-22.7-1.1c-3.8-0.5-7.6-1-11.3-1.3s-7.6-0.5-11.3-0.7
	c-7.6-0.4-15.1-0.8-22.7-0.6c-7.6,0.2-15.1,0.6-22.7,1.4c-3.8,0.4-7.6,0.8-11.3,1.4c-3.8,0.6-7.6,1.2-11.3,2.1v1
	c3.8,0.9,7.6,1.5,11.3,2c3.8,0.5,7.6,1,11.3,1.4c7.6,0.8,15.1,1.2,22.7,1.4c7.6,0.2,15.1-0.2,22.7-0.6c3.8-0.2,7.6-0.3,11.3-0.7
	s7.6-0.8,11.3-1.3c7.5-1,15.1-1.4,22.7-1.1c6.8,0.3,13.6,1.6,20.4,2.3c-6.7,1.3-13.4,3.2-20.1,4.1c-7.5,0.9-15.1,1.2-22.7,0.9
	c-3.8-0.1-7.6-0.3-11.4-0.3s-7.6,0.1-11.4,0.3c-7.6,0.3-15.1,0.5-22.7,1.4c-7.5,0.8-15,2-22.5,3.4c-3.7,0.7-7.5,1.5-11.2,2.4
	s-7.4,1.8-11.1,3l0.1,1c3.8,0.5,7.7,0.8,11.5,1.1s7.6,0.4,11.4,0.4c7.6,0.1,15.2-0.1,22.7-0.6c7.5-0.5,15-1.5,22.6-2.6
	c3.7-0.5,7.5-1,11.2-1.7s7.5-1.5,11.2-2.3c7.4-1.7,14.9-2.7,22.5-3c6.8-0.3,13.7,0.4,20.5,0.5c-6.6,1.9-13,4.4-19.7,5.8
	c-7.4,1.6-15,2.5-22.5,2.8c-3.8,0.2-7.6,0.4-11.4,0.7s-7.5,0.8-11.3,1.3c-7.5,0.9-15,1.9-22.5,3.3c-7.5,1.5-14.8,3.3-22.1,5.3
	c-3.7,1-7.3,2.1-10.9,3.3c-3.6,1.2-7.2,2.5-10.8,4l0.2,1c3.9,0.2,7.7,0.2,11.5,0s7.6-0.3,11.4-0.6c7.6-0.6,15.1-1.4,22.6-2.6
	c7.5-1.1,14.9-2.9,22.2-4.5c3.7-0.8,7.4-1.6,11-2.7s7.3-2.1,11-3.2c7.2-2.3,14.6-4,22.1-5c6.7-0.9,13.7-0.8,20.5-1.2
	c-6.4,2.5-12.6,5.5-19.1,7.5c-7.3,2.2-14.7,3.8-22.2,4.8c-3.8,0.5-7.5,1-11.3,1.7s-7.4,1.4-11.1,2.2c-7.4,1.6-14.8,3.2-22.1,5.3
	c-7.3,2.1-14.5,4.5-21.6,7.2c-3.5,1.4-7.1,2.8-10.6,4.3c-3.5,1.5-7,3.1-10.4,4.9l0.3,1c3.9-0.1,7.7-0.5,11.5-1
	c3.8-0.5,7.6-1,11.3-1.6c7.5-1.2,14.9-2.7,22.3-4.5c7.3-1.8,14.5-4.1,21.8-6.5c3.6-1.2,7.2-2.3,10.8-3.6c3.6-1.3,7.1-2.7,10.6-4.2
	c7-2.9,14.2-5.3,21.6-7c6.6-1.5,13.6-2,20.3-3c-6.1,3-12.1,6.6-18.4,9.2c-7,2.9-14.3,5.1-21.7,6.7c-3.7,0.9-7.4,1.7-11.1,2.7
	s-7.3,2.1-10.9,3.2c-7.2,2.2-14.5,4.4-21.5,7.2c-7.1,2.7-14,5.8-20.8,9.1c-3.4,1.6-6.8,3.4-10.2,5.2c-3.4,1.8-6.7,3.7-10,5.8
	l0.4,0.9c3.8-0.5,7.6-1.2,11.4-1.9c3.7-0.8,7.5-1.6,11.1-2.6c7.4-1.9,14.6-4,21.8-6.5c7.2-2.4,14.1-5.4,21.1-8.3
	c3.5-1.5,7-2.9,10.4-4.5c3.4-1.6,6.8-3.4,10.2-5.1c6.7-3.5,13.7-6.5,20.9-8.8c6.5-2.1,13.3-3.2,20-4.8c-5.9,3.5-11.5,7.6-17.5,10.7
	c-6.8,3.5-13.8,6.3-21,8.6c-3.6,1.2-7.3,2.3-10.8,3.6s-7.1,2.7-10.6,4.1c-7,2.8-14,5.7-20.8,9c-6.8,3.3-13.4,7-20,10.8
	c-3.3,1.9-6.5,3.9-9.7,6.1c-3.2,2.1-6.3,4.3-9.4,6.7l0.4,0.9c3.8-0.8,7.5-1.8,11.2-2.9c3.7-1.1,7.3-2.3,10.9-3.5
	c7.2-2.5,14.2-5.3,21.2-8.3c6.9-3,13.6-6.6,20.3-10.1c3.3-1.8,6.7-3.5,10-5.4c3.3-1.9,6.5-3.9,9.7-6c6.4-4.1,13.1-7.6,20.1-10.6
	c6.3-2.6,13-4.3,19.5-6.5c-5.5,4-10.7,8.6-16.5,12.2c-6.4,4-13.2,7.5-20.2,10.4c-3.5,1.5-7,3-10.5,4.6c-3.5,1.6-6.8,3.3-10.2,5
	c-6.7,3.5-13.5,6.9-20,10.8c-6.5,3.9-12.8,8.1-19,12.5c-3.1,2.2-6.1,4.5-9.1,6.9c-3,2.4-6,4.8-8.8,7.5l0.5,0.9
	c3.7-1.1,7.3-2.5,10.9-3.9c3.5-1.4,7.1-2.9,10.5-4.5c7-3.1,13.8-6.5,20.4-10.1c6.6-3.6,13-7.8,19.3-11.9c3.2-2.1,6.4-4.1,9.5-6.3
	c3.1-2.2,6.1-4.5,9.2-6.8c6-4.7,12.4-8.8,19.1-12.3c6-3.2,12.6-5.4,18.8-8.2c-5.2,4.5-10,9.5-15.4,13.6c-6.1,4.6-12.5,8.6-19.2,12.1
	c-3.4,1.8-6.7,3.5-10,5.5c-3.2,1.9-6.5,3.9-9.7,5.9c-6.4,4-12.8,8-18.9,12.5c-6.1,4.5-12,9.2-17.8,14.1c-2.9,2.5-5.7,5-8.5,7.7
	c-2.8,2.7-5.5,5.3-8.1,8.2l0.6,0.8c3.6-1.5,7.1-3.1,10.5-4.8c3.4-1.7,6.8-3.5,10.1-5.4c6.6-3.7,13.1-7.7,19.4-11.9
	c6.3-4.2,12.2-8.9,18.2-13.5c3-2.3,6-4.6,8.9-7.1c2.9-2.5,5.7-5,8.6-7.5c5.6-5.2,11.6-9.8,17.9-13.9c5.7-3.7,12.1-6.5,18.1-9.8
	c-4.7,4.9-9.1,10.3-14.1,14.9c-5.6,5.1-11.7,9.7-18.1,13.7c-3.2,2.1-6.4,4.1-9.5,6.3c-3.1,2.2-6.1,4.5-9.1,6.7
	c-6,4.6-12.1,9.1-17.8,14.1s-11.2,10.2-16.5,15.6c-2.7,2.7-5.3,5.5-7.8,8.4c-2.5,2.9-5,5.8-7.4,8.9l0.6,0.8c3.5-1.8,6.8-3.7,10-5.7
	c3.2-2,6.4-4.1,9.6-6.2c6.3-4.3,12.4-8.8,18.3-13.5c5.9-4.7,11.4-9.9,17-15.1c2.8-2.6,5.6-5.1,8.2-7.8c2.7-2.7,5.3-5.5,7.9-8.3
	c5.1-5.6,10.7-10.8,16.7-15.4c5.4-4.2,11.4-7.5,17.1-11.3c-4.3,5.3-8.2,11.1-12.8,16.1c-5.2,5.6-10.8,10.7-16.8,15.2
	c-3,2.4-6,4.7-8.9,7.1c-2.9,2.4-5.7,5-8.5,7.5c-5.6,5.1-11.2,10.1-16.5,15.6c-5.2,5.5-10.2,11.1-15.1,17c-2.4,2.9-4.8,5.9-7,9
	c-2.2,3.1-4.5,6.2-6.6,9.5l0.7,0.7c3.3-2,6.4-4.3,9.5-6.6c3.1-2.3,6.1-4.6,9-7c5.9-4.8,11.5-9.8,17-15.1
	c5.5-5.2,10.5-10.8,15.6-16.5c2.5-2.8,5.1-5.6,7.5-8.5c2.4-2.9,4.8-5.9,7.1-8.9c4.6-6,9.7-11.7,15.2-16.8c5-4.6,10.8-8.5,16.1-12.8
	c-3.8,5.7-7.2,11.7-11.3,17.1c-4.7,6-9.8,11.6-15.4,16.7c-2.8,2.6-5.6,5.2-8.3,7.9c-2.7,2.7-5.3,5.5-7.8,8.2
	c-5.1,5.5-10.3,11.1-15,17c-4.7,5.9-9.2,12-13.5,18.3c-2.1,3.1-4.2,6.3-6.2,9.6c-2,3.3-4,6.6-5.7,10l0.8,0.6c3.1-2.3,6-4.8,8.9-7.4
	c2.9-2.5,5.6-5.1,8.4-7.8c5.4-5.3,10.7-10.8,15.7-16.5c5-5.7,9.5-11.7,14.1-17.8c2.3-3,4.6-6,6.7-9.2c2.1-3.2,4.2-6.3,6.3-9.5
	c4.1-6.4,8.6-12.5,13.7-18.1c4.6-5,10-9.4,14.9-14.1c-3.3,6-6.1,12.3-9.8,18.1c-4.1,6.4-8.8,12.4-13.9,18c-2.5,2.8-5.1,5.6-7.6,8.6
	c-2.4,2.9-4.8,5.9-7.1,8.9c-4.6,6-9.3,11.9-13.5,18.2c-4.2,6.3-8.2,12.8-11.9,19.4c-1.9,3.3-3.7,6.7-5.4,10.1
	c-1.7,3.4-3.4,6.9-4.8,10.5l0.8,0.6c2.9-2.6,5.6-5.3,8.2-8.1s5.2-5.6,7.6-8.5c5-5.8,9.7-11.7,14.2-17.8c4.5-6.1,8.5-12.5,12.5-18.9
	c2-3.2,4.1-6.4,5.9-9.7c1.9-3.3,3.7-6.7,5.5-10c3.5-6.8,7.5-13.2,12.1-19.3c4.1-5.4,9.1-10.2,13.6-15.4c-2.8,6.3-5,12.8-8.2,18.8
	c-3.6,6.7-7.7,13.1-12.3,19.1c-2.3,3-4.6,6.1-6.8,9.2s-4.2,6.3-6.3,9.5c-4.1,6.4-8.2,12.7-11.9,19.3c-3.6,6.6-7,13.4-10.1,20.3
	c-1.6,3.5-3.1,7-4.5,10.5s-2.8,7.1-3.9,10.8l0.9,0.5c2.6-2.8,5.1-5.8,7.4-8.8c2.4-3,4.7-6,6.9-9.1c4.4-6.2,8.6-12.5,12.5-19
	c3.9-6.5,7.4-13.2,10.8-20c1.7-3.4,3.5-6.7,5.1-10.2c1.6-3.5,3.1-7,4.6-10.5c2.9-7,6.3-13.7,10.4-20.1c3.6-5.8,8.2-11,12.2-16.5
	c-2.2,6.5-3.9,13.2-6.5,19.5c-3,7-6.5,13.7-10.6,20c-2,3.2-4.1,6.4-5.9,9.7c-1.9,3.3-3.7,6.6-5.4,10c-3.5,6.7-7.1,13.4-10.1,20.3
	c-3,6.9-5.8,14-8.3,21.2c-1.3,3.6-2.5,7.2-3.5,10.9s-2.1,7.4-2.9,11.2l0.9,0.4c2.4-3.1,4.6-6.2,6.7-9.4c2.1-3.2,4.1-6.4,6.1-9.7
	c3.9-6.5,7.5-13.2,10.8-20c3.3-6.8,6.2-13.8,9-20.8c1.4-3.5,2.9-7,4.1-10.6c1.3-3.6,2.4-7.2,3.6-10.8c2.2-7.2,5.1-14.3,8.6-21
	c3.1-6.1,7.2-11.7,10.7-17.5c-1.6,6.6-2.7,13.5-4.8,20c-2.3,7.2-5.3,14.2-8.8,20.9c-1.7,3.4-3.5,6.8-5.1,10.2
	c-1.6,3.4-3.1,6.9-4.5,10.4c-3,7-5.9,14-8.3,21.1c-2.4,7.1-4.6,14.4-6.5,21.8c-0.9,3.7-1.8,7.4-2.6,11.1s-1.5,7.5-2,11.4l0.9,0.3
	c2.1-3.2,4-6.6,5.8-10c1.8-3.4,3.5-6.8,5.2-10.2c3.3-6.9,6.3-13.8,9.1-20.9c2.7-7,5-14.3,7.2-21.5c1.1-3.6,2.3-7.2,3.2-10.9
	c0.9-3.7,1.8-7.4,2.7-11.1c1.6-7.4,3.9-14.7,6.7-21.7c2.6-6.3,6.1-12.2,9.2-18.4c-1,6.8-1.5,13.7-3,20.3c-1.7,7.4-4.1,14.6-7,21.6
	c-1.4,3.5-2.9,7.1-4.2,10.6c-1.3,3.6-2.5,7.2-3.6,10.8c-2.3,7.2-4.7,14.4-6.5,21.8s-3.3,14.8-4.5,22.3c-0.6,3.8-1.2,7.5-1.6,11.3
	c-0.4,3.8-0.8,7.6-1,11.5l1,0.2c1.8-3.4,3.4-6.9,4.9-10.4c1.5-3.5,2.9-7,4.3-10.6c2.7-7.1,5.1-14.3,7.2-21.6
	c2.1-7.3,3.7-14.7,5.3-22.1c0.8-3.7,1.6-7.4,2.2-11.1c0.6-3.8,1.2-7.5,1.7-11.3c1-7.5,2.6-15,4.8-22.2c2-6.5,5.1-12.7,7.5-19.1
	c-0.5,6.8-0.3,13.8-1.2,20.5c-1,7.5-2.7,14.9-5,22.2c-1.1,3.6-2.3,7.3-3.2,10.9c-1,3.7-1.8,7.4-2.7,11.1c-1.7,7.4-3.4,14.8-4.5,22.2
	c-1.1,7.5-2,15-2.6,22.6c-0.3,3.8-0.5,7.6-0.6,11.4s-0.1,7.7,0,11.5l1,0.2c1.5-3.6,2.8-7.2,4-10.8c1.2-3.6,2.3-7.3,3.3-10.9
	c2-7.3,3.8-14.7,5.3-22.1c1.5-7.4,2.4-14.9,3.3-22.4c0.5-3.8,1-7.5,1.3-11.3c0.3-3.8,0.5-7.6,0.7-11.4c0.3-7.6,1.3-15.1,2.8-22.5
	c1.4-6.6,3.9-13.1,5.8-19.7c0.1,6.8,0.9,13.7,0.5,20.5c-0.4,7.6-1.4,15.1-3.1,22.5c-0.8,3.7-1.6,7.4-2.3,11.2
	c-0.6,3.7-1.2,7.5-1.7,11.2c-1,7.5-2.1,15-2.6,22.6c-0.5,7.6-0.7,15.1-0.6,22.7c0,3.8,0.1,7.6,0.4,11.4c0.2,3.8,0.5,7.6,1.1,11.5
	l1,0.1c1.2-3.7,2.2-7.4,3-11.1s1.7-7.4,2.4-11.2c1.4-7.5,2.5-15,3.4-22.5c0.8-7.5,1.1-15.1,1.4-22.7c0.1-3.8,0.3-7.6,0.3-11.4
	c0-3.8-0.2-7.6-0.3-11.4c-0.4-7.6-0.1-15.2,0.8-22.7c0.9-6.8,2.8-13.4,4.1-20.1c0.7,6.8,2.1,13.6,2.3,20.4
	c0.3,7.6-0.1,15.2-1.1,22.7c-0.5,3.8-1,7.6-1.3,11.3c-0.3,3.8-0.5,7.6-0.7,11.3c-0.4,7.6-0.8,15.1-0.6,22.7s0.6,15.1,1.4,22.7
	c0.4,3.8,0.8,7.6,1.4,11.3s1.2,7.6,2.1,11.3h1c0.9-3.8,1.5-7.6,2.1-11.3s1-7.6,1.4-11.3c0.8-7.6,1.2-15.1,1.4-22.7
	c0.2-7.6-0.2-15.1-0.6-22.7c-0.2-3.8-0.3-7.6-0.7-11.3c-0.4-3.8-0.8-7.6-1.3-11.3c-1-7.5-1.4-15.1-1.1-22.6
	c0.3-6.8,1.6-13.6,2.3-20.4c1.3,6.7,3.2,13.4,4.1,20.1c0.9,7.5,1.2,15.1,0.9,22.7c-0.1,3.8-0.3,7.6-0.3,11.4c0,3.8,0.1,7.6,0.3,11.4
	c0.3,7.6,0.5,15.1,1.4,22.7s2,15,3.4,22.5c0.7,3.7,1.5,7.5,2.4,11.2c0.9,3.7,1.8,7.4,3,11.1l1-0.1c0.5-3.8,0.9-7.7,1.1-11.5
	s0.4-7.6,0.4-11.4c0.1-7.6-0.1-15.2-0.6-22.7c-0.5-7.5-1.5-15-2.6-22.6c-0.5-3.7-1-7.5-1.7-11.2s-1.5-7.5-2.3-11.2
	c-1.7-7.4-2.7-14.9-3.1-22.5c-0.3-6.8,0.4-13.7,0.5-20.5c1.9,6.6,4.4,13,5.8,19.7c1.6,7.4,2.5,15,2.8,22.5c0.2,3.8,0.4,7.6,0.7,11.4
	s0.8,7.5,1.3,11.3c0.9,7.5,1.9,15,3.3,22.4c1.5,7.4,3.2,14.8,5.3,22.1c1,3.7,2.1,7.3,3.3,10.9c1.2,3.6,2.5,7.2,4,10.8l1-0.2
	c0.2-3.9,0.2-7.7,0.1-11.5s-0.3-7.6-0.6-11.4c-0.6-7.6-1.4-15.1-2.6-22.6c-1.1-7.5-2.8-14.9-4.5-22.2c-0.9-3.7-1.6-7.4-2.7-11.1
	s-2.1-7.3-3.2-10.9c-2.3-7.2-4-14.7-5-22.2c-0.9-6.7-0.8-13.7-1.2-20.5c2.5,6.4,5.5,12.6,7.5,19.1c2.2,7.3,3.8,14.7,4.8,22.2
	c0.5,3.8,1,7.6,1.7,11.3c0.7,3.7,1.5,7.4,2.2,11.1c1.6,7.4,3.2,14.8,5.3,22.1c2.1,7.3,4.5,14.4,7.2,21.6c1.4,3.5,2.8,7.1,4.3,10.6
	c1.5,3.5,3.1,7,4.9,10.4l1-0.2c-0.1-3.9-0.5-7.7-1-11.5s-1-7.6-1.6-11.3c-1.2-7.5-2.7-14.9-4.5-22.3c-1.8-7.3-4.1-14.6-6.5-21.8
	c-1.2-3.6-2.3-7.2-3.6-10.8s-2.7-7.1-4.2-10.6c-2.9-7-5.3-14.2-7-21.6c-1.5-6.6-2-13.6-3-20.3c3,6.1,6.6,12.1,9.2,18.4
	c2.9,7,5.1,14.3,6.7,21.7c0.9,3.7,1.7,7.4,2.7,11.1s2.1,7.3,3.2,10.9c2.2,7.2,4.4,14.5,7.2,21.5c2.7,7,5.8,14,9.1,20.9
	c1.6,3.4,3.3,6.8,5.2,10.2c1.8,3.3,3.7,6.7,5.8,10l0.9-0.3c-0.5-3.8-1.2-7.6-2-11.4s-1.6-7.4-2.6-11.1c-1.9-7.3-4-14.6-6.5-21.8
	c-2.4-7.2-5.4-14.1-8.3-21.1c-1.5-3.5-2.9-7-4.5-10.4c-1.6-3.4-3.4-6.8-5.1-10.2c-3.5-6.7-6.5-13.7-8.8-20.9
	c-2.1-6.5-3.1-13.3-4.8-20c3.5,5.9,7.6,11.5,10.7,17.5c3.5,6.7,6.3,13.8,8.6,21c1.2,3.6,2.3,7.3,3.6,10.8c1.3,3.6,2.7,7.1,4.1,10.6
	c2.8,7,5.7,14,9,20.8c3.3,6.8,7,13.4,10.8,20c1.9,3.3,3.9,6.5,6.1,9.7c2.1,3.2,4.3,6.4,6.7,9.4l0.9-0.4c-0.8-3.8-1.8-7.5-2.9-11.2
	s-2.3-7.3-3.5-10.9c-2.5-7.2-5.3-14.2-8.3-21.2c-3-6.9-6.6-13.6-10.1-20.3c-1.8-3.3-3.5-6.7-5.4-10c-1.9-3.3-3.9-6.5-5.9-9.7
	c-4.1-6.4-7.7-13.1-10.6-20.1c-2.6-6.3-4.3-13-6.5-19.5c4,5.5,8.6,10.8,12.2,16.5c4,6.4,7.5,13.2,10.4,20.2c1.5,3.5,2.9,7,4.6,10.5
	c1.6,3.5,3.3,6.8,5.1,10.2c3.4,6.7,6.9,13.5,10.8,20c3.9,6.5,8.1,12.8,12.6,19c2.2,3.1,4.5,6.1,6.9,9.1c2.4,3,4.8,5.9,7.4,8.8
	l0.9-0.5c-1.1-3.7-2.5-7.3-3.9-10.8s-2.9-7.1-4.5-10.5c-3.1-6.9-6.5-13.7-10.1-20.3c-3.6-6.6-7.8-13-11.9-19.3
	c-2.1-3.2-4.1-6.4-6.3-9.5c-2.2-3.1-4.5-6.1-6.8-9.2c-4.6-6-8.7-12.4-12.2-19.1c-3.2-6-5.4-12.6-8.2-18.8c4.5,5.2,9.5,10,13.6,15.4
	c4.6,6.1,8.6,12.5,12.1,19.2c1.8,3.4,3.5,6.7,5.5,10c1.9,3.2,3.9,6.5,5.9,9.7c4,6.4,8,12.8,12.5,18.9c4.5,6.1,9.2,12,14.2,17.8
	c2.5,2.9,5,5.7,7.6,8.5s5.3,5.5,8.2,8.1l0.8-0.6c-1.5-3.6-3.1-7.1-4.8-10.5c-1.7-3.4-3.5-6.8-5.4-10.1c-3.7-6.6-7.7-13.1-11.9-19.4
	c-4.2-6.3-8.9-12.3-13.5-18.2c-2.3-3-4.6-6-7.1-8.9c-2.5-2.9-5-5.7-7.6-8.6c-5.2-5.6-9.9-11.6-14-17.9c-3.7-5.7-6.5-12.1-9.8-18.1
	c4.9,4.7,10.3,9.1,14.9,14.1c5.1,5.6,9.7,11.7,13.7,18.1c2.1,3.2,4.1,6.4,6.3,9.5s4.5,6.1,6.7,9.2c4.6,6,9.1,12.1,14.1,17.8
	c5,5.7,10.2,11.2,15.7,16.5c2.7,2.6,5.5,5.3,8.4,7.8c2.9,2.5,5.8,5,8.9,7.4l0.8-0.6c-1.8-3.4-3.7-6.8-5.7-10c-2-3.2-4.1-6.4-6.2-9.6
	c-4.3-6.3-8.8-12.4-13.5-18.3c-4.7-5.9-9.9-11.4-15.1-17c-2.6-2.8-5.1-5.6-7.8-8.2c-2.7-2.6-5.5-5.3-8.3-7.9
	c-5.6-5.1-10.8-10.7-15.4-16.7c-4.2-5.4-7.5-11.5-11.3-17.1c5.3,4.3,11.1,8.2,16.1,12.8c5.6,5.2,10.7,10.8,15.2,16.8
	c2.4,3,4.7,6,7.1,8.9c2.5,2.9,5,5.7,7.5,8.5c5.1,5.6,10.1,11.2,15.6,16.5c5.5,5.2,11.1,10.2,17,15.1c2.9,2.4,5.9,4.8,9,7
	c3.1,2.2,6.2,4.5,9.5,6.6l0.7-0.7c-2.1-3.3-4.3-6.4-6.6-9.5c-2.3-3.1-4.6-6.1-7-9c-4.8-5.9-9.8-11.5-15.1-17
	c-5.2-5.5-10.9-10.5-16.5-15.6c-2.8-2.5-5.6-5.1-8.5-7.5c-2.9-2.4-5.9-4.8-8.9-7.1c-6-4.6-11.7-9.7-16.8-15.2
	c-4.6-5-8.5-10.8-12.8-16.1c5.7,3.8,11.8,7.2,17.1,11.3c6,4.7,11.6,9.8,16.7,15.4c2.6,2.8,5.2,5.6,7.9,8.3c2.7,2.7,5.5,5.3,8.2,7.8
	c5.5,5.2,11.1,10.3,17,15.1c5.9,4.7,12,9.2,18.3,13.5c3.2,2.1,6.3,4.2,9.6,6.2c3.3,2,6.6,4,10,5.7l0.6-0.8c-2.3-3.1-4.8-6-7.4-8.9
	c-2.5-2.9-5.1-5.6-7.8-8.4c-5.3-5.4-10.8-10.7-16.5-15.6c-5.7-5-11.7-9.5-17.8-14.1c-3-2.3-6-4.6-9.1-6.7c-3.2-2.1-6.3-4.2-9.5-6.3
	c-6.4-4.1-12.5-8.6-18.1-13.7c-5-4.6-9.4-10-14.1-14.9c6,3.3,12.3,6.1,18.1,9.8c6.4,4.1,12.4,8.8,18,13.9c2.8,2.5,5.7,5.1,8.6,7.5
	c2.9,2.4,5.9,4.8,8.9,7.1c6,4.6,12,9.3,18.2,13.5s12.8,8.2,19.4,11.9c3.3,1.9,6.7,3.7,10.1,5.4c3.4,1.7,6.9,3.4,10.5,4.8l0.6-0.8
	c-2.6-2.9-5.3-5.6-8.1-8.2c-2.8-2.6-5.6-5.2-8.5-7.7c-5.8-5-11.7-9.7-17.8-14.1c-6.1-4.5-12.5-8.5-19-12.5c-3.2-2-6.4-4.1-9.7-5.9
	c-3.3-1.9-6.7-3.7-10-5.5c-6.7-3.5-13.2-7.5-19.2-12.1c-5.4-4.1-10.2-9.1-15.4-13.6c6.3,2.8,12.8,5,18.9,8.2
	c6.7,3.5,13.1,7.7,19.1,12.3c3,2.3,6.1,4.6,9.2,6.8c3.1,2.2,6.3,4.2,9.5,6.3c6.4,4.1,12.7,8.2,19.3,11.9s13.4,7,20.3,10.1
	c3.5,1.6,7,3.1,10.5,4.5c3.5,1.4,7.1,2.8,10.9,3.9l0.5-0.9c-2.8-2.6-5.8-5.1-8.8-7.5c-3-2.4-6-4.7-9.1-6.9
	c-6.2-4.4-12.5-8.6-19-12.5c-6.5-3.9-13.2-7.4-20-10.8c-3.4-1.7-6.7-3.5-10.2-5c-3.5-1.5-7-3.1-10.5-4.6c-7-2.9-13.8-6.3-20.2-10.4
	c-5.8-3.6-11-8.2-16.5-12.2c6.5,2.2,13.2,3.9,19.5,6.5c7,2.9,13.8,6.5,20.2,10.6c3.2,2,6.4,4.1,9.7,6c3.3,1.9,6.6,3.7,10,5.4
	c6.7,3.5,13.4,7.1,20.3,10.1c6.9,3,14,5.8,21.2,8.3c3.6,1.2,7.2,2.5,10.9,3.5c3.7,1.1,7.3,2.1,11.1,2.9l0.4-0.9
	c-3.1-2.4-6.2-4.6-9.4-6.7c-3.2-2.1-6.4-4.1-9.7-6.1c-6.5-3.9-13.2-7.5-20-10.8c-6.8-3.3-13.8-6.2-20.8-9c-3.5-1.4-7-2.9-10.6-4.1
	c-3.6-1.3-7.2-2.4-10.8-3.6c-7.2-2.2-14.3-5.1-21-8.6c-6-3.1-11.7-7.2-17.5-10.7c6.6,1.6,13.5,2.7,20,4.8c7.2,2.3,14.2,5.3,20.9,8.8
	c3.4,1.7,6.8,3.5,10.2,5.1c3.4,1.6,6.9,3.1,10.4,4.5c7,2.9,14,5.9,21.1,8.3c7.1,2.4,14.4,4.6,21.8,6.5c3.7,0.9,7.4,1.8,11.1,2.6
	c3.8,0.7,7.5,1.5,11.4,1.9l0.3-0.9c-3.3-2.1-6.6-4-10-5.8c-3.4-1.8-6.8-3.5-10.2-5.2c-6.8-3.3-13.8-6.3-20.8-9.1
	c-7-2.7-14.3-4.9-21.5-7.2c-3.6-1.1-7.2-2.3-10.9-3.2c-3.7-0.9-7.4-1.8-11.1-2.7c-7.4-1.6-14.7-3.9-21.7-6.7
	c-6.3-2.6-12.2-6.2-18.4-9.2c6.8,1.1,13.7,1.5,20.3,3c7.4,1.7,14.6,4.1,21.6,7c3.5,1.4,7.1,2.9,10.6,4.2c3.6,1.3,7.2,2.5,10.8,3.6
	c7.2,2.3,14.4,4.7,21.8,6.5c7.3,1.8,14.8,3.3,22.3,4.5c3.8,0.6,7.5,1.2,11.3,1.6c3.8,0.4,7.6,0.8,11.5,1l0.3-1
	c-3.4-1.8-6.9-3.4-10.4-4.9c-3.5-1.5-7-2.9-10.6-4.3c-7.1-2.7-14.3-5.1-21.6-7.2c-7.3-2.1-14.7-3.7-22.1-5.3
	c-3.7-0.8-7.4-1.6-11.1-2.2c-3.7-0.6-7.5-1.2-11.3-1.7c-7.5-1-15-2.6-22.2-4.8c-6.5-2-12.7-5.1-19.1-7.5c6.8,0.5,13.8,0.3,20.5,1.2
	c7.5,1,14.9,2.7,22.1,5c3.6,1.1,7.3,2.2,11,3.2c3.7,1,7.4,1.8,11,2.7c7.4,1.7,14.8,3.4,22.2,4.5s15,2,22.6,2.6
	c3.8,0.3,7.6,0.5,11.4,0.6c3.8,0.1,7.7,0.1,11.5,0l0.2-1c-3.6-1.5-7.2-2.8-10.8-4c-3.6-1.2-7.3-2.3-10.9-3.3
	c-7.3-2-14.7-3.8-22.1-5.3c-7.4-1.5-14.9-2.4-22.5-3.3c-3.8-0.5-7.5-1-11.3-1.3c-3.8-0.3-7.6-0.5-11.4-0.7
	c-7.6-0.3-15.1-1.2-22.5-2.8c-6.7-1.4-13.1-3.9-19.7-5.8c6.8-0.1,13.7-0.9,20.5-0.5c7.6,0.4,15.1,1.4,22.5,3.1
	c3.7,0.8,7.4,1.6,11.2,2.3s7.5,1.2,11.2,1.7c7.5,1,15,2.1,22.5,2.6s15.1,0.7,22.7,0.6c3.8,0,7.6-0.1,11.4-0.4
	c3.8-0.2,7.6-0.5,11.5-1.1l0.1-1c-3.7-1.2-7.4-2.2-11.1-3c-3.7-0.8-7.4-1.7-11.2-2.4c-7.5-1.4-15-2.5-22.5-3.4
	c-7.5-0.8-15.1-1.1-22.7-1.4c-3.8-0.1-7.6-0.3-11.4-0.3c-3.8,0-7.6,0.2-11.4,0.3c-7.6,0.4-15.2,0.1-22.7-0.9
	c-6.8-0.9-13.4-2.8-20.1-4.1c6.8-0.7,13.6-2.1,20.4-2.3C539.5,295.6,547.1,296,554.6,297z M421.7,336.9h-1c-0.7,2.8-1.3,5.6-1.7,8.4
	c-0.2-2.8-0.5-5.7-1-8.5l-1-0.1c-1,2.7-1.7,5.5-2.4,8.2c0-2.8,0-5.7-0.2-8.6l-1-0.2c-1.2,2.6-2.2,5.3-3.2,8c0.3-2.8,0.5-5.7,0.5-8.6
	l-1-0.2c-1.4,2.5-2.7,5.1-3.8,7.7c0.5-2.8,1-5.6,1.2-8.5l-0.9-0.4c-1.6,2.4-3.1,4.8-4.5,7.3c0.8-2.7,1.5-5.5,2-8.4l-0.9-0.4
	c-1.9,2.2-3.5,4.5-5.1,6.9c1-2.6,1.9-5.3,2.7-8.1l-0.9-0.5c-2,2.1-3.9,4.2-5.7,6.4c1.2-2.6,2.4-5.2,3.4-7.9l-0.8-0.6
	c-2.2,1.9-4.3,3.9-6.2,5.9c1.5-2.4,2.8-4.9,4.1-7.5l-0.8-0.6c-2.4,1.7-4.6,3.5-6.7,5.3c1.7-2.3,3.3-4.7,4.7-7.2l-0.7-0.7
	c-2.5,1.5-4.9,3.1-7.2,4.7c1.8-2.1,3.6-4.4,5.3-6.7l-0.6-0.8c-2.6,1.2-5.1,2.6-7.6,4.1c2-2,4-4,5.9-6.2l-0.6-0.8
	c-2.7,1-5.3,2.2-7.9,3.4c2.2-1.8,4.3-3.7,6.4-5.7l-0.5-0.9c-2.8,0.8-5.5,1.7-8.1,2.7c2.3-1.6,4.6-3.3,6.9-5.1l-0.4-0.9
	c-2.8,0.5-5.6,1.2-8.4,2c2.5-1.4,4.9-2.9,7.3-4.5l-0.3-0.9c-2.9,0.3-5.7,0.7-8.5,1.2c2.6-1.2,5.1-2.4,7.7-3.8l-0.3-1
	c-2.9,0-5.7,0.2-8.6,0.5c2.7-0.9,5.3-2,8-3.2l-0.2-1c-2.9-0.2-5.7-0.3-8.6-0.2c2.7-0.7,5.5-1.5,8.2-2.5l-0.1-1
	c-2.9-0.5-5.7-0.8-8.5-1c2.8-0.5,5.6-1,8.4-1.7v-1c-2.8-0.7-5.6-1.3-8.4-1.7c2.8-0.2,5.7-0.5,8.5-1l0.1-1c-2.7-1-5.5-1.8-8.2-2.5
	c2.8,0,5.7,0,8.6-0.2l0.2-1c-2.6-1.2-5.3-2.2-8-3.2c2.8,0.3,5.7,0.5,8.6,0.5l0.3-1c-2.5-1.4-5.1-2.7-7.7-3.8c2.8,0.5,5.6,1,8.5,1.3
	l0.3-0.9c-2.4-1.6-4.8-3.1-7.3-4.5c2.7,0.8,5.5,1.5,8.4,2l0.4-0.9c-2.2-1.8-4.5-3.5-6.9-5.1c2.6,1,5.3,1.9,8.1,2.7l0.5-0.9
	c-2.1-2-4.2-3.9-6.4-5.7c2.5,1.2,5.2,2.4,7.9,3.4l0.6-0.8c-1.9-2.2-3.9-4.3-5.9-6.2c2.4,1.4,4.9,2.8,7.6,4.1l0.6-0.8
	c-1.7-2.4-3.5-4.6-5.3-6.7c2.3,1.7,4.7,3.3,7.2,4.7l0.7-0.7c-1.5-2.5-3.1-4.9-4.7-7.2c2.2,1.9,4.4,3.6,6.7,5.3l0.8-0.6
	c-1.2-2.6-2.6-5.1-4.1-7.6c2,2,4,4,6.2,5.9l0.8-0.6c-1-2.7-2.2-5.3-3.4-7.9c1.8,2.2,3.7,4.4,5.7,6.4l0.9-0.5
	c-0.8-2.8-1.7-5.5-2.7-8.1c1.6,2.3,3.3,4.7,5.1,6.9l0.9-0.4c-0.5-2.8-1.2-5.6-2-8.3c1.4,2.5,2.9,4.9,4.5,7.3l0.9-0.3
	c-0.3-2.9-0.7-5.7-1.2-8.5c1.2,2.6,2.4,5.2,3.8,7.7l1-0.3c0-2.9-0.2-5.7-0.5-8.6c0.9,2.7,2,5.3,3.2,8l1-0.2c0.2-2.9,0.3-5.7,0.2-8.6
	c0.7,2.8,1.5,5.5,2.4,8.2l1-0.1c0.5-2.8,0.8-5.7,1-8.5c0.5,2.8,1,5.6,1.7,8.4h1c0.7-2.8,1.3-5.6,1.7-8.4c0.2,2.8,0.5,5.7,1,8.5
	l1,0.1c1-2.7,1.8-5.5,2.5-8.2c0,2.8,0,5.7,0.2,8.6l1,0.2c1.2-2.6,2.2-5.3,3.2-8c-0.3,2.8-0.5,5.7-0.5,8.6l1,0.3
	c1.4-2.5,2.7-5.1,3.9-7.7c-0.5,2.8-1,5.6-1.2,8.5l0.9,0.3c1.6-2.4,3.1-4.8,4.5-7.3c-0.8,2.7-1.5,5.5-2,8.3l0.9,0.4
	c1.8-2.2,3.5-4.5,5.1-6.9c-1,2.7-1.9,5.4-2.7,8.1l0.9,0.5c2-2.1,3.9-4.2,5.7-6.4c-1.2,2.6-2.4,5.2-3.4,7.9l0.8,0.6
	c2.2-1.9,4.3-3.9,6.2-5.9c-1.5,2.4-2.8,4.9-4.1,7.6l0.8,0.6c2.4-1.7,4.6-3.5,6.7-5.3c-1.7,2.3-3.3,4.7-4.7,7.2l0.7,0.7
	c2.5-1.5,4.9-3.1,7.2-4.7c-1.8,2.1-3.6,4.4-5.3,6.7l0.6,0.8c2.6-1.2,5.1-2.6,7.6-4.1c-2,2-4,4-5.9,6.2l0.6,0.8
	c2.7-1,5.3-2.2,7.9-3.4c-2.2,1.8-4.4,3.7-6.4,5.7l0.5,0.9c2.8-0.8,5.5-1.7,8.1-2.7c-2.3,1.6-4.7,3.3-6.9,5.1l0.4,0.9
	c2.8-0.5,5.6-1.2,8.3-2c-2.5,1.4-4.9,2.9-7.3,4.5l0.3,0.9c2.9-0.3,5.7-0.7,8.5-1.3c-2.6,1.2-5.2,2.4-7.7,3.8l0.3,1
	c2.9,0,5.7-0.2,8.6-0.5c-2.7,0.9-5.3,2-8,3.2l0.2,1c2.9,0.2,5.7,0.3,8.6,0.2c-2.7,0.7-5.5,1.5-8.2,2.5l0.1,1c2.9,0.5,5.7,0.8,8.5,1
	c-2.8,0.5-5.6,1-8.4,1.7v1c2.8,0.7,5.6,1.3,8.4,1.7c-2.8,0.2-5.7,0.5-8.5,1l-0.1,1c2.7,1,5.5,1.8,8.2,2.5c-2.8,0-5.7,0-8.6,0.2
	l-0.2,1c2.6,1.2,5.3,2.2,8,3.2c-2.8-0.3-5.7-0.5-8.6-0.5l-0.3,1c2.5,1.4,5.1,2.7,7.7,3.8c-2.8-0.5-5.6-1-8.5-1.2l-0.3,0.9
	c2.4,1.6,4.8,3.1,7.3,4.5c-2.7-0.8-5.5-1.5-8.3-2l-0.4,0.9c2.2,1.8,4.5,3.5,6.9,5.1c-2.7-1-5.4-1.9-8.1-2.7l-0.5,0.9
	c2.1,2,4.2,3.9,6.4,5.7c-2.6-1.2-5.2-2.4-7.9-3.4l-0.6,0.8c1.9,2.2,3.9,4.3,5.9,6.2c-2.4-1.5-4.9-2.8-7.6-4.1l-0.6,0.8
	c1.7,2.4,3.5,4.6,5.3,6.7c-2.3-1.7-4.7-3.2-7.2-4.7l-0.7,0.7c1.5,2.5,3.1,4.9,4.7,7.2c-2.1-1.9-4.4-3.7-6.7-5.3l-0.8,0.6
	c1.2,2.6,2.6,5.1,4.1,7.5c-2-2-4-4-6.2-5.9l-0.8,0.6c1,2.7,2.2,5.3,3.4,7.9c-1.8-2.2-3.7-4.3-5.7-6.4l-0.9,0.5
	c0.8,2.8,1.7,5.5,2.7,8.1c-1.6-2.3-3.3-4.7-5.1-6.9l-0.9,0.4c0.5,2.8,1.2,5.6,2,8.4c-1.4-2.5-2.9-4.9-4.5-7.3l-0.9,0.4
	c0.3,2.9,0.7,5.7,1.2,8.5c-1.2-2.6-2.4-5.2-3.9-7.7l-1,0.2c0,2.9,0.2,5.7,0.5,8.6c-0.9-2.7-2-5.3-3.2-8l-1,0.2
	c-0.2,2.9-0.3,5.7-0.2,8.6c-0.7-2.8-1.5-5.5-2.5-8.2l-1,0.1c-0.5,2.9-0.8,5.7-1,8.5C423,342.5,422.4,339.7,421.7,336.9z"/>
</svg>
