<?xml version="1.0" encoding="utf-8"?>
<!-- Generator: Adobe Illustrator 21.1.0, SVG Export Plug-In . SVG Version: 6.00 Build 0)  -->
<svg version="1.1" id="Calque_1" xmlns="http://www.w3.org/2000/svg" xmlns:xlink="http://www.w3.org/1999/xlink" x="0px" y="0px"
	 viewBox="0 0 841.9 595.3" style="enable-background:new 0 0 841.9 595.3;" xml:space="preserve">
<style type="text/css">
	.st0{fill:#FF0606;}
</style>
<title>Plan de travail 4</title>
<path class="st0" d="M472.2,310.4c11.5,2,23,3.9,34.5,5.5c11.5,1.7,23.1,3.2,34.7,4.4c11.6,1.2,23.2,2.4,34.9,3
	c-11.4-2.7-22.8-4.8-34.3-6.9c-11.5-2-23-3.9-34.5-5.5c-11.5-1.7-23.1-3.2-34.7-4.4c-10-1.1-20-2-30-2.7l184.2-32.5l-3.9-21.9
	l-183,32.3c9-4.6,17.8-9.5,26.5-14.6c10.1-5.8,20.1-11.8,30-18c9.9-6.2,19.7-12.5,29.4-18.9s19.3-13.1,28.7-20.1
	c-10.4,5.3-20.6,10.9-30.7,16.8c-10.1,5.8-20.1,11.8-30,18c-9.9,6.1-19.7,12.5-29.4,18.9c-8.6,5.8-17.2,11.7-25.6,17.9l120.9-144
	l-17-14.3L423.3,265.7c3.9-9.3,7.5-18.8,10.9-28.2c4-10.9,7.8-22,11.4-33c3.6-11.1,7.1-22.2,10.4-33.4c3.3-11.2,6.4-22.4,9-33.8
	c-4.6,10.7-8.7,21.7-12.7,32.7c-4,10.9-7.8,21.9-11.4,33c-3.6,11.1-7.1,22.2-10.4,33.4c-3,10.1-5.8,20.3-8.3,30.6V78.5h-22.2v185.8
	c-3.1-9.8-6.5-19.6-10-29.3c-4-11-8.1-21.8-12.5-32.7c-4.3-10.8-8.8-21.6-13.5-32.2c-4.7-10.7-9.5-21.3-14.8-31.7
	c3.4,11.2,7.2,22.2,11.2,33.2c4,11,8.2,21.8,12.5,32.7c4.3,10.8,8.8,21.6,13.5,32.2c4.3,9.8,8.8,19.6,13.6,29.3v0L279,121.5
	l-17,14.3l120.4,143.5l-0.5-0.1c-8.9-5.7-17.9-11.1-27.1-16.4c-10.1-5.9-20.3-11.5-30.6-17c-10.3-5.5-20.6-10.8-31.1-16
	s-21-10.2-31.7-14.8c9.8,6.4,19.8,12.4,29.9,18.2c10.1,5.9,20.3,11.5,30.6,17c10.3,5.5,20.6,10.8,31.1,16
	c8.8,4.4,17.7,8.6,26.7,12.6l-182.8-32.2l-3.9,21.9l184,32.5c-10.8,1.3-21.5,3.1-32.2,5c-11.5,2-22.9,4.2-34.3,6.6
	c-11.4,2.4-22.8,5-34.1,7.7s-22.6,5.7-33.8,9.1c11.6-1.4,23.1-3.3,34.6-5.3c11.5-2,22.9-4.2,34.3-6.6c11.4-2.4,22.8-4.9,34.1-7.7
	c10.4-2.5,20.9-5.2,31.2-8.3l-162.5,93.8l11.1,19.2l161.7-93.4c-7.3,7.9-14.4,16-21.3,24.2c-7.5,8.9-14.8,18-22,27.1
	c-7.2,9.2-14.2,18.4-21.2,27.8S309,419,302.6,428.8c8-8.5,15.6-17.4,23.1-26.3c7.5-8.9,14.8-18,22-27.1c7.2-9.2,14.3-18.4,21.2-27.8
	c6.3-8.6,12.5-17.2,18.4-26.2l-64.2,176.3l20.9,7.6l63.6-174.6c-0.5,10.6-0.7,21.2-0.7,31.8c0,11.7,0.2,23.3,0.6,35
	s0.9,23.3,1.7,34.9s1.6,23.3,3.1,34.9c0.7-11.7,0.8-23.3,0.8-35c0-11.7-0.2-23.3-0.6-35s-0.9-23.3-1.7-34.9
	c-0.7-10.9-1.6-21.8-2.8-32.7l0.1-0.3l64.4,177.1l20.9-7.6l-63.8-175.4c6.4,8.4,13.1,16.5,19.8,24.7c7.5,9,15.2,17.8,22.9,26.5
	c7.7,8.7,15.7,17.2,23.7,25.7c8,8.4,16.2,16.7,24.8,24.7c-7-9.4-14.4-18.4-21.9-27.4c-7.5-8.9-15.2-17.7-22.9-26.4
	c-7.7-8.7-15.7-17.2-23.7-25.7c-7.2-7.5-14.5-15-22.1-22.2l162.3,93.7l11.1-19.2L442,304.4C452,306.7,462.1,308.6,472.2,310.4z
	 M390.3,319.1l0.3-0.2l-10.1-17.5l0.4,0.1l3.5-19.9l0.3,0.3l15.5-13v0.4h20.2l-0.2,0.3l15.5,13l-0.4,0.1l3.5,19.9l-0.3-0.2
	l-10.1,17.5l-0.1-0.4l-19,6.9l0.1-0.4L390.3,319.1z"/>
</svg>
