<?xml version="1.0" encoding="utf-8"?>
<!-- Generator: Adobe Illustrator 21.1.0, SVG Export Plug-In . SVG Version: 6.00 Build 0)  -->
<svg version="1.1" id="Calque_1" xmlns="http://www.w3.org/2000/svg" xmlns:xlink="http://www.w3.org/1999/xlink" x="0px" y="0px"
	 viewBox="0 0 841.9 595.3" style="enable-background:new 0 0 841.9 595.3;" xml:space="preserve">
<style type="text/css">
	.st0{fill:#FF0000;}
</style>
<title>Plan de travail 5</title>
<g>
	<path class="st0" d="M424.8,273.1c35.8-33.9,86.9-46.3,134.2-32.5c17.1-74.7-29.5-149.2-104.3-166.3s-149.2,29.5-166.3,104.3
		c-4.7,20.6-4.7,42,0.1,62.6C336.5,226.6,388.5,238.7,424.8,273.1L424.8,273.1z"/>
	<path class="st0" d="M381.5,373.9c0-10.5,1.2-20.9,3.5-31.2c-48.1-14-84.9-52.8-96.3-101.5c-73.3,22.5-114.5,100.2-91.9,173.5
		s100.2,114.5,173.5,91.9c20.4-6.3,39.2-17.2,54.7-31.9C397.1,448.5,381.4,412.1,381.5,373.9z"/>
	<path class="st0" d="M559.1,240.6c-11.2,48.3-47.2,87-94.5,101.5c11.3,48.1-3.9,98.6-39.7,132.5c55.7,52.7,143.5,50.3,196.2-5.4
		c52.7-55.7,50.3-143.5-5.4-196.2C599.7,257.9,580.3,246.8,559.1,240.6z"/>
	<path class="st0" d="M424.8,273.1c-19.9,18.8-33.7,43-39.8,69.6c26,7.5,53.7,7.3,79.6-0.6C458.4,315.8,444.6,291.8,424.8,273.1z"/>
</g>
</svg>
