<?xml version="1.0" encoding="utf-8"?>
<!-- Generator: Adobe Illustrator 21.1.0, SVG Export Plug-In . SVG Version: 6.00 Build 0)  -->
<svg version="1.1" id="Calque_1" xmlns="http://www.w3.org/2000/svg" xmlns:xlink="http://www.w3.org/1999/xlink" x="0px" y="0px"
	 viewBox="0 0 841.9 595.3" style="enable-background:new 0 0 841.9 595.3;" xml:space="preserve">
<style type="text/css">
	.st0{fill:#FC0303;}
</style>
<title>Plan de travail 1</title>
<path class="st0" d="M535.5,238c-96.9-29.6-179.7-39.8-184.8-23c-0.1,0.3-0.2,0.6-0.2,0.9L338,256.8c-0.3,0.5-0.4,1.1-0.5,1.7v0.1
	c-0.1,0.6-0.1,1.1,0,1.7c-4.8-0.1-9.6-0.1-14.5-0.1c-101.3,0-183.5,14.3-183.5,32c0,0.3,0,0.6,0.1,0.9v42.7
	c-0.1,0.3-0.1,0.6-0.1,0.9c0,0.3,0,0.6,0.1,0.9v0.1c3,17.2,83.9,31,183.4,31c91.3,0,167.1-11.6,181.1-26.9
	c95,28.9,176.3,39.4,184.1,23.8v-0.1c0.1-0.3,0.3-0.6,0.3-0.8c0.1-0.3,0.2-0.6,0.2-0.9l12.4-40.8c0.1-0.3,0.3-0.6,0.3-0.8
	C706.8,305.3,632.4,267.6,535.5,238z"/>
</svg>
