<?xml version="1.0" encoding="utf-8"?>
<!-- Generator: Adobe Illustrator 21.1.0, SVG Export Plug-In . SVG Version: 6.00 Build 0)  -->
<svg version="1.1" id="Calque_1" xmlns="http://www.w3.org/2000/svg" xmlns:xlink="http://www.w3.org/1999/xlink" x="0px" y="0px"
	 viewBox="0 0 841.9 595.3" style="enable-background:new 0 0 841.9 595.3;" xml:space="preserve">
<style type="text/css">
	.st0{fill:#FF0000;}
	.st1{fill:#FF0000;stroke:#FFFFFF;stroke-miterlimit:10;}
</style>
<title>Plan de travail 3</title>
<path class="st0" d="M621.5,509.6l11.4-37.5c0.1-0.3,0.2-0.5,0.3-0.8c4.7-15.5-63.6-50.1-152.7-77.3
	c-89.1-27.2-165.1-36.6-169.8-21.1c-0.1,0.3-0.1,0.5-0.2,0.8l-11.5,37.5c-0.1,0.2-0.2,0.5-0.3,0.8c-0.1,0.3-0.1,0.5-0.2,0.8v0.1l0,0
	c-2,15.9,65.5,49.7,152.9,76.4c87.4,26.7,162.2,36.3,169.5,22l0,0v-0.1c0.1-0.3,0.2-0.5,0.3-0.8
	C621.4,510.1,621.5,509.8,621.5,509.6z"/>
<path class="st0" d="M301.6,327c0.1,7.6-6,13.9-13.7,13.9c-3.3,0-6.5-1.1-9.1-3.3c-5.9-5.1-6.6-14-1.5-19.9c0.5-0.5,1-1,1.5-1.5
	c1.5-1.3,3.2-2.2,5.1-2.7c1.8-0.5,3.7-0.7,5.6-0.4C296.4,314.1,301.6,320,301.6,327z M301.6,327c0-3.2-1.4-6.2-3.9-8.2
	c-1.2-1-2.5-1.6-4-2c-1.4-0.3-2.8-0.4-4.2-0.1c-2.5,0.5-4.8,1.9-6.4,3.9c-2.9,3.8-2.9,9,0,12.8c2.5,3.3,6.6,4.8,10.6,3.8
	c1.5-0.4,2.8-1,4-2C300.2,333.2,301.6,330.2,301.6,327z"/>
<path class="st0" d="M346.6,317.2c0.1,7.6-6,13.9-13.7,13.9c-3.3,0-6.5-1.1-9.1-3.3c-5.9-5.1-6.6-14-1.5-19.9c0.5-0.5,1-1,1.5-1.5
	c1.5-1.3,3.2-2.2,5.1-2.7c7.4-2,15.1,2.3,17.1,9.7C346.5,314.7,346.7,316,346.6,317.2L346.6,317.2z M346.6,317.2
	c0-3.2-1.4-6.2-3.9-8.2c-1.2-1-2.5-1.6-4-2c-1.4-0.3-2.8-0.4-4.2-0.1c-5,0.9-8.6,5.3-8.6,10.3c0,2.3,0.8,4.6,2.2,6.4
	c2.5,3.3,6.6,4.8,10.6,3.8c1.5-0.4,2.8-1,4-2C345.2,323.4,346.6,320.4,346.6,317.2z"/>
<path class="st0" d="M261.3,301.7c0.1,7.6-6,13.9-13.6,14c-3.3,0-6.6-1.1-9.1-3.3c-5.9-5.1-6.6-14-1.5-19.8c0.5-0.5,1-1,1.5-1.5
	c1.5-1.3,3.2-2.2,5.1-2.7c7.4-2,15.1,2.3,17.1,9.7C261.1,299.2,261.3,300.5,261.3,301.7L261.3,301.7z M261.3,301.7
	c0-3.2-1.4-6.2-3.9-8.2c-1.2-1-2.5-1.6-4-2c-1.4-0.3-2.8-0.4-4.2-0.1c-2.5,0.5-4.8,1.9-6.4,3.9c-2.9,3.8-2.9,9,0,12.8
	c2.5,3.3,6.6,4.8,10.6,3.8c1.5-0.4,2.8-1,4-2C259.8,307.9,261.2,304.9,261.3,301.7z"/>
<path class="st0" d="M332.9,164.2c0,7.6-6.1,13.9-13.8,13.9c-1.3,0-2.6-0.2-3.8-0.5c-1.9-0.5-3.6-1.5-5.1-2.7
	c-5.9-5.1-6.6-14-1.5-19.8c0.5-0.5,1-1,1.5-1.5c2.9-2.5,6.8-3.7,10.7-3.1C327.8,151.3,332.9,157.2,332.9,164.2L332.9,164.2z
	 M332.9,164.2c0-3.2-1.4-6.2-3.9-8.2c-1.2-1-2.5-1.6-4-2c-1.4-0.3-2.8-0.4-4.2-0.1c-5.7,0.9-9.6,6.3-8.7,12c0.9,5.7,6.3,9.6,12,8.7
	c1.8-0.3,3.5-1,5-2.2C331.5,170.3,332.9,167.3,332.9,164.2z"/>
<path class="st0" d="M256.4,252.3c0.1,11.9-9.5,21.6-21.5,21.7c-8.6,0-16.4-5-19.9-12.8c-1.2-2.8-1.9-5.8-1.9-8.9
	c0-3.1,0.6-6.1,1.9-8.9c3.7-8.4,12.3-13.5,21.5-12.7C247.8,231.7,256.4,241.1,256.4,252.3L256.4,252.3z M256.4,252.3
	c0-5.2-2.2-10.2-6.2-13.7c-1.9-1.7-4.1-2.9-6.5-3.7c-9.6-3-19.8,2.4-22.8,12c-3,9.6,2.4,19.8,12,22.8c3.5,1.1,7.3,1.1,10.8,0
	c2.4-0.8,4.6-2,6.5-3.7C254.2,262.6,256.4,257.6,256.4,252.3z"/>
<path class="st0" d="M372.7,250c0.1,11.9-9.5,21.6-21.5,21.7c-8.6,0-16.4-5-19.9-12.8c-2.5-5.7-2.5-12.1,0-17.8
	c4.9-10.9,17.7-15.7,28.6-10.8C367.7,233.8,372.7,241.5,372.7,250L372.7,250z M372.7,250c0-5.2-2.2-10.2-6.2-13.7
	c-1.9-1.7-4.1-2.9-6.5-3.7c-9.6-3-19.8,2.4-22.8,12c-3,9.6,2.4,19.8,12,22.8c3.5,1.1,7.3,1.1,10.8,0c2.4-0.8,4.6-2,6.5-3.7
	C370.5,260.2,372.7,255.2,372.7,250z"/>
<path class="st0" d="M281,165.3c0,11.2-8.6,20.6-19.8,21.6c-2.9,0.2-5.8-0.1-8.5-1c-5.8-1.9-10.5-6.2-12.9-11.7
	c-2.5-5.7-2.5-12.1,0-17.8c4.9-10.9,17.7-15.7,28.6-10.8C276,149.1,281,156.8,281,165.3z M281,165.3c0-5.2-2.2-10.2-6.1-13.7
	c-3.8-3.3-8.7-4.9-13.7-4.4c-10,1-17.3,9.9-16.3,19.9c1,10,9.9,17.3,19.9,16.3c1.2-0.1,2.4-0.4,3.5-0.7c2.4-0.8,4.6-2,6.5-3.7
	C278.8,175.5,281,170.5,281,165.3z"/>
<path class="st0" d="M323.7,220.2c0,16.2-13.1,29.4-29.4,29.4c-3.3,0-6.6-0.6-9.7-1.7c-11.8-4.2-19.6-15.3-19.6-27.8
	c0-4.1,0.9-8.1,2.5-11.9c6.6-14.8,23.9-21.6,38.8-15C316.9,198.1,323.7,208.6,323.7,220.2L323.7,220.2z M323.7,220.2
	c0-3.6-0.8-7.2-2.2-10.5c-1.4-3.3-3.6-6.2-6.2-8.7c-2.6-2.4-5.7-4.2-9-5.3c-13.6-4.6-28.3,2.6-32.9,16.2
	c-4.6,13.6,2.6,28.3,16.2,32.9c5.4,1.9,11.3,1.9,16.8,0C316.7,241.1,323.7,231.3,323.7,220.2L323.7,220.2z"/>
<path class="st0" d="M333.8,101c0,22.7-18.4,41.2-41.2,41.2c-4.8,0-9.7-0.9-14.2-2.5c-5.2-1.9-10-4.9-14-8.7
	c-16.6-15.6-17.3-41.6-1.8-58.2c15.6-16.6,41.6-17.3,58.2-1.8C329.1,78.8,333.8,89.6,333.8,101L333.8,101z M333.8,101
	c0-5.2-1.1-10.3-3.1-15c-2-4.7-5-9-8.7-12.5c-15.2-14.2-39-13.4-53.2,1.7c0,0,0,0-0.1,0.1c-14.2,15.2-13.5,39,1.7,53.2
	c15.2,14.2,39,13.5,53.2-1.7c3-3.2,5.4-6.8,7.1-10.8C332.8,111.3,333.8,106.2,333.8,101z"/>
<path class="st0" d="M320.4,285.6c0.1,5.9-4.6,10.6-10.5,10.7c-0.9,0-1.8-0.1-2.6-0.3c-1.5-0.4-2.9-1-4.1-2
	c-4.6-3.8-5.3-10.7-1.5-15.3c0.4-0.5,0.9-1,1.5-1.5c1.2-1,2.6-1.6,4.1-2c1.4-0.4,2.9-0.4,4.3-0.2C316.7,276,320.4,280.5,320.4,285.6
	L320.4,285.6z M320.4,285.6c0-2.3-1.1-4.5-2.9-5.9c-1.7-1.3-3.9-1.7-5.9-1.2c-1.7,0.5-3.2,1.5-4.1,3c-0.8,1.2-1.2,2.6-1.2,4.1
	c0,1.5,0.4,2.9,1.2,4.1c0.9,1.5,2.4,2.6,4.1,3c2,0.5,4.2,0.1,5.9-1.2C319.3,290.1,320.4,287.9,320.4,285.6z"/>
<path class="st0" d="M286.8,264.9c0.1,5.9-4.6,10.7-10.5,10.7c-0.9,0-1.8-0.1-2.7-0.3c-1.5-0.4-2.9-1-4.1-2
	c-4.6-3.8-5.3-10.7-1.5-15.3c0.4-0.5,0.9-1,1.5-1.5c1.2-1,2.6-1.6,4.1-2c1.4-0.4,2.9-0.4,4.3-0.2
	C283.1,255.3,286.8,259.8,286.8,264.9L286.8,264.9z M286.8,264.9c0-2.3-1.1-4.5-2.9-5.9c-1.7-1.3-3.9-1.7-5.9-1.2
	c-1.7,0.5-3.2,1.5-4.1,3c-0.8,1.2-1.2,2.6-1.2,4.1c0,1.5,0.4,2.9,1.2,4.1c0.9,1.5,2.4,2.6,4.1,3c2,0.5,4.2,0.1,5.9-1.2
	C285.8,269.5,286.8,267.2,286.8,264.9z"/>
<path class="st0" d="M251.2,205.7c0,5.2-3.7,9.7-8.8,10.6c-3,0.5-6-0.3-8.4-2.2c-4.6-3.8-5.3-10.7-1.5-15.3c0.4-0.5,0.9-1,1.5-1.5
	c1.2-1,2.6-1.7,4.1-2c5.8-1.4,11.5,2.2,12.9,8C251.1,204.1,251.2,204.9,251.2,205.7L251.2,205.7z M251.2,205.7
	c0-2.3-1.1-4.5-2.9-5.9c-1.7-1.3-3.9-1.7-5.9-1.2c-1.7,0.5-3.1,1.5-4.1,3c-0.8,1.2-1.2,2.6-1.2,4.1c0,1.5,0.4,2.9,1.2,4.1
	c2.1,3.2,6.4,4.1,9.6,2.1c0.1-0.1,0.3-0.2,0.4-0.3C250.1,210.3,251.2,208.1,251.2,205.7z"/>
<g>
	
		<ellipse transform="matrix(0.2959 -0.9552 0.9552 0.2959 -68.9822 747.4255)" class="st1" cx="472.5" cy="420.5" rx="27.7" ry="168.2"/>
	<path class="st1" d="M311.7,370.7c0.7-1.7,2-3.1,3.8-3.8c1.7-0.8,3.4-1.4,5.2-1.7c3.6-0.7,7.2-1.1,10.8-1.1
		c7.3-0.1,14.6,0.2,21.8,1c14.5,1.4,28.8,3.8,43.1,6.5c28.5,5.7,56.7,13,84.5,21.8c27.7,8.8,55,18.8,81.9,30
		c6.7,2.8,13.3,5.8,19.9,8.9s13.1,6.3,19.5,9.8c6.4,3.4,12.7,7.2,18.6,11.4c3,2.1,5.8,4.4,8.4,7c1.3,1.3,2.5,2.8,3.4,4.4
		c0.5,0.8,0.8,1.7,1.1,2.7c0.2,1,0.2,2,0,3c-0.3,1-0.9,1.8-1.6,2.5c-0.7,0.7-1.5,1.2-2.4,1.6c-1.7,0.8-3.5,1.4-5.3,1.8
		c-3.6,0.7-7.3,1.1-10.9,1.2c-7.3,0.1-14.6-0.2-21.8-1c-14.5-1.5-28.9-3.8-43.1-6.7c-28.5-5.8-56.7-13.1-84.4-21.8
		c-27.8-8.5-55.2-18.5-82-29.9c-13.3-5.8-26.5-12-39.3-19c-6.4-3.5-12.6-7.3-18.5-11.5c-3-2.1-5.8-4.5-8.3-7.1
		c-1.3-1.3-2.4-2.8-3.3-4.3C311.6,374.4,311.3,372.5,311.7,370.7z"/>
</g>
</svg>
