<?xml version="1.0" encoding="utf-8"?>
<!-- Generator: Adobe Illustrator 21.1.0, SVG Export Plug-In . SVG Version: 6.00 Build 0)  -->
<svg version="1.1" id="Calque_1" xmlns="http://www.w3.org/2000/svg" xmlns:xlink="http://www.w3.org/1999/xlink" x="0px" y="0px"
	 viewBox="0 0 841.9 595.3" style="enable-background:new 0 0 841.9 595.3;" xml:space="preserve">
<style type="text/css">
	.st0{fill:#FF0000;}
</style>
<title>Plan de travail 4</title>
<g>
	<circle class="st0" cx="417.5" cy="292" r="41.1"/>
	<path class="st0" d="M696.5,269.3c-1.7-7.2-4.3-14.1-7.5-20.8c-3.3-6.6-7.1-12.9-11.4-18.9c-4.4-6-9.1-11.7-14.3-17
		c-5.1-5.3-10.6-10.4-16.3-15.1c-5.7-4.7-11.6-9.2-17.8-13.4c-12.3-8.3-25.2-15.7-38.6-22.1c-26.9-12.7-55.3-22-84.6-27.7
		c-14.6-2.9-29.3-5-44.2-6.4c-7.4-0.7-14.8-1.3-22.2-1.7c-7.4-0.3-14.8-0.5-22.3-0.6c-29.8-0.2-59.5,2.5-88.7,7.9
		c-29.4,5.4-58.1,14.1-85.5,25.9c-13.8,6-27.1,13-39.8,21c-6.4,4-12.6,8.4-18.5,13.1c-6,4.7-11.7,9.8-17,15.2
		c-5.4,5.4-10.4,11.3-14.9,17.4c-4.5,6.2-8.5,12.9-11.9,19.8c-6.8,14-10.2,29.5-9.8,45.1c0.2,7.7,1.4,15.4,3.5,22.8
		c2.1,7.3,5,14.4,8.6,21.1c5.2,9.6,11.7,18.3,18.9,26.2c0.2,0.6,0.5,1.1,0.8,1.7c1.8,3.3,4.6,5.9,8.1,7.4l0-0.1
		c10.8,10,22.6,18.9,35.2,26.5c12.6,7.6,25.7,14.4,39.2,20.3c27.1,11.6,55.2,20.6,84,26.7c28.9,6.3,58.3,9.8,87.9,10.5
		c29.6,0.7,59.3-1.7,88.4-7.2c29.2-5.4,57.7-14.5,84.6-27.1c13.4-6.3,26.3-13.7,38.6-22c6.1-4.2,12.1-8.6,17.8-13.4
		c5.7-4.7,11.2-9.7,16.3-15c5.1-5.3,9.9-11,14.3-16.9c4.3-6,8.2-12.3,11.4-18.9c3.3-6.6,5.8-13.6,7.5-20.7
		c1.8-7.1,2.7-14.5,2.7-21.9C699.1,283.9,698.3,276.5,696.5,269.3z M481,158.7c1-0.6,1.9-1.2,2.8-1.8c0.9-0.6,1.6-1.3,2.4-1.9
		c1.5-1.2,3-2.2,4.3-3.3c4.1,0.5,8.1,1.1,12.2,1.8c7,1.1,14,2.4,21,3.8s13.9,3,20.9,4.7c6.6,1.6,13.1,3.4,19.5,5.3
		c-0.3,0.1-0.7,0.2-1,0.3c-2.5,0.9-4.7,2.4-6.6,4.3c-1.8,1.9-3.2,4.2-4,6.7c-0.4,1.2-0.8,2.3-1,3.6c-0.1,0.6-0.2,1.2-0.2,1.8
		l-0.1,0.9v0.9c0,0.6,0,1.2,0.1,1.7s0.2,1.1,0.2,1.7s0.2,1.1,0.3,1.6l0.3,1.4c0.2,0.9,0.3,1.9,0.4,2.8c0.1,0.9,0,1.9,0,2.8
		c-0.1,0.5-0.1,0.9-0.2,1.4c-0.1,0.5-0.2,0.9-0.3,1.4c-0.1,0.5-0.3,0.9-0.5,1.3c-0.2,0.4-0.4,0.9-0.6,1.3c-0.9,1.6-2.2,3.1-3.7,4.2
		c-1.5,1.2-3,2.1-4.5,3.1c-1.5,0.9-2.9,2-4.2,3.1c-1.4,1.1-2.8,2.1-4.3,3.1c-1.5,1.1-3.1,2.2-4.7,3.3c-1.6-0.6-3.3-1.1-5-1.4
		c-1.1-0.3-2.2-0.4-3.3-0.6c-1.1-0.2-2.2-0.3-3.4-0.3c-0.8,0-1.5,0-2.3,0c0.2,0,0.4-0.1,0.6-0.1c0.5-0.1,1-0.1,1.5-0.2
		c4.3-0.6,8.5-1.4,12.7-2.5l0.1-1c-2-1.2-4.1-2.2-6.3-2.9c-2.2-0.7-4.4-1.2-6.6-1.4c-1.1-0.2-2.2-0.3-3.4-0.3s-2.2-0.1-3.4,0
		c-0.8,0-1.7,0.1-2.5,0.2l0.9-0.2c0.5-0.1,1-0.2,1.5-0.3c4.2-0.9,8.4-2.1,12.4-3.6l0.1-1c-2.1-1.1-4.3-1.8-6.5-2.3
		c-2.2-0.5-4.4-0.8-6.7-0.8c-2.2-0.1-4.4,0-6.6,0.3c-1,0.1-2,0.3-3.1,0.5l1.3-0.4c0.5-0.1,1-0.3,1.5-0.5c4.1-1.3,8.2-2.9,12.1-4.7
		l0-1c-2.1-0.9-4.4-1.5-6.7-1.7c-2.2-0.3-4.5-0.4-6.7-0.2c-1.1,0-2.2,0.1-3.4,0.3c-1.1,0.1-2.2,0.3-3.3,0.6
		c-0.8,0.2-1.6,0.4-2.4,0.6l0.8-0.4c0.4-0.2,1-0.4,1.4-0.6c4-1.6,7.9-3.6,11.6-5.7l-0.1-1c-2.2-0.7-4.5-1.1-6.8-1.1
		c-2.3-0.1-4.5,0-6.8,0.3c-1.1,0.1-2.2,0.3-3.3,0.6c-1.1,0.2-2.2,0.5-3.3,0.8c-0.7,0.2-1.5,0.5-2.2,0.7c0.2-0.1,0.4-0.2,0.6-0.3
		l1.4-0.7c3.8-2,7.5-4.2,11.1-6.7l-0.1-1c-2.3-0.5-4.6-0.7-6.9-0.5c-2.3,0.1-4.5,0.4-6.7,0.9c-1.1,0.2-2.2,0.5-3.2,0.9
		c-2.1,0.6-4,1.4-6,2.4c0.4-0.2,0.8-0.5,1.2-0.8c0.4-0.3,0.9-0.5,1.3-0.8c3.7-2.3,7.1-4.9,10.5-7.7l-0.3-0.9
		c-2.3-0.3-4.6-0.3-6.9,0.1c-1.7,0.2-3.4,0.6-5.1,1c0.2-0.3,0.3-0.5,0.5-0.8c0.5-0.9,0.9-1.9,1-3c0.1-0.6,0.1-1.2,0.1-1.9
		c0.1-0.1,0.1-0.1,0.2-0.2l-0.2-0.3c0-1.6-0.1-3.2,0.4-4.5C477.6,161.5,479.1,159.8,481,158.7z M482.6,392.3c0-0.1,0-0.2,0-0.3
		c-0.1-1.1-0.3-2.3-0.6-3.4l-0.4-1.7c-0.1-0.5-0.3-1.1-0.5-1.6c-0.3-1.1-0.6-2.2-0.9-3.3c-0.3-1.1-0.6-2.1-0.9-3.2
		c-0.1-0.5-0.2-1.1-0.3-1.6c-0.1-0.5-0.2-1.1-0.4-1.6c-0.2-1.1-0.3-2.2-0.5-3.3c-0.2-1.1-0.4-2.2-0.5-3.3l-0.2-1.7l-0.3-1.7
		c-0.3-2.2-0.8-4.3-1.6-6.4l0.9,1l2,2.4l1,1.2c0.3,0.4,0.6,0.9,0.9,1.3c0.6,0.9,1.1,1.8,1.6,2.7c0.4,1,0.8,1.9,1.1,2.9
		c0.2,0.5,0.3,1,0.5,1.5c0.1,0.5,0.2,1,0.3,1.5c0.1,1,0.3,2.1,0.3,3.1c0,1.1-0.2,2.1-0.2,3.2c-0.1,1-0.2,2.1-0.4,3.2
		c-0.2,1-0.2,2.1-0.4,3.1C482.5,388.4,482.5,390.4,482.6,392.3z M468.9,303c-1.9,0.5-3.8,0.8-5.8,1.1l-0.3,1c1.3,1,2.8,1.8,4.4,2.3
		c-1.7,0.3-3.5,0.4-5.2,0.4l-0.3,0.9c1.3,1.2,2.8,2.1,4.4,2.9c-1.9,0.1-3.8,0.1-5.7,0l-0.4,0.9c1.3,1.4,2.8,2.5,4.4,3.4
		c-2,0-3.9-0.2-5.8-0.5l-0.5,0.9c1.1,1.4,2.3,2.5,3.7,3.5c-1.9-0.2-3.7-0.5-5.5-0.9l-0.6,0.8c1,1.5,2.2,2.8,3.6,4
		c-1.9-0.4-3.7-0.8-5.5-1.4l-0.6,0.8c0.8,1.5,1.9,3,3.1,4.2c-1.8-0.5-3.6-1.2-5.3-1.9l-0.7,0.7c0.7,1.7,1.7,3.2,2.9,4.6
		c-1.8-0.7-3.5-1.4-5.1-2.4l-0.8,0.6c0.5,1.6,1.3,3.2,2.3,4.6c-1.7-0.8-3.3-1.7-4.8-2.8l-0.8,0.6c0.4,1.7,1.1,3.4,2,4.9
		c-1.6-1-3.1-2-4.6-3.2l-0.9,0.5c0.3,1.8,0.8,3.5,1.6,5.1c-1.6-1.1-3-2.3-4.4-3.7l-0.9,0.4c0.1,1.8,0.5,3.5,1.1,5.2
		c-1.4-1.2-2.7-2.5-4-3.9l-0.9,0.3c0,1.8,0.2,3.6,0.7,5.3c-1.3-1.4-2.5-2.8-3.7-4.3l-1,0.3c-0.2,1.7-0.1,3.4,0.2,5.1
		c-1.1-1.4-2.2-2.9-3.1-4.4l-1,0.2c-0.3,1.7-0.4,3.5-0.3,5.2c-1.1-1.6-2-3.2-2.9-4.9l-1,0.1c-0.5,1.8-0.8,3.7-0.7,5.5
		c-1-1.7-1.8-3.5-2.5-5.3h-1c-0.6,1.6-1,3.3-1.2,5c-0.7-1.7-1.4-3.4-1.9-5.2l-1-0.1c-0.8,1.6-1.4,3.3-1.6,5.1
		c-0.6-1.8-1.2-3.6-1.6-5.5l-1-0.2c-0.9,1.5-1.6,3.2-2.1,4.9c-0.5-1.8-0.8-3.7-1-5.6l-1-0.3c-1,1.3-1.8,2.8-2.4,4.4
		c-0.3-1.8-0.4-3.5-0.5-5.3l-0.9-0.4c-1.2,1.3-2.1,2.8-2.8,4.4c-0.1-1.9-0.1-3.7,0-5.6l-0.9-0.4c-1.3,1.3-2.5,2.7-3.4,4.4
		c0-1.9,0.2-3.8,0.5-5.7l-0.9-0.5c-1.4,1.1-2.5,2.4-3.5,3.8c0.2-1.9,0.5-3.7,0.9-5.6l-0.8-0.6c-1.5,1-2.9,2.2-4,3.6
		c0.4-1.9,0.8-3.7,1.5-5.5l-0.8-0.6c-1.6,0.8-3,1.9-4.2,3.2c0.5-1.8,1.1-3.6,1.9-5.3l-0.7-0.7c-1.6,0.7-3.1,1.7-4.5,2.8
		c0.7-1.8,1.5-3.5,2.4-5.1l-0.6-0.8c-1.7,0.6-3.2,1.4-4.6,2.4c0.8-1.7,1.7-3.3,2.8-4.9l-0.6-0.8c-1.7,0.4-3.3,1.1-4.9,2
		c1-1.6,2-3.1,3.1-4.5l-0.5-0.9c-1.8,0.3-3.6,0.8-5.2,1.6c1.1-1.6,2.4-3.1,3.7-4.5l-0.4-0.9c-1.8,0.1-3.5,0.5-5.1,1.1
		c1.2-1.4,2.5-2.7,3.9-3.9l-0.3-0.9c-1.8,0-3.6,0.2-5.3,0.7c1.4-1.3,2.8-2.5,4.3-3.7l-0.3-1c-1.7-0.2-3.4-0.1-5,0.2
		c1.4-1.1,2.8-2.1,4.3-3.1l-0.2-1c-1.7-0.4-3.5-0.4-5.3-0.3c1.6-1.1,3.3-2.1,5-2.9l-0.1-1c-1.7-0.5-3.6-0.8-5.4-0.7
		c1.7-0.9,3.4-1.8,5.2-2.4v-1c-1.6-0.6-3.3-1-5.1-1.2c1.7-0.7,3.4-1.4,5.2-1.9l0.1-1c-1.6-0.8-3.4-1.4-5.1-1.7
		c1.8-0.6,3.7-1.1,5.6-1.5l0.2-1c-1.6-1-3.3-1.7-5.1-2.1c1.9-0.5,3.8-0.8,5.7-1l0.3-1c-1.3-1-2.8-1.8-4.3-2.3
		c1.8-0.3,3.5-0.4,5.3-0.5l0.3-0.9c-1.3-1.2-2.9-2.2-4.5-2.9c1.9-0.1,3.8-0.1,5.7,0l0.4-0.9c-1.3-1.3-2.7-2.5-4.3-3.3
		c1.9,0,3.9,0.2,5.8,0.5l0.5-0.9c-1.1-1.4-2.4-2.6-3.8-3.6c1.9,0.2,3.7,0.5,5.6,0.9l0.6-0.8c-1-1.5-2.2-2.8-3.6-4
		c1.8,0.4,3.7,0.8,5.4,1.4l0.6-0.8c-0.8-1.5-1.9-2.9-3.1-4.1c1.8,0.5,3.6,1.2,5.3,1.9l0.7-0.7c-0.7-1.6-1.6-3.1-2.8-4.5
		c1.7,0.7,3.4,1.4,5,2.3l0.8-0.6c-0.6-1.7-1.4-3.3-2.4-4.7c1.7,0.8,3.3,1.7,4.9,2.8l0.8-0.6c-0.4-1.7-1.1-3.4-2-4.9
		c1.6,1,3.2,2,4.6,3.2l0.9-0.5c-0.3-1.8-0.8-3.5-1.5-5.1c1.5,1.1,3,2.3,4.4,3.6l0.9-0.4c-0.1-1.8-0.5-3.5-1.1-5.1
		c1.4,1.2,2.7,2.5,4,3.9l0.9-0.3c0-1.8-0.2-3.6-0.7-5.3c1.3,1.4,2.6,2.8,3.7,4.3l1-0.3c0.2-1.7,0.1-3.5-0.2-5.2
		c1.1,1.4,2.2,2.9,3.1,4.4l1-0.2c0.3-1.7,0.4-3.5,0.3-5.2c1.1,1.6,2,3.2,2.9,4.9l1-0.1c0.5-1.8,0.8-3.6,0.7-5.4
		c0.9,1.7,1.8,3.4,2.4,5.2h1c0.6-1.6,1-3.3,1.2-5.1c0.7,1.7,1.4,3.4,1.9,5.2l1,0.1c0.8-1.6,1.3-3.3,1.6-5.1c0.6,1.8,1.1,3.6,1.5,5.5
		l1,0.2c1-1.6,1.7-3.4,2.1-5.2c0.5,1.9,0.8,3.9,1.1,5.9l1,0.3c1-1.3,1.8-2.8,2.3-4.4c0.2,1.7,0.4,3.5,0.4,5.2l0.9,0.3
		c1.2-1.3,2.1-2.8,2.9-4.4c0.1,1.9,0.1,3.9,0,5.8l0.9,0.4c1.3-1.3,2.5-2.7,3.3-4.3c0,1.9-0.2,3.9-0.5,5.8l0.9,0.5
		c1.4-1.1,2.6-2.4,3.6-3.9c-0.2,1.9-0.5,3.8-0.9,5.6l0.8,0.6c1.5-1,2.7-2.1,3.9-3.5c-0.4,1.8-0.8,3.6-1.4,5.3l0.8,0.6
		c1.6-0.8,3-1.9,4.2-3.2c-0.5,1.8-1.2,3.6-1.9,5.3l0.7,0.7c1.7-0.7,3.2-1.7,4.6-2.9c-0.7,1.8-1.5,3.5-2.4,5.2l0.6,0.8
		c1.6-0.5,3.1-1.3,4.5-2.3c-0.8,1.6-1.7,3.2-2.7,4.8l0.6,0.8c1.8-0.4,3.5-1.1,5-2c-1,1.7-2.1,3.2-3.3,4.7l0.5,0.9
		c1.7-0.3,3.4-0.8,5-1.5c-1.1,1.5-2.3,2.9-3.5,4.3l0.4,0.9c1.7-0.1,3.5-0.5,5.1-1.1c-1.2,1.4-2.5,2.7-3.9,3.9l0.3,0.9
		c1.8,0,3.6-0.2,5.3-0.7c-1.4,1.3-2.8,2.6-4.4,3.7l0.3,1c1.7,0.2,3.5,0.1,5.2-0.2c-1.5,1.2-3,2.2-4.6,3.2l0.2,1
		c1.7,0.3,3.5,0.4,5.2,0.3c-1.6,1-3.2,2-4.9,2.8l0.1,1c1.8,0.5,3.6,0.8,5.4,0.7c-1.7,0.9-3.4,1.8-5.2,2.5v1c1.6,0.6,3.3,1,5,1.2
		c-1.7,0.7-3.4,1.4-5.1,1.9l-0.1,1c1.7,0.8,3.4,1.4,5.2,1.7c-1.9,0.6-3.8,1.2-5.7,1.6l-0.2,1C465.4,301.8,467.1,302.5,468.9,303z
		 M464.2,398.5l-0.1-1.7c0-0.6-0.1-1.1-0.2-1.7c-0.1-1.1-0.2-2.3-0.4-3.4c-0.1-1.1-0.2-2.2-0.3-3.3c0-0.5,0.1-1.1,0-1.6
		c-0.1-0.5-0.1-1.1-0.1-1.7c-0.1-1.1,0.1-2.2,0-3.3c-0.1-1.1,0-2.2,0-3.3l0.1-1.7v-1.7c0.1-2.2,0-4.4-0.4-6.5l0.7,1l1.5,2.7l0.8,1.4
		c0.2,0.4,0.4,1,0.6,1.4c0.4,1,0.8,2,1.1,3c0.2,1,0.4,2,0.6,3.1c0.1,0.5,0.2,1,0.2,1.5s0,1,0,1.6c-0.1,1.1-0.1,2.1-0.3,3.1
		c-0.2,1-0.5,2.1-0.8,3.1s-0.6,2-1,3c-0.3,1-0.6,2-0.9,3c-0.5,1.8-0.9,3.6-1.1,5.5C464.3,400.8,464.3,399.7,464.2,398.5z
		 M454.8,398.8c-0.1-1.1-0.1-2.3-0.1-3.4s0-2.2,0-3.3c0-0.5,0.1-1.1,0.1-1.6c0-0.5,0.1-1.1,0.1-1.6c0.1-1.1,0.2-2.2,0.3-3.3
		s0.2-2.2,0.3-3.3l0.2-1.7l0.1-1.7c0.3-2.1,0.3-4.3,0.2-6.4l0.5,0.9l1.3,2.8l0.7,1.4c0.2,0.5,0.3,1,0.5,1.5c0.3,1,0.6,2,0.8,3
		c0.2,1,0.2,2.1,0.3,3.1c0,0.6,0.1,1,0,1.6s-0.1,1-0.1,1.6c-0.1,1-0.3,2.1-0.6,3.1c-0.3,1-0.6,2-1,3c-0.3,1-0.8,2-1.2,2.9
		c-0.4,1-0.8,1.9-1.2,2.9c-0.6,1.6-1.1,3.3-1.5,5c0.1-1,0.2-2,0.2-2.9l0-1.7C454.8,399.9,454.8,399.4,454.8,398.8z M451.9,388.6
		c0,0.6,0,1-0.1,1.6s-0.2,1-0.3,1.5c-0.2,1-0.4,2-0.8,3c-0.4,1-0.8,2-1.3,2.9c-0.5,1-0.9,1.9-1.5,2.8c-0.5,0.9-0.9,1.9-1.4,2.8
		c-0.9,1.8-1.6,3.7-2.2,5.7c0-0.2,0.1-0.3,0.1-0.5c0.3-1.1,0.5-2.2,0.6-3.4l0.2-1.7c0.1-0.6,0.1-1.1,0.1-1.7
		c0.1-1.2,0.2-2.2,0.2-3.4c0-1.1,0.1-2.2,0.3-3.3c0.1-0.6,0.2-1.1,0.2-1.6c0.1-0.6,0.1-1.1,0.2-1.6c0.2-1.1,0.5-2.2,0.6-3.2
		c0.1-1.1,0.4-2.2,0.6-3.3l0.4-1.7l0.3-1.7c0.5-2.1,0.7-4.3,0.7-6.5l0.5,1.2l1,2.9l0.5,1.5c0.1,0.5,0.2,1,0.4,1.5
		c0.2,1,0.4,2.1,0.5,3.1C451.9,386.5,451.9,387.5,451.9,388.6z M377.4,399.9c-1.6,0.9-3.1,1.9-4.6,3c0.8-0.7,1.6-1.5,2.3-2.3
		l1.1-1.3c0.4-0.4,0.7-0.9,1.1-1.3c0.7-0.9,1.4-1.8,2.1-2.6c0.7-0.9,1.4-1.7,2.1-2.6c0.4-0.4,0.8-0.8,1.1-1.2s0.7-0.8,1.1-1.2
		c0.8-0.8,1.6-1.5,2.4-2.3c0.8-0.8,1.6-1.6,2.4-2.4l1.3-1.1l1.2-1.2c1.7-1.5,3.1-3.2,4.4-5.1l-0.3,1.3l-0.8,3l-0.4,1.5
		c-0.2,0.5-0.4,1-0.6,1.5c-0.4,1-0.8,1.9-1.3,2.8c-0.5,0.9-1.1,1.8-1.8,2.6c-0.3,0.4-0.6,0.8-1,1.2c-0.4,0.4-0.7,0.8-1.1,1.1
		c-0.8,0.7-1.5,1.4-2.4,2c-0.9,0.6-1.8,1.1-2.7,1.6c-0.9,0.5-1.9,1-2.8,1.5C379.2,398.9,378.3,399.5,377.4,399.9z M380,408.8
		L380,408.8c-0.5,0.4-0.8,0.7-1.2,1.1s-0.8,0.7-1.1,1c0,0-0.1,0.1-0.1,0.1c-0.2,0-0.4,0.1-0.7,0.1c-0.2,0.1-0.5,0.1-0.7,0.2
		c0.4-0.2,0.8-0.4,1.1-0.7C378.2,410.1,379.1,409.5,380,408.8z M327.8,277.8l-3-0.5l-1.5-0.3c-0.5-0.1-1-0.3-1.5-0.5
		c-1-0.3-1.9-0.7-2.9-1.1c-0.9-0.5-1.8-1-2.7-1.5c-0.5-0.3-0.9-0.6-1.3-0.9c-0.4-0.3-0.8-0.6-1.2-1c-0.8-0.7-1.5-1.4-2.3-2.2
		c-0.7-0.8-1.2-1.7-1.9-2.6s-1.2-1.8-1.7-2.7c-0.5-0.9-1.1-1.7-1.7-2.6c-1.1-1.6-2.3-3.1-3.6-4.5c0,0,0.1,0.1,0.1,0.1
		c0.8,0.8,1.7,1.5,2.6,2.2l1.4,1c0.4,0.4,1,0.7,1.4,1c1,0.6,1.9,1.3,2.8,1.9c1,0.6,1.9,1.2,2.7,1.9c0.5,0.3,0.8,0.7,1.3,1
		c0.4,0.3,0.9,0.7,1.3,1c0.9,0.7,1.6,1.5,2.5,2.2c0.9,0.7,1.7,1.4,2.5,2.2l1.2,1.2l1.4,1.1c1.6,1.5,3.3,2.8,5.2,3.8L327.8,277.8z
		 M327.9,285.5h-1l-3.1-0.3l-1.6-0.2c-0.5-0.1-1-0.2-1.5-0.3c-1-0.2-2-0.4-3-0.8c-1-0.4-1.9-0.8-2.8-1.3c-0.5-0.2-0.9-0.5-1.4-0.7
		c-0.5-0.3-0.9-0.6-1.3-0.9c-0.8-0.6-1.7-1.2-2.4-2c-0.7-0.8-1.4-1.6-2.1-2.4s-1.3-1.7-1.9-2.5c-0.6-0.9-1.3-1.6-1.9-2.5
		c-1.1-1.3-2.2-2.5-3.4-3.6c0.8,0.6,1.5,1.1,2.4,1.6l1.5,0.9c0.5,0.3,1,0.5,1.5,0.8c1,0.5,2,1.1,3,1.6c1,0.5,2,1.1,2.9,1.6
		c0.5,0.3,0.9,0.6,1.4,0.9c0.5,0.3,0.9,0.6,1.4,0.9c0.9,0.6,1.7,1.3,2.7,1.9c0.9,0.6,1.8,1.3,2.7,1.9l1.3,1l1.4,1
		C324.3,283.6,326.1,284.7,327.9,285.5z M351.6,192.1c0.1,1.1,0.3,2.2,0.6,3.3l0.4,1.7c0.1,0.6,0.3,1.1,0.5,1.6
		c0.4,1.1,0.6,2.2,0.9,3.3c0.3,1.1,0.6,2.1,0.9,3.2c0.1,0.5,0.2,1.1,0.3,1.6s0.2,1.1,0.3,1.6c0.2,1.1,0.3,2.2,0.5,3.3
		c0.2,1.1,0.4,2.2,0.5,3.3l0.2,1.7l0.3,1.7c0.3,2.2,0.8,4.3,1.5,6.3l-0.8-0.9l-2-2.4l-1-1.2c-0.3-0.4-0.6-0.9-0.8-1.3
		c-0.6-0.9-1.1-1.8-1.6-2.7c-0.4-1-0.8-1.9-1.1-2.9c-0.2-0.5-0.3-0.9-0.5-1.5s-0.2-1-0.3-1.5c-0.1-1-0.3-2.1-0.3-3.1
		c0-1.1,0.2-2.1,0.2-3.2c0.1-1.1,0.2-2,0.4-3.1s0.2-2.1,0.4-3.1C351.6,195.8,351.7,193.9,351.6,192.1z M358.1,201.5
		c0.1-1,0.3-2.1,0.5-3.1c0.2-1,0.4-2,0.7-3.1s0.4-2,0.6-3c0.3-1.7,0.5-3.3,0.6-5c0,1,0.1,1.9,0.3,2.9l0.3,1.7
		c0.1,0.6,0.2,1.1,0.3,1.7c0.2,1.1,0.4,2.2,0.6,3.3c0.2,1.1,0.5,2.2,0.6,3.3c0.1,0.5,0.1,1.1,0.2,1.6c0.1,0.6,0.2,1.1,0.2,1.6
		c0.1,1.1,0.1,2.2,0.2,3.3c0.1,1.1,0.2,2.2,0.3,3.3l0.1,1.7l0.2,1.7c0.1,2.1,0.4,4.2,0.9,6.3l-0.7-0.8l-1.8-2.5l-0.9-1.3
		c-0.3-0.5-0.5-0.9-0.7-1.4c-0.5-0.9-0.9-1.8-1.3-2.8c-0.3-1-0.6-2-0.8-3c-0.1-0.5-0.2-1-0.3-1.5s-0.1-1-0.1-1.6
		C358,203.6,358,202.6,358.1,201.5z M350.5,222.2l0.5,1.6c0.5,2.1,1.2,4.2,2.1,6.1l-0.9-0.8L350,227l-1.1-1.2
		c-0.4-0.4-0.7-0.8-1-1.2c-0.6-0.8-1.2-1.7-1.8-2.6c-0.5-0.9-1-1.9-1.3-2.8c-0.2-0.5-0.4-1-0.6-1.5c-0.2-0.5-0.3-1-0.4-1.5
		c-0.2-1-0.4-2.1-0.5-3.1c-0.1-1.1,0-2.1-0.1-3.2s0-2.1,0.1-3.2c0.1-1.1,0.1-2.1,0.1-3.1c0-1.8-0.1-3.5-0.3-5.3c0.2,1,0.5,2,0.8,3
		l0.5,1.6c0.2,0.5,0.4,1.1,0.6,1.6c0.4,1.1,0.8,2.1,1.2,3.2s0.8,2.1,1.1,3.1c0.2,0.5,0.3,1.1,0.5,1.6c0.2,0.5,0.3,1,0.5,1.6
		c0.3,1,0.5,2.1,0.8,3.2s0.6,2.1,0.8,3.2L350.5,222.2z M344.2,226.6l0.5,1.6l0.6,1.6c0.6,2.1,1.5,4,2.6,5.9l-1-0.7l-2.4-2l-1.2-1
		c-0.4-0.4-0.7-0.8-1.1-1.1c-0.7-0.8-1.4-1.6-2-2.4c-0.6-0.9-1.1-1.8-1.6-2.7c-0.2-0.5-0.5-0.9-0.7-1.4c-0.2-0.5-0.4-1-0.5-1.5
		c-0.3-1-0.7-2-0.8-3c-0.2-1-0.2-2.1-0.3-3.2s-0.1-2.1-0.1-3.2c0-1.1-0.1-2.1-0.2-3.1c-0.1-1.8-0.4-3.5-0.8-5.3
		c0.3,1,0.7,2.1,1.1,3.1l0.7,1.6c0.2,0.5,0.5,1,0.8,1.5c0.5,1,1,2,1.5,3c0.5,1,1,2,1.4,3c0.2,0.5,0.4,1,0.6,1.5
		c0.2,0.5,0.4,1,0.6,1.5c0.4,1,0.7,2.1,1.1,3.1C343.5,224.5,343.9,225.6,344.2,226.6z M335.3,225.7c0.3,0.5,0.5,1,0.8,1.5
		c0.5,1,0.9,2,1.4,3s1,2,1.4,3l0.6,1.6l0.8,1.5c0.8,2,1.9,3.9,3.1,5.7l-1-0.6l-2.5-1.8l-1.3-0.9c-0.4-0.3-0.8-0.6-1.2-1
		c-0.8-0.7-1.5-1.5-2.2-2.2c-0.7-0.8-1.3-1.7-1.8-2.5c-0.3-0.4-0.6-0.9-0.8-1.3c-0.2-0.5-0.5-0.9-0.7-1.4c-0.4-1-0.8-2-1.1-3
		c-0.2-1-0.4-2.1-0.6-3.1c-0.2-1-0.3-2-0.4-3.1c-0.1-1.1-0.3-2.1-0.5-3.1c-0.3-1.7-0.7-3.4-1.2-5.1c0.4,0.9,0.8,1.9,1.3,2.8l0.8,1.5
		c0.3,0.5,0.6,1,0.9,1.5c0.6,1,1.1,1.9,1.8,2.9s1.2,1.9,1.7,2.9C334.8,224.7,335,225.2,335.3,225.7z M329,231.7
		c0.3,0.5,0.6,0.9,0.9,1.4s0.6,0.9,0.9,1.4c0.6,0.9,1,2,1.6,2.9c0.6,0.9,1.1,1.9,1.6,2.9l0.8,1.5l0.9,1.5c1,1.9,2.2,3.7,3.5,5.3
		l-1.1-0.6l-2.7-1.5l-1.4-0.8c-0.4-0.3-0.8-0.6-1.2-0.9c-0.8-0.6-1.6-1.3-2.4-2c-0.7-0.8-1.4-1.6-2-2.4c-0.3-0.4-0.6-0.8-0.9-1.2
		c-0.3-0.4-0.5-0.9-0.8-1.4c-0.5-0.9-0.9-1.9-1.3-2.9c-0.3-1-0.6-2.1-0.9-3.1c-0.3-1-0.5-2.1-0.7-3.1c-0.2-1-0.5-2-0.7-3
		c-0.5-2-1.2-3.9-1.9-5.8l-0.1-0.1c0.1,0.2,0.2,0.4,0.3,0.6c0.5,1,1.1,2,1.7,3l1,1.4c0.3,0.5,0.7,0.9,1,1.4c0.7,0.9,1.4,1.8,2,2.7
		C327.7,229.9,328.4,230.8,329,231.7z M321.8,237c0.8,0.8,1.5,1.7,2.2,2.5c0.4,0.4,0.7,0.9,1,1.3s0.7,0.9,1,1.3
		c0.7,0.9,1.2,1.8,1.9,2.7c0.7,0.9,1.3,1.8,1.9,2.8l0.9,1.4l1,1.4c1.2,1.9,2.6,3.6,4.1,5.1l-1.1-0.4l-2.8-1.3l-1.4-0.7
		c-0.5-0.2-0.9-0.5-1.3-0.8c-0.9-0.6-1.7-1.2-2.6-1.8c-0.8-0.7-1.5-1.4-2.2-2.2c-0.4-0.4-0.7-0.8-1-1.2c-0.3-0.4-0.6-0.9-0.9-1.3
		c-0.6-0.9-1.1-1.8-1.6-2.7c-0.4-1-0.7-2-1.1-3c-0.4-1-0.7-1.9-1-3s-0.7-2-1-3c-0.6-1.7-1.3-3.3-2.1-4.9c0.6,0.9,1.2,1.8,1.8,2.6
		l1.1,1.3c0.4,0.4,0.8,0.9,1.2,1.3C320.4,235.3,321.1,236.2,321.8,237z M317.5,245.5c0.8,0.8,1.6,1.5,2.4,2.4
		c0.4,0.4,0.7,0.8,1.1,1.2c0.4,0.4,0.8,0.8,1.1,1.2c0.7,0.8,1.4,1.7,2.1,2.6c0.8,0.8,1.5,1.7,2.1,2.6l1,1.4l1.1,1.3
		c1.3,1.7,2.8,3.3,4.5,4.7l-1.3-0.4l-2.9-1.1l-1.5-0.5c-0.5-0.2-0.9-0.5-1.4-0.7c-0.9-0.5-1.8-1-2.7-1.6c-0.8-0.6-1.7-1.3-2.4-2
		c-0.4-0.3-0.8-0.7-1.1-1.1s-0.7-0.8-1-1.2c-0.6-0.8-1.3-1.7-1.8-2.6c-0.5-0.9-1-1.9-1.4-2.9s-0.8-1.9-1.2-2.9
		c-0.4-1-0.8-1.9-1.2-2.9c-0.8-1.9-1.8-3.7-2.9-5.4l-0.1-0.2c0.2,0.2,0.3,0.5,0.5,0.7c0.7,0.9,1.4,1.8,2.2,2.6l1.2,1.2
		c0.4,0.4,0.8,0.8,1.2,1.2C315.9,244,316.7,244.8,317.5,245.5z M311.1,252.3c0.9,0.7,1.7,1.4,2.6,2.1c0.9,0.7,1.8,1.4,2.6,2.1
		c0.4,0.4,0.8,0.8,1.2,1.1s0.8,0.7,1.2,1.1c0.8,0.8,1.5,1.6,2.3,2.4s1.6,1.6,2.3,2.4l1.1,1.3l1.2,1.2c1.5,1.6,3.2,3.1,5,4.3
		l-1.3-0.3l-3-0.8l-1.5-0.4c-0.5-0.2-1-0.4-1.5-0.6c-1-0.4-1.9-0.8-2.8-1.3c-0.9-0.5-1.8-1.1-2.6-1.8c-0.4-0.3-0.8-0.7-1.2-1
		c-0.4-0.4-0.8-0.7-1.1-1.1c-0.7-0.8-1.4-1.6-2-2.4c-0.6-0.9-1.1-1.8-1.6-2.7c-0.5-0.9-1-1.9-1.5-2.8c-0.5-1-1-1.8-1.5-2.7
		c-0.9-1.6-1.9-3-2.9-4.5c0.7,0.8,1.5,1.5,2.3,2.2l1.3,1.1C310.2,251.6,310.7,251.9,311.1,252.3z M308.5,235.1
		c-0.3-0.4-0.6-0.9-0.8-1.3c-0.3-0.4-0.5-0.9-0.8-1.3c-1.7-2.7-3.5-5.2-5.4-7.7c0.3,0,0.6,0.1,0.9,0.1c0.9,0.1,1.8,0.1,2.7,0
		c0.1,0.3,0.1,0.6,0.2,0.9c0.5,2.2,1.2,4.3,2,6.4C307.6,233.2,308,234.2,308.5,235.1L308.5,235.1z M301,299.9l1.6,0.5
		c0.5,0.2,1.1,0.3,1.7,0.4c1.1,0.2,2.2,0.6,3.3,0.8c1.1,0.2,2.2,0.5,3.2,0.8c0.6,0.2,1,0.4,1.6,0.5c0.6,0.2,1,0.3,1.6,0.5
		c1,0.3,2,0.8,3.1,1.2s2.1,0.7,3.1,1.2l1.6,0.7l1.6,0.6c2,0.8,4.1,1.5,6.2,1.8l-1.2,0.3l-3,0.5l-1.5,0.2c-0.5,0.1-1,0.1-1.5,0.1
		c-1,0-2.1,0-3.1,0c-1-0.1-2.1-0.3-3.1-0.5c-0.5-0.1-1.1-0.2-1.5-0.4c-0.5-0.1-1-0.3-1.5-0.5c-1-0.4-1.9-0.8-2.8-1.4
		c-0.9-0.6-1.8-1.2-2.6-1.8c-0.9-0.6-1.7-1.3-2.5-1.9c-0.8-0.7-1.7-1.2-2.5-1.9c-1.5-1.1-3-2-4.6-2.9
		C298.9,299.2,299.9,299.6,301,299.9z M297.5,288.2C297.5,288.2,297.5,288.3,297.5,288.2c1.1,0.6,2.1,1.1,3.2,1.5l1.6,0.6
		c0.5,0.2,1.1,0.4,1.6,0.5c1.1,0.3,2.1,0.8,3.2,1.1c1.1,0.3,2.1,0.7,3.1,1.1c0.5,0.2,1,0.5,1.5,0.7c0.5,0.2,1,0.4,1.5,0.6
		c1,0.4,2,1,3,1.4c1,0.4,2,0.9,3,1.4l1.5,0.8l1.6,0.7c2,1,4,1.8,6.1,2.4l-1.3,0.2l-3.1,0.3l-1.6,0.1c-0.6,0-1,0-1.6,0
		c-1,0-2.1-0.1-3.1-0.3c-1-0.2-2-0.5-3-0.8c-0.5-0.1-1-0.3-1.5-0.5c-0.5-0.2-1-0.4-1.4-0.7c-0.9-0.5-1.8-1-2.7-1.6
		c-0.9-0.6-1.7-1.3-2.5-2c-0.8-0.7-1.6-1.4-2.3-2.1c-0.8-0.7-1.6-1.4-2.3-2.1C300.6,290.4,299.1,289.3,297.5,288.2z M298.8,309.1
		c1.1,0.4,2.2,0.6,3.3,0.9l1.7,0.3c0.6,0.1,1.1,0.2,1.7,0.3c1.1,0.2,2.2,0.4,3.3,0.5c1.1,0.1,2.2,0.3,3.3,0.6
		c0.5,0.1,1.1,0.3,1.6,0.4s1.1,0.2,1.6,0.4c1.1,0.2,2.1,0.6,3.2,0.9c1.1,0.3,2.1,0.6,3.2,0.9l1.6,0.5l1.6,0.4
		c2.1,0.7,4.3,1.1,6.5,1.3l-1.2,0.4l-3,0.8l-1.5,0.4c-0.5,0.1-1,0.2-1.5,0.2c-1,0.1-2.1,0.3-3.1,0.3c-1,0-2.1-0.1-3.1-0.2
		c-0.5-0.1-1-0.1-1.5-0.2c-0.5-0.1-1-0.3-1.5-0.4c-1-0.3-2-0.7-3-1.1c-1-0.5-1.9-1-2.8-1.5c-0.9-0.5-1.8-1.1-2.7-1.7
		s-1.8-1.1-2.6-1.6c-1.6-1-3.4-1.8-5.1-2.6C298.7,309.1,298.7,309.1,298.8,309.1z M300.7,319.4c1.1,0.3,2.2,0.5,3.4,0.6l1.7,0.2
		c0.6,0.1,1.1,0.1,1.7,0.1c1.2,0.1,2.2,0.2,3.4,0.2c1.1,0,2.2,0.1,3.3,0.3c0.5,0.1,1.1,0.2,1.6,0.2c0.5,0.1,1.1,0.1,1.6,0.2
		c1.1,0.1,2.2,0.5,3.2,0.6s2.2,0.4,3.3,0.6l1.7,0.4l1.7,0.3c2.2,0.5,4.4,0.7,6.6,0.7l-1.3,0.6l-2.9,1l-1.5,0.5
		c-0.5,0.1-1,0.2-1.5,0.4c-1,0.2-2.1,0.4-3.1,0.5c-1,0.1-2.1,0.1-3.1,0c-0.6,0-1,0-1.6-0.1s-1-0.2-1.5-0.3c-1-0.2-2-0.4-3-0.8
		c-1-0.4-2-0.8-2.9-1.3c-1-0.5-1.9-0.9-2.8-1.5c-0.9-0.5-1.9-0.9-2.8-1.4c-1.8-0.9-3.6-1.6-5.5-2.2
		C300.5,319.3,300.6,319.3,300.7,319.4z M306.9,329.8l1.7,0c0.6,0,1.1,0,1.7,0c1.2-0.1,2.3,0,3.4-0.1c1.1,0,2.2,0,3.3,0
		c0.6,0,1.1,0.1,1.6,0.1c0.5,0,1.1,0.1,1.7,0.1c1.1,0.1,2.2,0.2,3.3,0.3s2.2,0.2,3.3,0.3l1.7,0.2l1.7,0.1c2.1,0.3,4.2,0.3,6.3,0.2
		l-0.8,0.4l-2.8,1.3l-1.4,0.6c-0.5,0.2-1,0.3-1.5,0.5c-1,0.3-2,0.6-3,0.8c-1,0.2-2.1,0.2-3.1,0.3c-0.6,0-1,0.1-1.6,0
		s-1.1-0.1-1.6-0.1c-1-0.1-2.1-0.3-3.1-0.6s-2-0.6-3-1c-1-0.3-2-0.8-2.9-1.2s-1.9-0.8-2.9-1.2c-1.5-0.6-3-1-4.5-1.4
		C305.2,329.7,306,329.8,306.9,329.8z M307.2,339.1c1.1,0.1,2.3,0.1,3.4,0l1.7-0.1c0.6,0,1.1-0.1,1.7-0.2c1.1-0.1,2.2-0.2,3.4-0.4
		c1.1-0.1,2.2-0.2,3.3-0.3c0.5,0,1.1,0.1,1.6,0s1.1-0.1,1.6-0.1c1.1-0.1,2.2,0.1,3.3,0c1.1-0.1,2.2,0,3.3,0l1.7,0.1h1.7
		c2.2,0.1,4.4,0,6.6-0.4l-1.1,0.7l-2.7,1.5l-1.4,0.8c-0.4,0.2-1,0.4-1.4,0.6c-0.9,0.4-1.9,0.8-2.9,1.1s-2.1,0.4-3.1,0.6
		c-0.6,0.1-1,0.2-1.6,0.2s-1,0-1.6,0c-1.1-0.1-2.1-0.1-3.1-0.3c-1-0.2-2.1-0.5-3.1-0.8s-2-0.6-3-0.9c-1-0.4-2-0.6-3-0.9
		c-1.9-0.5-3.9-0.9-5.8-1.2C307,339.1,307.1,339.1,307.2,339.1z M315.1,348.3l1.7-0.3c0.6-0.1,1.1-0.2,1.7-0.3
		c1.1-0.2,2.2-0.4,3.3-0.6s2.2-0.5,3.3-0.6c0.5-0.1,1.1-0.1,1.6-0.2c0.5-0.1,1.1-0.2,1.6-0.2c1.1-0.1,2.2-0.1,3.3-0.2
		c1.1-0.1,2.2-0.2,3.3-0.3l1.7-0.1l1.7-0.2c2.1-0.1,4.2-0.4,6.3-0.9l-0.8,0.7l-2.6,1.8l-1.3,0.9c-0.5,0.3-0.9,0.5-1.4,0.7
		c-0.9,0.5-1.8,0.9-2.8,1.3c-1,0.3-2,0.6-3,0.8c-0.5,0.1-1,0.2-1.5,0.3s-1.1,0.1-1.6,0.1c-1,0.1-2.1,0.1-3.1,0
		c-1-0.1-2.1-0.3-3.1-0.5c-1-0.2-2.1-0.4-3.1-0.7c-1-0.3-2-0.4-3-0.6c-1.7-0.3-3.4-0.5-5.1-0.6C313.2,348.5,314.2,348.4,315.1,348.3
		z M317.1,357.4c1.1-0.1,2.3-0.3,3.4-0.6l1.7-0.4c0.6-0.1,1.1-0.3,1.7-0.5c1.1-0.3,2.2-0.6,3.3-0.9c1.1-0.3,2.1-0.6,3.2-0.9
		c0.5-0.1,1.1-0.2,1.6-0.3c0.5-0.1,1.1-0.2,1.6-0.4c1.1-0.2,2.2-0.3,3.3-0.5c1.1-0.2,2.2-0.4,3.3-0.6l1.7-0.2l1.7-0.3
		c2.2-0.3,4.4-0.8,6.5-1.6l-1.1,1l-2.4,2l-1.2,1c-0.4,0.3-0.9,0.6-1.3,0.9c-0.9,0.6-1.8,1.1-2.7,1.6c-1,0.4-1.9,0.8-2.9,1.1
		c-0.5,0.2-1,0.3-1.5,0.5c-0.5,0.1-1,0.2-1.5,0.3c-1,0.1-2.1,0.2-3.1,0.3c-1.1,0-2.1-0.1-3.2-0.2c-1.1-0.1-2.1-0.2-3.1-0.4
		s-2.1-0.2-3.1-0.4c-2-0.2-4.1-0.3-6.1-0.2l-0.5,0C316.4,357.5,316.7,357.5,317.1,357.4z M326.5,365.1l1.6-0.5
		c0.5-0.2,1.1-0.4,1.6-0.6c1.1-0.4,2.1-0.8,3.2-1.2c1-0.4,2.1-0.8,3.1-1.1c0.5-0.2,1.1-0.3,1.6-0.5c0.5-0.2,1-0.3,1.6-0.5
		c1.1-0.3,2.1-0.5,3.2-0.8s2.1-0.6,3.2-0.8l1.7-0.4l1.6-0.5c2.1-0.4,4.1-1.1,6-2l-0.7,0.8l-2.2,2.2l-1.1,1.1c-0.4,0.4-0.8,0.7-1.2,1
		c-0.8,0.6-1.7,1.2-2.6,1.8c-0.9,0.5-1.9,1-2.8,1.3c-0.5,0.2-1,0.4-1.5,0.6c-0.5,0.2-1,0.3-1.5,0.4c-1,0.2-2.1,0.4-3.1,0.5
		c-1.1,0.1-2.1,0-3.2,0.1c-1.1,0-2.1,0-3.2-0.1c-1.1-0.1-2.1-0.1-3.1-0.1c-1.7,0-3.4,0.1-5.1,0.3
		C324.6,365.7,325.5,365.5,326.5,365.1z M333.2,372.7l1.6-0.7c0.5-0.2,1-0.5,1.5-0.8c1-0.5,2-1,3-1.5s2-1,3-1.4
		c0.5-0.2,1-0.4,1.5-0.6c0.5-0.2,1-0.4,1.5-0.6c1-0.4,2.1-0.7,3.1-1.1c1-0.4,2.1-0.8,3.1-1.1l1.6-0.5l1.6-0.6c2.1-0.6,4-1.5,5.9-2.6
		l-0.7,0.9l-2,2.4l-1,1.2c-0.4,0.4-0.8,0.7-1.1,1.1c-0.8,0.7-1.6,1.4-2.4,2c-0.9,0.6-1.8,1.1-2.7,1.6c-0.5,0.2-0.9,0.5-1.4,0.7
		s-1,0.4-1.5,0.5c-1,0.3-2,0.6-3,0.8c-1,0.2-2.1,0.2-3.2,0.3s-2.1,0.1-3.2,0.1c-1.1,0-2.1,0.1-3.1,0.2c-1.8,0.1-3.5,0.4-5.2,0.8
		C331.2,373.5,332.2,373.1,333.2,372.7z M340.5,379.7l1.5-0.8c0.5-0.3,1-0.6,1.5-0.9c1-0.6,1.9-1.1,2.9-1.7s1.9-1.2,2.9-1.7
		c0.5-0.3,1-0.5,1.5-0.7c0.5-0.3,1-0.5,1.5-0.8c1-0.5,2-0.9,3-1.4c1-0.5,2-1,3-1.4l1.6-0.6l1.5-0.8c2-0.8,4-1.9,5.8-3.2l-0.7,1.1
		l-1.8,2.5l-0.9,1.3c-0.3,0.4-0.6,0.8-1,1.2c-0.7,0.8-1.5,1.5-2.2,2.2c-0.8,0.6-1.7,1.3-2.5,1.8c-0.4,0.3-0.9,0.6-1.3,0.8
		c-0.5,0.2-0.9,0.5-1.4,0.7c-1,0.4-2,0.8-3,1.1c-1,0.2-2.1,0.4-3.1,0.6s-2,0.3-3.1,0.4c-1.1,0.1-2.1,0.3-3.1,0.4
		c-1.7,0.3-3.5,0.7-5.1,1.2C338.6,380.7,339.6,380.2,340.5,379.7z M348.4,386l1.4-0.9c0.5-0.3,0.9-0.7,1.4-1c0.9-0.7,1.8-1.4,2.7-2
		c0.9-0.7,1.8-1.3,2.7-1.9c0.5-0.3,0.9-0.6,1.4-0.9s0.9-0.6,1.4-0.9c0.9-0.6,1.9-1.1,2.9-1.6c0.9-0.6,1.9-1.1,2.9-1.6l1.5-0.8
		l1.5-0.9c1.9-1,3.7-2.2,5.4-3.6l-0.5,1.1l-1.5,2.7l-0.8,1.4c-0.3,0.4-0.6,0.8-0.9,1.2c-0.6,0.8-1.3,1.6-2,2.4
		c-0.8,0.7-1.6,1.4-2.4,2c-0.4,0.3-0.8,0.6-1.3,0.9c-0.4,0.3-0.9,0.5-1.4,0.8c-0.9,0.5-1.9,0.9-2.9,1.3c-1,0.3-2.1,0.6-3.1,0.9
		c-1,0.3-2.1,0.5-3.1,0.7c-1,0.2-2,0.5-3,0.7c-1.8,0.5-3.6,1.1-5.4,1.8C346.5,387.3,347.5,386.7,348.4,386z M356.9,391.7l1.3-1.1
		c0.4-0.4,0.9-0.8,1.3-1.1c0.8-0.8,1.7-1.5,2.5-2.2c0.8-0.8,1.7-1.5,2.5-2.2c0.4-0.4,0.9-0.7,1.3-1c0.4-0.3,0.9-0.7,1.3-1
		c0.9-0.7,1.8-1.2,2.7-1.9c0.9-0.7,1.8-1.3,2.8-1.9l1.4-0.9l1.4-1c1.9-1.2,3.6-2.6,5.1-4.1l-0.4,1.1l-1.3,2.8l-0.7,1.4
		c-0.2,0.5-0.5,0.9-0.8,1.3c-0.6,0.9-1.2,1.7-1.8,2.5c-0.7,0.8-1.4,1.5-2.2,2.2c-0.4,0.4-0.8,0.7-1.2,1s-0.9,0.6-1.3,0.9
		c-0.9,0.6-1.8,1.1-2.7,1.6c-1,0.4-2,0.7-3,1.1c-1,0.4-1.9,0.7-3,1s-2,0.7-3,1c-1.7,0.6-3.3,1.3-5,2.1
		C355.2,393,356.1,392.4,356.9,391.7z M363.2,398.7c0.9-0.7,1.8-1.4,2.6-2.2l1.2-1.2c0.4-0.4,0.8-0.8,1.2-1.2
		c0.8-0.8,1.6-1.6,2.3-2.4c0.8-0.8,1.5-1.6,2.3-2.4c0.4-0.4,0.8-0.7,1.2-1.1c0.4-0.4,0.8-0.7,1.2-1.1c0.8-0.7,1.7-1.4,2.6-2.1
		c0.8-0.8,1.7-1.5,2.6-2.1l1.4-1l1.3-1.1c1.8-1.3,3.3-2.8,4.7-4.5l-0.4,1.2l-1.1,2.9l-0.6,1.5c-0.2,0.5-0.5,0.9-0.7,1.4
		c-0.5,0.9-1,1.8-1.6,2.7c-0.6,0.8-1.3,1.6-2,2.4c-0.3,0.4-0.7,0.8-1.1,1.1s-0.8,0.7-1.2,1c-0.8,0.6-1.7,1.3-2.6,1.8
		s-1.9,0.9-2.9,1.4s-1.9,0.9-2.9,1.2s-1.9,0.8-2.9,1.2c-1.8,0.8-3.4,1.7-5.1,2.7C363.1,398.8,363.2,398.7,363.2,398.7z M382.5,406.5
		c0.8-0.8,1.5-1.7,2.2-2.6l1-1.4c0.4-0.4,0.7-1,1-1.4c0.6-1,1.3-1.8,1.9-2.8c0.6-1,1.2-1.9,1.9-2.7c0.3-0.4,0.7-0.9,1-1.3
		s0.6-0.9,1-1.3c0.7-0.9,1.5-1.6,2.1-2.5c0.7-0.9,1.4-1.7,2.2-2.5l1.2-1.2l1.1-1.4c1.5-1.6,2.8-3.3,3.8-5.2l-0.1,1.3l-0.5,3
		l-0.3,1.5c-0.1,0.5-0.3,1-0.5,1.5c-0.3,1-0.7,1.9-1.1,2.9c-0.5,0.9-1,1.8-1.5,2.7c-0.3,0.5-0.6,0.9-0.8,1.3c-0.3,0.4-0.6,0.8-1,1.2
		c-0.7,0.8-1.4,1.5-2.2,2.2c-0.8,0.7-1.7,1.3-2.6,1.9c-0.9,0.6-1.8,1.2-2.7,1.7c-0.9,0.5-1.7,1.1-2.6,1.7c-1.7,1.1-3.3,2.4-4.8,3.8
		l-0.3,0.3C382.1,406.9,382.3,406.7,382.5,406.5z M394.6,406.3l0.9-1.5c0.3-0.5,0.6-1,0.8-1.5c0.5-1,1.1-2,1.7-3
		c0.5-1,1.1-2,1.6-2.9c0.3-0.5,0.6-0.9,0.9-1.4c0.3-0.5,0.6-0.9,0.9-1.4c0.6-0.9,1.3-1.8,1.9-2.7c0.6-0.9,1.3-1.8,1.9-2.7l1-1.3
		l0.9-1.4c1.3-1.7,2.4-3.5,3.3-5.4v1l-0.3,3.1l-0.2,1.6c-0.1,0.5-0.2,1-0.3,1.5c-0.2,1-0.5,2-0.8,3c-0.4,1-0.8,1.9-1.3,2.8
		c-0.2,0.5-0.5,0.9-0.7,1.4c-0.3,0.5-0.6,0.9-0.9,1.3c-0.6,0.8-1.2,1.7-2,2.4c-0.8,0.7-1.6,1.4-2.4,2.1c-0.8,0.7-1.7,1.3-2.5,1.9
		c-0.9,0.6-1.6,1.3-2.5,1.9c-1.3,1.1-2.5,2.2-3.7,3.4C393.6,407.8,394.1,407.1,394.6,406.3z M404.7,407.8l0.8-1.5
		c0.2-0.5,0.4-1.1,0.7-1.6c0.4-1.1,1-2.1,1.4-3.1s0.9-2,1.4-3c0.2-0.5,0.6-1,0.8-1.5s0.5-1,0.8-1.4c0.5-1,1.1-1.9,1.7-2.9
		c0.5-1,1.1-1.9,1.7-2.9l0.9-1.4l0.8-1.5c1.1-1.8,2.1-3.7,2.8-5.7l0.1,1.1v3.1v1.6c0,0.5-0.1,1-0.2,1.5c-0.2,1-0.3,2.1-0.6,3.1
		c-0.3,1-0.6,2-1,2.9c-0.2,0.4-0.4,1-0.6,1.4c-0.2,0.5-0.5,0.9-0.8,1.4c-0.6,0.9-1.2,1.7-1.8,2.6c-0.7,0.8-1.5,1.5-2.2,2.3
		s-1.5,1.5-2.3,2.1s-1.5,1.4-2.3,2.1c-1.3,1.2-2.4,2.6-3.5,3.9C403.7,409.6,404.2,408.7,404.7,407.8z M414.8,408.4l0.6-1.6
		c0.2-0.5,0.4-1.1,0.5-1.6c0.3-1.1,0.8-2.1,1.1-3.2s0.7-2.1,1.1-3.1c0.2-0.5,0.5-1,0.7-1.5c0.2-0.5,0.4-1,0.6-1.5c0.4-1,1-2,1.4-3
		s0.9-2,1.4-3l0.8-1.5l0.7-1.6c1-1.9,1.8-4,2.4-6.1l0.2,1.2l0.3,3.1l0.1,1.6c0,0.6,0,1,0,1.6c-0.1,1-0.1,2.1-0.3,3.1
		c-0.2,1-0.5,2-0.8,3c-0.1,0.5-0.3,1-0.5,1.5c-0.2,0.5-0.4,1-0.7,1.4c-0.5,0.9-1,1.9-1.6,2.7c-0.6,0.9-1.3,1.7-2,2.5
		c-0.7,0.8-1.4,1.6-2.1,2.3s-1.4,1.5-2.1,2.3c-1.2,1.4-2.3,2.9-3.3,4.4C413.9,410.4,414.4,409.4,414.8,408.4z M424.9,408.1l0.5-1.6
		c0.2-0.5,0.3-1.1,0.4-1.7c0.2-1.1,0.6-2.2,0.8-3.3c0.2-1.1,0.5-2.2,0.8-3.2c0.2-0.6,0.4-1,0.5-1.6c0.2-0.6,0.3-1,0.5-1.6
		c0.3-1,0.8-2,1.2-3.1s0.7-2.1,1.2-3.1l0.7-1.6l0.5-1.6c0.8-2,1.5-4.1,1.8-6.2l0.3,1.2l0.5,3l0.2,1.5c0.1,0.6,0.1,1,0.1,1.6
		c0,1,0,2.1,0,3.1c-0.1,1-0.3,2.1-0.5,3.1c-0.1,0.5-0.2,1-0.3,1.5c-0.2,0.5-0.3,1-0.5,1.5c-0.4,1-0.8,1.9-1.3,2.8
		c-0.6,0.9-1.2,1.8-1.8,2.6s-1.2,1.7-1.9,2.5c-0.7,0.8-1.2,1.7-1.9,2.5c-1.1,1.5-2,3.1-2.9,4.7C424.2,410.3,424.6,409.2,424.9,408.1
		z M434.1,410.3c0.4-1.1,0.6-2.2,0.9-3.3l0.3-1.6c0.1-0.6,0.2-1.1,0.3-1.7c0.2-1.1,0.4-2.2,0.5-3.3c0.1-1.1,0.3-2.2,0.6-3.3
		c0.1-0.5,0.3-1.1,0.4-1.6s0.2-1.1,0.4-1.6c0.2-1.1,0.6-2.1,0.9-3.2c0.3-1.1,0.6-2.1,0.9-3.2l0.5-1.6l0.4-1.7
		c0.7-2.2,1.1-4.4,1.3-6.7l0.4,1.3l0.8,3l0.4,1.5c0.1,0.5,0.2,1,0.2,1.5c0.1,1,0.2,2.1,0.3,3.1c0,1-0.1,2.1-0.2,3.1
		c-0.1,0.5-0.1,1-0.2,1.5c-0.1,0.5-0.3,1-0.4,1.5c-0.3,1-0.6,2-1.1,3c-0.5,1-1,1.9-1.5,2.8c-0.5,0.9-1.1,1.8-1.7,2.7
		s-1.1,1.8-1.6,2.6c-1,1.7-2,3.6-2.7,5.5l-0.3,0.7C433.8,411.1,434,410.7,434.1,410.3z M370,185.5l0.1,1.7c0,0.6,0.1,1.1,0.2,1.7
		c0.1,1.1,0.2,2.2,0.4,3.4c0.1,1.1,0.2,2.2,0.3,3.3c0,0.5-0.1,1.1,0,1.6s0.1,1.1,0.1,1.6c0.1,1.1-0.1,2.2,0,3.3s0,2.2,0,3.3
		l-0.1,1.7v1.7c-0.1,2.2,0,4.4,0.4,6.6l-0.7-1.1l-1.5-2.7l-0.8-1.4c-0.2-0.4-0.4-1-0.6-1.4c-0.4-1-0.8-2-1.1-3c-0.2-1-0.4-2-0.6-3.1
		c-0.1-0.6-0.2-1-0.2-1.6s0-1,0-1.6c0-1,0.1-2.1,0.3-3.1c0.2-1,0.5-2.1,0.8-3.1s0.6-2,1-3c0.3-1,0.6-2,0.9-3
		c0.5-1.8,0.9-3.7,1.1-5.5c0,0,0,0,0,0C369.9,183.3,369.9,184.4,370,185.5z M379.4,185.2c0.1,1.2,0.1,2.3,0.1,3.4c0,1.1,0,2.2,0,3.3
		c0,0.5-0.1,1.1-0.1,1.6c0,0.5-0.1,1.1-0.1,1.7c-0.1,1.1-0.2,2.2-0.3,3.3c-0.1,1.1-0.2,2.2-0.3,3.3l-0.2,1.7l-0.1,1.7
		c-0.3,2.1-0.3,4.3-0.2,6.4l-0.5-0.9l-1.3-2.8l-0.7-1.4c-0.2-0.5-0.3-1-0.5-1.5c-0.3-1-0.6-2-0.8-3c-0.2-1-0.2-2.1-0.3-3.1
		c0-0.6-0.1-1,0-1.6s0.1-1,0.1-1.6c0.1-1,0.3-2.1,0.6-3.1c0.3-1,0.6-2,1-3c0.3-1,0.8-2,1.2-2.9c0.4-1,0.8-1.9,1.2-2.9
		c0.6-1.6,1.1-3.2,1.5-4.9c-0.1,0.9-0.2,1.9-0.2,2.8l0,1.7C379.3,184.1,379.4,184.6,379.4,185.2z M382.3,195.5c0-0.6,0-1,0.1-1.6
		c0.1-0.5,0.2-1,0.3-1.5c0.2-1,0.4-2,0.8-3c0.4-1,0.8-2,1.3-2.9c0.5-1,0.9-1.9,1.5-2.8s0.9-1.8,1.4-2.8c0.9-1.8,1.6-3.7,2.2-5.6
		c0,0.2-0.1,0.3-0.1,0.5c-0.3,1.1-0.5,2.2-0.6,3.4l-0.2,1.7c-0.1,0.6-0.1,1.1-0.1,1.7c-0.1,1.1-0.2,2.2-0.2,3.4
		c0,1.1-0.1,2.2-0.3,3.3c-0.1,0.5-0.2,1.1-0.2,1.6c-0.1,0.5-0.1,1.1-0.2,1.6c-0.1,1.1-0.5,2.2-0.6,3.2s-0.4,2.2-0.6,3.3l-0.4,1.7
		l-0.3,1.7c-0.5,2.1-0.7,4.3-0.7,6.5l-0.5-1.2l-1-2.9l-0.5-1.5c-0.2-0.5-0.2-1-0.4-1.5c-0.2-1-0.4-2.1-0.5-3.1
		C382.2,197.5,382.2,196.5,382.3,195.5z M409.2,175.9l-0.5,1.6c-0.1,0.5-0.3,1.1-0.4,1.7c-0.2,1.1-0.6,2.2-0.8,3.3
		c-0.2,1.1-0.5,2.2-0.9,3.2c-0.2,0.6-0.4,1-0.5,1.6c-0.1,0.6-0.3,1-0.5,1.6c-0.3,1.1-0.8,2-1.2,3.1s-0.7,2.1-1.2,3.1l-0.7,1.6
		l-0.6,1.6c-0.8,2-1.4,4.1-1.8,6.2l-0.3-1.2l-0.5-3l-0.2-1.5c-0.1-0.6-0.1-1-0.1-1.6c0-1,0-2.1,0-3.1c0.1-1,0.3-2.1,0.5-3.1
		c0.1-0.5,0.2-1,0.3-1.5c0.2-0.5,0.3-1,0.5-1.5c0.4-1,0.8-1.9,1.3-2.8c0.6-0.9,1.2-1.8,1.8-2.6c0.6-0.9,1.2-1.7,1.9-2.5
		s1.2-1.7,1.9-2.5c1.1-1.5,2-3,2.9-4.6C409.9,173.8,409.5,174.8,409.2,175.9z M411.2,184.2c0.6-0.9,1.3-1.7,2-2.5
		c0.7-0.8,1.4-1.6,2.1-2.3c0.7-0.8,1.4-1.6,2.1-2.3c1.2-1.4,2.3-2.9,3.3-4.4c-0.5,1-1,2-1.4,3l-0.6,1.6c-0.2,0.5-0.4,1.1-0.5,1.6
		c-0.3,1.1-0.8,2.1-1.1,3.2s-0.7,2.1-1.1,3.1c-0.2,0.5-0.5,1-0.7,1.5c-0.2,0.5-0.4,1-0.6,1.5c-0.4,1-1,2-1.4,3c-0.4,1-0.9,2-1.4,3
		l-0.8,1.5l-0.7,1.6c-1,1.9-1.8,4-2.4,6.1l-0.2-1.3l-0.3-3.1l-0.1-1.6c0-0.6,0-1,0-1.6c0.1-1,0.2-2.1,0.3-3.1c0.2-1,0.5-2,0.8-3
		c0.2-0.5,0.3-1,0.5-1.5s0.4-1,0.7-1.4C410.1,185.9,410.6,185,411.2,184.2z M399.1,177l-0.3,1.7c-0.1,0.6-0.2,1.1-0.3,1.7
		c-0.2,1.1-0.4,2.2-0.5,3.3c-0.2,1.1-0.3,2.2-0.6,3.3c-0.1,0.5-0.3,1.1-0.4,1.6s-0.2,1.1-0.4,1.6c-0.2,1.1-0.6,2.1-0.9,3.2
		c-0.3,1.1-0.6,2.1-0.9,3.2l-0.5,1.6l-0.4,1.7c-0.7,2.1-1.1,4.3-1.3,6.5l-0.4-1.2l-0.8-3l-0.4-1.5c-0.1-0.5-0.2-1-0.2-1.5
		c-0.1-1-0.2-2.1-0.3-3.1c0-1,0.1-2.1,0.2-3.1c0.1-0.5,0.1-1,0.2-1.5c0.1-0.5,0.3-1,0.4-1.5c0.3-1,0.6-2,1.1-3c0.5-1,1-1.9,1.5-2.8
		c0.5-0.9,1.1-1.8,1.7-2.7s1.1-1.8,1.6-2.6c1-1.6,1.8-3.3,2.5-5C399.6,174.8,399.4,175.9,399.1,177z M466,188
		c1.8-0.8,3.6-1.8,5.3-2.9c-0.1,0.1-0.2,0.1-0.3,0.2c-0.9,0.7-1.8,1.4-2.6,2.2l-1.2,1.2c-0.4,0.4-0.8,0.8-1.2,1.2
		c-0.8,0.9-1.6,1.6-2.3,2.4c-0.8,0.8-1.5,1.6-2.3,2.4c-0.4,0.4-0.8,0.7-1.2,1.1c-0.4,0.4-0.8,0.8-1.2,1.1c-0.8,0.7-1.7,1.4-2.6,2.1
		c-0.8,0.8-1.7,1.5-2.6,2.1l-1.4,1l-1.3,1.1c-1.8,1.4-3.4,2.9-4.8,4.6l0.4-1.3l1.1-2.9l0.6-1.5c0.2-0.5,0.5-0.9,0.7-1.4
		c0.5-0.9,1-1.8,1.6-2.7c0.6-0.8,1.3-1.6,2-2.4c0.3-0.4,0.7-0.8,1.1-1.1c0.4-0.4,0.8-0.7,1.2-1c0.8-0.6,1.7-1.3,2.6-1.8
		s1.9-0.9,2.9-1.4s1.9-0.8,2.9-1.2C464.1,188.8,465,188.4,466,188z M464.7,178.6c0.3-0.2,0.5-0.4,0.8-0.7l0.8-0.6c0,0.1,0,0.2,0,0.3
		C465.8,177.9,465.3,178.3,464.7,178.6z M507.7,219l-1.6,0.5c-0.5,0.2-1.1,0.4-1.6,0.6c-1.1,0.4-2.1,0.8-3.2,1.2
		c-1,0.4-2.1,0.8-3.1,1.1c-0.5,0.2-1.1,0.3-1.6,0.5c-0.5,0.2-1,0.3-1.6,0.5c-1.1,0.3-2.1,0.6-3.2,0.8c-1.1,0.3-2.1,0.6-3.2,0.8
		l-1.7,0.4l-1.6,0.5c-2.1,0.4-4.1,1.1-6.1,2l0.8-0.9l2.2-2.2l1.1-1.1c0.4-0.4,0.8-0.7,1.2-1c0.8-0.6,1.7-1.2,2.6-1.8
		c0.9-0.5,1.9-1,2.8-1.4c0.5-0.2,0.9-0.4,1.5-0.6c0.5-0.2,1-0.3,1.5-0.4c1-0.2,2.1-0.4,3.1-0.5c1.1-0.1,2.1-0.1,3.2-0.1
		c1,0,2.1,0,3.2,0.1c1.1,0.1,2.1,0.1,3.1,0.1c1.7,0,3.3-0.1,5-0.2C509.5,218.4,508.6,218.7,507.7,219z M511.5,226.4
		c1.9,0.2,3.8,0.2,5.6,0.2c0,0-0.1,0-0.1,0c-1.1,0.1-2.3,0.3-3.4,0.6l-1.7,0.4c-0.6,0.1-1.1,0.3-1.6,0.5c-1.1,0.3-2.2,0.6-3.3,0.9
		c-1.1,0.4-2.1,0.6-3.2,0.9c-0.5,0.1-1.1,0.2-1.6,0.3c-0.5,0.1-1.1,0.2-1.6,0.4c-1.1,0.2-2.2,0.3-3.3,0.5c-1.1,0.2-2.2,0.4-3.3,0.5
		l-1.7,0.2l-1.7,0.3c-2.1,0.3-4.2,0.8-6.3,1.5l0.9-0.8l2.4-2l1.2-1c0.4-0.3,0.9-0.6,1.3-0.9c0.9-0.5,1.8-1.1,2.7-1.5
		c1-0.4,1.9-0.8,2.9-1.1c0.5-0.2,1-0.3,1.5-0.4c0.5-0.1,1-0.2,1.5-0.3c1-0.1,2.1-0.3,3.1-0.3c1.1,0,2.1,0.2,3.2,0.2
		c1.1,0.1,2.1,0.2,3.1,0.4S510.5,226.2,511.5,226.4z M500.9,211.3l-1.6,0.7c-0.5,0.2-1,0.5-1.5,0.8c-1,0.5-2,1-3,1.5
		c-1,0.5-2,1-3,1.4c-0.5,0.2-1,0.4-1.5,0.6c-0.5,0.2-1,0.4-1.5,0.6c-1,0.4-2.1,0.7-3.1,1.1c-1,0.4-2.1,0.8-3.1,1.1l-1.6,0.5
		l-1.6,0.6c-2,0.6-3.9,1.5-5.7,2.5l0.6-0.9l2-2.4l1-1.2c0.4-0.4,0.8-0.7,1.1-1.1c0.8-0.7,1.6-1.4,2.4-2c0.9-0.6,1.8-1.1,2.7-1.6
		c0.4-0.2,0.9-0.5,1.4-0.7c0.5-0.2,1-0.4,1.5-0.5c1-0.3,2-0.6,3-0.8c1.1-0.2,2.1-0.2,3.2-0.3c1.1-0.1,2.1-0.1,3.2-0.1
		c1.1,0,2.1-0.1,3.1-0.2c1.7-0.1,3.4-0.4,5.1-0.7C502.8,210.5,501.9,210.9,500.9,211.3z M493.7,204.3l-1.5,0.8
		c-0.5,0.3-1,0.6-1.5,0.9c-1,0.6-1.9,1.2-2.9,1.8c-0.9,0.6-1.9,1.2-2.9,1.7c-0.5,0.3-1,0.5-1.5,0.7c-0.5,0.3-1,0.5-1.5,0.8
		c-1,0.5-2,0.9-3,1.4c-1,0.5-2,1-3,1.4l-1.6,0.6l-1.5,0.8c-2.1,0.9-4.1,2-5.9,3.3l0.7-1.2l1.8-2.5l0.9-1.3c0.3-0.4,0.6-0.8,1-1.2
		c0.7-0.8,1.5-1.5,2.2-2.2c0.8-0.7,1.7-1.3,2.5-1.8c0.4-0.3,0.9-0.6,1.3-0.8c0.5-0.2,0.9-0.5,1.4-0.7c1-0.4,2-0.8,3-1.1
		c1-0.2,2.1-0.4,3.1-0.6s2-0.3,3.1-0.4c1.1-0.1,2.1-0.3,3.1-0.5c1.9-0.3,3.7-0.7,5.5-1.3C495.7,203.3,494.7,203.8,493.7,204.3z
		 M485.7,198l-1.4,1c-0.5,0.3-0.9,0.7-1.4,1c-0.9,0.7-1.8,1.4-2.7,2c-0.9,0.7-1.8,1.3-2.7,1.9c-0.5,0.3-0.9,0.6-1.4,0.9
		s-0.9,0.6-1.4,0.9c-0.9,0.6-2,1-2.9,1.6c-0.9,0.6-1.9,1.1-2.9,1.6l-1.5,0.8l-1.5,0.9c-1.9,1-3.8,2.2-5.4,3.6l0.6-1.1l1.6-2.6
		l0.8-1.3c0.3-0.4,0.6-0.8,0.9-1.2c0.6-0.8,1.3-1.6,2-2.4c0.8-0.7,1.6-1.4,2.4-2c0.4-0.3,0.8-0.7,1.3-0.9s0.9-0.5,1.4-0.8
		c0.9-0.5,1.9-0.9,2.9-1.3c1-0.3,2.1-0.6,3.1-0.9c1-0.3,2.1-0.5,3.1-0.7c1-0.2,2-0.5,3-0.7c1.6-0.4,3.2-1,4.8-1.6
		C487.3,197,486.5,197.4,485.7,198z M477.2,192.3l-1.3,1.1c-0.4,0.4-0.9,0.8-1.3,1.1c-0.8,0.8-1.7,1.5-2.5,2.2
		c-0.8,0.8-1.7,1.5-2.5,2.2c-0.4,0.4-0.9,0.6-1.3,1c-0.4,0.4-0.9,0.7-1.3,1c-0.9,0.7-1.8,1.2-2.7,1.9s-1.8,1.3-2.8,1.9l-1.4,0.9
		l-1.4,1c-1.8,1.1-3.5,2.5-5,4l0.4-1l1.3-2.8l0.7-1.4c0.2-0.5,0.5-0.9,0.8-1.3c0.6-0.9,1.2-1.7,1.8-2.6c0.7-0.8,1.4-1.5,2.2-2.2
		c0.4-0.4,0.8-0.7,1.2-1s0.9-0.6,1.3-0.9c0.9-0.6,1.8-1.1,2.7-1.6c1-0.4,2-0.7,3-1.2c1-0.4,2-0.7,3-1s2-0.7,3-1
		c1.6-0.6,3.2-1.2,4.7-2C478.8,191.1,478,191.7,477.2,192.3z M459,183.5l-1.1,1.3c-0.4,0.4-0.7,0.9-1.1,1.3
		c-0.7,0.9-1.4,1.7-2.1,2.6c-0.7,0.9-1.4,1.7-2.1,2.6c-0.4,0.4-0.8,0.8-1.1,1.2c-0.4,0.4-0.7,0.8-1.1,1.2c-0.8,0.8-1.6,1.5-2.4,2.3
		s-1.6,1.6-2.4,2.3l-1.3,1.1l-1.2,1.2c-1.6,1.5-3.1,3.1-4.3,4.9l0.3-1.2l0.8-3l0.4-1.5c0.2-0.5,0.4-1,0.6-1.5c0.4-1,0.9-1.9,1.3-2.8
		c0.5-0.9,1.1-1.7,1.8-2.6c0.3-0.4,0.6-0.8,1-1.2c0.3-0.4,0.7-0.7,1.1-1.1c0.8-0.7,1.6-1.4,2.4-2c0.9-0.6,1.8-1.1,2.7-1.6
		c0.9-0.5,1.9-1,2.8-1.5c1-0.5,1.8-1,2.7-1.5c1.5-0.9,3-1.8,4.4-2.9C460.4,182,459.7,182.7,459,183.5z M449.3,180.2l-1,1.4
		c-0.3,0.4-0.6,1-1,1.4c-0.6,1-1.3,1.9-1.9,2.8c-0.6,1-1.2,1.9-1.9,2.7c-0.3,0.4-0.7,0.8-1,1.3s-0.6,0.9-1,1.3
		c-0.7,0.9-1.5,1.6-2.1,2.5s-1.4,1.7-2.2,2.5l-1.2,1.2l-1.1,1.3c-1.5,1.6-2.8,3.4-3.8,5.2l0.1-1.3l0.5-3l0.3-1.5
		c0.1-0.5,0.3-1,0.5-1.5c0.3-1,0.7-1.9,1.1-2.9c0.5-0.9,1-1.8,1.5-2.7c0.3-0.5,0.6-0.9,0.9-1.3c0.3-0.4,0.7-0.8,1-1.2
		c0.7-0.8,1.4-1.5,2.2-2.2c0.8-0.7,1.7-1.3,2.6-1.9c0.9-0.6,1.8-1.2,2.7-1.7c0.9-0.5,1.7-1.1,2.6-1.7c1.5-1,2.9-2.2,4.3-3.4
		C450.7,178.4,450,179.3,449.3,180.2z M439.5,177.6l-0.9,1.5c-0.3,0.5-0.5,1-0.8,1.5c-0.5,1-1.1,2-1.7,3c-0.5,1-1.1,2-1.6,2.9
		c-0.3,0.5-0.6,0.9-0.9,1.4c-0.3,0.5-0.6,0.9-0.9,1.4c-0.6,0.9-1.3,1.8-1.9,2.7s-1.3,1.8-1.9,2.7l-1,1.3l-1,1.4
		c-1.3,1.6-2.4,3.4-3.3,5.3v-0.9l0.3-3.1l0.2-1.6c0.1-0.5,0.2-1,0.3-1.5c0.2-1,0.5-2,0.8-3c0.4-1,0.8-1.9,1.3-2.8
		c0.2-0.5,0.5-0.9,0.7-1.4c0.3-0.5,0.6-0.9,0.9-1.3c0.6-0.8,1.3-1.6,2-2.4c0.8-0.7,1.6-1.4,2.4-2.1c0.8-0.7,1.6-1.3,2.5-1.9
		c0.9-0.6,1.6-1.3,2.5-1.9c1.2-1,2.3-2.1,3.4-3.2C440.4,176.3,439.9,177,439.5,177.6z M470.1,365.2l1.8,2.5l0.9,1.3
		c0.3,0.5,0.5,0.9,0.7,1.4c0.5,0.9,0.9,1.8,1.3,2.8c0.3,1,0.6,2,0.8,3c0.1,0.5,0.2,1,0.3,1.5s0.1,1.1,0.1,1.6c0.1,1,0.1,2.1,0,3.1
		s-0.3,2.1-0.5,3.1c-0.2,1-0.4,2.1-0.7,3.1c-0.3,1-0.4,2-0.6,3c-0.3,1.7-0.5,3.4-0.6,5.1c0-1-0.1-1.9-0.3-2.9l-0.3-1.7
		c-0.1-0.6-0.2-1.1-0.3-1.7c-0.2-1.1-0.4-2.2-0.6-3.3c-0.2-1.1-0.5-2.2-0.6-3.3c-0.1-0.5-0.1-1.1-0.2-1.6c-0.1-0.6-0.2-1.1-0.2-1.6
		c-0.1-1.1-0.2-2.2-0.2-3.3c-0.1-1.1-0.2-2.2-0.3-3.3l-0.1-1.7l-0.2-1.7c-0.1-2.2-0.4-4.3-1-6.4L470.1,365.2z M483.7,361.9l-0.5-1.6
		c-0.4-2.1-1.1-4.1-2-6l0.8,0.7l2.1,2.2l1.1,1.1c0.4,0.4,0.7,0.8,1,1.2c0.6,0.8,1.2,1.7,1.8,2.6c0.5,0.9,1,1.8,1.4,2.8
		c0.2,0.5,0.4,1,0.6,1.5c0.2,0.5,0.3,1,0.4,1.5c0.2,1,0.4,2.1,0.5,3.1c0.1,1.1,0,2.1,0.1,3.2c0,1.1,0,2.1-0.1,3.2
		c-0.1,1.1-0.1,2.1-0.1,3.1c0,1.6,0.1,3.2,0.2,4.8c-0.2-0.9-0.4-1.7-0.7-2.5l-0.5-1.6c-0.2-0.5-0.4-1.1-0.6-1.6
		c-0.4-1.1-0.8-2.1-1.2-3.2c-0.4-1-0.8-2.1-1.1-3.1c-0.2-0.5-0.3-1-0.5-1.6c-0.2-0.6-0.3-1-0.5-1.6c-0.3-1.1-0.5-2.1-0.8-3.2
		s-0.6-2.1-0.8-3.2L483.7,361.9z M490,357.4l-0.5-1.6l-0.6-1.6c-0.6-2-1.5-4-2.5-5.8l1,0.7l2.4,2l1.2,1c0.4,0.4,0.7,0.8,1.1,1.1
		c0.7,0.8,1.4,1.6,2,2.4c0.6,0.9,1.1,1.8,1.6,2.7c0.2,0.5,0.5,0.9,0.7,1.4c0.2,0.5,0.4,1,0.5,1.5c0.3,1,0.7,1.9,0.8,3
		c0.2,1.1,0.2,2.1,0.3,3.2c0.1,1,0.1,2.1,0.1,3.2c0,1.1,0.1,2.1,0.2,3.1c0.1,1.9,0.4,3.7,0.8,5.6c0,0,0-0.1,0-0.1
		c-0.3-1.1-0.7-2.2-1.2-3.2l-0.7-1.6c-0.2-0.5-0.5-1-0.8-1.5c-0.5-1-1-2-1.5-3s-1-2-1.4-3c-0.2-0.5-0.4-1-0.6-1.5
		c-0.2-0.5-0.4-1-0.6-1.5c-0.4-1-0.7-2.1-1.1-3.1C490.7,359.5,490.3,358.5,490,357.4z M498.9,358.3c-0.3-0.5-0.5-1-0.8-1.5
		c-0.5-1-0.9-2-1.4-3s-1-2-1.4-3l-0.6-1.6l-0.8-1.5c-0.8-2-1.9-4-3.2-5.7l1.1,0.7l2.5,1.8l1.3,0.9c0.4,0.3,0.8,0.6,1.2,1
		c0.8,0.7,1.5,1.5,2.2,2.2c0.7,0.8,1.3,1.7,1.8,2.5c0.3,0.4,0.6,0.9,0.8,1.3c0.2,0.5,0.5,0.9,0.7,1.4c0.4,1,0.8,2,1.1,3
		c0.2,1,0.4,2.1,0.6,3.1c0.2,1,0.3,2.1,0.4,3.1c0.1,1.1,0.3,2.1,0.5,3.1c0.3,1.7,0.7,3.5,1.2,5.1c-0.4-1-0.8-1.9-1.4-2.8l-0.8-1.5
		c-0.3-0.5-0.6-1-0.9-1.5c-0.6-1-1.1-1.9-1.8-2.9s-1.2-1.9-1.7-2.9C499.4,359.3,499.1,358.7,498.9,358.3z M505.2,352.4
		c-0.3-0.4-0.6-0.9-0.9-1.4s-0.6-0.9-0.9-1.4c-0.6-0.9-1.1-1.9-1.6-2.9c-0.6-0.9-1.1-1.9-1.6-2.9l-0.8-1.5l-0.9-1.5
		c-1-1.9-2.2-3.7-3.6-5.4l1.1,0.6l2.7,1.5l1.3,0.8c0.4,0.3,0.8,0.6,1.2,0.9c0.8,0.6,1.6,1.3,2.4,2c0.7,0.8,1.4,1.6,2,2.4
		c0.3,0.4,0.6,0.8,0.9,1.3c0.3,0.4,0.5,0.9,0.8,1.4c0.5,0.9,0.9,1.9,1.3,2.9c0.3,1,0.6,2.1,0.9,3.1c0.3,1,0.5,2.1,0.7,3.1
		c0.2,1,0.5,2,0.7,3c0.5,2,1.2,3.9,1.9,5.8l0,0c-0.1-0.2-0.1-0.3-0.2-0.5c-0.5-1-1.1-2-1.7-3l-1-1.4c-0.3-0.5-0.7-0.9-1-1.4
		c-0.7-0.9-1.3-1.8-2-2.7C506.4,354.2,505.8,353.3,505.2,352.4z M512.3,347c-0.8-0.8-1.5-1.7-2.2-2.5c-0.4-0.4-0.6-0.9-1-1.3
		c-0.3-0.4-0.7-0.9-1-1.3c-0.7-0.9-1.2-1.8-1.9-2.7c-0.7-0.9-1.3-1.8-1.9-2.8l-0.9-1.4l-1-1.4c-1.2-1.9-2.6-3.6-4.1-5.1l1.1,0.4
		l2.8,1.3l1.4,0.7c0.5,0.2,0.9,0.5,1.3,0.8c0.9,0.6,1.7,1.2,2.6,1.8c0.8,0.7,1.5,1.4,2.2,2.2c0.4,0.4,0.7,0.8,1,1.2
		c0.3,0.4,0.6,0.8,0.9,1.3c0.6,0.9,1.1,1.8,1.6,2.7c0.4,1,0.7,2,1.2,3s0.7,1.9,1,3c0.3,1.1,0.7,2,1,3c0.6,1.7,1.3,3.3,2.1,5
		c-0.6-0.9-1.2-1.8-1.9-2.6l-1.1-1.3c-0.4-0.4-0.8-0.9-1.2-1.3C513.8,348.7,513.1,347.8,512.3,347z M516.6,338.5
		c-0.8-0.8-1.6-1.5-2.4-2.3c-0.4-0.4-0.7-0.8-1.1-1.2c-0.4-0.4-0.8-0.8-1.1-1.2c-0.7-0.8-1.4-1.7-2.1-2.6c-0.8-0.8-1.5-1.7-2.1-2.6
		l-1-1.4l-1.1-1.3c-1.3-1.7-2.8-3.3-4.5-4.7l1.3,0.4l2.9,1.1l1.5,0.6c0.5,0.2,0.9,0.5,1.4,0.7c0.9,0.5,1.8,1,2.7,1.6
		c0.8,0.6,1.7,1.3,2.4,2c0.4,0.3,0.8,0.7,1.1,1.1s0.7,0.8,1,1.2c0.6,0.8,1.3,1.7,1.8,2.6s1,1.9,1.4,2.9s0.8,1.9,1.2,2.9
		c0.4,1,0.8,1.9,1.2,2.9c0.8,1.9,1.8,3.7,2.9,5.4l0.2,0.3c-0.2-0.3-0.4-0.5-0.5-0.8c-0.7-0.9-1.4-1.8-2.2-2.6l-1.2-1.2
		c-0.4-0.4-0.8-0.8-1.2-1.2C518.2,340,517.5,339.2,516.6,338.5z M521,359.5c0.2,0.5,0.5,0.9,0.7,1.4c1.3,2.5,2.7,4.9,4.2,7.3
		c-1,0.1-2,0.3-2.9,0.5c0-0.3-0.1-0.6-0.1-1c-0.1-1.1-0.3-2.2-0.6-3.3c-0.2-1.1-0.5-2.2-0.8-3.3c-0.2-0.8-0.5-1.6-0.8-2.5
		C520.7,359,520.9,359.3,521,359.5z M523,331.7c-0.9-0.7-1.7-1.5-2.6-2.1c-0.9-0.7-1.7-1.4-2.6-2.1c-0.4-0.4-0.8-0.8-1.2-1.1
		s-0.8-0.7-1.2-1.1c-0.8-0.8-1.5-1.6-2.3-2.4s-1.6-1.5-2.3-2.4l-1.1-1.3l-1.2-1.2c-1.5-1.6-3.2-3.1-5-4.3l1.3,0.3l3,0.8l1.5,0.4
		c0.5,0.2,1,0.4,1.5,0.6c1,0.4,1.9,0.8,2.8,1.3c0.9,0.5,1.7,1.2,2.6,1.8c0.4,0.3,0.8,0.6,1.2,1c0.4,0.4,0.8,0.7,1.1,1.1
		c0.7,0.8,1.4,1.6,2,2.4c0.6,0.9,1.1,1.8,1.6,2.7c0.5,0.9,1,1.8,1.5,2.8c0.5,1,1,1.8,1.5,2.7c0.8,1.5,1.8,3,2.8,4.3
		c-0.7-0.7-1.4-1.5-2.2-2.1l-1.3-1.1C523.9,332.4,523.5,332.1,523,331.7z M527.5,323.3c-0.4-0.3-1-0.6-1.4-0.9
		c-1-0.6-1.9-1.3-2.8-1.9c-1-0.6-1.9-1.2-2.7-1.9c-0.4-0.3-0.8-0.7-1.3-1s-0.9-0.7-1.3-1c-0.9-0.7-1.7-1.5-2.5-2.1
		c-0.9-0.7-1.7-1.4-2.5-2.2l-1.2-1.2l-1.3-1.1c-1.6-1.5-3.4-2.8-5.3-3.9l1.4,0.2l3,0.5l1.5,0.3c0.5,0.1,1,0.3,1.5,0.4
		c0.9,0.3,1.9,0.7,2.9,1.1c0.9,0.5,1.8,1,2.7,1.5c0.5,0.3,0.9,0.6,1.3,0.8s0.8,0.6,1.2,1c0.8,0.7,1.5,1.4,2.2,2.2
		c0.7,0.8,1.2,1.7,1.9,2.6c0.6,0.9,1.2,1.8,1.7,2.7c0.5,0.9,1.1,1.7,1.7,2.6c1.1,1.7,2.4,3.2,3.7,4.7c-0.1-0.1-0.2-0.2-0.3-0.3
		c-0.8-0.8-1.7-1.5-2.6-2.2L527.5,323.3z M531.3,314.5l-1.5-0.9c-0.5-0.3-1-0.6-1.5-0.8c-1-0.5-2-1.1-3-1.6s-2-1.1-2.9-1.7
		c-0.5-0.3-0.9-0.6-1.4-0.9c-0.5-0.3-0.9-0.6-1.4-0.9c-0.9-0.6-1.8-1.3-2.7-1.9c-0.9-0.6-1.8-1.2-2.7-1.9l-1.3-1l-1.4-1
		c-1.6-1.3-3.4-2.4-5.3-3.2h1l3.1,0.3l1.6,0.2c0.5,0.1,1,0.2,1.5,0.3c1,0.2,2,0.5,3,0.8c1,0.4,1.9,0.8,2.8,1.3
		c0.5,0.2,0.9,0.5,1.4,0.7c0.4,0.3,0.9,0.6,1.3,0.9c0.8,0.6,1.7,1.2,2.4,2c0.7,0.8,1.4,1.6,2.1,2.4c0.7,0.8,1.3,1.7,1.9,2.5
		c0.6,0.9,1.3,1.6,1.9,2.5c1,1.3,2.2,2.5,3.4,3.6C532.9,315.5,532.1,314.9,531.3,314.5z M532.8,304.4l-1.5-0.8
		c-0.5-0.2-1.1-0.5-1.6-0.7c-1.1-0.4-2.1-1-3.1-1.4s-2-0.9-3-1.4c-0.5-0.2-1-0.5-1.5-0.8s-1-0.5-1.5-0.8c-1-0.5-1.9-1.2-2.8-1.7
		s-1.9-1.1-2.9-1.7l-1.4-0.9l-1.5-0.8c-1.8-1.2-3.8-2.1-5.9-2.8l1.3-0.1h3.1h1.6c0.5,0,1,0.1,1.5,0.2c1,0.1,2.1,0.3,3.1,0.6
		c1,0.3,2,0.6,3,1c0.4,0.2,1,0.4,1.4,0.6c0.5,0.2,0.9,0.5,1.4,0.8c0.9,0.6,1.7,1.2,2.6,1.8c0.8,0.7,1.5,1.5,2.3,2.2s1.4,1.5,2.1,2.3
		s1.4,1.5,2.1,2.3c1.3,1.3,2.7,2.6,4.2,3.7c0,0,0,0,0,0C534.8,305.5,533.8,304.9,532.8,304.4z M533.5,294.3l-1.6-0.6
		c-0.5-0.2-1.1-0.4-1.6-0.5c-1.1-0.3-2.1-0.8-3.2-1.1s-2.1-0.7-3.1-1.1c-0.5-0.2-1-0.5-1.5-0.7s-1-0.4-1.5-0.6c-1-0.4-2-1-3-1.4
		s-2-0.9-3-1.4l-1.5-0.8l-1.6-0.7c-2-1.1-4.1-1.9-6.2-2.4l1.4-0.2l3.1-0.3l1.6-0.1c0.6,0,1,0,1.6,0c1,0.1,2.1,0.2,3.1,0.3
		c1,0.2,2,0.5,3,0.8c0.5,0.1,1,0.3,1.5,0.5s1,0.4,1.4,0.7c0.9,0.5,1.9,1,2.7,1.6s1.7,1.3,2.5,2c0.8,0.7,1.6,1.4,2.3,2.1
		c0.8,0.7,1.5,1.4,2.3,2.1c1.5,1.3,3.2,2.5,4.9,3.6l0.3,0.2c-0.2-0.1-0.5-0.3-0.7-0.4C535.6,295.2,534.5,294.8,533.5,294.3z
		 M533.2,284.1l-1.6-0.5c-0.5-0.2-1.1-0.3-1.7-0.4c-1.1-0.2-2.2-0.6-3.3-0.8s-2.2-0.5-3.2-0.8c-0.6-0.2-1-0.4-1.6-0.5
		c-0.6-0.1-1-0.3-1.6-0.5c-1-0.3-2-0.8-3.1-1.2s-2.1-0.7-3.1-1.2l-1.6-0.7l-1.6-0.5c-2-0.8-4-1.4-6.1-1.8l1.1-0.3l3-0.5l1.5-0.2
		c0.5-0.1,1-0.1,1.5-0.1c1,0,2.1,0,3.1,0c1,0.1,2.1,0.3,3.1,0.5c0.5,0.1,1,0.2,1.5,0.4c0.5,0.2,1,0.3,1.5,0.5c1,0.4,1.9,0.8,2.8,1.3
		s1.8,1.2,2.7,1.8c0.9,0.6,1.7,1.2,2.5,1.9s1.7,1.2,2.5,1.9c1.4,1,2.9,1.9,4.4,2.7C535.1,284.7,534.2,284.4,533.2,284.1z M532.1,274
		l-1.7-0.3c-0.6-0.1-1.1-0.2-1.7-0.2c-1.1-0.2-2.2-0.4-3.3-0.5s-2.2-0.3-3.3-0.6c-0.5-0.1-1.1-0.3-1.6-0.4c-0.5-0.1-1.1-0.2-1.6-0.4
		c-1.1-0.2-2.1-0.6-3.2-0.9s-2.1-0.6-3.2-0.9l-1.6-0.5l-1.7-0.4c-2.1-0.7-4.2-1.1-6.4-1.3l1.1-0.4l3-0.8l1.5-0.4
		c0.5-0.1,1-0.2,1.5-0.2c1-0.1,2.1-0.2,3.1-0.3c1,0,2.1,0.1,3.1,0.2c0.5,0.1,1,0.1,1.5,0.2c0.5,0.1,1,0.3,1.5,0.4c1,0.3,2,0.7,3,1.1
		c0.9,0.5,1.9,1,2.8,1.5s1.8,1.1,2.7,1.7c0.9,0.6,1.8,1.1,2.6,1.6c1.6,0.9,3.2,1.7,4.9,2.5C534.2,274.5,533.2,274.2,532.1,274z
		 M533.4,264.6c-1.1-0.3-2.2-0.5-3.4-0.6l-1.7-0.2c-0.6-0.1-1.1-0.1-1.7-0.1c-1.2,0-2.3-0.1-3.4-0.2c-1.1,0-2.2-0.1-3.3-0.3
		c-0.5-0.1-1.1-0.2-1.6-0.2s-1.1-0.1-1.6-0.2c-1.1-0.1-2.2-0.5-3.2-0.6c-1.1-0.1-2.2-0.4-3.3-0.6l-1.7-0.4l-1.7-0.3
		c-2.1-0.5-4.3-0.7-6.5-0.7l1.2-0.5l2.9-1l1.5-0.5c0.5-0.2,1-0.2,1.5-0.4c1-0.2,2.1-0.4,3.1-0.5c1-0.1,2.1-0.1,3.1,0
		c0.6,0,1,0,1.6,0.1s1,0.2,1.5,0.3c1,0.2,2,0.4,3,0.8c1,0.4,2,0.8,2.9,1.3c1,0.5,1.9,0.9,2.8,1.5c0.9,0.5,1.9,0.9,2.8,1.4
		c1.8,0.9,3.6,1.6,5.5,2.2C533.7,264.7,533.5,264.7,533.4,264.6z M527.2,254.3h-1.7c-0.6,0-1.1,0-1.7,0c-1.2,0.1-2.3,0.1-3.4,0.1
		c-1.1,0-2.2,0-3.3,0c-0.5,0-1.1-0.1-1.6-0.1s-1.1-0.1-1.7-0.1c-1.1-0.1-2.2-0.2-3.3-0.3s-2.2-0.2-3.3-0.3l-1.7-0.2l-1.7-0.1
		c-2.2-0.3-4.4-0.3-6.5-0.2l1.1-0.6l2.8-1.3l1.4-0.7c0.5-0.2,1-0.3,1.5-0.5c1-0.3,2-0.6,3-0.8c1-0.2,2.1-0.3,3.1-0.3
		c0.6,0,1,0,1.6,0c0.6,0,1,0.1,1.6,0.1c1,0.1,2.1,0.3,3.1,0.6c1,0.3,2,0.7,3,1c1,0.4,2,0.8,2.9,1.2s1.9,0.8,2.9,1.2
		c1.8,0.7,3.6,1.2,5.4,1.6C529.5,254.5,528.4,254.4,527.2,254.3z M523.6,244.9l-1.7,0.1c-0.6,0-1.1,0.1-1.7,0.2
		c-1.1,0.1-2.2,0.2-3.4,0.4s-2.2,0.3-3.3,0.3c-0.5,0-1.1-0.1-1.6,0c-0.5,0.1-1.1,0.1-1.7,0.1c-1.1,0.1-2.2-0.1-3.3,0
		c-1.1,0.1-2.2,0-3.3,0l-1.7-0.1h-1.7c-2.2-0.1-4.4,0-6.6,0.4l1.1-0.7l2.7-1.5l1.4-0.8c0.4-0.2,1-0.4,1.4-0.6c1-0.4,2-0.8,3-1.1
		c1-0.2,2-0.4,3.1-0.6c0.6-0.1,1-0.2,1.6-0.2s1,0,1.6,0c1,0,2.1,0.1,3.1,0.3c1,0.2,2.1,0.5,3.1,0.8s2,0.7,3,1s2,0.6,3,0.9
		c1.7,0.5,3.5,0.8,5.2,1.1C525.7,244.8,524.6,244.8,523.6,244.9z M519,235.7l-1.7,0.3c-0.6,0.1-1.1,0.2-1.7,0.3
		c-1.1,0.2-2.2,0.4-3.3,0.6c-1.1,0.2-2.2,0.5-3.3,0.6c-0.5,0.1-1.1,0.1-1.6,0.2c-0.6,0.1-1.1,0.1-1.6,0.2c-1.1,0.1-2.2,0.1-3.3,0.2
		c-1.1,0.1-2.2,0.3-3.3,0.3l-1.7,0.1l-1.7,0.2c-2.1,0.1-4.2,0.4-6.3,0.9l0.8-0.6l2.5-1.7l1.3-0.9c0.5-0.3,0.9-0.5,1.4-0.7
		c0.9-0.5,1.9-0.9,2.8-1.3c1-0.3,2-0.6,3-0.8c0.5-0.1,1-0.2,1.5-0.3s1.1-0.1,1.6-0.1c1-0.1,2.1-0.1,3.1,0s2.1,0.3,3.1,0.5
		c1,0.2,2,0.4,3.1,0.7s2,0.4,3,0.6c1.4,0.3,2.9,0.5,4.3,0.6C520.4,235.5,519.7,235.6,519,235.7z M417.4,147.1c7.1,0,14.2,0,21.4,0.3
		c7.1,0.3,14.2,0.6,21.3,1.2c6,0.4,12,1,18,1.7c-0.3,0.6-0.6,1.2-0.9,1.9c-0.4,1.2-0.7,2.4-0.9,3.6c-0.3,2.3-1.1,4.5-2.4,6.4
		c-1.3,1.8-3.7,3.1-5.3,4.9c-0.4,0.5-0.7,1-1,1.5c-1.7,0.4-3.3,1-4.9,1.7c-1,0.4-2,0.9-3,1.4c-1,0.5-2,1.1-2.9,1.7
		c-0.7,0.4-1.4,0.9-2.1,1.4c0.2-0.2,0.5-0.5,0.7-0.7c0.4-0.3,0.8-0.6,1.1-1c3.2-2.9,6.2-6,9-9.4l-0.4-1c-2.3,0.1-4.6,0.5-6.8,1.3
		c-2.2,0.7-4.2,1.6-6.2,2.6c-1,0.5-1.9,1.1-2.9,1.7c-1,0.6-1.9,1.2-2.8,1.9c-0.5,0.4-1.1,0.8-1.6,1.2c0-0.1,0.1-0.1,0.1-0.2
		c0.3-0.4,0.6-0.8,1-1.1c2.9-3.2,5.7-6.6,8.1-10.1l-0.3-0.8c-2.3,0.3-4.5,0.9-6.7,1.8c-2.1,0.9-4.1,1.9-6,3.2
		c-1,0.6-1.9,1.2-2.8,1.9c-0.9,0.7-1.8,1.4-2.6,2.1c-0.9,0.7-1.7,1.5-2.4,2.4c-0.7,0.9-1.4,1.8-2.1,2.7c-0.6,1-1.2,2-1.7,3l-0.8,1.5
		c-0.2,0.5-0.4,1.1-0.7,1.6c-0.4,1.1-1,2.1-1.4,3.1c-0.4,1-0.9,2-1.4,3c-0.2,0.5-0.6,1-0.8,1.4c-0.2,0.5-0.5,1-0.8,1.5
		c-0.5,1-1.2,1.9-1.7,2.8c-0.5,1-1.1,1.9-1.7,2.9l-0.9,1.4l-0.8,1.5c-1.2,1.9-2.2,3.9-3,6.1l-0.1-1.5v-3.1V197c0-0.5,0.1-1,0.2-1.5
		c0.2-1,0.3-2.1,0.6-3.1c0.3-1,0.6-2,1-3c0.2-0.5,0.4-1,0.6-1.4c0.2-0.5,0.5-0.9,0.8-1.4c0.6-0.9,1.1-1.8,1.8-2.6
		c0.7-0.8,1.5-1.5,2.2-2.3c0.7-0.8,1.5-1.5,2.3-2.2s1.5-1.4,2.3-2.1c1.4-1.4,2.8-2.9,4-4.6l1.9-2.4c0.3-0.4,0.6-0.8,0.9-1.2
		s0.6-0.8,0.9-1.2c2.6-3.4,5-7,7.2-10.7l-0.6-0.8c-2.3,0.5-4.4,1.3-6.5,2.4c-2,1-3.9,2.3-5.7,3.7c-0.9,0.7-1.7,1.4-2.6,2.2
		c-0.8,0.7-1.6,1.5-2.4,2.4c-0.6,0.7-1.2,1.4-1.8,2.1c0.2-0.3,0.4-0.6,0.6-0.9c0.3-0.4,0.6-0.9,0.8-1.3c2.3-3.6,4.4-7.4,6.2-11.3
		l-0.6-0.8c-2.2,0.7-4.3,1.7-6.2,3c-1.9,1.2-3.7,2.6-5.3,4.1c-0.8,0.8-1.6,1.5-2.4,2.4c-0.8,0.8-1.5,1.7-2.2,2.6
		c-0.6,0.7-1.1,1.5-1.7,2.2c0.2-0.3,0.3-0.7,0.5-1c0.2-0.5,0.5-0.9,0.7-1.4c2-3.8,3.8-7.8,5.2-11.9l-0.6-0.7c-2.2,0.9-4.2,2.1-6,3.5
		c-1.8,1.4-3.4,2.9-4.9,4.6c-1.5,1.7-2.9,3.4-4.1,5.3c-0.5,0.8-1,1.6-1.5,2.5c0.1-0.4,0.3-0.8,0.4-1.1c0.2-0.4,0.4-0.9,0.6-1.4
		c1.7-4,3.1-8.1,4.2-12.3l-0.8-0.5c-2.1,1.1-3.9,2.4-5.6,4c-1.7,1.5-3.2,3.2-4.5,5c-1.4,1.8-2.6,3.7-3.6,5.7
		c-0.4,0.8-0.8,1.6-1.2,2.4c0.1-0.4,0.2-0.7,0.3-1.1c0.2-0.5,0.3-1,0.5-1.5c1.3-4.1,2.3-8.3,3.1-12.6l-0.8-0.5
		c-2,1.2-3.7,2.8-5.2,4.5c-1.5,1.7-2.9,3.5-4.1,5.4c-0.6,0.9-1.2,1.9-1.7,2.9c-0.5,1-1,1.9-1.4,3c-0.3,0.7-0.6,1.5-0.9,2.2
		c0-0.2,0.1-0.5,0.2-0.7c0.1-0.5,0.2-1,0.3-1.5c0.9-4.2,1.6-8.5,2-12.8l-0.8-0.5c-1.8,1.4-3.5,3.1-4.8,4.9c-1.4,1.8-2.6,3.7-3.6,5.7
		c-0.5,1-1,2-1.4,3c-0.4,1-0.9,2.1-1.2,3.2c-0.3,0.9-0.6,1.9-0.8,2.8c0.1-0.4,0.1-0.8,0.1-1.2c0.1-0.5,0.2-1,0.2-1.5
		c0.6-4.3,0.9-8.6,0.9-12.9l-1-0.4c-1.7,1.6-3.2,3.4-4.4,5.3c-1.2,1.9-2.2,3.9-3.1,6c-0.8,2.1-1.5,4.2-2,6.4
		c-0.2,0.7-0.3,1.5-0.5,2.3c0-0.2,0-0.4,0-0.7c0-0.5,0.1-1,0.1-1.5c0-0.5,0-1,0-1.5c0.1-0.5,0.2-1.1,0.3-1.6c0.1-1.2,0.1-2.4,0-3.6
		c-0.1-0.6-0.2-1.2-0.3-1.8c-0.1-1.5-0.1-3-0.3-4.5l-0.9-0.3c-0.2,0.2-0.4,0.4-0.6,0.6c-0.1-0.1-0.2-0.3-0.3-0.4
		c-1.5-1.8-4-3.1-5.3-4.9c-1.3-1.9-2.2-4.1-2.4-6.4c-0.2-1.2-0.5-2.4-0.9-3.6c-0.1-0.1-0.1-0.3-0.2-0.4
		C372.4,148.8,394.9,147.2,417.4,147.1z M332.4,154.3c2.2-0.4,4.4-0.7,6.5-1c0.8,0.6,1.6,1.1,2.4,1.8c0.8,0.6,1.5,1.3,2.4,1.9
		c0.9,0.6,1.8,1.2,2.8,1.8c1.9,1.1,3.4,2.8,4.2,4.9c0.8,2,0.2,4.7,0.5,6.8c0.1,1.1,0.5,2.1,1,3c0.5,1,1.1,1.9,1.7,2.7
		c0,0.1,0.1,0.1,0.1,0.1c-0.3,0.8-0.6,1.6-0.8,2.4c-0.4,1.1-0.6,2.2-0.9,3.3c-0.2,1.1-0.5,2.2-0.6,3.3c-0.1,0.9-0.2,1.9-0.3,2.8
		c0-0.4,0-0.8-0.1-1.2c-0.1-0.5-0.1-1-0.1-1.5c-0.2-4.3-0.7-8.6-1.4-12.9l-1-0.2c-1.4,1.8-2.5,3.9-3.4,6c-0.9,2.1-1.5,4.2-2,6.5
		c-0.5,2.2-0.8,4.4-0.9,6.7c-0.1,0.9-0.1,1.7,0,2.6c0-0.3-0.1-0.6-0.1-1c-0.1-0.5-0.1-1-0.2-1.5c-0.6-4.3-1.4-8.5-2.5-12.7l-1-0.1
		c-1.2,2-2.2,4.1-2.9,6.3c-0.7,2.2-1.2,4.4-1.4,6.6c-0.2,1.1-0.3,2.2-0.3,3.3s-0.1,2.2,0,3.4c0,0.9,0.1,1.8,0.2,2.7
		c-0.1-0.4-0.2-0.7-0.3-1.1c-0.1-0.5-0.2-1-0.3-1.5c-0.9-4.2-2.1-8.4-3.6-12.4l-1-0.1c-1.1,2.1-1.8,4.2-2.3,6.5
		c-0.5,2.2-0.8,4.4-0.8,6.7c-0.1,1.1,0,2.2,0,3.4c0,1.1,0.1,2.2,0.3,3.4c0.1,0.9,0.2,1.8,0.4,2.7c-0.1-0.4-0.2-0.7-0.3-1.1
		c-0.2-0.5-0.3-1-0.5-1.5c-1.3-4.1-2.9-8.2-4.7-12.1h-1c-0.9,2.1-1.5,4.4-1.7,6.7c-0.3,2.2-0.4,4.5-0.2,6.7c0,1.1,0.1,2.2,0.3,3.4
		c0.1,1.1,0.3,2.2,0.6,3.3c0.2,0.9,0.4,1.7,0.6,2.5c-0.1-0.3-0.3-0.6-0.4-0.9c-0.2-0.4-0.4-1-0.6-1.4c-1.7-4-3.6-7.9-5.7-11.6
		l-1,0.1c-0.7,2.2-1.1,4.5-1.1,6.8c-0.1,2.3,0,4.5,0.3,6.7c0.1,1.1,0.3,2.2,0.6,3.3c0.2,1.1,0.5,2.2,0.8,3.3
		c0.2,0.8,0.5,1.6,0.8,2.4c-0.1-0.3-0.3-0.5-0.4-0.8c-0.2-0.5-0.5-0.9-0.7-1.4c-2-3.8-4.2-7.5-6.7-11.1l-0.9,0.2
		c-0.5,2.3-0.7,4.6-0.5,6.9c0,0.3,0,0.6,0.1,0.9c-1.7-1.2-3.3-2.3-4.9-3.4c-1.5-1-2.9-2.1-4.3-3.1c-1.3-1.1-2.7-2.1-4.2-3.1
		c-1.5-1-3-1.9-4.5-3.1c-1.5-1.1-2.7-2.6-3.7-4.2c-0.2-0.4-0.5-0.8-0.6-1.3c-0.2-0.4-0.3-0.9-0.5-1.3c-0.1-0.4-0.3-0.9-0.3-1.4
		c-0.1-0.5-0.2-0.9-0.2-1.4c-0.1-0.9-0.1-1.9,0-2.8c0.1-0.9,0.2-1.9,0.4-2.8l0.3-1.4c0.1-0.4,0.2-1,0.3-1.6c0.1-0.5,0.2-1.1,0.2-1.7
		c0.1-0.6,0.1-1.1,0.1-1.7v-0.9l-0.1-0.9c0-0.6-0.1-1.2-0.2-1.8c-0.2-1.2-0.6-2.4-1-3.6c-0.8-2.5-2.2-4.8-4-6.7
		c-1.2-1.3-2.6-2.3-4.1-3.2C292.4,162.5,312.3,157.8,332.4,154.3z M161.9,349.5c0,0-0.1-0.1-0.1-0.1c-4.2-5.7-7.8-11.7-10.9-18
		c-12.5-25-11.6-54.7,2.3-78.9c6.8-12,15.5-22.8,25.7-32c2.1-1.9,4.3-3.8,6.5-5.6c2.2,1.4,4.4,2.8,6.5,4.1l6.6,4.2
		c2.1,1.4,4.3,2.7,6.5,4c2.2,1.3,4.5,2.5,6.6,4c2.2,1.4,4.1,3.2,5.6,5.3c1.5,2.1,2.5,4.5,3.1,7c0.1,0.6,0.2,1.2,0.3,1.9
		c0.1,0.6,0.1,1.3,0.1,1.9s0.1,1.4,0.1,2.2l0.1,1.2c0,0.4,0.1,0.8,0.2,1.2c0.5,3.3,2,6.4,4.3,8.9c2.2,2.4,4.9,4.3,7.9,5.5
		c5.5,2.5,11.4,3.8,17.4,3.9c2.9,0.1,5.7-0.1,8.6-0.4c2.8-0.3,5.6-0.8,8.3-1.5c5.5-1.2,10.9-3.2,15.8-5.8l-0.2-1
		c-5.6-0.5-11-0.8-16.4-1s-10.6-0.5-15.6-0.9c-5-0.4-10-0.7-14.5-2.1c-2.1-0.6-4.1-1.5-6-2.7c-1.8-1.1-3.4-2.7-4.5-4.6
		c-0.1-0.2-0.3-0.5-0.4-0.8l-0.3-0.8c-0.3-0.6-0.5-1.2-0.6-1.8c-0.2-0.7-0.4-1.5-0.6-2.1c-0.2-0.6-0.5-1.3-0.7-2
		c-1-2.7-2.2-5.3-3.6-7.8c-1.4-2.5-2.8-5-4.4-7.5c-1.6-2.5-3.4-4.8-5.5-6.8c-2.1-2-4.5-3.7-7-5.1c-2.5-1.4-5.1-2.6-7.8-3.5
		c-1.5-0.5-3-1-4.5-1.4c6.9-5.4,14.2-10.3,21.8-14.8c12.1-7.2,24.8-13.4,37.8-18.7c1.9-0.8,3.8-1.5,5.7-2.3c0.3,0,0.6,0.1,0.9,0.1
		c1.7,0.3,3.4,0.6,5.1,1.1c1.5,0.4,2.9,0.9,4.3,1.6c2.5,1,4.6,2.7,6,5c0.4,0.6,0.7,1.3,1,2c0.2,0.8,0.6,1.5,0.9,2.3
		c0.1,0.4,0.3,0.8,0.4,1.2s0.3,0.9,0.4,1.3c0.1,0.5,0.2,0.8,0.4,1.4l0.4,1.6c1.1,4.2,2.5,8,3.8,12c0.7,2,1.3,4,2.1,6.1
		c0.8,2.1,1.9,4.1,3.2,5.9c1.4,1.8,3.1,3.3,5,4.4c1.8,1.2,3.8,2.1,5.9,2.8c0.7,0.2,1.4,0.4,2,0.6c-0.1,1.7,0,3.4,0.2,5.1
		c0.3,2.2,0.8,4.4,1.5,6.6c0.7,2.1,1.5,4.2,2.6,6.2c0.4,0.8,0.8,1.6,1.3,2.4c-0.2-0.3-0.5-0.6-0.7-0.9l-0.9-1.2
		c-2.6-3.4-5.5-6.7-8.5-9.7l-0.9,0.4c-0.1,2.3,0.1,4.6,0.7,6.9c0.5,2.2,1.2,4.4,2.1,6.4c0.4,1,0.9,2,1.4,3c0.5,1,1.1,2,1.7,2.9
		c0.5,0.8,0.9,1.5,1.5,2.2l-0.7-0.7c-0.3-0.4-0.7-0.8-1-1.1c-2.9-3.2-6-6.2-9.3-9l-0.9,0.5c0.1,2.3,0.5,4.6,1.3,6.8
		c0.7,2.2,1.6,4.2,2.6,6.2c0.5,1,1.1,2,1.7,2.9c0.6,1,1.2,1.9,1.9,2.8c0.4,0.6,0.9,1.2,1.4,1.8l-0.5-0.4c-0.4-0.3-0.8-0.7-1.1-1
		c-3.2-2.9-6.6-5.6-10.1-8.1l-0.9,0.3c0.3,2.3,0.9,4.5,1.8,6.7c0.9,2.1,1.9,4.1,3.2,6c0.6,1,1.2,1.9,1.9,2.8
		c0.7,0.9,1.4,1.8,2.1,2.6c0.7,0.9,1.5,1.7,2.4,2.4c0.9,0.7,1.8,1.4,2.7,2.1c1,0.6,2,1.2,3,1.7l1.5,0.8c0.5,0.2,1.1,0.5,1.6,0.7
		c1.1,0.4,2.1,1,3.1,1.4s2,0.9,3,1.4c0.5,0.2,1,0.5,1.5,0.8c0.5,0.2,1,0.5,1.5,0.8c1,0.5,1.9,1.1,2.8,1.7c1,0.5,1.9,1.1,2.9,1.7
		l1.4,0.9l1.5,0.8c1.9,1.2,3.9,2.2,6,3l-1.4,0.1h-3.1h-1.6c-0.5,0-1-0.1-1.5-0.2c-1-0.1-2.1-0.3-3.1-0.6c-1-0.3-2-0.6-2.9-1
		c-0.5-0.2-1-0.4-1.4-0.6c-0.5-0.2-0.9-0.5-1.4-0.8c-0.9-0.6-1.7-1.2-2.6-1.8c-0.8-0.7-1.5-1.5-2.3-2.2c-0.8-0.7-1.5-1.5-2.1-2.3
		c-0.7-0.8-1.4-1.5-2.1-2.3c-1.4-1.5-2.9-2.8-4.6-4l-2.4-1.9c-0.4-0.3-0.8-0.6-1.2-0.9c-0.4-0.3-0.8-0.6-1.2-1
		c-3.4-2.6-7-5-10.8-7.2l-0.8,0.5c0.5,2.3,1.3,4.4,2.4,6.5c1,2,2.3,3.9,3.7,5.7c1.4,1.8,2.9,3.5,4.5,5c0.7,0.7,1.4,1.3,2.1,1.9
		c-0.3-0.2-0.7-0.4-1-0.6c-0.4-0.3-0.9-0.6-1.3-0.8c-3.6-2.3-7.4-4.4-11.4-6.2l-0.8,0.6c0.7,2.2,1.7,4.3,3,6.2
		c1.2,1.9,2.6,3.7,4.1,5.3c1.5,1.7,3.2,3.2,4.9,4.6c0.7,0.6,1.5,1.1,2.2,1.6c-0.3-0.2-0.7-0.3-1-0.5c-0.4-0.2-0.9-0.5-1.4-0.7
		c-3.8-2-7.8-3.8-11.9-5.2l-0.7,0.6c0.9,2.2,2.1,4.2,3.5,6c1.4,1.8,2.9,3.4,4.6,5c0.8,0.8,1.7,1.5,2.6,2.2c0.9,0.7,1.8,1.3,2.8,1.9
		c0.8,0.6,1.7,1.1,2.5,1.5l-1.2-0.5l-1.4-0.6c-4-1.7-8.1-3.1-12.3-4.2l-0.5,0.8c1.1,2.1,2.4,3.9,4,5.6c1.5,1.7,3.2,3.2,5,4.5
		c0.9,0.7,1.8,1.3,2.8,1.9c0.9,0.6,1.9,1.2,2.9,1.7c0.8,0.4,1.5,0.8,2.3,1.2c-0.3-0.1-0.7-0.2-1-0.3l-1.5-0.5
		c-4.1-1.3-8.3-2.3-12.6-3.1l-0.6,0.9c1.2,1.8,2.6,3.5,4.2,5c-1.2,0.1-2.5,0.3-3.7,0.4c-1.6,0.2-3.3,0.3-4.9,0.5l-4.8,0.4
		c-6.5,0.4-12.8,0.5-19.1,0.4c-6.3-0.1-12.7-0.3-19.3-0.7c-6.7-0.7-13.5-0.8-20.2-0.3c-6.9,0.4-13.7,1.6-20.4,3.5
		c-3.4,1-6.7,2.2-9.9,3.6c-0.8,0.3-1.6,0.8-2.4,1.2c-0.8,0.4-1.6,0.8-2.3,1.3c-0.8,0.4-1.5,0.8-2.3,1.3c-0.7,0.5-1.5,1-2.2,1.5
		c-2.9,2.2-5.5,4.8-7.6,7.7C164.2,343.4,162.8,346.4,161.9,349.5z M248.2,411.3c-13.4-5.4-26.2-11.9-38.5-19.5
		c-6.1-3.8-12-7.9-17.7-12.2c-5.7-4.3-11.1-9.1-16.1-14.1c-2.7-2.7-5.3-5.5-7.8-8.4c0.2-1.3,0.5-2.5,1-3.7c1.1-2.6,2.5-5,4.3-7.1
		c1.8-2.3,3.9-4.5,6-6.8c0.5-0.6,1-1.2,1.6-1.8s1.1-1.2,1.6-1.8c0.5-0.6,1.1-1.2,1.7-1.7c0.6-0.5,1.1-1.2,1.7-1.7c2.3-2.2,5-4,8-5.2
		c3-1.2,6.1-1.9,9.3-2c3.2-0.1,6.5,0.2,9.6,0.9c1.6,0.3,3.2,0.7,4.8,1.1c1.6,0.4,3.2,0.8,4.8,1.2c3.2,0.8,6.5,1.4,9.8,2
		c6.7,1.4,13.6,2,20.5,2c12.5-0.2,24.7-3.6,35.5-9.7c0.9,0.7,1.8,1.3,2.7,1.8c0.9,0.6,1.9,1.2,2.9,1.7c1,0.5,2,1,3,1.4
		c0.6,0.2,1.1,0.5,1.7,0.7c0,0-0.1,0-0.1,0c-0.5-0.1-1-0.2-1.5-0.3c-4.2-0.9-8.5-1.6-12.8-2l-0.5,0.8c1.4,1.8,3.1,3.5,4.9,4.8
		c1.8,1.4,3.7,2.6,5.7,3.6c1,0.5,2,1,3,1.4c1,0.4,2.1,0.8,3.2,1.2c0.9,0.3,1.9,0.6,2.9,0.8l-1.3-0.2l-1.5-0.2
		c-4.3-0.6-8.6-0.9-12.9-0.9l-0.4,1c1.6,1.7,3.4,3.2,5.3,4.4c1.9,1.2,3.9,2.2,6,3.1c2.1,0.8,4.2,1.5,6.4,2c0.8,0.2,1.6,0.4,2.5,0.5
		c-0.3,0-0.5,0-0.8,0c-0.5-0.1-1-0.1-1.5-0.1c-4.3-0.2-8.6-0.1-12.9,0.3l-0.3,0.9c1.7,1.6,3.6,2.9,5.7,3.9c2,1,4.1,1.9,6.3,2.5
		c1.1,0.4,2.2,0.6,3.3,0.9c1.1,0.2,2.2,0.5,3.3,0.6c1.1,0.2,2.2,0.3,3.3,0.3l-0.1,0l-1.5,0.1l-1.5,0.1c-4.3,0.2-8.6,0.7-12.9,1.4
		l-0.2,1c1.8,1.4,3.9,2.5,6,3.4c2.1,0.9,4.2,1.5,6.5,2c2.2,0.5,4.4,0.8,6.7,0.9c0.7,0,1.4,0.1,2.2,0c-0.2,0-0.3,0.1-0.5,0.1
		c-0.5,0.1-1,0.1-1.5,0.2c-2.8,0.4-5.6,0.9-8.4,1.5c-1.9-0.3-3.9-0.5-5.8-0.4c-1.9,0-3.8,0.1-5.6,0.3c-1.9,0.2-3.8,0.5-5.6,1
		c-3.8,1-7.5,2.7-10.7,5c-1.9,1.2-3.5,2.7-4.9,4.4c-1.6,2-2.4,4.5-2.5,7c0,1.2,0.2,2.4,0.6,3.6c0.2,0.5,0.4,1,0.7,1.5
		c0.2,0.5,0.5,0.9,0.8,1.4c0.3,0.4,0.6,0.9,0.8,1.3c0.2,0.4,0.5,0.7,0.7,1.1c0.5,0.7,0.9,1.5,1.2,2.3c0.3,0.8,0.5,1.7,0.6,2.5
		c0.1,0.9,0.2,1.7,0.2,2.6c0,0.4,0,0.9,0,1.3l-0.1,1.3c-0.1,0.9,0,1.7-0.1,2.5c-0.1,1.6,0,3.2,0.2,4.8l0.4,4.8
		c0.1,1.8,0.3,3.6,0.4,5.6C268.8,419,258.3,415.4,248.2,411.3z M366.5,424.5c-0.8,0.5-1.6,1-2.3,1.6c-0.7,0.6-1.2,1.4-1.7,2.2
		c-0.5,0.8-1,1.6-1.4,2.5c-0.4,0.9-0.7,1.9-0.7,2.9c-0.1,0.8,0,1.6,0.1,2.5c-9.6-0.8-19.3-1.8-28.9-3.1c-15.9-2.2-31.8-5.4-47.3-9.6
		c0.1-0.2,0.2-0.4,0.3-0.6c1-1.7,1.7-3.6,2.2-5.5c0.2-1,0.4-1.9,0.6-2.9c0.1-1,0.2-2,0.2-3c0.1-2-0.2-4-0.9-5.9
		c-0.3-1-0.7-1.9-1.2-2.8l-0.7-1.3c-0.3-0.4-0.6-0.8-0.8-1.3c-0.6-0.8-1.1-1.7-1.7-2.5c-0.6-0.8-1.1-1.6-1.6-2.4
		c-0.4-0.8-1-1.6-1.4-2.4c-0.2-0.4-0.5-0.9-0.7-1.2s-0.3-0.7-0.5-1.1c-0.6-1.3-0.5-2.8,0.3-4c0.7-0.9,1.7-1.7,2.8-2.2
		c1.2-0.7,2.5-1.3,3.8-1.9c2.8-1.1,6-1.9,9.2-3c3.2-1.1,6.4-2.4,9.7-3.8c1.9-0.8,3.8-1.7,5.7-2.6c0.2,0.1,0.4,0.1,0.6,0.2
		c2.2,0.7,4.4,1.2,6.6,1.4c1.1,0.2,2.2,0.3,3.4,0.3c1.1,0,2.2,0.1,3.4,0c0.9,0,1.8-0.1,2.6-0.2c-0.3,0.1-0.7,0.2-1,0.2
		c-0.5,0.1-1,0.2-1.5,0.3c-4.2,0.9-8.4,2.1-12.4,3.6l-0.1,0.9c2.1,1.1,4.3,1.8,6.5,2.3c2.2,0.5,4.4,0.8,6.7,0.8
		c1.1,0.1,2.2,0.1,3.4,0c1.1-0.1,2.2-0.1,3.4-0.3c0.9-0.1,1.9-0.3,2.8-0.4c-0.4,0.1-0.8,0.3-1.2,0.4l-1.5,0.5
		c-4.1,1.3-8.1,2.9-12,4.7l-0.1,1c2.1,0.9,4.4,1.5,6.7,1.7c2.2,0.3,4.5,0.4,6.8,0.2c1.1,0,2.2-0.1,3.4-0.3c1.1-0.1,2.2-0.3,3.3-0.6
		c0.9-0.2,1.9-0.4,2.8-0.7l-1.1,0.5l-1.4,0.6c-4,1.6-7.9,3.6-11.6,5.7l0.1,1c2.2,0.7,4.5,1.1,6.8,1.1c2.3,0.1,4.5,0,6.7-0.3
		c1.1-0.1,2.2-0.3,3.3-0.6c1.1-0.3,2.2-0.5,3.3-0.9c0.8-0.2,1.7-0.5,2.5-0.8c-0.3,0.2-0.5,0.3-0.8,0.4c-0.5,0.2-0.9,0.5-1.4,0.7
		c-3.8,2-7.5,4.2-11.1,6.7l0.2,0.9c2.3,0.5,4.6,0.7,6.9,0.5c2.3-0.1,4.5-0.4,6.7-0.9c2.2-0.5,4.3-1.2,6.4-2c0.9-0.4,1.8-0.8,2.7-1.2
		c-0.4,0.2-0.8,0.5-1.1,0.7c-0.4,0.3-0.9,0.5-1.3,0.8c-3.7,2.3-7.1,4.9-10.5,7.6l0.2,1c2.3,0.3,4.6,0.3,6.9-0.1
		c2.2-0.3,4.4-0.8,6.6-1.5c2.1-0.7,4.2-1.5,6.2-2.6c0.8-0.4,1.6-0.8,2.3-1.3l-0.8,0.6l-1.2,0.9c-3.4,2.6-6.7,5.5-9.7,8.5l0.3,0.9
		c2.3,0.1,4.6-0.1,6.9-0.7c2.2-0.5,4.4-1.2,6.4-2.1c0.5-0.2,1-0.4,1.4-0.6c-0.2,0.1-0.3,0.2-0.5,0.4c-0.6,0.6-1.1,1.3-1.4,2.1
		c-0.2,0.8-0.3,1.7-0.4,2.5c-0.6,0.7-1.3,1.4-1.9,2.2l0.4,0.9c0.3,0,0.6,0,0.9-0.1C369.1,422.6,367.9,423.8,366.5,424.5z
		 M417.4,437.7c-15.7,0.3-31.4,0.1-47.2-0.8c0.2-0.5,0.4-1,0.6-1.5c0.2-1.2,0.4-2.3,0.4-3.5c0.1-0.7,0.1-1.4,0.2-2.1
		c0-0.4-0.1-0.8-0.1-1.2c0-0.4-0.1-0.8-0.1-1.3c-0.2-1.6,0.3-3.2,1.4-4.3c1.1-1.1,3.3-1.3,4.7-2c0.7-0.3,1.2-0.9,1.6-1.5
		c0.2-0.3,0.3-0.5,0.5-0.8c0.9-0.4,1.7-0.8,2.6-1.2c1-0.5,2-1.1,2.9-1.7c1-0.6,1.9-1.2,2.8-1.9c0.6-0.4,1.2-0.9,1.8-1.4
		c-0.1,0.2-0.3,0.3-0.4,0.5l-1,1.1c-2.9,3.2-5.6,6.6-8.1,10.1l0.5,0.9c2.3-0.3,4.5-0.9,6.7-1.8c2.1-0.9,4.1-1.9,6-3.2
		c1-0.6,1.9-1.2,2.8-1.9c0.9-0.7,1.8-1.4,2.6-2.2c0.7-0.6,1.3-1.2,1.9-1.8c-0.2,0.2-0.4,0.5-0.5,0.7c-0.3,0.4-0.6,0.8-0.9,1.2
		c-2.6,3.4-5,7-7.2,10.8l0.6,0.8c2.3-0.5,4.4-1.3,6.5-2.4c2-1,3.9-2.3,5.7-3.7c0.9-0.7,1.8-1.4,2.6-2.2c0.8-0.8,1.7-1.5,2.4-2.4
		c0.6-0.7,1.3-1.4,1.8-2.1c-0.2,0.3-0.4,0.7-0.6,1c-0.3,0.4-0.6,0.9-0.8,1.3c-2.3,3.6-4.4,7.4-6.2,11.3l0.6,0.8
		c2.2-0.7,4.3-1.7,6.2-3c1.9-1.2,3.7-2.6,5.3-4.1c1.7-1.5,3.2-3.2,4.6-5c0.6-0.8,1.2-1.6,1.7-2.4c-0.2,0.4-0.4,0.8-0.6,1.2
		c-0.2,0.4-0.5,0.9-0.7,1.4c-2,3.8-3.7,7.8-5.2,11.9l0.6,0.7c2.2-0.9,4.2-2.1,6-3.5c1.8-1.4,3.5-2.9,4.9-4.6
		c1.5-1.7,2.9-3.4,4.1-5.3c0.6-0.9,1.1-1.8,1.6-2.7c-0.2,0.4-0.4,1-0.6,1.4c-0.2,0.4-0.4,1-0.6,1.4c-1.7,4-3.1,8.1-4.2,12.3l0.8,0.5
		c2.1-1.1,3.9-2.4,5.6-4c1.7-1.5,3.2-3.2,4.5-5c0.7-0.9,1.3-1.8,1.9-2.8c0.6-0.9,1.2-1.9,1.7-2.9c0.4-0.8,0.8-1.6,1.2-2.4
		c-0.1,0.4-0.2,0.7-0.3,1c-0.2,0.5-0.3,1-0.5,1.5c-1.3,4.1-2.3,8.3-3.1,12.6l0.9,0.6c2-1.2,3.7-2.8,5.2-4.5c1.5-1.7,2.9-3.5,4.1-5.4
		c0.6-0.9,1.2-1.9,1.7-2.9c0.5-1,1-2,1.4-3c0.3-0.7,0.6-1.5,0.9-2.2c0,0.2-0.1,0.4-0.1,0.7c-0.1,0.3-0.1,0.6-0.2,0.8l-0.3,0.4
		c-0.1,0.5-0.1,1-0.1,1.5c-0.8,3.8-1.4,7.7-1.7,11.6l0.8,0.6c1.7-1.3,3.2-2.8,4.5-4.5c1.4,0.7,3.5,0.9,4.6,1.9
		c1.1,1.1,1.7,2.7,1.4,4.3c0,0.4,0,0.8-0.1,1.3s-0.1,0.8-0.1,1.2c0,0.8,0.1,1.4,0.2,2.1c0,1.1,0.1,2.1,0.3,3.2
		C447.6,436.4,432.5,437.3,417.4,437.7z M463.5,407c-0.1,0.5-0.2,1-0.2,1.5c-0.3,2.4-0.5,4.7-0.7,7.1c-0.3-0.8-0.7-1.5-1.4-2
		c-0.1-0.1-0.2-0.1-0.3-0.2c0.2-0.5,0.5-1.1,0.7-1.6c0.4-1,0.8-2.1,1.2-3.2c0.3-0.9,0.6-1.8,0.8-2.8
		C463.6,406.2,463.5,406.6,463.5,407z M553,395.2c-0.5,0.8-1,1.6-1.6,2.4c-0.6,0.8-1.1,1.6-1.7,2.5c-0.3,0.4-0.6,0.8-0.8,1.3
		l-0.7,1.3c-0.5,0.9-0.9,1.8-1.2,2.8c-0.7,1.9-1,3.9-0.9,5.9c0,1,0.1,2,0.2,3c0.1,1,0.3,2,0.6,2.9c0.2,0.9,0.5,1.9,0.9,2.8
		c-14.9,3.9-29.9,7-45,9.6c-9.8,1.6-19.6,3-29.4,4.1c0,0,0-0.1,0-0.1c-0.1-1-0.3-2-0.7-2.9c-0.4-0.9-0.9-1.7-1.4-2.5
		c-0.5-0.8-1.1-1.5-1.7-2.2c-0.7-0.6-1.5-1.2-2.3-1.6c-1.4-0.7-2.5-1.7-3.3-3.1c1.5-1.5,2.9-3.1,4-5c1.2-1.9,2.2-3.9,3.1-6
		c0.8-2.1,1.5-4.2,2-6.4c0.2-0.7,0.3-1.5,0.5-2.3c0,0.2,0,0.4,0,0.6c0,0.5-0.1,1-0.1,1.5c-0.2,4.3-0.1,8.7,0.3,13l0.9,0.3
		c1.6-1.7,2.9-3.6,3.9-5.7c1-2,1.9-4.1,2.5-6.3c0.3-1.1,0.6-2.2,0.9-3.3c0.3-1.1,0.5-2.2,0.6-3.3c0.1-1,0.2-1.9,0.3-2.9
		c0,0.4,0,0.8,0.1,1.3c0.1,0.5,0.1,1,0.1,1.5c0.2,4.3,0.7,8.6,1.4,12.9l1.1,0.2c1.4-1.8,2.5-3.9,3.4-6c0.9-2.1,1.5-4.2,2-6.5
		c0.5-2.2,0.8-4.4,0.9-6.7c0-0.6,0.1-1.2,0-1.8c0,0.1,0,0.1,0,0.2c0.1,0.5,0.1,1,0.2,1.5c0.6,4.3,1.4,8.5,2.5,12.7l1,0.1
		c1.2-2,2.2-4.1,2.9-6.3c0.7-2.2,1.2-4.4,1.4-6.6c0.2-1.1,0.3-2.2,0.3-3.4s0.1-2.2,0-3.4c0-1-0.1-1.9-0.2-2.9
		c0.1,0.4,0.2,0.8,0.3,1.2c0.1,0.5,0.2,1,0.3,1.5c0.9,4.2,2.1,8.4,3.6,12.4l0.9,0c1.1-2.1,1.8-4.2,2.3-6.5c0.5-2.2,0.8-4.4,0.8-6.7
		c0.1-2.2,0-4.5-0.3-6.7c-0.1-0.9-0.2-1.8-0.4-2.7c0.1,0.4,0.3,0.8,0.4,1.1c0.1,0.5,0.3,1,0.5,1.5c1.3,4.1,2.9,8.2,4.7,12.1h1
		c0.9-2.1,1.5-4.4,1.7-6.7c0.3-2.2,0.4-4.5,0.2-6.8c0-1.1-0.1-2.2-0.3-3.4c-0.1-1.1-0.3-2.2-0.6-3.3c-0.2-1-0.5-1.9-0.8-2.9
		c0.2,0.4,0.4,0.9,0.5,1.2c0.2,0.4,0.4,0.9,0.6,1.4c1.7,4,3.6,7.9,5.7,11.6l1-0.1c0.7-2.2,1.1-4.5,1.1-6.8c0-0.7,0-1.3,0-2
		c2.1,1.1,4.3,2.2,6.5,3.1c3.3,1.4,6.5,2.7,9.7,3.8c3.2,1.1,6.4,1.8,9.2,3c1.3,0.6,2.6,1.2,3.8,1.9c1.1,0.5,2,1.3,2.8,2.2
		c0.7,1.2,0.8,2.7,0.3,4c-0.1,0.4-0.3,0.7-0.5,1.1s-0.4,0.8-0.7,1.2C554,393.6,553.4,394.4,553,395.2z M662.5,361.1
		c-0.2,1-0.4,1.9-0.8,2.9c-0.7,0.7-1.4,1.3-2.1,2c-10.8,9.5-22.5,17.7-35.1,24.5c-12.5,6.9-25.6,12.8-39,17.7
		c-10.2,3.8-20.6,7.1-31,10c0-0.6,0.1-1.2,0.1-1.8l0.4-4.8c0.2-1.6,0.3-3.2,0.2-4.8c-0.1-0.8,0-1.6-0.1-2.5L555,403
		c0-0.4,0-0.8,0-1.3c0-0.9,0.1-1.7,0.2-2.6c0.2-0.9,0.4-1.7,0.7-2.5c0.3-0.8,0.7-1.6,1.2-2.3c0.2-0.4,0.4-0.7,0.7-1.1
		c0.3-0.4,0.5-0.8,0.8-1.3c0.3-0.4,0.6-0.9,0.8-1.4c0.3-0.5,0.5-1,0.7-1.5c0.4-1.1,0.7-2.4,0.7-3.6c-0.1-2.5-0.9-5-2.5-7
		c-1.4-1.7-3-3.2-4.9-4.4c-3.3-2.3-6.9-4-10.7-5c-1.8-0.5-3.7-0.8-5.6-1c-1.9-0.2-3.8-0.3-5.6-0.3c-0.5,0-0.9,0-1.4,0
		c0.1-1,0.1-2,0-2.9c-0.1-2.3-0.4-4.5-0.9-6.7c-0.2-1.1-0.5-2.2-0.9-3.2c-0.3-1.1-0.7-2.1-1.1-3.2c-0.4-1-0.8-2-1.3-3l0.1,0.1
		c0.3,0.4,0.6,0.9,0.8,1.3s0.5,0.9,0.8,1.3c2.3,3.6,4.9,7.1,7.7,10.4l1-0.3c0.3-2.3,0.3-4.6-0.1-6.9c-0.3-2.2-0.8-4.4-1.5-6.6
		c-0.3-1.1-0.7-2.1-1.2-3.2c-0.7-1.8-1.6-3.6-2.6-5.3c0.2,0.2,0.4,0.5,0.6,0.7l0.9,1.2c2.6,3.4,5.5,6.7,8.5,9.7l0.9-0.4
		c0.1-2.3-0.1-4.6-0.7-6.9c-0.5-2.2-1.2-4.4-2.1-6.4c-0.4-1-0.9-2.1-1.4-3c-0.5-1-1-2-1.7-2.9c-0.5-0.8-1-1.6-1.6-2.4l0.8,0.9
		c0.3,0.4,0.7,0.8,1,1.1c2.9,3.2,6,6.2,9.4,9l0.9-0.4c-0.1-2.3-0.5-4.6-1.3-6.8c-0.7-2.2-1.6-4.2-2.6-6.2c-0.5-1-1.1-1.9-1.7-2.9
		c-0.6-1-1.2-1.9-1.9-2.8c-0.4-0.6-0.9-1.2-1.4-1.8l0.5,0.4c0.4,0.3,0.8,0.7,1.1,1c3.2,2.9,6.6,5.6,10.1,8.1l0.9-0.4
		c-0.1-0.8-0.3-1.6-0.5-2.4c8.8,3.8,18.5,5.8,28.2,6c6.9,0,13.7-0.6,20.5-2c3.3-0.6,6.6-1.2,9.8-2c1.6-0.4,3.2-0.8,4.8-1.1
		c1.6-0.4,3.2-0.8,4.8-1.1c3.2-0.7,6.4-1,9.6-0.9c3.2,0.1,6.4,0.8,9.3,2c3,1.3,5.7,3,8,5.2c0.6,0.5,1.2,1.1,1.7,1.7s1.1,1.1,1.7,1.7
		c0.5,0.6,1.1,1.2,1.7,1.8c0.5,0.6,1,1.2,1.6,1.8c2.1,2.3,4.1,4.5,6,6.8c1.8,2.2,3.3,4.6,4.3,7.1C662.6,355.8,663,358.5,662.5,361.1
		z M694.3,312.6c-1.9,6.9-4.5,13.7-7.9,20c-4.7,8.5-10.4,16.5-16.9,23.7c0.1-1.7,0-3.4-0.3-5c-0.8-3.8-2.4-7.4-4.8-10.5
		c-2.1-3-4.7-5.6-7.6-7.7c-0.7-0.5-1.4-1.1-2.2-1.5s-1.5-0.9-2.3-1.3c-0.7-0.5-1.5-0.9-2.3-1.3c-0.8-0.4-1.6-0.8-2.4-1.2
		c-3.2-1.4-6.5-2.6-9.9-3.6c-6.6-1.9-13.5-3.1-20.4-3.5c-6.7-0.5-13.5-0.4-20.2,0.3c-6.6,0.4-13,0.6-19.3,0.7
		c-6.3,0.2-12.7,0.1-19.1-0.4l-4.8-0.4c-1.6-0.2-3.2-0.2-4.9-0.5c-0.5-0.1-1-0.1-1.5-0.2c-0.7-1.5-1.5-2.9-2.4-4.3
		c-0.6-1-1.3-1.9-2-2.8c-0.7-0.9-1.4-1.8-2.2-2.6c-0.6-0.7-1.3-1.4-2-2.1c0.3,0.3,0.7,0.5,1,0.8c0.4,0.3,0.8,0.6,1.2,0.9
		c3.4,2.6,7,5,10.8,7.2l0.8-0.5c-0.5-2.3-1.3-4.4-2.4-6.5c-1-2-2.3-3.9-3.7-5.7c-1.4-1.8-2.9-3.5-4.5-5c-0.7-0.7-1.5-1.3-2.3-2
		c0.4,0.2,0.7,0.4,1.1,0.7c0.4,0.3,0.9,0.6,1.3,0.8c3.6,2.3,7.4,4.4,11.3,6.2l0.8-0.6c-0.7-2.2-1.7-4.3-3-6.2
		c-1.2-1.9-2.6-3.7-4.2-5.3c-1.5-1.7-3.2-3.2-4.9-4.6c-0.7-0.5-1.3-1-2-1.5c0.3,0.1,0.5,0.3,0.8,0.4c0.5,0.2,0.9,0.5,1.4,0.7
		c3.8,2,7.8,3.7,11.9,5.2l0.7-0.7c-0.9-2.2-2.1-4.2-3.5-6c-1.4-1.8-2.9-3.4-4.6-4.9c-0.8-0.8-1.7-1.5-2.6-2.2
		c-0.9-0.7-1.8-1.4-2.8-1.9c-0.7-0.5-1.5-0.9-2.3-1.4c0.3,0.1,0.6,0.2,1,0.4c0.5,0.2,1,0.4,1.4,0.6c4,1.7,8.1,3.1,12.3,4.2l0.5-0.8
		c-1.1-2.1-2.4-3.9-4-5.6c-1.5-1.7-3.2-3.2-5-4.5c-0.9-0.7-1.8-1.3-2.8-1.9c-0.9-0.6-1.9-1.2-2.9-1.7c-0.8-0.4-1.5-0.8-2.3-1.2
		c0.3,0.1,0.7,0.2,1,0.3c0.5,0.2,1,0.3,1.5,0.5c4.1,1.3,8.3,2.3,12.6,3.1l0.6-0.8c-1.3-2-2.8-3.7-4.6-5.2c-1.7-1.5-3.5-2.9-5.4-4.1
		c-0.9-0.6-1.9-1.2-2.9-1.7c-1-0.5-2-1-3-1.4c-0.9-0.4-1.7-0.7-2.6-1l1.1,0.2c0.5,0.1,1,0.2,1.5,0.3c4.2,0.9,8.5,1.6,12.8,2l0.5-0.9
		c-1.4-1.8-3.1-3.5-4.9-4.8c-1.8-1.4-3.7-2.6-5.7-3.6c-1-0.5-2-1-3-1.4c-1-0.4-2.1-0.8-3.2-1.2c-0.8-0.3-1.7-0.5-2.5-0.7
		c0.3,0,0.6,0.1,0.9,0.1c0.5,0.1,1,0.2,1.5,0.2c4.3,0.6,8.6,0.9,12.9,0.9l0.4-1c-1.6-1.7-3.4-3.2-5.3-4.4c-1.9-1.2-3.9-2.2-6-3.1
		c-1-0.4-2.1-0.8-3.2-1.1c-1.1-0.4-2.2-0.7-3.2-0.9c-0.7-0.2-1.3-0.3-2-0.4c0.1,0,0.2,0,0.4,0c0.5,0,1,0.1,1.5,0.1
		c4.3,0.2,8.6,0.1,12.9-0.3l0.3-0.9c-1.7-1.6-3.6-2.9-5.7-3.9c-2-1-4.1-1.9-6.3-2.5c-1.1-0.3-2.2-0.6-3.3-0.9
		c-1.1-0.2-2.2-0.5-3.3-0.6c-0.9-0.1-1.9-0.2-2.9-0.3l1.3-0.1c0.5,0,1-0.1,1.5-0.1c4.3-0.2,8.6-0.7,12.9-1.4l0.2-1c0,0,0,0,0,0
		c0.3-0.1,0.5-0.2,0.8-0.2c2.1-0.7,4.1-1.6,5.9-2.8c1.9-1.1,3.6-2.6,5-4.4c1.3-1.8,2.4-3.8,3.2-5.9c0.8-2.1,1.4-4.1,2.1-6.1
		c1.3-3.9,2.7-7.8,3.8-12l0.4-1.6c0.1-0.5,0.3-0.9,0.4-1.4s0.2-0.9,0.4-1.3s0.3-0.8,0.4-1.2c0.2-0.8,0.6-1.5,0.8-2.3
		c0.3-0.7,0.6-1.4,1-2c1.4-2.3,3.5-4,6-5c1.4-0.6,2.8-1.2,4.3-1.6c1.7-0.4,3.4-0.8,5.1-1.1c2.4-0.4,5-0.7,7.8-1
		c0.4,0.1,0.8,0.3,1.2,0.4c13.4,4.9,26.5,10.8,39,17.6c9.2,5,18,10.7,26.2,17.2c-1.4,0.1-2.8,0.3-4.2,0.6c-2.8,0.5-5.5,1.3-8.2,2.2
		c-2.7,1-5.3,2.2-7.8,3.5c-2.6,1.4-4.9,3.1-7,5.1c-2.1,2.1-3.9,4.3-5.5,6.8c-1.6,2.5-3,4.9-4.4,7.5c-1.4,2.5-2.6,5.1-3.6,7.8
		c-0.2,0.6-0.5,1.3-0.7,2s-0.4,1.4-0.6,2.1c-0.2,0.6-0.4,1.2-0.6,1.8l-0.3,0.8c-0.1,0.3-0.3,0.5-0.4,0.8c-1.1,1.9-2.6,3.5-4.5,4.6
		c-1.9,1.2-3.9,2.1-6,2.7c-4.5,1.3-9.4,1.6-14.5,2.1c-5.1,0.4-10.3,0.7-15.6,0.9c-5.4,0.2-10.7,0.4-16.4,1l-0.2,1
		c5,2.6,10.3,4.6,15.8,5.7c2.8,0.6,5.5,1.1,8.3,1.5c2.8,0.3,5.7,0.5,8.6,0.4c6-0.1,11.9-1.5,17.4-4c3-1.3,5.7-3.2,7.9-5.5
		c2.2-2.5,3.7-5.6,4.3-8.9c0.1-0.4,0.2-0.8,0.2-1.2l0.1-1.2c0.1-0.8,0.1-1.5,0.1-2.2s0-1.3,0.1-1.9s0.2-1.3,0.3-1.9
		c0.6-2.5,1.6-4.9,3.1-7c1.5-2.1,3.4-3.9,5.6-5.3c2.1-1.5,4.4-2.8,6.6-4s4.4-2.6,6.5-4l6.6-4.2c3.9-2.4,7.8-4.8,11.8-7.6
		c2.1,1.7,4.2,3.5,6.3,5.3c10.7,9.6,20,20.7,26.8,33.3c3.4,6.3,6.1,13.1,7.9,20c1.8,7,2.8,14.1,2.8,21.3
		C697.1,298.4,696.1,305.6,694.3,312.6z"/>
</g>
</svg>
