<?xml version="1.0" encoding="utf-8"?>
<!-- Generator: Adobe Illustrator 21.1.0, SVG Export Plug-In . SVG Version: 6.00 Build 0)  -->
<svg version="1.1" id="Calque_1" xmlns="http://www.w3.org/2000/svg" xmlns:xlink="http://www.w3.org/1999/xlink" x="0px" y="0px"
	 viewBox="0 0 841.9 595.3" style="enable-background:new 0 0 841.9 595.3;" xml:space="preserve">
<style type="text/css">
	.st0{fill:#FC0000;}
</style>
<title>Plan de travail 1</title>
<circle class="st0" cx="414" cy="299.9" r="24.1"/>
<path class="st0" d="M414,352.1c-28.8,0-52.2-23.4-52.2-52.2c0-28.8,23.4-52.2,52.2-52.2c28.8,0,52.2,23.4,52.2,52.2c0,0,0,0,0,0
	C466.2,328.7,442.8,352,414,352.1z M414,262.7c-20.6,0-37.2,16.7-37.2,37.2c0,20.6,16.7,37.2,37.2,37.2c20.6,0,37.2-16.7,37.2-37.2
	l0,0C451.2,279.3,434.5,262.7,414,262.7L414,262.7z"/>
<path class="st0" d="M414,380.2c-44.3,0-80.3-36-80.3-80.3s36-80.3,80.3-80.3c44.3,0,80.3,36,80.3,80.3c0,0,0,0,0,0
	C494.2,344.2,458.3,380.1,414,380.2z M414,234.6c-36.1,0-65.3,29.2-65.3,65.3s29.2,65.3,65.3,65.3s65.3-29.2,65.3-65.3l0,0
	C479.3,263.8,450,234.6,414,234.6L414,234.6z"/>
<path class="st0" d="M414,407c-59.1,0-107.1-47.9-107.1-107.1c0-59.1,47.9-107.1,107.1-107.1c59.1,0,107.1,47.9,107.1,107
	C521,359,473.1,406.9,414,407z M414,207.8c-50.9,0-92.1,41.2-92.1,92.1S363.1,392,414,392s92.1-41.2,92.1-92.1c0,0,0,0,0,0
	C506,249.1,464.8,207.9,414,207.8L414,207.8z"/>
<path class="st0" d="M414,434.3c-74.1,0-134.4-60.3-134.4-134.4S339.9,165.4,414,165.4s134.4,60.3,134.4,134.5
	S488.1,434.3,414,434.3z M414,180.4c-66,0-119.5,53.5-119.5,119.5S348,419.3,414,419.3s119.5-53.5,119.5-119.5
	C533.4,233.9,479.9,180.5,414,180.4L414,180.4z"/>
<path class="st0" d="M414,461.3c-89,0-161.4-72.4-161.4-161.4S325,138.5,414,138.5s161.4,72.4,161.4,161.4S503,461.3,414,461.3z
	 M414,153.5c-80.7,0-146.4,65.7-146.4,146.4S333.3,446.3,414,446.3s146.4-65.7,146.4-146.4S494.7,153.5,414,153.5L414,153.5z"/>
<path class="st0" d="M414,486.9c-103.1,0-187-83.9-187-187s83.9-187,187-187s187,83.9,187,187S517.1,486.9,414,486.9z M414,127.9
	c-94.8,0-172,77.2-172,172s77.2,172,172,172s172-77.2,172-172S508.8,127.9,414,127.9L414,127.9z"/>
<path class="st0" d="M414,513.9c-118.2,0-214-95.8-214-214s95.8-214,214-214s214,95.8,214,214c0,56.7-22.5,111.2-62.7,151.3
	C525.3,491.5,470.8,514.1,414,513.9z M414,100.8c-109.7,0-199,89.3-199,199s89.3,199,199,199s199-89.3,199-199
	S523.8,100.8,414,100.8L414,100.8z"/>
</svg>
