<?xml version="1.0" encoding="utf-8"?>
<!-- Generator: Adobe Illustrator 21.1.0, SVG Export Plug-In . SVG Version: 6.00 Build 0)  -->
<svg version="1.1" id="Calque_1" xmlns="http://www.w3.org/2000/svg" xmlns:xlink="http://www.w3.org/1999/xlink" x="0px" y="0px"
	 viewBox="0 0 841.9 595.3" style="enable-background:new 0 0 841.9 595.3;" xml:space="preserve">
<style type="text/css">
	.st0{fill:#FF0303;}
</style>
<title>Plan de travail 3</title>
<path class="st0" d="M655.1,325.7c-4.5-5.8-9.1-11.5-13.6-17.3c-4.5-5.7-9.1-11.4-13.7-17.1l-13.9-17c-2.4-2.7-5-5.3-7.7-7.7
	c-2.7-2.5-5.2-5.1-7.8-7.7L583,243.6l-30.8-30.9L428.8,89.3l-7.1-7.1l-7.2,7.2L291.1,212.8l-61.7,61.7l-13.8,17
	c-4.6,5.7-9.2,11.4-13.7,17.1c-9.1,11.4-18.1,23-27,34.7c11.7-8.9,23.2-17.9,34.7-27.1c5.7-4.5,11.4-9.2,17.1-13.7l17-13.8
	l11.9-11.9l9.1,245.4l9.9-264.4l30.8-30.8l116.3-116.3L538,226.9l28.7,28.7l9.9,266.5l9.2-247.4c2.1,2.1,4.1,4.1,6.1,6.2
	c2.4,2.7,5,5.3,7.7,7.7l17,13.9c5.7,4.6,11.4,9.1,17.1,13.7c5.7,4.6,11.4,9.1,17.3,13.6c5.8,4.4,11.6,9,17.5,13.4
	C664.1,337.3,659.7,331.5,655.1,325.7z"/>
</svg>
