<?xml version="1.0" encoding="utf-8"?>
<!-- Generator: Adobe Illustrator 19.1.0, SVG Export Plug-In . SVG Version: 6.00 Build 0)  -->
<svg version="1.1" id="Calque_1" xmlns="http://www.w3.org/2000/svg" xmlns:xlink="http://www.w3.org/1999/xlink" x="0px" y="0px"
	 viewBox="219.3 324.8 151.5 101" style="enable-background:new 219.3 324.8 151.5 101;" xml:space="preserve">
<style type="text/css">
	.st0{fill:none;}
	.st1{fill:#FFFFFF;}
</style>
<g>
	<rect x="240.3" y="346.7" class="st0" width="112.4" height="55.4"/>
	<path class="st1" d="M256.6,380.2v5.8h-13.4v-39.2h5.9v33.3h7.5V380.2z"/>
	<path class="st1" d="M288.7,371.6c0,8-6.5,14.4-14.4,14.4c-8,0-14.5-6.4-14.5-14.4c0-3.8,1.5-7.5,4.2-10.2s6.4-4.2,10.2-4.2
		C282.2,357.2,288.7,363.7,288.7,371.6z M280.4,377.7c1.6-1.6,2.5-3.7,2.5-6c0-4.8-3.8-8.6-8.6-8.6c-4.8,0-8.6,3.8-8.6,8.6
		c0,4.7,3.8,8.6,8.6,8.6C276.6,380.2,278.8,379.3,280.4,377.7z"/>
	<path class="st1" d="M314.5,357.1v2.9c0,8.9-1.5,15.3-4.6,19.6c-1.5,2.1-3.6,3.8-6,4.9c-2.4,1-5.2,1.6-8.4,1.6h-2.9v-29h5.8V380
		c1.9-0.3,3.6-1,4.9-2c1.4-1,2.5-2.5,3.4-4.4c1.8-4,2-9.3,2-13.5v-2.9h5.8V357.1z"/>
	<path class="st1" d="M326.1,380.2h13.3v5.8h-19.1v-19.2c0-3.8,1.9-7,5.1-8.6c1.4-0.8,3.1-1.3,4.8-1.3c2.1,0,4.1,0.7,5.8,1.9
		c0.9,0.6,1.6,1.3,2.3,2.3c1.2,1.8,1.8,3.7,1.8,5.8c0,2.6-1,5.1-2.9,7c-1.8,1.9-4.3,2.9-6.9,2.9c-1.4,0-2.8-0.3-4.1-0.9L326.1,380.2
		L326.1,380.2z M326.2,367c0,2.3,1.8,4.1,4,4.1s4-1.9,4-4.1c0-2.3-1.8-4.1-4-4.1C328.1,362.8,326.2,364.7,326.2,367z"/>
</g>
</svg>
