<?xml version="1.0" encoding="utf-8"?>
<!-- Generator: Adobe Illustrator 19.1.0, SVG Export Plug-In . SVG Version: 6.00 Build 0)  -->
<svg version="1.1" id="Calque_1" xmlns="http://www.w3.org/2000/svg" xmlns:xlink="http://www.w3.org/1999/xlink" x="0px" y="0px"
	 viewBox="178.5 313.7 203.1 66.7" style="enable-background:new 178.5 313.7 203.1 66.7;" xml:space="preserve">
<style type="text/css">
	.st0{fill:none;}
	.st1{fill:#FFFFFF;}
</style>
<g>
	<rect x="186.5" y="324.5" class="st0" width="482.5" height="277.5"/>
	<path class="st1" d="M225.3,334.8v29h-5.8v-23.1c-3.6,0.3-6.1,1.2-7.5,2.6c-1.1,1.2-1.6,2.6-1.6,4.8v15.6h-5.8v-23.1
		c-3.6,0.3-6.1,1.2-7.5,2.6c-1.1,1.2-1.6,2.6-1.6,4.8v15.6h-5.8v-28.8h5.8v2.3c3-1.7,7-2.6,12-2.6h2.9v2.6c3-1.7,7-2.6,12-2.6h2.9
		V334.8z"/>
	<path class="st1" d="M252.2,334.9v28.9h-5.9v-3.4c-1.2,0.9-2.6,1.6-4.1,2.1c-2.3,0.8-5,1.3-8,1.3h-2.9v-28.9h5.9v22.8
		c1.7-0.3,3.8-0.8,5.6-2c2.4-1.6,3.6-4,3.6-7v-13.8H252.2z"/>
	<path class="st1" d="M277.3,339.6l0.4,0.7l-5.3,2.8l-0.3-0.8c-0.4-0.7-1.2-1.6-3.5-1.6c-1.9,0-4,1.3-4,5.6v17.4h-6v-17.3
		c0-7.7,3.9-11.7,10-11.7C272.5,334.7,275.7,336.4,277.3,339.6z"/>
	<path class="st1" d="M316,334.8v29h-5.8v-23.1c-3.6,0.3-6.1,1.2-7.5,2.6c-1.1,1.2-1.6,2.6-1.6,4.8v15.6h-5.8v-23.1
		c-3.6,0.3-6.1,1.2-7.5,2.6c-1.1,1.2-1.6,2.6-1.6,4.8v15.6h-5.8v-28.8h5.8v2.3c3-1.7,7-2.6,12-2.6h2.9v2.6c3-1.7,7-2.6,12-2.6h2.9
		V334.8z"/>
	<path class="st1" d="M342.8,334.9v28.9h-5.9v-3.4c-1.2,0.9-2.6,1.6-4.1,2.1c-2.3,0.8-5,1.3-8,1.3h-2.9v-28.9h5.9v22.8
		c1.7-0.3,3.8-0.8,5.6-2c2.4-1.6,3.6-4,3.6-7v-13.8H342.8z"/>
	<path class="st1" d="M367.9,339.6l0.4,0.7l-5.3,2.8l-0.3-0.8c-0.4-0.7-1.2-1.6-3.5-1.6c-1.9,0-4,1.3-4,5.6v17.4h-6v-17.3
		c0-7.7,3.9-11.7,10-11.7C363.2,334.7,366.3,336.4,367.9,339.6z"/>
</g>
</svg>
