<?xml version="1.0" encoding="utf-8"?>
<!-- Generator: Adobe Illustrator 19.1.0, SVG Export Plug-In . SVG Version: 6.00 Build 0)  -->
<svg version="1.1" id="Calque_1" xmlns="http://www.w3.org/2000/svg" xmlns:xlink="http://www.w3.org/1999/xlink" x="0px" y="0px"
	 viewBox="-210.2 393.4 206.8 58.8" style="enable-background:new -210.2 393.4 206.8 58.8;" xml:space="preserve">
<style type="text/css">
	.st0{fill:#FFFFFF;}
</style>
<title>pleasure</title>
<g>
	<path class="st0" d="M-180.9,407.5v12.9c0,5.3-0.9,8.9-3.1,11.4c-1.3,1.5-3,2.7-5,3.4c-2.3,0.8-4.7,1.3-7.1,1.4v8.4h-5.9v-23.6
		c0-1.6,0.2-3.2,0.7-4.8c0.6-1.7,1.5-3.2,2.8-4.5c3-3,7.9-4.5,14.6-4.5L-180.9,407.5L-180.9,407.5z M-194.5,416.4
		c-1.2,1.4-1.7,3.1-1.6,4.9v9.4c4-0.3,6.5-1.2,7.8-2.9c1.3-1.6,1.5-4,1.5-7.4v-6.9C-190.5,413.9-193,414.8-194.5,416.4L-194.5,416.4
		z"/>
	<path class="st0" d="M-161.9,430.7v5.8h-13.4v-39.2h5.9v33.3L-161.9,430.7L-161.9,430.7z"/>
	<path class="st0" d="M-150.9,430.7h13.3v5.8h-19.1v-19.2c-0.1-3.6,1.9-7,5.1-8.6c1.5-0.8,3.1-1.3,4.8-1.3c2.1,0,4.1,0.7,5.8,1.9
		c0.9,0.6,1.7,1.4,2.3,2.3c1.1,1.7,1.8,3.7,1.8,5.8c0,2.6-1,5.2-2.9,7c-1.8,1.9-4.3,2.9-6.9,2.9c-1.4,0-2.8-0.3-4.1-0.9V430.7
		L-150.9,430.7z M-150.7,417.4c0,2.2,1.7,4.1,4,4.1c2.2-0.1,4-1.9,4-4.1c0.1-2.2-1.7-4.1-3.9-4.1c0,0,0,0-0.1,0
		C-149,413.4-150.8,415.2-150.7,417.4L-150.7,417.4z"/>
	<path class="st0" d="M-111.3,417.1v19.4h-20v-9.3c-0.1-2.6,1-5.1,2.8-6.9c2-1.8,4.5-2.7,7.1-2.6c1.4,0,2.8,0.2,4.1,0.8v-1.4
		c0-1-0.3-2-1-2.8c-0.8-0.7-1.8-1.1-2.9-1c-1.8,0-3,0.5-3.5,1.6l-0.4,0.7l-5.2-2.7l0.4-0.7c1.8-3.1,5.1-5,8.7-4.8
		c5.2-0.2,9.6,3.8,9.8,9C-111.3,416.7-111.3,416.9-111.3,417.1z M-123.9,424.2c-1,0.7-1.6,1.8-1.5,3v3.5h8.2v-1.4
		c0-5.8-2.9-5.8-4.1-5.8C-122.2,423.5-123.1,423.7-123.9,424.2z"/>
	<path class="st0" d="M-85.6,429.7v6.8H-105v-5.9h13.6v-0.9c0-1.6-0.4-2.4-1.6-3c-1.6-0.8-4.4-1.2-8.9-1.2h-2.9v-8.4
		c-0.2-5.2,3.9-9.6,9.1-9.7c0.2,0,0.4,0,0.7,0c1.8,0,3.6,0.4,5.2,1.3c1.5,0.8,2.7,2.1,3.5,3.6l1.4,2.6l-5.2,2.7l-1.4-2.6
		c-0.8-1.6-2.8-1.6-3.5-1.6c-1.1,0-2.1,0.3-2.9,1c-0.7,0.7-1.1,1.8-1.1,2.8v2.5c2.9,0,5.8,0.6,8.5,1.7
		C-87.3,422.9-85.6,425.8-85.6,429.7z"/>
	<path class="st0" d="M-58.7,407.6v28.9h-5.9v-3.4c-1.3,0.9-2.7,1.6-4.1,2.1c-2.6,0.9-5.3,1.3-8,1.3h-2.9v-28.9h5.9v22.8
		c2-0.3,3.9-0.9,5.6-2c2.4-1.5,3.8-4.2,3.6-7v-13.8L-58.7,407.6L-58.7,407.6z"/>
	<path class="st0" d="M-33.5,412.3l0.4,0.7l-5.3,2.8l-0.3-0.8c-0.4-0.7-1.2-1.6-3.5-1.6c-1.9,0-4,1.3-4,5.6v17.4h-6v-17.3
		c0-7.7,3.9-11.7,10-11.7C-38.3,407.4-35.2,409.1-33.5,412.3z"/>
	<path class="st0" d="M-25.1,430.7h13.3v5.8H-31v-19.2c-0.1-3.6,1.9-7,5.1-8.6c1.5-0.8,3.1-1.3,4.8-1.3c2.1,0,4.1,0.7,5.8,1.9
		c0.9,0.6,1.7,1.4,2.3,2.3c1.1,1.7,1.8,3.7,1.8,5.8c0,2.6-1,5.2-2.9,7c-1.8,1.9-4.3,2.9-6.9,2.9c-1.4,0-2.8-0.3-4.1-0.9L-25.1,430.7
		L-25.1,430.7z M-25,417.4c0,2.2,1.7,4.1,4,4.1c2.2-0.1,4-1.9,4-4.1c0.1-2.2-1.7-4.1-3.9-4.1c0,0,0,0-0.1,0
		C-23.3,413.4-25.1,415.2-25,417.4L-25,417.4z"/>
</g>
</svg>
