<?xml version="1.0" encoding="utf-8"?>
<!-- Generator: Adobe Illustrator 19.1.0, SVG Export Plug-In . SVG Version: 6.00 Build 0)  -->
<svg version="1.1" id="Calque_1" xmlns="http://www.w3.org/2000/svg" xmlns:xlink="http://www.w3.org/1999/xlink" x="0px" y="0px"
	 viewBox="150.8 284.5 306.9 127.6" style="enable-background:new 150.8 284.5 306.9 127.6;" xml:space="preserve">
<style type="text/css">
	.st0{fill:none;}
	.st1{fill:#FFFFFF;}
</style>
<g>
	<rect x="186.5" y="324.5" class="st0" width="482.5" height="277.5"/>
	<path class="st1" d="M208.5,339.6l0.4,0.7l-5.3,2.8l-0.3-0.8c-0.4-0.7-1.2-1.6-3.5-1.6c-1.9,0-4,1.3-4,5.6v17.4h-6v-17.3
		c0-7.7,3.9-11.7,10-11.7C203.7,334.7,206.9,336.4,208.5,339.6z"/>
	<path class="st1" d="M216.9,358h13.3v5.8h-19.1v-19.2c0-3.8,1.9-7,5.1-8.6c1.4-0.8,3.1-1.3,4.8-1.3c2.1,0,4.1,0.7,5.8,1.9
		c0.9,0.6,1.6,1.3,2.3,2.3c1.2,1.8,1.8,3.7,1.8,5.8c0,2.6-1,5.1-2.9,7c-1.8,1.9-4.3,2.9-6.9,2.9c-1.4,0-2.7-0.3-4.1-0.9v4.3H216.9z
		 M217,344.7c0,2.3,1.8,4.1,4,4.1s4-1.9,4-4.1c0-2.3-1.8-4.1-4-4.1S217,342.4,217,344.7z"/>
	<path class="st1" d="M258.5,334.8v2.9c0,8.9-1.5,15.3-4.6,19.6c-1.5,2.1-3.6,3.8-6,4.9c-2.4,1-5.2,1.6-8.4,1.6h-2.9v-29h5.8v22.9
		c1.9-0.3,3.6-1,4.9-2c1.4-1,2.5-2.5,3.4-4.4c1.8-4,2-9.3,2-13.5v-2.9h5.8V334.8z"/>
	<path class="st1" d="M291.2,349.4c0,8-6.5,14.4-14.4,14.4c-8,0-14.5-6.4-14.5-14.4c0-3.8,1.5-7.5,4.2-10.2s6.4-4.2,10.2-4.2
		C284.7,335,291.2,341.4,291.2,349.4z M282.9,355.5c1.6-1.6,2.5-3.7,2.5-6c0-4.8-3.8-8.6-8.6-8.6c-4.8,0-8.6,3.8-8.6,8.6
		c0,4.7,3.8,8.6,8.6,8.6C279.1,358,281.3,357.1,282.9,355.5z"/>
	<path class="st1" d="M308.3,358v5.8h-13.4v-39.2h5.9V358H308.3z"/>
	<path class="st1" d="M334.6,334.9v28.9h-5.9v-3.4c-1.2,0.9-2.6,1.6-4.1,2.1c-2.3,0.8-5,1.3-8,1.3h-2.9v-28.9h5.9v22.8
		c1.7-0.3,3.8-0.8,5.6-2c2.4-1.6,3.6-4,3.6-7v-13.8H334.6z"/>
	<path class="st1" d="M346.7,358h6.9v5.8h-12.8v-39.2h5.9v11.9c1.2-0.7,2.4-1.2,3.8-1.5l2.8-0.9l1.6,5.7l-2.9,0.7
		c-1.9,0.6-3.2,1.4-4.1,2.5c-0.8,1.1-1.3,2.6-1.3,4.5V358H346.7z"/>
	<path class="st1" d="M364,323.6v6.4h-6v-6.4H364z M358,334.8h6v29h-6V334.8z"/>
	<path class="st1" d="M396.7,349.4c0,8-6.5,14.4-14.4,14.4c-8,0-14.5-6.4-14.5-14.4c0-3.8,1.5-7.5,4.2-10.2s6.4-4.2,10.2-4.2
		C390.2,335,396.7,341.4,396.7,349.4z M388.3,355.5c1.7-1.6,2.5-3.7,2.5-6c0-4.8-3.8-8.6-8.6-8.6c-4.8,0-8.6,3.8-8.6,8.6
		c0,4.7,3.8,8.6,8.6,8.6C384.5,358,386.7,357.1,388.3,355.5z"/>
	<path class="st1" d="M421.3,334.8v29h-5.8v-23.1c-3.6,0.3-6.1,1.2-7.5,2.6c-1.1,1.2-1.6,2.6-1.6,4.8v15.6h-5.8v-28.8h5.8v2.3
		c3-1.7,7-2.6,12-2.6h2.9V334.8z"/>
</g>
</svg>
