<?xml version="1.0" encoding="utf-8"?>
<!-- Generator: Adobe Illustrator 19.1.0, SVG Export Plug-In . SVG Version: 6.00 Build 0)  -->
<svg version="1.1" id="Calque_1" xmlns="http://www.w3.org/2000/svg" xmlns:xlink="http://www.w3.org/1999/xlink" x="0px" y="0px"
	 viewBox="-136 373.5 456 91" style="enable-background:new -136 373.5 456 91;" xml:space="preserve">
<style type="text/css">
	.st0{fill:#FFFFFF;}
</style>
<title>sexual libeartion</title>
<g>
	<path class="st0" d="M-83.6,434.1v6.8H-103V435h13.6v-0.9c0-1.6-0.4-2.4-1.6-3c-1.6-0.8-4.4-1.2-8.9-1.2h-2.9v-8.4
		c-0.2-5.2,3.9-9.6,9.1-9.7c0.2,0,0.4,0,0.7,0c1.8,0,3.6,0.4,5.2,1.3c1.5,0.8,2.7,2.1,3.5,3.6l1.4,2.6l-5.2,2.7l-1.4-2.6
		c-0.8-1.6-2.8-1.6-3.5-1.6c-1.1,0-2.1,0.3-2.9,1c-0.7,0.7-1.1,1.8-1.1,2.8v2.5c2.9,0,5.8,0.6,8.5,1.7
		C-85.2,427.3-83.6,430.1-83.6,434.1z"/>
	<path class="st0" d="M-71.9,435.1h13.3v5.8h-19.1v-19.2c-0.1-3.6,1.9-7,5.1-8.6c1.5-0.8,3.1-1.3,4.8-1.3c2.1,0,4.1,0.7,5.8,1.9
		c0.9,0.6,1.7,1.4,2.3,2.3c1.1,1.7,1.8,3.7,1.8,5.8c0,2.6-1,5.2-2.9,7c-1.8,1.9-4.3,2.9-6.9,2.9c-1.4,0-2.8-0.3-4.1-0.9L-71.9,435.1
		L-71.9,435.1z M-71.8,421.8c0,2.2,1.7,4.1,4,4.1c2.2-0.1,4-1.9,4-4.1c0.1-2.2-1.7-4.1-3.9-4.1c0,0,0,0-0.1,0
		C-70,417.7-71.8,419.6-71.8,421.8z"/>
	<path class="st0" d="M-30,438v2.9h-5.8V438c0-2.2-0.5-4.3-1.4-6.3c-0.9-1.9-2.4-3.6-4.3-4.7c-3.6,2.2-5.7,6-5.7,10.9v2.9h-5.9V438
		c0-2.8,0.5-5.5,1.5-8c0.8-1.8,1.8-3.4,3.1-4.8h-3.9v-13.3h5.9v7.6c1.7,0.2,3.3,0.6,4.9,1.2c1.5-0.5,3.1-0.9,4.7-1.2v-7.6h5.8v13.3
		h-3.7c1.4,1.5,2.5,3.3,3.2,5.2C-30.5,432.8-30,435.4-30,438z"/>
	<path class="st0" d="M-3.9,412v28.9h-5.9v-3.4c-1.3,0.9-2.7,1.6-4.1,2.1c-2.6,0.9-5.3,1.3-8,1.3h-2.9V412h5.9v22.8
		c2-0.3,3.9-0.9,5.6-2c2.4-1.5,3.8-4.2,3.6-7V412L-3.9,412L-3.9,412z"/>
	<path class="st0" d="M22.1,421.5v19.4h-20v-9.3c-0.1-2.6,1-5.1,2.8-6.9c2-1.8,4.5-2.7,7.1-2.6c1.4,0,2.8,0.2,4.1,0.8v-1.4
		c0-1-0.3-2-1-2.8c-0.8-0.7-1.8-1.1-2.9-1c-1.8,0-3,0.5-3.5,1.6L8.4,420l-5.2-2.7l0.4-0.7c1.8-3.1,5.1-5,8.7-4.8
		c5.2-0.2,9.6,3.8,9.8,9C22.1,421,22.1,421.3,22.1,421.5z M9.5,428.5c-1,0.7-1.6,1.8-1.5,3v3.5h8.2v-1.4c0-5.8-2.9-5.8-4.1-5.8
		C11.2,427.9,10.3,428.1,9.5,428.5L9.5,428.5z"/>
	<path class="st0" d="M41.5,435.1v5.8H28.1v-39.2H34v33.3H41.5L41.5,435.1z"/>
	<path class="st0" d="M87.8,435.1v5.8H74.4v-39.2h5.9v33.3H87.8z"/>
	<path class="st0" d="M99.3,400.6v6.4h-6v-6.4H99.3z M93.3,411.9h6v29h-6V411.9L93.3,411.9z"/>
	<path class="st0" d="M125.4,411.8V424c0,2.8,0,6.9-2.1,10.4c-1.2,2-3,3.7-5.2,4.6c-3.1,1.4-6.4,2-9.8,1.9h-2.9v-39.3h5.9v12.6
		c2.8-1.6,6.5-2.4,11.2-2.4H125.4L125.4,411.8z M118.1,431.6c0.9-1.3,1.4-3.1,1.4-7.6v-6.2c-7.3,0.7-8.3,3.9-8.3,6.9v10.2
		C114.7,434.5,116.9,433.5,118.1,431.6L118.1,431.6z"/>
	<path class="st0" d="M137.1,435.1h13.3v5.8h-19.1v-19.2c-0.1-3.6,1.9-7,5.1-8.6c1.5-0.8,3.1-1.3,4.8-1.3c2.1,0,4.1,0.7,5.8,1.9
		c0.9,0.6,1.7,1.4,2.3,2.3c1.1,1.7,1.8,3.7,1.8,5.8c0,2.6-1,5.2-2.9,7c-1.8,1.9-4.3,2.9-6.9,2.9c-1.4,0-2.8-0.3-4.1-0.9L137.1,435.1
		L137.1,435.1z M137.2,421.8c0,2.2,1.7,4.1,4,4.1c2.2-0.1,4-1.9,4-4.1c0.1-2.2-1.7-4.1-3.9-4.1c0,0,0,0-0.1,0
		C138.9,417.7,137.1,419.6,137.2,421.8L137.2,421.8z"/>
	<path class="st0" d="M175.7,416.7l0.4,0.7l-5.3,2.8l-0.3-0.8c-0.4-0.7-1.2-1.6-3.5-1.6c-1.9,0-4,1.3-4,5.6v17.4h-6v-17.3
		c0-7.7,3.9-11.7,10-11.7C170.9,411.8,174,413.5,175.7,416.7z"/>
	<path class="st0" d="M198.4,421.5v19.4h-20v-9.3c-0.1-2.6,1-5.1,2.8-6.9c2-1.8,4.5-2.7,7.1-2.6c1.4,0,2.8,0.2,4.1,0.8v-1.4
		c0-1-0.3-2-1-2.8c-0.8-0.7-1.8-1.1-2.9-1c-1.8,0-3,0.5-3.5,1.6l-0.4,0.7l-5.2-2.7l0.4-0.7c1.8-3.1,5.1-5,8.7-4.8
		c5.2-0.2,9.6,3.8,9.8,9C198.5,421,198.5,421.3,198.4,421.5z M185.9,428.5c-1,0.7-1.6,1.8-1.5,3v3.5h8.2v-1.4c0-5.8-2.9-5.8-4.1-5.8
		C187.5,427.9,186.7,428.1,185.9,428.5L185.9,428.5z"/>
	<path class="st0" d="M210.6,435.1h6.9v5.8h-12.8v-39.2h5.9v11.9c1.2-0.7,2.5-1.2,3.8-1.5l2.8-0.9l1.6,5.7l-2.9,0.7
		c-1.6,0.4-3,1.3-4.1,2.5c-0.9,1.3-1.3,2.9-1.3,4.5L210.6,435.1L210.6,435.1z"/>
	<path class="st0" d="M227.9,400.6v6.4h-6v-6.4H227.9z M221.9,411.9h6v29h-6V411.9L221.9,411.9z"/>
	<path class="st0" d="M260.5,426.5c0,8-6.5,14.4-14.4,14.4c-8,0-14.4-6.4-14.5-14.4c0,0,0,0,0,0c0-3.8,1.5-7.5,4.2-10.2
		c2.7-2.7,6.4-4.2,10.2-4.2C254.1,412.1,260.5,418.5,260.5,426.5z M252.2,432.5c1.6-1.6,2.6-3.8,2.5-6.1c0-4.7-3.8-8.6-8.6-8.6
		c0,0,0,0,0,0c-4.8,0-8.6,3.8-8.6,8.6c0,0,0,0,0,0c0,4.7,3.9,8.6,8.6,8.6c0,0,0,0,0,0C248.4,435.1,250.6,434.2,252.2,432.5z"/>
	<path class="st0" d="M285.2,411.9v29h-5.8v-23.1c-3.6,0.3-6.1,1.2-7.5,2.6c-1.2,1.3-1.7,3.1-1.6,4.8v15.6h-5.8v-28.8h5.8v2.3
		c3-1.7,7-2.6,12-2.6C282.3,411.9,285.2,411.9,285.2,411.9z"/>
</g>
</svg>
