<?xml version="1.0" encoding="utf-8"?>
<!-- Generator: Adobe Illustrator 19.1.0, SVG Export Plug-In . SVG Version: 6.00 Build 0)  -->
<svg version="1.1" id="Calque_1" xmlns="http://www.w3.org/2000/svg" xmlns:xlink="http://www.w3.org/1999/xlink" x="0px" y="0px"
	 viewBox="-224.7 393.8 170.9 58.2" style="enable-background:new -224.7 393.8 170.9 58.2;" xml:space="preserve">
<style type="text/css">
	.st0{fill:#FFFFFF;}
</style>
<title>sharing</title>
<g>
	<path class="st0" d="M-198.6,429.9v6.8H-218v-5.9h13.6v-0.9c0-1.6-0.4-2.4-1.6-3c-1.6-0.8-4.4-1.2-8.9-1.2h-2.9v-8.4
		c-0.2-5.2,3.9-9.6,9.1-9.7c0.2,0,0.4,0,0.7,0c1.8,0,3.6,0.4,5.2,1.3c1.5,0.8,2.7,2.1,3.5,3.6l1.4,2.6l-5.2,2.7l-1.4-2.6
		c-0.8-1.6-2.8-1.6-3.5-1.6c-1.1,0-2.1,0.3-2.9,1c-0.7,0.7-1.1,1.8-1.1,2.8v2.5c2.9,0,5.8,0.6,8.5,1.6
		C-200.2,423.1-198.6,425.9-198.6,429.9z"/>
	<path class="st0" d="M-172.3,407.6v29.1h-5.9v-23.1c-7.3,0.7-8.3,3.9-8.3,6.9v16.2h-5.8v-39.3h5.8V410c1.5-0.8,3.1-1.4,4.7-1.7
		c2.1-0.5,4.3-0.7,6.5-0.7L-172.3,407.6L-172.3,407.6z"/>
	<path class="st0" d="M-146.3,417.3v19.4h-20v-9.3c-0.1-2.6,1-5.1,2.8-6.9c2-1.8,4.5-2.7,7.1-2.6c1.4,0,2.8,0.2,4.1,0.8v-1.4
		c0-1-0.3-2-1-2.8c-0.8-0.7-1.8-1.1-2.9-1c-1.8,0-3,0.6-3.5,1.6l-0.4,0.7l-5.2-2.7l0.4-0.7c1.8-3.1,5.1-5,8.7-4.8
		c5.2-0.2,9.6,3.8,9.8,9C-146.3,416.8-146.3,417.1-146.3,417.3z M-158.9,424.3c-1,0.7-1.6,1.8-1.5,3v3.5h8.2v-1.4
		c0-5.8-2.9-5.8-4.1-5.8C-157.2,423.7-158.1,423.9-158.9,424.3z"/>
	<path class="st0" d="M-121.1,412.5l0.4,0.7l-5.3,2.8l-0.3-0.8c-0.4-0.7-1.2-1.6-3.5-1.6c-1.9,0-4,1.3-4,5.6v17.4h-6v-17.3
		c0-7.7,3.9-11.7,10-11.7C-125.9,407.6-122.8,409.3-121.1,412.5z"/>
	<path class="st0" d="M-112.3,396.4v6.4h-6v-6.4H-112.3z M-118.3,407.7h6v29h-6V407.7L-118.3,407.7z"/>
	<path class="st0" d="M-85.4,407.7v29h-5.8v-23.1c-3.6,0.3-6.1,1.2-7.5,2.6c-1.2,1.3-1.7,3.1-1.6,4.8v15.6h-5.8v-28.8h5.8v2.3
		c3-1.7,7-2.6,12-2.6H-85.4L-85.4,407.7z"/>
	<path class="st0" d="M-59.2,407.7v37.2h-20V439h14.1v-6.4c-2.8,1.6-6.6,2.4-11.2,2.4h-3v-27.2H-59.2L-59.2,407.7z M-66.5,426.5
		c1-1.2,1.6-2.8,1.4-4.5v-8.4h-8.3v15.3C-70.2,428.7-67.9,427.8-66.5,426.5z"/>
</g>
</svg>
