<?xml version="1.0" encoding="utf-8"?>
<!-- Generator: Adobe Illustrator 19.1.0, SVG Export Plug-In . SVG Version: 6.00 Build 0)  -->
<svg version="1.1" id="Calque_1" xmlns="http://www.w3.org/2000/svg" xmlns:xlink="http://www.w3.org/1999/xlink" x="0px" y="0px"
	 viewBox="-210.1 392.9 201.5 61.6" style="enable-background:new -210.1 392.9 201.5 61.6;" xml:space="preserve">
<style type="text/css">
	.st0{fill:#FFFFFF;}
</style>
<title>softness</title>
<g>
	<path class="st0" d="M-183.6,434.1v6.8H-203V435h13.6v-0.9c0-1.6-0.4-2.4-1.6-3c-1.6-0.8-4.4-1.2-8.9-1.2h-2.9v-8.4
		c-0.2-5.2,3.9-9.6,9.1-9.7c0.2,0,0.4,0,0.7,0c1.8,0,3.6,0.4,5.2,1.3c1.5,0.8,2.7,2.1,3.5,3.6l1.4,2.6l-5.2,2.7l-1.4-2.6
		c-0.8-1.6-2.8-1.6-3.5-1.6c-1.1,0-2.1,0.3-2.9,1c-0.7,0.7-1.1,1.8-1.1,2.8v2.5c2.9,0,5.8,0.6,8.5,1.6
		C-185.2,427.3-183.6,430.1-183.6,434.1z"/>
	<path class="st0" d="M-150.8,426.5c0,8-6.5,14.4-14.4,14.4c-8,0-14.4-6.4-14.5-14.4c0,0,0,0,0,0c0-3.8,1.5-7.5,4.2-10.2
		c2.7-2.7,6.4-4.2,10.2-4.2C-157.3,412.1-150.8,418.5-150.8,426.5z M-159.2,432.5c1.6-1.6,2.6-3.8,2.5-6c0-4.7-3.8-8.6-8.6-8.6
		c0,0,0,0,0,0c-4.8,0-8.6,3.8-8.6,8.6c0,0,0,0,0,0c0,4.7,3.9,8.6,8.6,8.6c0,0,0,0,0,0C-162.9,435.1-160.8,434.2-159.2,432.5z"/>
	<path class="st0" d="M-126.8,435h7v5.9h-12.9v-29.6c0-2.6-1.5-4.2-4.1-4.2c-2.1-0.2-4,1.4-4.2,3.5c0,0.2,0,0.4,0,0.6v6.6h5.4v5.9
		h-5.4v17.1h-5.9v-29.6c-0.1-2.7,1-5.3,2.9-7.2c1.9-1.8,4.5-2.8,7.2-2.8c5.8,0,10,3.6,10,9.7v2.4c2.1-1,4.4-1.8,6.7-2.4l1.6,5.7
		l-2.9,0.8c-1.6,0.4-3.1,1.3-4.2,2.5c-0.9,1.3-1.3,2.9-1.3,4.5L-126.8,435L-126.8,435z"/>
	<path class="st0" d="M-91.6,411.9v29h-5.8v-23.1c-3.6,0.3-6.1,1.2-7.5,2.6c-1.2,1.3-1.7,3.1-1.6,4.8v15.6h-5.8v-28.8h5.8v2.3
		c3-1.7,7-2.6,12-2.6H-91.6L-91.6,411.9z"/>
	<path class="st0" d="M-80,435.1h13.3v5.8h-19.1v-19.2c-0.1-3.6,1.9-7,5.1-8.6c1.5-0.8,3.1-1.3,4.8-1.3c2.1,0,4.1,0.7,5.8,1.9
		c0.9,0.6,1.7,1.4,2.3,2.3c1.1,1.7,1.8,3.7,1.8,5.8c0,2.6-1,5.2-2.9,7c-1.8,1.9-4.3,2.9-6.9,2.9c-1.4,0-2.8-0.3-4.1-0.9V435.1
		L-80,435.1z M-79.9,421.8c0,2.2,1.7,4.1,4,4.1c2.2-0.1,4-1.9,4-4.1c0.1-2.2-1.7-4.1-3.9-4.1c0,0,0,0-0.1,0
		C-78.1,417.7-79.9,419.6-79.9,421.8L-79.9,421.8z"/>
	<path class="st0" d="M-40.8,434.1v6.8h-19.4V435h13.6v-0.9c0-1.6-0.4-2.4-1.6-3c-1.6-0.8-4.4-1.2-8.9-1.2h-2.9v-8.4
		c-0.2-5.2,3.9-9.6,9.1-9.7c0.2,0,0.4,0,0.7,0c1.8,0,3.6,0.4,5.2,1.3c1.5,0.8,2.7,2.1,3.5,3.6l1.4,2.6l-5.2,2.7l-1.4-2.6
		c-0.8-1.6-2.8-1.6-3.5-1.6c-1.1,0-2.1,0.3-2.9,1c-0.7,0.7-1.1,1.8-1.1,2.8v2.5c2.9,0,5.8,0.6,8.5,1.6
		C-42.5,427.3-40.8,430.1-40.8,434.1z"/>
	<path class="st0" d="M-15.1,434.1v6.8h-19.4V435H-21v-0.9c0-1.6-0.4-2.4-1.6-3c-1.6-0.8-4.4-1.2-8.9-1.2h-2.9v-8.4
		c-0.2-5.2,3.9-9.6,9.1-9.7c0.2,0,0.4,0,0.7,0c1.8,0,3.6,0.4,5.2,1.3c1.5,0.8,2.7,2.1,3.5,3.6l1.4,2.6l-5.2,2.7l-1.4-2.6
		c-0.8-1.6-2.8-1.6-3.5-1.6c-1.1,0-2.1,0.3-2.9,1c-0.7,0.7-1.1,1.8-1.1,2.8v2.5c2.9,0,5.8,0.6,8.5,1.6
		C-16.8,427.3-15.1,430.1-15.1,434.1z"/>
</g>
</svg>
