<?xml version="1.0" encoding="utf-8"?>
<!-- Generator: Adobe Illustrator 19.1.0, SVG Export Plug-In . SVG Version: 6.00 Build 0)  -->
<svg version="1.1" id="Calque_1" xmlns="http://www.w3.org/2000/svg" xmlns:xlink="http://www.w3.org/1999/xlink" x="0px" y="0px"
	 viewBox="158.5 324.8 293.8 98.9" style="enable-background:new 158.5 324.8 293.8 98.9;" xml:space="preserve">
<style type="text/css">
	.st0{fill:none;}
	.st1{fill:#FFFFFF;}
</style>
<g>
	<rect x="174.5" y="345.5" class="st0" width="368.2" height="55.4"/>
	<path class="st1" d="M183.4,378.9h6.9v5.8h-12.8v-39.2h5.9v11.9c1.2-0.7,2.4-1.2,3.8-1.5l2.8-0.9l1.6,5.7l-2.9,0.7
		c-1.9,0.6-3.2,1.4-4.1,2.5c-0.8,1.1-1.3,2.6-1.3,4.5v10.5H183.4z"/>
	<path class="st1" d="M200.3,378.9h13.3v5.8h-19.1v-19.2c0-3.8,1.9-7,5.1-8.6c1.4-0.8,3.1-1.3,4.8-1.3c2.1,0,4.1,0.7,5.8,1.9
		c0.9,0.6,1.6,1.3,2.3,2.3c1.2,1.8,1.8,3.7,1.8,5.8c0,2.6-1,5.1-2.9,7c-1.8,1.9-4.3,2.9-6.9,2.9c-1.4,0-2.8-0.3-4.1-0.9v4.3H200.3z
		 M200.4,365.7c0,2.3,1.8,4.1,4,4.1s4-1.9,4-4.1c0-2.3-1.8-4.1-4-4.1S200.4,363.4,200.4,365.7z"/>
	<path class="st1" d="M240.8,355.7v29H235v-23.1c-3.6,0.3-6.1,1.2-7.5,2.6c-1.1,1.2-1.6,2.6-1.6,4.8v15.6H220V356h5.8v2.3
		c3-1.7,7-2.6,12-2.6L240.8,355.7L240.8,355.7z"/>
	<path class="st1" d="M267.9,345.5V371c0,1.7-0.2,3.4-0.7,4.8c-0.6,1.7-1.5,3.2-2.8,4.5c-3,3-8,4.5-14.6,4.5h-3v-29H262v-10.3H267.9
		z M260.4,375.9c0.7-0.7,1.6-2,1.6-4.9v-9.5h-9.3v17.3C256.3,378.5,258.9,377.5,260.4,375.9z"/>
	<path class="st1" d="M279.2,378.9h13.3v5.8h-19.1v-19.2c0-3.8,1.9-7,5.1-8.6c1.4-0.8,3.1-1.3,4.8-1.3c2.1,0,4.1,0.7,5.8,1.9
		c0.9,0.6,1.6,1.3,2.3,2.3c1.2,1.8,1.8,3.7,1.8,5.8c0,2.6-1,5.1-2.9,7c-1.8,1.9-4.3,2.9-6.9,2.9c-1.4,0-2.8-0.3-4.1-0.9L279.2,378.9
		L279.2,378.9z M279.3,365.7c0,2.3,1.8,4.1,4,4.1s4-1.9,4-4.1c0-2.3-1.8-4.1-4-4.1C281.1,361.6,279.3,363.4,279.3,365.7z"/>
	<path class="st1" d="M317.8,360.6l0.4,0.7l-5.3,2.8l-0.3-0.8c-0.4-0.7-1.2-1.6-3.5-1.6c-1.9,0-4,1.3-4,5.6v17.4h-6v-17.3
		c0-7.7,3.9-11.7,10-11.7C313,355.7,316.1,357.4,317.8,360.6z"/>
	<path class="st1" d="M341.5,355.7v29h-5.8v-23.1c-3.6,0.3-6.1,1.2-7.5,2.6c-1.1,1.2-1.6,2.6-1.6,4.8v15.6h-5.8V356h5.8v2.3
		c3-1.7,7-2.6,12-2.6L341.5,355.7L341.5,355.7z"/>
	<path class="st1" d="M353.2,378.9h13.3v5.8h-19.1v-19.2c0-3.8,1.9-7,5.1-8.6c1.4-0.8,3.1-1.3,4.8-1.3c2.1,0,4.1,0.7,5.8,1.9
		c0.9,0.6,1.6,1.3,2.3,2.3c1.2,1.8,1.8,3.7,1.8,5.8c0,2.6-1,5.1-2.9,7c-1.8,1.9-4.3,2.9-6.9,2.9c-1.4,0-2.8-0.3-4.1-0.9L353.2,378.9
		L353.2,378.9z M353.3,365.7c0,2.3,1.8,4.1,4,4.1s4-1.9,4-4.1c0-2.3-1.8-4.1-4-4.1C355.1,361.6,353.3,363.4,353.3,365.7z"/>
	<path class="st1" d="M392.3,378v6.8h-19.4v-5.9h13.6V378c0-1.6-0.4-2.4-1.6-3c-1.6-0.8-4.4-1.2-8.9-1.2h-2.9v-8.4
		c0-5.7,4.1-9.7,9.8-9.7c2,0,3.7,0.4,5.2,1.3c1.5,0.8,2.6,2,3.5,3.6l1.4,2.6l-5.2,2.7l-1.4-2.6c-0.8-1.6-2.8-1.6-3.5-1.6
		c-1.2,0-2.2,0.4-2.9,1c-0.7,0.7-1.1,1.6-1.1,2.8v2.5c2.7,0.1,5.9,0.4,8.5,1.6C390.7,371.2,392.3,374,392.3,378z"/>
	<path class="st1" d="M418,378v6.8h-19.4v-5.9h13.6V378c0-1.6-0.4-2.4-1.6-3c-1.6-0.8-4.4-1.2-8.9-1.2h-2.9v-8.4
		c0-5.7,4.1-9.7,9.8-9.7c2,0,3.7,0.4,5.2,1.3c1.5,0.8,2.6,2,3.5,3.6l1.4,2.6l-5.2,2.7l-1.4-2.6c-0.8-1.6-2.8-1.6-3.5-1.6
		c-1.2,0-2.2,0.4-2.9,1c-0.7,0.7-1.1,1.6-1.1,2.8v2.5c2.7,0.1,5.9,0.4,8.5,1.6C416.4,371.2,418,374,418,378z"/>
</g>
</svg>
