<?xml version="1.0" encoding="utf-8"?>
<!-- Generator: Adobe Illustrator 21.1.0, SVG Export Plug-In . SVG Version: 6.00 Build 0)  -->
<svg version="1.1" id="Calque_1" xmlns="http://www.w3.org/2000/svg" xmlns:xlink="http://www.w3.org/1999/xlink" x="0px" y="0px"
	 viewBox="0 0 841.9 595.3" style="enable-background:new 0 0 841.9 595.3;" xml:space="preserve">
<style type="text/css">
	.st0{fill:#0000FF;}
</style>
<path class="st0" d="M46.6,264.2c0.2,3.3,1,6.5,2.2,9.5c2.4,5.9,6.1,10.3,9.7,13.7c3.7,3.4,7.4,6,11.1,8.2
	c7.5,4.4,14.8,7.5,22.2,10.1s14.7,4.7,22,6.6c14.6,3.8,29.2,6.4,43.7,8.9c14.5,2.4,29,4.3,43.4,6.1c14.5,1.7,28.9,3.3,43.2,4.8
	s28.7,3.1,42.7,4.9c7,1,14,2,20.5,3.5c2.2,0.5,4.4,1,6.3,1.6c-1.9,1.3-4.2,2.6-6.5,3.7c-5.9,2.9-12.5,5.4-19.2,7.9
	c-13.4,4.9-27.3,9.5-41.1,15.4c-6.9,3-13.7,6.2-20.3,10.6c-3.3,2.2-6.5,4.7-9.4,7.8c-2.9,3.1-5.5,7-6.8,11.6
	c-0.6,2.3-0.9,4.7-0.7,7.1c0.1,2.4,0.7,4.8,1.7,7c1.9,4.4,5,7.6,8.2,10.2s6.6,4.5,10.1,6.2s7,3,10.5,4.2c7.1,2.4,14.3,4.2,21.5,5.6
	c7.2,1.5,14.4,2.6,21.6,3.6c14.5,1.9,28.9,3.1,43.4,3.9c14.5,0.7,29,1.2,43.5,1.2s29-0.2,43.5-1c14.5-1,28.9-2.4,43.3-3.8
	c14.4-1.3,28.8-2.9,43.2-4.6c28.8-3.5,57.5-7.3,86.1-13.8c7.1-1.7,14.3-3.5,21.4-5.8c7.1-2.4,14.2-5,21.1-9.5c1.7-1.1,3.4-2.5,5.1-4
	c1.6-1.7,3.2-3.6,4.4-6.2c1.2-2.5,1.5-6.1,1.3-8.3c-0.2-2.5-0.9-5.2-2.2-7.6s-3.1-4.5-5.1-6.1s-4-2.8-6.1-3.7
	c-4.1-1.9-8-2.9-11.9-3.7c-7.7-1.6-15.2-2.2-22.5-2.7l-21.7-1.5c-7.1-0.5-14.1-1.2-20.7-2.3c-6.7-1.1-13.1-2.7-18.6-5.1
	s-9.7-5.5-12-9.3c-0.1-0.1-0.2-0.3-0.3-0.4c0.2-0.1,0.3-0.2,0.5-0.3c1.9-0.9,4.8-1.9,7.7-2.6c3-0.8,6.2-1.4,9.5-1.9
	c6.6-1.1,13.5-1.8,20.4-2.4c13.9-1.1,28.2-1.6,42.5-1.9c14.3-0.4,28.7-0.5,43.1-0.6c14.4-0.2,28.9-0.2,43.5-0.5s29.2-0.7,44.2-1.7
	c7.5-0.6,15.1-1.2,23.4-2.7c2.1-0.4,4.2-0.8,6.5-1.5c1.2-0.4,2.3-0.6,3.7-1.1l2-0.7l2.3-1l1.1-0.5l1.4-0.8l1.4-0.8
	c0.4-0.2,1-0.7,1.6-1.1c0.6-0.5,1.1-0.9,1.7-1.4c0.5-0.4,1.1-1,1.8-1.9c0.7-0.8,1.3-1.7,1.8-2.6c0.7-1,0.8-1.5,1.1-2l0.7-1.6
	c0.2-0.6,0.4-1.2,0.7-1.8c0.4-1.2,0.7-2.7,0.9-4c0.4-2.9,0.3-6.1-0.5-9.1c-1.5-5.9-4.7-9.7-7.3-12.3c-2.7-2.6-5.1-4.3-7.4-5.7
	c-4.6-2.7-8.8-4.4-12.8-5.9c-8.1-2.9-15.7-4.7-23.3-6.3c-12.3-2.5-24.4-4.2-36.4-5.4c7.7-3,15.5-6.1,23.1-9.5
	c13.8-6.2,27.5-12.9,40.9-22.4c6.6-4.8,13.3-10.3,19.2-18.2c2.9-3.9,5.6-8.5,7.4-14c0.9-2.7,1.5-5.7,1.8-8.7
	c0.1-0.8,0.1-1.5,0.1-2.3v-1.1c0-0.2,0-1.3-0.1-1.9c-0.1-1.4-0.3-2.8-0.7-4c-0.3-1.3-0.7-2.5-1.2-3.6c-1.9-4.4-4.5-7.2-6.7-9.4
	c-2.3-2.1-4.5-3.7-6.6-5c-4.2-2.7-8.1-4.5-12-6.1c-7.7-3.2-15.1-5.4-22.5-7.4c-14.7-3.9-29.3-6.7-43.9-9.2
	c-14.6-2.4-29.1-4.4-43.6-6.1c-29.1-3.3-58.1-5.9-87.2-7.5c-14.5-0.8-29.1-1.5-43.6-2.1c-14.5-0.5-29.1-0.9-43.6-1.1
	c-29.1-0.5-58.1-0.5-87.2,0c-58.1,1.2-116.2,3.7-174.1,11.1c-14.5,2-28.9,4.4-43.3,8.1c-7.2,1.9-14.3,4-21.4,7.3
	c-3.5,1.7-7,3.6-10.3,6.5c-1.6,1.5-3.2,3.2-4.5,5.5c-0.6,1.2-1.1,2.4-1.4,3.8c-0.2,0.7-0.2,1.4-0.3,2c0,0.3-0.1,0.7,0,1v0.8
	c0.1,4.2,1,8.5,2.8,12.3c1.7,3.9,4.2,7.3,7,10.3c5.6,5.9,12.4,9.9,19.2,13.3c13.7,6.5,28.1,10.3,42.3,13.5
	c28.6,6.4,57.6,9.8,85.3,16c6.9,1.6,13.7,3.4,19.7,5.9c2.9,1.2,5.7,2.8,7.2,4.2c0.1,0.1,0.2,0.2,0.3,0.3c-0.4,0.1-0.9,0.3-1.4,0.4
	c-0.6,0.2-1.3,0.3-2.1,0.4c-2.9,0.4-6.3,0.5-9.6,0.5c-6.8-0.1-13.8-0.6-20.8-1.4c-14.1-1.5-28.3-3.6-42.6-5.8l-42.9-6.6
	c-14.4-2.2-28.8-4.1-43.4-5.7c-14.6-1.6-29.4-2.9-44.6-2.9c-7.6,0-15.4,0.3-23.5,1.4c-4,0.5-8.2,1.4-12.6,2.7
	c-4.3,1.3-9,3.1-13.8,6.4c-1.2,0.8-2.4,1.9-3.6,2.9c-1.2,1.1-2.3,2.4-3.4,3.7c-1,1.5-2,2.9-2.8,4.5c-0.7,1.6-1.5,3.3-1.9,5
	c-0.2,0.9-0.4,1.7-0.6,2.6c-0.2,0.9-0.2,1.7-0.3,2.5s-0.1,1.7-0.2,2.5C46.6,262.6,46.6,263.4,46.6,264.2z M317.1,339.2
	C317.3,338.7,317.4,338.8,317.1,339.2L317.1,339.2z M517.4,346.4c0.1,0.1,0.1,0.2,0.1,0.3c0,0,0,0.1,0,0.2l-0.2-0.4L517.4,346.4
	C517.4,346.5,517.4,346.4,517.4,346.4z M753.3,299.9L753.3,299.9C753.3,300,753.3,299.9,753.3,299.9L753.3,299.9z M757,193.6
	C757.2,193.8,757.2,193.8,757,193.6L757,193.6z M317.3,249.7C317.3,249.7,317.4,249.7,317.3,249.7c-0.1,0.1,0,0.2,0,0.1
	c0-0.1,0-0.2,0-0.3C317.3,249.6,317.3,249.7,317.3,249.7z M74.5,261.3c0.1-0.1,0.2-0.2,0.3-0.3c0.2-0.1,0.3-0.3,0.6-0.6
	c1.1-0.9,3.2-1.9,5.8-2.7c2.6-0.8,5.5-1.5,8.6-2c6.2-1.1,12.9-1.6,19.8-1.8c13.7-0.4,27.9,0.1,42.1,1c14.2,0.9,28.5,2.3,42.9,3.6
	c28.7,2.6,57.5,6.1,86.9,7.6c7.4,0.3,14.8,0.5,22.5,0.2c3.9-0.2,7.8-0.5,12-1.4c1-0.2,2.1-0.4,3.2-0.8c1.1-0.3,2.3-0.7,3.5-1.2
	c0.6-0.2,1.2-0.6,1.9-0.9c0.7-0.4,1.2-0.6,2-1.2c0.7-0.6,1.4-1,2-1.7c0.7-0.8,1.4-1.6,1.9-2.5c0.5-1,1-2.1,1.3-3.2
	c0.2-1.1,0.4-2.2,0.4-3.3c0-0.9-0.1-1.8-0.2-2.6c-0.1-0.9-0.4-1.7-0.7-2.5c-1.2-3.3-3.3-5.6-5.3-7.3c-4-3.3-7.9-4.9-11.7-6.4
	c-7.6-2.7-14.9-4.2-22.2-5.5c-14.6-2.6-28.9-4.4-43.3-6.3c-14.3-2-28.5-4-42.5-6.9c-13.9-2.9-27.9-6.4-40.3-12.3
	c-6.2-3-12.1-6.5-16.4-11.1c-4.4-4.6-7-10.2-7.1-16.3c-0.7-3.7,5-7.9,11-10.6c6.1-2.8,12.9-4.8,19.7-6.5c13.7-3.4,27.9-5.4,42.2-7
	s28.6-2.7,43-3.6c14.4-0.8,28.8-1.2,43.2-1.5c28.8-0.6,57.7-0.1,86.5,0.7c28.8,0.9,57.6,2.3,86.4,4.2c14.4,0.9,28.7,2,43.1,3.2
	c14.4,1.1,28.7,2.4,43,3.8c28.6,2.9,57.2,5.9,85.5,10c14.2,2.1,28.3,4.3,42.2,6.9c13.9,2.6,27.7,5.6,40.9,9.4
	c6.5,1.9,12.9,4.1,18.6,6.5c2.8,1.2,5.4,2.6,7.3,3.9c0.2,0.1,0.4,0.3,0.6,0.4c0,0.1,0,0.1-0.1,0.2c-0.5,1.4-1.5,3.1-2.9,5
	c-2.9,3.7-7.5,7.6-12.6,11.2c-10.3,7.1-22.8,13.2-35.5,18.6c-12.8,5.4-26,10.2-39.5,14.7c-13.5,4.6-27.1,8.6-41.3,13.4
	c-3.6,1.2-7.1,2.4-11.4,4.3c-1.1,0.5-2.3,1-3.8,1.8c-0.7,0.4-1.7,0.9-2.9,1.8c-0.7,0.5-1.5,1.1-2.6,2.2c-1,1.2-2.8,2.7-4.6,7.5
	c-2.4,4.9,0.8,15.2,4,17.2c3.2,3.2,4.7,3.4,6,4.2c2.5,1.1,3.7,1.2,4.7,1.5c2.1,0.4,3.4,0.5,4.7,0.6c4.9,0.4,8.7,0.3,12.1,0.3
	l10.6,0.2c14.1,0.4,28.2,1.1,42.2,2.3c13.7,1.2,27.3,2.9,40.3,5.4c-12.5,1-25.4,1.6-38.2,2.1l-43.3,1.7c-29,1.3-58.1,2.6-87.7,6.5
	c-7.4,1-14.9,2.3-22.5,4c-3.8,0.9-7.6,1.8-11.6,3.2c-4,1.3-8,2.8-12.4,5.4c-1.1,0.7-2.2,1.3-3.4,2.2c-0.6,0.4-1.1,0.8-1.7,1.4
	s-1.2,1.1-1.8,1.7c-0.6,0.5-1.2,1.3-1.8,2.1c-0.6,0.8-1.1,1.4-1.6,2.4s-1,1.9-1.4,2.9c-0.4,1.1-0.7,2.2-0.9,3.3
	c-0.3,1.1-0.3,2.3-0.3,3.4s0.1,2.3,0.3,3.2c0.2,1,0.4,2,0.7,3c0.3,0.8,0.6,1.6,1,2.4l0.5,1.2l0.5,0.8l0.9,1.6c0.7,1,1.4,2.1,2.1,3.1
	c3.1,4,6.8,7.3,10.7,9.8c3.9,2.5,8,4.4,12,5.8c8.1,2.8,16,4,23.6,4.7c7.7,0.7,15.2,0.8,22.5,0.8l21.7-0.2c7.1,0,14.1,0.1,20.7,0.9
	c3.2,0.4,6.4,1.1,9,2c2.6,1,4.4,2.2,5.4,3.6c1,1.2,1.4,4.2,1,5c-0.2,0.8-0.9,1.7-1.7,2.7c-0.9,1-2,2-3.2,2.9
	c-5,3.8-11.4,6.8-17.9,9.4s-13.3,4.8-20.2,6.8c-13.7,4-27.8,7.2-41.9,10c-14.1,2.9-28.4,5.2-42.7,7.4c-28.6,4.3-57.4,7.5-86.1,9.8
	c-28.8,1.5-57.8,1.1-86.5-1.3c-14.4-1.2-28.7-2.8-42.8-5.4c-14.1-2.5-28.2-5.7-41.2-11c-6.4-2.6-12.7-5.8-17.4-10
	c-2.3-2.1-4.1-4.5-4.9-6.8c-0.4-1.2-0.6-2.4-0.6-3.6s0.2-2.5,0.6-3.6c1.7-4.7,6.7-8.8,12.4-12.1c5.7-3.3,12.2-5.8,18.8-8.1
	c13.3-4.6,27.2-8.1,41.3-12.1c7.1-2,14.2-4.1,21.5-7.1c3.7-1.5,7.4-3.2,11.3-5.7c2-1.3,4-2.8,6-5s4.1-5.4,4.9-9.6
	c0.1-0.5,0.1-1,0.2-1.6c0-0.6,0.1-0.9,0.1-1.7c0-1.9-0.5-3.8-1.2-5.2c-1.4-3-3-4.6-4.4-5.8c-1.4-1.2-2.6-2-3.8-2.7
	c-1.2-0.7-2.3-1.2-3.3-1.7c-4.2-1.9-8-3.1-11.8-4.2c-7.5-2.2-14.8-3.7-22-5.2c-14.5-2.9-28.9-5.1-43.2-7.4l-42.8-6.5
	c-14.2-2.1-28.4-4.4-42.4-7c-14-2.5-27.9-5.4-41.3-8.8c-6.7-1.7-13.3-3.7-19.6-5.9c-6.3-2.2-12.3-4.8-17.3-7.7
	c-2.5-1.4-4.7-3-6.4-4.5c-1.7-1.5-2.6-2.9-2.9-3.7c-0.2-0.4-0.3-0.7-0.3-1c0-0.1,0-0.2,0-0.3c0-0.1,0-0.1,0-0.2s-0.1-0.2,0-0.2l0,0
	C74.5,261.3,74.5,261.4,74.5,261.3z"/>
</svg>
