<?xml version="1.0" encoding="utf-8"?>
<!-- Generator: Adobe Illustrator 21.1.0, SVG Export Plug-In . SVG Version: 6.00 Build 0)  -->
<svg version="1.1" id="Calque_1" xmlns="http://www.w3.org/2000/svg" xmlns:xlink="http://www.w3.org/1999/xlink" x="0px" y="0px"
	 viewBox="0 0 841.9 595.3" style="enable-background:new 0 0 841.9 595.3;" xml:space="preserve">
<style type="text/css">
	.st0{fill:#0000FF;}
</style>
<path class="st0" d="M756.3,351.1c0-1.6-0.2-3.3-0.5-4.8c-0.3-1.6-0.8-2.9-1.2-4.3c-0.5-1.3-1.1-2.6-1.7-3.7
	c-2.6-4.6-5.7-8-8.8-10.7s-6.3-4.9-9.4-6.8c-6.3-3.7-12.6-6.3-18.8-8.5s-12.4-3.8-18.6-5.1c-12.3-2.7-24.5-4.2-36.6-5.2
	c-6.1-0.5-12.1-0.8-18.1-1c-5.9-0.2-12.3-0.2-17.5-0.2c-10.9-0.1-21.7-0.9-32.5-2c-10.7-1.1-21.4-2.9-31.7-5.2
	c-10.3-2.4-20.4-5.2-29.7-8.9c-8.7-3.5-17-7.9-22.6-12.8c4.1,0.5,8.5,1.2,12.8,1.9c10.9,1.9,22.1,4.1,33.4,6.2
	c22.7,4.3,45.7,8.6,69.8,10.4c12.1,0.9,24.4,1.2,37.2-0.1c6.4-0.7,13-1.8,19.6-3.8s13.3-4.9,19.4-9.3c3.1-2.1,5.9-4.7,8.4-7.5
	c2.4-2.9,4.6-5.9,6.3-9.2c3.4-6.5,5-13.2,5.5-19.6c0.6-6.5-0.2-12.5-0.9-18.5l-2-8.9c-0.9-2.9-2-5.8-3-8.6
	c-4.5-11.3-11.3-21.5-19.1-30.4c-7.8-9-16.7-16.8-26.2-23.6c-18.9-13.9-39.8-24.4-61-33.4c-10.7-4.5-21.5-8.6-32.5-12.2
	c-10.9-3.7-22-7.1-33.1-10.1c-22.3-5.9-45-10.8-68.2-13.8c-5.8-0.7-11.7-1.2-17.6-1.6c-5.9-0.3-12.2-0.2-18.3,0.7
	c-6.1,1-12,2.7-17.6,4.7c-5.6,2.1-11,4.7-16.1,7.4c-10.2,5.6-19.8,11.9-29,18.4c-9.3,6.4-18.3,12.9-27.7,18.8
	c-9.3,6-18.8,11.4-28.6,15.8c-9.8,4.5-20,7.6-30.4,9.4c-2.6,0.4-5.2,0.7-7.8,1c-2.6,0.1-5.2,0.4-7.8,0.3l-8.3-0.1l-4.5-0.1l-4.5,0.1
	c-12.1,0.3-24.1,1.4-36,3.3c-11.9,1.9-23.6,4.8-35.1,8.3c-11.5,3.6-22.8,7.8-33.7,13.1s-21.5,11.4-31.2,19
	c-9.8,7.5-18.9,16.4-26,27.4c-3.6,5.5-6.4,11.6-8.3,18.2c-1,3.3-1.6,6.7-2,10.1l-0.3,5.2c0,1.6,0,2.9,0,4.4
	c0.3,11.5,1.7,23.6,6.2,35.7c2.3,6,5.4,12,9.4,17.5s9,10.5,14.4,14.6c5.4,4.2,11.3,7.5,17.3,10.2c6,2.8,12.1,4.9,18.2,6.6
	c12.2,3.5,24.4,5.3,36.4,6.5s24,1.5,35.8,1.5h4.4h2.2h1.1h0.9l7.3,0.2l7.3,1c1.2,0.1,2.4,0.4,3.6,0.7l3.6,0.9
	c9.5,2.5,18.6,6.9,27.2,12.4c2.1,1.5,4.3,2.8,6.3,4.4l6.1,4.8l5.8,5.2c1.9,1.7,3.7,3.7,5.6,5.5c7.3,7.5,14,15.6,20.2,24.2
	c12.2,17.3,22.9,35.8,32,55.2c4.6,9.6,9,19.4,12.9,29.4c2,5,4,10,5.8,15l2.7,7.6l1.3,3.8l0.6,1.9l0.3,0.9l0.2,0.6
	c0.1,0.8,1.4,1.6,1.9,1.6c0.3-0.6,1-1.4,1.4-2.5l0,0l0,0c0-0.1,0.1-0.1,0.1-0.2c0.2-0.6,0.2-1.2,0.3-1.7l0.1-1.1l0.3-4
	c0.2-2.6,0.5-5.3,0.8-7.9c0.7-5.2,1.5-10.4,2.7-15.5c2.2-10.2,5.5-20.2,10.1-29.4c9-18.7,24.1-33.8,42.6-43.6
	c9.2-4.9,19.3-8.4,29.7-11c10.4-2.5,21.1-4.3,32-4.9c2.7-0.3,5.4-0.4,8.2-0.4c2.7-0.1,5.5-0.2,8.2-0.2l8.3,0.1h4.2l4.4,0.1
	c11.6,0.4,23.3,0.2,35,0.1c23.4-0.5,46.9-1.9,70.3-4.9c11.7-1.6,23.5-3.5,35.2-6.1s23.4-5.6,35.1-9.8c5.8-2.1,11.7-4.4,17.5-7.3
	c5.9-3,11.7-6.2,17.9-11.6c0.7-0.6,1.6-1.4,2.3-2.3l1.2-1.2c0.4-0.4,0.8-1,1.2-1.5l1.2-1.6c0.4-0.5,0.8-1.3,1.2-1.9
	c0.4-0.7,0.8-1.3,1.1-2.1c0.4-0.9,0.7-1.8,1-2.7l0.4-1.4c0.1-0.6,0.2-1.2,0.3-1.8c0.1-0.6,0.2-1.2,0.2-1.8
	C756.2,352.3,756.3,351.5,756.3,351.1z M698.2,361.7c-9.6,3.9-20,7-30.5,9.7c-10.6,2.7-21.4,4.9-32.3,6.8c-10.9,1.9-22,3.5-33.1,4.8
	s-22.4,2.3-33.6,3.1c-11.3,0.7-22.6,1.3-33.9,1.7l-4.2,0.2l-4.5,0.2l-9,0.5c-3,0.2-6,0.5-9,0.8s-6,0.6-9,1
	c-23.8,3.2-47.8,10-68.4,23c-10.2,6.5-19.4,14.4-26.8,23.5c-7.5,9.1-13,19.3-17,29.8c-1.1,2.6-1.8,5.3-2.7,8c-0.7,2.7-1.5,5.4-2,8.1
	c-1.2,5.4-2,10.8-2.5,16.3c-0.4,3.9-0.6,7.9-0.7,11.8c-0.9-3.8-1.8-7.6-2.8-11.4c-2.8-10.4-5.9-20.8-9.5-31.1
	c-7.2-20.5-16.1-40.7-27.7-60c-5.8-9.6-12.3-18.9-19.8-27.8c-7.4-8.9-15.9-17.2-25.8-24.5c-9.8-7.3-21.1-13.3-33.4-17.3l-4.7-1.4
	c-1.6-0.4-3.1-1-4.7-1.2c-3.2-0.6-6.5-1.2-9.7-1.7l-9.9-0.7l-1.2-0.1h-1l-2.1-0.1l-4.2-0.1c-11.1-0.4-22.2-1.2-33-2.5
	c-10.8-1.4-21.3-3.4-31-6.4c-4.9-1.5-9.5-3.2-13.7-5.3c-4.3-2.1-8.2-4.4-11.5-7.1c-6.7-5.4-11.4-12-14.3-20.1s-4-17.5-4.2-27.2
	c0-1.2-0.1-2.5,0-3.6c0.1-0.9,0.1-1.8,0.2-2.8c0.3-1.9,0.5-3.7,1.1-5.6c1.1-3.7,2.7-7.5,5-11.2c4.6-7.4,11.3-14.4,19-20.7
	s16.5-11.9,25.7-16.9c18.4-10.1,39-17.6,60.1-22.6c10.6-2.5,21.4-4.3,32.2-5.3l4.1-0.4l4.1-0.2l9-0.6c3.1-0.2,6.2-0.7,9.4-1.1
	c3.1-0.6,6.2-1.1,9.2-1.8c12.1-2.9,23.5-7.5,33.9-13.1c10.5-5.6,20.2-12,29.3-18.7c18.4-13.3,35.2-27.9,54-38.9
	c4.7-2.7,9.6-5.1,14.5-7.1c5-2,10.1-3.4,15.3-4.3c10.3-1.6,21.6-0.6,32.8,0.8c11.2,1.4,22.3,3.5,33.4,5.9c11.1,2.4,22,5.4,32.8,8.6
	s21.5,6.9,32,10.8c10.5,4,20.7,8.5,30.8,13.2s19.7,10.1,29,15.8c9.4,5.7,18.1,12,26.3,18.8s15.5,14.2,21.6,22.2s10.9,16.6,13.7,25.5
	c0.6,2.3,1.3,4.5,1.8,6.7l1,6.8c0.1,4.6,0.4,9.2-0.3,13.4c-0.6,4.2-1.8,7.9-3.7,11c-1.8,3.1-4.3,5.5-7.4,7.5
	c-6.3,4-15.7,6.1-25.6,6.8c-10,0.7-20.8,0.1-31.6-1c-21.6-2.4-43.6-6.9-65.8-11.7c-11.1-2.4-22.3-4.9-33.9-7.2
	c-5.8-1.1-11.7-2.2-18.1-3c-3.1-0.4-6.5-0.7-10.1-0.9l-2.8-0.1c-1,0-2,0-3.1,0.1c-1,0-2.3,0.2-3.4,0.3s-2.6,0.4-3.9,0.6
	c-0.6,0.1-1.6,0.4-2.3,0.6c-0.8,0.3-1.5,0.4-2.5,0.8c-2,0.9-3.7,1.6-6,3.4c-2,1.4-4.3,4-5.6,6.6c-0.7,1.3-1.2,2.7-1.7,4.1
	c-0.3,1.3-0.5,2.5-0.6,3.7c-0.1,0.6-0.1,1.4-0.1,1.7v0.8l0.1,1.7c0.1,1.1,0.1,2.2,0.4,3.3c0.2,1.1,0.4,2.2,0.6,3.3
	c0.3,1.1,0.6,2.1,1,3.1c2.8,8.3,7.9,14.6,13.1,19.6c5.3,5.1,10.9,9,16.6,12.4s11.5,6.2,17.3,8.7c23.4,9.8,47.4,14.8,71.5,17.7
	c12.1,1.4,24.2,2.1,36.3,2.3c6.3,0.1,11.4,0,17,0.2c5.5,0.1,10.9,0.4,16.3,0.7c10.8,0.7,21.4,1.9,31.5,4c5,1,9.9,2.3,14.5,3.7
	c4.6,1.4,8.8,3.2,12.3,5.1c1.4,0.8,2.6,1.6,3.6,2.3c-2.1,1.6-4.9,3.3-7.7,4.9C707.7,357.7,703,359.8,698.2,361.7z M494.6,271.2
	L494.6,271.2c-0.1,0-0.2,0-0.2,0S494.5,271.2,494.6,271.2z M722.8,347.8C722.8,347.8,722.8,347.7,722.8,347.8
	c0.1-0.1,0.1-0.2,0.1-0.2C722.9,347.6,722.9,347.6,722.8,347.8L722.8,347.8z M722.9,347.6C722.9,347.5,723,347.5,722.9,347.6
	C722.9,347.5,722.9,347.5,722.9,347.6z"/>
</svg>
