<?xml version="1.0" encoding="utf-8"?>
<!-- Generator: Adobe Illustrator 21.1.0, SVG Export Plug-In . SVG Version: 6.00 Build 0)  -->
<svg version="1.1" id="Calque_1" xmlns="http://www.w3.org/2000/svg" xmlns:xlink="http://www.w3.org/1999/xlink" x="0px" y="0px"
	 viewBox="0 0 841.9 595.3" style="enable-background:new 0 0 841.9 595.3;" xml:space="preserve">
<style type="text/css">
	.st0{fill:#0000FF;}
</style>
<g>
	<path class="st0" d="M782.2,356.8C782.2,356.6,782.8,357.2,782.2,356.8L782.2,356.8z"/>
	<path class="st0" d="M125.5,382.1c10.5,2.8,21.1,4.1,31.5,4.4c20.9,0.6,41.1-2.6,60.7-8.1c9.8-2.8,19.5-6.2,29.1-10.6
		c2.4-1.1,4.8-2.2,7.2-3.5l3.6-1.9c1.2-0.7,2.4-1.4,3.6-2.1c2.4-1.4,4.8-3.1,7.2-4.8l0.9-0.6l0.5-0.4l1-0.7c0.6-0.4,1.3-1,1.9-1.2
		c2.5-1.5,4.6-2.1,6.4-2.2s3.8,0.2,6.3,1.1c5.1,1.9,11.7,6.7,18.1,12.4c6.5,5.7,13,12.3,19.8,19c6.9,6.7,14,13.5,21.6,20.1
		s15.8,12.9,24.7,18.6c4.5,2.8,9.1,5.5,13.9,7.9l3.6,1.8l0.9,0.5l1.2,0.5l2.4,1c1.6,0.6,3.3,1.1,5,1.7c1.7,0.4,3.5,0.9,5.2,1.2
		c7.1,1.2,14.8,1,21.5-0.8c6.8-1.7,12.9-4.6,18.1-7.9c10.4-6.6,18.1-14.6,24.9-22.6c13.5-16,23.6-32.8,33.5-48.7
		c5-7.9,9.9-15.8,14.9-22.5c2.5-3.3,5.1-6.4,7.3-8.4c0.2-0.2,0.4-0.3,0.5-0.5l1.9,2.1l9.3,10.7c3.2,3.7,6.7,7.4,10.2,11.1
		c3.7,3.6,7.4,7.2,11.5,10.5c8.1,6.7,17.1,12.5,26.8,16.8c9.6,4.4,19.7,7.4,29.7,9.3c10.1,2,20.1,2.9,30.1,3c5,0.2,9.9-0.2,14.9-0.3
		l7.4-0.6c2.5-0.2,4.9-0.4,7.3-0.7c19.4-2.1,38.3-6.3,56.8-11.4c4.6-1.2,9.2-2.6,13.8-4.1c4.6-1.4,9.1-2.8,13.6-4.4l6.8-2.3l3.4-1.2
		c1.3-0.5,2.6-1,4-1.5c1.5-0.6,3-1.3,4.4-2.1l1.4-0.4l3.4-1.1l1.7-0.6l0.9-0.3l0.4-0.2V357c-0.2-0.1-0.6-0.4-1.2-0.9
		c0.9-0.5,1.9-0.9,2.8-1.3c-3.4-2.4-1.9-0.5-2.5-1.1l-0.4,0.1l-0.9,0.1l-1.7,0.3l-3.5,0.5l-7,0.9c-4.7,0.6-9.4,1.1-14.1,1.5
		c-9.4,0.9-18.7,1.5-28,1.7c-9.3,0.3-18.6,0.1-27.7-0.7c-9.1-0.8-18.1-2.1-26.4-4.5c-8.3-2.3-16.2-5.7-22.1-10.4
		c-6-4.7-9.7-10.5-11.3-17.5c-1.7-6.9-1.3-14.9,0.4-22.9l0.7-3l0.8-3.1l0.9-3.4l0.9-3.7c1.4-4.9,2.2-10.1,3-15.3
		c1.3-10.5,1.5-21.5-0.8-32.7c-2.2-11.2-7.3-22.5-15.2-31.7c-1.8-2.4-4.2-4.3-6.3-6.4c-2.2-2-4.6-3.7-7-5.5c-2.5-1.6-5-3.1-7.5-4.5
		c-2.6-1.2-5.2-2.6-7.8-3.6c-10.6-4.3-21.5-6.3-32.2-7c-21.5-1.4-42.4,2.3-61.9,9.7c-9.8,3.7-19.3,8.4-28.1,14.3
		c-2.2,1.5-4.4,3-6.6,4.6l-3.2,2.5c-1.1,0.8-2.2,1.7-2.9,2.3c-3.1,2.7-6.7,5.3-10.2,7.8c-7.2,4.9-14.8,9.7-22.7,13.7
		c-7.9,4.1-16.1,7.6-24.4,10.5s-16.8,5.1-25.2,6c-4.2,0.6-8.3,0.6-12.4,0.4c-4-0.4-8-0.8-11.7-2.1l-1.4-0.4l-1.3-0.6
		c-0.9-0.4-1.8-0.7-2.7-1.1c-1.6-1-3.4-1.7-4.9-2.9c-3.2-2.1-5.8-5-8.3-8.1c-1-1.7-2.4-3.2-3.2-5.1l-1.4-2.7
		c-0.5-0.9-0.8-1.9-1.2-2.9l-1.2-2.9l-0.9-3.1l-0.9-3.1l-1.1-4c-3.4-10.5-10-19.5-18-26.1c-7.9-6.8-17-11.5-26.2-15.1
		c-18.6-7.1-38.3-9.7-57.8-9.6c-19.5,0.2-38.9,3.1-57.6,8.9c-18.7,5.9-36.7,14.7-52.4,27c-15.6,12.4-29,28.5-37.5,47.1
		c-4.3,9.3-7.6,19.1-9.6,29l-1.4,7.5c-0.5,2.5-0.8,5-1.1,7.6c-0.3,2.6-0.6,5.1-0.8,7.7l-0.1,7.9c0.2,10.6,1.7,21.6,6.1,32.3
		c4.4,10.6,11.9,20.4,21.1,27.5C104.4,374.7,115,379.3,125.5,382.1z M521,322.9c-0.5-0.3-0.6-0.5-0.3-0.3
		C520.8,322.7,520.8,322.8,521,322.9z M111.3,345.7c-6-4.1-10.9-9.5-14.2-16.2c-3.4-6.7-5.3-14.6-6.1-22.9l-0.4-6.3
		c0-2.1,0.1-4.3,0.1-6.5c-0.1-4.3,0.7-8.7,1.1-13.2c1-8.7,3.1-17.2,6.2-25.5c3-8.2,7.1-16.1,12.1-23.3c4.9-7.3,10.9-14,17.6-20
		s14-11.3,21.9-15.9c7.9-4.5,16.2-8.4,24.9-11.4c8.6-3.1,17.6-5.4,26.7-7c9.1-1.6,18.3-2.4,27.5-2.5c4.6-0.1,9.2,0.1,13.8,0.4
		c4.6,0.4,9.1,0.9,13.7,1.7c9,1.5,17.9,4,26.2,7.4c8.3,3.5,16,8.2,22.3,14c6.2,5.9,10.9,13.1,12.7,20.9l1.4,6.7l0.8,3.8l1.1,3.8
		c0.4,1.3,0.7,2.5,1.2,3.8l1.6,3.7c0.9,2.5,2.5,4.8,3.8,7.2c5.8,9.4,14.9,17.4,25.4,21.5c5.2,2.3,10.6,3.5,15.9,4.5
		c5.3,0.7,10.7,1.2,16,1c10.6-0.2,20.8-1.9,30.6-4.3c19.8-5.1,38.3-13,55.7-23.6c4.3-2.7,8.6-5.6,12.8-8.8l5.2-3.8
		c1.7-1.2,3.5-2.2,5.2-3.4c7.1-4.3,14.8-7.9,22.8-10.8c16-5.7,33.2-8.8,49.6-8c16.3,0.9,32,5.8,41.1,16.1c4.6,5.1,8,11.4,9.8,18.7
		s2.1,15.5,1.6,23.8c-0.5,4.2-0.9,8.4-1.8,12.7l-0.6,3.2l-0.7,3.6l-0.8,3.9l-0.6,4c-0.7,5.3-1.1,10.8-0.9,16.4
		c0.3,5.6,1.1,11.4,3,17c1.8,5.6,4.6,11.1,8.3,15.9s8.1,8.8,12.9,11.9c6.8,4.4,13.9,7.3,21.1,9.3H657c-4.5-0.3-9.1-0.4-13.6-1
		c-4.5-0.4-8.9-1.1-13.3-1.8c-4.3-0.9-8.7-1.7-12.9-3c-16.9-4.7-31.8-12.8-44.1-24.4c-6.2-5.8-11.8-12.4-17.3-19.6L547,308l-2.3-3
		l-1.2-1.5c-0.6-0.7-1.3-1.5-2-2.2c-1.5-1.5-3.3-3-5.5-4.4s-4.9-2.5-7.9-3.2c-1.5-0.3-3-0.5-4.5-0.6c-1.4,0-3,0-4.3,0.2
		c-2.8,0.4-5.2,1.2-7.3,2.1c-4.2,1.8-7.2,4-9.7,6c-5,4.2-8.7,8.3-12.1,12.4c-6.7,8.2-12.2,16.2-17.6,24.1s-10.7,15.6-16,23
		s-10.7,14.5-16.4,20.8c-5.6,6.3-11.7,11.7-17.3,15.2c-2.8,1.7-5.5,2.8-7.9,3.4s-4.5,0.5-6.7,0.1c-0.6-0.1-1.1-0.3-1.7-0.4
		c-0.6-0.2-1.2-0.4-1.8-0.6l-0.9-0.4l-0.5-0.2l-0.7-0.3l-2.7-1.4c-3.7-1.8-7.2-4-10.8-6.2c-7.1-4.5-13.9-9.9-20.7-15.6
		c-13.7-11.4-26.3-24.9-42-38.2c-3.9-3.3-8.2-6.6-12.9-9.8c-4.7-3.1-10.2-6.2-16.6-8.4c-6.3-2.2-14-3.5-21.6-2.5
		c-7.6,0.9-14.6,3.7-20.1,7.2c-1.5,0.8-2.7,1.8-4,2.7l-3.4,2.5c-1.4,1.1-2.8,2.2-4.5,3.3c-0.8,0.5-1.6,1.1-2.5,1.6l-2.7,1.5
		c-1.7,1.1-3.6,2-5.5,2.9c-7.5,3.8-15.7,7-24,9.6c-8.3,2.7-16.9,4.8-25.5,6.3s-17.3,2.3-25.8,2.5
		C140.3,356.9,123.5,353.9,111.3,345.7z"/>
</g>
</svg>
