<?xml version="1.0" encoding="utf-8"?>
<!-- Generator: Adobe Illustrator 21.1.0, SVG Export Plug-In . SVG Version: 6.00 Build 0)  -->
<svg version="1.1" id="Calque_1" xmlns="http://www.w3.org/2000/svg" xmlns:xlink="http://www.w3.org/1999/xlink" x="0px" y="0px"
	 viewBox="0 0 841.9 595.3" style="enable-background:new 0 0 841.9 595.3;" xml:space="preserve">
<style type="text/css">
	.st0{fill:#0000FF;}
</style>
<path class="st0" d="M718.9,458.3c3.3-2.7,6-5.7,8.3-9.2s4.1-7.6,5.1-11.8c1-4.2,1.2-8.5,0.8-12.5c-0.8-8-3.6-14.7-6.9-20.6
	c-3.3-5.9-7.1-11-11.1-15.8c-2-2.4-4.1-4.7-6.2-6.8l-3.1-3.2l-1.4-1.5l-0.5-0.5c0.1,0.1,0.1,0.2,0.1,0.3c0.1,0.2-0.1,0-0.3-0.4
	c-0.1-0.5-0.2-1.1-0.2-1.8c0-1.5,0.3-3.1,1-4.7c1.3-3.2,3.9-6,7.5-8s8.1-3.2,13-3.5c2.4-0.2,4.9-0.2,7.5,0l4.6,0.2
	c1.6,0,3.2,0,4.9-0.1c3.3-0.1,6.5-0.6,9.8-1.3c3.2-0.8,6.4-1.8,9.5-3.2c6.1-2.7,11.6-6.8,16.1-11.7c4.4-4.9,7.8-10.5,10-16.7
	c1.1-3.1,2-6.2,2.3-9.9c0.1-0.9,0.1-1.9,0-3.2c0-0.3,0-0.5-0.1-0.7l-0.1-0.5l-0.1-1.1c-0.2-1.5-0.4-3-0.7-4.5
	c-1.1-6-2.8-11.9-5.3-17.6c-4.9-11.3-13.4-21.6-24.5-27.7c-5.5-3.1-11.4-5.1-17.4-6.3c-5.9-1.2-11.9-1.6-17.7-1.6
	c-15-1.2-30-3.6-44.6-7c-14.7-3.5-29.2-8-43.4-13.2c-14.3-5.2-28.4-10.9-42.9-16.5c-14.5-5.5-29.4-10.9-45.4-14
	c-8-1.6-16.3-2.6-24.7-2.7c-8.4-0.1-16.9,0.7-25.3,2.3l-6.2,1.4l-5.8,1.5c-3.9,1.1-7.8,2.2-11.6,3.6c-7.7,2.6-15.5,5.7-23,9.8
	c-7.5,4-14.9,9.1-21.4,14.9c-6.5,5.8-11.9,12.1-16.9,17.6c-5,5.6-9.7,10.7-14.9,15.2c-2.5,2.3-5.2,4.5-8,6.6c-1.4,1-2.8,2.1-4.2,3.1
	l-2.2,1.5c-0.7,0.5-1.1,0.7-1.7,1.1c-4.7,2.8-10.6,4.8-17.1,6c-6.5,1.3-13.4,1.9-20.4,2c-14.1,0.1-28.8-1.3-43.4-3.7
	c-14.6-2.4-29.2-5.7-43.3-9.8c-1.7-0.5-3.5-1.1-5.2-1.6c-1.6-0.5-3.4-1.1-4.5-1.6l-0.3-0.1l0,0l0,0l-0.1-0.1L246,268l-2.8-1.5
	c-2-1-4-1.9-6.1-2.8c-8.4-3.4-17.5-4.8-26.3-4.8c-8.8,0.1-17.2,1.7-25.2,4.2c-7.9,2.5-15.5,5.7-22.6,9.5c-1.8,1-3.5,1.9-5.3,2.9
	s-3.5,2.1-5.1,3.1l-9.8,6.1l-19.6,12c-13.1,7.9-26.2,15.7-39.5,23.3c-6.6,3.8-13.3,7.5-20,11.2c-3.4,1.8-6.7,3.6-10.1,5.3l-5.1,2.6
	l-2.6,1.2l-1.3,0.6l-0.6,0.3l-0.3,0.1c-0.1,0-0.7,0.3-1,0.8s-0.3,1-0.3,1.3c0.1,0.3,0.7,0.9,1.4,1c0.8,0.1,1-0.1,1-0.1l0.5-0.1
	l1-0.2l2.1-0.4l4.2-0.8l8.4-1.5c5.6-1,11.3-1.9,16.9-2.7c11.3-1.7,22.6-3,33.9-4.1c22.5-2.1,45.3-2.7,67.1-0.2
	c10.9,1.3,21.6,3.6,30.9,7.6c4.7,2,9,4.4,12.6,7.3l6.8,5.4c2.3,1.8,4.6,3.6,7,5.4c9.4,7.1,19.2,13.8,29.6,19.9
	c10.5,5.9,21.7,11.3,33.9,14.9c6.1,1.8,12.5,3.2,18.9,4s13,1,19.1,0.8c3-0.1,6-0.2,8.7-0.3l2.3-0.1l2.5-0.2c1.6-0.1,3.2-0.3,4.8-0.5
	c6.3-0.7,12.4-1.9,18.4-3.2c11.9-2.7,23.4-6.2,34.7-10.3c11.3-4.1,22.3-8.8,33.1-14.2c10.8-5.4,21.4-11.3,31.7-18.6
	c2.6-1.8,5.1-3.7,7.6-5.8c1.3-1,2.5-2.1,3.8-3.2l3.1-2.6c3.7-3.1,7.6-5.8,11.7-8.2c8.1-4.7,17-7.9,26.5-9.5
	c9.4-1.5,19.3-1.6,29.4-0.4c5,0.6,10,1.5,15.1,2.7c2.6,0.6,4.9,1.2,7.1,1.9c2.3,0.7,4.4,1.5,6.4,2.3c4.1,1.7,7.6,3.8,10.4,6.2
	c2.8,2.4,4.8,5,6.2,8.1s2.2,6.7,2.4,10.8c0.2,4.1-0.3,8.6-1.3,13.3c-1.5,7.5-1.7,15.2-0.6,22.4c1,7.2,3.1,14,5.9,20.3
	c2.7,6.3,6.1,12.1,9.9,17.5c3.9,5.4,8.1,10.5,13.3,15.3c1.3,1.2,2.8,2.4,4.3,3.6c1.5,1.1,2.9,2.1,4.3,3c2.8,1.8,5.6,3.5,8.4,5
	c5.7,3,11.5,5.6,17.8,7.8c6.2,2.1,12.8,3.8,19.9,4.4c7.1,0.6,14.9,0.2,22.7-2.7C711.8,463.1,715.6,460.9,718.9,458.3z M699.2,440.1
	c-3,1-6.9,1.2-11.1,0.6c-4.3-0.6-8.9-1.9-13.4-3.7c-4.6-1.8-9.1-4-13.4-6.5c-2.2-1.3-4.3-2.6-6.2-4c-1-0.7-1.9-1.4-2.7-2
	c-0.7-0.6-1.4-1.2-2.2-2c-3.1-3-6.2-6.9-8.8-10.9s-4.9-8.3-6.6-12.5c-3.4-8.6-4.4-17.2-2.6-24.5c1.5-6.5,2.6-13.4,2.5-20.8
	c-0.1-7.3-1.4-15.1-4.5-22.6s-8-14.3-13.8-19.5c-5.8-5.3-12.2-9.1-18.6-12.1c-3.2-1.4-6.4-2.7-9.6-3.8c-3.2-1.1-6.4-2-9.4-2.7
	c-6.1-1.5-12.3-2.7-18.7-3.6c-12.7-1.7-25.9-1.8-39.1,0.4c-13.1,2.2-26.2,6.8-37.7,13.8c-5.8,3.5-11.2,7.4-16.2,11.8l-3.4,3
	c-0.9,0.8-1.8,1.6-2.8,2.4c-1.9,1.6-3.9,3.2-6,4.7c-8.3,6.1-17.5,11.8-27.1,16.9c-19.1,10.1-39.6,18.9-60.2,24.6
	c-5.1,1.4-10.3,2.6-15.3,3.4l-3.7,0.5l-1.8,0.2l-0.9,0.1l-1.1,0.1l-8.4,0.7c-5.3,0.5-10.3,0.6-15.2,0.3c-4.9-0.3-9.9-1-14.8-2.2
	c-9.9-2.3-19.8-6.3-29.6-11c-9.8-4.7-19.3-10.3-28.7-16.3c-4.7-3-9.2-6.1-14-9.4c-5.6-3.9-11.6-6.8-17.6-8.8
	c-12.1-4.1-24.2-5.7-36.1-6.3c-23.8-1.1-47.1,1.8-69.8,5.8c-11.4,2.1-22.6,4.6-33.8,7.4c3.6-1.6,7.1-3.2,10.6-4.8
	c14-6.4,27.9-13,41.6-20l20.5-10.5l10.2-5.3c1.7-0.9,3.4-1.6,5-2.4s3.3-1.5,5-2.2c13.4-5.6,27.6-9,40.7-8.1c6.6,0.4,12.8,2,18.4,4.7
	c1.4,0.7,2.8,1.4,4.2,2.2l2.2,1.3l1.2,0.8l0.5,0.3l0.7,0.4l1,0.5c2.3,1.1,4.2,1.9,6.1,2.6c1.9,0.8,3.8,1.5,5.7,2.2
	c7.5,2.7,15.1,5.1,22.7,7.2s15.3,4,23.1,5.7c15.6,3.2,31.4,5.6,48,5.8c8.3,0.1,16.7-0.3,25.3-1.8c8.6-1.5,17.5-4.1,26.1-9
	c1-0.6,2.2-1.3,3.1-1.9l2.6-1.7c1.7-1.1,3.4-2.4,5.1-3.6c3.3-2.5,6.7-5.1,9.8-7.9c6.3-5.6,12.1-11.7,17.2-17.6
	c5.2-5.9,9.7-11.3,14.6-15.8c4.8-4.5,10-8.5,15.9-11.9c5.8-3.4,12.2-6.5,18.8-9.1c3.3-1.3,6.7-2.6,10.2-3.8l5.2-1.8l4.9-1.5
	c13.2-3.6,27.1-4.4,41.4-2.9c14.3,1.5,28.8,5.2,43.4,9.3c14.6,4.1,29.2,9,44.1,13.1c14.9,4.3,29.9,8.1,45.2,11.2
	c15.3,3,30.7,5.1,46.2,6.3h0.2h0.2c10.8-0.2,21.7,1.7,30.7,6.9c4.5,2.6,8.5,5.9,11.7,10c1.7,2,3.1,4.1,4.4,6.4
	c1.3,2.3,2.4,4.6,3.4,7.1c1.9,4.9,3.3,10.1,4,15.4c0.2,1.3,0.3,2.7,0.5,4l0.1,1v0.5c0,0.2,0,0.4,0,0.4c0,0.2,0,0.6-0.1,1.1
	c-0.2,2-1,4.4-2,6.6c-2,4.5-4.8,8.7-8.3,12.1s-7.6,6-12,7.7c-2.2,0.8-4.6,1.4-6.9,1.8c-2.4,0.3-4.8,0.5-7.3,0.4
	c-1.2,0-2.5-0.1-3.7-0.2l-3.9-0.5c-3.1-0.4-6.4-0.7-9.6-0.6c-6.6,0-13.5,1-20.2,4.1c-6.7,3-13,8.3-16.7,15.5
	c-1.9,3.5-3.1,7.5-3.6,11.7c-0.3,4.3-0.2,8.9,2.9,14.3c0.4,0.7,0.9,1.4,1.4,2l0.9,1.2l1.4,1.7l2.7,3.2c1.7,2.1,3.3,4.2,4.9,6.3
	c3.1,4.2,5.8,8.6,7.7,12.9c2,4.3,3.2,8.5,3.3,12s-0.8,5.9-2.6,8.3c-0.9,1.2-2.2,2.4-3.4,3.2C702,439,700.7,439.6,699.2,440.1z"/>
</svg>
