<?xml version="1.0" encoding="utf-8"?>
<!-- Generator: Adobe Illustrator 21.1.0, SVG Export Plug-In . SVG Version: 6.00 Build 0)  -->
<svg version="1.1" id="Calque_1" xmlns="http://www.w3.org/2000/svg" xmlns:xlink="http://www.w3.org/1999/xlink" x="0px" y="0px"
	 viewBox="0 0 841.9 595.3" style="enable-background:new 0 0 841.9 595.3;" xml:space="preserve">
<style type="text/css">
	.st0{fill:#0000FF;}
</style>
<circle class="st0" cx="418.7" cy="145.7" r="43"/>
<path class="st0" d="M403.3,205.8h32.5c13.1,0,27.9,55.6,27.9,85.2c0,22.8-22.3,54-22.3,82.4s34.1,113.5,34.1,113.5H363.7
	c0,0,32.5-85.1,32.5-113.5s-20.7-60.9-20.7-82.4C375.5,262,390.2,205.8,403.3,205.8z"/>
<path class="st0" d="M371.3,372.1c0,0-38.5-57.5-9.5-138.3l20.3-19.3C382.1,214.5,344.5,329.2,371.3,372.1z"/>
<path class="st0" d="M465.9,372c0,0,39.5-56.8,11.9-138.1l-20-19.7C457.8,214.2,493.4,329.5,465.9,372z"/>
</svg>
