<?xml version="1.0" encoding="utf-8"?>
<!-- Generator: Adobe Illustrator 21.1.0, SVG Export Plug-In . SVG Version: 6.00 Build 0)  -->
<svg version="1.1" id="Calque_1" xmlns="http://www.w3.org/2000/svg" xmlns:xlink="http://www.w3.org/1999/xlink" x="0px" y="0px"
	 viewBox="0 0 841.9 595.3" style="enable-background:new 0 0 841.9 595.3;" xml:space="preserve">
<style type="text/css">
	.st0{fill:#0000FF;}
</style>
<g>
	<path class="st0" d="M416.7,73.4c1.9,12.2,3.4,24.3,4.9,36.5c0.7,6.1,1.4,12.2,2,18.3c0.6,6.1,1.1,12.2,1.7,18.3
		c0.5,6.1,1.5,12.2,2.3,18.3s0.9,12.2,0.1,18.3c-0.7,6.1-1.9,12.2-3.6,18.3c-1.8,6.1-3.9,12.2-7.5,18.3h-2.5
		c-3.5-6.1-5.7-12.2-7.5-18.3c-1.7-6.1-2.9-12.2-3.6-18.3s-0.7-12.2,0.1-18.3c0.8-6.1,1.8-12.2,2.3-18.3s1.1-12.2,1.7-18.3
		c0.6-6.1,1.3-12.2,2-18.3c1.5-12.2,3-24.3,4.9-36.5C414,73.4,416.7,73.4,416.7,73.4z"/>
	<path class="st0" d="M304.3,101.9c7.8,9.6,15.1,19.4,22.5,29.2c3.7,4.9,7.3,9.8,10.9,14.8s7.1,10,10.6,15s7.4,9.8,11.2,14.6
		c3.7,4.9,6.8,10.1,9.2,15.8c2.4,5.6,4.4,11.5,6,17.6c1.5,6.2,2.7,12.5,2.7,19.5l-2.1,1.2c-6.1-3.5-11-7.7-15.6-12.1
		c-4.5-4.4-8.6-9.1-12.3-14c-3.7-4.9-6.7-10.2-9-15.9c-2.4-5.7-4.5-11.5-7.1-17s-5.2-11.1-7.7-16.6c-2.5-5.6-4.9-11.2-7.4-16.8
		c-4.8-11.3-9.6-22.6-14-34.1L304.3,101.9z"/>
	<path class="st0" d="M221.1,182.7c11.5,4.4,22.8,9.2,34.1,14c5.6,2.4,11.2,4.9,16.8,7.4c5.6,2.5,11.1,5.1,16.6,7.7
		c5.5,2.6,11.3,4.7,17,7.1c5.7,2.4,11,5.3,15.9,9s9.6,7.7,14,12.3s8.6,9.5,12.1,15.6l-1.2,2.1c-7,0-13.4-1.2-19.5-2.7
		c-6.1-1.6-12-3.6-17.6-6s-10.9-5.5-15.8-9.2s-9.6-7.7-14.6-11.2s-10-7-15-10.6s-9.9-7.2-14.8-10.9c-9.8-7.4-19.6-14.7-29.2-22.5
		L221.1,182.7z"/>
	<path class="st0" d="M189.5,294.2c12.2-1.9,24.3-3.4,36.5-4.9c6.1-0.7,12.2-1.4,18.3-2s12.2-1.1,18.3-1.7
		c6.1-0.5,12.2-1.5,18.3-2.3c6.1-0.8,12.2-0.9,18.3-0.1c6.1,0.7,12.2,1.9,18.3,3.6c6.1,1.8,12.2,3.9,18.3,7.5v2.5
		c-6.1,3.5-12.2,5.7-18.3,7.5c-6.1,1.7-12.2,2.9-18.3,3.6c-6.1,0.7-12.2,0.7-18.3-0.1c-6.1-0.8-12.2-1.8-18.3-2.3
		c-6.1-0.5-12.2-1.1-18.3-1.7s-12.2-1.3-18.3-2c-12.2-1.5-24.3-3-36.5-4.9V294.2z"/>
	<path class="st0" d="M217.9,406.6c9.6-7.8,19.4-15.1,29.2-22.5c4.9-3.7,9.8-7.3,14.8-10.9s10-7.1,15-10.6s9.8-7.4,14.6-11.2
		c4.9-3.7,10.1-6.8,15.8-9.2c5.6-2.4,11.5-4.4,17.6-6c6.2-1.5,12.5-2.7,19.5-2.7l1.2,2.1c-3.5,6.1-7.7,11-12.1,15.6
		c-4.4,4.5-9.1,8.6-14,12.3c-4.9,3.7-10.2,6.7-15.9,9c-5.7,2.4-11.5,4.5-17,7.1s-11.1,5.2-16.6,7.7c-5.6,2.5-11.2,4.9-16.8,7.4
		c-11.3,4.8-22.6,9.6-34.1,14L217.9,406.6z"/>
	<path class="st0" d="M298.8,489.8c4.4-11.5,9.2-22.8,14-34.1c2.4-5.6,4.9-11.2,7.4-16.8c2.5-5.6,5.1-11.1,7.7-16.6s4.7-11.3,7.1-17
		s5.3-11,9-15.9s7.7-9.6,12.3-14c4.6-4.4,9.5-8.6,15.6-12.1l2.1,1.2c0,7-1.2,13.4-2.7,19.5c-1.6,6.1-3.6,12-6,17.6
		s-5.5,10.9-9.2,15.8s-7.7,9.6-11.2,14.6s-7,10-10.6,15s-7.2,9.9-10.9,14.8c-7.4,9.8-14.7,19.6-22.5,29.2L298.8,489.8z"/>
	<path class="st0" d="M410.3,521.4c-1.9-12.2-3.4-24.3-4.9-36.5c-0.7-6.1-1.4-12.2-2-18.3c-0.6-6.1-1.1-12.2-1.7-18.3
		c-0.5-6.1-1.5-12.2-2.3-18.3c-0.8-6.1-0.9-12.2-0.1-18.3c0.7-6.1,1.9-12.2,3.6-18.3c1.8-6.1,3.9-12.2,7.5-18.3h2.5
		c3.5,6.1,5.7,12.2,7.5,18.3c1.7,6.1,2.9,12.2,3.6,18.3c0.7,6.1,0.7,12.2-0.1,18.3c-0.8,6.1-1.8,12.2-2.3,18.3
		c-0.5,6.1-1.1,12.2-1.7,18.3c-0.6,6.1-1.3,12.2-2,18.3c-1.5,12.2-3,24.3-4.9,36.5H410.3z"/>
	<path class="st0" d="M522.7,492.9c-7.8-9.6-15.1-19.4-22.5-29.2c-3.7-4.9-7.3-9.8-10.9-14.8s-7.1-10-10.6-15s-7.4-9.8-11.2-14.6
		c-3.7-4.9-6.8-10.1-9.2-15.8c-2.4-5.6-4.4-11.5-6-17.6c-1.5-6.2-2.7-12.5-2.7-19.5l2.1-1.2c6.1,3.5,11,7.7,15.6,12.1
		c4.5,4.4,8.6,9.1,12.3,14c3.7,4.9,6.7,10.2,9,15.9c2.4,5.7,4.5,11.5,7.1,17s5.2,11.1,7.7,16.6c2.5,5.6,4.9,11.2,7.4,16.8
		c4.8,11.3,9.6,22.6,14,34.1L522.7,492.9z"/>
	<path class="st0" d="M605.9,412.1c-11.5-4.4-22.8-9.2-34.1-14c-5.6-2.4-11.2-4.9-16.8-7.4s-11.1-5.1-16.6-7.7s-11.3-4.7-17-7.1
		s-11-5.3-15.9-9s-9.6-7.7-14-12.3c-4.4-4.6-8.6-9.5-12.1-15.6l1.2-2.1c7,0,13.4,1.2,19.5,2.7c6.1,1.6,12,3.6,17.6,6
		s10.9,5.5,15.8,9.2c4.9,3.7,9.6,7.7,14.6,11.2s10,7,15,10.6s9.9,7.2,14.8,10.9c9.8,7.4,19.6,14.7,29.2,22.5L605.9,412.1z"/>
	<path class="st0" d="M637.5,300.6c-12.2,1.9-24.3,3.4-36.5,4.9c-6.1,0.7-12.2,1.4-18.3,2s-12.2,1.1-18.3,1.7
		c-6.1,0.5-12.2,1.5-18.3,2.3s-12.2,0.9-18.3,0.1c-6.1-0.7-12.2-1.9-18.3-3.6c-6.1-1.8-12.2-3.9-18.3-7.5V298
		c6.1-3.5,12.2-5.7,18.3-7.5c6.1-1.7,12.2-2.9,18.3-3.6s12.2-0.7,18.3,0.1c6.1,0.8,12.2,1.8,18.3,2.3s12.2,1.1,18.3,1.7
		s12.2,1.3,18.3,2c12.2,1.5,24.3,3,36.5,4.9V300.6z"/>
	<path class="st0" d="M609,188.2c-9.6,7.8-19.4,15.1-29.2,22.5c-4.9,3.7-9.8,7.3-14.8,10.9c-5,3.6-10,7.1-15,10.6
		s-9.8,7.4-14.6,11.2c-4.9,3.7-10.1,6.8-15.8,9.2c-5.6,2.4-11.5,4.4-17.6,6c-6.2,1.5-12.5,2.7-19.5,2.7l-1.2-2.1
		c3.5-6.1,7.7-11,12.1-15.6c4.4-4.5,9.1-8.6,14-12.3c4.9-3.7,10.2-6.7,15.9-9c5.7-2.4,11.5-4.5,17-7.1s11.1-5.2,16.6-7.7
		c5.6-2.5,11.2-4.9,16.8-7.4c11.3-4.8,22.6-9.6,34.1-14L609,188.2z"/>
	<path class="st0" d="M528.2,105c-4.4,11.5-9.2,22.8-14,34.1c-2.4,5.6-4.9,11.2-7.4,16.8s-5.1,11.1-7.7,16.6s-4.7,11.3-7.1,17
		s-5.3,11-9,15.9s-7.7,9.6-12.3,14c-4.6,4.4-9.5,8.6-15.6,12.1l-2.1-1.2c0-7,1.2-13.4,2.7-19.5c1.6-6.1,3.6-12,6-17.6
		s5.5-10.9,9.2-15.8c3.7-4.9,7.7-9.6,11.2-14.6s7-10,10.6-15s7.2-9.9,10.9-14.8c7.4-9.8,14.7-19.6,22.5-29.2L528.2,105z"/>
</g>
</svg>
