<?xml version="1.0" encoding="utf-8"?>
<!-- Generator: Adobe Illustrator 21.1.0, SVG Export Plug-In . SVG Version: 6.00 Build 0)  -->
<svg version="1.1" id="Calque_1" xmlns="http://www.w3.org/2000/svg" xmlns:xlink="http://www.w3.org/1999/xlink" x="0px" y="0px"
	 viewBox="0 0 841.9 595.3" style="enable-background:new 0 0 841.9 595.3;" xml:space="preserve">
<style type="text/css">
	.st0{fill:#0000FF;}
</style>
<g>
	<path class="st0" d="M424.9,273.1c24.9-23.6,58.5-38,95.4-38c13.5,0,26.5,1.9,38.8,5.5c2.3-10,3.5-20.4,3.5-31.2
		c0-76.7-62.1-138.8-138.8-138.8S285,132.7,285,209.4c0,10.9,1.3,21.5,3.7,31.7c12.9-4,26.6-6.1,40.8-6.1
		C366.4,235.1,400,249.6,424.9,273.1z"/>
	<path class="st0" d="M381.5,373.9c0-10.7,1.2-21.1,3.5-31.2c-47.8-13.9-84.9-52.8-96.3-101.6c-56.8,17.4-98,70.2-98,132.7
		c0,76.7,62.1,138.8,138.8,138.8c37,0,70.6-14.5,95.4-38C398.1,449.4,381.5,413.6,381.5,373.9z"/>
	<path class="st0" d="M559.1,240.6c-11.1,48.4-47.5,87.1-94.5,101.6c2.4,10.2,3.7,20.8,3.7,31.7c0,39.7-16.7,75.5-43.4,100.8
		c24.9,23.6,58.5,38,95.4,38c76.7,0,138.8-62.1,138.8-138.8C659.1,310.7,616.9,257.4,559.1,240.6z"/>
	<path class="st0" d="M424.9,273.1c-19.5,18.5-33.6,42.5-39.9,69.6c12.3,3.6,25.3,5.5,38.8,5.5c14.2,0,27.9-2.1,40.8-6.1
		C458.3,315.3,444.2,291.5,424.9,273.1z"/>
</g>
</svg>
