<?xml version="1.0" encoding="utf-8"?>
<!-- Generator: Adobe Illustrator 21.1.0, SVG Export Plug-In . SVG Version: 6.00 Build 0)  -->
<svg version="1.1" id="Calque_1" xmlns="http://www.w3.org/2000/svg" xmlns:xlink="http://www.w3.org/1999/xlink" x="0px" y="0px"
	 viewBox="0 0 841.9 595.3" style="enable-background:new 0 0 841.9 595.3;" xml:space="preserve">
<style type="text/css">
	.st0{fill:#0000FF;}
</style>
<circle class="st0" cx="377.1" cy="352.2" r="40.5"/>
<circle class="st0" cx="475.9" cy="392" r="40.5"/>
<path class="st0" d="M602.2,161l1.2-28.7c0.5-11.5,0.9-23.1,1.2-34.9l0.1-2.9l-3.1-0.1c-15.1-0.4-30.1-0.8-45.2-1.1l-22.6-0.4
	l-22.6-0.3c-30.1-0.4-60.3-0.6-90.4-0.5s-60.3,0.5-90.4,0.8c-15.1,0.2-30.1,0.4-45.2,0.7L240,94.7l-2.8,0.1l0.1,2.7
	c0.3,11.4,0.6,22.7,0.8,34.1c0.1,5.7,0.2,11.4,0.3,17.1c0.1,5,0.1,10,0.1,14.9h-1.2v2.7c0.4,27.6,0.8,55.2,1,82.8
	c0.1,13.8,0.2,27.6,0.2,41.4c0.1,13.8,0,27.6-0.1,41.4c-0.1,27.6-0.5,55.2-1,82.8s-1.1,55.2-1.4,82.8l-0.1,3.9l4,0.1
	c15.2,0.2,30.4,0.3,45.6,0.4c15.2,0,30.4,0.1,45.6,0c30.4-0.2,60.8-0.3,91.1-0.8l22.7-0.3l22.6-0.4l45.1-0.8
	c30-0.5,59.8-1.2,89.2-1.9l1.7-81.8l1.5-82.7l0.6-41.6l0.5-41.8c0.3-27.9,0.5-55.8,0.6-83.7v-5.2L602.2,161z M330.4,102
	c30.1,0.3,60.3,0.7,90.4,0.8c30.1,0.1,60.3-0.1,90.4-0.5l22.6-0.3l22.6-0.4c14.1-0.2,28.2-0.6,42.3-1c0.3,10,0.7,20.1,1.1,30.3
	l1.2,30.2l-22.1-0.1h-22.6l-45.2,0.1l-90.4,0.5c-1.3,0-2.7,0-4,0c-6.7,0-13.4,0-20,0.1c-4.1,0-8.1,0.1-12.2,0.1
	c-18.1,0.1-36.1,0.3-54.2,0.5c-29.6,0.3-59.2,0.9-88.8,1.3c0-5,0.1-9.9,0.1-14.9c0.1-5.7,0.1-11.4,0.3-17.1
	c0.2-10.4,0.4-20.9,0.7-31.3l42.5,1C300.3,101.6,315.3,101.8,330.4,102z M509.7,495.3l-45.3-0.8l-22.6-0.4l-22.5-0.3
	c-30-0.4-59.9-0.6-89.7-0.8c-14.9-0.1-29.8,0-44.8,0c-13.6,0.1-27.2,0.2-40.9,0.4c-0.4-26.3-0.9-52.5-1.4-78.8
	c-0.5-27.6-0.9-55.2-1-82.8c0-13.8-0.1-27.6-0.1-41.4s0.1-27.6,0.2-41.4c0.2-26.7,0.6-53.4,1-80c29.2,0.4,58.5,1,87.7,1.3
	c30.1,0.3,60.3,0.5,90.4,0.7l90.4,0.5l45.2,0.1h22.6l17.4-0.1c0.1,25.5,0.2,51.1,0.6,76.7l0.5,41.1l0.6,41.2l1.5,82.9l1.7,83.9
	C570.4,496.5,540,495.8,509.7,495.3z"/>
</svg>
