<?xml version="1.0" encoding="utf-8"?>
<!-- Generator: Adobe Illustrator 21.1.0, SVG Export Plug-In . SVG Version: 6.00 Build 0)  -->
<svg version="1.1" id="Calque_1" xmlns="http://www.w3.org/2000/svg" xmlns:xlink="http://www.w3.org/1999/xlink" x="0px" y="0px"
	 viewBox="0 0 841.9 595.3" style="enable-background:new 0 0 841.9 595.3;" xml:space="preserve">
<style type="text/css">
	.st0{fill:#0000FF;}
	.st1{fill:#FFFFFF;}
</style>
<path class="st0" d="M621.5,509.6l11.4-37.5c0.1-0.3,0.2-0.5,0.3-0.8c4.7-15.5-63.6-50.1-152.7-77.3s-165.1-36.6-169.9-21.1
	c-0.1,0.3-0.1,0.5-0.2,0.8l-11.5,37.5c-0.1,0.2-0.2,0.5-0.3,0.8c-0.1,0.3-0.1,0.5-0.2,0.8v0.1l0,0c-2,15.9,65.5,49.7,152.9,76.4
	s162.2,36.3,169.5,22l0,0v-0.1c0.1-0.3,0.2-0.5,0.3-0.8C621.4,510.1,621.5,509.8,621.5,509.6z"/>
<path class="st0" d="M301.6,327c0,3.2-1.1,6.3-3.2,8.9c-2.1,2.5-5.2,4.5-8.9,4.9c-1.8,0.2-3.7,0.1-5.6-0.4c-1.8-0.5-3.6-1.5-5.1-2.7
	c-3-2.5-4.9-6.6-4.9-10.7s1.9-8.1,4.9-10.7c1.5-1.3,3.3-2.2,5.1-2.7c1.8-0.5,3.8-0.6,5.6-0.4c3.6,0.5,6.8,2.4,8.9,5
	C300.5,320.7,301.6,323.8,301.6,327z M301.6,327c0-3.2-1.5-6.3-3.9-8.2c-1.2-1-2.6-1.6-4-2c-1.4-0.3-2.9-0.4-4.2-0.1
	c-2.7,0.5-4.9,2-6.4,3.9s-2.2,4.1-2.2,6.4s0.7,4.5,2.2,6.4s3.7,3.4,6.4,3.9c1.4,0.2,2.8,0.2,4.2-0.1c1.4-0.4,2.8-1,4-2
	C300.1,333.3,301.6,330.2,301.6,327z"/>
<path class="st0" d="M346.6,317.2c0,3.2-1.1,6.3-3.2,8.9c-2.1,2.5-5.2,4.5-8.9,4.9c-1.8,0.2-3.7,0.1-5.6-0.4
	c-1.8-0.5-3.6-1.5-5.1-2.7c-3-2.5-4.9-6.6-4.9-10.7s1.9-8.1,4.9-10.7c1.5-1.3,3.3-2.2,5.1-2.7c1.8-0.5,3.8-0.6,5.6-0.4
	c3.6,0.5,6.8,2.4,8.9,5C345.6,310.9,346.7,314.1,346.6,317.2z M346.6,317.2c0-3.2-1.5-6.3-3.9-8.2c-1.2-1-2.6-1.6-4-2
	c-1.4-0.3-2.9-0.4-4.2-0.1c-2.7,0.5-4.9,2-6.4,3.9s-2.2,4.1-2.2,6.4s0.7,4.5,2.2,6.4s3.7,3.4,6.4,3.9c1.4,0.2,2.8,0.2,4.2-0.1
	c1.4-0.4,2.8-1,4-2C345.2,323.5,346.7,320.4,346.6,317.2z"/>
<path class="st0" d="M261.3,301.7c0,3.2-1.1,6.3-3.2,8.9c-2.1,2.5-5.2,4.5-8.9,4.9c-1.8,0.2-3.7,0.1-5.6-0.4
	c-1.8-0.5-3.6-1.5-5.1-2.7c-3-2.5-4.9-6.6-4.9-10.7s1.9-8.1,4.9-10.7c1.5-1.3,3.3-2.2,5.1-2.7s3.8-0.6,5.6-0.4
	c3.6,0.5,6.8,2.4,8.9,5C260.2,295.4,261.3,298.6,261.3,301.7z M261.3,301.7c0-3.2-1.5-6.3-3.9-8.2c-1.2-1-2.6-1.6-4-2
	c-1.4-0.3-2.9-0.4-4.2-0.1c-2.7,0.5-4.9,2-6.4,3.9s-2.2,4.1-2.2,6.4s0.7,4.5,2.2,6.4s3.7,3.4,6.4,3.9c1.4,0.2,2.8,0.2,4.2-0.1
	c1.4-0.4,2.8-1,4-2C259.8,308,261.3,304.9,261.3,301.7z"/>
<path class="st0" d="M332.9,164.2c0,3.2-1.1,6.3-3.2,8.9c-2.1,2.5-5.2,4.5-8.9,4.9c-1.8,0.2-3.7,0.1-5.6-0.4
	c-1.8-0.5-3.6-1.5-5.1-2.7c-3-2.5-4.9-6.6-4.9-10.7c0-4.1,1.9-8.1,4.9-10.7c1.5-1.3,3.3-2.2,5.1-2.7c1.8-0.5,3.8-0.6,5.6-0.4
	c3.6,0.5,6.8,2.4,8.9,5C331.8,157.8,332.9,161,332.9,164.2z M332.9,164.2c0-3.2-1.5-6.3-3.9-8.2c-1.2-1-2.6-1.6-4-2
	c-1.4-0.3-2.9-0.4-4.2-0.1c-2.7,0.5-4.9,2-6.4,3.9s-2.2,4.1-2.2,6.4c0,2.3,0.7,4.5,2.2,6.4s3.7,3.4,6.4,3.9c1.4,0.2,2.8,0.2,4.2-0.1
	c1.4-0.4,2.8-1,4-2C331.5,170.5,332.9,167.3,332.9,164.2z"/>
<path class="st0" d="M256.4,252.3c0,5.2-1.9,10.4-5.5,14.4c-3.5,4-8.7,6.8-14.4,7.2c-2.8,0.2-5.7-0.1-8.5-1s-5.4-2.4-7.6-4.4
	c-2.2-2-4-4.5-5.3-7.3c-1.2-2.8-1.9-5.8-1.9-8.9c0-3,0.6-6.1,1.9-8.9c1.2-2.8,3.1-5.3,5.3-7.3s4.9-3.5,7.6-4.4
	c2.8-0.9,5.7-1.2,8.5-1c5.7,0.5,10.9,3.2,14.4,7.2C254.5,241.9,256.5,247.1,256.4,252.3z M256.4,252.3c0-5.2-2.3-10.4-6.2-13.7
	c-1.9-1.7-4.1-2.9-6.5-3.7c-2.4-0.7-4.8-1-7.2-0.7c-4.8,0.5-9,2.9-11.9,6.2s-4.5,7.6-4.5,11.9c0,4.3,1.5,8.6,4.4,11.9
	c2.9,3.3,7.1,5.7,11.9,6.2c2.4,0.2,4.8,0,7.2-0.7s4.6-2,6.5-3.7C254.1,262.7,256.5,257.5,256.4,252.3z"/>
<path class="st0" d="M372.7,250c0,5.2-1.9,10.4-5.5,14.4c-3.5,4-8.7,6.8-14.4,7.2c-2.8,0.2-5.7-0.1-8.5-1s-5.4-2.4-7.6-4.4
	s-4-4.5-5.3-7.3c-1.2-2.8-1.9-5.8-1.9-8.9c0-3,0.6-6.1,1.9-8.9c1.2-2.8,3.1-5.3,5.3-7.3c2.2-2,4.9-3.5,7.6-4.4
	c2.8-0.9,5.7-1.2,8.5-1c5.7,0.5,10.9,3.2,14.4,7.2C370.8,239.6,372.7,244.8,372.7,250z M372.7,250c0-5.2-2.3-10.4-6.2-13.7
	c-1.9-1.7-4.1-2.9-6.5-3.7c-2.4-0.7-4.8-1-7.2-0.7c-4.8,0.5-9,2.9-11.9,6.2s-4.5,7.6-4.5,11.9c0,4.3,1.5,8.6,4.4,11.9
	s7.1,5.7,11.9,6.2c2.4,0.2,4.8,0,7.2-0.7c2.4-0.7,4.6-2,6.5-3.7C370.4,260.4,372.7,255.2,372.7,250z"/>
<path class="st0" d="M281,165.3c0,5.2-1.9,10.4-5.5,14.4c-3.5,4-8.7,6.8-14.4,7.2c-2.8,0.2-5.7-0.1-8.5-1s-5.4-2.4-7.6-4.4
	c-2.2-2-4-4.5-5.3-7.3c-1.2-2.8-1.9-5.8-1.9-8.9c0-3,0.6-6.1,1.9-8.9c1.2-2.8,3.1-5.3,5.3-7.3s4.9-3.5,7.6-4.4
	c2.8-0.9,5.7-1.2,8.5-1c5.7,0.5,10.9,3.2,14.4,7.2C279.1,154.9,281,160.1,281,165.3z M281,165.3c0-5.2-2.3-10.4-6.2-13.7
	c-1.9-1.7-4.1-2.9-6.5-3.7c-2.4-0.7-4.8-1-7.2-0.7c-4.8,0.5-9,2.9-11.9,6.2s-4.5,7.6-4.5,11.9c0,4.3,1.5,8.6,4.4,11.9
	c2.9,3.3,7.1,5.7,11.9,6.2c2.4,0.2,4.8,0,7.2-0.7c2.4-0.7,4.6-2,6.5-3.7C278.7,175.6,281,170.5,281,165.3z"/>
<path class="st0" d="M323.7,220.2c0,7.2-2.8,14.5-7.8,19.9c-4.9,5.5-12.2,9-19.9,9.5c-3.8,0.2-7.8-0.3-11.5-1.6s-7.2-3.4-10.2-6.1
	c-2.9-2.7-5.3-6.1-7-9.8c-1.6-3.7-2.5-7.8-2.5-11.9c0-4.1,0.8-8.1,2.5-11.9c1.6-3.7,4-7.1,7-9.8c2.9-2.7,6.5-4.8,10.2-6.1
	s7.7-1.8,11.5-1.6c7.7,0.5,14.9,4,19.9,9.5C321,205.8,323.7,213,323.7,220.2z M323.7,220.2c0-3.6-0.8-7.2-2.2-10.5
	c-1.4-3.3-3.6-6.3-6.2-8.7s-5.7-4.2-9-5.4c-3.3-1.1-6.8-1.5-10.2-1.3c-6.8,0.5-13.1,3.7-17.4,8.5c-4.4,4.8-6.7,11.1-6.7,17.4
	c0,6.3,2.4,12.6,6.7,17.4c4.3,4.8,10.6,8,17.4,8.5c3.4,0.2,6.9-0.2,10.2-1.3c3.3-1.2,6.4-3,9-5.4s4.8-5.4,6.2-8.7
	C323,227.4,323.7,223.8,323.7,220.2z"/>
<path class="st0" d="M333.8,101c0,10.3-4,20.6-11.2,28.2c-7.1,7.6-17.4,12.5-28.2,12.9c-5.4,0.2-10.9-0.6-16-2.5s-9.9-4.8-14-8.7
	c-4-3.8-7.3-8.5-9.5-13.6c-2.2-5.1-3.4-10.8-3.4-16.4s1.1-11.2,3.4-16.4c2.2-5.1,5.5-9.8,9.5-13.6c4-3.8,8.8-6.7,14-8.7
	c5.1-1.9,10.6-2.7,16-2.5c10.8,0.5,21.1,5.3,28.2,13C329.8,80.4,333.9,90.7,333.8,101z M333.8,101c0-5.2-1.1-10.3-3.1-15
	s-5-9-8.8-12.5c-3.7-3.5-8.1-6.2-12.8-7.9c-4.7-1.7-9.7-2.4-14.7-2.2c-9.9,0.5-19.2,4.9-25.7,11.9s-10.2,16.3-10.2,25.7
	s3.6,18.8,10.2,25.7c6.5,7,15.8,11.5,25.7,11.9c4.9,0.2,10-0.5,14.7-2.2s9.1-4.4,12.8-7.9c3.7-3.5,6.7-7.8,8.8-12.5
	C332.8,111.3,333.8,106.1,333.8,101z"/>
<path class="st0" d="M320.4,285.6c0,2.3-0.7,4.6-2.2,6.6c-1.5,1.9-3.8,3.5-6.6,4c-1.4,0.2-2.9,0.2-4.3-0.2c-1.4-0.4-2.9-1.1-4.1-2
	c-2.4-1.9-4-5.1-4-8.4c0-3.2,1.5-6.4,3.9-8.4c1.2-1,2.6-1.7,4.1-2c1.5-0.4,2.9-0.4,4.3-0.2c2.8,0.5,5.1,2.1,6.6,4
	C319.6,281,320.4,283.3,320.4,285.6z M320.4,285.6c0-2.3-1.1-4.6-2.9-5.9c-1.8-1.4-4.1-1.7-5.9-1.2c-1.9,0.5-3.2,1.7-4.1,3
	s-1.2,2.7-1.2,4.1s0.4,2.8,1.2,4.1c0.9,1.3,2.2,2.5,4.1,3c1.8,0.5,4.1,0.2,5.9-1.2C319.2,290.2,320.4,287.9,320.4,285.6z"/>
<path class="st0" d="M286.8,264.9c0,2.3-0.7,4.6-2.2,6.6c-1.5,1.9-3.8,3.5-6.6,4c-1.4,0.2-2.9,0.2-4.3-0.2c-1.4-0.4-2.9-1.1-4.1-2
	c-2.4-1.9-4-5.1-4-8.4c0-3.2,1.5-6.4,3.9-8.4c1.2-1,2.6-1.7,4.1-2c1.5-0.4,2.9-0.4,4.3-0.2c2.8,0.5,5.1,2.1,6.6,4
	C286.1,260.3,286.8,262.6,286.8,264.9z M286.8,264.9c0-2.3-1.1-4.6-2.9-5.9c-1.8-1.4-4.1-1.7-5.9-1.2c-1.9,0.5-3.2,1.7-4.1,3
	s-1.2,2.7-1.2,4.1s0.4,2.8,1.2,4.1c0.9,1.3,2.2,2.5,4.1,3c1.8,0.5,4.1,0.2,5.9-1.2C285.7,269.5,286.8,267.2,286.8,264.9z"/>
<path class="st0" d="M251.2,205.8c0,2.3-0.7,4.6-2.2,6.6c-1.5,1.9-3.8,3.5-6.6,4c-1.4,0.2-2.9,0.2-4.3-0.2c-1.4-0.4-2.9-1.1-4.1-2
	c-2.4-1.9-4-5.1-4-8.4c0-3.2,1.5-6.4,3.9-8.4c1.2-1,2.6-1.7,4.1-2c1.5-0.4,2.9-0.4,4.3-0.2c2.8,0.5,5.1,2.1,6.6,4
	C250.5,201.1,251.2,203.4,251.2,205.8z M251.2,205.8c0-2.3-1.1-4.6-2.9-5.9c-1.8-1.4-4.1-1.7-5.9-1.2c-1.9,0.5-3.2,1.7-4.1,3
	c-0.9,1.3-1.2,2.7-1.2,4.1c0,1.4,0.4,2.8,1.2,4.1c0.9,1.3,2.2,2.5,4.1,3c1.8,0.5,4.1,0.2,5.9-1.2
	C250.1,210.3,251.2,208.1,251.2,205.8z"/>
<g>
	
		<ellipse transform="matrix(0.2958 -0.9552 0.9552 0.2958 -68.9209 747.4297)" class="st0" cx="472.5" cy="420.5" rx="27.7" ry="168.2"/>
	<path class="st1" d="M311.7,370.7c0.6-1.8,2.2-3.1,3.8-3.9c1.6-0.8,3.4-1.3,5.2-1.7c3.6-0.8,7.2-1,10.9-1.1
		c7.3-0.2,14.6,0.3,21.8,0.9c14.5,1.3,28.9,3.6,43.2,6.3c28.6,5.4,56.8,13,84.5,21.7c13.9,4.4,27.6,9.2,41.3,14.2
		c6.8,2.5,13.6,5.1,20.4,7.8c6.8,2.7,13.5,5.4,20.2,8.3c6.7,2.8,13.3,5.9,19.9,8.9c6.6,3.1,13.1,6.3,19.5,9.8
		c3.2,1.7,6.4,3.5,9.5,5.4c3.1,1.9,6.2,3.8,9.2,6c3,2.1,5.9,4.4,8.5,7c1.3,1.3,2.5,2.8,3.5,4.4c0.5,0.8,0.9,1.8,1.1,2.7
		c0.2,1,0.3,2.1-0.1,3.1c-0.3,1-0.9,1.9-1.7,2.6c-0.7,0.7-1.6,1.3-2.4,1.7c-1.7,0.9-3.5,1.4-5.4,1.8c-3.6,0.8-7.3,1.1-11,1.2
		c-7.3,0.2-14.6-0.2-21.9-0.9c-14.5-1.4-28.9-3.8-43.2-6.7c-28.6-5.7-56.7-13.2-84.5-21.8c-27.8-8.6-55.2-18.5-81.9-30.1
		c-13.3-5.9-26.5-12.1-39.2-19.2c-6.3-3.6-12.6-7.3-18.5-11.6c-2.9-2.2-5.8-4.4-8.3-7.1c-1.2-1.3-2.4-2.7-3.3-4.4
		C311.7,374.4,311.1,372.5,311.7,370.7z M312,370.8c-0.5,1.7,0.1,3.6,0.9,5.1c0.9,1.6,2.1,3,3.3,4.3c2.5,2.6,5.4,4.9,8.3,7
		c5.9,4.2,12.2,7.8,18.6,11.2c12.8,6.8,26.1,12.6,39.6,18.1c13.5,5.4,27,10.6,40.7,15.3c6.9,2.4,13.7,4.7,20.6,7
		c6.9,2.3,13.8,4.5,20.7,6.6c13.9,4.3,27.8,8.2,41.9,12c14,3.7,28.1,7.1,42.3,10.1c14.2,2.9,28.5,5.5,42.9,7.1
		c7.2,0.8,14.4,1.3,21.6,1.2c3.6-0.1,7.2-0.3,10.7-1c1.7-0.4,3.4-0.8,5-1.6c1.5-0.7,2.9-1.8,3.3-3.2c0.5-1.4,0-3.1-0.8-4.6
		c-0.8-1.5-2-2.9-3.2-4.2c-2.4-2.6-5.3-4.9-8.2-7c-5.8-4.3-12.1-8-18.4-11.5c-12.7-7-25.9-13.1-39.3-18.6
		c-6.7-2.8-13.4-5.5-20.2-8.1c-6.8-2.6-13.6-5-20.5-7.4c-13.7-4.8-27.5-9.2-41.4-13.4c-6.9-2.1-13.9-4.2-20.9-6.2
		c-7-2-14-3.9-21-5.7c-14-3.7-28.1-7.2-42.3-10.3c-14.2-3.1-28.5-5.7-42.9-7.4c-7.2-0.8-14.5-1.4-21.7-1.2
		c-3.6,0.1-7.3,0.3-10.8,1.1c-1.8,0.4-3.5,0.9-5.1,1.7C314,367.9,312.5,369,312,370.8z"/>
</g>
</svg>
