<?xml version="1.0" encoding="utf-8"?>
<!-- Generator: Adobe Illustrator 21.1.0, SVG Export Plug-In . SVG Version: 6.00 Build 0)  -->
<svg version="1.1" id="Calque_1" xmlns="http://www.w3.org/2000/svg" xmlns:xlink="http://www.w3.org/1999/xlink" x="0px" y="0px"
	 viewBox="0 0 841.9 595.3" style="enable-background:new 0 0 841.9 595.3;" xml:space="preserve">
<style type="text/css">
	.st0{fill:#0000FF;}
</style>
<g>
	<circle class="st0" cx="417.6" cy="292" r="41.1"/>
	<path class="st0" d="M696.5,269.3c-1.7-7.2-4.3-14.1-7.5-20.8c-3.2-6.6-7.1-12.9-11.4-18.9c-4.4-6-9.2-11.6-14.3-17
		c-5.1-5.3-10.6-10.3-16.3-15.1c-5.7-4.7-11.6-9.2-17.8-13.4c-12.3-8.3-25.2-15.7-38.6-22.1c-26.9-12.8-55.4-21.9-84.6-27.7
		c-14.6-2.9-29.3-5-44.1-6.4c-7.4-0.7-14.8-1.3-22.2-1.6c-7.4-0.3-14.8-0.6-22.3-0.6c-29.7-0.1-59.5,2.4-88.7,7.9
		c-29.3,5.5-58.1,13.9-85.5,25.9c-13.7,6-27.1,12.9-39.8,21c-6.4,4-12.6,8.4-18.5,13.1c-6,4.7-11.7,9.7-17,15.2
		c-5.4,5.4-10.4,11.2-14.9,17.4s-8.5,12.9-11.9,19.9c-6.7,14-10.3,29.6-9.8,45.1c0.3,7.7,1.4,15.4,3.5,22.8s5.1,14.4,8.6,21.1
		c7.2,13.3,16.9,24.9,27.7,35.1s22.8,18.9,35.3,26.6c12.6,7.7,25.7,14.4,39.2,20.3c27,11.7,55.2,20.5,84,26.7
		c28.8,6.2,58.3,9.9,87.9,10.5s59.3-1.7,88.4-7.2c29.1-5.5,57.7-14.4,84.6-27.1c13.4-6.4,26.4-13.7,38.6-22
		c6.1-4.2,12.1-8.6,17.8-13.4c5.7-4.7,11.2-9.7,16.3-15s9.9-11,14.3-16.9c4.3-6,8.2-12.3,11.4-18.9s5.9-13.5,7.5-20.7
		c1.8-7.1,2.7-14.5,2.7-21.9C699.1,283.9,698.3,276.5,696.5,269.3z M523.6,157.3c7,1.4,13.9,3,20.9,4.7c6.5,1.6,13,3.4,19.5,5.3
		c-0.3,0.1-0.7,0.2-1,0.3c-2.4,0.9-4.7,2.4-6.6,4.3c-1.9,2-3.2,4.4-4,6.7c-0.5,1.2-0.7,2.4-1,3.6c-0.1,0.6-0.1,1.2-0.2,1.8l-0.1,0.9
		v0.9c0,0.6,0,1.1,0.1,1.7c0.1,0.6,0.2,1.1,0.2,1.7c0.1,0.5,0.2,1.1,0.3,1.6l0.3,1.4c0.2,0.9,0.3,1.9,0.4,2.8c0.1,0.9,0,1.9,0,2.8
		c-0.1,0.5-0.1,0.9-0.2,1.4c-0.1,0.5-0.2,0.9-0.3,1.4c-0.1,0.4-0.3,0.9-0.5,1.3c-0.2,0.4-0.4,0.9-0.6,1.3c-0.9,1.6-2.2,3.1-3.7,4.2
		c-1.5,1.2-3,2.1-4.5,3.1c-1.5,0.9-2.8,2-4.2,3.1s-2.8,2.1-4.3,3.1c-1.5,1.1-3.1,2.2-4.8,3.3c-1.6-0.6-3.2-1-4.9-1.4
		c-1.1-0.3-2.2-0.4-3.3-0.6c-1.1-0.1-2.2-0.3-3.4-0.3c-0.8,0-1.7-0.1-2.5-0.1c0.3,0,0.6-0.1,0.9-0.1c0.5-0.1,1-0.1,1.5-0.2
		c4.1-0.6,8.3-1.3,12.7-2.5l0.2-1c-2-1.3-4.1-2.2-6.3-2.9s-4.4-1.1-6.6-1.4c-1.1-0.2-2.2-0.2-3.4-0.3c-1.1,0-2.2-0.1-3.4,0
		c-0.8,0-1.7,0.1-2.5,0.1c0.3-0.1,0.6-0.1,0.8-0.2c0.5-0.1,1-0.2,1.5-0.3c4-1,8.1-2,12.4-3.6l0.1-1c-2.1-1.1-4.3-1.8-6.5-2.3
		s-4.5-0.8-6.7-0.8c-1.1-0.1-2.2,0-3.4,0c-1.1,0.1-2.2,0.1-3.4,0.3c-0.8,0.1-1.7,0.2-2.5,0.4c0.3-0.1,0.5-0.2,0.8-0.3
		c0.5-0.2,1-0.3,1.5-0.5c3.9-1.3,7.9-2.7,12.1-4.7v-1c-2.2-1-4.4-1.4-6.7-1.7c-2.3-0.3-4.5-0.4-6.8-0.3c-1.1,0-2.2,0.2-3.4,0.3
		c-1.1,0.2-2.2,0.3-3.3,0.6c-0.8,0.2-1.6,0.4-2.4,0.6c0.3-0.1,0.5-0.2,0.8-0.3c0.5-0.2,1-0.4,1.4-0.6c3.8-1.6,7.7-3.4,11.6-5.7
		l-0.1-1c-2.3-0.8-4.6-1-6.8-1.1c-2.3-0.1-4.5,0-6.7,0.3c-1.1,0.1-2.2,0.4-3.3,0.6c-1.1,0.3-2.2,0.5-3.3,0.9
		c-0.9,0.3-1.7,0.5-2.5,0.9c0.3-0.2,0.6-0.3,0.9-0.5c0.5-0.2,0.9-0.5,1.4-0.7c3.7-2,7.3-4,11.1-6.7l-0.2-1c-2.3-0.6-4.6-0.6-6.9-0.5
		s-4.5,0.4-6.7,0.9c-1.1,0.2-2.2,0.5-3.3,0.9c-1.1,0.3-2.1,0.7-3.2,1.1c-0.8,0.3-1.6,0.7-2.4,1.1c0.3-0.2,0.6-0.4,0.9-0.6
		c0.4-0.3,0.9-0.5,1.3-0.8c3.5-2.3,7-4.6,10.5-7.7l-0.3-1c-2.4-0.4-4.7-0.2-6.9,0.1c-1.7,0.2-3.4,0.6-5,1c0.1-0.2,0.3-0.5,0.4-0.7
		c0.5-0.9,0.9-1.9,1-3c0.1-0.6,0.1-1.3,0.1-1.9l0.1-0.1l-0.1-0.3c0-1.6-0.1-3.1,0.4-4.5c0.7-2,2.3-3.7,4.2-4.9
		c1-0.6,1.9-1.2,2.8-1.8s1.6-1.3,2.4-1.9c1.5-1.2,3.1-2.2,4.3-3.3c4,0.5,8,1.1,12,1.8C509.6,154.7,516.6,155.8,523.6,157.3z
		 M482.7,386.4c-0.2,1.8-0.2,3.5-0.2,5.3c-0.1-1-0.4-2-0.6-3.1l-0.4-1.7c-0.1-0.6-0.3-1.1-0.5-1.7c-0.3-1.1-0.7-2.2-0.9-3.3
		c-0.3-1.1-0.6-2.1-0.9-3.2c-0.1-0.5-0.2-1.1-0.3-1.6c-0.1-0.5-0.2-1.1-0.3-1.6c-0.2-1.1-0.4-2.2-0.5-3.3c-0.2-1.1-0.4-2.2-0.6-3.3
		l-0.2-1.7l-0.3-1.7c-0.3-2.1-0.8-4.3-1.5-6.3l0.9,0.9l2,2.4l1,1.2c0.3,0.4,0.6,0.9,0.9,1.3c0.6,0.9,1.1,1.8,1.6,2.7
		c0.4,1,0.8,1.9,1.1,2.9c0.2,0.5,0.3,1,0.5,1.5c0.1,0.5,0.2,1,0.3,1.5c0.1,1,0.2,2.1,0.3,3.1c0,1.1-0.1,2.1-0.2,3.2
		s-0.2,2.1-0.4,3.1C482.9,384.4,482.8,385.4,482.7,386.4z M473.6,397.1c0-1-0.2-2.1-0.3-3.1l-0.3-1.7c-0.1-0.6-0.2-1.1-0.3-1.7
		c-0.2-1.1-0.5-2.2-0.6-3.3c-0.2-1.1-0.4-2.2-0.6-3.3c-0.1-0.5-0.1-1.1-0.2-1.6s-0.2-1.1-0.2-1.6c-0.1-1.1-0.2-2.2-0.3-3.3
		c-0.1-1.1-0.2-2.2-0.3-3.3l-0.1-1.7l-0.2-1.7c-0.1-2.2-0.4-4.3-1-6.4l0.8,1l1.8,2.5l0.9,1.3c0.3,0.4,0.5,0.9,0.7,1.4
		c0.5,0.9,0.9,1.9,1.3,2.8c0.3,1,0.6,2,0.8,3c0.1,0.5,0.2,1,0.3,1.5c0.1,0.5,0.1,1,0.1,1.6c0,1,0,2.1,0,3.1
		c-0.1,1.1-0.3,2.1-0.5,3.2c-0.2,1-0.4,2.1-0.7,3.1c-0.3,1-0.4,2-0.6,3C473.9,393.6,473.7,395.3,473.6,397.1z M463.5,407
		c-0.1,0.5-0.1,1-0.2,1.5c-0.3,2.3-0.5,4.7-0.7,7.1c-0.3-0.8-0.7-1.5-1.3-2c-0.1-0.1-0.2-0.2-0.3-0.2c0.3-0.5,0.5-1.1,0.7-1.7
		c0.4-1,0.9-2.1,1.2-3.2c0.3-0.8,0.5-1.6,0.7-2.4C463.6,406.4,463.5,406.7,463.5,407z M282.3,184c0-0.6-0.1-1.2-0.2-1.8
		c-0.3-1.2-0.5-2.4-1-3.6c-0.8-2.4-2.1-4.8-4-6.7c-1.2-1.3-2.6-2.4-4.2-3.2c19.3-6.3,39.2-11,59.3-14.5c2.2-0.4,4.4-0.7,6.6-1
		c0.8,0.6,1.6,1.1,2.4,1.8c0.8,0.6,1.5,1.3,2.4,1.9c0.9,0.6,1.8,1.2,2.8,1.8c1.9,1.2,3.5,2.8,4.2,4.9c0.8,2,0.2,4.7,0.5,6.8
		c0.1,1.1,0.5,2.1,1,3s1,1.8,1.7,2.7l0.1,0.1c-0.3,0.8-0.6,1.6-0.8,2.4c-0.4,1.1-0.6,2.2-0.9,3.3c-0.2,1.1-0.5,2.2-0.6,3.3
		c-0.1,0.8-0.2,1.7-0.3,2.5c0-0.3,0-0.6,0-0.9c0-0.5,0-1-0.1-1.5c-0.2-4.1-0.5-8.3-1.4-12.9l-1-0.3c-1.5,1.9-2.5,3.9-3.4,6
		s-1.5,4.3-2,6.5c-0.3,1.1-0.4,2.2-0.6,3.3c-0.1,1.1-0.3,2.2-0.3,3.4c0,0.8-0.1,1.7-0.1,2.5c0-0.3-0.1-0.6-0.1-0.9
		c-0.1-0.5-0.1-1-0.2-1.5c-0.6-4.1-1.3-8.3-2.5-12.7l-1-0.2c-1.3,2-2.2,4.1-2.9,6.3c-0.7,2.2-1.1,4.4-1.4,6.6
		c-0.2,1.1-0.2,2.2-0.3,3.4c0,1.1-0.1,2.2,0,3.4c0,0.8,0.1,1.7,0.1,2.5c-0.1-0.3-0.1-0.6-0.2-0.8c-0.1-0.5-0.2-1-0.3-1.5
		c-1-4-2-8.1-3.6-12.4l-1-0.1c-1.1,2.1-1.8,4.3-2.3,6.5s-0.8,4.5-0.8,6.7c-0.1,1.1,0,2.2,0,3.4c0.1,1.1,0.1,2.2,0.3,3.4
		c0.1,0.8,0.2,1.7,0.4,2.5c-0.1-0.3-0.2-0.5-0.3-0.8c-0.2-0.5-0.3-1-0.5-1.5c-1.3-3.9-2.7-7.9-4.7-12.1h-1c-1,2.2-1.4,4.4-1.7,6.7
		c-0.3,2.3-0.4,4.5-0.3,6.8c0,1.1,0.2,2.2,0.3,3.4c0.2,1.1,0.3,2.2,0.6,3.3c0.2,0.8,0.3,1.6,0.6,2.4c-0.1-0.3-0.2-0.5-0.3-0.8
		c-0.2-0.5-0.4-1-0.6-1.4c-1.6-3.8-3.4-7.7-5.7-11.6l-1,0.1c-0.8,2.3-1,4.6-1.1,6.8c-0.1,2.3,0,4.5,0.3,6.7c0.1,1.1,0.4,2.2,0.6,3.3
		c0.3,1.1,0.5,2.2,0.9,3.3c0.3,0.9,0.5,1.7,0.9,2.5c-0.2-0.3-0.3-0.6-0.5-0.9c-0.2-0.5-0.5-0.9-0.7-1.4c-2-3.7-4-7.3-6.7-11.1
		l-1,0.2c-0.6,2.3-0.6,4.6-0.5,6.9c0,0.3,0,0.5,0.1,0.8c-1.7-1.2-3.3-2.2-4.8-3.3s-2.9-2.1-4.3-3.1c-1.4-1.1-2.7-2.1-4.2-3.1
		s-3-1.9-4.5-3.1c-1.5-1.1-2.7-2.6-3.7-4.2c-0.2-0.4-0.4-0.8-0.6-1.3c-0.2-0.4-0.3-0.9-0.5-1.3c-0.1-0.4-0.3-0.9-0.3-1.4
		c-0.1-0.5-0.2-0.9-0.2-1.4c-0.1-0.9-0.1-1.9,0-2.8c0.1-0.9,0.2-1.9,0.4-2.8l0.3-1.4c0.1-0.5,0.2-1.1,0.3-1.6
		c0.1-0.5,0.2-1.1,0.2-1.7c0-0.6,0.1-1.1,0.1-1.7v-0.9L282.3,184z M370,185.6l0.1,1.7c0,0.6,0.1,1.1,0.2,1.7
		c0.1,1.1,0.3,2.3,0.4,3.4c0.2,1.1,0.3,2.2,0.3,3.3c0,0.5,0,1.1,0,1.6s0.1,1.1,0.1,1.6c0,1.1,0,2.2,0,3.3s0,2.2,0,3.3l-0.1,1.7v1.7
		c-0.1,2.2,0,4.3,0.4,6.5l-0.7-1l-1.5-2.7l-0.8-1.4c-0.2-0.5-0.4-1-0.6-1.4c-0.4-1-0.7-2-1.1-3c-0.3-1-0.4-2-0.6-3.1
		c-0.1-0.5-0.1-1-0.2-1.6c0-0.5,0-1,0-1.6c0-1,0.1-2.1,0.3-3.1c0.2-1,0.5-2.1,0.8-3.1s0.6-2,0.9-3c0.4-1,0.6-2,0.9-3
		c0.5-1.7,0.8-3.4,1.1-5.2C369.9,183.5,369.9,184.5,370,185.6z M519.2,340.8c-0.8-0.8-1.7-1.6-2.4-2.4c-0.8-0.8-1.6-1.5-2.4-2.3
		c-0.4-0.4-0.7-0.8-1.1-1.2c-0.4-0.4-0.7-0.8-1.1-1.2c-0.7-0.8-1.4-1.7-2.1-2.6c-0.7-0.8-1.4-1.7-2.1-2.6l-1-1.4l-1.1-1.3
		c-1.3-1.7-2.8-3.3-4.5-4.7l1.2,0.4l2.9,1.1l1.5,0.6c0.5,0.2,0.9,0.5,1.4,0.7c0.9,0.5,1.8,1,2.7,1.6c0.8,0.6,1.6,1.3,2.4,2
		c0.4,0.3,0.8,0.7,1.1,1.1c0.4,0.4,0.7,0.8,1,1.2c0.6,0.8,1.2,1.7,1.8,2.6c0.5,0.9,1,1.9,1.4,2.9c0.5,0.9,0.8,1.9,1.2,2.9
		s0.8,1.9,1.2,2.9c0.7,1.7,1.6,3.2,2.5,4.7c-0.6-0.8-1.3-1.6-2.1-2.4l-1.2-1.2C520,341.6,519.6,341.2,519.2,340.8z M460,388.3
		c-0.1,1-0.3,2.1-0.6,3.1c-0.3,1-0.7,2-1,3s-0.8,2-1.2,2.9c-0.4,1-0.8,1.9-1.2,2.9c-0.7,1.7-1.1,3.3-1.5,5.1c0.2-1,0.2-2.1,0.2-3.1
		v-1.7c0-0.6,0-1.2,0-1.7c0-1.1-0.1-2.3-0.1-3.4c-0.1-1.1-0.1-2.2,0-3.3c0-0.6,0.1-1.1,0.1-1.6s0-1.1,0.1-1.6
		c0.1-1.1,0.2-2.2,0.3-3.3c0.1-1.1,0.2-2.2,0.3-3.3l0.2-1.7l0.1-1.7c0.3-2.1,0.3-4.3,0.1-6.5l0.6,1.1l1.3,2.8l0.6,1.4
		c0.2,0.5,0.3,1,0.5,1.5c0.3,1,0.6,2,0.8,3c0.2,1,0.2,2.1,0.3,3.1c0,0.5,0,1,0.1,1.6C460.1,387.2,460.1,387.7,460,388.3z
		 M351.4,197.6c0.2-1.8,0.2-3.5,0.2-5.3c0.1,1,0.4,2,0.6,3.1l0.4,1.7c0.1,0.6,0.3,1.1,0.5,1.7c0.3,1.1,0.7,2.2,0.9,3.3
		c0.3,1.1,0.6,2.1,0.9,3.2c0.1,0.5,0.2,1.1,0.3,1.6c0.1,0.5,0.2,1.1,0.3,1.6c0.2,1.1,0.4,2.2,0.5,3.3c0.2,1.1,0.4,2.2,0.6,3.3
		l0.2,1.7l0.3,1.7c0.3,2.1,0.8,4.3,1.5,6.3l-0.9-0.9l-2-2.4l-1-1.2c-0.3-0.4-0.6-0.9-0.9-1.3c-0.6-0.9-1.1-1.8-1.6-2.7
		c-0.4-1-0.8-1.9-1.1-2.9c-0.2-0.5-0.3-1-0.5-1.5c-0.1-0.5-0.2-1-0.3-1.5c-0.1-1-0.2-2.1-0.3-3.1c0-1.1,0.1-2.1,0.2-3.2
		c0.1-1.1,0.2-2.1,0.4-3.1C351.2,199.6,351.3,198.6,351.4,197.6z M463.2,189.2c1-0.4,1.9-0.8,2.9-1.2c1.7-0.7,3.2-1.6,4.7-2.5
		c-0.8,0.6-1.6,1.3-2.4,2.1l-1.2,1.2c-0.4,0.4-0.8,0.8-1.2,1.3c-0.8,0.8-1.6,1.7-2.4,2.4c-0.8,0.8-1.5,1.6-2.3,2.4
		c-0.4,0.4-0.8,0.7-1.2,1.1c-0.4,0.4-0.8,0.7-1.2,1.1c-0.8,0.7-1.7,1.4-2.6,2.1c-0.8,0.7-1.7,1.4-2.6,2.1l-1.4,1l-1.3,1.1
		c-1.7,1.3-3.3,2.8-4.7,4.5l0.4-1.2l1.1-2.9l0.6-1.5c0.2-0.5,0.5-0.9,0.7-1.4c0.5-0.9,1-1.8,1.6-2.7c0.6-0.8,1.3-1.6,2-2.4
		c0.3-0.4,0.7-0.8,1.1-1.1c0.4-0.4,0.8-0.7,1.2-1c0.8-0.6,1.7-1.2,2.6-1.8c0.9-0.5,1.9-1,2.9-1.4
		C461.2,189.9,462.2,189.5,463.2,189.2z M386.1,328.1c-1.6,0.8-3,1.9-4.3,3.2c0.5-1.7,1.2-3.5,1.9-5.3l-0.7-0.7
		c-1.6,0.7-3.1,1.6-4.5,2.8c0.6-1.7,1.5-3.3,2.4-5.2l-0.6-0.8c-1.7,0.6-3.3,1.4-4.8,2.4c0.8-1.6,1.8-3.2,2.8-4.9l-0.6-0.8
		c-1.7,0.4-3.4,1.1-4.9,2c0.9-1.5,2-3,3.3-4.7l-0.5-0.9c-1.7,0.3-3.5,0.8-5.1,1.6c1-1.4,2.3-2.8,3.6-4.4l-0.4-0.9
		c-1.8,0.1-3.5,0.5-5.2,1.1c1.1-1.3,2.5-2.6,4-4l-0.3-0.9c-1.8,0-3.5,0.2-5.3,0.7c1.3-1.2,2.7-2.4,4.4-3.7l-0.3-1
		c-1.8-0.2-3.5-0.1-5.3,0.2c1.4-1.1,2.9-2.2,4.7-3.3l-0.2-1c-1.7-0.4-3.5-0.5-5.3-0.3c1.5-1,3.1-1.9,4.9-2.8l-0.1-1
		c-1.7-0.5-3.5-0.8-5.3-0.7c1.5-0.9,3.3-1.6,5.1-2.4v-1c-1.6-0.6-3.4-1.1-5.2-1.2c1.6-0.7,3.4-1.3,5.3-2l0.1-1
		c-1.6-0.8-3.3-1.3-5.1-1.6c1.7-0.6,3.5-1,5.5-1.5l0.2-1c-1.5-0.9-3.1-1.6-4.9-2.1c1.7-0.4,3.6-0.7,5.6-1l0.3-1
		c-1.4-1.1-3-1.9-4.7-2.5c1.7-0.3,3.6-0.4,5.7-0.5l0.3-0.9c-1.3-1.2-2.8-2.1-4.5-2.9c1.8-0.1,3.6-0.1,5.7,0l0.4-0.9
		c-1.2-1.3-2.6-2.4-4.2-3.3c1.8,0,3.6,0.2,5.7,0.5l0.5-0.9c-1.1-1.4-2.4-2.6-3.9-3.6c1.8,0.2,3.6,0.6,5.6,1l0.6-0.8
		c-1-1.5-2.2-2.8-3.6-4c1.7,0.3,3.5,0.9,5.5,1.5l0.6-0.8c-0.8-1.6-1.9-3-3.2-4.3c1.7,0.5,3.5,1.2,5.3,1.9l0.7-0.7
		c-0.7-1.6-1.6-3.1-2.8-4.5c1.7,0.6,3.3,1.5,5.2,2.4l0.8-0.6c-0.6-1.7-1.4-3.3-2.4-4.8c1.6,0.8,3.2,1.8,4.9,2.8l0.8-0.6
		c-0.4-1.7-1.1-3.4-2-4.9c1.5,0.9,3,2,4.7,3.3l0.9-0.5c-0.3-1.7-0.8-3.5-1.6-5.1c1.4,1,2.8,2.3,4.4,3.6l0.9-0.4
		c-0.1-1.8-0.5-3.5-1.1-5.2c1.3,1.1,2.6,2.5,4,4l0.9-0.3c0-1.8-0.2-3.5-0.7-5.3c1.2,1.3,2.4,2.7,3.7,4.4l1-0.3
		c0.2-1.8,0.1-3.5-0.2-5.3c1.1,1.4,2.2,2.9,3.3,4.7l1-0.2c0.4-1.7,0.5-3.5,0.3-5.3c1,1.5,1.9,3.1,2.8,4.9l1-0.1
		c0.5-1.7,0.8-3.5,0.7-5.3c0.9,1.5,1.6,3.3,2.4,5.1h1c0.6-1.6,1.1-3.4,1.2-5.2c0.7,1.6,1.3,3.4,2,5.3l1,0.1c0.8-1.6,1.3-3.3,1.6-5.1
		c0.6,1.7,1,3.5,1.5,5.5l1,0.2c0.9-1.5,1.6-3.1,2.1-4.9c0.4,1.7,0.7,3.6,1,5.6l1,0.3c1.1-1.4,1.9-3,2.5-4.7c0.3,1.7,0.4,3.6,0.5,5.7
		l0.9,0.3c1.2-1.3,2.1-2.8,2.9-4.5c0.1,1.8,0.1,3.7,0,5.7l0.9,0.4c1.3-1.2,2.4-2.6,3.3-4.2c0,1.8-0.2,3.6-0.5,5.7l0.9,0.5
		c1.4-1.1,2.6-2.4,3.6-3.9c-0.2,1.8-0.6,3.6-1,5.6l0.8,0.6c1.5-1,2.8-2.2,4-3.6c-0.3,1.7-0.9,3.5-1.5,5.5l0.8,0.6
		c1.6-0.8,3-1.9,4.3-3.2c-0.5,1.7-1.2,3.5-1.9,5.3l0.7,0.7c1.6-0.7,3.1-1.6,4.5-2.8c-0.6,1.7-1.5,3.3-2.4,5.2l0.6,0.8
		c1.7-0.6,3.3-1.4,4.8-2.4c-0.8,1.6-1.8,3.2-2.8,4.9l0.6,0.8c1.7-0.4,3.4-1.1,4.9-2c-0.9,1.5-2,3-3.3,4.7l0.5,0.9
		c1.7-0.3,3.5-0.8,5.1-1.6c-1,1.4-2.3,2.8-3.6,4.4l0.4,0.9c1.8-0.1,3.5-0.5,5.2-1.1c-1.1,1.3-2.5,2.6-4,4l0.3,0.9
		c1.8,0,3.5-0.2,5.3-0.7c-1.3,1.2-2.7,2.4-4.4,3.7l0.3,1c1.8,0.2,3.5,0.1,5.3-0.2c-1.4,1.1-2.9,2.2-4.7,3.3l0.2,1
		c1.7,0.4,3.5,0.5,5.3,0.3c-1.5,1-3.1,1.9-4.9,2.8l0.1,1c1.7,0.5,3.5,0.8,5.3,0.7c-1.5,0.9-3.3,1.6-5.1,2.4v1
		c1.6,0.6,3.4,1.1,5.2,1.2c-1.6,0.7-3.4,1.3-5.3,2l-0.1,1c1.6,0.8,3.3,1.3,5.1,1.6c-1.7,0.6-3.5,1-5.5,1.5l-0.2,1
		c1.5,0.9,3.1,1.6,4.9,2.1c-1.7,0.4-3.6,0.7-5.6,1l-0.3,1c1.4,1.1,3,1.9,4.7,2.5c-1.7,0.3-3.6,0.4-5.7,0.5l-0.3,0.9
		c1.3,1.2,2.8,2.1,4.5,2.9c-1.8,0.1-3.6,0.1-5.7,0l-0.4,0.9c1.2,1.3,2.6,2.4,4.2,3.3c-1.8,0-3.6-0.2-5.7-0.5l-0.5,0.9
		c1.1,1.4,2.4,2.6,3.9,3.6c-1.8-0.2-3.6-0.6-5.6-1l-0.6,0.8c1,1.5,2.2,2.8,3.6,4c-1.7-0.3-3.5-0.9-5.5-1.5l-0.6,0.8
		c0.8,1.6,1.9,3,3.2,4.3c-1.7-0.5-3.5-1.2-5.3-1.9l-0.7,0.7c0.7,1.6,1.6,3.1,2.8,4.5c-1.7-0.6-3.3-1.5-5.2-2.4l-0.8,0.6
		c0.6,1.7,1.4,3.3,2.4,4.8c-1.6-0.8-3.2-1.8-4.9-2.8l-0.8,0.6c0.4,1.7,1.1,3.4,2,4.9c-1.5-0.9-3-2-4.7-3.3l-0.9,0.5
		c0.3,1.7,0.8,3.5,1.6,5.1c-1.4-1-2.8-2.3-4.4-3.6l-0.9,0.4c0.1,1.8,0.5,3.5,1.1,5.2c-1.3-1.1-2.6-2.5-4-4l-0.9,0.3
		c0,1.8,0.2,3.5,0.7,5.3c-1.2-1.3-2.4-2.7-3.7-4.4l-1,0.3c-0.2,1.8-0.1,3.5,0.2,5.3c-1.1-1.4-2.2-2.9-3.3-4.7l-1,0.2
		c-0.4,1.7-0.4,3.5-0.3,5.3c-1-1.5-1.9-3.1-2.8-4.9l-1,0.1c-0.5,1.7-0.8,3.5-0.7,5.3c-0.9-1.5-1.6-3.3-2.4-5.1h-1
		c-0.6,1.6-1.1,3.4-1.2,5.2c-0.7-1.6-1.3-3.4-2-5.3l-1-0.1c-0.8,1.6-1.3,3.3-1.6,5.1c-0.6-1.7-1-3.5-1.5-5.5l-1-0.2
		c-0.9,1.5-1.6,3.1-2.1,4.9c-0.4-1.7-0.7-3.6-1-5.6l-1-0.3c-1.1,1.4-1.9,3-2.5,4.7c-0.3-1.7-0.4-3.6-0.5-5.7l-0.9-0.3
		c-1.2,1.3-2.1,2.8-2.9,4.5c-0.1-1.8-0.1-3.7,0-5.7l-0.9-0.4c-1.3,1.2-2.4,2.6-3.3,4.2c0-1.8,0.2-3.6,0.5-5.7l-0.9-0.5
		c-1.4,1.1-2.6,2.4-3.6,3.9c0.2-1.8,0.6-3.6,1-5.6l-0.8-0.6c-1.5,1-2.8,2.2-4,3.6c0.3-1.7,0.9-3.5,1.5-5.5L386.1,328.1z
		 M350.5,222.2l0.5,1.6c0.5,2.1,1.2,4.2,2.1,6.2l-0.9-0.8L350,227l-1.1-1.1c-0.3-0.4-0.7-0.8-1-1.2c-0.6-0.8-1.2-1.7-1.8-2.6
		c-0.5-0.9-0.9-1.9-1.3-2.8c-0.2-0.5-0.4-1-0.6-1.5s-0.3-1-0.4-1.5c-0.2-1-0.4-2.1-0.5-3.1c-0.1-1.1-0.1-2.1-0.1-3.2
		c0-1.1,0.1-2.1,0.1-3.2c0.1-1.1,0.1-2.1,0.1-3.1c0-1.8-0.1-3.5-0.3-5.3c0.2,1,0.5,2,0.8,3l0.5,1.6c0.2,0.5,0.4,1.1,0.6,1.6
		c0.4,1.1,0.8,2.1,1.2,3.2c0.4,1,0.8,2.1,1.2,3.1c0.2,0.5,0.3,1.1,0.5,1.6s0.3,1,0.5,1.6c0.3,1,0.6,2.1,0.8,3.2
		c0.3,1.1,0.6,2.1,0.8,3.2L350.5,222.2z M343.1,223.5c0.4,1,0.8,2.1,1.1,3.2l0.5,1.6l0.6,1.6c0.7,2.1,1.5,4.1,2.6,6l-1-0.7l-2.4-2
		l-1.2-1c-0.4-0.4-0.7-0.8-1.1-1.1c-0.7-0.8-1.4-1.6-2-2.4c-0.6-0.9-1.1-1.8-1.6-2.7c-0.2-0.5-0.5-0.9-0.7-1.4s-0.4-1-0.5-1.5
		c-0.3-1-0.6-2-0.8-3c-0.2-1.1-0.3-2.1-0.3-3.2c-0.1-1-0.1-2.1-0.1-3.2c0-1.1-0.1-2.1-0.2-3.1c-0.1-1.8-0.4-3.5-0.7-5.2
		c0.3,1,0.7,2,1.1,2.9l0.7,1.6c0.2,0.5,0.5,1,0.8,1.5c0.5,1,1,2,1.5,3s1,2,1.4,3c0.2,0.5,0.4,1,0.6,1.5s0.4,1,0.6,1.5
		C342.4,221.4,342.7,222.4,343.1,223.5z M334.5,224.2c0.3,0.5,0.5,1,0.7,1.5c0.3,0.5,0.5,1,0.8,1.5c0.5,1,0.9,2,1.4,3s1,2,1.4,3
		l0.6,1.6l0.8,1.5c0.8,2,1.9,3.9,3.1,5.7l-1.1-0.6l-2.5-1.8l-1.3-0.9c-0.4-0.3-0.8-0.7-1.2-1c-0.8-0.7-1.5-1.5-2.2-2.2
		c-0.7-0.8-1.2-1.7-1.8-2.5c-0.3-0.4-0.6-0.9-0.8-1.3c-0.2-0.5-0.5-0.9-0.7-1.4c-0.4-1-0.8-2-1.1-3c-0.2-1-0.4-2.1-0.6-3.1
		s-0.3-2.1-0.4-3.1c-0.1-1.1-0.3-2.1-0.4-3.1c-0.3-1.8-0.7-3.5-1.2-5.2c0.4,1,0.9,1.9,1.4,2.8l0.8,1.5c0.3,0.5,0.6,1,0.9,1.5
		c0.6,1,1.2,1.9,1.7,2.9C333.5,222.3,334,223.2,334.5,224.2z M327,228.9c0.7,0.9,1.3,1.8,1.9,2.7c0.3,0.5,0.6,0.9,0.9,1.4
		s0.6,0.9,0.9,1.4c0.6,0.9,1.1,1.9,1.6,2.9c0.6,0.9,1.1,1.9,1.6,2.9l0.8,1.5l0.9,1.5c1,1.9,2.2,3.7,3.6,5.4l-1.1-0.6l-2.7-1.5
		l-1.3-0.8c-0.4-0.3-0.8-0.6-1.3-0.9c-0.8-0.6-1.6-1.3-2.4-2c-0.7-0.7-1.4-1.6-2-2.4c-0.3-0.4-0.6-0.8-0.9-1.3
		c-0.3-0.4-0.5-0.9-0.8-1.4c-0.5-0.9-0.9-1.9-1.3-2.9c-0.3-1-0.6-2-0.9-3.1c-0.3-1-0.5-2.1-0.7-3.1s-0.5-2-0.7-3
		c-0.4-1.7-1-3.4-1.6-5c0.5,0.9,1,1.8,1.6,2.7l0.9,1.4c0.3,0.5,0.7,0.9,1,1.4C325.7,227.1,326.4,228,327,228.9z M321.9,237
		c0.8,0.8,1.5,1.7,2.2,2.5c0.3,0.4,0.6,0.9,1,1.3c0.3,0.4,0.7,0.9,1,1.3c0.7,0.9,1.3,1.8,1.9,2.7c0.7,0.9,1.3,1.8,1.9,2.8l0.9,1.4
		l1,1.4c1.2,1.8,2.5,3.5,4.1,5.1l-1.2-0.5l-2.8-1.3l-1.4-0.7c-0.5-0.2-0.9-0.5-1.3-0.8c-0.9-0.6-1.7-1.2-2.6-1.8
		c-0.8-0.7-1.5-1.4-2.2-2.2c-0.4-0.4-0.7-0.8-1-1.2s-0.6-0.9-0.9-1.3c-0.6-0.9-1.1-1.8-1.6-2.7c-0.4-1-0.8-2-1.1-3c-0.4-1-0.7-2-1-3
		s-0.6-2-1-3c-0.6-1.7-1.3-3.3-2.1-4.9c0.5,0.9,1.2,1.7,1.8,2.5l1.1,1.3c0.4,0.4,0.8,0.9,1.1,1.3C320.4,235.3,321.1,236.2,321.9,237
		z M315,243.2c0.8,0.8,1.7,1.6,2.4,2.4c0.8,0.8,1.6,1.5,2.4,2.3c0.4,0.4,0.7,0.8,1.1,1.2s0.7,0.8,1.1,1.2c0.7,0.8,1.4,1.7,2.1,2.6
		c0.7,0.8,1.4,1.7,2.1,2.6l1,1.4l1.1,1.3c1.3,1.7,2.8,3.3,4.5,4.7l-1.2-0.4l-2.9-1.1l-1.5-0.6c-0.5-0.2-0.9-0.5-1.4-0.7
		c-0.9-0.5-1.8-1-2.7-1.6c-0.8-0.6-1.6-1.3-2.4-2c-0.4-0.3-0.8-0.7-1.1-1.1c-0.4-0.4-0.7-0.8-1-1.2c-0.6-0.8-1.2-1.7-1.8-2.6
		c-0.5-0.9-1-1.9-1.4-2.9c-0.5-0.9-0.8-1.9-1.2-2.9c-0.4-1-0.8-1.9-1.2-2.9c-0.7-1.7-1.6-3.2-2.5-4.7c0.6,0.8,1.3,1.6,2.1,2.4
		l1.2,1.2C314.1,242.4,314.6,242.8,315,243.2z M309.8,251.2c0.4,0.4,0.9,0.7,1.4,1.1c0.9,0.7,1.8,1.4,2.6,2.1
		c0.9,0.7,1.8,1.4,2.6,2.1c0.4,0.4,0.8,0.8,1.2,1.1c0.4,0.4,0.8,0.7,1.2,1.1c0.8,0.7,1.5,1.6,2.3,2.4s1.6,1.6,2.3,2.4l1.1,1.3
		l1.2,1.2c1.5,1.6,3.1,3,4.9,4.3l-1.2-0.2l-3-0.8l-1.5-0.4c-0.5-0.2-1-0.4-1.5-0.6c-1-0.4-1.9-0.9-2.8-1.3c-0.9-0.5-1.7-1.1-2.6-1.8
		c-0.4-0.3-0.8-0.6-1.2-1c-0.4-0.3-0.7-0.7-1.1-1.1c-0.7-0.8-1.4-1.6-2-2.4c-0.6-0.9-1.1-1.8-1.6-2.7c-0.5-0.9-1-1.9-1.5-2.8
		c-0.5-1-1-1.8-1.5-2.7c-0.9-1.6-1.9-3.1-2.9-4.5c0.7,0.8,1.5,1.5,2.3,2.2L309.8,251.2z M300.7,289.7l1.6,0.6
		c0.5,0.2,1.1,0.4,1.6,0.5c1.1,0.3,2.2,0.7,3.2,1.1c1.1,0.3,2.1,0.7,3.1,1.1c0.5,0.2,1,0.4,1.5,0.7c0.5,0.2,1,0.4,1.5,0.6
		c1,0.4,2,0.9,3,1.4c1,0.4,2,0.9,3,1.4l1.5,0.8l1.6,0.7c1.9,1,3.9,1.8,6.1,2.4l-1.2,0.2l-3.1,0.3l-1.6,0.1c-0.5,0-1,0-1.6,0
		c-1-0.1-2.1-0.1-3.1-0.3c-1-0.2-2-0.5-3-0.8c-0.5-0.1-1-0.3-1.5-0.5s-1-0.4-1.4-0.7c-0.9-0.5-1.8-1-2.7-1.6c-0.9-0.6-1.7-1.3-2.5-2
		s-1.6-1.4-2.3-2.1c-0.8-0.7-1.6-1.4-2.3-2.1c-1.4-1.2-2.8-2.2-4.3-3.2C298.7,288.9,299.7,289.3,300.7,289.7z M298.6,278
		c0.9,0.6,1.8,1.1,2.8,1.6l1.5,0.8c0.5,0.2,1.1,0.5,1.6,0.7c1.1,0.4,2.1,0.9,3.1,1.4c1,0.4,2.1,0.9,3,1.4c0.5,0.2,1,0.5,1.4,0.8
		c0.5,0.2,1,0.5,1.5,0.8c1,0.5,1.9,1.1,2.8,1.7c1,0.5,1.9,1.1,2.9,1.7l1.4,0.9l1.5,0.8c1.8,1.1,3.8,2.1,5.8,2.9l-1.2,0.1h-3.1H322
		c-0.5,0-1-0.1-1.6-0.2c-1-0.1-2.1-0.3-3.1-0.6c-1-0.3-2-0.7-2.9-1c-0.5-0.2-1-0.4-1.4-0.6c-0.5-0.2-0.9-0.5-1.4-0.8
		c-0.9-0.6-1.7-1.2-2.6-1.8c-0.8-0.7-1.6-1.5-2.3-2.2c-0.8-0.7-1.5-1.5-2.1-2.3c-0.7-0.8-1.4-1.5-2.1-2.3
		C301.3,280.3,300,279.1,298.6,278z M300.9,299.9l1.6,0.5c0.6,0.2,1.1,0.3,1.7,0.4c1.1,0.2,2.2,0.5,3.3,0.8c1.1,0.2,2.2,0.5,3.2,0.9
		c0.5,0.2,1,0.4,1.6,0.5c0.5,0.2,1,0.3,1.6,0.5c1,0.3,2.1,0.8,3.1,1.2c1,0.3,2.1,0.7,3.1,1.2l1.6,0.7l1.6,0.6c2,0.8,4.1,1.4,6.3,1.8
		l-1.2,0.3l-3,0.5l-1.5,0.3c-0.5,0.1-1,0.1-1.6,0.1c-1,0-2.1,0-3.1,0c-1-0.1-2.1-0.3-3.1-0.5c-0.5-0.1-1-0.2-1.5-0.4
		c-0.5-0.1-1-0.3-1.5-0.5c-1-0.4-1.9-0.8-2.8-1.3c-0.9-0.6-1.8-1.2-2.6-1.8c-0.9-0.6-1.7-1.3-2.5-1.9c-0.8-0.7-1.7-1.2-2.5-1.9
		c-1.5-1.1-3-2-4.5-2.8C298.9,299.3,299.9,299.6,300.9,299.9z M302.1,310l1.7,0.3c0.6,0.1,1.1,0.2,1.7,0.3c1.1,0.2,2.3,0.3,3.3,0.5
		c1.1,0.1,2.2,0.3,3.3,0.6c0.5,0.1,1.1,0.3,1.6,0.4s1.1,0.2,1.6,0.4c1.1,0.2,2.1,0.6,3.2,0.9s2.1,0.6,3.2,0.9l1.6,0.5l1.7,0.4
		c2.1,0.6,4.2,1.1,6.4,1.3l-1.2,0.4l-3,0.8l-1.5,0.4c-0.5,0.1-1,0.2-1.5,0.2c-1,0.1-2.1,0.2-3.1,0.3c-1,0-2.1-0.1-3.1-0.2
		c-0.5-0.1-1-0.1-1.5-0.2s-1-0.3-1.5-0.4c-1-0.3-2-0.7-3-1.1c-1-0.5-1.9-1-2.8-1.5s-1.8-1.1-2.7-1.7c-0.9-0.6-1.8-1.1-2.6-1.6
		c-1.5-0.9-3.1-1.7-4.8-2.4C300,309.5,301,309.8,302.1,310z M304.1,319.9l1.7,0.2c0.6,0.1,1.1,0.1,1.7,0.1c1.1,0.1,2.3,0.1,3.4,0.2
		c1.1,0,2.2,0.1,3.3,0.3c0.5,0.1,1.1,0.2,1.6,0.2c0.5,0.1,1.1,0.1,1.6,0.2c1.1,0.2,2.2,0.4,3.2,0.6c1.1,0.2,2.2,0.4,3.3,0.6l1.7,0.4
		l1.7,0.3c2.1,0.4,4.3,0.7,6.5,0.7l-1.1,0.5l-2.9,1.1l-1.5,0.5c-0.5,0.1-1,0.2-1.5,0.4c-1,0.2-2.1,0.4-3.1,0.5s-2.1,0.1-3.1,0
		c-0.5,0-1,0-1.6-0.1c-0.5-0.1-1-0.2-1.5-0.3c-1-0.2-2-0.5-3-0.8c-1-0.4-2-0.8-2.9-1.3c-1-0.4-1.9-0.9-2.8-1.5s-1.9-0.9-2.8-1.4
		c-1.6-0.8-3.2-1.4-4.9-2C302,319.7,303,319.8,304.1,319.9z M306.9,329.7h1.7c0.6,0,1.2,0,1.7,0c1.1,0,2.3-0.1,3.4-0.1
		c1.1-0.1,2.2-0.1,3.3,0c0.5,0,1.1,0.1,1.6,0.1s1.1,0,1.6,0.1c1.1,0.1,2.2,0.2,3.3,0.3c1.1,0.1,2.2,0.2,3.3,0.3l1.7,0.2l1.7,0.1
		c2.1,0.3,4.3,0.3,6.5,0.1l-1.1,0.6l-2.8,1.3l-1.4,0.6c-0.5,0.2-1,0.3-1.5,0.5c-1,0.3-2,0.6-3,0.8c-1,0.2-2.1,0.2-3.1,0.3
		c-0.5,0-1,0-1.6,0.1c-0.5,0-1-0.1-1.6-0.1c-1-0.1-2.1-0.3-3.1-0.6c-1-0.3-2-0.7-3-1s-2-0.8-2.9-1.2c-1-0.4-1.9-0.8-2.9-1.2
		c-1.7-0.7-3.3-1.1-5.1-1.5C304.8,329.6,305.9,329.6,306.9,329.7z M533.5,294.3l-1.6-0.6c-0.5-0.2-1.1-0.4-1.6-0.5
		c-1.1-0.3-2.2-0.7-3.2-1.1c-1.1-0.3-2.1-0.7-3.1-1.1c-0.5-0.2-1-0.4-1.5-0.7c-0.5-0.2-1-0.4-1.5-0.6c-1-0.4-2-0.9-3-1.4
		c-1-0.4-2-0.9-3-1.4l-1.5-0.8l-1.6-0.7c-1.9-1-3.9-1.8-6.1-2.4l1.2-0.2l3.1-0.3l1.6-0.1c0.5,0,1,0,1.6,0c1,0.1,2.1,0.1,3.1,0.3
		c1,0.2,2,0.5,3,0.8c0.5,0.1,1,0.3,1.5,0.5s1,0.4,1.4,0.7c0.9,0.5,1.8,1,2.7,1.6s1.7,1.3,2.5,2s1.6,1.4,2.3,2.1
		c0.8,0.7,1.6,1.4,2.3,2.1c1.4,1.2,2.8,2.2,4.3,3.2C535.4,295.1,534.4,294.7,533.5,294.3z M535.6,306c-0.9-0.6-1.8-1.1-2.8-1.6
		l-1.5-0.8c-0.5-0.2-1.1-0.5-1.6-0.7c-1.1-0.4-2.1-0.9-3.1-1.4c-1-0.4-2.1-0.9-3-1.4c-0.5-0.2-1-0.5-1.4-0.8c-0.5-0.2-1-0.5-1.5-0.8
		c-1-0.5-1.9-1.1-2.8-1.7c-1-0.5-1.9-1.1-2.9-1.7l-1.4-0.9l-1.5-0.8c-1.8-1.1-3.8-2.1-5.8-2.9l1.2-0.1h3.1h1.6c0.5,0,1,0.1,1.5,0.2
		c1,0.1,2.1,0.3,3.1,0.6c1,0.3,2,0.7,2.9,1c0.5,0.2,1,0.4,1.4,0.6c0.5,0.2,0.9,0.5,1.4,0.8c0.9,0.6,1.7,1.2,2.6,1.8
		c0.8,0.7,1.6,1.5,2.3,2.2c0.8,0.7,1.5,1.5,2.1,2.3c0.7,0.8,1.4,1.5,2.1,2.3C532.9,303.7,534.2,304.9,535.6,306z M533.2,284.1
		l-1.6-0.5c-0.5-0.2-1.1-0.3-1.7-0.4c-1.1-0.2-2.2-0.5-3.3-0.8c-1.1-0.2-2.2-0.5-3.2-0.9c-0.5-0.2-1-0.4-1.6-0.5
		c-0.5-0.2-1.1-0.3-1.6-0.5c-1-0.3-2.1-0.8-3.1-1.2c-1-0.3-2.1-0.7-3.1-1.2l-1.6-0.7l-1.6-0.6c-2-0.8-4.1-1.4-6.3-1.8l1.2-0.3l3-0.5
		l1.6-0.3c0.5-0.1,1-0.1,1.6-0.1c1,0,2.1,0,3.1,0c1,0.1,2.1,0.3,3.1,0.5c0.5,0.1,1,0.2,1.5,0.4c0.5,0.1,1,0.3,1.5,0.5
		c1,0.4,1.9,0.8,2.8,1.3c0.9,0.6,1.8,1.2,2.6,1.8c0.9,0.6,1.7,1.3,2.5,1.9c0.8,0.7,1.7,1.2,2.5,1.9c1.5,1.1,3,2,4.5,2.8
		C535.3,284.8,534.2,284.5,533.2,284.1z M532.1,274l-1.7-0.3c-0.6-0.1-1.1-0.2-1.7-0.3c-1.1-0.2-2.3-0.3-3.3-0.5
		c-1.1-0.1-2.2-0.3-3.3-0.6c-0.5-0.1-1.1-0.3-1.6-0.4s-1.1-0.2-1.6-0.4c-1.1-0.2-2.1-0.6-3.2-0.9c-1.1-0.3-2.1-0.6-3.2-0.9l-1.6-0.5
		l-1.7-0.4c-2.1-0.6-4.2-1.1-6.4-1.3l1.2-0.4l3-0.8l1.5-0.4c0.5-0.1,1-0.2,1.5-0.2c1-0.1,2.1-0.2,3.1-0.3c1,0,2.1,0.1,3.1,0.2
		c0.5,0.1,1,0.1,1.5,0.2s1,0.3,1.5,0.4c1,0.3,2,0.7,3,1.1c1,0.5,1.9,1,2.8,1.5c0.9,0.5,1.8,1.1,2.7,1.7s1.8,1.1,2.6,1.6
		c1.5,0.9,3.1,1.7,4.8,2.4C534.2,274.5,533.1,274.3,532.1,274z M530.1,264.1l-1.7-0.2c-0.6-0.1-1.1-0.1-1.7-0.1
		c-1.1-0.1-2.3-0.1-3.4-0.2c-1.1,0-2.2-0.1-3.3-0.3c-0.5-0.1-1.1-0.2-1.6-0.2c-0.5-0.1-1.1-0.1-1.6-0.2c-1.1-0.2-2.2-0.4-3.2-0.6
		c-1.1-0.2-2.2-0.4-3.3-0.6l-1.7-0.4l-1.7-0.3c-2.1-0.4-4.3-0.7-6.5-0.7l1.1-0.5l2.9-1.1l1.5-0.5c0.5-0.1,1-0.2,1.5-0.4
		c1-0.2,2.1-0.4,3.1-0.5s2.1-0.1,3.1,0c0.5,0,1,0,1.6,0.1c0.5,0.1,1,0.2,1.5,0.3c1,0.2,2,0.5,3,0.8c1,0.4,2,0.8,2.9,1.3
		c1,0.4,1.9,0.9,2.8,1.5s1.9,0.9,2.8,1.4c1.6,0.8,3.2,1.4,4.9,2C532.2,264.4,531.1,264.2,530.1,264.1z M527.2,254.3h-1.7
		c-0.6,0-1.2,0-1.7,0c-1.1,0-2.3,0.1-3.4,0.1c-1.1,0.1-2.2,0.1-3.3,0c-0.6,0-1.1-0.1-1.6-0.1s-1.1,0-1.6-0.1
		c-1.1-0.1-2.2-0.2-3.3-0.3c-1.1-0.1-2.2-0.2-3.3-0.3l-1.7-0.2l-1.7-0.1c-2.1-0.3-4.3-0.3-6.5-0.1l1.1-0.6l2.8-1.3l1.4-0.6
		c0.5-0.2,1-0.3,1.5-0.5c1-0.3,2-0.6,3-0.8s2.1-0.2,3.1-0.3c0.5,0,1,0,1.6-0.1c0.5,0,1,0.1,1.6,0.1c1,0.1,2.1,0.3,3.1,0.6s2,0.7,3,1
		s2,0.8,2.9,1.2c1,0.4,1.9,0.8,2.9,1.2c1.7,0.7,3.3,1.1,5.1,1.5C529.3,254.4,528.3,254.4,527.2,254.3z M516.8,226.5
		c-1,0.1-2,0.4-3.1,0.6l-1.7,0.4c-0.6,0.1-1.1,0.3-1.7,0.5c-1.1,0.3-2.2,0.7-3.3,0.9c-1.1,0.3-2.1,0.6-3.2,0.9
		c-0.5,0.1-1.1,0.2-1.6,0.3s-1.1,0.2-1.6,0.3c-1.1,0.2-2.2,0.4-3.3,0.5c-1.1,0.2-2.2,0.4-3.3,0.6l-1.7,0.2l-1.7,0.3
		c-2.1,0.3-4.3,0.8-6.3,1.5l0.9-0.9l2.4-2l1.2-1c0.4-0.3,0.9-0.6,1.3-0.9c0.9-0.6,1.8-1.1,2.7-1.6c1-0.4,1.9-0.8,2.9-1.1
		c0.5-0.2,1-0.3,1.5-0.5c0.5-0.1,1-0.2,1.5-0.3c1-0.1,2.1-0.2,3.1-0.3c1.1,0,2.1,0.1,3.2,0.2c1.1,0.1,2.1,0.2,3.1,0.4
		s2.1,0.2,3.1,0.4C513.3,226.6,515,226.6,516.8,226.5z M507.7,218.9l-1.6,0.5c-0.5,0.2-1.1,0.4-1.6,0.6c-1.1,0.4-2.1,0.8-3.2,1.2
		c-1,0.4-2.1,0.8-3.1,1.2c-0.5,0.2-1.1,0.3-1.6,0.5s-1,0.3-1.6,0.5c-1,0.3-2.1,0.6-3.2,0.8c-1.1,0.3-2.1,0.6-3.2,0.8l-1.7,0.4
		l-1.6,0.5c-2.1,0.5-4.2,1.2-6.2,2.1l0.8-0.9l2.2-2.2l1.1-1.1c0.4-0.3,0.8-0.7,1.2-1c0.8-0.6,1.7-1.2,2.6-1.8
		c0.9-0.5,1.9-0.9,2.8-1.3c0.5-0.2,1-0.4,1.5-0.6c0.5-0.2,1-0.3,1.5-0.4c1-0.2,2.1-0.4,3.1-0.5c1.1-0.1,2.1-0.1,3.2-0.1
		s2.1,0.1,3.2,0.1c1.1,0.1,2.1,0.1,3.1,0.1c1.8,0,3.5-0.1,5.3-0.3C509.7,218.3,508.7,218.6,507.7,218.9z M501,211.3l-1.6,0.7
		c-0.5,0.2-1,0.5-1.5,0.8c-1,0.5-2,1-3,1.5s-2,1-3,1.4c-0.5,0.2-1,0.4-1.5,0.6c-0.5,0.2-1,0.4-1.5,0.6c-1,0.4-2.1,0.7-3.1,1.1
		c-1,0.4-2.1,0.8-3.2,1.1l-1.6,0.5l-1.6,0.6c-2.1,0.7-4.1,1.5-6,2.6l0.7-1l2-2.4l1-1.2c0.4-0.4,0.8-0.7,1.1-1.1
		c0.8-0.7,1.6-1.4,2.4-2c0.9-0.6,1.8-1.1,2.7-1.6c0.5-0.2,0.9-0.5,1.4-0.7s1-0.4,1.5-0.5c1-0.3,2-0.6,3-0.8c1.1-0.2,2.1-0.3,3.2-0.3
		c1-0.1,2.1-0.1,3.2-0.1s2.1-0.1,3.1-0.2c1.8-0.1,3.5-0.4,5.2-0.7C502.9,210.5,501.9,210.9,501,211.3z M493.6,204.3l-1.5,0.8
		c-0.5,0.3-1,0.6-1.5,0.9c-1,0.6-1.9,1.2-2.9,1.7c-0.9,0.6-1.9,1.2-2.9,1.7c-0.5,0.3-1,0.5-1.5,0.7c-0.5,0.3-1,0.5-1.5,0.8
		c-1,0.5-2,0.9-3,1.4s-2,1-3,1.4l-1.6,0.6l-1.5,0.8c-2,0.8-3.9,1.9-5.7,3.1l0.6-1.1l1.8-2.5l0.9-1.3c0.3-0.4,0.7-0.8,1-1.2
		c0.7-0.8,1.5-1.5,2.2-2.2c0.8-0.7,1.7-1.2,2.5-1.8c0.4-0.3,0.9-0.6,1.3-0.8c0.5-0.2,0.9-0.5,1.4-0.7c1-0.4,2-0.8,3-1.1
		c1-0.2,2.1-0.4,3.1-0.6c1-0.2,2.1-0.3,3.1-0.4c1.1-0.1,2.1-0.3,3.1-0.4c1.8-0.3,3.5-0.7,5.2-1.2
		C495.5,203.3,494.6,203.8,493.6,204.3z M485.7,198l-1.4,0.9c-0.5,0.3-0.9,0.7-1.4,1c-0.9,0.7-1.8,1.4-2.7,2
		c-0.9,0.7-1.8,1.3-2.7,1.9c-0.5,0.3-0.9,0.6-1.4,0.9c-0.5,0.3-0.9,0.6-1.4,0.9c-0.9,0.6-1.9,1.1-2.9,1.6c-0.9,0.6-1.9,1.1-2.9,1.6
		l-1.5,0.8l-1.5,0.9c-1.9,1-3.7,2.2-5.4,3.6l0.6-1.1l1.5-2.7l0.8-1.3c0.3-0.4,0.6-0.8,0.9-1.3c0.6-0.8,1.3-1.6,2-2.4
		c0.7-0.7,1.6-1.4,2.4-2c0.4-0.3,0.8-0.6,1.3-0.9c0.4-0.3,0.9-0.5,1.4-0.8c0.9-0.5,1.9-0.9,2.9-1.3c1-0.3,2-0.6,3.1-0.9
		c1-0.3,2.1-0.5,3.1-0.7s2-0.5,3-0.7c1.7-0.4,3.4-1,5-1.6C487.5,196.9,486.6,197.4,485.7,198z M477.2,192.4l-1.3,1.1
		c-0.4,0.4-0.9,0.8-1.3,1.1c-0.8,0.8-1.7,1.5-2.6,2.2c-0.8,0.8-1.7,1.5-2.5,2.2c-0.4,0.3-0.9,0.6-1.3,1c-0.4,0.3-0.9,0.7-1.3,1
		c-0.9,0.7-1.8,1.3-2.7,1.9c-0.9,0.7-1.8,1.3-2.8,1.9l-1.4,0.9l-1.4,1c-1.8,1.2-3.5,2.5-5.1,4.1l0.5-1.2l1.3-2.8l0.7-1.4
		c0.2-0.5,0.5-0.9,0.8-1.3c0.6-0.9,1.2-1.7,1.8-2.6c0.7-0.8,1.4-1.5,2.2-2.2c0.4-0.4,0.8-0.7,1.2-1c0.4-0.3,0.9-0.6,1.3-0.9
		c0.9-0.6,1.8-1.1,2.7-1.6c1-0.4,2-0.8,3-1.1c1-0.4,2-0.7,3-1s2-0.7,3-1c1.7-0.6,3.3-1.3,4.9-2.1
		C478.9,191.1,478.1,191.7,477.2,192.4z M466.3,177.3c0,0.1,0,0.2,0,0.3c-0.6,0.3-1.1,0.6-1.7,0.9c0.3-0.2,0.5-0.4,0.8-0.6
		C465.8,177.7,466.1,177.5,466.3,177.3z M459,183.4l-1.1,1.3c-0.4,0.4-0.7,0.9-1.1,1.3c-0.7,0.9-1.4,1.8-2.1,2.6
		c-0.7,0.9-1.4,1.8-2.1,2.6c-0.4,0.4-0.8,0.8-1.1,1.2c-0.4,0.4-0.7,0.8-1.1,1.2c-0.7,0.8-1.6,1.5-2.4,2.3s-1.6,1.6-2.4,2.3l-1.3,1.1
		l-1.2,1.2c-1.6,1.5-3,3.1-4.3,4.9l0.2-1.2l0.8-3l0.4-1.5c0.2-0.5,0.4-1,0.6-1.5c0.4-1,0.9-1.9,1.3-2.8c0.5-0.9,1.1-1.7,1.8-2.6
		c0.3-0.4,0.6-0.8,1-1.2c0.3-0.4,0.7-0.7,1.1-1.1c0.8-0.7,1.6-1.4,2.4-2c0.9-0.6,1.8-1.1,2.7-1.6c0.9-0.5,1.9-1,2.8-1.5
		c1-0.5,1.8-1,2.7-1.5c1.6-0.9,3.1-1.9,4.5-2.9C460.5,181.8,459.7,182.6,459,183.4z M449.4,180.2l-1,1.4c-0.3,0.5-0.6,1-0.9,1.4
		c-0.6,1-1.2,1.9-1.9,2.8c-0.6,1-1.2,1.9-1.9,2.7c-0.3,0.4-0.7,0.9-1,1.3c-0.3,0.4-0.7,0.9-1,1.3c-0.7,0.9-1.4,1.7-2.2,2.5
		c-0.7,0.9-1.4,1.7-2.2,2.5l-1.2,1.2l-1.1,1.3c-1.4,1.6-2.7,3.4-3.9,5.3l0.1-1.2l0.5-3l0.3-1.5c0.1-0.5,0.3-1,0.4-1.5
		c0.3-1,0.7-2,1.1-2.9c0.5-0.9,1-1.8,1.5-2.7c0.3-0.4,0.6-0.9,0.9-1.3c0.3-0.4,0.7-0.8,1-1.2c0.7-0.8,1.5-1.5,2.2-2.2
		c0.8-0.7,1.7-1.3,2.6-1.9c0.9-0.6,1.8-1.2,2.7-1.7c0.9-0.5,1.7-1.1,2.6-1.7c1.5-1,2.9-2.1,4.2-3.3
		C450.7,178.5,450,179.3,449.4,180.2z M439.5,177.8l-0.9,1.5c-0.3,0.5-0.5,1-0.8,1.5c-0.5,1-1.1,2-1.6,3s-1.1,2-1.7,2.9
		c-0.3,0.5-0.6,0.9-0.9,1.4s-0.6,0.9-0.9,1.4c-0.6,0.9-1.3,1.8-1.9,2.7s-1.3,1.8-1.9,2.7l-1,1.3l-1,1.4c-1.3,1.7-2.4,3.6-3.4,5.6
		V202l0.3-3.1l0.2-1.6c0.1-0.5,0.2-1,0.3-1.5c0.2-1,0.5-2,0.8-3c0.4-1,0.8-1.9,1.3-2.8c0.2-0.5,0.5-0.9,0.7-1.4
		c0.3-0.4,0.6-0.9,0.9-1.3c0.6-0.8,1.3-1.6,2-2.4c0.8-0.7,1.6-1.4,2.4-2.1c0.8-0.7,1.7-1.3,2.5-1.9c0.9-0.6,1.6-1.3,2.4-1.9
		c1.4-1.1,2.7-2.4,3.9-3.7C440.7,176,440.1,176.9,439.5,177.8z M429.5,176.3l-0.8,1.5c-0.2,0.5-0.5,1.1-0.7,1.6
		c-0.4,1.1-0.9,2.1-1.4,3.1c-0.4,1-0.9,2.1-1.4,3c-0.2,0.5-0.5,1-0.8,1.4c-0.2,0.5-0.5,1-0.8,1.5c-0.5,1-1.1,1.9-1.7,2.8
		c-0.5,1-1.1,1.9-1.7,2.9l-0.9,1.4l-0.8,1.5c-1.1,1.8-2.1,3.8-2.9,5.8l-0.1-1.2v-3.1v-1.6c0-0.5,0.1-1,0.2-1.6
		c0.1-1,0.3-2.1,0.6-3.1c0.3-1,0.7-2,1-2.9c0.2-0.5,0.4-1,0.6-1.4c0.2-0.5,0.5-0.9,0.8-1.4c0.6-0.9,1.2-1.7,1.8-2.6
		c0.7-0.8,1.5-1.6,2.2-2.3c0.7-0.8,1.5-1.5,2.3-2.1c0.8-0.7,1.5-1.4,2.3-2.1c1.3-1.2,2.5-2.6,3.6-4
		C430.5,174.4,430,175.3,429.5,176.3z M419.4,175.6l-0.6,1.6c-0.2,0.5-0.4,1.1-0.5,1.6c-0.3,1.1-0.7,2.2-1.1,3.2
		c-0.3,1.1-0.7,2.1-1.1,3.1c-0.2,0.5-0.4,1-0.7,1.5c-0.2,0.5-0.4,1-0.6,1.5c-0.4,1-0.9,2-1.4,3c-0.4,1-0.9,2-1.4,3l-0.8,1.5
		l-0.7,1.6c-1,1.9-1.8,3.9-2.4,6.1l-0.2-1.2l-0.3-3.1l-0.1-1.6c0-0.5,0-1,0-1.6c0.1-1,0.1-2.1,0.3-3.1c0.2-1,0.5-2,0.8-3
		c0.1-0.5,0.3-1,0.5-1.5s0.4-1,0.7-1.4c0.5-0.9,1-1.8,1.6-2.7s1.3-1.7,2-2.5s1.4-1.6,2.1-2.3c0.7-0.8,1.4-1.6,2.1-2.3
		c1.2-1.4,2.2-2.8,3.2-4.3C420.2,173.7,419.8,174.6,419.4,175.6z M409.2,175.9l-0.5,1.6c-0.2,0.5-0.3,1.1-0.4,1.7
		c-0.2,1.1-0.5,2.2-0.8,3.3c-0.2,1.1-0.5,2.2-0.9,3.2c-0.2,0.5-0.4,1-0.5,1.6c-0.2,0.5-0.3,1-0.5,1.6c-0.3,1-0.8,2.1-1.2,3.1
		c-0.3,1-0.7,2.1-1.2,3.1l-0.7,1.6l-0.6,1.6c-0.8,2-1.4,4.1-1.8,6.3l-0.3-1.2l-0.5-3l-0.3-1.5c-0.1-0.5-0.1-1-0.1-1.6
		c0-1,0-2.1,0-3.1c0.1-1,0.3-2.1,0.5-3.1c0.1-0.5,0.2-1,0.4-1.5c0.1-0.5,0.3-1,0.5-1.5c0.4-1,0.8-1.9,1.3-2.8
		c0.6-0.9,1.2-1.8,1.8-2.6c0.6-0.9,1.3-1.7,1.9-2.5c0.7-0.8,1.2-1.7,1.9-2.5c1.1-1.5,2-3,2.8-4.5
		C409.8,173.8,409.5,174.9,409.2,175.9z M399.1,177l-0.3,1.7c-0.1,0.6-0.2,1.1-0.3,1.7c-0.2,1.1-0.3,2.3-0.5,3.3
		c-0.1,1.1-0.3,2.2-0.6,3.3c-0.1,0.5-0.3,1.1-0.4,1.6s-0.2,1.1-0.4,1.6c-0.2,1.1-0.6,2.1-0.9,3.2c-0.3,1.1-0.6,2.1-0.9,3.2l-0.5,1.6
		l-0.4,1.7c-0.6,2.1-1.1,4.2-1.3,6.4l-0.4-1.2l-0.8-3l-0.4-1.5c-0.1-0.5-0.2-1-0.2-1.5c-0.1-1-0.2-2.1-0.3-3.1c0-1,0.1-2.1,0.2-3.1
		c0.1-0.5,0.1-1,0.2-1.5s0.3-1,0.4-1.5c0.3-1,0.7-2,1.1-3c0.5-1,1-1.9,1.5-2.8c0.5-0.9,1.1-1.8,1.7-2.7s1.1-1.8,1.6-2.6
		c0.9-1.5,1.7-3.1,2.4-4.8C399.6,174.9,399.3,176,399.1,177z M389.2,179l-0.2,1.7c-0.1,0.6-0.1,1.1-0.1,1.7
		c-0.1,1.1-0.1,2.3-0.2,3.4c0,1.1-0.1,2.2-0.3,3.3c-0.1,0.5-0.2,1.1-0.2,1.6c-0.1,0.5-0.1,1.1-0.2,1.6c-0.2,1.1-0.4,2.2-0.6,3.2
		c-0.2,1.1-0.4,2.2-0.6,3.3l-0.4,1.7l-0.3,1.7c-0.4,2.1-0.7,4.3-0.7,6.5l-0.5-1.1l-1.1-2.9l-0.5-1.5c-0.1-0.5-0.2-1-0.4-1.5
		c-0.2-1-0.4-2.1-0.5-3.1s-0.1-2.1,0-3.1c0-0.5,0-1,0.1-1.6c0.1-0.5,0.2-1,0.3-1.5c0.2-1,0.5-2,0.8-3c0.4-1,0.8-2,1.3-2.9
		c0.4-1,0.9-1.9,1.5-2.8c0.5-0.9,0.9-1.9,1.4-2.8c0.8-1.6,1.4-3.2,2-4.9C389.4,176.9,389.3,178,389.2,179z M379.4,185.3
		c0,1.1,0.1,2.3,0.1,3.4c0.1,1.1,0.1,2.2,0,3.3c0,0.6-0.1,1.1-0.1,1.6s0,1.1-0.1,1.6c-0.1,1.1-0.2,2.2-0.3,3.3
		c-0.1,1.1-0.2,2.2-0.3,3.3l-0.2,1.7l-0.1,1.7c-0.3,2.1-0.3,4.3-0.1,6.5l-0.6-1.1l-1.3-2.8l-0.6-1.4c-0.2-0.5-0.3-1-0.5-1.5
		c-0.3-1-0.6-2-0.8-3c-0.2-1-0.2-2.1-0.3-3.1c0-0.5,0-1-0.1-1.6c0-0.5,0.1-1,0.1-1.6c0.1-1,0.3-2.1,0.6-3.1c0.3-1,0.7-2,1-3
		s0.8-2,1.2-2.9c0.4-1,0.8-1.9,1.2-2.9c0.7-1.7,1.1-3.3,1.5-5.1c-0.2,1-0.2,2.1-0.2,3.1v1.7C379.4,184.1,379.4,184.7,379.4,185.3z
		 M364.1,218.8l-1.8-2.5l-0.9-1.3c-0.3-0.4-0.5-0.9-0.7-1.4c-0.5-0.9-0.9-1.9-1.3-2.8c-0.3-1-0.6-2-0.8-3c-0.1-0.5-0.2-1-0.3-1.5
		c-0.1-0.5-0.1-1-0.1-1.6c0-1,0-2.1,0-3.1c0.1-1.1,0.3-2.1,0.5-3.2c0.2-1,0.4-2.1,0.7-3.1c0.3-1,0.4-2,0.6-3
		c0.4-1.8,0.5-3.5,0.6-5.3c0,1,0.2,2.1,0.3,3.1l0.3,1.7c0.1,0.6,0.2,1.1,0.3,1.7c0.2,1.1,0.5,2.2,0.6,3.3c0.2,1.1,0.4,2.2,0.6,3.3
		c0.1,0.5,0.1,1.1,0.2,1.6s0.2,1.1,0.2,1.6c0.1,1.1,0.2,2.2,0.3,3.3c0.1,1.1,0.2,2.2,0.3,3.3l0.1,1.7l0.2,1.7c0.1,2.2,0.4,4.3,1,6.4
		L364.1,218.8z M302.3,224.9c0.9,0.1,1.7,0.1,2.6,0c0.1,0.3,0.1,0.6,0.2,0.9c0.2,1.1,0.5,2.2,0.9,3.3c0.3,1.1,0.7,2.1,1.1,3.2
		c0.3,0.8,0.7,1.6,1.1,2.5c-0.2-0.3-0.4-0.6-0.6-0.9c-0.3-0.4-0.5-0.9-0.8-1.3c-1.7-2.6-3.4-5.2-5.4-7.7
		C301.7,224.8,302,224.8,302.3,224.9z M305.2,259.7l1.4,1c0.5,0.3,1,0.6,1.4,0.9c1,0.6,1.9,1.2,2.8,1.9c1,0.6,1.9,1.2,2.7,1.9
		c0.4,0.3,0.9,0.7,1.3,1s0.9,0.7,1.3,1c0.9,0.7,1.7,1.4,2.5,2.2c0.9,0.7,1.7,1.4,2.5,2.2l1.2,1.2l1.3,1.1c1.6,1.4,3.4,2.7,5.3,3.9
		l-1.2-0.1l-3-0.5l-1.5-0.3c-0.5-0.1-1-0.3-1.5-0.4c-1-0.3-2-0.7-2.9-1.1c-0.9-0.5-1.8-1-2.7-1.5c-0.4-0.3-0.9-0.6-1.3-0.9
		s-0.8-0.7-1.2-1c-0.8-0.7-1.5-1.5-2.2-2.2c-0.7-0.8-1.3-1.7-1.9-2.6s-1.2-1.8-1.7-2.7c-0.5-0.9-1.1-1.7-1.7-2.6
		c-1-1.5-2.1-2.9-3.3-4.2C303.5,258.4,304.4,259,305.2,259.7z M302.8,269.6l1.5,0.9c0.5,0.3,1,0.5,1.5,0.8c1,0.5,2,1.1,3,1.6
		s2,1.1,2.9,1.7c0.5,0.3,0.9,0.6,1.4,0.9s0.9,0.6,1.4,0.9c0.9,0.6,1.8,1.3,2.7,1.9c0.9,0.6,1.8,1.3,2.7,1.9l1.3,1l1.4,1
		c1.7,1.3,3.6,2.4,5.6,3.4H327l-3.1-0.3l-1.6-0.2c-0.5-0.1-1-0.2-1.5-0.3c-1-0.2-2-0.5-3-0.8c-1-0.4-1.9-0.8-2.8-1.3
		c-0.5-0.2-0.9-0.5-1.4-0.7c-0.4-0.3-0.9-0.6-1.3-0.9c-0.8-0.6-1.6-1.3-2.4-2c-0.7-0.8-1.4-1.6-2.1-2.4s-1.3-1.7-1.9-2.5
		c-0.6-0.9-1.3-1.6-1.9-2.4c-1.1-1.4-2.4-2.7-3.7-3.9C301,268.4,302,269,302.8,269.6z M310.6,339.1l1.7-0.1c0.6,0,1.1-0.1,1.7-0.2
		c1.1-0.1,2.3-0.3,3.4-0.4c1.1-0.2,2.2-0.3,3.3-0.3c0.5,0,1.1,0,1.6,0s1.1-0.1,1.6-0.1c1.1,0,2.2,0,3.3,0c1.1,0,2.2,0,3.3,0l1.7,0.1
		h1.7c2.2,0.1,4.3,0,6.5-0.4l-1,0.7l-2.7,1.5l-1.4,0.8c-0.5,0.2-1,0.4-1.4,0.6c-1,0.4-2,0.7-3,1.1c-1,0.3-2,0.4-3.1,0.6
		c-0.5,0.1-1,0.1-1.6,0.2c-0.5,0-1,0-1.6,0c-1,0-2.1-0.1-3.1-0.3c-1-0.2-2.1-0.5-3.1-0.8s-2-0.6-3-0.9c-1-0.4-2-0.6-3-0.9
		c-1.7-0.5-3.4-0.8-5.2-1.1C308.5,339.2,309.6,339.2,310.6,339.1z M315.1,348.2l1.7-0.3c0.6-0.1,1.1-0.2,1.7-0.3
		c1.1-0.2,2.2-0.5,3.3-0.6c1.1-0.2,2.2-0.4,3.3-0.6c0.5-0.1,1.1-0.1,1.6-0.2s1.1-0.2,1.6-0.2c1.1-0.1,2.2-0.2,3.3-0.3
		c1.1-0.1,2.2-0.2,3.3-0.3l1.7-0.1l1.7-0.2c2.2-0.1,4.3-0.4,6.4-1l-1,0.8l-2.5,1.8l-1.3,0.9c-0.4,0.3-0.9,0.5-1.4,0.7
		c-0.9,0.5-1.9,0.9-2.8,1.3c-1,0.3-2,0.6-3,0.8c-0.5,0.1-1,0.2-1.5,0.3c-0.5,0.1-1,0.1-1.6,0.1c-1,0-2.1,0-3.1,0
		c-1.1-0.1-2.1-0.3-3.2-0.5c-1-0.2-2.1-0.4-3.1-0.7c-1-0.3-2-0.4-3-0.6c-1.8-0.4-3.5-0.5-5.3-0.6
		C313.1,348.5,314.1,348.4,315.1,348.2z M320.4,356.9l1.7-0.4c0.6-0.1,1.1-0.3,1.7-0.5c1.1-0.3,2.2-0.7,3.3-0.9
		c1.1-0.3,2.1-0.6,3.2-0.9c0.5-0.1,1.1-0.2,1.6-0.3c0.5-0.1,1.1-0.2,1.6-0.3c1.1-0.2,2.2-0.4,3.3-0.5c1.1-0.2,2.2-0.4,3.3-0.6
		l1.7-0.2l1.7-0.3c2.1-0.3,4.3-0.8,6.3-1.5l-0.9,0.9l-2.4,2l-1.2,1c-0.4,0.3-0.9,0.6-1.3,0.9c-0.9,0.6-1.8,1.1-2.7,1.6
		c-1,0.4-1.9,0.8-2.9,1.1c-0.5,0.2-1,0.3-1.5,0.5c-0.5,0.1-1,0.2-1.5,0.3c-1,0.1-2.1,0.2-3.1,0.3c-1.1,0-2.1-0.1-3.2-0.2
		s-2.1-0.2-3.1-0.4c-1-0.2-2.1-0.2-3.1-0.4c-1.8-0.2-3.5-0.2-5.3-0.2C318.4,357.4,319.4,357.1,320.4,356.9z M326.4,365.1l1.6-0.5
		c0.5-0.2,1.1-0.4,1.6-0.6c1.1-0.4,2.1-0.8,3.2-1.2c1-0.4,2.1-0.8,3.1-1.2c0.5-0.2,1.1-0.3,1.6-0.5s1-0.3,1.6-0.5
		c1-0.3,2.1-0.6,3.2-0.8c1.1-0.3,2.1-0.6,3.2-0.8l1.7-0.4l1.6-0.5c2.1-0.5,4.2-1.2,6.2-2.1l-0.8,0.9l-2.2,2.2l-1.1,1.1
		c-0.4,0.3-0.8,0.7-1.2,1c-0.8,0.6-1.7,1.2-2.6,1.8c-0.9,0.5-1.9,0.9-2.8,1.3c-0.5,0.2-1,0.4-1.5,0.6s-1,0.3-1.5,0.4
		c-1,0.2-2.1,0.4-3.1,0.5c-1.1,0.1-2.1,0.1-3.2,0.1s-2.1-0.1-3.2-0.1c-1.1-0.1-2.1-0.1-3.1-0.1c-1.8,0-3.5,0.1-5.3,0.3
		C324.5,365.7,325.5,365.4,326.4,365.1z M333.2,372.7l1.6-0.7c0.5-0.2,1-0.5,1.5-0.8c1-0.5,2-1,3-1.5s2-1,3-1.4
		c0.5-0.2,1-0.4,1.5-0.6s1-0.4,1.5-0.6c1-0.4,2.1-0.7,3.1-1.1s2.1-0.8,3.2-1.1l1.6-0.5l1.6-0.6c2.1-0.7,4.1-1.5,6-2.6l-0.7,1l-2,2.4
		l-1,1.2c-0.4,0.4-0.8,0.7-1.1,1.1c-0.8,0.7-1.6,1.4-2.4,2c-0.9,0.6-1.8,1.1-2.7,1.6c-0.5,0.2-0.9,0.5-1.4,0.7s-1,0.4-1.5,0.5
		c-1,0.3-2,0.6-3,0.8c-1.1,0.2-2.1,0.3-3.2,0.3c-1,0.1-2.1,0.1-3.2,0.1s-2.1,0.1-3.1,0.2c-1.8,0.1-3.5,0.4-5.2,0.7
		C331.2,373.5,332.2,373.1,333.2,372.7z M340.5,379.7l1.5-0.8c0.5-0.3,1-0.6,1.5-0.9c1-0.6,1.9-1.2,2.9-1.7c0.9-0.6,1.9-1.2,2.9-1.7
		c0.5-0.3,1-0.5,1.5-0.7c0.5-0.3,1-0.5,1.5-0.8c1-0.5,2-0.9,3-1.4s2-1,3-1.4l1.6-0.6l1.5-0.8c2-0.8,3.9-1.9,5.7-3.1l-0.6,1.1
		l-1.8,2.5l-0.9,1.3c-0.3,0.4-0.7,0.8-1,1.2c-0.7,0.8-1.5,1.5-2.2,2.2c-0.8,0.7-1.7,1.2-2.5,1.8c-0.4,0.3-0.9,0.6-1.3,0.8
		c-0.5,0.2-0.9,0.5-1.4,0.7c-1,0.4-2,0.8-3,1.1c-1,0.2-2.1,0.4-3.1,0.6s-2.1,0.3-3.1,0.4c-1.1,0.1-2.1,0.3-3.1,0.4
		c-1.8,0.3-3.5,0.7-5.2,1.2C338.7,380.7,339.6,380.2,340.5,379.7z M348.4,386.1l1.4-0.9c0.5-0.3,0.9-0.7,1.4-1
		c0.9-0.7,1.8-1.4,2.7-2c0.9-0.7,1.8-1.3,2.7-1.9c0.5-0.3,0.9-0.6,1.4-0.9s0.9-0.6,1.4-0.9c0.9-0.6,1.9-1.1,2.9-1.6
		c0.9-0.6,1.9-1.1,2.9-1.6l1.5-0.8l1.5-0.9c1.9-1,3.7-2.2,5.4-3.6l-0.6,1.1l-1.5,2.7l-0.8,1.3c-0.3,0.4-0.6,0.8-0.9,1.3
		c-0.6,0.8-1.3,1.6-2,2.4c-0.7,0.7-1.6,1.4-2.4,2c-0.4,0.3-0.8,0.6-1.3,0.9c-0.4,0.3-0.9,0.5-1.4,0.8c-0.9,0.5-1.9,0.9-2.9,1.3
		c-1,0.3-2,0.6-3.1,0.9c-1,0.3-2.1,0.5-3.1,0.7s-2,0.5-3,0.7c-1.7,0.4-3.4,1-5,1.6C346.7,387.2,347.6,386.6,348.4,386.1z
		 M356.9,391.7l1.3-1.1c0.4-0.4,0.9-0.8,1.3-1.1c0.8-0.8,1.7-1.5,2.6-2.2c0.8-0.8,1.7-1.5,2.5-2.2c0.4-0.3,0.9-0.6,1.3-1
		c0.4-0.3,0.9-0.7,1.3-1c0.9-0.7,1.8-1.3,2.7-1.9c0.9-0.7,1.8-1.3,2.8-1.9l1.4-0.9l1.4-1c1.8-1.2,3.5-2.5,5.1-4.1l-0.5,1.2l-1.3,2.8
		l-0.7,1.4c-0.2,0.5-0.5,0.9-0.8,1.3c-0.6,0.9-1.2,1.7-1.8,2.6c-0.7,0.8-1.4,1.5-2.2,2.2c-0.4,0.4-0.8,0.7-1.2,1
		c-0.4,0.3-0.9,0.6-1.3,0.9c-0.9,0.6-1.8,1.1-2.7,1.6c-1,0.4-2,0.8-3,1.1c-1,0.4-2,0.7-3,1s-2,0.7-3,1c-1.7,0.6-3.3,1.3-4.9,2.1
		C355.3,393,356.1,392.3,356.9,391.7z M365.8,396.5l1.2-1.2c0.4-0.4,0.8-0.8,1.2-1.3c0.8-0.8,1.6-1.7,2.4-2.4
		c0.8-0.8,1.5-1.6,2.3-2.4c0.4-0.4,0.8-0.7,1.2-1.1c0.4-0.4,0.8-0.7,1.2-1.1c0.8-0.7,1.7-1.4,2.6-2.1c0.8-0.7,1.7-1.4,2.6-2.1l1.4-1
		l1.3-1.1c1.7-1.3,3.3-2.8,4.7-4.5l-0.4,1.2l-1.1,2.9l-0.6,1.5c-0.2,0.5-0.5,0.9-0.7,1.4c-0.5,0.9-1,1.8-1.6,2.7
		c-0.6,0.8-1.3,1.6-2,2.4c-0.3,0.4-0.7,0.8-1.1,1.1c-0.4,0.4-0.8,0.7-1.2,1c-0.8,0.6-1.7,1.2-2.6,1.8c-0.9,0.5-1.9,1-2.9,1.4
		c-0.9,0.5-1.9,0.8-2.9,1.2c-1,0.4-1.9,0.8-2.9,1.2c-1.7,0.7-3.2,1.6-4.7,2.5C364.2,398,365,397.3,365.8,396.5z M375.1,400.6
		l1.1-1.3c0.4-0.4,0.7-0.9,1.1-1.3c0.7-0.9,1.4-1.8,2.1-2.6c0.7-0.9,1.4-1.8,2.1-2.6c0.4-0.4,0.8-0.8,1.1-1.2
		c0.4-0.4,0.7-0.8,1.1-1.2c0.7-0.8,1.6-1.5,2.4-2.3s1.6-1.6,2.4-2.3l1.3-1.1l1.2-1.2c1.6-1.5,3-3.1,4.3-4.9l-0.2,1.2l-0.8,3
		l-0.4,1.5c-0.2,0.5-0.4,1-0.6,1.5c-0.4,1-0.9,1.9-1.3,2.8c-0.5,0.9-1.1,1.7-1.8,2.6c-0.3,0.4-0.6,0.8-1,1.2
		c-0.3,0.4-0.7,0.7-1.1,1.1c-0.8,0.7-1.6,1.4-2.4,2c-0.9,0.6-1.8,1.1-2.7,1.6c-0.9,0.5-1.9,1-2.8,1.5c-1,0.5-1.8,1-2.7,1.5
		c-1.6,0.9-3.1,1.9-4.5,2.9C373.7,402.2,374.4,401.4,375.1,400.6z M377.6,410.9l-0.1,0.1c-0.2,0-0.4,0.1-0.6,0.1
		c-0.3,0.1-0.5,0.1-0.8,0.2c0.4-0.2,0.8-0.5,1.2-0.7c0.8-0.5,1.5-1,2.2-1.5c-0.2,0.2-0.5,0.5-0.8,0.7
		C378.4,410.2,378,410.6,377.6,410.9z M384.7,403.9l1-1.4c0.3-0.5,0.6-1,0.9-1.4c0.6-1,1.2-1.9,1.9-2.8c0.6-1,1.2-1.9,1.9-2.7
		c0.3-0.4,0.7-0.9,1-1.3s0.7-0.9,1-1.3c0.7-0.9,1.4-1.7,2.2-2.5c0.7-0.9,1.4-1.7,2.2-2.5l1.2-1.2l1.1-1.3c1.4-1.6,2.7-3.4,3.9-5.3
		l-0.1,1.2l-0.5,3l-0.3,1.5c-0.1,0.5-0.3,1-0.4,1.5c-0.3,1-0.7,2-1.1,2.9c-0.5,0.9-1,1.8-1.5,2.7c-0.3,0.4-0.6,0.9-0.9,1.3
		s-0.7,0.8-1,1.2c-0.7,0.8-1.5,1.5-2.2,2.2c-0.8,0.7-1.7,1.3-2.6,1.9s-1.8,1.2-2.7,1.7c-0.9,0.5-1.7,1.1-2.6,1.7
		c-1.5,1-2.9,2.1-4.2,3.3C383.5,405.5,384.1,404.7,384.7,403.9z M394.6,406.2l0.9-1.5c0.3-0.5,0.5-1,0.8-1.5c0.5-1,1.1-2,1.6-3
		s1.1-2,1.7-2.9c0.3-0.5,0.6-0.9,0.9-1.4s0.6-0.9,0.9-1.4c0.6-0.9,1.3-1.8,1.9-2.7c0.6-0.9,1.3-1.8,1.9-2.7l1-1.3l1-1.4
		c1.3-1.7,2.4-3.6,3.4-5.6v1.2l-0.3,3.1l-0.2,1.6c-0.1,0.5-0.2,1-0.3,1.5c-0.2,1-0.5,2-0.8,3c-0.4,1-0.8,1.9-1.3,2.8
		c-0.2,0.5-0.5,0.9-0.7,1.4c-0.3,0.4-0.6,0.9-0.9,1.3c-0.6,0.8-1.3,1.6-2,2.4c-0.8,0.7-1.6,1.4-2.4,2.1s-1.7,1.3-2.5,1.9
		c-0.9,0.6-1.6,1.3-2.4,1.9c-1.4,1.1-2.7,2.4-3.9,3.7C393.5,408,394.1,407.1,394.6,406.2z M404.7,407.8l0.8-1.5
		c0.2-0.5,0.5-1.1,0.7-1.6c0.4-1.1,0.9-2.1,1.4-3.1c0.4-1,0.9-2.1,1.4-3c0.2-0.5,0.5-1,0.8-1.4c0.2-0.5,0.5-1,0.8-1.5
		c0.5-1,1.1-1.9,1.7-2.8c0.5-1,1.1-1.9,1.7-2.9l0.9-1.4l0.8-1.5c1.1-1.8,2.1-3.8,2.9-5.8l0.1,1.2v3.1v1.6c0,0.5-0.1,1-0.2,1.6
		c-0.1,1-0.3,2.1-0.6,3.1c-0.3,1-0.7,2-1,2.9c-0.2,0.5-0.4,1-0.6,1.4c-0.2,0.5-0.5,0.9-0.8,1.4c-0.6,0.9-1.2,1.7-1.8,2.6
		c-0.7,0.8-1.5,1.6-2.2,2.3c-0.7,0.8-1.5,1.5-2.3,2.1c-0.8,0.7-1.5,1.4-2.3,2.1c-1.3,1.2-2.5,2.6-3.6,4
		C403.7,409.7,404.2,408.7,404.7,407.8z M414.8,408.4l0.6-1.6c0.2-0.5,0.4-1.1,0.5-1.6c0.3-1.1,0.7-2.2,1.1-3.2
		c0.3-1.1,0.7-2.1,1.1-3.1c0.2-0.5,0.4-1,0.7-1.5c0.2-0.5,0.4-1,0.6-1.5c0.4-1,0.9-2,1.4-3c0.4-1,0.9-2,1.4-3l0.8-1.5l0.7-1.6
		c1-1.9,1.8-3.9,2.4-6.1l0.2,1.2l0.3,3.1l0.1,1.6c0,0.5,0,1,0,1.6c-0.1,1-0.1,2.1-0.3,3.1c-0.2,1-0.5,2-0.8,3
		c-0.1,0.5-0.3,1-0.5,1.5s-0.4,1-0.7,1.4c-0.5,0.9-1,1.8-1.6,2.7c-0.6,0.9-1.3,1.7-2,2.5s-1.4,1.6-2.1,2.3c-0.7,0.8-1.4,1.6-2.1,2.3
		c-1.2,1.4-2.2,2.8-3.2,4.3C414,410.4,414.4,409.4,414.8,408.4z M424.9,408.2l0.5-1.6c0.2-0.5,0.3-1.1,0.4-1.7
		c0.2-1.1,0.5-2.2,0.8-3.3c0.2-1.1,0.5-2.2,0.9-3.2c0.2-0.5,0.4-1,0.5-1.6c0.2-0.5,0.3-1.1,0.5-1.6c0.3-1,0.8-2.1,1.2-3.1
		c0.3-1,0.7-2.1,1.2-3.1l0.7-1.6l0.6-1.6c0.8-2,1.4-4.1,1.8-6.3l0.3,1.2l0.5,3l0.3,1.5c0.1,0.5,0.1,1,0.1,1.6c0,1,0,2.1,0,3.1
		c-0.1,1-0.3,2.1-0.5,3.1c-0.1,0.5-0.2,1-0.4,1.5c-0.1,0.5-0.3,1-0.5,1.5c-0.4,1-0.8,1.9-1.3,2.8c-0.6,0.9-1.2,1.8-1.8,2.6
		c-0.6,0.9-1.3,1.7-1.9,2.5c-0.7,0.8-1.2,1.7-1.9,2.5c-1.1,1.5-2,3-2.8,4.5C424.3,410.2,424.6,409.2,424.9,408.2z M435,407l0.3-1.7
		c0.1-0.6,0.2-1.1,0.3-1.7c0.2-1.1,0.3-2.3,0.5-3.3c0.1-1.1,0.3-2.2,0.6-3.3c0.1-0.5,0.3-1.1,0.4-1.6s0.2-1.1,0.4-1.6
		c0.2-1.1,0.6-2.1,0.9-3.2s0.6-2.1,0.9-3.2l0.5-1.6l0.4-1.7c0.6-2.1,1.1-4.2,1.3-6.4l0.4,1.2l0.8,3l0.4,1.5c0.1,0.5,0.2,1,0.2,1.5
		c0.1,1,0.2,2.1,0.3,3.1c0,1-0.1,2.1-0.2,3.1c-0.1,0.5-0.1,1-0.2,1.5s-0.3,1-0.4,1.5c-0.3,1-0.7,2-1.1,3c-0.5,1-1,1.9-1.5,2.8
		s-1.1,1.8-1.7,2.7c-0.6,0.9-1.1,1.8-1.6,2.6c-0.9,1.5-1.7,3.1-2.4,4.8C434.6,409.1,434.8,408.1,435,407z M445,405l0.2-1.7
		c0.1-0.6,0.1-1.1,0.1-1.7c0.1-1.1,0.1-2.3,0.2-3.4c0-1.1,0.1-2.2,0.3-3.3c0.1-0.5,0.2-1.1,0.2-1.6c0.1-0.5,0.1-1.1,0.2-1.6
		c0.2-1.1,0.4-2.2,0.6-3.2c0.2-1.1,0.4-2.2,0.6-3.3l0.4-1.7l0.3-1.7c0.4-2.1,0.7-4.3,0.7-6.5l0.5,1.1l1.1,2.9l0.5,1.5
		c0.1,0.5,0.2,1,0.4,1.5c0.2,1,0.4,2.1,0.5,3.1s0.1,2.1,0,3.1c0,0.5,0,1-0.1,1.6c-0.1,0.5-0.2,1-0.3,1.5c-0.2,1-0.5,2-0.8,3
		c-0.4,1-0.8,2-1.3,2.9c-0.4,1-0.9,1.9-1.5,2.8c-0.5,0.9-0.9,1.9-1.4,2.8c-0.8,1.6-1.4,3.2-2,4.9C444.7,407.1,444.9,406.1,445,405z
		 M464.2,398.5l-0.1-1.7c0-0.6-0.1-1.1-0.2-1.7c-0.1-1.1-0.3-2.3-0.4-3.4c-0.2-1.1-0.3-2.2-0.3-3.3c0-0.5,0-1.1,0-1.6
		s-0.1-1.1-0.1-1.6c0-1.1,0-2.2,0-3.3c0-1.1,0-2.2,0-3.3l0.1-1.7v-1.7c0.1-2.2,0-4.3-0.4-6.5l0.7,1l1.5,2.7l0.8,1.4
		c0.2,0.5,0.4,1,0.6,1.4c0.4,1,0.7,2,1.1,3c0.3,1,0.4,2,0.6,3.1c0.1,0.5,0.1,1,0.2,1.6c0,0.5,0,1,0,1.6c0,1-0.1,2.1-0.3,3.1
		c-0.2,1-0.5,2.1-0.8,3.1s-0.6,2-0.9,3c-0.4,1-0.6,2-0.9,3c-0.5,1.7-0.8,3.4-1.1,5.2C464.3,400.6,464.2,399.5,464.2,398.5z
		 M483.6,361.9l-0.5-1.6c-0.5-2.1-1.2-4.2-2.1-6.2l0.9,0.8l2.2,2.2l1.1,1.1c0.3,0.4,0.7,0.8,1,1.2c0.6,0.8,1.2,1.7,1.8,2.6
		c0.5,0.9,0.9,1.9,1.3,2.8c0.2,0.5,0.4,1,0.6,1.5s0.3,1,0.4,1.5c0.2,1,0.4,2.1,0.5,3.1c0.1,1.1,0.1,2.1,0.1,3.2s-0.1,2.1-0.1,3.2
		c-0.1,1.1-0.1,2.1-0.1,3.1c0,1.8,0.1,3.5,0.3,5.3c-0.2-1-0.5-2-0.8-3l-0.5-1.6c-0.2-0.5-0.4-1.1-0.6-1.6c-0.4-1.1-0.8-2.1-1.2-3.2
		c-0.4-1-0.8-2.1-1.2-3.1c-0.2-0.5-0.3-1.1-0.5-1.6s-0.3-1-0.5-1.6c-0.3-1-0.6-2.1-0.8-3.2c-0.3-1.1-0.6-2.1-0.8-3.2L483.6,361.9z
		 M491.1,360.6c-0.4-1-0.8-2.1-1.1-3.2l-0.5-1.6l-0.6-1.6c-0.7-2.1-1.5-4.1-2.6-6l1,0.7l2.4,2l1.2,1c0.4,0.4,0.7,0.8,1.1,1.1
		c0.7,0.8,1.4,1.6,2,2.4c0.6,0.9,1.1,1.8,1.6,2.7c0.2,0.5,0.5,0.9,0.7,1.4s0.4,1,0.5,1.5c0.3,1,0.6,2,0.8,3c0.2,1.1,0.3,2.1,0.3,3.2
		c0.1,1,0.1,2.1,0.1,3.2s0.1,2.1,0.2,3.1c0.1,1.8,0.4,3.5,0.7,5.2c-0.3-1-0.7-2-1.1-2.9l-0.7-1.6c-0.2-0.5-0.5-1-0.8-1.5
		c-0.5-1-1-2-1.5-3s-1-2-1.4-3c-0.2-0.5-0.4-1-0.6-1.5s-0.4-1-0.6-1.5C491.8,362.7,491.4,361.6,491.1,360.6z M499.6,359.8
		c-0.3-0.5-0.5-1-0.7-1.5c-0.3-0.5-0.5-1-0.8-1.5c-0.5-1-0.9-2-1.4-3s-1-2-1.4-3l-0.6-1.6l-0.8-1.5c-0.8-2-1.9-3.9-3.1-5.7l1.1,0.6
		l2.5,1.8l1.3,0.9c0.4,0.3,0.8,0.7,1.2,1c0.8,0.7,1.5,1.5,2.2,2.2c0.7,0.8,1.2,1.7,1.8,2.5c0.3,0.4,0.6,0.9,0.8,1.3
		c0.2,0.5,0.5,0.9,0.7,1.4c0.4,1,0.8,2,1.1,3c0.2,1,0.4,2.1,0.6,3.1s0.3,2.1,0.4,3.1c0.1,1.1,0.3,2.1,0.4,3.1
		c0.3,1.8,0.7,3.5,1.2,5.2c-0.4-1-0.9-1.9-1.4-2.8l-0.8-1.5c-0.3-0.5-0.6-1-0.9-1.5c-0.6-1-1.2-1.9-1.7-2.9
		C500.7,361.8,500.1,360.8,499.6,359.8z M507.1,355.1c-0.7-0.9-1.3-1.8-1.9-2.7c-0.3-0.5-0.6-0.9-0.9-1.4s-0.6-0.9-0.9-1.4
		c-0.6-0.9-1.1-1.9-1.6-2.9c-0.6-0.9-1.1-1.9-1.6-2.9l-0.8-1.5l-0.9-1.5c-1-1.9-2.2-3.7-3.6-5.4l1.1,0.6l2.7,1.5l1.4,0.8
		c0.4,0.3,0.8,0.6,1.3,0.9c0.8,0.6,1.6,1.3,2.4,2c0.7,0.7,1.4,1.6,2,2.4c0.3,0.4,0.6,0.8,0.9,1.3c0.3,0.4,0.5,0.9,0.8,1.4
		c0.5,0.9,0.9,1.9,1.3,2.9c0.3,1,0.6,2,0.9,3.1c0.3,1,0.5,2.1,0.7,3.1s0.5,2,0.7,3c0.4,1.7,1,3.4,1.6,5c-0.5-0.9-1-1.8-1.6-2.7
		l-0.9-1.4c-0.3-0.5-0.7-0.9-1-1.4C508.4,356.9,507.8,356,507.1,355.1z M512.3,347c-0.8-0.8-1.5-1.7-2.2-2.5c-0.3-0.4-0.6-0.9-1-1.3
		c-0.3-0.4-0.7-0.9-1-1.3c-0.7-0.9-1.3-1.8-1.9-2.7c-0.7-0.9-1.3-1.8-1.9-2.8l-0.9-1.4l-1-1.4c-1.2-1.8-2.5-3.5-4.1-5.1l1.2,0.5
		l2.8,1.3l1.4,0.7c0.5,0.2,0.9,0.5,1.3,0.8c0.9,0.6,1.7,1.2,2.6,1.8c0.8,0.7,1.5,1.4,2.2,2.2c0.4,0.4,0.7,0.8,1,1.2
		c0.3,0.4,0.6,0.9,0.9,1.3c0.6,0.9,1.1,1.8,1.6,2.7c0.4,1,0.8,2,1.1,3c0.4,1,0.7,2,1,3s0.6,2,1,3c0.6,1.7,1.3,3.3,2.1,4.9
		c-0.5-0.9-1.2-1.7-1.8-2.5l-1.1-1.3c-0.4-0.4-0.8-0.9-1.1-1.3C513.7,348.7,513,347.9,512.3,347z M522.9,367.8
		c-0.1-1.1-0.4-2.2-0.6-3.3c-0.3-1.1-0.5-2.2-0.9-3.3c-0.3-0.9-0.5-1.7-0.9-2.5c0.2,0.3,0.3,0.6,0.5,0.9c0.2,0.5,0.5,0.9,0.7,1.4
		c1.3,2.4,2.6,4.8,4.2,7.3c-1,0.1-2,0.3-2.9,0.5C522.9,368.4,522.9,368.1,522.9,367.8z M524.4,332.8c-0.4-0.4-0.9-0.7-1.3-1.1
		c-0.9-0.7-1.8-1.4-2.6-2.1c-0.9-0.7-1.8-1.4-2.6-2.1c-0.4-0.4-0.8-0.8-1.2-1.1c-0.4-0.4-0.8-0.7-1.2-1.1c-0.8-0.7-1.5-1.6-2.3-2.4
		s-1.6-1.6-2.3-2.4l-1.1-1.3l-1.2-1.2c-1.5-1.6-3.1-3-4.9-4.3l1.2,0.2l3,0.8l1.5,0.4c0.5,0.2,1,0.4,1.5,0.6c1,0.4,1.9,0.9,2.8,1.3
		c0.9,0.5,1.7,1.1,2.6,1.8c0.4,0.3,0.8,0.6,1.2,1c0.4,0.3,0.7,0.7,1.1,1.1c0.7,0.8,1.4,1.6,2,2.4c0.6,0.9,1.1,1.8,1.6,2.7
		c0.5,0.9,1,1.9,1.5,2.8c0.5,1,1,1.8,1.5,2.7c0.9,1.6,1.9,3.1,2.9,4.5c-0.7-0.8-1.5-1.5-2.3-2.2L524.4,332.8z M528.9,324.3l-1.4-1
		c-0.5-0.3-1-0.6-1.4-0.9c-1-0.6-1.9-1.2-2.8-1.9c-1-0.6-1.9-1.2-2.7-1.9c-0.4-0.3-0.9-0.7-1.3-1c-0.4-0.3-0.9-0.7-1.3-1
		c-0.9-0.7-1.7-1.4-2.5-2.2c-0.9-0.7-1.7-1.4-2.5-2.2l-1.2-1.2l-1.3-1.1c-1.6-1.4-3.4-2.7-5.3-3.9l1.2,0.1l3,0.5l1.5,0.3
		c0.5,0.1,1,0.3,1.5,0.4c1,0.3,2,0.7,2.9,1.1c0.9,0.5,1.8,1,2.7,1.5c0.4,0.3,0.9,0.6,1.3,0.9c0.4,0.3,0.8,0.7,1.2,1
		c0.8,0.7,1.5,1.5,2.2,2.2c0.7,0.8,1.3,1.7,1.9,2.6c0.6,0.9,1.2,1.8,1.7,2.7c0.5,0.9,1.1,1.7,1.7,2.6c1,1.5,2.1,2.9,3.3,4.2
		C530.6,325.6,529.8,325,528.9,324.3z M531.3,314.5l-1.5-0.9c-0.5-0.3-1-0.5-1.5-0.8c-1-0.5-2-1.1-3-1.6s-2-1.1-2.9-1.7
		c-0.5-0.3-0.9-0.6-1.4-0.9s-0.9-0.6-1.4-0.9c-0.9-0.6-1.8-1.3-2.7-1.9s-1.8-1.3-2.7-1.9l-1.3-1l-1.4-1c-1.7-1.3-3.6-2.4-5.6-3.4
		h1.2l3.1,0.3l1.6,0.2c0.5,0.1,1,0.2,1.5,0.3c1,0.2,2,0.5,3,0.8c1,0.4,1.9,0.8,2.8,1.3c0.5,0.2,0.9,0.5,1.4,0.7
		c0.4,0.3,0.9,0.6,1.3,0.9c0.8,0.6,1.6,1.3,2.4,2c0.7,0.8,1.4,1.6,2.1,2.4c0.7,0.8,1.3,1.7,1.9,2.5c0.6,0.9,1.3,1.6,1.9,2.4
		c1.1,1.4,2.4,2.7,3.7,3.9C533.1,315.6,532.2,315,531.3,314.5z M523.5,244.9l-1.7,0.1c-0.6,0-1.1,0.1-1.7,0.2
		c-1.1,0.1-2.3,0.3-3.4,0.4c-1.1,0.2-2.2,0.3-3.3,0.3c-0.5,0-1.1,0-1.6,0c-0.5,0-1.1,0.1-1.6,0.1c-1.1,0-2.2,0-3.3,0
		c-1.1,0-2.2,0-3.3,0l-1.7-0.1h-1.7c-2.2-0.1-4.3,0-6.5,0.4l1-0.7l2.7-1.5l1.4-0.8c0.5-0.2,1-0.4,1.4-0.6c1-0.4,2-0.7,3-1.1
		c1-0.3,2-0.4,3.1-0.6c0.5-0.1,1-0.1,1.6-0.2c0.5,0,1,0,1.6,0c1,0,2.1,0.1,3.1,0.3s2.1,0.5,3.1,0.8s2,0.6,3,0.9c1,0.4,2,0.6,3,0.9
		c1.7,0.5,3.4,0.8,5.2,1.1C525.6,244.8,524.6,244.8,523.5,244.9z M519,235.8l-1.7,0.3c-0.6,0.1-1.1,0.2-1.7,0.3
		c-1.1,0.2-2.2,0.5-3.3,0.6c-1.1,0.2-2.2,0.4-3.3,0.6c-0.5,0.1-1.1,0.1-1.6,0.2c-0.5,0.1-1.1,0.2-1.6,0.2c-1.1,0.1-2.2,0.2-3.3,0.3
		c-1.1,0.1-2.2,0.2-3.3,0.3l-1.7,0.1l-1.7,0.2c-2.2,0.1-4.3,0.4-6.4,1l1-0.8l2.5-1.8l1.3-0.9c0.4-0.3,0.9-0.5,1.4-0.7
		c0.9-0.5,1.9-0.9,2.8-1.3c1-0.3,2-0.6,3-0.8c0.5-0.1,1-0.2,1.5-0.3s1-0.1,1.6-0.1c1,0,2.1,0,3.1,0c1.1,0.1,2.1,0.3,3.2,0.5
		c1,0.2,2.1,0.4,3.1,0.7s2,0.4,3,0.6c1.8,0.4,3.5,0.5,5.3,0.6C521.1,235.5,520,235.7,519,235.8z M438.8,147.4
		c7.1,0.3,14.2,0.6,21.3,1.2c6.1,0.4,12.1,1,18.1,1.7c-0.3,0.6-0.7,1.2-0.9,1.9c-0.4,1.1-0.7,2.4-0.9,3.6c-0.4,2.4-1.1,4.6-2.4,6.4
		c-1.3,1.8-3.7,3.1-5.3,4.9c-0.4,0.5-0.8,1-1,1.5c-1.7,0.4-3.3,1-4.8,1.7c-1.1,0.4-2.1,0.9-3.1,1.4s-2,1-2.9,1.7
		c-0.8,0.5-1.5,1-2.2,1.5c0.2-0.2,0.5-0.5,0.8-0.7c0.4-0.3,0.8-0.7,1.1-1c3-2.8,6-5.8,9-9.4l-0.4-0.9c-2.4,0.1-4.6,0.6-6.8,1.3
		c-2.2,0.7-4.2,1.6-6.2,2.6c-1,0.5-2,1.1-2.9,1.7c-0.9,0.6-1.9,1.2-2.8,1.9c-0.7,0.5-1.4,1.1-2.1,1.7c0.2-0.3,0.5-0.5,0.7-0.8
		c0.4-0.4,0.7-0.7,1-1.1c2.8-3.1,5.5-6.3,8.1-10.1l-0.5-0.9c-2.4,0.3-4.6,1-6.7,1.9s-4.1,1.9-6,3.2c-1,0.6-1.9,1.3-2.8,1.9
		c-0.9,0.7-1.8,1.4-2.6,2.2c-0.7,0.6-1.3,1.2-1.9,1.9c0.2-0.3,0.4-0.5,0.6-0.8c0.3-0.4,0.6-0.8,0.9-1.2c2.5-3.3,4.9-6.7,7.2-10.8
		l-0.6-0.8c-2.4,0.5-4.5,1.4-6.5,2.4s-3.9,2.3-5.7,3.7c-0.9,0.7-1.7,1.4-2.6,2.2c-0.8,0.8-1.7,1.5-2.4,2.4c-0.6,0.7-1.2,1.3-1.8,2
		c0.2-0.3,0.4-0.6,0.5-0.9c0.3-0.4,0.6-0.9,0.8-1.3c2.2-3.5,4.3-7.2,6.2-11.4l-0.6-0.8c-2.3,0.7-4.3,1.8-6.2,3
		c-1.9,1.2-3.7,2.6-5.3,4.1c-0.9,0.7-1.6,1.6-2.4,2.4c-0.7,0.8-1.5,1.7-2.2,2.6c-0.5,0.7-1.1,1.4-1.6,2.2c0.2-0.3,0.3-0.6,0.5-0.9
		c0.2-0.5,0.5-0.9,0.7-1.4c1.9-3.7,3.7-7.5,5.2-11.9l-0.7-0.7c-2.2,0.9-4.1,2.1-6,3.5c-1.8,1.4-3.5,2.9-5,4.6
		c-0.8,0.8-1.5,1.7-2.2,2.6c-0.7,0.9-1.4,1.8-1.9,2.8c-0.5,0.8-1,1.5-1.4,2.3c0.1-0.3,0.3-0.6,0.4-1c0.2-0.5,0.4-0.9,0.6-1.4
		c1.5-3.9,3-7.8,4.2-12.3l-0.8-0.6c-2.1,1.1-3.9,2.5-5.6,4s-3.2,3.2-4.5,5c-0.7,0.9-1.3,1.8-1.9,2.8s-1.2,1.9-1.7,2.9
		c-0.4,0.8-0.8,1.6-1.2,2.4c0.1-0.3,0.2-0.7,0.3-1c0.2-0.5,0.3-1,0.5-1.5c1.2-4,2.3-8,3.1-12.6l-0.8-0.6c-2,1.3-3.7,2.8-5.3,4.5
		c-1.5,1.7-2.9,3.5-4.1,5.4c-0.6,0.9-1.2,1.9-1.7,2.9s-1,2-1.4,3c-0.3,0.8-0.7,1.7-1,2.5c0.1-0.3,0.1-0.7,0.2-1
		c0.1-0.5,0.2-1,0.3-1.5c0.8-4.1,1.6-8.2,2-12.8l-0.9-0.5c-1.9,1.4-3.5,3.1-4.8,4.9c-1.4,1.8-2.6,3.7-3.6,5.7c-0.5,1-1,2-1.4,3.1
		c-0.4,1-0.9,2.1-1.2,3.2c-0.3,0.8-0.5,1.6-0.7,2.4c0-0.3,0.1-0.6,0.1-0.9c0.1-0.5,0.1-1,0.2-1.5c0.5-4.1,0.9-8.3,0.9-12.9l-0.9-0.4
		c-1.8,1.6-3.2,3.4-4.4,5.3c-1.2,1.9-2.2,3.9-3.1,6c-0.5,1-0.8,2.1-1.1,3.2c-0.3,1.1-0.7,2.1-0.9,3.3c-0.2,0.8-0.4,1.6-0.5,2.5
		c0-0.3,0-0.6,0-0.9c0-0.5,0.1-1,0.1-1.5c0-0.4,0-0.8,0-1.2c0.2-0.7,0.3-1.3,0.3-1.9c0.1-1.2,0.1-2.4,0-3.6
		c-0.1-0.6-0.2-1.2-0.3-1.7c-0.1-1.5-0.1-3-0.3-4.6l-0.9-0.3c-0.2,0.2-0.4,0.4-0.6,0.7c-0.1-0.1-0.2-0.2-0.3-0.4
		c-1.5-1.8-4-3.1-5.3-4.9c-1.4-1.8-2-3.9-2.4-6.4c-0.3-1.2-0.5-2.4-0.9-3.6c-0.1-0.2-0.1-0.3-0.2-0.5c22.3-3,44.8-4.5,67.4-4.6
		C424.5,147.1,431.6,147.2,438.8,147.4z M150.9,331.3c-6.1-12.6-9.2-26.4-8.8-40c0.5-13.7,4.5-26.9,11.1-38.9
		c6.6-11.9,15.6-22.6,25.8-32c2.1-1.9,4.3-3.8,6.5-5.6c2.2,1.4,4.4,2.8,6.6,4.1l6.6,4.2c2.1,1.4,4.3,2.8,6.5,4
		c2.2,1.3,4.5,2.5,6.6,4c2.2,1.5,4.1,3.2,5.6,5.3s2.6,4.5,3.1,7c0.1,0.6,0.2,1.3,0.3,1.9c0.1,0.6,0.1,1.3,0.1,1.9
		c0,0.6,0.1,1.4,0.1,2.2l0.1,1.2c0,0.4,0.1,0.8,0.2,1.2c0.5,3.2,2,6.4,4.3,8.9s5.1,4.2,7.9,5.5c5.7,2.6,11.6,3.8,17.4,4
		c2.9,0.1,5.8-0.1,8.6-0.4s5.6-0.8,8.3-1.4c5.5-1.3,10.8-3.1,15.8-5.9l-0.2-1c-5.6-0.6-11-0.8-16.4-1c-5.3-0.2-10.6-0.5-15.6-0.9
		s-10-0.7-14.5-2.1c-2.2-0.7-4.2-1.6-6-2.7c-1.8-1.1-3.3-2.6-4.5-4.6c-0.1-0.3-0.3-0.5-0.4-0.8l-0.3-0.8c-0.2-0.6-0.4-1.1-0.6-1.8
		c-0.2-0.7-0.4-1.4-0.6-2.1c-0.2-0.7-0.5-1.4-0.7-2.1c-1-2.7-2.3-5.2-3.6-7.8c-1.3-2.5-2.8-5-4.4-7.5c-1.6-2.4-3.4-4.8-5.5-6.8
		s-4.5-3.7-7-5.1c-2.5-1.4-5.1-2.6-7.8-3.5c-1.5-0.5-3-1-4.6-1.4c6.9-5.3,14.3-10.2,21.8-14.8c12.1-7.2,24.8-13.4,37.9-18.7
		c1.9-0.8,3.8-1.5,5.7-2.3c0.3,0,0.6,0.1,0.9,0.1c1.8,0.3,3.5,0.6,5.1,1.1c1.6,0.4,3,1,4.3,1.6c2.5,1.2,4.5,2.5,6,5
		c0.4,0.6,0.7,1.3,1,2c0.2,0.8,0.6,1.5,0.9,2.3c0.1,0.4,0.3,0.8,0.4,1.2s0.3,0.9,0.4,1.3c0.1,0.5,0.3,0.8,0.4,1.4l0.4,1.6
		c1.1,4.2,2.5,8.1,3.8,12c0.7,2,1.3,4,2.1,6.1c0.8,2,1.8,4.2,3.2,5.9c1.4,1.8,3.1,3.3,5,4.4c1.9,1.2,3.9,2.1,5.9,2.8
		c0.7,0.2,1.3,0.4,2,0.6c-0.1,1.7,0,3.4,0.2,5.1c0.3,2.3,0.8,4.5,1.5,6.6c0.3,1.1,0.7,2.1,1.2,3.2c0.4,1,0.9,2.1,1.4,3.1
		c0.4,0.8,0.8,1.6,1.3,2.3c-0.2-0.3-0.4-0.5-0.6-0.8c-0.3-0.4-0.6-0.8-0.9-1.2c-2.6-3.3-5.2-6.5-8.5-9.7l-0.9,0.3
		c-0.1,2.4,0.2,4.7,0.7,6.9s1.2,4.4,2.1,6.4c0.4,1.1,0.9,2.1,1.4,3.1s1,2,1.7,2.9c0.5,0.8,1,1.5,1.5,2.2c-0.2-0.2-0.5-0.5-0.7-0.8
		c-0.3-0.4-0.7-0.8-1-1.1c-2.8-3-5.8-6-9.4-9l-0.9,0.4c0.1,2.4,0.6,4.6,1.3,6.8c0.7,2.2,1.6,4.2,2.6,6.2c0.5,1,1.1,2,1.7,2.9
		s1.2,1.9,1.9,2.8c0.5,0.7,1.1,1.4,1.7,2.1c-0.3-0.2-0.5-0.5-0.8-0.7c-0.4-0.4-0.7-0.7-1.1-1c-3.1-2.8-6.3-5.5-10.1-8.1l-0.9,0.5
		c0.3,2.4,1,4.6,1.9,6.7s1.9,4.1,3.2,6c0.6,1,1.3,1.9,1.9,2.8c0.7,0.9,1.4,1.8,2.2,2.6c0.6,0.7,1.2,1.3,1.9,1.9
		c-0.3-0.2-0.5-0.4-0.8-0.6c-0.4-0.3-0.8-0.6-1.2-0.9c-3.3-2.5-6.7-4.9-10.8-7.2l-0.8,0.6c0.5,2.4,1.4,4.5,2.4,6.5s2.3,3.9,3.7,5.7
		c0.7,0.9,1.4,1.7,2.2,2.6c0.8,0.8,1.5,1.7,2.4,2.4c0.7,0.6,1.3,1.2,2,1.8c-0.3-0.2-0.6-0.4-0.9-0.5c-0.4-0.3-0.9-0.6-1.3-0.8
		c-3.5-2.2-7.2-4.3-11.4-6.2l-0.8,0.6c0.7,2.3,1.8,4.3,3,6.2c1.2,1.9,2.6,3.7,4.1,5.3c0.7,0.9,1.6,1.6,2.4,2.4
		c0.8,0.7,1.7,1.5,2.6,2.2c0.7,0.5,1.4,1.1,2.2,1.6c-0.3-0.2-0.6-0.3-0.9-0.5c-0.5-0.2-0.9-0.5-1.4-0.7c-3.7-1.9-7.5-3.7-11.9-5.2
		l-0.7,0.7c0.9,2.2,2.1,4.2,3.5,6s2.9,3.5,4.6,5c0.8,0.8,1.7,1.5,2.6,2.2s1.8,1.4,2.8,1.9c0.8,0.5,1.5,1,2.3,1.4
		c-0.3-0.1-0.6-0.3-1-0.4c-0.5-0.2-0.9-0.4-1.4-0.6c-3.9-1.5-7.8-3-12.3-4.2l-0.6,0.8c1.1,2.1,2.5,3.9,4,5.6s3.2,3.2,5,4.5
		c0.9,0.7,1.8,1.3,2.8,1.9s1.9,1.2,2.9,1.7c0.8,0.4,1.6,0.8,2.4,1.2c-0.3-0.1-0.7-0.2-1-0.3c-0.5-0.2-1-0.3-1.5-0.5
		c-4-1.2-8-2.3-12.6-3.1l-0.6,0.8c1,1.6,2.2,3,3.4,4.2c-0.7,0.1-1.3,0.1-2,0.2c-1.6,0.2-3.3,0.3-4.9,0.4l-4.9,0.4
		c-6.5,0.4-12.8,0.5-19.1,0.4c-6.3-0.1-12.7-0.3-19.3-0.7c-6.5-0.5-13.3-0.9-20.3-0.3c-6.9,0.6-13.8,1.5-20.4,3.5
		c-3.3,1-6.6,2.1-9.9,3.6c-0.8,0.3-1.6,0.8-2.4,1.2c-0.8,0.4-1.6,0.8-2.3,1.3c-0.8,0.4-1.5,0.9-2.3,1.3c-0.7,0.5-1.5,1-2.2,1.5
		c-2.8,2.1-5.4,4.7-7.6,7.7c-2.1,3-4,6.4-4.7,10.4c-0.2-0.3-0.4-0.6-0.7-0.8C157.6,343.6,153.9,337.6,150.9,331.3z M209.6,391.7
		c-6.1-3.8-12-7.9-17.7-12.2c-5.7-4.4-11.1-9.1-16.1-14.1c-2.4-2.4-4.7-4.8-6.9-7.4c0-2,0.4-3.9,1.1-5.7c0.9-2.5,2.5-4.9,4.3-7.2
		c1.9-2.3,3.9-4.5,6-6.8c0.5-0.6,1.1-1.2,1.6-1.8c0.5-0.6,1.1-1.2,1.6-1.8c0.5-0.6,1.1-1.2,1.7-1.7c0.6-0.5,1.1-1.2,1.7-1.7
		c2.3-2.2,5-4,8-5.2c2.9-1.2,6.1-1.9,9.4-2c3.2-0.1,6.4,0.3,9.6,0.9c1.6,0.3,3.2,0.7,4.8,1.1s3.2,0.8,4.8,1.2c3.2,0.8,6.5,1.4,9.8,2
		c6.6,1.2,13.5,2.2,20.5,2c12-0.3,24-3.3,34.4-9c1,0.7,1.9,1.4,3,2c0.9,0.6,1.9,1.2,2.9,1.7s2,1,3,1.4c0.8,0.3,1.7,0.7,2.5,1
		c-0.3-0.1-0.7-0.1-1-0.2c-0.5-0.1-1-0.2-1.5-0.3c-4.1-0.8-8.2-1.6-12.8-2l-0.5,0.9c1.4,1.9,3.1,3.5,4.9,4.8
		c1.8,1.4,3.7,2.6,5.7,3.6c1,0.5,2,1,3.1,1.4c1,0.4,2.1,0.9,3.2,1.2c0.8,0.3,1.6,0.5,2.4,0.7c-0.3,0-0.6-0.1-0.9-0.1
		c-0.5-0.1-1-0.1-1.5-0.2c-4.1-0.5-8.3-0.9-12.9-0.9l-0.4,0.9c1.6,1.8,3.4,3.2,5.3,4.4c1.9,1.2,3.9,2.2,6,3.1c1,0.5,2.1,0.8,3.2,1.1
		c1.1,0.3,2.1,0.7,3.3,0.9c0.8,0.2,1.6,0.4,2.5,0.5c-0.3,0-0.6,0-0.9,0c-0.5,0-1-0.1-1.5-0.1c-4.2-0.1-8.4-0.2-13,0.3l-0.3,0.9
		c1.7,1.7,3.7,2.9,5.7,3.9c2,1.1,4.1,1.9,6.3,2.5c1.1,0.4,2.2,0.6,3.3,0.9c1.1,0.2,2.2,0.5,3.3,0.6c0.8,0.1,1.7,0.2,2.5,0.3
		c-0.3,0-0.6,0-0.9,0c-0.5,0-1,0-1.5,0.1c-4.1,0.2-8.3,0.5-12.9,1.4l-0.3,1c1.9,1.5,3.9,2.5,6,3.4s4.3,1.5,6.5,2
		c1.1,0.3,2.2,0.4,3.3,0.6c1.1,0.1,2.2,0.3,3.4,0.3c0.8,0,1.7,0.1,2.5,0.1c-0.3,0-0.6,0.1-0.9,0.1c-0.5,0.1-1,0.1-1.5,0.2
		c-2.8,0.4-5.6,0.9-8.5,1.5c-1.9-0.3-3.9-0.4-5.8-0.4s-3.8,0.1-5.7,0.3c-1.9,0.2-3.8,0.5-5.6,1c-3.7,1-7.3,2.7-10.7,5
		c-1.7,1.2-3.5,2.5-4.9,4.4s-2.5,4.4-2.5,7c0,1.3,0.2,2.5,0.7,3.6c0.2,0.6,0.4,1,0.7,1.5c0.2,0.5,0.5,1,0.8,1.4s0.6,0.9,0.8,1.3
		c0.2,0.4,0.5,0.7,0.7,1.1c0.4,0.7,0.9,1.5,1.2,2.3c0.3,0.8,0.5,1.7,0.7,2.5s0.2,1.8,0.2,2.6c0,0.4,0,0.9,0,1.3l-0.1,1.3
		c-0.1,0.9,0,1.7-0.1,2.5c0,1.6,0,3.2,0.2,4.8l0.4,4.8c0.1,1.8,0.3,3.6,0.4,5.6c-10.6-3.1-21.1-6.6-31.3-10.8
		C234.7,405.8,221.8,399.3,209.6,391.7z M284.2,423.4c0.1-0.2,0.2-0.4,0.4-0.6c1-1.7,1.7-3.6,2.2-5.5c0.3-1,0.4-1.9,0.6-2.9
		c0.1-1,0.2-2,0.2-3c0-2-0.2-4-0.9-5.9c-0.3-1-0.8-1.9-1.2-2.8l-0.7-1.3c-0.3-0.4-0.6-0.8-0.8-1.3c-0.6-0.8-1.1-1.7-1.6-2.4
		c-0.6-0.8-1.1-1.6-1.6-2.4s-1-1.6-1.4-2.4c-0.2-0.4-0.4-0.8-0.6-1.2c-0.2-0.4-0.3-0.7-0.5-1.1c-0.5-1.5-0.4-3,0.3-3.9
		c0.7-1,1.7-1.6,2.8-2.2c1.1-0.6,2.4-1.3,3.8-1.9c2.8-1.1,6.1-1.9,9.2-3c3.2-1.1,6.4-2.4,9.7-3.8c1.9-0.8,3.8-1.7,5.6-2.6
		c0.2,0.1,0.3,0.1,0.5,0.2c2.2,0.7,4.4,1.1,6.6,1.4c1.1,0.2,2.2,0.2,3.4,0.3c1.1,0,2.2,0.1,3.4,0c0.8,0,1.7-0.1,2.5-0.1
		c-0.3,0.1-0.6,0.1-0.8,0.2c-0.5,0.1-1,0.2-1.5,0.3c-4,1-8.1,2-12.4,3.6l-0.1,1c2.1,1.1,4.3,1.8,6.5,2.3s4.5,0.8,6.7,0.8
		c1.1,0.1,2.2,0,3.4,0c1.1-0.1,2.2-0.1,3.4-0.3c0.8-0.1,1.7-0.2,2.5-0.4c-0.3,0.1-0.5,0.2-0.8,0.3c-0.5,0.2-1,0.3-1.5,0.5
		c-3.9,1.3-7.9,2.7-12.1,4.7v1c2.2,1,4.4,1.4,6.7,1.7c2.3,0.3,4.5,0.4,6.8,0.3c1.1,0,2.2-0.2,3.4-0.3c1.1-0.2,2.2-0.3,3.3-0.6
		c0.8-0.2,1.6-0.3,2.4-0.6c-0.3,0.1-0.5,0.2-0.8,0.3c-0.5,0.2-1,0.4-1.4,0.6c-3.8,1.6-7.7,3.4-11.6,5.7l0.1,1c2.3,0.8,4.6,1,6.8,1.1
		c2.3,0.1,4.5,0,6.7-0.3c1.1-0.1,2.2-0.4,3.3-0.6c1.1-0.3,2.2-0.5,3.3-0.9c0.9-0.3,1.7-0.5,2.5-0.9c-0.3,0.2-0.6,0.3-0.9,0.5
		c-0.5,0.2-0.9,0.5-1.4,0.7c-3.7,2-7.3,4-11.1,6.7l0.2,1c2.3,0.6,4.6,0.6,6.9,0.5s4.5-0.4,6.7-0.9c1.1-0.2,2.2-0.5,3.3-0.9
		c1.1-0.3,2.1-0.7,3.2-1.1c0.8-0.3,1.6-0.7,2.4-1.1c-0.3,0.2-0.6,0.4-0.9,0.6c-0.4,0.3-0.9,0.5-1.3,0.8c-3.5,2.3-7,4.6-10.5,7.7
		l0.3,1c2.4,0.4,4.7,0.2,6.9-0.1c2.3-0.3,4.5-0.8,6.6-1.5c1.1-0.3,2.1-0.7,3.2-1.2c1-0.4,2.1-0.9,3.1-1.4c0.8-0.4,1.6-0.8,2.3-1.3
		c-0.3,0.2-0.5,0.4-0.8,0.6c-0.4,0.3-0.8,0.6-1.2,0.9c-3.3,2.6-6.5,5.2-9.7,8.5l0.3,0.9c2.4,0.1,4.7-0.2,6.9-0.7
		c2.2-0.5,4.4-1.2,6.4-2.1c0.5-0.2,1-0.4,1.5-0.6c-0.2,0.1-0.3,0.3-0.5,0.4c-0.6,0.6-1.1,1.2-1.4,2.1c-0.2,0.8-0.3,1.6-0.4,2.5
		c-0.6,0.7-1.3,1.4-1.9,2.2l0.4,0.9c0.3,0,0.6,0,0.9-0.1c-0.6,1.4-1.9,2.4-3.5,3.4c-0.8,0.5-1.6,1-2.3,1.6c-0.7,0.6-1.2,1.4-1.7,2.1
		c-0.5,0.8-1,1.6-1.4,2.5s-0.7,1.9-0.7,2.9c-0.1,0.8,0,1.7,0.1,2.5c-9.6-0.8-19.3-1.8-28.9-3.2C315.6,430.8,299.7,427.6,284.2,423.4
		z M417.4,437.7c-15.7,0.3-31.5,0.1-47.2-0.8c0.3-0.5,0.5-1,0.7-1.6c0.3-1,0.2-2.2,0.4-3.5c0.1-0.7,0.2-1.3,0.2-2.1
		c0-0.4,0-0.8-0.1-1.2c0-0.4-0.1-0.8-0.1-1.3c-0.1-1.7,0.3-3.3,1.4-4.3c1.1-1.1,3.3-1.3,4.7-2c0.7-0.4,1.2-0.9,1.6-1.5
		c0.2-0.3,0.3-0.5,0.5-0.8c0.9-0.4,1.7-0.8,2.6-1.2c1-0.5,2-1.1,2.9-1.7s1.9-1.2,2.8-1.9c0.7-0.5,1.4-1.1,2.1-1.7
		c-0.2,0.3-0.5,0.5-0.7,0.8c-0.4,0.4-0.7,0.7-1,1.1c-2.8,3.1-5.5,6.3-8.1,10.1l0.5,0.9c2.4-0.3,4.6-1,6.7-1.9s4.1-1.9,6-3.2
		c1-0.6,1.9-1.3,2.8-1.9c0.9-0.7,1.8-1.4,2.6-2.2c0.7-0.6,1.3-1.2,1.9-1.9c-0.2,0.3-0.4,0.5-0.6,0.8c-0.3,0.4-0.6,0.8-0.9,1.2
		c-2.5,3.3-4.9,6.7-7.2,10.8l0.6,0.8c2.4-0.5,4.5-1.4,6.5-2.4s3.9-2.3,5.7-3.7c0.9-0.7,1.7-1.4,2.6-2.2c0.8-0.8,1.7-1.5,2.4-2.4
		c0.6-0.7,1.2-1.3,1.8-2c-0.2,0.3-0.4,0.6-0.5,0.9c-0.3,0.4-0.6,0.9-0.8,1.3c-2.2,3.5-4.3,7.2-6.2,11.4l0.6,0.8
		c2.3-0.7,4.3-1.8,6.2-3c1.9-1.2,3.7-2.6,5.3-4.1c0.9-0.7,1.6-1.6,2.4-2.4c0.7-0.8,1.5-1.7,2.2-2.6c0.5-0.7,1.1-1.4,1.6-2.2
		c-0.2,0.3-0.3,0.6-0.5,0.9c-0.2,0.5-0.5,0.9-0.7,1.4c-1.9,3.7-3.7,7.5-5.2,11.9l0.7,0.7c2.2-0.9,4.1-2.1,6-3.5
		c1.8-1.4,3.5-2.9,5-4.6c0.8-0.8,1.5-1.7,2.2-2.6s1.4-1.8,1.9-2.8c0.5-0.8,1-1.5,1.4-2.3c-0.1,0.3-0.3,0.6-0.4,1
		c-0.2,0.5-0.4,0.9-0.6,1.4c-1.5,3.9-3,7.8-4.2,12.3l0.8,0.6c2.1-1.1,3.9-2.5,5.6-4s3.2-3.2,4.5-5c0.7-0.9,1.3-1.8,1.9-2.8
		s1.2-1.9,1.7-2.9c0.4-0.8,0.8-1.6,1.2-2.4c-0.1,0.3-0.2,0.7-0.3,1c-0.2,0.5-0.3,1-0.5,1.5c-1.2,4-2.3,8-3.1,12.6l0.8,0.6
		c2-1.3,3.7-2.8,5.3-4.5c1.5-1.7,2.9-3.5,4.1-5.4c0.6-0.9,1.2-1.9,1.7-2.9s1-2,1.4-3c0.3-0.8,0.7-1.7,1-2.5c-0.1,0.3-0.1,0.7-0.2,1
		s-0.1,0.6-0.2,0.9l-0.4,0.4c-0.1,0.6-0.1,1.1-0.1,1.6c-0.7,3.7-1.4,7.4-1.7,11.5l0.9,0.5c1.7-1.3,3.2-2.8,4.4-4.4
		c1.4,0.7,3.5,0.9,4.6,1.9s1.6,2.6,1.4,4.3c0,0.4-0.1,0.9-0.1,1.3s-0.1,0.8-0.1,1.2c0,0.8,0.1,1.4,0.2,2.1c0.1,1.2,0.1,2.3,0.3,3.2
		C447.6,436.5,432.5,437.4,417.4,437.7z M502.7,429.7c-9.8,1.6-19.6,3-29.4,4.1c0-0.1,0-0.1,0-0.2c-0.1-1-0.4-2-0.7-2.9
		c-0.4-0.9-0.9-1.7-1.4-2.5s-1-1.5-1.7-2.1s-1.5-1.1-2.3-1.6c-1.5-0.9-2.7-1.8-3.4-3.1c1.6-1.5,2.9-3.2,4-4.9c1.2-1.9,2.2-3.9,3.1-6
		c0.5-1,0.8-2.1,1.1-3.2c0.3-1.1,0.7-2.1,0.9-3.3c0.2-0.8,0.4-1.6,0.5-2.5c0,0.3,0,0.6,0,0.9c0,0.5-0.1,1-0.1,1.5
		c-0.1,4.2-0.2,8.4,0.3,13l0.9,0.3c1.7-1.7,2.9-3.7,3.9-5.7c1.1-2,1.9-4.1,2.5-6.3c0.4-1.1,0.6-2.2,0.9-3.3c0.2-1.1,0.5-2.2,0.6-3.3
		c0.1-0.8,0.2-1.7,0.3-2.5c0,0.3,0,0.6,0,0.9c0,0.5,0,1,0.1,1.5c0.2,4.1,0.5,8.3,1.4,12.9l1,0.3c1.5-1.9,2.5-3.9,3.4-6
		s1.5-4.3,2-6.5c0.3-1.1,0.4-2.2,0.6-3.3c0.1-1.1,0.3-2.2,0.3-3.4c0-0.8,0.1-1.7,0.1-2.5c0,0.3,0.1,0.6,0.1,0.9
		c0.1,0.5,0.1,1,0.2,1.5c0.6,4.1,1.3,8.3,2.5,12.7l1,0.2c1.3-2,2.2-4.1,2.9-6.3c0.7-2.2,1.1-4.4,1.4-6.6c0.2-1.1,0.2-2.2,0.3-3.4
		c0-1.1,0.1-2.2,0-3.4c0-0.8-0.1-1.7-0.1-2.5c0.1,0.3,0.1,0.6,0.2,0.8c0.1,0.5,0.2,1,0.3,1.5c1,4,2,8.1,3.6,12.4l1,0.1
		c1.1-2.1,1.8-4.3,2.3-6.5s0.8-4.5,0.8-6.7c0.1-1.1,0-2.2,0-3.4c-0.1-1.1-0.1-2.2-0.3-3.4c-0.1-0.8-0.2-1.7-0.4-2.5
		c0.1,0.3,0.2,0.5,0.3,0.8c0.2,0.5,0.3,1,0.5,1.5c1.3,3.9,2.7,7.9,4.7,12.1h1c1-2.2,1.4-4.4,1.7-6.7c0.3-2.3,0.4-4.5,0.3-6.8
		c0-1.1-0.2-2.2-0.3-3.4c-0.2-1.1-0.3-2.2-0.6-3.3c-0.2-0.8-0.4-1.6-0.6-2.4c0.1,0.3,0.2,0.5,0.3,0.8c0.2,0.5,0.4,1,0.6,1.4
		c1.6,3.8,3.4,7.7,5.7,11.6l1-0.1c0.8-2.3,1-4.6,1.1-6.8c0-0.7,0-1.3,0-2c2.2,1.2,4.4,2.2,6.6,3.1c3.3,1.4,6.5,2.6,9.7,3.8
		c3.2,1.1,6.4,1.9,9.2,3c1.4,0.6,2.7,1.2,3.8,1.9c1.1,0.7,2.1,1.3,2.8,2.2c0.7,1,0.8,2.5,0.3,3.9c-0.1,0.4-0.3,0.7-0.5,1.1
		s-0.4,0.8-0.6,1.2c-0.4,0.8-1,1.6-1.4,2.4c-0.5,0.8-1,1.6-1.6,2.4s-1.1,1.6-1.6,2.4c-0.3,0.4-0.6,0.8-0.8,1.3l-0.7,1.3
		c-0.5,0.9-1,1.8-1.2,2.8c-0.7,1.9-0.9,3.9-0.9,5.9c0,1,0.1,2,0.2,3c0.2,1,0.3,2,0.6,2.9c0.3,1,0.5,1.9,0.9,2.9
		C532.9,424,517.8,427.2,502.7,429.7z M624.5,390.6c-12.5,7-25.6,12.7-39,17.7c-10.2,3.8-20.5,7.1-31,10c0-0.6,0.1-1.2,0.1-1.8
		l0.4-4.8c0.2-1.6,0.3-3.2,0.2-4.8c-0.1-0.8-0.1-1.6-0.1-2.5l-0.1-1.3c0-0.4,0-0.9,0-1.3c0-0.9,0-1.8,0.2-2.6
		c0.2-0.8,0.4-1.7,0.7-2.5s0.7-1.6,1.2-2.3c0.2-0.4,0.4-0.7,0.7-1.1s0.5-0.8,0.8-1.3c0.3-0.4,0.6-0.9,0.8-1.4c0.3-0.5,0.5-1,0.7-1.5
		c0.4-1.1,0.7-2.3,0.7-3.6c0-2.6-1.1-5.1-2.5-7s-3.2-3.2-4.9-4.4c-3.4-2.3-7-4.1-10.7-5c-1.9-0.5-3.7-0.8-5.6-1
		c-1.9-0.2-3.8-0.3-5.7-0.3c-0.4,0-0.9,0-1.3,0c0-1,0-2,0-2.9c-0.1-2.3-0.4-4.5-0.9-6.7c-0.2-1.1-0.5-2.2-0.9-3.3
		c-0.3-1.1-0.7-2.1-1.1-3.2c-0.3-0.8-0.7-1.6-1.1-2.4c0.2,0.3,0.4,0.6,0.6,0.9c0.3,0.4,0.5,0.9,0.8,1.3c2.3,3.5,4.6,7,7.7,10.5
		l1-0.3c0.4-2.4,0.2-4.7-0.1-6.9c-0.3-2.3-0.8-4.5-1.5-6.6c-0.3-1.1-0.7-2.1-1.2-3.2c-0.4-1-0.9-2.1-1.4-3.1
		c-0.4-0.8-0.8-1.6-1.3-2.3c0.2,0.3,0.4,0.5,0.6,0.8c0.3,0.4,0.6,0.8,0.9,1.2c2.6,3.3,5.2,6.5,8.5,9.7l0.9-0.3
		c0.1-2.4-0.2-4.7-0.7-6.9c-0.5-2.2-1.2-4.4-2.1-6.4c-0.4-1.1-0.9-2.1-1.4-3.1s-1-2-1.7-2.9c-0.5-0.8-1-1.5-1.5-2.2
		c0.2,0.3,0.5,0.5,0.7,0.8c0.3,0.4,0.7,0.8,1,1.1c2.8,3,5.8,6,9.4,9l0.9-0.4c-0.1-2.4-0.6-4.6-1.3-6.8c-0.7-2.2-1.6-4.2-2.6-6.2
		c-0.5-1-1.1-2-1.7-2.9c-0.6-0.9-1.2-1.9-1.9-2.8c-0.5-0.7-1.1-1.4-1.7-2.1c0.3,0.2,0.5,0.5,0.8,0.7c0.4,0.4,0.7,0.7,1.1,1
		c3.1,2.8,6.3,5.5,10.1,8.1l0.9-0.5c-0.1-0.8-0.2-1.6-0.4-2.3c8.9,3.8,18.5,5.8,28.3,6c7,0.2,13.9-0.8,20.5-2c3.3-0.6,6.6-1.2,9.8-2
		c1.6-0.4,3.2-0.7,4.8-1.2c1.6-0.4,3.2-0.8,4.8-1.1c3.2-0.6,6.4-1.1,9.6-0.9c3.2,0.1,6.4,0.8,9.4,2c2.9,1.2,5.6,3,8,5.2
		c0.6,0.5,1.1,1.1,1.7,1.7c0.6,0.6,1.1,1.1,1.7,1.7c0.5,0.6,1.1,1.2,1.6,1.8c0.5,0.6,1.1,1.2,1.6,1.8c2.1,2.3,4.2,4.6,6,6.8
		c1.8,2.3,3.4,4.7,4.3,7.2c1,2.5,1.4,5.1,0.9,7.9c-0.2,0.9-0.4,1.9-0.7,2.9c-0.7,0.7-1.4,1.3-2.2,2C649,375.6,637,383.6,624.5,390.6
		z M694.3,312.6c-1.8,7-4.5,13.7-7.9,20c-4.6,8.6-10.4,16.5-17,23.7c0.1-1.7,0-3.4-0.3-5c-0.8-4-2.6-7.5-4.8-10.5
		c-2.1-3-4.8-5.6-7.6-7.7c-0.7-0.5-1.4-1-2.2-1.5s-1.5-0.9-2.3-1.3c-0.7-0.4-1.5-0.9-2.3-1.3s-1.6-0.8-2.4-1.2
		c-3.2-1.5-6.6-2.6-9.9-3.6c-6.6-2.1-13.5-3-20.4-3.5c-6.9-0.6-13.7-0.2-20.3,0.3c-6.6,0.4-13,0.6-19.3,0.7s-12.7,0.1-19.1-0.4
		l-4.9-0.4c-1.6-0.2-3.3-0.3-4.9-0.4c-0.5-0.1-1-0.1-1.5-0.2c-0.7-1.5-1.5-3-2.4-4.3c-0.6-1-1.3-1.9-1.9-2.8
		c-0.7-0.9-1.4-1.8-2.2-2.6c-0.6-0.7-1.2-1.3-1.9-1.9c0.3,0.2,0.5,0.4,0.8,0.6c0.4,0.3,0.8,0.6,1.2,0.9c3.3,2.5,6.7,4.9,10.8,7.2
		l0.8-0.6c-0.5-2.4-1.4-4.5-2.4-6.5s-2.3-3.9-3.7-5.7c-0.7-0.9-1.4-1.7-2.2-2.6c-0.8-0.8-1.5-1.7-2.4-2.4c-0.7-0.6-1.3-1.2-2-1.8
		c0.3,0.2,0.6,0.4,0.9,0.5c0.4,0.3,0.9,0.6,1.3,0.8c3.5,2.2,7.2,4.3,11.4,6.2l0.8-0.6c-0.7-2.3-1.8-4.3-3-6.2
		c-1.2-1.9-2.6-3.7-4.1-5.3c-0.7-0.9-1.6-1.6-2.4-2.4c-0.8-0.7-1.7-1.5-2.6-2.2c-0.7-0.5-1.4-1.1-2.2-1.6c0.3,0.2,0.6,0.3,0.9,0.5
		c0.5,0.2,0.9,0.5,1.4,0.7c3.7,1.9,7.5,3.7,11.9,5.2l0.7-0.7c-0.9-2.2-2.1-4.2-3.5-6s-2.9-3.5-4.6-5c-0.8-0.8-1.7-1.5-2.6-2.2
		c-0.9-0.7-1.8-1.4-2.8-1.9c-0.8-0.5-1.5-1-2.3-1.4c0.3,0.1,0.6,0.3,1,0.4c0.5,0.2,0.9,0.4,1.4,0.6c3.9,1.5,7.8,3,12.3,4.2l0.6-0.8
		c-1.1-2.1-2.5-3.9-4-5.6s-3.2-3.2-5-4.5c-0.9-0.7-1.8-1.3-2.8-1.9s-1.9-1.2-2.9-1.7c-0.8-0.4-1.6-0.8-2.4-1.2
		c0.3,0.1,0.7,0.2,1,0.3c0.5,0.2,1,0.3,1.5,0.5c4,1.2,8,2.3,12.6,3.1l0.6-0.8c-1.3-2-2.8-3.7-4.5-5.3c-1.7-1.5-3.5-2.9-5.4-4.1
		c-0.9-0.6-1.9-1.2-2.9-1.7s-2-1-3-1.4c-0.8-0.3-1.7-0.7-2.5-1c0.3,0.1,0.7,0.1,1,0.2c0.5,0.1,1,0.2,1.5,0.3c4.1,0.8,8.2,1.6,12.8,2
		l0.5-0.9c-1.4-1.9-3.1-3.5-4.9-4.8c-1.8-1.4-3.7-2.6-5.7-3.6c-1-0.5-2-1-3.1-1.4c-1-0.4-2.1-0.9-3.2-1.2c-0.8-0.3-1.6-0.5-2.4-0.7
		c0.3,0,0.6,0.1,0.9,0.1c0.5,0.1,1,0.1,1.5,0.2c4.1,0.5,8.3,0.9,12.9,0.9l0.4-0.9c-1.6-1.8-3.4-3.2-5.3-4.4c-1.9-1.2-3.9-2.2-6-3.1
		c-1-0.5-2.1-0.8-3.2-1.1c-1.1-0.3-2.1-0.7-3.3-0.9c-0.8-0.2-1.6-0.4-2.5-0.5c0.3,0,0.6,0,0.9,0c0.5,0,1,0.1,1.5,0.1
		c4.2,0.1,8.4,0.2,13-0.3l0.3-0.9c-1.7-1.7-3.7-2.9-5.7-3.9c-2-1.1-4.1-1.9-6.3-2.5c-1.1-0.4-2.2-0.6-3.3-0.9
		c-1.1-0.2-2.2-0.5-3.3-0.6c-0.8-0.1-1.7-0.2-2.5-0.3c0.3,0,0.6,0,0.9,0c0.5,0,1,0,1.5-0.1c4.1-0.2,8.3-0.5,12.9-1.4l0.3-1
		c-0.1,0-0.1-0.1-0.2-0.1c0.3-0.1,0.5-0.2,0.8-0.2c2.1-0.7,4.1-1.6,5.9-2.8c1.9-1.1,3.6-2.6,5-4.4c1.4-1.8,2.4-3.9,3.2-5.9
		c0.8-2.1,1.4-4.1,2.1-6.1c1.3-3.9,2.7-7.8,3.8-12l0.4-1.6c0.1-0.5,0.3-0.9,0.4-1.4c0.1-0.4,0.2-0.9,0.4-1.3
		c0.1-0.4,0.3-0.8,0.4-1.2c0.2-0.8,0.6-1.5,0.9-2.3c0.4-0.7,0.6-1.4,1-2c1.5-2.5,3.5-3.8,6-5c1.3-0.6,2.7-1.1,4.3-1.6
		c1.6-0.4,3.3-0.8,5.1-1.1c2.4-0.4,5-0.7,7.6-0.9c0.5,0.2,0.9,0.3,1.4,0.5c13.4,4.9,26.5,10.7,39,17.6c9.1,5,17.9,10.7,26.1,17.1
		c-1.4,0.1-2.8,0.3-4.2,0.6c-2.8,0.5-5.5,1.3-8.2,2.2c-2.7,1-5.3,2.1-7.8,3.5s-4.9,3-7,5.1c-2.1,2-3.9,4.4-5.5,6.8
		c-1.6,2.5-3,4.9-4.4,7.5c-1.3,2.5-2.6,5.1-3.6,7.8c-0.2,0.7-0.5,1.4-0.7,2.1c-0.2,0.7-0.4,1.4-0.6,2.1c-0.2,0.8-0.4,1.3-0.6,1.8
		l-0.3,0.8c-0.1,0.3-0.3,0.5-0.4,0.8c-1.1,2-2.7,3.5-4.5,4.6s-3.8,2-6,2.7c-4.4,1.3-9.4,1.6-14.5,2.1c-5.1,0.4-10.3,0.7-15.6,0.9
		c-5.3,0.3-10.8,0.5-16.4,1l-0.2,1c5,2.8,10.4,4.5,15.8,5.9c2.7,0.6,5.5,1.1,8.3,1.4c2.8,0.4,5.7,0.5,8.6,0.4
		c5.8-0.2,11.7-1.3,17.4-4c2.8-1.3,5.7-3,7.9-5.5c2.3-2.5,3.8-5.7,4.3-8.9c0.1-0.4,0.2-0.8,0.2-1.2l0.1-1.2c0-0.8,0.1-1.6,0.1-2.2
		c0-0.6,0-1.3,0.1-1.9c0.1-0.6,0.2-1.3,0.3-1.9c0.6-2.5,1.6-4.9,3.1-7s3.5-3.9,5.6-5.3c2.1-1.5,4.4-2.7,6.6-4c2.2-1.3,4.4-2.6,6.5-4
		l6.6-4.2c3.9-2.4,7.8-4.8,11.8-7.6c2.1,1.7,4.2,3.5,6.2,5.3c10.7,9.6,20,20.7,26.8,33.3c3.4,6.3,6.1,13,7.9,20
		c1.9,6.9,2.7,14.1,2.8,21.3C697,298.4,696.2,305.6,694.3,312.6z"/>
</g>
</svg>
