<?xml version="1.0" encoding="utf-8"?>
<!-- Generator: Adobe Illustrator 21.1.0, SVG Export Plug-In . SVG Version: 6.00 Build 0)  -->
<svg version="1.1" id="Calque_1" xmlns="http://www.w3.org/2000/svg" xmlns:xlink="http://www.w3.org/1999/xlink" x="0px" y="0px"
	 viewBox="0 0 841.9 595.3" style="enable-background:new 0 0 841.9 595.3;" xml:space="preserve">
<style type="text/css">
	.st0{fill:#0000FF;}
</style>
<g>
	<circle class="st0" cx="414" cy="299.9" r="24.2"/>
</g>
<g>
	<path class="st0" d="M414,352.1c-28.8,0-52.2-23.4-52.2-52.2s23.4-52.2,52.2-52.2s52.2,23.4,52.2,52.2S442.8,352.1,414,352.1z
		 M414,262.7c-20.5,0-37.2,16.7-37.2,37.2s16.7,37.2,37.2,37.2s37.2-16.7,37.2-37.2C451.2,279.4,434.5,262.7,414,262.7z"/>
</g>
<g>
	<path class="st0" d="M414,380.2c-44.3,0-80.3-36-80.3-80.3s36-80.3,80.3-80.3s80.3,36,80.3,80.3S458.3,380.2,414,380.2z M414,234.6
		c-36,0-65.3,29.3-65.3,65.3s29.3,65.3,65.3,65.3s65.3-29.3,65.3-65.3S450,234.6,414,234.6z"/>
</g>
<g>
	<path class="st0" d="M414,406.9c-59,0-107.1-48-107.1-107.1c0-59,48-107.1,107.1-107.1c59,0,107.1,48,107.1,107.1
		S473,406.9,414,406.9z M414,207.8c-50.8,0-92.1,41.3-92.1,92.1S363.2,392,414,392s92.1-41.3,92.1-92.1S464.8,207.8,414,207.8z"/>
</g>
<g>
	<path class="st0" d="M414,434.3c-74.1,0-134.5-60.3-134.5-134.5c0-74.1,60.3-134.5,134.5-134.5c74.1,0,134.5,60.3,134.5,134.5
		S488.1,434.3,414,434.3z M414,180.4c-65.9,0-119.5,53.6-119.5,119.5S348.1,419.3,414,419.3s119.5-53.6,119.5-119.5
		S479.9,180.4,414,180.4z"/>
</g>
<g>
	<path class="st0" d="M414,461.3c-89,0-161.4-72.4-161.4-161.4S325,138.5,414,138.5s161.4,72.4,161.4,161.4S503,461.3,414,461.3z
		 M414,153.5c-80.7,0-146.4,65.7-146.4,146.4S333.3,446.3,414,446.3s146.4-65.7,146.4-146.4S494.7,153.5,414,153.5z"/>
</g>
<g>
	<path class="st0" d="M414,486.9c-103.1,0-187-83.9-187-187s83.9-187,187-187s187,83.9,187,187S517.1,486.9,414,486.9z M414,127.9
		c-94.8,0-172,77.2-172,172s77.2,172,172,172s172-77.2,172-172C586,205,508.9,127.9,414,127.9z"/>
</g>
<g>
	<path class="st0" d="M414,513.9c-57.2,0-110.9-22.3-151.3-62.7C222.2,410.8,200,357,200,299.9c0-57.2,22.3-110.9,62.7-151.3
		S356.9,85.9,414,85.9c57.2,0,110.9,22.3,151.3,62.7C605.8,189,628,242.7,628,299.9s-22.3,110.9-62.7,151.3
		C524.9,491.6,471.2,513.9,414,513.9z M414,100.8c-109.7,0-199,89.3-199,199s89.3,199,199,199s199-89.3,199-199
		S523.8,100.8,414,100.8z"/>
</g>
</svg>
