<?xml version="1.0" encoding="utf-8"?>
<!-- Generator: Adobe Illustrator 21.1.0, SVG Export Plug-In . SVG Version: 6.00 Build 0)  -->
<svg version="1.1" id="Calque_1" xmlns="http://www.w3.org/2000/svg" xmlns:xlink="http://www.w3.org/1999/xlink" x="0px" y="0px"
	 viewBox="0 0 841.9 595.3" style="enable-background:new 0 0 841.9 595.3;" xml:space="preserve">
<style type="text/css">
	.st0{fill:#0000FF;}
</style>
<path class="st0" d="M655.9,261.7c-0.5-2.6-1.2-5.1-1.8-7.7c-0.6-2.5-1.5-5.1-2.2-7.6c-0.8-2.5-1.7-5-2.6-7.5s-2-5-3-7.4
	c-4.1-9.7-9.5-18.9-15.5-27.5c-6.1-8.6-13.1-16.5-20.7-23.6c-7.6-7.1-16-13.3-24.9-18.7c-8.9-5.4-18.2-9.8-27.9-13.3
	c-19.4-6.9-40-9.6-60-8.5c-10,0.6-20,2.1-29.6,4.6s-18.9,6-27.8,10.2c-8.9,4.2-17.3,9.3-25.1,15.1c-3.3,2.4-6.5,5-9.6,7.7
	c-5.5-0.4-11-0.3-16.4,0.1c-15.2,1.2-29.8,5.3-43,12c-6.4,3.2-12.4,7-18,11.2c-9-1.8-18.2-2.2-27-1.4c-12.3,1.1-24.1,4.8-34.6,10.3
	c-3.8,2-7.4,4.3-10.8,6.7c-7.3-1.2-14.7-1.4-21.8-0.6c-10.2,1.2-19.9,4.4-28.4,9.1c-8.6,4.7-16,10.9-22.1,18
	c-12.1,14.3-18.6,32.3-18.5,50.4c-0.1,18.1,6.4,36.2,18.6,50.3c6.1,7.1,13.5,13.3,22.1,18c8.5,4.7,18.2,7.9,28.3,9
	c7.1,0.8,14.5,0.7,21.9-0.6c3.4,2.4,7,4.6,10.7,6.6c10.5,5.6,22.4,9.2,34.6,10.3c8.8,0.8,17.8,0.4,26.7-1.3
	c5.7,4.3,11.8,8.1,18.2,11.3c13.2,6.6,27.9,10.8,43,11.9c5.4,0.4,10.9,0.5,16.4,0.1c3.1,2.7,6.2,5.3,9.5,7.7
	c7.8,5.8,16.2,10.9,25.1,15.1c8.9,4.2,18.2,7.7,27.8,10.2c9.7,2.5,19.6,4,29.6,4.6c20.1,1.1,40.6-1.6,60-8.5
	c9.7-3.5,19-7.9,27.9-13.3c2.3-1.4,4.4-2.8,6.6-4.2c2.2-1.5,4.3-3,6.4-4.5c2-1.6,4.1-3.2,6.1-4.8l5.9-5.2
	c15.3-14.2,27.8-31.7,36.2-51.1c4.2-9.7,7.5-19.8,9.6-30.2c2.2-10.3,3.2-20.9,3.3-31.5C659.1,282.7,658,272.1,655.9,261.7z
	 M396.6,394.1c-9.4-9.3-17.5-19.9-23.9-31.5c9.2-8.5,16.8-18.9,22-30.5c2.7-6.1,4.8-12.5,6.2-19c1.3-6.6,2-13.2,2.1-19.9
	c0-6.7-0.8-13.4-2.1-19.9c-0.3-1.7-0.7-3.3-1.1-4.9c-0.5-1.6-1-3.2-1.5-4.8c-0.5-1.6-1.1-3.1-1.7-4.7c-0.6-1.5-1.3-3.1-1.9-4.6
	c-2.7-6.1-6.1-11.9-10-17.2c-3.5-4.9-7.5-9.3-11.9-13.4c6.5-11.4,14.5-22,23.8-31.3c1.1-1.1,2.2-2.2,3.4-3.2
	c9.9,1.1,19.7,3.6,28.8,7.4c12.6,5.3,24.2,13.1,33.8,22.8c9.6,9.7,17.3,21.3,22.5,33.9c5.2,12.6,7.8,26.3,7.8,39.9
	c0,13.6-2.6,27.3-7.8,39.9c-5.2,12.6-12.9,24.2-22.5,33.9c-9.6,9.7-21.2,17.5-33.8,22.8c-9.2,3.9-19,6.4-28.9,7.5
	C398.8,396.2,397.7,395.2,396.6,394.1z M321.2,373.5c-2.3-1.9-4.5-3.9-6.6-6c-6.3-6.2-11.7-13.2-16.2-20.7
	c5.7-6.1,10.5-13.2,14-20.9c2.3-5.1,4.1-10.4,5.3-15.9c1.1-5.5,1.7-11.1,1.8-16.7c0-5.6-0.7-11.2-1.8-16.7c-0.3-1.4-0.7-2.7-1-4.1
	c-0.3-1.3-0.8-2.7-1.2-4c-0.4-1.4-0.9-2.7-1.4-4s-1.1-2.6-1.6-3.9c-2.3-5.2-5.2-9.9-8.5-14.4c-1.7-2.4-3.5-4.6-5.5-6.7
	c4.5-7.5,10-14.5,16.1-20.6c2-2,4.1-3.9,6.3-5.7c3.9,1,7.8,2.3,11.5,3.9c10,4.2,19.1,10.3,26.7,18c1.2,1.2,2.3,2.4,3.4,3.6
	c-3.3,8.5-5.6,17.4-7.4,26.3c-1.8,9.3-2.6,18.8-2.6,28.3c-0.1,9.5,0.8,19,2.3,28.1c1.7,9.1,4.2,18.1,7.6,26.8
	c-1.1,1.2-2.1,2.4-3.3,3.5c-7.6,7.7-16.7,13.8-26.7,18C328.7,371.2,325,372.5,321.2,373.5z M248.8,358c-2.3-1.9-4.6-3.8-6.7-6
	c-7.7-7.7-13.9-16.9-18.1-26.9s-6.4-20.9-6.4-31.8c0-10.9,2.2-21.7,6.4-31.6c4.2-10.1,10.4-19.2,18.1-26.9c2.2-2.2,4.5-4.2,6.9-6.1
	c3.4,0.8,6.8,1.9,10,3.3c8,3.4,15.3,8.3,21.4,14.5c2.8,2.8,5.3,5.9,7.5,9.1c-1.9,5.5-3.3,11.1-4.4,16.8c-1.3,6.9-1.9,13.9-1.9,20.9
	c-0.1,7,0.5,14.1,1.7,20.9c1.1,5.8,2.5,11.4,4.5,17c-2.2,3.2-4.7,6.2-7.4,8.9c-6.1,6.2-13.4,11.1-21.4,14.5
	C255.7,356,252.3,357.1,248.8,358z M294.6,268c3.3,8,4.9,16.7,4.9,25.3c0,8.6-1.6,17.3-4.9,25.3c-1.3,3.4-3,6.6-4.9,9.7
	c-4-11.2-6.1-23-6.1-35c0-11.8,2.1-23.7,6.1-35C291.5,261.4,293.2,264.6,294.6,268z M376.9,261.9c4.1,10,6.1,20.7,6.1,31.5
	c0.1,10.8-2,21.5-6.1,31.5c-3.1,7.5-7.2,14.4-12.3,20.7c-6.6-16.6-10.1-34.4-10.1-52.3c0-17.8,3.4-35.6,10-52.2
	C369.6,247.4,373.8,254.4,376.9,261.9z M348.7,196.3c12.7-5.2,26.4-7.8,40.1-7.8c1.6,0,3.3,0.1,4.9,0.2c-0.2,0.2-0.4,0.4-0.5,0.5
	c-9,9.8-16.7,20.7-22.9,32.3c-9.5-8.2-20.6-14.3-32.3-18.1c-0.7-0.2-1.5-0.5-2.2-0.7C339.9,200.3,344.2,198.1,348.7,196.3z
	 M269.1,216.9c10-4.2,20.9-6.2,31.7-6.2c4.8,0,9.5,0.5,14.2,1.3c-1.3,1.3-2.5,2.6-3.7,3.9c-5.8,6.6-10.9,13.7-15.1,21.3
	c-1.1-1.1-2.2-2.1-3.4-3.1c-8.2-7.1-17.7-12.3-27.7-15.4C266.4,218,267.8,217.5,269.1,216.9z M233.6,359.8
	c-8.7,0.1-17.4-1.6-25.5-4.9c-8.1-3.3-15.5-8.3-21.7-14.4c-6.2-6.2-11.2-13.5-14.6-21.6c-3.4-8.1-5.2-16.8-5.2-25.6
	c0-8.7,1.8-17.5,5.2-25.6c3.4-8.1,8.4-15.5,14.6-21.6c6.2-6.2,13.6-11.1,21.7-14.4c8.1-3.3,16.8-4.9,25.5-4.9c3,0,5.9,0.3,8.9,0.7
	c-1.2,1.2-2.4,2.5-3.6,3.8c-7.6,8.7-13.5,18.6-17.4,29.1c-2,5.3-3.4,10.7-4.4,16.2c-1.1,5.5-1.5,11.1-1.5,16.7
	c-0.1,5.6,0.4,11.2,1.4,16.6c1.1,5.5,2.5,11,4.5,16.2s4.3,10.4,7.3,15.2s6.3,9.5,10.1,13.8c1.2,1.4,2.5,2.7,3.8,4
	C239.7,359.6,236.6,359.8,233.6,359.8z M300.8,376.1c-10.8,0-21.7-2.1-31.7-6.2c-1.5-0.6-3-1.3-4.5-2c10.2-3.1,19.9-8.4,28.1-15.6
	c1.1-1,2.2-2,3.2-3c0.8,1.4,1.6,2.8,2.5,4.2c3.8,6,8,11.8,12.8,17.1c1.3,1.4,2.6,2.8,4,4.2C310.4,375.6,305.6,376.1,300.8,376.1z
	 M348.7,390.1c-4.5-1.8-8.9-4-13.1-6.5c0.8-0.2,1.6-0.5,2.4-0.7c11.6-3.7,22.6-9.8,32.1-18c1.7,3.2,3.5,6.3,5.4,9.4
	c5.2,8.1,10.9,15.8,17.5,22.9c0.2,0.2,0.4,0.4,0.6,0.6c-1.6,0.1-3.2,0.1-4.8,0.1C375.1,398,361.4,395.3,348.7,390.1z M628.6,347.6
	c-7.1,17.2-17.6,33-30.7,46.2c-13.2,13.1-28.9,23.7-46.1,30.9c-17.1,7.1-35.8,10.9-54.4,10.9c-18.6,0-37.3-3.6-54.5-10.7
	c-10.6-4.4-20.6-10-29.9-16.8c7.2-1,14.3-2.6,21.3-4.9c14.8-5,28.8-13.2,40.6-23.9s21.4-24,28-38.8c3.3-7.4,5.8-15.1,7.5-23.1
	c1.6-8,2.4-16.1,2.5-24.2c0-8.1-0.9-16.2-2.5-24.2c-0.4-2-0.9-3.9-1.4-5.9c-0.5-1.9-1.1-3.9-1.7-5.8c-0.6-1.9-1.3-3.8-2-5.7
	s-1.5-3.7-2.3-5.6c-3.2-7.5-7.3-14.5-12-21c-4.7-6.6-10.1-12.5-16-17.9c-11.8-10.8-25.8-18.9-40.6-23.9c-7-2.4-14.1-4-21.3-4.9
	c9.2-6.7,19.2-12.4,29.8-16.7c17.2-7.1,35.9-10.7,54.5-10.7c18.6,0,37.2,3.7,54.4,10.9c17.2,7.1,33,17.7,46.1,30.9
	c13.1,13.2,23.6,29,30.7,46.2c7.1,17.1,10.7,35.7,10.7,54.3C639.3,311.8,635.7,330.4,628.6,347.6z"/>
</svg>
