<?xml version="1.0" encoding="utf-8"?>
<!-- Generator: Adobe Illustrator 21.1.0, SVG Export Plug-In . SVG Version: 6.00 Build 0)  -->
<svg version="1.1" id="Calque_1" xmlns="http://www.w3.org/2000/svg" xmlns:xlink="http://www.w3.org/1999/xlink" x="0px" y="0px"
	 viewBox="0 0 841.9 595.3" style="enable-background:new 0 0 841.9 595.3;" xml:space="preserve">
<style type="text/css">
	.st0{fill:#0000FF;}
</style>
<path class="st0" d="M113.7,217.7l-7.8,23.3c0,0,30.3-17.9,84.8-5.4c54.4,12.4,76.2,36.5,125.2,40.4s91.8,0,150.1-16.3
	s190.5-30.3,251.2,1.6l13.2-15.6c0,0-82.4-39.7-217.7-13.2c-135.3,26.4-174.2,34.2-227.1,10.1S195.3,195.9,113.7,217.7z"/>
<path class="st0" d="M111.4,353.8l-10.1,25.7c0,0,24.9-25.7,107.3,1.6c82.4,27.2,143.1,7.8,186.6-3.1s104.2-29.5,166.4-24.1
	s108.1,38.9,108.1,38.9l19.4-17.9c0,0-91.8-71.5-232.5-28s-197.5,25.7-208.4,21.8C237.3,364.7,172.8,324.2,111.4,353.8z"/>
</svg>
