<?xml version="1.0" encoding="utf-8"?>
<!-- Generator: Adobe Illustrator 21.1.0, SVG Export Plug-In . SVG Version: 6.00 Build 0)  -->
<svg version="1.1" id="Calque_1" xmlns="http://www.w3.org/2000/svg" xmlns:xlink="http://www.w3.org/1999/xlink" x="0px" y="0px"
	 viewBox="0 0 841.9 595.3" style="enable-background:new 0 0 841.9 595.3;" xml:space="preserve">
<style type="text/css">
	.st0{fill:#575756;}
</style>
<path class="st0" d="M1597.8,458.3c3.3-6.4,6-12.2,8.3-9.2c2.3-17.4,4.1-17,5.1-11.8c1,7.2,1.2-5.7,0.8-12.5
	c-0.8-18.7-3.6-35.7-6.9-20.6c-3.3-12.6-7.1-41.1-11.1-15.8c-2-52.1-4.1-0.3-6.2-6.8c0-10-3.1,1.6-3.1-3.2c0,8.3-1.4,5.8-1.4-1.5
	c0-9.7-0.5-7.8-0.5-0.5c0.1-4.3,0.1,14.5,0.1,0.3c0.1-8-0.1-9.1-0.3-0.4c-0.1,2.9-0.2-16.8-0.2-1.8c0,10.9,0.3-28.6,1-4.7
	c1.3,8.3,3.9-11.6,7.5-8c3.6-13.5,8.1-30.9,13-3.5c2.4-21.3,4.9-10.9,7.5,0c0,14.5,4.6-20,4.6,0.2c1.6,10.1,3.2-22.9,4.9-0.1
	c3.3-23.5,6.5-0.2,9.8-1.3c3.2-9.2,6.4-8.1,9.5-3.2c6.1-5.2,11.6-0.4,16.1-11.7c4.4-5.5,7.8-12.8,10-16.7c1.1,2.6,2-10.4,2.3-9.9
	c0.1,3,0.1,11.6,0-3.2c0-6.1,0-5-0.1-0.7c0-0.9-0.1-11.3-0.1-0.5c0-3-0.1-8.9-0.1-1.1c-0.2,4.5-0.4-3-0.7-4.5
	c-1.1-4.5-2.8-12.9-5.3-17.6c-2.5-7.3-5.8-5.2-9.9-15.8c-4.1-0.5-9-4.2-14.5-11.9c-5.5-3.9-11.4-3.4-17.4-6.3
	c-5.9-10-11.9-3.4-17.7-1.6c-7.5,0.6-15-3.8-22.4-2.7c-7.4,8.3-14.8,4.8-22.2-4.3c-7.3-1.8-14.6-7.9-21.9-6
	c-7.2-11.6-14.4-16-21.6-7.2c-7.1,1.1-14.2-4.5-21.4-8.1c-7.1-9-14.3,2-21.5-8.4c-7.2-5.4-14.6-9.7-22.1-7.9
	c-7.5,16-15.3-2.6-23.3-6.1c-8,4.4-16.3-1.1-24.7-2.7c-8.4-4.1-16.9-3.8-25.3,2.3c0,4.5-6.2-9.8-6.2,1.4c0,8.7-5.8-1.2-5.8,1.5
	c-3.9-1.1-7.8,9-11.6,3.6c-7.7-11.2-15.5,4-23,9.8c-7.5,4-14.9,24.8-21.4,14.9c-6.5,11.9-11.9,11.6-16.9,17.6
	c-5,6.9-9.7,12.3-14.9,15.2c-2.5-2.4-5.2,0.5-8,6.6c-1.4-7.3-2.8,3.9-4.2,3.1c0-9.7-2.2-6.1-2.2,1.5c-0.7-11.2-1.1,4.3-1.7,1.1
	c-4.7,8.4-10.6,17.3-17.1,6c-6.5,11.5-13.4-8.6-20.4,2c-7.1-13.3-14.3-16.5-21.5-0.9c-7.3-17.3-14.6,7.4-21.8-2.8
	c-7.3,8.7-14.6-28-21.8-4.3c-3.6,13.3-7.2,12.4-10.8,7.9c-3.6-4.5-7.1-12.5-10.7-13.4c-1.7,8.8-3.5-5.6-5.2-1.6
	c-1.6-5.2-3.4-2.9-4.5-1.6c0-2.5-0.3,11.2-0.3-0.1c0-1.6,0-0.1,0,0c0-6.7,0-0.9,0,0c0-12.2-0.1,17.9-0.1-0.1c0,0.5-1.3-12.6-1.3-0.7
	c0,10.1-2.8,11.4-2.8-1.5c-2-1.1-4,5.7-6.1-2.8c-8.4-0.9-17.5-1.3-26.3-4.8c-8.8,0.8-17.2,2.2-25.2,4.2c-7.9-5.8-15.5,3.9-22.6,9.5
	c-1.8-3.3-3.5-12.2-5.3,2.9c-1.8-25.1-3.5-10.3-5.1,3.1c0-12.8-9.8-1-9.8,6.1c0-13.1-19.6,22.2-19.6,12
	c-6.6-20.5-13.1-10.8-19.7,11.8c-6.6-5.6-13.2,9.1-19.8,11.6c-6.6,3.8-13.3,19.4-20,11.2c-3.4,6-6.7-1.6-10.1,5.3
	c0,3.3-5.1,1.1-5.1,2.6c0-6.1-2.6-0.7-2.6,1.2c0-9.3-1.3-1.9-1.3,0.6c0,7.7-0.6-1.6-0.6,0.3c0,2-0.3-2.7-0.3,0.1
	c-0.1,0.1-0.7,0.2-1,0.8c-0.3,4.6-0.3-4-0.3,1.3c0.1-6.1,0.7-6.5,1.4,1c0.8-11.6,1,1.1,1-0.1c0-8.6,0.5,6.7,0.5-0.1
	c0,0.8,1,1.1,1-0.2c0-4.3,2.1-2.6,2.1-0.4c0-8.1,4.2-3.5,4.2-0.8c0-0.9,8.4,5.5,8.4-1.5c5.6,0.9,11.3-3.7,16.9-2.7
	c5.6-10.1,11.3,4.5,16.9-2.3c5.6-5.5,11.3-0.4,16.9-1.8c11.3-16.4,22.6-9,33.8-1.8c11.2-10.2,22.4-12.1,33.3,1.6
	c5.4,19.2,10.8-0.5,16,2.8c5.2-7.3,10.2,17.1,14.9,4.8c4.7,11.3,9-9.6,12.6,7.3c0-9.2,6.8-5.2,6.8,5.4c2.3,9.5,4.6,2.6,7,5.4
	c4.7,17,9.5-6.8,14.4,10.3c4.9,2.9,10,11.9,15.2,9.6c5.2,11.1,10.7,10.7,16.3,8.3c5.6,4.9,11.5-14.8,17.6,6.6
	c6.1-0.6,12.5,5.9,18.9,4c6.4,8.4,13,0.8,19.1,0.8c3-10.9,6,1.2,8.7-0.3c0,5.8,2.3,6.1,2.3-0.1c0-7.5,2.5,8.7,2.5-0.2
	c1.6,0.1,3.2-3.4,4.8-0.5c6.3,2.8,12.4,7.4,18.4-3.2c6,3.9,11.8-1.3,17.6-4.7c5.8-6.9,11.5-5.6,17.1-5.7c5.6,4.6,11.2-14.9,16.7-6.6
	c5.5-5.8,11-23.1,16.3-7.6c5.4,1.2,10.7,3.9,16-8.6c5.3-16.7,10.5-6.2,15.6-10c2.6,7.2,5.1-16.2,7.6-5.8c1.3-4.8,2.5,13.5,3.8-3.2
	c0-8.3,3.1-50.4,3.1-2.6c3.7-4.9,7.6-24.7,11.7-8.2c4.1-14.2,8.3-6.1,12.8-2.1c4.4-1.2,9,5,13.7-7.4c4.7-8.4,9.5,30,14.5,6.8
	c4.9,10.8,9.9-18.8,14.9-7.2c5-9.1,10,0.9,15.1,2.7c2.6-11.3,4.9-4.4,7.1,1.9c2.3,14.7,4.4-7.2,6.4,2.3c4.1,6,7.6,24.7,10.4,6.2
	c2.8,20.4,4.8,28.5,6.2,8.1c1.4,21.9,2.2,9.9,2.4,10.8c0.2-5.5-0.3-13.9-1.3,13.3c-1.5,27.3-1.7,8.6-0.6,22.4
	c1,6.1,3.1,1.9,5.9,20.3c2.7,19.6,6.1,5.9,9.9,17.5c3.9-14.7,8.1,0.8,13.3,15.3c1.3-11.1,2.8-5.2,4.3,3.6c1.5-9.9,2.9,2.2,4.3,3
	c2.8-3.7,5.6-6.4,8.4,5c5.7,0.5,11.5,5.5,17.8,7.8c6.2,1.1,12.8-4,19.9,4.4c7.1,6.2,14.9-3.7,22.7-2.7
	C1590.7,463.3,1594.5,474.6,1597.8,458.3z M1578.1,440.1c-3,13-6.9-7-11.1,0.6c-4.3-11.6-8.9,5.4-13.4-3.7c-4.6,6-9.1,5.1-13.4-6.5
	c-2.2-24.9-4.3,1.4-6.2-4c-1-4.3-1.9-4.4-2.7-2c-0.7,29.5-1.4,9.1-2.2-2c-3.1,3.9-6.2-19.4-8.8-10.9c-2.6-14.7-4.9-23.7-6.6-12.5
	c-3.4-20-4.4-5-2.6-24.5c1.5,12.3,2.6-6.3,2.5-20.8c-0.1-16.3-1.4-5.2-4.5-22.6c-3.1,7.2-8-30.4-13.8-19.5
	c-2.9-19.5-5.9-21.9-9.1-5.2c-3.1,10.1-6.3,8.3-9.5-6.9c-3.2,8.3-6.4-8.6-9.6-3.8c-3.2,29.6-6.4,5.1-9.4-2.7
	c-6.1,25.8-12.3-0.6-18.7-3.6c-6.3-7.4-12.8-7.2-19.4-1.3c-6.5-19.3-13.1-4.5-19.7,1.7c-6.6-10.3-13.1,7-19.5,5.1
	c-6.3-11.6-12.5,16.7-18.3,8.7c-2.9-1.6-5.7-4.8-8.4,13c-2.7,1.2-5.3,6.8-7.8-1.2c0-12.1-3.4,31.4-3.4,3c-0.9,24.3-1.8-16.3-2.8,2.4
	c-1.9-32-3.9-1.1-6,4.7c-4.2-15.8-8.5,5.8-13.1,8.8c-4.5,6.7-9.2,16.4-14,8.1c-4.8-12.6-9.7,5.7-14.6,6.9c-4.9-1.7-9.9,17-15,7
	c-5-15.9-10.1-11.5-15.2,3.4c-5.1,6-10.3,1.9-15.4,7.2c-5.1,2.9-10.3,9.3-15.3,3.4c0-12.4-3.7,2.7-3.7,0.5c0-3.7-1.8,5.8-1.8,0.2
	c0,3.1-0.9-1.3-0.9,0.1c0-5.1-1.1-7.5-1.1,0.1c0-10.6-8.4,7.4-8.4,0.7c-5.3,8.4-10.3,1.5-15.2,0.3c-4.9-8.9-9.9-6.2-14.8-2.2
	c-5,16.3-9.9,2.7-14.8-4.6c-4.9,0.5-9.8-13.7-14.7-6.4c-4.9,2-9.7-0.6-14.5-7.7c-4.8,3.8-9.5-15.9-14.2-8.6
	c-4.7-19.9-9.2-10.5-14-9.4c-5.6-14.9-11.6,5.6-17.6-8.8c-6-6.6-12.1,13.2-18.1-4.5c-6-5.8-12-10-18-1.8
	c-11.9-11.3-23.7,31.9-35.3,1c-11.6-1.1-23.1-10.5-34.5,4.8c-5.7-0.2-11.4,8.3-17,3.4c-5.6-9.6-11.2,6.9-16.8,4
	c3.6,2.7,7.1,3.3,10.6-4.8c7-14.7,14,5.9,20.9-9.8c6.9,1.3,13.8-1.4,20.7-10.2c0,4.8,20.5-0.1,20.5-10.5c0-14.4,10.2-16.6,10.2-5.3
	c1.7,4.7,3.4-7,5-2.4c1.6-2.3,3.3-12,5-2.2c6.7-12.4,13.6,10,20.5-6.5c6.9,14.5,13.7,18.5,20.3-1.6c6.6-2.8,12.8,26.1,18.4,4.7
	c1.4-1.9,2.8-16.7,4.2,2.2c0,8.5,2.2,14.5,2.2,1.3c0,13.2,1.2,1.8,1.2,0.8c0-6,0.5,3.7,0.5,0.3c0-7.7,0.7,21.6,0.7,0.4
	c0,6.7,1-5.4,1,0.5c2.3-11.6,4.2-15.2,6.1,2.6c1.9,18.4,3.8-1.5,5.7,2.2c7.5,15.3,15.1-9.9,22.7,7.2c7.6-8.7,15.3,4.1,23.1,5.7
	c3.9,11.4,7.8,16.8,11.7,14.5c3.9,17.6,7.9-5.9,11.9-10.5c8-6.1,16.1,18.4,24.3,1.8c8.3,3,16.7-5.1,25.3-1.8
	c8.6,2.3,17.5-14.8,26.1-9c1-10.2,2.2-8.3,3.1-1.9c0-2.2,2.6,0.1,2.6-1.7c1.7,3.3,3.4,0.1,5.1-3.6c3.3,25.7,6.7-9.6,9.8-7.9
	c6.3-8.1,12.1-9.7,17.2-17.6c5.2-6.7,9.7-7.2,14.6-15.8c4.8-1.6,10-1.8,15.9-11.9c5.8-3.9,12.2,0,18.8-9.1c3.3-5.7,6.7-5.3,10.2-3.8
	c0-0.6,5.2,2.3,5.2-1.8c0-10.5,4.9-2.8,4.9-1.5c6.6,1.6,13.3,7.8,20.3-3.4c6.9-0.8,14,14.1,21.1,0.5c7.1,9,14.3,5.5,21.6,3.7
	c7.2,8.3,14.5,2.3,21.8,5.6c7.3-6.5,14.6,5.3,22,6.6c7.3,7,14.7,20.9,22.2,6.6c7.4,3.2,14.9-1.1,22.4,6.1c7.5-0.8,15.1-0.1,22.7,5.1
	c7.6-9.9,15.3-6.1,23,3.8c7.7,10,15.4,7.3,23.2,2.5c0,1.1,0.2,2.4,0.2,0c0,10.5,0.2-2.6,0.2,0c5.4,1.8,10.8,0.9,16,1.4
	c5.2,2.4,10.2,7.6,14.6,5.5c4.5,4.8,8.5,0.5,11.7,10c1.7,12.1,3.1,4.2,4.4,6.4c1.3,5.3,2.4,3.2,3.4,7.1c1.9,3.3,3.3,11.3,4,15.4
	c0.2,1.5,0.3,7.3,0.5,4c0-1.3,0.1-12.5,0.1,1c0,1.2,0-8.7,0,0.5c0-2.1,0,6.6,0,0.4c0-1.8,0-1.9-0.1,1.1c-0.2,9.2-1,11.4-2,6.6
	c-2-7-4.8,13.2-8.3,12.1c-3.5,26.9-7.6-1-12,7.7c-2.2-16.2-4.6,7.6-6.9,1.8c-2.4,14-4.8-5.2-7.3,0.4c-1.2-3.1-2.5,20.4-3.7-0.2
	c0-16-3.9,18.9-3.9-0.5c-3.1-8-6.4-9.9-9.6-0.6c-6.6,7.8-13.5,10.3-20.2,4.1c-3.3-8.1-6.6-11-9.5-8.6c-2.9,2.5-5.4,13.6-7.2,24
	c-1.9,2.8-3.1,27.7-3.6,11.7c-0.1-11.6-0.2,13.2,0.2,19.4c0.4,6.3,1.2,8.4,2.7-5.1c0.4,13.6,0.9,1.5,1.4,2c0,11,0.9,30.7,0.9,1.2
	c0,5.6,1.4,4,1.4,1.7c0-18.1,2.7,10.2,2.7,3.2c1.7,2.1,3.3-22.9,4.9,6.3c3.1,0.4,5.8,29.5,7.7,12.9c2-5.7,3.2,24.7,3.3,12
	c0.1-3-0.8,13.9-2.6,8.3c-0.9-1.7-2.2,16.5-3.4,3.2C1580.9,436.1,1579.6,451.5,1578.1,440.1z"/>
<g>
	<path class="st0" d="M782.2,356.8C782.2,365.6,782.8,339.2,782.2,356.8C782.2,350.2,782.2,366.1,782.2,356.8z"/>
	<path class="st0" d="M125.5,382.1c5.3-2.5,10.6-0.9,15.8,3.1c5.3,13.3,10.5,4.2,15.7,1.2c5.2,4.7,10.4,3.5,15.5,1.4
		c5.1-2,10.2-4.9,15.3-3.2c5.1-22.8,10.1-7,15.1-7c5-22.3,9.9,1.7,14.8,0.7c4.9-0.1,9.8,0.8,14.6-4.7c4.8-15.2,9.7,14.5,14.4-5.9
		c2.4,4.3,4.8,6.7,7.2-3.5c0-13.8,0.9-16.3,1.8-20.7c0.9,6.5,1.8,0.7,1.8,18.8c1.2-16,2.4,11.3,3.6-2.1c2.4-26.1,4.8,16.8,7.2-4.8
		c0,10.6,0.9-25.4,0.9-0.6c0-1.3,0.5,13.3,0.5-0.4c0-15.8,0.2-13.5,0.5-16c0.2,10.5,0.5,16.5,0.5,15.3c0.6,5.4,1.3-18.3,1.9-1.2
		c2.5-41.1,4.6,7.6,6.4-2.2c1.8,0.8,3.8-13.9,6.3,1.1c5.1-9.2,11.7-3.4,18.1,12.4c6.5,4.9,13,28.6,19.8,19c3.4-7,6.9,2.5,10.5,8.6
		c3.6,8.3,7.3,12.8,11.1,11.5c3.8,15.1,7.8,8.3,11.9,9.6c4.1,14.7,8.4,12.8,12.9,8.9c4.5,15.6,9.1,22.9,13.9,7.9
		c0,21.4,3.6,16.2,3.6,1.8c0-8.3,0.9,6.2,0.9,0.5c0,9.8,1.2,1.4,1.2,0.5c0-1.6,2.4,6.2,2.4,1c1.6,3.5,3.3-1.9,5,1.7
		c1.7,1.2,3.5,14.9,5.2,1.2c7.1-9.3,14.8-4.4,21.5-0.8c6.8-4.1,12.9,2.1,18.1-7.9c5.2-0.4,9.7,7,13.8-10.8
		c4.1-11.2,7.7-1.1,11.1-11.8c3.4-3.6,6.5-29.7,9.5-11.7c3-2.2,5.8,1.1,8.6-12.7c5.5-7.8,10.5-3.8,15.5-24.4
		c5-11.9,9.9-19,14.9-22.5c2.5,6.1,5.1-16.3,7.3-8.4c0.2-13.4,0.4,3.7,0.5-0.5c0-14.6,1.9,19.1,1.9,2.1c0-1.8,9.3-6.6,9.3,10.7
		c3.2,25.7,6.7,17.8,10.2,11.1c3.7-13.1,7.4,21.6,11.5,10.5c4-18.5,8.3,7.5,12.8,9.3c2.2,16.3,4.5,8.1,6.9,16.6
		c2.3-19.6,4.7-14.3,7.1-9.1c4.8,2.9,9.7-0.3,14.7,5.6c5,1,10,5.6,15,3.8c5-7.2,10.1,12.1,15.1,2.2c5-8.6,10-6,15,0.8
		c5-5.7,9.9-7.7,14.9-0.3c0-4.4,7.4-6,7.4-0.6c2.5,12.8,4.9-10.2,7.3-0.7c9.7,18,19.3-1.2,28.8-4.6c9.5,20.4,18.8-5.3,28.1-6.8
		c4.6-7.2,9.2,13.9,13.8-4.1c4.6,5.2,9.1-0.8,13.6-4.4c0-5.4,6.8,19,6.8-2.3c0,11.9,3.4,5.5,3.4-1.2c1.3-21.7,2.6-9.1,4-1.5
		c1.5,3.5,3-16.4,4.4-2.1c0,5.4,1.4,4.6,1.4-0.4c0-17.5,3.4-11.3,3.4-1.1c0,0.6,1.7-14.1,1.7-0.6c0,0.9,0.9-4.1,0.9-0.3
		c0,14.5,0.4,3.6,0.4-0.2c0,3.4,0-16.3,0-0.1c-0.2-4-0.6-4.6-1.2-0.9c0.9,3.3,1.9-10.2,2.8-1.3c-3.4-0.9-1.9,2.9-2.5-1.1
		c0-5-0.4-7.9-0.4,0.1c0-8.1-0.9-1.9-0.9,0.1c0-11.3-1.7-12.2-1.7,0.3c0-10.5-3.5,3.4-3.5,0.5c0-4.8-7-16.4-7,0.9
		c-4.7,1.6-9.4,14.6-14.1,1.5c-9.4-0.2-18.7,2.6-28,1.7c-9.3,3.5-18.6,9.9-27.7-0.7c-9.1,4-18.1-0.6-26.4-4.5
		c-8.3-17.3-16.2,17.9-22.1-10.4c-6,7.4-9.7-20.8-11.3-17.5c-1.7-9.9-1.3-2.7,0.4-22.9c0-4.4,0.7,21,0.7-3c0-0.2,0.8-7.5,0.8-3.1
		c0,10.9,0.9,1.5,0.9-3.4c0,0.7,0.9-4.8,0.9-3.7c0.7,14,1.2,7.4,1.7,4.5c0.5-8.6,0.9-17.4,1.3-19.8c0.7-15,1-19.6,1-16.1
		c-0.1,18.7-0.6-10.6-1.7-16.6c-1.1-7.3-2.9-18.1-5.5-16.6c-2.5-10-5.8-12.7-9.7-15.1c-1.8,4.3-4.2-7.3-6.3-6.4
		c-2.2-3.8-4.6-4.5-7-5.5c-2.5,12.7-5-0.9-7.5-4.5c-2.6,3.1-5.2,5.6-7.8-3.6c-5.3-16.4-10.7-7.5-16.1-4.8c-5.4-3-10.8-16.8-16.2-2.2
		c-10.7,2.3-21.3-7.2-31.7,1.6c-10.4,0.7-20.5-3.3-30.3,8.1c-4.9,5.3-9.7,6.4-14.4,6.3c-4.7-1.2-9.3,17.9-13.7,8
		c-2.2-4.9-4.4-5.5-6.6,4.6c0,11.5-3.2,6.9-3.2,2.5c-1.1,6.5-2.2-18.3-2.9,2.3c-3.1,20-6.7-0.3-10.2,7.8
		c-7.2-6.5-14.8,36.7-22.7,13.7c-7.9,11.5-16.1,8.7-24.4,10.5c-8.3-16.8-16.8,3.2-25.2,6c-4.2,2.4-8.3-2.4-12.4,0.4
		c-4-2.5-8-3.7-11.7-2.1c0,11-1.4-3.9-1.4-0.4c0,20.7-1.3,15.1-1.3-0.6c-0.9-4.4-1.8-5-2.7-1.1c-1.6,7.9-3.4,7.2-4.9-2.9
		c-3.2-5.7-5.8,13.4-8.3-8.1c-1,4.8-2.4-5-3.2-5.1c0,6.3-1.4-6.2-1.4-2.7c-0.5,1.3-0.8-18.5-1.2-2.9c0-1.7-1.2-5-1.2-2.9
		c0-0.3-0.9-1.4-0.9-3.1c0,1-0.9,4-0.9-3.1c0,3.8-1.1,1.7-1.1-4c-1.7-11.3-4.2-18.5-7.3-14.5c-3.1-3.6-6.7-12.8-10.7-11.6
		c-4,18.7-8.2,5.1-12.6-8.7c-4.4,14-9-3.6-13.6-6.4c-4.7-4.1-9.4,1-14.2-9.1c-4.8-1.5-9.6-1.2-14.4,1.6c-9.7-6.6-19.5-1.6-29.2-2.1
		c-9.7-1.7-19.5,3.6-29.1,2.3c-4.8-1.6-9.6,0.8-14.4,3.1s-9.5,1.6-14.2,3.5c-4.7,6.4-9.3,9.5-13.8,4.3c-4.6-5.8-9.1-2.6-13.5,6.8
		c-4.4-11-8.7,4.9-12.9,1c-4.2,3.9-8.3,11.5-12.2,14.9c-3.9,10.3-7.7-2.6-11.3,10c-3.6,6.6-7,4.6-10.2,11.2
		c-3.2,5.7-6.1,9.2-8.8,12.4c-2.7,16-5.1,15.3-7.2,13.5c-2.2,15.7-4.1,8.2-5.7,14.3c-1.6-10.6-2.9,18.3-3.9,14.8
		c0-16.8-1.4,3.2-1.4,7.5c-0.5,3-0.8,4.9-1.1,7.6c-0.3,0.2-0.6-14.5-0.8,7.7c0,3.9-0.1,13-0.1,7.9c0.1-0.8,0.5,5.6,1.5,16.1
		c0.9,5.1,2.4-3.2,4.6,16.2c2.2,13.5,5.2,19,8.8,15.1c3.6-2.1,7.8,17.9,12.4,12.5c4.6,5.5,9.6,3.2,14.7,9
		C115,364.8,120.2,382.8,125.5,382.1z M521,322.9c-0.5,2-0.6,3.7-0.3-0.3C520.8,319.4,520.8,315.2,521,322.9z M111.3,345.7
		c-6-0.7-10.9-16-14.2-16.2c-3.4-4-5.3-16.6-6.1-22.9c0,13.4-0.4,3.8-0.4-6.3c0-8.2,0.1-7.6,0.1-6.5c-0.1,15.3,0.7-5,1.1-13.2
		c1-24.4,3.1-39.8,6.2-25.5c3,1.3,7.1-22.1,12.1-23.3c4.9,0.9,10.9-10.1,17.6-20c6.7-14.2,14-24.8,21.9-15.9
		c7.9,3.4,16.2-6.3,24.9-11.4c4.3,16.4,8.7,2.8,13.2,3.8c4.4,4.7,9,14.1,13.5-10.8c4.5-3,9.1-2.6,13.7,5.4
		c4.6-7.6,9.2,10.3,13.8-7.9c4.6-5.4,9.2-4.5,13.8,0.4c4.6,0.3,9.1-6.5,13.7,1.7c9,2.6,17.9,3.2,26.2,7.4c8.3,8.3,16,16.1,22.3,14
		c6.2,1.5,10.9,19.7,12.7,20.9c0-1.4,1.4,4.8,1.4,6.7c0-10.8,0.8,23.4,0.8,3.8c0-4.5,1.1,16.1,1.1,3.8c0.4-1.6,0.7,8.3,1.2,3.8
		c0,12.9,1.6,2.5,1.6,3.7c0.9,12.4,2.5,8.6,3.8,7.2c2.9,5.6,6.6,0.7,10.9,12.7c4.3,0.6,9.2,11.5,14.4,8.8c5.2-3.8,10.6,7.8,15.9,4.5
		c5.3,3.6,10.7,1.4,16,1c5.3-5.1,10.5,6.5,15.6-1.3c5.1,9.1,10.1-8.3,15.1-3c4.9-7.3,9.8-12.3,14.6-14.2c4.8-1.9,9.5-0.7,14.1,4.5
		c4.6,1.6,9.2,1.9,13.7-0.1c4.5-12.9,8.9-11.1,13.3-13.8c4.3-17.7,8.6-9.5,12.8-8.8c0,19.1,5.2-27.5,5.2-3.8
		c1.7-14.8,3.5-11.7,5.2-3.4c7.1-10.5,14.8-14,22.8-10.8c8,8.5,16.3-13.3,24.6-6.5c8.4-3.5,16.8-9.8,25-1.6
		c4.1-10.9,8.1-11.2,12-6.2c3.9-8.5,7.7,4.8,11.2,10.7c7.1,4.2,13.3,7,17.9,11.6c4.6,31.1,8,8.9,9.8,18.7
		c1.8,26.1,2.1,30.3,1.6,23.8c-0.5-20-0.9,11.3-1.8,12.7c0,1.8-0.6-0.9-0.6,3.2c0,0.7-0.7,3.9-0.7,3.6c0-9.1-0.8-0.2-0.8,3.9
		c0-6.4-0.6,6.5-0.6,4c-0.7-9-1.1,31.8-0.9,16.4c0.3,34.1,1.1-9.3,3,17c1.8,11.4,4.6,28.1,8.3,15.9c3.7,2.8,8.1,0,12.9,11.9
		c6.8,6.1,13.9-5.2,21.1,9.3c0-6.6-1.9-22.5-1.9,0c-4.5,7.5-9.1-18.2-13.6-1c-4.5,6-8.9-7.5-13.3-1.8c-4.3-10-8.7-14.7-12.9-3
		c-4.2-11.1-8.3-13.2-12.3-12.7c-4,0.5-7.8,3.7-11.5,3.1c-7.4,4-14.2-12.4-20.3-14.8c-3.1-1.7-6-5.8-8.9-16.8
		c-2.9-8.9-5.6-14.1-8.4-2.9c0-18.1-8.6,19.8-8.6-11.3c0-7.7-2.3,32.8-2.3-3c0,35.9-1.2-15.6-1.2-1.5c-0.6,5-1.3,16.2-2-2.2
		c-1.5-12.2-3.3-15.3-5.5-4.4c-2.2-3.1-4.9,15.8-7.9-3.2c-1.5-15.9-3,0.7-4.5-0.6c-1.4-17.6-3,19.1-4.3,0.2
		c-2.8-9.5-5.2-12.2-7.3,2.1c-4.2,11.5-7.2-4.7-9.7,6c-5,5.3-8.7,30.8-12.1,12.4c-3.4,13.4-6.4,9.2-9.3,12.1
		c-2.9,2.5-5.6,5.9-8.4,11.9c-5.4,10.5-10.7,5.6-16,23c-5.3,12.9-10.7,14.9-16.4,20.8c-5.6,2.3-11.7,9.6-17.3,15.2
		c-2.8-19.2-5.5,2.4-7.9,3.4c-2.4,9.5-4.5,18-6.7,0.1c-0.6-4-1.1-14.2-1.7-0.4c-0.6,0.2-1.2-12.4-1.8-0.6c0,10.7-0.9,10.8-0.9-0.4
		c0-5.8-0.5,2.6-0.5-0.2c0,33.1-0.7,16.5-0.7-0.3c0,12.2-0.7,22.9-1.4,14c-0.7-8.1-1.4-12.5-1.4-15.4c-3.7-5.6-7.2-2.5-10.8-6.2
		c-7.1,20.4-13.9-4.2-20.7-15.6c-6.8-22.1-13.4-21.1-20.2-18.4c-3.4,3.2-6.9-0.8-10.5-1.7c-3.6,11.4-7.3-0.4-11.3-18.2
		c-2,24-4,5.7-6.2,11.3c-2.2-7.6-4.4-16.4-6.8-21.1c-4.7-18.6-10.2-31.8-16.6-8.4c-6.3-1.1-14,3.3-21.6-2.5
		c-7.6-15-14.6,26.6-20.1,7.2c-1.5-16-2.7-9.4-4,2.7c0-5.7-3.4-12.7-3.4,2.5c-1.4-2.4-2.8-14.1-4.5,3.3c-0.4,5.2-0.8,11.1-1.2,18
		c-0.4,3.1-0.8,0.4-1.2-16.3c0-6.5-2.7,22-2.7,1.5c-1.7,9.8-3.6-3.1-5.5,2.9c-7.5,6.2-15.7,0-24,9.6c-4.2,16.3-8.4,29-12.7,15
		c-4.3-11.9-8.6-19.5-12.9-8.7c-4.3,20.3-8.6,0.8-12.9,10c-4.3-0.5-8.6,5.3-12.9-7.6c-4.2,6-8.5-7.3-12.6-10.8
		c-4.2-8.6-8.2,5.7-12.2,8.5c-3.9,8.7-7.7,22.2-11.3,3.8C117.7,374.2,114.4,343.9,111.3,345.7z"/>
</g>
<path class="st0" d="M-2590,264.2c0.2,8.8,1-0.2,2.2,9.5c2.4,7.4,6.1,5.3,9.7,13.7c3.7-4.3,7.4,10.3,11.1,8.2
	c7.5,1.4,14.8-1.6,22.2,10.1c7.4-2,14.7,5.5,22,6.6c7.3-2.9,14.6-13.9,21.9,4.9c7.3-7.9,14.5,3.2,21.8,4c7.3-2,14.5,12.1,21.8,3.3
	c7.2,20.2,14.5-7.3,21.7,2.8c7.2,2.2,14.4,0.1,21.7,2.5c7.2,9.8,14.4,3.9,21.6,2.3c7.2,7.5,14.3,3.4,21.5,2.3
	c7.1,8.9,14.2,11.1,21.2,2.6c7,7.1,14,0.4,20.5,3.5c2.2-2.7,4.4,10.1,6.3,1.6c-1.9-0.9-4.2-0.9-6.5,3.7c-5.9-0.6-12.5,13-19.2,7.9
	c-6.7-4.5-13.5,4-20.4,7.3c-6.9,17.3-13.8,8.4-20.6,8c-6.9-10.1-13.7-8.8-20.3,10.6c-3.3-7.7-6.5-4.5-9.4,7.8
	c-2.9-3.6-5.5,0.1-6.8,11.6c-0.6,16-0.9,15-0.7,7.1c0.1-8.8,0.7,21.8,1.7,7c1.9-2.4,5,8.8,8.2,10.2c3.2,12.3,6.6-2,10.1,6.2
	c3.5,8.9,7,19,10.5,4.2c7.1,4.1,14.3,6.9,21.5,5.6c7.2-15.9,14.4-0.7,21.6,3.6c7.2,9.1,14.5-3.7,21.7,2.4
	c7.2,0.1,14.5-10.7,21.7,1.5c7.2-2.8,14.5,4.3,21.7,0.9c7.2-6.6,14.5-6.7,21.8,0.3c7.3,3.6,14.5,0,21.7-0.2
	c7.2-0.2,14.5-0.4,21.8-0.8c7.2-0.5,14.5-1.1,21.7-1.7c7.2-0.6,14.4-1.3,21.6-2c7.2,1.6,14.4,4.9,21.6-2.2
	c7.2-1.5,14.4-15.2,21.6-2.4c14.4,10,28.8-5.8,43.1-5.8c14.4,0.9,28.7,5.7,43-8c7.1-11.8,14.3,2.5,21.4-5.8
	c7.1-5.9,14.2-12.6,21.1-9.5c1.7,7,3.4-5.1,5.1-4c1.6-1.3,3.2-4,4.4-6.2c1.2,4.3,1.5-18.5,1.3-8.3c-0.2,3.3-0.9-13.3-2.2-7.6
	c-1.3-4.7-3.1-2.4-5.1-6.1c-2-2.4-4-18.3-6.1-3.7c-4.1-11-8-11.1-11.9-3.7c-7.7,4.8-15.2,9.1-22.5-2.7c0,4.6-21.7,2.7-21.7-1.5
	c-7.1-16.1-14.1,16.3-20.8-2.3c-6.7-9.2-13.1-18.8-18.6-5.1c-5.5,4.4-9.7-5.4-12-9.3c-0.1-5.6-0.2,9.1-0.3-0.4
	c0.2-0.6,0.3,15.9,0.5-0.3c1.9-7.2,4.8,12.2,7.7-2.6c3,16.1,6.2-1.8,9.5-1.9c6.6-3.9,13.5,11.2,20.4-2.4c7-19,14,6.3,21.1-1.3
	c7.1-11.9,14.2-12.7,21.4-0.7c7.1,5.2,14.3,12.7,21.5-0.4c7.2,6.8,14.4-2.8,21.6-0.2c7.2,0.1,14.4-0.9,21.7-0.2
	c7.2,14.2,14.5,6.7,21.8-0.3c7.3-4.1,14.6-2.6,21.9-0.6c7.4,2.3,14.8,3.5,22.3-1.1c7.5,9.3,15.1,15,23.4-2.7
	c2.1,2.8,4.2,13.2,6.5-1.5c1.2-13.8,2.3-3,3.7-1.1c0-9.3,2,7.8,2-0.7c0,1.5,2.3,0.3,2.3-1c0,3.7,1.1,3.9,1.1-0.5
	c0,5.9,1.4,13.4,1.4-0.8c0,1.7,1.4-9.1,1.4-0.8c0.4,5.4,1,8.3,1.6-1.1c0.6-2.7,1.1-1.7,1.7-1.4c0.5-5.9,1.1-11.3,1.8-1.9
	c0.7-5.3,1.3,5.7,1.8-2.6c0.7,0.6,0.8,6.3,1.1-2c0,11.3,0.7-3.3,0.7-1.6c0.2,2.6,0.4-0.8,0.7-1.8c0.4-11.9,0.7-13.7,0.9-4
	c0.4-6.2,0.3-7.1-0.5-9.1c-1.5,6.3-4.7-33.3-7.3-12.3c-2.7,10.8-5.1-8.9-7.4-5.7c-4.6-15.1-8.8,9.7-12.8-5.9
	c-8.1-4.4-15.7-1.8-23.3-6.3c-6.1-12.3-12.2,26.5-18.3-3.2c-6.1,8.1-12.1,16.4-18.1-2.2c7.7-2.7,15.5-11.6,23.1-9.5
	c6.9-7.7,13.8,17.9,20.6-10c6.8-16.3,13.6-1.7,20.3-12.5c6.6-6.5,13.3-3.2,19.2-18.2c2.9-17.5,5.6-21.8,7.4-14
	c0.9,1.7,1.5-3.9,1.8-8.7c0.1,3.3,0.1-8.7,0.1-2.3c0-1,0,6.1,0-1.1c0,4,0-5.3-0.1-1.9c-0.1-1.6-0.3-5.5-0.7-4
	c-0.3,3.6-0.7-6.3-1.2-3.6c-1.9-7.9-4.5,2.8-6.7-9.4c-2.3-0.9-4.5-14.7-6.6-5c-4.2-7.2-8.1,3.9-12-6.1c-7.7-0.3-15.1,3.7-22.5-7.4
	c-7.4,3.5-14.7-6-22-5.2c-7.3-0.4-14.6-15.9-21.9-4c-7.3,3.8-14.6-12-21.8-3.3c-7.3-5.8-14.5,12-21.8-2.8
	c-14.5-4.8-29.1,3.1-43.6-4.4c-14.5,6.5-29.1-15.1-43.6-3.1c-7.3-4.4-14.5,2.6-21.8-1.2c-7.3,14.2-14.5,7.8-21.8-1
	c-7.3-0.3-14.5-8.9-21.8-0.7c-7.3-6.8-14.5,12.9-21.8-0.5c-7.3-17.3-14.5-0.8-21.8-0.3c-7.3-4.9-14.5-4.9-21.8-0.1
	c-7.3,0-14.5,0-21.8,0.1c-7.3,0.1-14.5,0.2-21.8,0.3c-14.5,12-29-1.2-43.6,1.2c-14.5-11.8-29,7.6-43.5,2c-14.5,9.6-29,4.7-43.5,3.2
	c-14.5,0.1-29-0.9-43.4,4.7c-7.2-1.7-14.5,12.2-21.7,3.4c-7.2-4.5-14.4,9.5-21.6,4.6c-7.2,3-14.3-3.2-21.4,7.3
	c-3.5,7.4-7-18.4-10.3,6.5c-1.6,4-3.2,17.8-4.5,5.5c-0.6-10.2-1.1,8.5-1.4,3.8c-0.2,4.6-0.2-3.8-0.3,2c0-18.2-0.1-12.2,0,1
	c0-9.7,0,0.6,0,0.8c0.1,9.6,1,5.5,2.8,12.3c1.7,14,4.2,18.9,7,10.3c5.6,8.2,12.4,2.6,19.2,13.3c6.9,2.5,13.9-3.8,21,8
	c7.1,4.1,14.2,5.7,21.4,5.6c7.1,1.6,14.3,3,21.5,4.3s14.3,2.5,21.5,3.7c14.3,2.4,28.5,4.8,42.4,7.9c6.9,1.6,13.7,3.4,19.7,5.9
	c2.9,1.2,5.7,2.8,7.2,4.2c0.1,0.1,0.2,0.2,0.3,0.3c-0.4,0.1-0.9,0.3-1.4,0.4c-0.6,0.2-1.3,0.3-2.1,0.4c-2.9,0.4-6.3,0.5-9.6,0.5
	c-6.8-0.1-13.8,8.4-20.8-1.4c-7.1,2.6-14.1,5.6-21.2-2.6c-7.1-3.4-14.2-4.7-21.3-3.1c0-13.3-10.7,5.9-21.5-3.3
	c-10.7-10.3-21.5,0.2-21.5-3.3c-7.2-11.2-14.4,6.4-21.6-3.1c-7.2-4.5-14.5,4.3-21.8-2.7c-7.3-3.3-14.7-7.7-22.1-2
	c-7.4,13.7-14.9,16.5-22.5-0.9c-7.6,2-15.4,0.3-23.5,1.4c-4,0.5-8.2,1.4-12.6,2.7c-4.3,1.3-9,3.1-13.8,6.4c-1.2-1.6-2.4,0.4-3.6,2.9
	c-1.2,2.5-2.3,10.8-3.4,3.7c-1,21.6-2-4.4-2.8,4.5c-0.7,3.3-1.5,2.7-1.9,5c-0.2,5.5-0.4-2.4-0.6,2.6c-0.2,4.7-0.2-3.5-0.3,2.5
	c-0.1-11.1-0.1,0.6-0.2,2.5C-2590.1,273.1-2590.1,259.1-2590,264.2z M-2319.6,339.2C-2319.4,344.7-2319.2,344.8-2319.6,339.2
	C-2319.6,341.6-2319.6,346-2319.6,339.2z M-2119.3,346.4c0.1,15.3,0.1-13.1,0.1,0.3c0-7.5,0-8.5,0,0.2c0,0.4-0.2,12.9-0.2-0.4
	C-2119.3,353-2119.3,351-2119.3,346.4C-2119.3,346.6-2119.3,350-2119.3,346.4z M-1883.4,299.9
	C-1883.4,304.5-1883.4,294.9-1883.4,299.9C-1883.4,316.1-1883.4,289.6-1883.4,299.9C-1883.4,295.8-1883.4,274.5-1883.4,299.9z
	 M-1879.6,193.6C-1879.5,193.7-1879.5,180.5-1879.6,193.6C-1879.6,182.3-1879.6,198.4-1879.6,193.6z M-2319.3,249.7
	C-2319.4,249.7-2319.3,249.7-2319.3,249.7c-0.1,0.1,0,0.2,0,0.1c0-0.1,0-0.2,0-0.3C-2319.4,249.6-2319.3,249.7-2319.3,249.7z
	 M-2562.2,261.3c0.1,3.7,0.2-5.4,0.3-0.3c0.2-12.3,0.3,10.1,0.6-0.6c1.1-0.7,3.2-6.2,5.8-2.7c2.6,2.6,5.5-2.3,8.6-2
	c6.2-9,12.9-14.5,19.8-1.8c6.9-2.7,13.8,0.5,20.9,0c7,11.9,14.1-5.8,21.2,1c7.1-5.4,14.2-2.4,21.4,1.6c7.1-12.2,14.3,1.7,21.5,1.9
	c14.4-11,28.7-5.6,43.2,4.2c14.5-2.1,29-7.7,43.7,3.4c7.4-8,14.8-6.4,22.5,0.2c3.9-6.6,7.8-3.4,12-1.4c1-0.2,2.1-0.4,3.2-0.8
	c1.1-0.3,2.3-0.7,3.5-1.2c0.6-0.2,1.2-0.6,1.9-0.9c0.7-0.4,1.2-0.6,2-1.2c0.7-0.6,1.4-1,2-1.7c0.7-0.8,1.4-1.6,1.9-2.5
	c0.5-1,1-2.1,1.3-3.2c0.2-1.1,0.4-2.2,0.4-3.3c0-0.9-0.1-1.8-0.2-2.6c-0.1-0.9-0.4-1.7-0.7-2.5c-1.2-3.3-3.3-5.6-5.3-7.3
	c-4-3.3-7.9-4.9-11.7-6.4c-7.6-2.7-14.9-4.2-22.2-5.5c-7.3-1.3-14.5-2.4-21.7-3.4c-7.2-1.6-14.4,1.4-21.5-2.9
	c-7.1-2.2-14.3,4.6-21.4-3.1c-7.1,8.4-14.2-2.3-21.1-3.8c-7-1.1-13.9,8.8-20.7-5c-6.8-2.8-13.4,7.4-19.6-7.2
	c-6.2,0.7-12.1-0.5-16.4-11.1c-4.4-13.9-7-16-7.1-16.3c-0.7,2.8,5-15.3,11-10.6c6.1,15.5,12.9-11.7,19.7-6.5
	c6.9-3,13.8,8.8,20.9-4.2c7,3.5,14.2,6.8,21.3-2.9c7.1-3.9,14.3-12.4,21.4-2.1c7.2,0.6,14.3,0.9,21.5-1.5
	c7.2,2.2,14.4,14.2,21.6-0.9c7.2-5.4,14.4-12.5,21.6-0.6c14.4-1.9,28.8,14.9,43.2-0.2c14.4,6.5,28.8,4.4,43.2,0.9
	c7.2,0.2,14.4,0.5,21.6,0.8c7.2,0.3,14.4,12.6,21.6,1c7.2-6.2,14.4,0.5,21.6,1.1c7.2,5.7,14.4,13.4,21.6,1.3
	c7.2-10,14.4,1.8,21.6,1.5c7.2-4.9,14.4,4,21.5,1.7c7.2,0.4,14.4,10.3,21.5,1.8c7.2-4.4,14.3-0.1,21.5,2c14.3,5.1,28.6,9.7,42.9,4.5
	c7.1-1.5,14.3-2.5,21.4-1.9c7.1,0.6,14.2,15.4,21.3,7.4c7.1,9.6,14.1,9.5,21.2,3.2c3.5,15,7,14.1,10.5,9.3c3.5-11.7,7-2,10.5-5.6
	c7,4.7,13.9,10.6,20.7,4.3c6.8-10.9,13.6,15.8,20.2,5.2c6.5,20.7,12.9,7.5,18.6,6.5c2.8,15,5.4-6,7.3,3.9c0.2,10.1,0.4-10.5,0.6,0.4
	c0-7.4,0-2.3-0.1,0.2c-0.5,6.3-1.5,10.9-2.9,5c-2.9,9.5-7.5,8.9-12.6,11.2c-5.2,12.3-10.9-9.5-16.8,9.9c-6-9.5-12.3,8.2-18.6,8.6
	c-6.4,4.2-12.9,9-19.5,7.7c-6.6,10.2-13.3,6.9-20,7c-6.8-11-13.5,7.5-20.4,6.6c-6.9,13.3-13.8,10-20.9,6.8
	c-3.6,7.6-7.1,19.3-11.4,4.3c-1.1-6.8-2.3-1.2-3.8,1.8c-0.7,20.7-1.7,3.4-2.9,1.8c-0.7-6.8-1.5,8.8-2.6,2.2c-1,8-2.8,2.4-4.6,7.5
	c-2.4,4.7,0.8,21.2,4,17.2c3.2,10.1,4.7,14,6,4.2c2.5-12.4,3.7-12.3,4.7,1.5c2.1,6.8,3.4-6.2,4.7,0.6c4.9-17.9,8.7-10.4,12.1,0.3
	c0-7,10.6,17.7,10.6,0.2c7,7.3,14.1,8.5,21.1,0.9c3.5,7.2,7,14.3,10.5,12.5c3.5-4.4,7,2.3,10.5-11c6.8-2.3,13.7,5,20.4,2.2
	c6.7,5.3,13.4-8.9,19.9,3.2c-6.3,3.9-12.6,9.5-19,1.3c-3.2,9.8-6.4,2.2-9.6-2.8c-3.2-3-6.4-7.1-9.6,3.7c0,23-10.8-15.6-21.7,0.8
	c-10.8-3.7-21.7,2.9-21.7,0.8c-7.3-6.3-14.5-2.8-21.8-3.5c-7.3,8.6-14.6,6.4-21.9,5.8c-7.3-1.2-14.6-0.6-22,0.5
	c-7.3,7-14.7,2.4-22.1,3.8c-7.4,0.6-14.9,3.9-22.5,4c-3.8-4.5-7.6,2.3-11.6,3.2c-4,11.7-8,15.7-12.4,5.4c-1.1-0.9-2.2-2.4-3.4,2.2
	c-0.6,20.4-1.1,3.7-1.7,1.4c-0.6,7.9-1.2,4.5-1.8,1.7c-0.6-12-1.2,22.5-1.8,2.1c-0.6-8.1-1.1-7.3-1.6,2.4c-0.5-11.4-1,13.2-1.4,2.9
	c-0.4,10.7-0.7,11.1-0.9,3.3c-0.3,4.1-0.3-12.3-0.3,3.4c0,19.4,0.1-2.3,0.3,3.2c0.2,8.2,0.4-8,0.7,3c0.3-8.2,0.6,13.4,1,2.4
	c0-0.4,0.5,8.2,0.5,1.2c0-10.5,0.5-5.7,0.5,0.8c0,7.5,0.9,4,0.9,1.6c0.7-8.9,1.4-4.7,2.1,3.1c3.1-6.4,6.8,13.1,10.7,9.8
	c3.9,10.9,8-12.8,12,5.8c8.1,5,16,3.2,23.6,4.7c7.7,14.8,15.2,2.9,22.5,0.8c0-19.9,21.7,4.4,21.7-0.2c7.1-0.5,14.1-6.1,20.7,0.9
	c3.2-9.9,6.4-8.7,9,2c2.6-3.7,4.4-29,5.4,3.6c1,3.2,1.4,0.2,1,5c-0.2-1.6-0.9,9.1-1.7,2.7c-0.9,14.2-2,3-3.2,2.9
	c-5,0.9-11.4,5.9-17.9,9.4c-6.5,17-13.3,5.6-20.2,6.8c-6.9-3.5-13.8,3.4-20.8,5.5c-7-0.1-14-11.3-21.1,4.6
	c-7.1-1.4-14.2,16.7-21.3,3.9c-7.1,6.1-14.2-3.8-21.4,3.4c-14.3,4.8-28.6-0.3-43,5.6c-14.4,1.6-28.8,3-43.1,4.2
	c-14.4,0.7-28.8,3.9-43.3,0.8c-14.4,6.9-28.9-7.3-43.2-2.1c-7.2-8.5-14.4-0.6-21.5-2.2c-7.1-0.7-14.3-1-21.3-3.2
	c-7.1-4.6-14.1,2.8-21-4.5c-6.9,13.6-13.7,1-20.2-6.5c-6.4-6.2-12.7-19-17.4-10c-2.3-2.2-4.1-2.6-4.9-6.8c-0.4,3.9-0.6-2.1-0.6-3.6
	c0,2.1,0.2-4.8,0.6-3.6c1.7-2.7,6.7,0.2,12.4-12.1c5.7,5.7,12.2-0.3,18.8-8.1c6.6,0,13.4,2.5,20.3-6.3c6.9,4.1,13.9-11,21-5.8
	c7.1-13.2,14.2-13.2,21.5-7.1c3.7-5.3,7.4-13.3,11.3-5.7c2-4.9,4-1.3,6-5c2-6.2,4.1-13.7,4.9-9.6c0.1-7.3,0.1-5.6,0.2-1.6
	c0,8.6,0.1,11.6,0.1-1.7c0-2.8-0.5-8.7-1.2-5.2c-1.4,2.6-3-3.6-4.4-5.8c-1.4,7.4-2.6-9.2-3.8-2.7c-1.2,2.9-2.3-7.2-3.3-1.7
	c-4.2-7.6-8,5.9-11.8-4.2c-7.5,0.8-14.8-16.6-22-5.2c-7.3-1.6-14.5,6.9-21.7-4c-7.2-18.6-14.4-3-21.6-3.4c0-7.4-10.7,2.1-21.4-3.3
	c-10.7-12.9-21.4-9.7-21.4-3.3c-7.1,0-14.2,7.4-21.3-3.3c-7.1-2.7-14.1-9.4-21.1-3.6c-7,7.7-14-3.2-20.9-4.1
	c-6.9-5.2-13.7,1.7-20.4-4.8c-6.7-14.6-13.3-0.2-19.6-5.9c-6.3,0.8-12.3,1.8-17.3-7.7c-2.5,4.4-4.7,6.4-6.4-4.5
	c-1.7-8.6-2.6,5.7-2.9-3.7c-0.2-8.9-0.3,1.4-0.3-1c0,6.7,0-1.9,0-0.3c0-2.9,0-6.4,0-0.2c0,5.2-0.1-10.5,0-0.2c0,7.5,0-9.5,0,0
	C-2562.2,272.1-2562.2,250.3-2562.2,261.3z"/>
<path class="st0" d="M-122.6,351.1c0-21.1-0.2,5.5-0.5-4.8c-0.3-13.6-0.8-2.5-1.2-4.3c-0.5-16.9-1.1,0.5-1.7-3.7
	c-2.6-13.9-5.7,5.8-8.8-10.7c-3.1,14.1-6.3-1.6-9.4-6.8c-6.3-11.7-12.6,5.5-18.8-8.5c-6.2,0.6-12.4,1.1-18.6-5.1
	c-6.2,0.4-12.3-13.4-18.4-3.2c-3.1,13.7-6.1,9.7-9.1,3.9c-3-14.4-6.1-10.1-9.1-5.9c-6.1,14-12.1,11.6-18.1-1
	c-5.9,20.2-12.3,9-17.5-0.2c-5.4-21-10.9,6.3-16.3-0.6c-5.4,7.1-10.8,12.2-16.2-1.4c-5.4-0.8-10.7-2.6-16-2.2
	c-5.3,1-10.5,2.2-15.7-3c-5.2-6.6-10.3-5.7-15.3-4c-5,8.5-9.8-11-14.5-5c-4.4,9.1-8.6,4.9-12.4,3.7c-3.8-8.2-7.3-5.9-10.1-16.5
	c4.1,1.2,8.5-1.4,12.8,1.9c2.7,4.8,5.5,11.1,8.2,13.5s5.5,0.8,8.3-10.5c5.6-10.9,11.2,10.6,16.9,3.2c5.7,18.6,11.4-22,17.1,3.2
	c5.7-15,11.5-19.8,17.3,2.9c5.8-11.4,11.7-6,17.6,2.5c5.9-8.3,11.9,2.6,17.9,1.8c3,7.9,6.1,4.8,9.1-0.3c3.1-6.5,6.1-30.7,9.2,1.1
	c6.2-9.3,12.5,16.2,18.9-0.9c6.4-17.5,13-1.7,19.6-3.8c6.6-26.9,13.3,5.1,19.4-9.3c3.1-19.1,5.9-4.4,8.4-7.5
	c2.4-3.2,4.6-11.3,6.3-9.2c3.4-30.3,5-18.5,5.5-19.6c0.6-18.1-0.2,1.7-0.9-18.5c0-0.6-2-6-2-8.9c-0.9,6.8-2,3.7-3-8.6
	c-2.3-5.3-5.1-16.7-8.3-16.1c-3.2,3.3-6.9-24.7-10.8-14.3c-3.9-2.5-8.1-18.4-12.5-12.6c-4.4-8.2-9-8.2-13.7-11
	c-4.7-6.1-9.6-8.5-14.5-10.4c-4.9-2-10-3.6-15.1-8.1c-10.2-6.8-20.8-11.1-31.4-14.9c-5.3-3.3-10.7,0.8-16.1-6.4
	c-5.4-3.3-10.9-23.1-16.3-5.8c-5.5-7.5-11-5.3-16.5-5.3c-5.5,8.4-11.1-9.9-16.7-4.8c-11.2-13-22.4-9.8-33.8-8
	c-11.3,8.1-22.8-11.2-34.4-5.7c-5.8,0.7-11.7-0.8-17.6-1.6c-5.9,4.8-12.2,4.8-18.3,0.7c-6.1-7.5-12,6.1-17.6,4.7
	c-5.6,2.1-11,4.7-16.1,7.4c-5.1,9.4-10.1,10.9-14.9,8.9c-4.8-3.8-9.5,21.8-14.1,9.5c-4.6,8.4-9.2,16.8-13.8,9.6
	c-4.6,14.3-9.2,8.7-13.8,9.2c-4.6-10.3-9.3,11.8-14.1,8.5c-4.8-3-9.6,11.1-14.5,7.3c-4.9-1.8-9.9,6.6-15,5.7
	c-5.1,20.7-10.2,17.9-15.4,3.6c-2.6,2.8-5.2,8.2-7.8,1c-2.6-5.3-5.2-0.9-7.8,0.3c0,16.9-8.3-12.5-8.3-0.1c0-8.5-4.5-1.3-4.5-0.1
	c0-0.3-4.5-16.3-4.5,0.1c-6,6.3-12.1,15.9-18.1,1c-6,6.9-12,4.9-17.9,2.3c-5.9-5-11.8-5.7-17.7,3.6c-5.8,2.5-11.6-6.6-17.4,4.8
	c-5.7-20-11.4,29.1-17.1,5.9c-5.6,12.6-11.2-0.7-16.6,7.2c-5.4-2.7-10.8,20.7-16,8.6c-5.2,3.2-10.3-9.1-15.2,10.4
	c-4.9,0.3-9.6,15.9-14,12.4c-4.4,1.8-8.4,18.2-12,15c-3.6-13.6-6.4,34.3-8.3,18.2c-1,12.4-1.6,9.9-2,10.1c0-12.1-0.3,23.9-0.3,5.2
	c0,5.1,0,17.6,0,4.4c0.1,7.5,0.6,17.8,1.5,17.6c0.9-1,2.4,14.6,4.7,18.1c2.3,2.2,5.4,8.8,9.4,17.5c4-22.3,9-14.2,14.4,14.6
	c5.4,8.2,11.3,4,17.3,10.2c6,20.6,12.1,13,18.2,6.6c6.1-6.4,12.2-7,18.3,4.1c6.1-2.9,12.1,9.2,18.2,2.4c6,6.1,12-5.3,18,1.2
	c6,5.5,11.9,12,17.8,0.3c0-1.6,4.4,8,4.4,0c0,5,2.2-7.9,2.2,0c0-3.4,1.1,6.2,1.1,0c0,12.6,0.9,2.5,0.9,0c0-17.1,7.3,4.2,7.3,0.2
	c0-1.1,7.3-8.3,7.3,1c1.2,19,2.4,10.6,3.6,0.7c0,2.6,3.6-17.8,3.6,0.9c4.8-15.5,9.4-9.5,14,5.1c4.5,12.2,9-8.5,13.2,7.3
	c2.1,10.8,4.3,12.6,6.3,4.4c0,10.4,6.1,6.6,6.1,4.8c0-7.8,5.8,3.8,5.8,5.2c1.9,2.9,3.7,11,5.6,5.5c3.7,9.3,7.2-6.5,10.5,11.7
	c3.4,4.4,6.6-12,9.7,12.5c3-0.1,6,7.7,8.9,15c2.9,7.3,5.6,14,8.3,11.9c5.3,22.2,10.3,21.1,14.8,28.3c2.3-0.8,4.5,8.1,6.7,14.6
	c2.2-2.5,4.3,1.1,6.2,14.8c2,10.5,4,12.7,5.8,15c0,6.7,2.7,7.6,2.7,7.6l1.3,3.8l0.6,1.9l0.3,0.9l0.2,0.6c0.1,0.8,1.4,1.6,1.9,1.6
	c0.3-0.6,1-1.4,1.4-2.5c0,0,0,0,0,0c0,0,0,0,0,0c0-0.1,0.1-0.1,0.1-0.2c0.2-0.6,0.2-1.2,0.3-1.7l0.1-1.1l0.3-4
	c0.2-1.5,0.5-1.5,0.8-7.9c0.7-13.9,1.5-10.7,2.7-15.5c1.1-15.7,2.5-20.7,4.2-15.1c1.7-8.8,3.7-11.8,6-14.4
	c4.5-9.1,10.5-16.8,17.7-25.1c7.2-6.6,15.6,4.7,24.8-18.4c4.6-0.6,9.4-21.5,14.4-6.4c5-4.6,10.1,4.1,15.3-4.6
	c5.2-15.9,10.5-3.1,15.8-3.2c5.3,7,10.7-1.5,16.2-1.8c2.7-0.3,5.4-0.4,8.2-0.4c2.7-0.1,5.5-0.2,8.2-0.2l8.3,0.1c0,0,4.2,0.9,4.2,0
	c0,0.8,4.4,5.4,4.4,0.1c5.8-8,11.7-8.8,17.5,0.2c5.8,7.8,11.7-13.7,17.5-0.2c5.8,0.4,11.7-5.4,17.6-3.6c5.9,11.7,11.7,6.5,17.6,2.1
	c5.9-1.1,11.7,5.5,17.6-1.8c5.9-8.6,11.7-0.4,17.6-1.6c5.9-0.9,11.7,4.2,17.6-2.7c5.9,18.2,11.7,5.2,17.6-3.4
	c5.9-9.7,11.7,17.6,17.6-4.3c5.8,1.8,11.7-6.2,17.5-5.5c5.8-11.9,11.7,19.7,17.5-7.3c5.9-3.8,11.7-11.6,17.9-11.6
	c0.7,0.6,1.6-13.8,2.3-2.3c0-7.2,1.2,15.1,1.2-1.2c0.4-17.9,0.8,16.9,1.2-1.5c0,3.1,1.2-0.5,1.2-1.6c0.4-7.1,0.8,2.5,1.2-1.9
	c0.4,8.5,0.8,4.6,1.1-2.1c0.4-11.6,0.7,7.5,1-2.7c0,7.4,0.4,7.4,0.4-1.4c0.1,3.9,0.2-16.5,0.3-1.8c0.1,7.7,0.2-5.7,0.2-1.8
	C-122.7,363.8-122.6,329.8-122.6,351.1z M-180.7,361.7c-4.8-0.8-9.8-19-14.9,5.3c-5.1-3-10.3,2.3-15.6,4.4c-5.3-4.8-10.6,5.7-16,3.7
	c-5.4-8.3-10.8,2.4-16.3,3.1c-5.5,5.9-11-8.9-16.5,2.6c-5.5,16.5-11.1,9.1-16.6,2.2c-5.6,13.7-11.2-13.9-16.8,1.7
	c-5.6,2.3-11.2,6.2-16.8,1.4c-5.6,10.4-11.3,5.7-16.9,1c-5.6,14.6-11.3-9.6-17,0.7c0,6.6-4.2,12.3-4.2,0.2c0-10.5-4.5,6.9-4.5,0.2
	c0,9.9-9-11.4-9,0.5c-3,10-6,7-9,0.8c-3,0.3-6,0.6-9,1c-11.9,1.6-23.9,4.1-35.4,7.8c-11.6-6.9-22.7-2.1-33,15.2
	c-5.1,11.7-10,13.8-14.5,10.8c-4.5,7.9-8.6-0.9-12.3,12.8c-3.7,11.7-7,25.7-9.8,14.4c-2.8-1.5-5.2,12.2-7.2,15.4
	c-1.1,4.1-1.8,6.2-2.7,8c-0.7,1.4-1.5-2.7-2,8.1c-1.2,3.1-2,14.7-2.5,16.3c-0.4-11.1-0.6-9.1-0.7,11.8c-0.9-4-1.8-1.6-2.8-11.4
	c-1.4-9.6-2.9-15.2-4.4-15.6c-1.6-7.4-3.2-1.8-5.1-15.5c-3.6-3.1-7.6-19.8-12.2-30.5c-2.3-5.8-4.7-9.1-7.3-13.1
	c-2.6-3.9-5.3-8.4-8.2-16.4c-2.9,5.5-6,5.1-9.3-14.2c-3.3-3.7-6.8-6.1-10.5-13.6c-3.7-3.3-7.7-30.9-12-12.8
	c-4.3,5.4-8.9-7.8-13.8-11.6c-4.9,1.8-10.2-24.4-15.8-9.9c-5.6,4.9-11.5-3.8-17.7-7.4c0-4-4.7-10.9-4.7-1.4
	c-1.6-2.8-3.1,2.7-4.7-1.2c-3.2-3-6.5-3.8-9.7-1.7c0,4-9.9,4.1-9.9-0.7c0,0.6-1.2-3.8-1.2-0.1c0,0.7-1,4.8-1,0
	c0,1.1-2.1,14.4-2.1-0.1c0,3.1-4.2,1.7-4.2-0.1c-5.6-0.3-11.1,10.7-16.6-0.9c-5.5,1.2-11,5.9-16.3-1.6c-5.4,14.8-10.7,4.1-15.9-2.6
	c-5.2,1.8-10.2,1.8-15.1-3.8c-4.9,19-9.5-7.5-13.7-5.3c-4.3,8.4-8.2-0.3-11.5-7.1c-6.7,14.3-11.4-14.7-14.3-20.1
	c-2.9-2.4-4-28.2-4.2-27.2c0,6.1-0.1,4.8,0-3.6c0.1-0.4,0.1,7.7,0.2-2.8c0.3,4.8,0.5-5,1.1-5.6c1.1-8.9,2.7-2.2,5-11.2
	c4.6,3.1,11.3-14.4,19-20.7c3.8-7.7,8-25.8,12.3-9c4.3,12.8,8.8-4.6,13.4-8c4.6-5.4,9.4-6.1,14.2-8c4.9-5.5,9.8-5.5,14.9-5.2
	c5-0.5,10.2,7.8,15.4-7.1c5.2,9.6,10.4-1.7,15.7-2.3c5.3,0.1,10.6-13,16-3.2c5.4,6,10.8-4.8,16.2-2.1c0-15.5,4.1-1,4.1-0.4
	c0-12.6,4.1,3.8,4.1-0.2c0,11.3,9,8.4,9-0.6c3.1,0,6.2-15,9.4-1.1c3.1-5,6.2-10.3,9.2-1.8c6,0.9,11.9-4.6,17.6-5.5
	c5.7-4.5,11.1-1.6,16.3-7.5c5.2-4.5,10.3-11.4,15.1-8.9c4.9,16.5,9.6-11,14.2-9.8c9.2-14.3,18-10.8,26.9-20.3
	c4.4,0,8.9-2.9,13.4-6.7c4.5-3.8,9.1-8.4,13.8-11.9c4.7,7.7,9.6-9.1,14.5-7.1c5-5.5,10.1,5.1,15.3-4.3c5.1-12.5,10.5,12.3,16-0.7
	c5.5-1.5,11.1,11.2,16.7,1.5c5.6-23.5,11.2,18.4,16.7,2.6c5.6,2.4,11.1,5.3,16.6,3.3c5.5-10.1,11-4.1,16.5,4
	c5.5-1.8,10.9-4.5,16.3,4.6c5.4-3.7,10.8-5,16.1,5.1c5.3-3.5,10.6-3,15.9,5.7c5.2,12,10.4,3.8,15.6,6.3c5.1-4,10.2,16.4,15.2,6.9
	c5-3.6,10-1.5,14.8,7.5c4.8,3.2,9.6,18.8,14.2,8.3c4.7,13.1,9.2,0.7,13.6,9c4.4,9.3,8.6,19.1,12.7,9.8c4.1-0.5,8,14.4,11.6,10.6
	c3.6,0.7,7-7.9,10,11.6c6.1,7.9,10.9,23.5,13.7,25.5c0.6-16.5,1.3,27.4,1.8,6.7c0,10.4,0.2,11.4,0.5,20.6c0.2-4.7,0.5,1,0.5-13.8
	c0.1,6.5,0.4-12.6-0.3,13.4c-0.6-15.9-1.8-0.9-3.7,11c-1.8-11.3-4.3-8.5-7.4,7.5c-3.1,24.2-7,8.5-11.4,9.6
	c-4.4,8.3-9.2,3.6-14.2-2.8c-5,10.6-10.2-23.9-15.5,0.2c-2.6-15.6-5.3-28.8-8-11.2c-2.7,7.2-5.4,0.7-8.1,10
	c-5.4,18.8-10.8,16.4-16.3-1.6c-5.5-11.6-10.9-18.6-16.4-3.3c-5.5-5.7-11-2.4-16.5-1.4c-2.8-17.7-5.5-22.3-8.3-15.4
	c-2.8,3.2-5.5,7.3-8.3,10.1c-2.8,12.2-5.6,7.3-8.4,12.5c-2.8-4.2-5.6,1.3-8.4-16.2c-5.6,1.4-11.3-4.7-17.1-3.6
	c-5.8-19-11.7,15.1-18.1-3c-3.1,13.7-6.5-13.9-10.1-0.9c0-2.3-2.8,2.4-2.8-0.1c-1-11.2-2-13.4-3.1,0.1c-1,6.9-2.3-2.8-3.4,0.3
	c-1.1,2-2.6-4.1-3.9,0.6c-0.6-3-1.6-17.8-2.3,0.6c-0.8-2.4-1.5-9.3-2.5,0.8c-2,8.1-3.7,16-6,3.4c-2-13.6-4.3-11.6-5.6,6.6
	c-0.7,13.6-1.2,1.8-1.7,4.1c-0.3-0.6-0.5,7.7-0.6,3.7c-0.1,7-0.1,10.5-0.1,1.7c0-0.2,0-2.2,0,0.8c0-5,0.1-4.6,0.1,1.7
	c0.1,0.6,0.1,3.1,0.4,3.3c0.2,5.3,0.4,1.8,0.6,3.3c0.3,2.2,0.6,4.2,1,3.1c2.8,9.1,7.9,24.2,13.1,19.6c5.3,8.4,10.9,1.2,16.6,12.4
	c5.7,3.4,11.5,9.1,17.3,8.7c5.8,3.4,11.7,3.2,17.6,3.6s11.9,1.6,17.8,7.8c6,8.3,12,9.2,18,5.1c6,12.3,12,2.8,18.1,1.1
	c6,4.5,12.1,4.1,18.1,1.6c6-9,12.1-11,18.1,0.7c6.3,24,11.4-4.2,17,0.2c5.5,14.1,10.9,10.5,16.3,0.7c2.7,10.8,5.4,18.3,8.1,11.7
	c2.7,8.8,5.3-21.2,8-10.2c5.3-12.9,10.5,14.6,15.5,2.5c5-8.2,9.9,5.6,14.5,3.7c4.6,15.7,8.8,12.3,12.3,5.1
	c1.4,20.6,2.6,16.2,3.6,2.3c-2.1,26.8-4.9-6.1-7.7,4.9C-171.2,349.6-175.9,378.5-180.7,361.7z M-384.3,271.2
	C-384.3,259.4-384.3,278-384.3,271.2c-0.1,5.7-0.2-20.8-0.2,0C-384.5,271.6-384.4,265.2-384.3,271.2z M-156.1,347.8
	C-156.1,346.3-156.1,360.3-156.1,347.8c0.1-4,0.1-15.9,0.1-0.2C-156,351.7-156,338.7-156.1,347.8
	C-156.1,361.3-156.1,353.7-156.1,347.8z M-156,347.6C-156,344.4-155.9,370.9-156,347.6C-156,305.6-156,363.8-156,347.6z"/>
<path class="st0" d="M-1376.5,485.9c-7.2,2-14.3-4.1-21.3-1.8c-7-15.3-14,3.4-20.8-4.8c-6.8-3.9-13.6-6.2-20-8
	c-3.2-12-6.3-7.4-9.1-6.1c-2.8,2.3-5.4-12.6-7-8.8c-0.7-7.4-1.4-5.2-1.4-5.8c-0.1,4.7,0-14.1,0-2.9c0.1-3.5,0.2,14.4,0.4-2.9
	c0.8-9.2,2.4-19.7,4.6-10.4c4.4,7.4,10.3-14.4,16.6-14.5c6.3-5,13.1-3.7,20.2-8.4c7,8.6,14.4,4.4,21.7-3.3c0.8-5.4,1.6-1.6,2.4-0.2
	c0.7-7.3,1.5-13.2,1.9-0.4c0.1-1.4,0.1,0.8,0.2-0.1c-0.1-10,0-6-0.2,0.1c-0.1,10-0.5,1.6-0.7,0.9c-0.2,8.1-0.2-7.6-0.1,1.6
	c0.1,3.6,0.2-1.1,0.2,0.5c0.1-8.2,0-3.2,0,0c-0.1,8.4-0.2-14-0.2-0.2c0-2.1-0.3,1.5-0.3-0.2c-1.1-5.6-2.5-7.2-4-2.1
	c-1.5-1.9-3.1-7.3-4.7-1.8c-6.4,11.6-13.2-7.2-20-5.3c-6.8-7.1-13.7,4.4-20.6-3.4c-6.9-11.3-13.9,15.2-20.8-2.2
	c-7-1.7-13.9-4.1-20.9-1.2c-7-5.1-13.9-9.3-20.9-0.2c0-7.1-10.5,7.6-10.5,0.2c-3.7-10.5-7.4-10.8-11.1-0.1
	c-3.7,2.3-7.4-7.8-11.2-0.8c-3.7,0.3-7.5,1.7-11.2-1.8c-7.5,1.9-15-1.5-22.3-7.7c-0.9,6.9-1.8,3.2-2.7-1.5c0-11.2-2.7,5.7-2.7-1.7
	c-1.8-4.9-3.5-3.5-5.2-3.8c-0.8,1-1.6-1.4-2.4-2.3c0-3-1.2-1.1-1.2-1.2c-0.4,9.6-0.8-7.1-1.1-1.3c-0.7,0.5-1.5,1-2.2-2.7
	c-0.7,0.4-1.3-3.9-2-3c-2.5-2.8-4.3-11.3-4.7-14.4c-0.4-7.8,0.7-8.6,3-15.5c2.3-6.9,5.7-26.3,9.3-11.6c0-8.9,2.8-4.2,2.8-2.2
	c1,10.6,1.9-4.3,2.9-1.9c0-8.8,1.5-5.1,1.5-0.9c0,11.2,1.5,11.1,1.5-0.7c0-1.6,3,3.3,3-1.5c8.1-10.3,16.4-15.8,24.5-5.2
	c0,4.1,3-1.8,3-0.1c0,2.5,2.5-10.2,2.5-0.1c1.6,10.6,3.3-3.4,4.9-0.2c3.2,10.5,6.4-4.5,9.3-1.1c1.4-1.1,2.8,9,4.1-0.9
	c1.3-4,2.4-1,3.1-1.1c0.3,11.7,0.6-5.2,0.7-0.4c0.1,5.9-0.1-3.2-0.5,0.5c-0.4,2.3-1.1,1.3-1.4,2.9c-0.3,18.2-0.1-11,0.2,3.7
	c0.3,4.5,0.5-2.7,0.5,1.1c0,7.5-0.1,0.3-0.3-0.3c-0.5,6.1-1.4-7.1-2.4-1.6c-2.1-6.9-4.8,3.6-7.6-3.1c-5.6-4.4-11.9,10.7-18.2-3.6
	c-3.2,1.7-6.4-0.3-9.6-0.5c-1.5,3.8-3.6,1-5.4,0c0-2.5-5.5,4.7-5.5-0.1c-7.3-6.6-14.5-4.3-21.8-1.3c-7.2,2.5-14.5,8.7-21.7-2.4
	c-7.2,0.5-14.5-5.5-21.8-3.9c-7.3-1.2-14.5,3.2-21.8-6.2c-7.3-3.2-14.6-12.3-21.7-10.5c-3.5-4.4-7-5.7-10.2-8.9
	c-3.1-2.5-6-11-7.6-13.2c-0.8,0-1.3-6.4-1.5-7.8c-0.1-0.3-0.1,0.5,0-4c0.1,6.1,0.1-8.1,0.2-2.1c0.1-7,0.2-5.9,0.3-2.1
	c0.6-6.9,1.7-0.5,3.5-8.7c1.8-8.5,4-1.1,6.4-6.8c4.8-20.4,9.7-0.2,14-5.7c4.4-9.6,8.5,7.3,12.4-1.2c7.9-7,15.3-8.8,22.6,1.6
	c7.3-0.7,14.4-4,21.5,3.6c14.1-0.2,27.9,29.7,41.7,9.1c13.8,6.9,27.5,13.3,41.3,9.1c6.9-10.4,13.7-7.2,20.6,3.9
	c6.9,5.8,13.8,3,20.7,3c6.9,6.6,13.8,12.9,20.7,1.7c6.9,0.2,13.9,3.7,20.5-0.2c3.3,4.8,6.6,1,9.1-1.6c0.6-4.8,1.2-8.2,1.6-0.6
	c0.1,2.3,0.4-7.4,0.5-0.3c0,13.4,0.1-7.8,0.1-0.1c0-15.7,0,1.4,0,0c0-10.3,0,5.3,0,0.1c0-9.8,0,1.7-0.1,0.2c0,1.1,0-11.2,0,0.2
	c0-5.2,0-5.8,0,0.2c0,3.5,0.1-6.1-0.1-0.3c-0.2-4.9-1-11-2-3c-1-10.3-2.1-10.7-3.3-3.5c-2.4-2.3-5-11.5-7.7-6.7
	c-5.4-4.8-11-0.8-16.5-13.4c-5.5-0.3-11-8.1-15.9-15.1c-2.5,15.4-4.8,1.6-6.7-9.5c-0.9,13.1-1.7-6.6-2.3-5.8
	c-0.3,3.5-0.5-8.3-0.6-3.2c-0.1,5.9-0.1-4.6-0.1-1.7c0,12.9,0-5.9,0-0.8c0,0.7,0,10.1,0-0.7c0,2.3,0.7-5.3,1.5-11.4
	c0.8-2.7,2.1-6,3.4-10.7c2.9-10.5,6.6-6.6,11-19.3c4.4-4.2,9.5-8.1,14.9-16.2c5.5,0.4,11.4-21.9,17.7-13c6.2-12.5,12.8,7.5,19.5-9.9
	c6.7-11.8,13.6,5,20.7-6.9c7,7.8,14.1-0.6,21.3-4.2c7.2-2.6,14.4,1.8,21.6-1.9c7.2,4.3,14.4-11.9,21.5-0.1c7.2-5.4,14.3-8.9,21.5,1
	c7.1,14.1,14.3-1.5,21.4,2.1c7.1-2.6,14.2-9.6,21.3,3.2c7.1-0.8,14.1,12.8,21.2,4.4c7,17.5,14,4.7,20.9,5.8
	c6.9,14.2,13.8,4.7,20.5,7.5c6.8,8.8,13.4-3.3,19.9,9.9c6.5,1.9,12.8,2.9,18.6,13.4c5.8,0.2,11.1,20,14.8,19.3
	c0,0.1,1.3,6.9,1.3,2.9c0.4-13.6,0.7-5.1,1.1,3.1c0.3-10.3,0.7,3.2,1,3.1c0-1.5,0.7,11.3,0.7,3.2c0.1,5.2,0.2-2.2,0.3,1.6
	c0,4.1,0.1-6.8,0.1,1.7c0-4.9,0.3,13,0.3,3.3c0.1,20.9,0,0.4-0.1,3.3c-0.1-3.8,0-2.6-0.2,3.3c-0.9,8.7-4.3,20.5-9.1,24
	c-4.7-3.6-10.6,18.1-16.8,17.5c-6.2,7.7-12.8,13.5-19.6,12.2c-6.7,1.1-13.6,12.7-20.6,9c-7,2.7-14,0.3-21.1,6.8
	c-7.1,0.4-14.2,2.9-21.4,5c-7.2,3.2-14.4,9.4-21.6,3.7c-7.2-3.9-14.4,6.9-21.7,2.5c-3.6-5.4-7.2,4.7-10.8,0.9
	c-3.6,0.1-7.2,2.1-10.9,0.6c-3.6,0.5-7.2,7.7-10.9,0.3c0,3.3-10.6-6-10.6,0.2c-6.7-2.3-13.4,6.6-19.7,1.5c-3.2-5.5-6.3-5.9-9.2,1.7
	c-2.9,0.7-5.7,5.3-8,2.6c-1.1,5.5-2.2-3.7-3,1.6c-0.8-3.4-1.4,4.6-1.7,1.4c-0.3,3.3-0.3,4.2-0.2,0.2c0.1-4.3,0.2-8.8,0.2-0.8
	c0-5.6,0,0.7,0.2,0.5c0.2-1.3,0.7,1.7,1.3,1.8c1.2,8.4,3.1-11,5.3,4.6c4.4,7.1,9.8,6.1,15.5,7.2c5.7-6.9,11.6-0.3,17.5,3
	c5.9,6,11.9-1.6,18-1.4c6.1-4,12.3-10.1,18.5-5c6.3-2.2,12.6-3.3,19.1-7.2c6.5-5.3,13-5.1,19.7-8c6.7-11.3,13.4-3.7,20.3-7.8
	c6.9-10.2,13.8-13.5,20.9-6.9c7.1-1.4,14.2-1.2,21.4-5.6c7.2-4.4,14.4-0.3,21.7-4.3c7.3,2.5,14.6,1,22-2.8c7.3,0.7,14.7,0.6,22-1.4
	c7.3-10.2,14.7-10,22.1-0.1c7.5-0.6,15,0,22.4,1.7c7.5,1.7,14.9,0.7,22.3,3.9c7.4,1,14.8-3.1,22,6.4c1.8,13.1,3.6,2,5.4,2
	c1.8-13.5,3.6,1.6,5.3,2.2c0-5.5,5.3,9.4,5.3,2.4c0-10.6,5.2,7.5,5.2,2.6c6.9-8.2,13.5-4.4,19.8,12.3c6.3,0.2,12.2,7.6,17.7,15.5
	c5.5-2.9,10.5-1.7,14.8,18.7c2.2,17.3,4.2,2.6,6,10.6c1.8-6.3,3.4,7.3,4.7,12.1c0.6,9.7,1.2,14.9,1.5,7.8c0,1.6,0.1,9,0.1,1.3
	c0-7,0.1,18.2,0,1.4c-0.1-9.6-0.2,18-0.3,3.3c-0.2-14.1-0.5,13.2-0.7,2.9c-0.3-12.5-0.6-0.2-1,2.6c-0.2-4-0.4-24.7-0.5,1.2
	c0,8.3-0.6-10.7-0.6,1.1c-0.4-13.1-0.8,12.2-1.2,2c0,8.7-1.3-5.5-1.3,1.8c-0.2,18.9-0.4-20.3-0.6,0.9c0,13-0.7,16.8-0.7,0.8
	c-0.9,9.8-1.8-3.1-2.7,2.8c0,1.6-1.3-12.5-1.3,1.3c-0.5-3.9-0.9-1.3-1.3,1.1c-3.6,26.8-7.2,8-10.8,7.3c-1.8,0.5-3.6-4-5.4,2.8
	c-1.8-0.1-3.6-8.9-5.4,2.4c-7.2,1.3-14.5,8.2-21.7,7.2c-7.2-2.1-14.4,2.9-21.7,4.7c-3.6-13.4-7.2-6.4-10.8-9.1
	c-3.6,6.1-7.2,10.3-10.8,12.3c-7.2-13.4-14.4-5.8-21.6,2.1c-7.2-13.8-14.4,0.4-21.5,1.2c-7.2-3.7-14.3-5.5-21.5,0.5
	c-7.2,21.8-14.3,15.6-21.4-0.1c-7.1-2.1-14.3-5.4-21.4-5.7c-7.1-1.8-14.2,4.3-21.3,4.3c-7.1-0.5-14.2,4.6-21.3-1.1
	c-7.1,6.8-14.2-1.6-21.3-2c-7.1-15.6-14.2,10.2-21.3-2.3c-7.1,11-14.1,1.6-21.2-2.9c0-4.8-10.5-2.7-10.5-1.5
	c-3.5,0.2-7-0.4-10.3-1.3c-1.6-8.3-3.3-2.8-4.5-0.1c-0.6,4.9-1.2,0.9-1.4,0.3c-0.3-11.5-0.3-5.3-0.4,0.2c-0.3,1.9-0.7,5.2-0.8,3.1
	c-0.2,6.9-0.2,2.3-0.2,5c0-1.2-0.1,2.3-0.1,5.3c0,0.2,0,6.2,0,2.7c0,1.9,0,1.6,0,2.4c0.1,3.2,0.8,3.2,2.3,8.5
	c1.4,0.8,3.9,5.2,6.8,5.8c2.9,3.4,6.3,6.5,9.5,5.2c3.2,2.6,6.2,2.9,7.8,9c1.6,0.9,2.1,7.6,2.2,11.3c0,0.5,0,0.9,0,1.4
	c0,0-0.1,6.9-0.1,1.5c0,2.1-0.1-3.6-0.1,1.5c0-2.8-0.3,9.5-0.3,1.4c0-5.6-0.3-8.6-0.3,1.4c0-7.4-0.5,8-0.5,1.4
	c-0.2-9-0.3,1.9-0.5,1.4c0,13.4-0.6-5-0.6,1.3c-1.7,3.1-4.3,6.9-7.1,8.8c-5.7,11.5-12.3,6.2-19,10.6c-6.8,14.1-13.7,6.6-20.7,5.7
	c-7,3.8-14-7.5-21.1,3.2C-1362.3,485.5-1369.4,484.3-1376.5,485.9z M-1376.5,483.1c7-3.5,14,5.8,21-1.3c7,8.6,13.9,0.6,20.8-3.3
	c6.8,0.5,13.6-3.5,20.1-5.9c6.4-3.7,12.7-11.1,17.6-10.3c2.5-9.9,4.5-3.7,5.9-7.7c1.4-14,1.9-8.2,1.7-9.3c-0.2-7.1-0.7-7.4-2.1-9.3
	c-1.3-2.8-3.5-3.7-6.2-6.5c-2.7-1.5-6,19.6-9.3-4.6c-1.7,5.2-3.4-11.2-5-3c-1.6-8.9-3.1,0.1-4.3-4.5c-1.2-1.6-2.2-0.6-2.7-5.7
	c-0.4-3.9-0.5-2.2-0.7-3c-0.2-1.6-0.3-7.2-0.4-2.9c-0.1,0.2-0.1-1.6-0.2-2.9c0,0.4-0.1-1-0.1-2.6c0,3.3-0.2-5.3-0.2-5.3
	c-0.1-1.8-0.1-3.6,0-5.6c0.1-2.7,0.2,3.1,0.4-3.2c0.2-6.7,0.6-12.1,1.5-3.8c0.9-3.2,2.3-5.9,3.6-3.1c1.3,9.3,2.6,7.6,3.7-1.1
	c2.2,6.3,4.2,1.6,6-0.3c3.8-7.8,7.3,8.2,10.9,0.7c0-6.2,10.6,8.7,10.6,0.9c7,7.6,14,15.6,21,1.5c7,1.8,14-13.6,21,0.9
	c7-8.8,14,4.4,21.1,0.4c7,0.4,14.1,13.5,21.1-0.1c7,3.3,14.1,1.1,21.1-0.5c7-2,14,8.7,21-0.9c7,3,14-2.9,21,5.2
	c7,4.3,13.9-12.3,20.9-8.2c6.9-1.2,13.8,5.7,20.7,4.4c6.9,3.2,13.7,15.4,20.5-9.8c6.8-4.3,13.5,4.3,20.2-4
	c6.6-24.4,13.2-7.5,19.6-5.2c6.4-3.7,12.6,9.2,18.3-6.8c1.5-27.4,2.8-3.5,4.2-2c1.3,2,2.7-26.6,3.9-2.2c2.6,10.1,4.8,2.7,6.6-4.7
	c0.2-9.3,0.5-15.4,0.7-0.6c0-4.2,0.6-2.1,0.6-0.6c0.4-3.2,0.7,12.9,0.9-1.1c0-11.7,0.2,11,0.2-0.2c0.1-2.1,0.1,14,0.1-0.2
	c0.1,2.8,0.2,8,0.3-0.4c0.1-0.7,0.1,19.2,0.1-0.2c0-5.8,0-11,0.1-0.1c0-20.9,0,0.5,0,0c0-18.3,0-14.3,0,0.1
	c-0.1-17.5-0.1-1.7-0.1,0.4c-0.1-3.5-0.1,0-0.1,0.7c0,13.5,0,33.5,0,0.1c0-8.8,0-0.4,0,0c-0.1-2.2-0.3-19.4-0.7-2.6
	c-0.7-0.9-1.9,1.9-3.2-7.6c-1.4,17.9-2.8-27.2-4.6-7.7c-3.4-10.3-7.4-6.3-11.8-14.3c-4.4-13.6-9.2-8.1-14.4-12.2
	c-5.2,13.9-10.6-17.6-16.3-9.8c-5.7-1.5-11.6-11.5-17.7-7.5c-6.1-15.9-12.4,8.1-18.8-5.2c-6.4-14.5-12.9-13-19.5-3.2
	c-6.6-8.1-13.2-10.9-19.9-1.3c-6.7-10.2-13.4,3.1-20.3,0.1c-6.8-1-13.6,0.9-20.3,1.3c-6.7-1.8-13.4,0.7-20.1,2.5
	c-6.7,0.1-13.3-2.6-19.9,3.8c-6.6,3.8-13.1-1.8-19.7,5c-6.5,13.7-13,7.5-19.5,6.2c-6.5-5.4-12.9-2.9-19.4,7.2
	c-6.5,4.7-13,11.4-19.7,7.7c-6.7,15.2-13.6,16.8-20.7,7.4c-7.2-2.2-14.6,0.7-22.5,5.7c-7.8,5.6-16-6.5-24.3,1.4
	c-8.2-7.6-16.3-8.6-24.1-4.6c-7.8,5.5-15.4-3.4-22.6-11.1c-3.6,0.6-7.1-2.6-10.4-9.6c-1.6-4.6-3.2-4.8-4.5-7
	c-1.3,5.8-2.4-16-2.7-9.7c-0.3-9.5,0.3-4.8,1.8-11.2c1.5,12,3.6,1.5,5.8-8.5c2.2,3.6,4.4-8.1,6.6-5.1c2.2,0.5,4.3,0.1,6.5-3.2
	c4.2-5.1,8.3-3.6,12.2-3.8c4-3.1,7.9,5,11.7-2c7.7-0.9,15.2,2.3,22.6-1.3c0-3.8,10.6,10.8,10.6,0c3.4-1.9,6.9,0.2,10.3-0.1
	c0-1.4,10.3-5.7,10.3-0.4c3.4,2.5,6.9-2,10.3-0.6c3.4-4.6,6.9,1.8,10.3-0.8c3.4,0.1,6.8,4.5,10.2-1.1c3.4-3.9,6.8,0.7,10.2-1.3
	c3.4-5.1,6.8-0.6,10.1-1.6c6.7,4,13.4-2,20-4.1c6.6-5,13.1,0.1,19.5-5.5c6.3-10.6,12.6,4.7,18.5-7.4c5.9-3.4,11.6-3.1,16.7-9.6
	c5.1-20,9.7-5.3,13.1-12.4c3.4-0.8,5.7-0.4,6.5-15c0.1,2.6,0.1,2.6,0.2-2c0-9.9,0.2-4.7,0.1-2c0-1.9-0.1,0.3-0.1-2c0,1.4,0,11.6,0-1
	c0-6.3-0.1,7.5-0.2-1c0,4.7-0.3,6.3-0.3-2c-0.1-3.3-0.4-2.3-0.5-2c-0.2-11.2-0.3-4.4-0.6-2c0,4.6-0.8-26.5-0.8-1.9
	c-2.2-22.1-5.9-17.7-10.3-14.5c-4.5-7.9-9.7-13-15.3-12.1c-5.6-6.4-11.5-10.1-17.7-9.8c-6.2,15.2-12.5,2.4-19-7.9
	c-6.5-1.6-13.1-0.2-19.7-6.3c-6.7-3.5-13.4-2.1-20.2-5.1c-6.8,10.7-13.6-2.8-20.5-3.8c-6.9,6.4-13.8,5.4-20.7-2.7
	c-6.9,1.1-13.9,9.1-20.9-1.6c-7-5.7-14-8.2-20.9-0.4c-6.9,0.7-13.8,21.6-20.7,1.4c0,4.5-5.1-3-5.1,0.7c0,5.3-5.1-4.3-5.1,0.9
	c-1.7-14.1-3.4-0.1-5.1,1c-1.7-3.8-3.4,3.5-5,1.1c-6.7-5.1-13.2,4.6-19.6,6.3c-6.4,2.7-12.6,4.8-18.4,9.1c-5.9,3.4-11.4,6.2-16.5,12
	c-5.1,11.1-9.8,8.1-13.8,14.9c-4-2.6-7.4,13.1-9.9,17.5c-1.2-11.7-2.3,20.3-3,9.5c-0.7,3.4-1.2,0.4-1.2,9.6
	c-0.2,5.6,3.5,10.6,7.9,15.8c4.4,11.6,9.7,20.1,15.1,13.8c5.4-9.9,11.1,2.8,16.8,12.9c2.8,19,5.7,10,8.5,7c1.4-2.8,2.8-0.7,4.2,4.1
	c1.3-1.5,2.7-0.6,3.9,5.7c0.6,9.5,1,7.9,1,4.8c0,7.4-0.1-11.2-0.2,1.5c-0.1,1.8-0.3-1.9-0.5,1.5c-0.2,7.5-0.4-12.1-0.7,1.3
	c-0.2,5.1-0.5,14.3-0.8,1.2c-0.3-3.5-0.6-11.2-0.9,1c0-5.2-0.9,2.7-0.9,0.8c-0.6,4.2-1.2,3.2-1.7,1.2c-1.1,2.7-2.2,9.3-3.3,1.5
	c-2.1,9.9-4,9.7-6,1.6c-1.9,8.6-3.8,4.1-5.7,0.9c-7.4-0.9-14.6,5.3-21.9,1.1c-7.3,3.1-14.5-5.1-21.7-0.8c-7.2-7.8-14.3-3.5-21.4-2.1
	c-7.1,6.3-14.2,12.7-21.2-2.9c-14.1-0.8-28.1-20.7-42-7c-13.9,12.8-27.8,4.2-41.6-6.9c-6.9,4.4-13.7,2.4-20.5-2.5
	c-6.7-3.2-13.5-16.7-19.7-0.6c-3.1-1.6-6.1-5.1-8.6,1.1c-2.6-4.7-4.5,9.2-5.4,2.3c-0.8-4.4-0.8-15.3-1,2.1c0-3,0-7.7-0.1,0.5
	c0,1.2,0-3.2,0,0.6c0,12.2,0,13.3,0.1,1.3c0.1,6.2,0.3-11.4,0.6,2.5c0.5-1.2,1.6,11.9,3.1,4.9c1.5,8.8,3.6,1.6,5.9,4.8
	c4.7-9.7,10.5,7.9,16.6,7.5c6.1,10.7,12.5,13.3,19.1,5c6.6,7.6,13.3-2.5,20,3.3c6.8,21.1,13.6,10.9,20.4,2.2
	c6.8,8.4,13.7,12.7,20.6,1.2c0,1.7,5.1-1,5.1,0.1c0,6.3,5.3,2.6,5.3,0.1c3.9,2.6,7.7,3.2,11.6,0.7c7.8,5.9,15.5,0.7,23.3,4.9
	c3.9-5.4,7.8,10.2,11.9,5.3c2,3.9,4.1-0.6,6.3,4.5c1.1-11.5,2.2-4,3.3,3.5c1.1-4.5,2.3-0.8,3.1,5.7c0.9,10,1.3,10.4,0.6,8.9
	c-0.7,0.3-2.2-5.6-3.8,7.6c-1.6-10.1-3.1,10.4-4.5,3.9c-1.4,1.3-2.7-4-4,2.1c-5-1.5-9.1,4.1-13.2,3.5c-4.1-10.5-8,8.5-11.8,1
	c-1.9,6.2-3.8,3.5-5.7,0.1c0,5.4-2.8,4.5-2.8,0c0,4.4-2.3,3.7-2.3,0c-6.1,10.3-11.9,2.1-17,2.8c0-2.5-1.8-4.4-1.8,0.8
	c0-0.2-0.9-6.6-0.9,0.4c0,2.9-0.8,4-0.8,0.5c-0.5,3.7-1.1,3.6-1.6,0.9c-0.5,6.6-1-7.7-1.4,1c-1.8,3-3.2-1.4-4.2,4.6
	c-0.9-9.9-1.3,7-1.3,5c0,6.9,0.5-5.3,1.5,5.7c0.3,5.8,0.6-3.1,0.9,1.5c0.3,6.1,0.7,1.2,1.1,1.5c0.2,0.1,0.3,0.2,0.6,0.7
	c0-4.7,0.7-11.5,0.7,0.7c0.5,3,0.9,2.1,1.4,1.4c1.1,9.1,2,7.6,3.2,2.7c0,3.7,1.7,8.9,1.7,1.3c0.6,0.7,1.3-13.8,1.9,1.2
	c5.1,9.8,11.1,7,17.3,7.1c3.1,1.9,6.3-6,9.6,2.2c3.3,9.4,6.6,7.2,9.9,1.4c3.3-3,6.7,1.6,10.1,0.7c0-1.1,10.7,2.6,10.7,0.5
	c7.2,4.4,14.3-10.4,21.5,1.6c7.1,5,14.3-5.9,21.4,2.6c7.1,1,14.2,16.5,21.2,3.6c7,0.5,14-8.7,21,4.9c7,15.7,13.9,8,20.7,6.7
	c1.7,1.1,3.4-4.5,5.1,2.3c1.7,0.6,3.4-5.4,5.2,3.1c0,3.4,0.7,4.5,0.7,0.6c0.2-1.9,0.5,5,0.7,0.7c0.3,6.2,0.5,2,0.8,1
	c0.3-0.1,0.6,15.7,0.8,1.7c0.2,1.9,0.2,8.6-0.2,2.9c-0.4-7-1,4.7-1.5,1.9c-0.6,0.4-0.9-1-1.3,0.8c-0.3,4.8-0.7,12.1-1.1,0.4
	c-1.3,0.3-2.3-11.5-3.4,0.5c-1,10.6-2,8.2-2.9,0.1c-6.8-18.1-13.6,11.1-20.3,2.1c-6.7-13.9-13.1-7-19.2,7.1
	c-6,3.1-11.6,12.2-15.6,12.6c-2-11-3.5,2.1-4.2,8.7c-0.2,2.9-0.3-7.6-0.4,2.4c0,10.3-0.2,10.5-0.1,2.4c0,1.5,0.5,5.4,1,4.5
	c1.3,4.7,3.4,2.4,5.9,7.7c2.5-12.9,5.4,5.8,8.4,5.8c6,1.1,12.6,4.8,19.2,8c6.7-1.2,13.5,4.3,20.4,4.8
	C-1390.5,484.1-1383.5,475.9-1376.5,483.1z"/>
</svg>
