<svg id="Calque_1" data-name="Calque 1" xmlns="http://www.w3.org/2000/svg" width="29.7cm" height="21cm" viewBox="0 0 841.89 595.28">
  <defs>
    <style>
      .cls-1 {
        fill: #5f5e5e;
      }
    </style>
  </defs>
  <title>Plan de travail 1</title>
  <g>
    <path class="cls-1" d="M425.34,159.06c-.78-7.91,10.5-15.33-5.87-21.69-1.91-6.37-15.58-11.7-15.42-15.43-10.88-3.73-25.34-5.87-21.7-5.87-11.74,0-29.05,2.14-21.7,5.87-2.77,3.73-14.09,9.06-15.43,15.43-14.15,6.36,4.6,13.78-5.87,21.69-11.87,7.92,11.39,15.33,5.87,21.7-12.55,6.37,11.14,11.7,15.43,15.43,20.25,3.73,9.53,5.87,21.7,5.87,5.32,0,14.9-2.14,21.7-5.87,11.68-3.73,6-9.06,15.42-15.43C413.72,174.39,433.77,167,425.34,159.06Z"/>
    <path class="cls-1" d="M446.25,320.58c.08-13.25-15.78-26.26-3.61-38.61-23.07-12.34,3.74-24,1.46-34.59,6.08-10.57,2.21-20,4.08-27.95,4.17-7.92,7.47-14.3,4.25-18.69-3-4.4,1.72-6.82,2-6.82,12,0-6.42,4.74,4.47,12.33,10.33,7.58,12.51,18,10.66,29.39,2.35,11.38,2.5,23.71,12.73,35.08,1.19,11.38,20.18,21.81,10.66,29.4,3.69,7.58,5.51,12.32,4.47,12.32-4.94-25.85-20.09-48.25-3.1-67.67-4.73-19.41.37-35.83-8.16-49.72-6.87-13.89.78-25.25-11.53-34.53-15-9.28-15.31-16.49-13.23-22.08-3.26-5.59-3-9.57-13.23-12.39-15.05-2.82-20.91-4.48-11.53-5.44-15.44-1,7-1.22-8.17-1.25-2.58,0-22.5.2-3.09.2-3.43,0,11.79,2,4.9,5.92-8.83,3.88,7.41,9.62,8.17,17A32,32,0,0,1,440,169.56c-8.88,10.56-17.15,22.62-14.7,36,3.58,7.64-13.44,15.73-12.74,24.16-15.77,8.42,1.21,17.18-8.8,26.16,16.08,9-2.06,18.17-5.54,27.46-1.79,9.3-9.65,18.7-3,28.08-4.41,9.38,7.41,18.75-1.1,28-2.32,9.23.59,18.34.06,27.2,9.72,8.86-18.88,17.47.55,25.72-4.59,8.25-7.74,16.14.34,23.55-7.53,14.81-3.05,26.58,5.43,35.89,7.78,9.31,17.26,16.18,12.72,21.19-4.16,5,9.1,8.17,14.69,10.08,1.55,1.9,4.68,2.56,11.31,2.56-4.25,0,7.77-1.24,10.39-3.84,5.95-2.59,8.56-6.55,12.56-12-4-5.44,5.08-12.38,10.39-20.93,12.2-8.55.87-18.72,3.84-30.63,1.75-11.91-3.65-22.58-4.55-32.24,3.23-9.66-1.49-18.3-9.24-26.15-5.34-7.84-5.15-14.88-9.9-21.35C446.17,332,446.8,326.1,446.25,320.58Z"/>
  </g>
</svg>
