<svg id="Calque_1" data-name="Calque 1" xmlns="http://www.w3.org/2000/svg" width="29.7cm" height="21cm" viewBox="0 0 841.89 595.28">
  <defs>
    <style>
      .cls-1 {
        fill: #5f5e5e;
      }
    </style>
  </defs>
  <title>Plan de travail 2</title>
  <g>
    <path class="cls-1" d="M441.5,158.59c1.17-7.92,4.83-15.33-5.86-21.7-6.05-6.37-9.41-11.69-15.43-15.43-9.56-3.73-10.58-5.87-21.7-5.87,5.66,0-13.42,2.14-21.7,5.87-13.15,3.74-12.4,9.06-15.42,15.43-5,6.37-11.42,13.78-5.87,21.7,6.51,7.91-1,15.33,5.87,21.7,6.43,6.37,14.49,11.69,15.42,15.42,12.71,3.73,12.56,5.87,21.7,5.87a46.64,46.64,0,0,0,21.7-5.87c12.66-3.73,1.64-9.05,15.43-15.42C448.78,173.92,444.47,166.5,441.5,158.59Z"/>
    <path class="cls-1" d="M470.89,368.22c-13.49,0,1.15-4.78-8.61-11.72,5.62-6.93-7.34-16-5.57-24.64,5.55-8.61-1-16.77-2-21.82,12.55-2.17-8.3-6.51,4.16-12.47,6.92-6,14.13-13.55,9.61-22.23,3.51-8.67,5.93-18.43,10.78-28.73,2.53-10.29,11-21.14,7.68-32s-3.72-21.68.29-32c.68-10.3-5-20.05-11.39-28.73-17.45-8.67-11.56-16.26-27.34-22.22,7.89,0-5.65,2.84,3.41,7.65,4.46,4.8,3.57,11.56,4.35,19.38,4.23,7.83-3.24,16.72-3.57,25.79-6.13,9.07-10.91,18.32-20.35,26.86-10.94,6.83-1.94,14.87-20.1,23.37-19.66,8.5-9.42,17.46-10.68,26.11.67,8.65-9.76,17-2.86,24.28-2.16,7.29,1.78,13.51,3.34,17.91,8.17,4.4-4.82,7,7.93,7,13.59,0,17.29,6.18,10.82,14.42,1,8.25,4.29,18.55-1.34,26.8-5.35,8.24-15.29,14.43-15.69,14.43-7,0-15.63,3.54-11.66,9.46-.05,5.91-4,14.19-9.56,23.66,2.69,9.46-4.95,20.1-4.72,30.75-4.56,10.64-10.76,21.29,2.83,30.75,4.27,9.46,1.17,17.74,13.13,23.66,6.1,5.91,8.39,9.46,26.13,9.46,13.56,0,30-3.48,27.77-9.27,14.16-5.8,12.6-13.92,17.48-23.19-8-9.28-2.81-19.71,9.12-30.15,5.08-10.43-.91-20.87,2.71-30.14.79-9.28-10.86-17.39-1.79-23.19C468.86,371.69,475.62,368.22,470.89,368.22Z"/>
  </g>
</svg>
