<svg id="Calque_1" data-name="Calque 1" xmlns="http://www.w3.org/2000/svg" width="29.7cm" height="21cm" viewBox="0 0 841.89 595.28">
  <defs>
    <style>
      .cls-1 {
        fill: #5f5e5e;
      }
    </style>
  </defs>
  <title>Plan de travail 3</title>
  <g>
    <path class="cls-1" d="M423.89,99.62c-16.88,0-15.12,2.14-21.7,5.87-15.55,3.73-19.91,9.06-15.42,15.43-.31,6.37-11.61,13.78-5.87,21.7-13.46,7.91-2.63,15.33,5.87,21.69,5,6.37,12.74,11.7,15.42,15.43-2.13,3.73,12.81,5.87,21.7,5.87,10.72,0,20.88-2.14,21.7-5.87,8-3.73,20.42-9.06,15.42-15.43-.46-6.36,6.86-13.78,5.87-21.69,5.09-7.92-9.65-15.33-5.87-21.7-19-6.37-18.64-11.7-15.42-15.43C443.13,101.76,427.54,99.62,423.89,99.62Z"/>
    <path class="cls-1" d="M471.44,211.15c2.23,7.16,3.39,16.31,8.5,26.6-10.36,10.28-5.4,21.69.61,33.37-9,11.67,1,23.62-4.46,35,3.38,11.35.46,22.1-6.69,31.39-10.5,9.28-2.28,17.11-6.09,22.62-12,5.51-3.95,8.69-2.66,8.69-6,0,12.06-4.83,10.15-9.66,9-4.83,16.14-9.66,10.15-9.66,13.31-13.47,3.76-26.29,9.37-38.31,8.8-12-10.55-23.23,1.05-33.47-4.29-10.25-11.53-19.53-4.3-27.69-2.79-8.16-6.94-15.19-6.72-21-9.19-5.75-2-10.23-6.2-13.26C471.71,212.74,484.78,211.15,471.44,211.15Z"/>
    <path class="cls-1" d="M376.9,211.26c1.17,0,2.87,1.57-2.8,4.58-5.86,3-5.11,7.44-6.42,13.16,2.36,5.71,7.15,12.7-7.09,20.82,8.58,8.13-11.54,17.38-4.79,27.61-8.07,10.23-3,21.44.48,33.49-16.11,12-5.92,24.91,8.69,38.47,19.68,0,7.77,4.92,10,9.83,7.91,4.92,18.17,9.84,10,9.84-1,0,.15-3.2-2.51-8.74,10.64-5.53,4.81-13.4-5.69-22.73,10.3-9.32-7.55-20.11-6.14-31.49,2.91-11.38,2.36-23.35-3.85-35-15.22-11.69,8.37-23.1,1.19-33.36C374.14,227.45,376.68,218.34,376.9,211.26Z"/>
    <path class="cls-1" d="M430.34,204.21H416.26c-6.27,0-3.78,2.8.16,7.82-3.55,5-3.75,12.29.33,21.23-.66,8.94-2.16,19.56.28,31.29s-2.64,24.58,0,38c-8.2,13.41,11.76,27.38-.5,41.34-4.39,14,4.26,27.94-1.22,41.35-9.24,13.41,1.6,26.25-2.16,38-.94,11.73-7.29,22.34-3.33,31.28,14.65,8.94,1.35,16.21-4.72,21.23-13,5-12.93,7.83-6.33,7.83h49.06c-.32,0,3.93-2.8-6.34-7.83-2-5-10-12.29-4.72-21.23-6.28-8.94-5-19.55-3.33-31.28-14.52-11.74,9.81-24.58-2.16-38,.72-13.41-2.68-27.38-1.22-41.35-3.34-14,7.52-27.93-.49-41.34,7.05-13.41,3.84-26.26,0-38-.49-11.73-8.54-22.35.28-31.29-13.12-8.94,1-16.2.33-21.23C428,207,432.15,204.21,430.34,204.21Z"/>
  </g>
</svg>
