<svg id="Calque_1" data-name="Calque 1" xmlns="http://www.w3.org/2000/svg" width="29.7cm" height="21cm" viewBox="0 0 841.89 595.28">
  <defs>
    <style>
      .cls-1 {
        fill: #5f5e5e;
      }
    </style>
  </defs>
  <title>Plan de travail 4</title>
  <g>
    <path class="cls-1" d="M417.27,190.13c11.38,0,9.2-2.14,21.7-5.87-2.69-3.73,25.83-9,15.42-15.42,6.65-6.37,15.88-13.79,5.87-21.7,4.52-7.91-11.58-15.33-5.87-21.7,2.83-6.37-22.65-11.69-15.42-15.42-12.34-3.73-9.52-5.87-21.7-5.87-18.17,0-2.87,2.14-21.7,5.87-9.83,3.73-16.48,9-15.42,15.42-10.43,6.37-2.47,13.79-5.87,21.7-5.8,7.91,3.8,15.33,5.87,21.7,12.31,6.37,2.49,11.69,15.42,15.42C391,188,407.43,190.13,417.27,190.13Z"/>
    <path class="cls-1" d="M462.19,292.35c-3.77-7.4-12.1-16.42-2.51-25.79-4.45-9.37,6.57-19.09-6.5-27.88,6.94-8.8-2.31-16.67-9-22.34,7.25-5.68-12.69-9.15-9.88-9.15H401.89c-.89,0-16.69,3.52-9.89,9.24,1.09,5.72-7.64,13.65-9,22.49-7.47,8.84,2.73,18.58-6.5,27.92A32,32,0,0,0,374,292.35c-1.36,5.37-5.89,11.43,3.23,17.94-7.57,6.51-8.91,13.47,7.11,20.65-3.85,7.18,22,14.58,7.11,21.95-17.05,7.37-17,14.73,3.23,21.82-3.88,5.68.23,13.63-3.38,22.71-2.2,9.08,17.4,19.3-8.05,29.51-6,10.22-15.31,20.43-9.62,29.51-16.53,9.08-1.8,17-8.06,22.7-.62,5.68-.33,9.08-3.38,9.08H474c3,0,17.18-3.4-3.55-9.08,1.28-5.67-.64-13.62-8.45-22.7-6.33-9.08-3.85-19.29-10.08-29.51,7-10.21.38-20.43-8.45-29.51-4-9.08,21-17-3.54-22.71-3.87-7.09,2.94-14.36,3.47-21.64-18.35-7.27,14.54-14.54,7.66-21.64,8.57-7.09,20.13-14,7.65-20.59C461.14,304.27,460.79,298.05,462.19,292.35Z"/>
    <path class="cls-1" d="M380.68,216c-6.75,0-9.69,4.83-10.15,9.66,6.14,4.83-17.31,9.66-10.15,9.66-13.76,13.47.16,26.29-9.36,38.31,6.52,12-3,23.23-1.06,33.47-2.76,10.25,8.06,19.53,4.3,27.69-.49,8.16-7,15.19,6.73,20.95-2.3,5.75,1.94,10.23,6.19,13.26,1.2,3-2.67,4.63,2.72,4.63-3-7.16-11.75-16.31-8.51-26.6-11.39-10.28-5.8-21.69-.61-33.37-3.87-11.67-1.78-23.62,4.46-35,2.51-11.35,16.29-22.1,6.69-31.39-2.43-9.29-12.12-17.11,6.09-22.62C386.1,219.13,386,216,380.68,216Z"/>
    <path class="cls-1" d="M464.43,373.47c9.64,0-2.16-1.58,2.8-4.58,3-3,6.31-7.44,6.42-13.16,7.74-5.71,6.47-12.7,7.09-20.83,14.43-8.12,4-17.37,4.79-27.6-7.87-10.23,11.52-21.44-.47-33.49-10.15-12-19.33-24.91-8.7-38.47,1.4,0-4.71-4.92-10-9.83-15.43-4.92-7.74-9.84-10-9.84,9.38,0,7.41,3.2,2.51,8.74-4.51,5.53,2.14,13.4,5.69,22.73,1.59,9.32,16.68,20.11,6.14,31.49,8.4,11.38,12.54,23.35,3.85,35,5.75,11.69,2.86,23.1-1.19,33.35C463.36,357.28,473.16,366.39,464.43,373.47Z"/>
  </g>
</svg>
