<?xml version="1.0" encoding="utf-8"?>
<!-- Generator: Adobe Illustrator 21.1.0, SVG Export Plug-In . SVG Version: 6.00 Build 0)  -->
<svg version="1.1" id="Calque_1" xmlns="http://www.w3.org/2000/svg" xmlns:xlink="http://www.w3.org/1999/xlink" x="0px" y="0px"
	 viewBox="0 0 841.9 595.3" style="enable-background:new 0 0 841.9 595.3;" xml:space="preserve">
<style type="text/css">
	.st0{fill:#575756;}
</style>
<path class="st0" d="M416.7,73.4c1,16,1.8,37.8,2.6,18.3c0.8,3.4,1.5-5.8,2.3,18.3c0.7,12,1.4,16.5,2,18.3
	c0.6,11.4,1.1,2.5,1.7,18.3c0.5,27.1,1.5,13.3,2.3,18.3c0.8,11.9,0.9,24.6,0.1,18.3c-0.7,11.7-1.9,9.4-3.6,18.3
	c-0.9-8.3-1.9-2.8-3.1-6.2c-1.2,16.1-2.6,21.6-4.4,24.4c0,5.5-2.5,14.6-2.5,0c-3.5,15.8-5.7,5.3-7.5-18.3
	c-1.7-0.3-2.9-14.8-3.6-18.3c-0.4-13.8-0.5-8.7-0.5-20.5c0-5.4,0.2-7,0.6,2.3c0.8-11.4,1.8-26.8,2.3-18.3c0.5-9.8,1.1-13.8,1.7-18.3
	c0.6-8.2,1.3-21.6,2-18.3c0.8,15.4,1.5-6.8,2.3-18.3c0.8-3.8,1.6-16.1,2.6-18.3C414.2,75.6,416.7,68,416.7,73.4z"/>
<path class="st0" d="M304.3,101.9c3.9,14.2,7.7,21.4,11.4,14.5c3.7,2.6,7.4,0.8,11.1,14.7c3.7,5.2,7.3,5.7,10.9,14.8
	c3.6,10.2,7.1,27.4,10.6,15c3.5,9.3,7.4,16.9,11.2,14.6c3.7,18.2,6.8-0.8,9.2,15.8c2.4-13.3,4.4,7.3,6,17.6
	c1.5,30.2,2.7-2.7,2.7,19.5c0,0.6-2.1,7-2.1,1.2c-6.1-14.6-11-8.4-15.6-12.1c-4.5,13.1-8.6,5.6-12.3-14c-3.7,2.8-6.7-23-9-15.9
	c-2.4-10.9-4.5-13.9-7.1-17c-2.6-34.2-5.2-18.1-7.7-16.6c-2.5-19.5-4.9-13.3-7.4-16.8c-2.4-14.3-4.8-9-7.1-17
	c-2.4-5.8-4.7-21-6.9-17.1C302.1,108.5,304.3,108.7,304.3,101.9z"/>
<path class="st0" d="M221.1,182.7c5.8-0.7,11.5,9,17.1,6.9c5.7,5.5,11.3-3.3,17,7.1c5.6-0.9,11.2,10.1,16.8,7.4
	c5.6,5.5,11.1-13,16.6,7.7c5.5,3.2,11.3,0.3,17,7.1c5.7-1,11,25.7,15.9,9c4.9,5.2,9.6,7.3,14,12.3c4.4,5.5,8.6,18.7,12.1,15.6
	c0,3.9-1.2-11.3-1.2,2.1c-7,6.2-13.4,14.2-19.5-2.7c-6.1-0.5-12,13.2-17.6-6c-5.6-11.3-10.9-15-15.8-9.2c-4.9,3.5-9.6-7-14.6-11.2
	c-5-1-10,2.6-15-10.6c-5-16.7-9.9,11.7-14.8-10.9c-4.9-12.8-9.8,8.9-14.7-11.1c-4.9,12.2-9.7-23.4-14.5-11.4
	C219.9,180.6,221.1,172.7,221.1,182.7z"/>
<path class="st0" d="M189.5,294.2c6.1,0.5,12.2-7.6,18.3-2.6c6.1,0.2,12.2,8.1,18.3-2.3c6.1,9,12.2-9.2,18.3-2
	c6.1-18.6,12.2-1.7,18.3-1.7c6.1,4.8,12.2,2.7,18.3-2.3c6.1-19.4,12.2,10.5,18.3-0.1c6.1-2.1,12.2-14.1,18.3,3.6
	c6.1-10,12.2,2.3,18.3,7.5c0,11.6,0,31,0,2.5c-6.1-0.9-12.2-8.8-18.3,7.5c-6.1,19.9-12.2,4.7-18.3,3.6c-3-6.3-6.1,17.2-9.1,15
	c-3,4.5-6.1-15-9.1-15.1c-6.1,1.5-12.2-13.2-18.3-2.3c-6.1,2.8-12.2,6.2-18.3-1.7c-6.1,1.6-12.2,4.7-18.3-2
	c-6.1,21.9-12.2-1.4-18.3-2.3c-6.1-5.5-12.2,5.2-18.3-2.6C189.5,284.4,189.5,301.9,189.5,294.2z"/>
<path class="st0" d="M217.9,406.6c4.8-21.1,9.6,4.8,14.5-11.4c4.9,15.5,9.8-4.7,14.7-11.1c4.9-11.1,9.8-17.6,14.8-10.9
	c5,4.6,10-15.2,15-10.6c5,10.5,9.8,15.6,14.6-11.2c4.9-36.5,10.1,18.8,15.8-9.2c5.6,2.1,11.5,17.8,17.6-6
	c6.2,23.3,12.5-32.5,19.5-2.7c0-18.1,1.2,14.8,1.2,2.1c-3.5,14.1-7.7,16.7-12.1,15.6c-4.4,6.6-9.1-19.5-14,12.3
	c-2.5,5-5,10.3-7.7,16.6c-2.6-2.4-5.4,12.7-8.2-7.6c-2.8,5.2-5.7-2.4-8.5-6.6c-2.8-4.2-5.7-5-8.4,13.7c-5.5,3.7-11.1,13.4-16.6,7.7
	c-5.6,6.1-11.2,11.5-16.8,7.4c-5.6-7-11.3-5.9-17,7.1c-5.7-5.8-11.4,2.7-17.1,6.9C219.2,407,217.9,412.3,217.9,406.6z"/>
<path class="st0" d="M298.8,489.8c2.2,2.2,4.5-25.2,6.9-17.1c2.4-23.3,4.8-20.3,7.1-17c2.4-35.5,4.9-9.5,7.4-16.8
	c2.5-17.5,5.1-17.1,7.7-16.6c2.6-2.4,4.7-15.3,7.1-17c2.4-13.2,5.3-1,9-15.9c3.7-14.4,7.7-6.4,12.3-14c4.6-25.3,9.5-13.1,15.6-12.1
	c0-4.2,2.1-3.8,2.1,1.2c0-6.3-0.3-5.3-0.8-2.9c-0.5-1.9-1.2,16.1-1.9,22.5c-1.6-8-3.6,31.6-6,17.6c-0.6,29.6-1.2,33.5-1.9,25.2
	c-0.7,6.5-1.4-11.7-2.2-4.1c-1.5,3.1-3.2-13.3-5.1-5.4c-3.7,26.2-7.7-5-11.2,14.6c-3.5,4.4-7,27.6-10.6,15
	c-3.6,18.4-7.2,14.1-10.9,14.8c-3.7,1.5-7.4,30.6-11.1,14.7c-3.7,17.6-7.5,21.5-11.4,14.5C300.9,495.2,298.8,451.3,298.8,489.8z"/>
<path class="st0" d="M410.3,521.4c-1-18.8-1.8-4-2.6-18.3c-0.8,1.5-1.5,3.8-2.3-18.3c-0.7-20.3-1.4-32.8-2-18.3
	c-0.3-3.5-0.6,14.3-0.9,6.9c-0.3-2.2-0.5-2.2-0.8-25.2c-0.5,1.2-1.5-2.9-2.3-18.3c-0.4,7.1-0.6,4.3-0.6,8.7c0,16.9,0.1-4.9,0.5-27
	c0.7-11.8,1.9,5,3.6-18.3c0.9-3.9,1.9-6.3,3.1,4.9c1.2-2.4,2.6,0.1,4.4-23.1c0-18,2.5,17.9,2.5,0c3.5,22.2,5.7,0.9,7.5,18.3
	c1.7-1.8,2.9-5.2,3.6,18.3c0.7,26.7,0.7,12.4-0.1,18.3c-0.8,6.4-1.8-2.5-2.3,18.3c-0.5,2.1-1.1-1.8-1.7,18.3c-0.3,3.9-0.6-15-1-5.3
	c-0.3-4.5-0.7,41.5-1,23.6c-0.8,11.9-1.5,22.8-2.3,18.3c-0.8,0.4-1.6-10.1-2.6,18.3C412.8,522.9,410.3,524.3,410.3,521.4z"/>
<path class="st0" d="M522.7,492.9c-1.9-4.8-3.9-13.5-5.8-18.8c-1.9-8.2-3.8,0.7-5.6,4.3c-3.7-23.7-7.4-10.6-11.1-14.7
	c-3.7-1.9-7.3-16.2-10.9-14.8c-3.6-8.7-7.1-1.5-10.6-15c-3.5-11.3-7.4-20.9-11.2-14.6c-3.7-5.5-6.8-5-9.2-15.8
	c-2.4-8.8-4.4-9.1-6-17.6c-1.5-8.2-2.7-16.5-2.7-19.5c0,9.5,2.1,12.7,2.1-1.2c6.1,29.7,11,13.4,15.6,12.1c4.5,10.3,8.6-15.5,12.3,14
	c1.8,10.8,3.5,18.3,5,22.8c1.5-1.3,2.8-2.4,4-7c0.6,18.8,1.2,17.3,1.7,24.4c0.6,0.9,1.1,12.3,1.7,1.8c1.2,2.9,2.3-25.3,3.6-9.2
	c2.6-16.1,5.2,22.3,7.7,16.6c2.5-11.7,4.9,10.8,7.4,16.8c2.4,21.6,4.8,5.9,7.1,17c1.2-10.7,2.3,1.3,3.5-7.1
	c1.1,20.4,2.3,0.2,3.4,24.2C524.9,474.4,522.7,495.4,522.7,492.9z"/>
<path class="st0" d="M605.9,412.1c-5.8-0.5-11.5-5.3-17.1-6.9c-5.7-3.1-11.3-6.5-17-7.1c-5.6,21.1-11.2-12.5-16.8-7.4
	c-5.6-11.9-11.1-13.3-16.6-7.7c-5.5,8.8-11.3-4-17-7.1c-5.7,8.3-11,11-15.9-9c-4.9,10.5-9.6-27.1-14-12.3
	c-4.4,6.2-8.6-7.2-12.1-15.6c0,7.6,1.2,8.7,1.2-2.1c7,1,13.4,5.9,19.5,2.7c6.1-13.2,12,4.1,17.6,6c5.6,2.8,10.9-18,15.8,9.2
	c4.9-2.5,9.6,20.4,14.6,11.2c5-11.1,10,0.4,15,10.6c5-4.8,9.9,13.9,14.8,10.9c4.9-6.1,9.8,5.3,14.7,11.1c4.9,12.9,9.7-0.5,14.5,11.4
	C607.1,404.5,605.9,413.9,605.9,412.1z"/>
<path class="st0" d="M637.5,300.6c-6.1,5.5-12.2-6.2-18.3,2.6c-6.1-9.7-12.2,2.3-18.3,2.3c-6.1,8.4-12.2-5.9-18.3,2
	c-6.1-4-12.2-0.7-18.3,1.7c-6.1-2.2-12.2,0.7-18.3,2.3c-6.1,12.2-12.2,12.9-18.3,0.1c-6.1-11.8-12.2-7.1-18.3-3.6
	c-6.1-16.2-12.2-0.9-18.3-7.5c0,3.7,0,9.7,0-2.5c6.1-7.3,12.2-11.5,18.3-7.5c6.1-1.7,12.2-0.6,18.3-3.6c6.1-19.3,12.2-6,18.3,0.1
	c6.1,12.9,12.2-0.3,18.3,2.3c6.1,2.5,12.2-2,18.3,1.7c6.1-8.6,12.2,11.5,18.3,2c6.1-3,12.2,1,18.3,2.3c6.1,9.2,12.2-2.6,18.3,2.6
	C637.5,294,637.5,279.4,637.5,300.6z"/>
<path class="st0" d="M609,188.2c-4.8,12.6-9.6,23.7-14.5,11.4c-4.9,3-9.8,7.7-14.7,11.1c-4.9,14.1-9.8,9.3-14.8,10.9
	c-5,0.1-10-6.3-15,10.6c-5,6.5-9.8,3.2-14.6,11.2c-4.9,6.4-10.1-3.9-15.8,9.2c-5.6,9.2-11.5,3-17.6,6c-6.2-13.6-12.5,13.2-19.5,2.7
	c0,18.9-1.2,3.1-1.2-2.1c3.5-21.2,7.7-18.4,12.1-15.6c4.4,8,9.1-17.9,14-12.3c4.9,6,10.2,8.9,15.9-9c5.7-6.7,11.5,10.8,17-7.1
	c5.5-5.6,11.1-7,16.6-7.7c5.6,0.1,11.2-20.3,16.8-7.4c5.6,6.2,11.3,4.3,17-7.1c5.7,18.4,11.4,4.8,17.1-6.9
	C607.8,195.8,609,195.7,609,188.2z"/>
<path class="st0" d="M528.2,105c-2.2,12.7-4.5,7.3-6.9,17.1c-2.4,1.2-4.8,9.9-7.1,17c-2.4,28.8-4.9,10.2-7.4,16.8
	c-2.5-5.5-5.1-3.5-7.7,16.6c-2.6,5.9-4.7,31.2-7.1,17c-2.4-1.8-5.3,18.6-9,15.9c-3.7,13.6-7.7,20.3-12.3,14
	c-4.6,9.3-9.5-18.1-15.6,12.1c0-5.6-2.1-19.4-2.1-1.2c0,21.1,1.2-12.6,2.7-19.5c1.6-15.5,3.6-15.3,6-17.6c2.4,11.2,5.5-9.4,9.2-15.8
	c1.9,17.8,3.8,20.9,5.7,6.9c1.9-10.6,3.7-15.8,5.5-21.5c3.5,10.1,7-29.2,10.6-15c3.6,11.8,7.2-2.5,10.9-14.8
	c3.7-8.2,7.4-16.6,11.1-14.7c3.7-11.7,7.5-8.4,11.4-14.5C526.1,104.7,528.2,112,528.2,105z"/>
</svg>
