<?xml version="1.0" encoding="utf-8"?>
<!-- Generator: Adobe Illustrator 21.1.0, SVG Export Plug-In . SVG Version: 6.00 Build 0)  -->
<svg version="1.1" id="Calque_1" xmlns="http://www.w3.org/2000/svg" xmlns:xlink="http://www.w3.org/1999/xlink" x="0px" y="0px"
	 viewBox="0 0 841.9 595.3" style="enable-background:new 0 0 841.9 595.3;" xml:space="preserve">
<style type="text/css">
	.st0{fill:#575756;}
</style>
<path class="st0" d="M486.7,301c0-10.2,3.9,10.8,10.5-0.9c6.5,10.3,15.7-13,26.2-0.8c5.2-1.3,10.8,7.9,16.5,3.1
	c5.7,6.3,11.6,3.1,17.5-2.5c5.9,2.7,11.8,0.2,17.5-9.6c5.7-2.9,11.3-13.7,16.5,5.6c10.5-5.2,19.6-4.7,26.2-3.4
	c6.5-9.5,10.5-0.1,10.5,1.6c0-0.3-3.9-7.1-10.5-2.3c-6.5-15.1-15.7,17.7-26.1,0.7c-5.2-2.2-10.8-7.5-16.5,3.2
	c-5.7-6-11.6-5.6-17.5-6.4c-5.9,3.1-11.8-8-17.5-1.4c-5.7-2.4-11.3-2-16.5,1.6c-10.5-4.5-19.6,2.5-26.1-1.9
	c-6.5-2.9-10.5-25.3-10.5,0.3c0-2.5,3.8,2.5,10.2,5c6.4,1.8,15.3-7.3,25.5-13.1c5.1,13.8,10.5-2.6,16.1-2.7c5.6-4,11.3-1.4,17.1-2.4
	c5.7,6.5,11.5-4.4,17.1,1.8c5.6-7.6,11-9.4,16.1-11.8c10.2-8.4,19.2-4.5,25.5-0.7c6.4,1.5,10.2-7.6,10.2-7.4
	c0,4.5-3.9,26.7-10.4,5.2c-6.5-11.2-15.6,0-25.9-0.4c-5.2,6-10.7,2.4-16.4,4.3c-5.7-5.2-11.5-0.7-17.3-4.5
	c-5.8-7.1-11.7-2.5-17.3,5.3c-5.7-3.1-11.2-2-16.4,3.7c-10.4-5.3-19.5,12.3-25.9-0.4c-6.5-2.4-10.4-18.7-10.4,5.1
	c0-8.7,3.6-9.8,9.7-0.7c6,0.1,14.5-0.1,24.1-13.5c4.8,6.1,10,16.5,15.2,8.2c5.3-3.8,10.7,0,16.1-18.2c5.4,1.9,10.9-1.5,16.1-6.8
	c5.3-6.8,10.4-4.8,15.2-9.6c9.7-16.2,18.1-7.4,24.1-10.1c6-15.4,9.7-16.8,9.7-4.1c0-14.1-3.7,9.5-10,3.1c-6.2-1.1-15-1-25,7.9
	c-5,7.8-10.3,6.8-15.8,14.4c-5.5,6.9-11.1,5-16.7,4.7c-5.6,12.4-11.2,5-16.7,2.7c-5.5-2.7-10.8,1.4-15.8-1.4
	c-10-7.9-18.7-8.1-25,0.9c-6.2,9.4-10,9.8-10,10c0,2.3,3.3,10.1,8.8-5.7c5.5,1.1,13.2-17.2,22-14.2c4.4-18.1,9.1-5.4,13.9-6.1
	c4.8,3.3,9.8,3.1,14.7-11.5c5-8,9.9-3,14.7-9.4c4.8,5.6,9.5,6.7,13.9-9.9c8.8-15.3,16.5-21,22-18.3c5.5-2.4,8.8-2,8.8-1.6
	c0,1.1-3.5,0.2-9.3,5.8c-5.8-6.1-13.9,21.1-23.2,11.1c-4.6,5.9-9.6,1.3-14.7,9c-5.1,3-10.3,5.3-15.5,4.7c-5.2,9.1-10.4,2.6-15.5,5.7
	c-2.5-18.3-5-13.3-7.5-8.1c-2.4,6.4-4.8,14.5-7.2,20.1c-4.6-5.3-9,7.1-12.9-1.8c-3.9,8.1-7.4,6.6-10.3,13.9c-5.8,9-9.3,4.9-9.3,4.8
	c0,16.2,2.9,1.7,7.7-7.1c2.4-7.6,5.3,23.2,8.5,6.6c3.2-1.1,6.8-21.1,10.7-24.4c3.8-7.9,7.9-24.3,12.1-17.1
	c4.2-19.8,8.5-2.7,12.8-8.6c4.3,8.9,8.6,6.9,12.8-7.3c4.2-4.6,8.3-18.2,12.1-13.3c7.7-13.3,14.4-3.9,19.2-17.3
	c4.8-5,7.7-8.5,7.7-7.7c0,7.3-3.1,11-8.3,13.7c-5.2,9.5-12.5-0.7-20.8,8.6c-4.2-3.5-8.6,11.7-13.1,18.6c-4.5,9.3-9.2,17.8-13.9,4.8
	c-4.7,5.7-9.3,5.2-13.9,8.4c-4.5,5.7-9-14.7-13.1,9.6c-4.2-1.4-8,10.1-11.6,14.9c-3.5-4.9-6.6,14.5-9.2,2.9
	c-5.2,26.4-8.3-12.5-8.3,4.5c0-13.7,2.4-14.6,6.3-7.3c2,1.9,4.4,16.2,7,1.4c2.7,4.2,5.6-13,8.8-23.4c3.2-5.3,6.5-1.1,10-15.9
	c3.5,0.1,7-6.9,10.6-14.9c3.6-12.1,7.1-18.7,10.6-13.4c3.5-7.7,6.8-18.5,10-10c3.2-3.2,6.1-16.2,8.8-13.1c2.7-11.7,5-21.2,7-15.6
	c4-5,6.3-1.1,6.3-0.5c0,6.4-2.7,6.8-7.1,10.3c-2.2,4.7-4.9-10.7-7.9-0.3c-3,14.9-6.3,8-9.8,17c-3.5,20.1-7.3,6.8-11.2,12.5
	C511,159,507,169,503,178.6c-4,15-8,26.8-11.8,10.8c-1.9-3.1-3.8-26-5.7-4.9c-1.9-1.7-3.7,15-5.5,20.8c-3.5,2.5-6.9-11-9.8,13.7
	c-3,7.3-5.6,9.7-7.9,6.7c-4.4,21.3-7.1,19.8-7.1,6.7c0,27.5,1.8-23.5,4.8-7.6c1.5-5.9,3.3-8,5.3-19.5c2-4.2,4.3-26.9,6.7-5.5
	c2.4-11.1,4.9-23.7,7.6-19.5c2.6-21.3,5.3,1.7,8-13.5c2.7-8.2,5.4,0.2,8-15.6c2.6,3,5.2-19.7,7.6-12c4.8,6.9,9-3.7,12-19.1
	c3,23.6,4.8-19,4.8-13.5c0,1.8-2.1,13.6-5.6,4.5c-1.8,1.4-3.9-5.6-6.2,11.6c-2.4-3.2-5,4.8-7.8,14.8c-2.8-2.5-5.8-8.1-8.9,14.1
	c-3.1,5.8-6.2-3.9-9.4,11.9c-3.2-7.5-6.3-2.9-9.4,13.2c-3.1,1.8-6.1-4.7-8.9,18.2c-5.6-0.2-10.6-1.6-14.1,19.3
	c-3.5,26.5-5.6-1.5-5.6,11.6c0-3.9,1.2-20.8,3.1-6.5c1-0.2,2.1-32.1,3.4-17.6c1.3-5,2.8-2,4.3-10.9c1.5-8.6,3.2-20.1,4.9-19.3
	c1.7-14.8,3.4,1.2,5.2-16.2c1.7-12.4,3.5,10.5,5.2-14.7c1.7-22.6,3.3-8.1,4.9-14.8c3.1-11,5.8-21.1,7.7-19c1.9-16.7,3.1-16,3.1-16
	s-1.5,16.2-4,5.3c-1.3,8.5-2.8,2.2-4.5,13.7c-1.7,3.1-3.6,25.4-5.6,14.8c-2-10.3-4.1,13.2-6.3,13.3c-2.2,26.6-4.5,25.5-6.7,16.6
	c-2.3-0.5-4.5,13.7-6.7,17.4c-2.2-4.5-4.3-1.7-6.3,15.6c-2,8.6-3.9,24.5-5.6,16.6c-1.7-3.2-3.2,18.9-4.5,13.2c-2.5,4.7-4,8.2-4,4
	c0,19.8,0.1,7.6,0.3,13.3c0.1,15.9,0.3-2.4,0.4-0.8c0.2-6,0.3-19.6,0.6-22c0.4,5.2,0.9-2.4,1.5-0.7c0.6,14.8,1.2-15.2,1.8-26.1
	c0.3,27,0.7-2.7,1,9.3c0.3-4.3,0.7-15.9,1.1-25.5c0.4,12.5,0.7,14.4,1.1,8.6c0.4-0.4,0.7-10.6,1.1-28.4c0.7-3.2,1.5-0.2,2.2-18.7
	c0.7,4.4,1.4-11.1,2.1-12.8c1.3-18.5,2.5-22,3.3-22.8c0.8,21.5,1.3-13.5,1.3-13.5s-0.9,1.3-2.3,8.7c-1.4-0.4-3.4,21.2-5.7,27.1
	c-1.1,20.8-2.3,14.7-3.6,15.6c-1.2,15.7-2.5,23.2-3.8,17c-1.3-11-2.6,22.8-3.8,17.6c-1.2,2.8-2.5,3.2-3.6,16.2
	c-2.3-16.6-4.3,27.3-5.7,20.4c-0.7,0.2-1.3,7-1.7,20.9c-0.4,3.8-0.6,3.3-0.6-5.6c0,16.7,0,8.3-0.1,6.4c-0.1,1.2-0.2-22.9-0.4-20
	c-0.3-10-0.8-6.4-1.3-23c-0.3-18-0.5-21.1-0.8-17.5c-0.3,4.5-0.6-4.9-0.9-14.4c-0.3-4-0.6,2.5-0.9-19c-0.3,15.6-0.6-9.7-0.8-17.1
	c-0.5-5.4-1-18.1-1.3-26.2c-0.3,6.7-0.5-10.5-0.5-10.5s-0.2-0.3-0.5,10.5c-0.3-7.4-0.7,34.4-1.2,26.1c-0.5,9.7-1,23.7-1.5,26.8
	c-0.3,14.9-0.5,5-0.8,13.3c-0.3,10-0.5,28-0.7,27.9c-0.5,10.9-0.9-9.2-1.2,24c-0.3-15.3-0.5,32.3-0.5,12.6c0,5.3-0.9-13.1-2.3-13.1
	c-1.5-3.3-3.5-15.5-5.8-22.7c-0.6,6.3-1.2,17.3-1.8,7c-0.6-6.6-1.2-14.3-1.9-20.8c-1.3-23.9-2.6-16.9-3.9-23.7
	c-0.7,1-1.3-14.3-2-19.4c-0.6,18.4-1.3-12.3-1.9-3.1c-1.3,20.5-2.5-20.7-3.7-6.5c-2.3-8.2-4.4-7.3-5.8-25.5
	c-1.5-10.2-2.3-15.2-2.3-10.2c0-6.6,0.5-5.2,1.4,10.4c0.8,12.1,2,27.8,3.4,25.9c0.7,11.7,1.4,10.8,2.1,13.8
	c0.7,9.4,1.5,12.7,2.3,17.3c0.8-7.6,1.5,16.9,2.3,18.6c0.7,6.2,1.5,3.2,2.1,17.7c0.3,20.7,0.7-17.7,1,22.3c0.3,9.6,0.6,4.3,0.9-0.5
	c0.6-13.9,1.1-16.3,1.5,5.7c0.8,6.7,1.4,9.9,1.4,8.7c0,12.2-1.5,6-4.1-7.2c-1.3-15.4-2.8-10.2-4.5-24.3c-1.7-11.3-3.6,0.3-5.6-2.3
	c-2-0.2-4.2-30.4-6.4-12.2c-2.2,5.7-4.5-0.5-6.8-16c-2.3-8.5-4.6-17.6-6.8-17.6c-2.2,19.1-4.4-23.5-6.4-16.9c-2-8.2-3.9-6.7-5.6-24
	c-1.7,1.8-3.2,7.7-4.5-0.1c-2.5-11.4-4.1-11.4-4.1-9.7c0-4,1.2-2.4,3.1,10c2,8.9,4.7,1.6,7.9,25c1.6,26,3.2,7.6,5,15.7
	c1.7,17.8,3.5,9.5,5.2,16.7c1.8,15,3.5,26.5,5.2,16.7c1.7,12.3,3.4,10.6,5,15.8c1.6,9.4,3,44.7,4.4,25.8c1.3-0.9,2.5,12.4,3.5,5.4
	c1,12.3,1.8-2,2.3-8.1c0.5-6.4,0.8-9.6,0.8,11.9c0,11.4-0.5-4.4-1.5,12.1c-1-24.3-2.4-31.4-4.2-17.5c-0.9-6.6-1.9-27.1-2.9-22.2
	c-1.1,2.6-2.2-7.8-3.4,2.6c-2.4-6-5.1-9-7.9-5.8c-2.8-33.4-5.9-12.4-9-14.5c-3.1-8.5-6.3,4.5-9.5-13c-3.2,8.4-6.4,2.5-9.5-14.9
	c-3.1-25.4-6.1,12.6-9-14.7c-2.8-15.1-5.5-18.7-7.9-22.1c-2.4-19.7-4.5-6.7-6.3,0.1c-3.5-11.1-5.7,0.9-5.7-8.8
	c0,5.3,1.8-8.4,4.8,9.3c3,16.3,7.2,23.5,12.1,23.2c2.4,2.5,5-7.9,7.6,13.1c2.6,33.5,5.4,9.4,8.1,16c2.7,15.4,5.4,6.2,8.1,14.2
	c2.6,10.3,5.2,8.3,7.6,17.2c1.2,2.8,2.4,23.9,3.5,19.3c1.1,5.2,2.2,22.7,3.2,3.3c2-1.7,3.8,10.6,5.4,4.6c3-4.7,4.8-0.7,4.8,5.3
	c0-27.8-0.7-17.6-1.9-13.8c-1.2,15.1-3,15.9-5.2,8.9c-2.2,12.3-4.9-7.5-7.9,0.5c-3-8.6-6.3-16.1-9.9-22.6c-3.6-4.4-7.3,2.6-11.2-6
	c-3.9-11.8-7.9-18.9-11.9-12c-4-19.8-8-17.6-11.9-18.1c-3.9,8.9-7.7-9.1-11.2-13.8c-3.6-7.5-6.9-10.2-9.9-6c-3,6-5.7-1.8-7.9-13.2
	c-4.4-7.6-7.1-1.3-7.1-7.7c0-17,2.4,14.1,6.4,8.3c2-14.1,4.4,3.9,7.1,3.2c2.7-0.3,5.7,21.5,8.9,17.6c3.2,19.5,6.6,9.6,10,12.7
	c3.5-11.3,7.1,9.7,10.6,11.3c3.6,22.1,7.2,0.4,10.6,8.4c3.5-13.6,6.9,33.2,10,21.6c3.2-3,6.2,14.8,8.9,20.3
	c2.7,19.9,5.1,9.1,7.1,0.5c2,0.9,3.6-12.2,4.7-11c1.1,0.9,1.7,7.9,1.7,19.3c0,1.2-3.1-3.9-8.3-6.3c-2.6,4.7-5.7,0.6-9.3,0.8
	c-3.5-0.4-7.4,1.7-11.6-16.7c-4.2-2-8.6-17.7-13.2-20.3c-4.6,1.3-9.3-13.6-13.9,0.1c-2.3,3.4-4.7-12.5-7-20.8
	c-2.3-9.6-4.6,3.4-6.9,8.7c-4.6-16.2-9,6.5-13.2-8.8c-4.2-14.4-8.1,15.4-11.6-1c-3.5,1.7-6.6-9.7-9.3-14.8
	c-5.2-3.5-8.3-21.1-8.3-6.3c0-14.9,2.9,20,7.7,7.1c4.8-8.1,11.6,25.6,19.3,17.7c3.9,19.5,8-2.2,12.2,21c4.2,6.7,8.6,4.6,12.9,5
	c4.3,5.7,8.7,4.6,12.9,7.6c4.2,6.2,8.3,11,12.2,12.4c7.7,10,14.5,19.2,19.3,16.3c4.8-6.8,7.7-5.9,7.7,8.4c0,10.2-3.5,6.4-9.3-3.2
	c-2.9-3.4-6.4-0.7-10.3-7.9c-3.9-1-8.3-8.9-13-5.6c-4.7,9.3-9.6,16-14.7,12.1c-5.1,10.9-10.3-5.3-15.6-18.9
	c-5.2-6.6-10.5-13.1-15.6-12c-5.1,1.6-10-6.9-14.7-12.4c-4.7-14.3-9-16.3-13-15.3c-3.9,1-7.4,4.9-10.3,2.4
	c-5.8-16.5-9.3-8.4-9.3-3.9c0-9.7,3.3,8.4,8.8,3.7c5.5,20.6,13.2,4.8,22.1,16c4.4-2.5,9.1,1.1,13.9,5.8c4.8,2.7,9.8,5.4,14.8,12.6
	c5,4.1,9.9,3.7,14.8,14.6c4.8,8.6,9.5,1.6,13.9,3.6c8.8,2.9,16.5,14.9,22.1,14.4c5.5,6.2,8.8,6.6,8.8,5.3c0-14.7-0.9-14.5-2.7-19.4
	c-1.7-1.4-4.2,5.4-7.3,12c-3.1-3.6-6.9-18.6-11.1-8.8c-4.2,10-8.9,5.1-13.9,5.4c-5,11.6-10.3,13-15.8,4.6
	c-5.5,2.8-11.1,4.5-16.7-3.6c-5.6-4.1-11.3-2.5-16.7-7.9c-5.5-8.3-10.8-6.2-15.8-13.3c-10-1.7-18.8-3.4-25-10.6
	c-6.3-4.9-10-8.1-10-0.2c0,1.3,3.6,0.3,9.7,10c6,7.1,14.5,11.6,24.2,4c4.8-0.3,10-10.5,15.3-5.5c5.3,2.2,10.7,13.1,16.2,14.6
	c5.4-3.6,10.9,14.8,16.2,10.9c5.3,10.3,10.4,9.2,15.3,6.1c9.7,7.3,18.1,6.6,24.2,4.5c6,7.8,9.7,9.4,9.7,9.5c0,2.6-3.9-9.8-10.4-11.3
	c-6.5-3.8-15.6,1.2-26,6.7c-10.4-4.9-22.1-0.7-33.8,2.1c-11.7-0.5-23.4-5.8-33.8-10.6c-10.4-3.5-19.5,0.1-26,1.3
	c-6.5-4.9-10.4,1.1-10.4-5.9c0-11.3,3.8-6.3,10.2-3.3c6.4,0.2,15.3,1.7,25.5,11.2c10.2,10.2,21.7,9.4,33.2,7.9
	c11.5-5.5,23-1.4,33.2,6.9c5.1-4.7,9.9-6.8,14.2-6.3c4.3,0.5,8.1,3.7,11.3,9.6c6.4-1.2,10.2,7.1,10.2,4.6c0-16.7-3.9,2.8-10.5-2.8
	c-6.5-3.1-15.7-0.3-26.2,4.6c-5.2,1.3-10.8-10.8-16.5-2.6c-5.7,7.1-11.6-0.8-17.5-0.5c-5.9,13.6-11.8-3.4-17.5,1.9
	c-5.7-3.6-11.3,11.3-16.5,4.6c-10.5-12.2-19.6-3-26.2-3c-6.5,2.1-10.5,3.8-10.5,4.8c0-5,3.9-11.4,10.5-7.1
	c6.5,2.9,15.7-5.4,26.1,8.7c5.2,9.6,10.8,0.5,16.5,1.6c5.7-8.2,11.6-6.6,17.5-2.5c5.9,2.2,11.8-7.3,17.5,1.3
	c5.7-1.7,11.3,2.1,16.5,2.6c5.2,16.5,10.1,16.9,14.5,18.3c4.4-2.9,8.3,0.6,11.6-4.8c6.5-20.8,10.5-5.6,10.5-11.9
	c0,31.2-3.8,19.8-10.2,3.5c-3.2,5.9-7,6.9-11.3,8.8s-9.1,1.7-14.2-4.2c-5.1-7.7-10.5-1.1-16.1,3.1c-5.6,9-11.3-3.3-17.1,9.5
	c-5.7-3.5-11.5,7.3-17.1-2.1c-5.6,7.7-11,5-16.1,4.6c-5.1,20.2-9.9,20.2-14.2,13.9c-4.3,3.5-8.1-2.9-11.3-8.1
	c-6.4,6-10.2-7.2-10.2,2.3c0-17.5,3.9-11,10.4-1.4c6.5-10.4,15.6,13.7,25.9-3.4c5.2-4.3,10.7-3,16.4-5.9c5.7,1.8,11.5-1.2,17.3,3.6
	c5.8,0.2,11.7-1.4,17.3,0.8c5.7-6,11.2-0.6,16.4-7.4c5.2-5.2,10.1-12.3,14.4-5.5c4.4,2.2,8.3,12.7,11.5,5.9
	c6.5-19.1,10.4,14.8,10.4-5.2c0,0.6-3.6,20.1-9.7,12.2c-3-0.1-6.6,1.6-10.7,14.6c-4.1,12.4-8.6,8.5-13.4-12.6
	c-4.8,1-10,6.9-15.2,11.6c-5.3-4.3-10.7-1.9-16.1,1.6c-5.4,10.7-10.9,1-16.1,6c-5.3-7.5-10.4-6.6-15.2,7.2
	c-4.8,11.9-9.4,12.6-13.4,11.3c-4.1-1.4-7.7-4.8-10.7-1.1c-6-7.2-9.7,6.9-9.7,4.1c0,1.5,3.7,4.2,10,3.9c6.2,13.6,15-1.9,25-14.9
	c5-2.8,10.3-3.9,15.8-4.9c5.5-1.1,11.1-2.2,16.7-5c5.6-2.3,11.2-3.7,16.7-7.1c5.5-0.9,10.8,5.3,15.8-3.4c5,14.5,9.7,10.4,13.9,2.3
	c4.2-0.8,8-12.3,11.1-11.1c6.2,6.1,10,0.6,10-2.2c0-7.8-3.3,4.7-8.8-1.9c-2.8,2.8-6.1,12.9-9.8,5.5c-3.7,3.3-7.8,16.4-12.2,16.2
	c-4.4,5.9-9.1,5.8-13.9,11.1c-4.8,5.3-9.8,10.2-14.7,8.5c-9.9,19-19.8,0.8-28.6,17.3c-8.8,16.2-16.5,11-22,9.7
	c-5.5,2.7-8.8,14.4-8.8,10.2c0,2.5,3.5,0.9,9.3-2.8c5.8,0.6,13.9-12.8,23.2-14.1c9.3,23.8,19.7-14.5,30.2-9.7
	c10.4,3.9,20.9-23.4,30.2-21.7c9.3-2.7,17.4-2.4,23.2-14.9c5.8,10.2,9.3-17.9,9.3-2c0,14.5-2.9,8-7.7,18.4
	c-4.8,1.8-11.5-5.6-19.2,6.5c-7.7,8.1-16.3,13.9-25,26.2c-8.6,2.7-17.3,15.4-25,20.1c-7.7,9.4-14.4,12.3-19.2,18.2
	c-4.8-1.2-7.7-4.3-7.7,6.7c0-7.5,3.1,15.9,8.3-6.4c5.2,7.6,12.5-23.9,20.8-15.9c8.3,1.9,17.7-7.3,27-25.8c9.3-9.7,18.7-13.6,27-15.6
	c4.2-13.1,8-19.1,11.6-21.1c3.5,0.3,6.6-0.3,9.2,2c5.2-4.2,8.3-2,8.3-3.2c0,6.1-2.4,15.4-6.3,8.7c-4,2.9-9.5,8.6-15.8,20.5
	c-6.3,10.3-13.5,28.2-20.6,38.5c-7.1,11.9-14.2,36.2-20.6,15.7c-6.3,3.1-11.9,8.1-15.8,20.9c-4,5.2-6.3,8.3-6.3,8.3s2.7-2.9,7.1-7.7
	c4.4,0.1,10.6-10.3,17.7-19.3c7.1-4.8,15-19.3,23-28.9c8,12.1,15.9-26.2,23-21.2c7.1-8.8,13.3-19.5,17.7-8.1
	c4.4,0.3,7.1-23.5,7.1-18.8c0,1.1-1.8,1.2-4.8,5.5c-3-9.8-7.2,7.8-12,27.1c-2.4,20.1-4.9,24.3-7.6,17.9c-2.6,9.7-5.3-0.8-8,16.1
	c-2.7,13.9-5.4,13.8-8,16.1c-2.6,21.1-5.2,3.3-7.6,10.4c-2.4-3.6-4.6,17.5-6.7,1c-2-11.1-3.8,14.6-5.3,22.2c-3,5.8-4.8,9.3-4.8,9.3
	s2.1-3.3,5.6-8.8c1.8-1.6,3.9,1.4,6.2,0.5c2.4-0.9,5-5.6,7.8-22.6c2.8-12.5,5.8,6.1,8.9-11.5c3.1-6.6,6.2,5.5,9.4-26.7
	c6.3-19.7,12.7-21.9,18.3-19.1c5.6,8,10.6-1.4,14.1-11.3c3.5-5.7,5.6-8.8,5.6-19.6c0,11-1.2,8.7-3.1,4.3c-1,11.5-2.1-9.5-3.4,7.3
	c-1.3-4.9-2.8,10.9-4.3,23.3c-1.5,10.6-3.2,27.7-4.9,16.4c-1.7-6.9-3.4,10-5.2,20.5c-1.7-6.6-3.5-3.4-5.2,13.4
	c-1.7,0.4-3.3,23.1-4.9,14.7c-3.1,21-5.8,6.4-7.7,25c-1.9,2.5-3.1,21-3.1,10c0-3.5,1.5,2.8,4-9.7c2.5-11.1,6-18.2,10-24.2
	c2,6.8,4.1-9.7,6.3-16.2c2.2-12,4.5-32.2,6.7-16c2.3-15.3,4.5-9.2,6.7-22.6c2.2,17,4.3-14.2,6.3-8c4-24.9,7.5-20.1,10-24.8
	c2.5-3.1,4-3.5,4-9.1c0,15-0.5,4.9-1.3,6.7c-0.4-0.1-0.9,14.1-1.5,9.1c-0.6,3.4-1.2,10.3-1.8,20.6c-0.7-8.9-1.4,15.7-2.1,19.2
	c-0.7,6.4-1.5,16.2-2.2,15.9c-0.7,0.7-1.5,19-2.2,20.9c-0.7,11.2-1.4,10.9-2.1,11.5c-1.3-1.8-2.5,40-3.3,26
	c-0.8,8.4-1.3,15.8-1.3,10.4c0,14.8,0.9-20.2,2.3-10.2c1.4-16.5,3.4-27.1,5.7-25.5c1.1-18.9,2.3-20.9,3.6-23.5
	c1.2-4.6,2.5,10.4,3.8-9.7c1.3-20.1,2.6-19,3.8-25.4c1.2-3.1,2.5-4.2,3.6-7.8c2.3-6.3,4.3-16.5,5.7-23c1.4-9.7,2.3-4.4,2.3-12.8
	c0-9.4,0.2-4.5,0.5,5.1c0.2,3.1,0.4,8.5,0.6,16.2c0.2,16.9,0.5,22.4,0.7,15.2c0.3,3.4,0.5,4.5,0.8,12.3c0.3,14.4,0.6,4.5,0.9,21.7
	c0.3-16.9,0.6,9.6,0.9,6.3c0.3,9,0.6,20.9,0.8,27.7c0.5-0.3,1,17.3,1.3,26.2c0.3,8.6,0.5,4.5,0.5,10.5c0-13.3,0.2-13.6,0.5-10.5
	c0.3,5.5,0.7-6.7,1.2-26.1c0.2-6.5,0.5-15.5,0.7-19.2c0.3-1.6,0.5-7.9,0.8-14.8c0.3-46.1,0.5-16.3,0.8-18.4
	c0.3-11.2,0.5,0.2,0.7-15.6c0.2,5.4,0.4-13.6,0.6-16.2c0.2-12.1,0.4-16.9,0.5-13.9c0.3,4,0.5,0.3,0.5-6.5c0,8,0.9,11.2,2.3,8.8
	c1.5,16.2,3.5,12.6,5.8,27c1.2,4.1,2.4,2.9,3.7,9c1.3,0.3,2.6,2.9,3.9,24.2c1.3,15.6,2.6,27.5,3.9,28.5c1.3,1,2.5-1.9,3.7,4.7
	c2.3-2.8,4.4,12,5.8,25.5c1.5,17.2,2.3,8.7,2.3,10.2c0,11.8-0.5,2.1-1.4-10.4c-0.8,1.8-2-15.4-3.4-25.9c-0.7,4.3-1.4,1.1-2.1-5.8
	c-0.7-6.6-1.5-16-2.3-27.9c-0.8-6.5-1.5-22.3-2.3-22.5c-0.7-11.3-1.5-16.8-2.1-11.3c-1.4-3.1-2.5-19-3.4-25
	c-0.8-22-1.4-23.5-1.4-11.3c0,2.9,1.5-26.6,4.1,4.8c1.3,6.8,2.8,33.4,4.5,9.3c1.7-8.9,3.6,15.8,5.6,19.7c2,8.6,4.2,19.1,6.4,16.4
	c2.2-13.7,4.5,1.9,6.8,15c2.3,10.3,4.6,23.9,6.8,24.7c2.2,6.3,4.4,9.5,6.4,6.7c4.1,13.5,7.6,19.1,10.1,24.1c2.5-1.8,4.1,9.6,4.1,9.7
	c0,14.1-1.2-8.3-3.1-10c-2,0.5-4.7-10.2-7.9-25c-1.6-4.4-3.2-8.8-5-16.2c-1.7-9.5-3.5-8.6-5.2-16.3c-1.8-17.1-3.5-0.7-5.2-13.6
	c-1.7-21.5-3.4,3.5-5-18.9c-3.1-9.2-5.9-15.1-7.9-25.1c-2,2.5-3.1-1.1-3.1-9.9c0-7.5,2.1,11.4,5.7,6.5c1.8-6.5,3.9,4.2,6.3,1.1
	c2.4,6,5.1,15.8,7.9,23.2c2.8,6.6,5.9,9,9,24.9c3.1,14.5,6.3,23.2,9.5,3.7c3.2,26.1,6.4,10,9.5,19.3c3.1,2.4,6.1,3.2,9,9.4
	c5.7,16.4,10.6,12.6,14.2,22c3.5,13.3,5.7,15.2,5.7,8.8c0-5-1.8-23.1-4.8-9.3c-3,15.4-7.2-39.3-12.1-23.2c-2.4-5.1-5-4.1-7.6-11.6
	c-2.6,9.4-5.4-7.3-8.1-18.6c-2.7-1.5-5.4-21.2-8.1-17.2c-2.6-1.4-5.2-15.9-7.6-13c-4.8-9-9-12.8-12.1-15.6c-3-19.8-4.8-1.8-4.8-16.9
	c0,10.9,2.7,15.8,7.1,14.1c4.4,12,10.7,5,17.8,12.8c3.6-7.5,7.3,6.6,11.2,9.5c3.9-1.1,7.9,16.1,11.9,15.5c4,6.1,8,1.1,11.9,15.5
	c3.9,4.7,7.7,3.8,11.2,9.5c7.1-5.1,13.3-0.2,17.8,19.2c4.4,12.2,7.1,20,7.1,7.7c0-10.1-2.4,23.2-6.4-8.3c-4-25.6-9.5-14-15.9-20.8
	c-3.2,0.3-6.6-0.9-10-4.9c-3.5,5.1-7.1-21.5-10.6-22.1c-3.6,3.4-7.2-12.8-10.6-12.6c-3.5-2.1-6.9-10.8-10-14.4
	c-6.4,10.1-11.9-16.2-15.9-15.9c-4-9.2-6.4-22.1-6.4-13.2c0-17.5,3.1,11.9,8.3,6.7c2.6,4.8,5.7,3.2,9.3-0.8
	c3.5,13.7,7.4-0.6,11.6,16.3c4.2,7.5,8.6,15.6,13.2,10c4.6,5.4,9.3,19,13.9,10.6c4.7,11.8,9.4,20,13.9,14c4.6,5.1,9,8.9,13.2,6.6
	c8.3,2.6,15.6,22.4,20.9,15.8c5.2,26.5,8.3-18.2,8.3,6.3c0,16.6-2.9-1.3-7.7-7.1c-4.8-9.5-11.6-4.2-19.3-17.7
	c-3.9-4.7-8-8.5-12.2-12.1c-4.2-3.6-8.6-15.4-12.9-10.9c-4.3-8.9-8.7-0.3-12.9-11.8c-4.2,5.6-8.3-6.2-12.2-11.2
	c-3.9,1.3-7.5-6.7-10.7-14c-3.3,3.1-6.1-4.4-8.6-12c-4.8-22.8-7.7,3.9-7.7,1.2c0,9.3,3.5-17.1,9.3-3.8c2.9-2.7,6.4,9,10.3,4.1
	c3.9,3.6,8.3,5.6,13,16.4c4.7,0,9.6,8.5,14.7,13.6c5.1,3,10.3,4.1,15.6,1.9c10.5,5.4,21,10.8,30.3,15.6
	c18.6,9.6,32.6,16.8,32.6,16.8s-13.2-8.4-30.9-19.7c-8.8-5-18.7-11.9-28.7-18.8c-9.9-7.4-19.9-14-28.7-17.8
	c-8.8,7.1-16.5,0.1-22.1-9.9c-5.5-24.4-8.8-10.6-8.8-9.8c0,7.1,3.8,2.9,10,5.4c6.3-0.4,15,5.4,25,5.5c10,11.5,21.3,11.8,32.5,15.5
	c11.3,0.7,22.5,10.5,32.5,4.7c10,3.1,18.8,5.8,25,7.7c6.3,1.9,10,3.1,10,3.1s-3.6-1.2-9.7-3.6s-14.5-5.9-24.2-10.4
	c-9.7,9.4-20.5-0.9-31.4-3.2c-10.9-5.3-21.7-13.7-31.4-22.9c-9.7,2.5-18.1-7.6-24.2-13c-6-0.3-9.7-1.9-9.7-1c0,5.3,3.9,4.4,10.4,1.4
	c3.2,6.3,7.1-12.2,11.5-3.5c4.4,3.4,9.3-2.7,14.5,6.7c5.2,6.1,10.7,9.5,16.4,5.8c5.7-0.5,11.5-7.6,17.4,5.4
	c5.8-1.8,11.7,2.6,17.4,4.8c5.7-9.6,11.2,0.5,16.4-7.5c10.4-1,19.5-3.1,26-2.2c6.5-5.2,10.4,8.4,10.4,6.8c0-13.7-3.8-2.5-10.2-10.5
	c-6.4,2.3-15.3-0.3-25.5,2.5c-5.1-0.8-10.5-0.9-16.1-1.1c-5.6,1.1-11.3-9.7-17.1-1.1c-5.7,11.9-11.5,12.6-17.1-0.7
	c-5.6-5.8-11-3.2-16.1-11.9c-10.2-13.5-19.2,3-25.5-3.1C490.6,280.7,486.7,323.3,486.7,301z M462.8,315.5c0,13.9-4-5.2-4,9.1
	c0,12.5-0.6,4.6-0.6-0.5c0,17.5-5.5,1.2-5.5,8.3c0,1.8-0.5-6.3-0.5-0.6c0,7.8-6.8-11.4-6.8,7.2c0-9.3-0.4-16.9-0.4-0.7
	c0-9-8-3-8,5.9c0-30.6-0.1-18.8-0.1-16.1c-0.1-17.6-0.1,23.5-0.1,15.4c0-6.6-8.9,18.5-8.9,4.4c0-4.3-0.1-29.4-0.1-0.8
	c0,1.5-9.5,20.1-9.5,2.8c0-3.2,0,11.4,0-0.8c0,8.8-9.9,4.7-9.9,1.1c0,8.2,0.2-10,0.2-0.7c0-20.7-2.5-19.7-4.9-5.5
	c-2.5,3.8-4.9,20.2-4.9,4.9c0,8.1,0.3-11.4,0.3-0.7c0-11.8-2.4-11.6-4.8-14.3c-2.4,13.3-4.8-2.1-4.8,12c0-21.5,0.4,18.3,0.4-0.6
	c0,18.3-9.1,12-9.1-4c0-3.4,0.5-4.6,0.5-0.6c0,6.7-8.3-31.1-8.3-5.5c0-28.2,0.2-25.7,0.3-17.9c0.1-11.8,0.2-27.8,0.2-11.4
	c0.1,14.5,0.1,6.1,0.1,28.9c0-24.4-7.2,2.3-7.2-6.8c0,27.6,0.7-15.5,0.7-0.4c0,9.6-5.9,17.8-5.9-8c0,11.9,0.7-2.4,0.7-0.2
	c0,30.2-4.4-23.8-4.4-8.9c0,3,0.8-27.4,0.8-0.1c0-1.7-2.8-3.4-2.8-9.5c0-8.5,0.2-19.3,0.4-17.3c0.2,2.4,0.4,7,0.4,17.3
	c0,1.4-1.1,5.2-1.1-9.9c0-25,0.7-11.1,0.7,0.2c0,18.3,0.2,8.9,0.3,10.9c0.2-6.3,0.3,3.1,0.3-20.8c0,2.7,0.2-12.1,0.4-14.2
	c0.2-11.1,0.4-4.9,0.4,14.5c0-9.6,2.3-0.7,2.3-9.6c0-8.3,0.6,0.4,0.6,0.4c0-8.8,4-20.4,4-9.1c0-11.3,0.6,6.7,0.6,0.5
	c0,1,5.5-29.5,5.5-8.3c0,8.5,0.5-3.2,0.5,0.6c0,9.8,6.8,10.8,6.8-7.2c0-12.9,0.4,12.6,0.4,0.7c0-4.3,8-1.6,8-5.9
	c0-15.8,0.2,20.6,0.2,0.7c0-10.8,8.9-8.5,8.9-4.4c0,20.7,0.1-13.7,0.1,0.8c0-7.2,0.6-19,1.5-26.2c0.9,3.6,2.1-16.1,3.3-1.3
	c2.4,1.1,4.8,21.3,4.8,24.7c0,30.3,0,13.2,0,0.8c0-0.6,2.5-16.1,4.9-15.7c2.5,22.7,4.9,3.8,4.9,14.5c0-1.3-0.2-3.3-0.2,0.7
	c0,10.8,9.9,22.6,9.9,0.6c0-2.1-0.3,16.6-0.3,0.7c0-7.9,9.6-14.6,9.6,2.3c0,18.4-0.4-12.1-0.4,0.6c0,23.9,9.1,13.7,9.1,4
	c0-18.6-0.1-16.1-0.3-6.5c-0.1,9.9-0.3,14.5-0.3,7.1c0,31,2.1,9.7,4.1,16.6c2.1-20.5,4.1-0.9,4.1-11.1c0,3.5-0.6,21.7-0.6,0.5
	c0,13.8,1.8-1.7,3.6,17c1.8-4.8,3.6-7.4,3.6-10.2c0-3-0.7,8.4-0.7,0.4c0-1,1.5-7.2,2.9-18c1.5-3.9,2.9,13.2,2.9,26
	c0-4.2-0.7-17-0.7,0.2c0,14.3,4.4,30.6,4.4,8.9c0-25.7-0.2-38.1-0.4-14.7c-0.2-5.2-0.4,4.2-0.4,14.8c0-9.6,0.7,17,1.4,13.1
	c0.7,16.9,1.4,15.4,1.4-3.6c0-9-0.8,11-0.8,0c0-12.9,1.1-6.5,1.1,9.9c0,12.8-0.7-6.1-0.7-0.2c0,9.8-0.6,0.7-0.6,9.9
	c0-15.9-0.7,5.8-0.7-0.3c0-16.4-2.3-10.7-2.3,9.6C463.4,317.8,462.8,328.5,462.8,315.5z"/>
</svg>
