<?xml version="1.0" encoding="utf-8"?>
<!-- Generator: Adobe Illustrator 21.1.0, SVG Export Plug-In . SVG Version: 6.00 Build 0)  -->
<svg version="1.1" id="Calque_1" xmlns="http://www.w3.org/2000/svg" xmlns:xlink="http://www.w3.org/1999/xlink" x="0px" y="0px"
	 viewBox="0 0 841.9 595.3" style="enable-background:new 0 0 841.9 595.3;" xml:space="preserve">
<style type="text/css">
	.st0{fill:#575756;}
</style>
<path class="st0" d="M472.2,310.4c5.7,0.7,11.5,12.7,17.2,2.9c5.8-13.3,11.5,21.8,17.3,2.6c5.8-5.9,11.5,3.8,17.3,2.4
	c5.8-14.3,11.6,5.8,17.4,2.1c5.8,3.8,11.6-9.4,17.4,1.8c5.8-0.6,11.6-6,17.5,1.3c-5.7,3.2-11.4,20-17.1-3.7
	c-5.7-11.1-11.5,7.9-17.2-3.2c-5.7,16.7-11.5-0.4-17.2-2.9c-5.8-27.7-11.5-17.1-17.3-2.6c-5.8,3.9-11.5,15.8-17.3-2.4
	c-5.8,0.8-11.6-2.3-17.4-2.1c-5-14.1-9.9-1.2-14.9-1.5c-5-8.5-10-2.1-15-1.2c0,22.7,11.5-10.8,28.8-5.1c17.3-5.6,40.3,7.6,63.3-11.2
	c23-20.1,46-12.6,63.3-11.2c17.3,3.5,28.8,6.5,28.8-5.1c0-23-3.9-3.2-3.9-21.8c0-2.3-11.4-4.7-28.6,5c-17.2-1.2-40.1,0-62.9,11.1
	c-22.9,3.8-45.8,18.9-62.9,11.1c-17.2,7.5-28.6-4.3-28.6,5c4.5-4.9,9-6.3,13.4-7.2c4.4-1.9,8.8,4.6,13.2-7.5
	c5.1-5.8,10.1-20.8,15.1-8.9c5-4.5,10-2.2,14.9-9.1c4.9-5.1,9.9-16.8,14.8-9.3c4.9,6.1,9.8,9.7,14.6-9.6c4.9,3.5,9.7,1.8,14.5-9.8
	c4.8-6.1,9.5,19.7,14.2-10.3c-5.2-16.4-10.4,17.2-15.5,8.2c-5.1,1.5-10.2,11.3-15.2,8.6c-5.1-8.8-10.1,0.9-15.1,8.9
	c-5,10.3-10,12.8-14.9,9.1c-5-4.7-9.9,31.2-14.8,9.3c-4.9-11.7-9.8,13.8-14.6,9.6c-4.3-3.1-8.6,6.9-12.9,8.8
	c-4.3,3.7-8.5,4.6-12.7,9.1c0-0.2,7.6-17.2,18.9-22.5c5.7-9.5,12.3-8.8,19.3-21.9c3.5-14.6,7.2-4.6,10.9-14.2
	c3.7-5.8,7.5-8.1,11.3-13.4c3.8-2.3,7.6-8.9,11.3-10.5c3.7-2.5,7.4-4.9,10.9-16.5c3.5-5,7,7.4,10.2-6c3.2-27.1,6.3-8.4,9.1-16.5
	c5.7,18.8,10.4-4.6,13.7-8.7c3.3-4.1,5.2-26.5,5.2-13.7c0,15.9-4.2,11-8.5,2.4c-4.2-13.6-8.5-18.4-8.5-16.7c0,11.6-7.5-1-18.6,22.2
	c-2.8-0.2-5.8-2.4-9-0.7c-3.2-17.4-6.6,10-10.1,19.3c-3.5,27.7-7.1-8.2-10.8,24.6c-3.7,9.5-7.4,9.8-11.1,5.7
	c-3.7-10.1-7.5-8-11.1,7.7c-3.7-1.9-7.3,28.7-10.8,22.3c-7-1.9-13.5,6.4-19.1,18.9c-11.2,14.6-18.6,21.8-18.6,22.2
	c1.9-7.8,3.8,5.5,5.6-14.1c1.8,23.8,3.6-10.9,5.3-14.2c2-2.5,4-14.4,5.9-16.5c1.9,7.6,3.8-16,5.6-16.6c0.9-2.1,1.8-6,2.7-21.3
	c0.9-20.7,1.8-21,2.6,4.6c1.7-1,3.4,32.7,5-16.7c0.8,6.9,1.6,6.6,2.4,13.2c0.8-9.1,1.6-20.8,2.3-30c0.8,25.7,1.5,7,2.2,4.5
	c0.7-5.8,1.4-6.6,2.1-21.5c-2.3,17.1-4.5-2.3-6.6,16.2c-1.1-18.7-2.1,0.6-3.1-1c-1,18.7-2,8.7-3,17.4c-2,27.2-4-11.6-5.9,16.5
	c-1.9-12.4-3.8-15.8-5.6,16.6c-1.8,21.8-3.6,26.3-5.3,16.6c-1.7-0.3-3.4,8.4-5.1,16.7c-1.5,20.1-2.9-10-4.3,15.2
	c-1.4,17.4-2.7-10.5-3.9,15.4c0-9.8,0-28.2,0-29.4c0,1.4,0,11,0-5.4c0,1.7,0-12.7,0-29.5c0,3.6,0-6.3,0-24.6c0-16.4,0-18.3,0-5.2
	c0-32.8,0-9.8,0-22.7c0-4.3,0-8.3,0-15.2c0,12.1,0-6.3,0-26.9c0-6.7,0-26.7,0-29.4c0-11.9-22.2,4.6-22.2,0c0,13.2,0,29.9,0,29
	c0,8.3,0,1.9,0,5.3c0,30,0,40.9,0,25c0,7.5,0,6.4,0,14.6c0-8.8,0-7.6,0,19c0,7.8,0,16.2,0,22.3c0,12.8,0,20.7,0,8.6
	c0-12.3,0,3.2,0,13.3c0,6,0,25.3,0,19.6c0,15.8,0,23,0,29c-1.5-22.7-3.1-9-4.8-14.7c-1.7-11.1-3.4-29.7-5.2-14.6
	c-2-6.4-4-21.2-6.1-16.4c-1,14.6-2.1,18-3.2,8.4c-1.1-16.3-2.1-8.1-3.2-24.7c-2.2-3.6-4.4-8.6-6.6-16.2c-1.1-11.7-2.3-17.4-3.4-17.6
	c-1.1-8.3-2.3,11.7-3.5,1.5c-1.2,14.6-2.3,8.9-3.5,2.1c-1.2,0.2-2.4-15.6-3.6-18.1c-2.5,2.4-5-17.2-7.6-15.8
	c1.7-0.5,3.5-18.8,5.4,16.7c1.9,13.9,3.8-19.8,5.8,16.5c2,4.6,4-13.2,6.1,16.4c2.1,22,4.2-23.7,6.4,16.3c2.2,4.4,4.4,6.4,6.6,16.2
	c2.2,11.1,4.5,11.4,6.9,16.1c2.2,16.2,4.3,3.2,6.6,14.7c2.3,3.5,4.6,11.5,7,14.6c0-2.8,0-11.3,0,0c0,3.6-7.6-5.1-18.9-22.6
	c-5.7-14.6-12.3-8.4-19.4-11.6c-3.5-1.4-7.2-16.2-10.9-23.4c-3.7-15.8-7.5-22.5-11.3-14.6c-3.8-7.3-7.6-5.6-11.3-7.9
	c-3.7-12.4-7.4-16.4-10.9-15c-3.5-27.2-7-25.6-10.2-32.7c-3.3-16.8-6.3,1.4-9.2,6.1c-5.7-25.7-10.4-10.6-13.7-23.7
	c-3.3-4.2-5.2-1.2-5.2,1.2c0,1.5-4.2,9.4-8.5,14.6c-4.2,16.9-8.5,1.4-8.5-0.3c0,1.8,1.9,0.9,5.2,13c3.3,5.1,8,5,13.6,9.4
	c5.6,11,12.2,17.2,19.3,26.4c7.1,11,14.6,16.1,22.1,23c7.5,9.4,15.1,27.3,22.1,30.5c7.1,7.1,13.6-2.9,19.3,18.8
	c11.3,4.9,18.8,38.5,18.8,22.4c0,9.7-0.5-16.4-0.5-0.1c-4.4,9.7-8.9-2.2-13.5-8.4c-4.5-10.6-9.1-2.7-13.6-8
	c-5-9.7-10.1,5.2-15.2-8.6c-5.1-5.2-10.2-7.1-15.4-8.4c-5.1,5.1-10.3,14.6-15.5-8.1c-5.2,8.1-10.4,4.6-15.6-7.9
	c-5.2-15.2-10.5-28.5-15.8-7.6c-5.3,17.1-10.6-2.5-16-7.2c4.9,0.5,9.8,14.4,14.8,9.3c5,8.9,10,38.2,15.1,8.9c5-8,10.1,4.8,15.2,8.6
	c5.1,8.1,10.2,5.4,15.3,8.4c5.1,0.5,10.3,2.1,15.5,8.1c5.2-14.6,10.4,1,15.6,7.9c4.4-9.9,8.8,9.2,13.3,6.4
	c4.5-5.8,8.9,34.8,13.5,6.2c0,11.6-11.4,1-28.6-5c-17.1,13.6-40-0.7-62.9-11.1c-22.9,14-45.7-17.7-62.9-11.1
	c-17.1-13-28.6-0.1-28.6-5c0-1.9-3.9,22.6-3.9,21.8c0,12.3,11.5,6.7,28.8,5.1c17.3-8.8,40.3,16.8,63.3,11.2c23-3.1,46,3,63.3,11.2
	c17.3,25.7,28.8,37.6,28.8,5.1c-5.4,1.7-10.8-15.1-16.2,2.3c-5.4-8.9-10.7,14-16.1,2.7c-5.7,2-11.5-4.2-17.2,3.2
	c-5.7,22.5-11.4,14.5-17.1,3.5c-5.7-14.5-11.4-23-17.1,3.7c-5.7,8.7-11.4-5.3-17,4c-5.7,9.1-11.3,1.3-17,4.3
	c-5.6,7.9-11.3-23-16.9,4.8c5.8,30.8,11.6,19.6,17.4-2.4c5.8,2.1,11.5-8.3,17.3-2.9c5.7-15.1,11.5-3.9,17.2-3.2
	c5.7,0.3,11.4,3.7,17.1-3.5c5.7-3.3,11.4-2.3,17.1-3.7c5.7,6.3,11.4-2.1,17-4c5.2,13.9,10.4-2.5,15.7-4c5.2-8.9,10.4-13.8,15.6-4.4
	c0,27.8-10.2,18.6-25.4,14.7c-15.2-8.1-35.6,16-55.9,32.3c-20.3-28.8-40.6,9.1-55.9,32.3c-15.2-17.7-25.4-3.9-25.4,14.7
	c0-6.6,11.1,11.4,11.1,19.2c0,5.7,10.1-38.7,25.3-14.6c15.2,12.1,35.4-21.8,55.6-32.1c20.2-6.3,40.5-8.6,55.6-32.1
	c15.2-28.7,25.3-10.6,25.3-14.6c-3.7,7.9-7.3,27.3-10.8,12c-3.5,0-7,15.3-10.5,12.3c-3.8,11.3-7.5-7.9-11.1,13.5
	c-3.7-1.2-7.3,0.7-10.9,13.7c-3.6,21.3-7.2,25.6-10.7,13.8c-3.5,9-7-15.7-10.5,14c-3.5-0.4-6.9-4.5-10.2,14.2
	c-3.4,11.6-6.6,7.5-9.8,14.5c4-19.9,7.9-12.4,11.8-13c3.8,11.6,7.6,1,11.4-13.3c3.8,9.7,7.5,1.7,11.1-13.5
	c3.7,16.9,7.3-1.2,10.9-13.7c3.6,2.6,7.2-11.9,10.7-13.8c3.5-37.2,7,22.1,10.5-14c3.1,6.8,6.2-5.2,9.3-12.9c3.1,0.7,6.1-4.7,9-13.1
	c0-13-4,9.4-10,27.5c-6,38.6-14,49.3-22,60.6c-8,16.2-16,30.6-22,60.6c-6,27.5-10,29.3-10,27.5c0,5.1,20.8,8.3,20.8,7.6
	c0-3.7,4-10,9.9-27.3c6-22.1,13.9-36.7,21.8-60c7.9-15,15.9-51.9,21.8-60c6-17.4,9.9-11.7,9.9-27.3c-0.3-21.4-0.4-25.1-0.5,15.9
	c-0.1,24.1-0.1,46-0.1,15.9c0,14.6,0,16.4,0.1,17.5c0.1,3.5,0.2-13.3,0.4,17.5c0.2-14.2,0.4,4.1,0.7,17.5c0.3,17.6,0.6,17.7,1,17.5
	c0.4,14,0.8,28.3,1.3,17.4c0.5,23.3,1.1,21,1.8,17.4c0.3-24.6,0.5-13.8,0.7-17.5c0.1-32,0.2-8,0.2-17.5c0-15.6,0-7.5-0.1-17.5
	c-0.1-2.5-0.2-44.8-0.4-17.5c-0.2-19.8-0.4-26.9-0.7-17.5c-0.3,12.4-0.6-3.7-1-17.5c-0.3,0.5-0.7-8.5-1.2-16.4
	c-0.5,7.1-1,1.3-1.6-16.4c0-23.1,0.1,11.7,0.1-0.3c0-12.5,4,2.3,10.1,27.7c6,11.8,14.1,28.2,22.2,60.9c8.1,31.6,16.1,63.2,22.2,60.9
	c6,12.7,10.1,9.2,10.1,27.7c0,16,20.8-1.4,20.8-7.6c0-8.7-4-18.2-10-27.4c-6-20.2-14-23.2-21.9-60.3c-8-15.8-16-57.9-21.9-60.3
	c-6-12.3-10-43.7-10-27.4c3.2,20.8,6.4,19.2,9.7,12.4c3.3,0.4,6.7,9,10,12.2c3.7,1.7,7.5-5.4,11.3,13.3c3.8,8.4,7.7,9,11.6,13.1
	c3.9,4.5,7.8,12.8,11.8,12.9c4-10.3,7.9,0.3,12,12.7c4,19.8,8.1,12.5,12.2,12.5c4.1,4.9,8.3,19.6,12.6,12.2
	c-3.5-2.4-7.1-9.7-10.7-13.8c-3.7-18.5-7.4-14.9-11.1-13.5c-3.7,11.2-7.5-29.8-11.3-13.3c-3.8,11.4-7.7-13.6-11.6-13.1
	c-3.9-6.3-7.8-26.6-11.8-12.9c-4-21.2-7.9-10.5-12-12.7c-3.6-4.6-7.2,2.2-10.9-11.3c-3.7-11.8-7.4-17-11.2-11
	c0,0.3,10.1,15.2,25.4,14.6c15.2,15.6,35.5,13.2,55.8,32.2c20.3,2.4,40.6,15.3,55.8,32.2c15.2,26.9,25.4,17.3,25.4,14.6
	c0,13.5,11.1-6.8,11.1-19.2c0,13-10.1,12-25.3-14.6c-15.2,5.7-35.4-26.7-55.6-32.1c-20.2-19.6-40.4-13.6-55.6-32.1
	c-15.2-15.1-25.3,3.2-25.3-14.6c5-7.8,10.1,19.4,15.1,3.2C462.1,297.6,467.1,297.8,472.2,310.4z M390.3,319.1c0-7.8,0.3-3.1,0.3-0.2
	c0,15.3-10.1-26-10.1-17.5c0,8.3,0.4-9.6,0.4,0.1c0-3.3,3.5-18.3,3.5-19.9c0-17.7,0.2,8,0.2,0.3c0,7.9,15.5-23.6,15.5-13
	c0,0.5,0,3.5,0,0.4c0,1.3,20.2-21.1,20.2,0c0-1-0.2-5.7-0.2,0.3c0-14.3,15.5,23.8,15.5,13c0-4.2-0.4-3.9-0.4,0.1
	c0,0.1,3.5,11.2,3.5,19.9c0,0.1-0.3,4-0.3-0.2c0-7.1-10.1,6.5-10.1,17.5c0,10-0.1-11.3-0.1-0.4c0,29.2-19,36.1-19,6.9
	c0-3.1,0.1-10.7,0.1-0.4C409.3,336,390.3,346.4,390.3,319.1z"/>
</svg>
