<?xml version="1.0" encoding="utf-8"?>
<!-- Generator: Adobe Illustrator 21.1.0, SVG Export Plug-In . SVG Version: 6.00 Build 0)  -->
<svg version="1.1" id="Calque_1" xmlns="http://www.w3.org/2000/svg" xmlns:xlink="http://www.w3.org/1999/xlink" x="0px" y="0px"
	 viewBox="0 0 841.9 595.3" style="enable-background:new 0 0 841.9 595.3;" xml:space="preserve">
<style type="text/css">
	.st0{fill:#575756;}
</style>
<g>
	<path class="st0" d="M424.9,273.1c8.3-30.3,17.6-29.4,27.6-20.3c10-16.2,20.8-35.5,32.2-13.1c11.4,2.4,23.3-19.3,35.6-4.6
		c6.7,15.1,13.4-4.2,19.8,1.4c6.5,9.6,12.8-0.1,19,4.1c1.1,4.8,2,5.2,2.6-15.3c0.6-4,0.9,4.3,0.9-15.8c0-21.7-2.5-33.4-7.1-43.9
		c-4.6-4.4-11.3-29.9-19.7-38.1c-8.4-30.6-18.6-47.5-30-30c-11.5,10.8-24.3-25-38.1-19.7c-13.8,12.1-28.5,5.4-43.9-7.1
		c-15.3,10.5-30.1-8.7-43.9,7.1c-13.8,19.3-26.6-5.6-38.1,19.7c-11.5-0.1-21.6-21.3-30,30c-8.4,29.1-15.1,7-19.7,38.1
		c-4.6,29-7.1,17-7.1,43.9c0-15.8,0.3,11.4,0.9,16.1c0.6,35.4,1.5,25.6,2.7,15.6c6.4-13.4,13.1-9.3,19.9-4.5
		c6.8-0.5,13.8,21.8,20.9-1.6c12.3,5,24.3,36,35.6,4.6c11.4,5.5,22.2-4.2,32.2,13.1C407.3,268.8,416.6,262.9,424.9,273.1z"/>
	<path class="st0" d="M381.5,373.9c0-2.9,0.3-6.7,0.9-15.8c0.6-16.8,1.5-20.7,2.6-15.3c-8,7.4-15.6,23-22.9,3.7
		c-3.7-4.8-7.2,8.7-10.7-4.1c-3.5-3.1-6.8-8.6-10.1-21.3c-3.3-11.6-6.4-25.8-9.4-32.3c-3-6.6-5.9-5.9-8.7,10.7
		c-5.6-3.8-10.6-2.3-15.1-13.3c-4.5-6.7-8.4-26.1-11.7-31.6c-3.3-15.8-5.9-23-7.8-13.3c-7.1,11.2-13.9,13.7-20.5,5.5
		c-6.6,10.5-12.8,16.8-18.8,13.8c-5.9,19-11.5,12.4-16.7,17.6c-5.2,0.4-10-26.5-14.3,12.5c-4.4,16.8-8.3-13.8-11.7,4.7
		c-3.4,4.9-6.3,17.9-8.7,33.9c-2.4,11.3-4.2-10.2-5.5,10.1c-1.2,13-1.9,25.4-1.9,34.5c0,20.6,0.6,10.8,1.8,20.3
		c1.2,11.3,3,6.8,5.3,23.6c2.3,1.3,5.1,9.4,8.4,8.8c3.3,2.7,7.1,22,11.3,29.3c8.4,19.8,18.6,17.2,30,30
		c11.5-0.4,24.3,35.2,38.1,19.7c13.8,31.1,28.5,7.7,43.9,7.1c12.3,7.4,24.3,20.7,35.6-4.6c11.4,15.1,22.2-30.9,32.2-13.1
		c10,4.5,19.3-19.4,27.6-20.3c-8.9-14.7-16.7-16.2-23.1-28.6c-3.2-7.4-6.1-10.6-8.6-14.6c-2.5-4-4.6-8.8-6.4-19.5
		c-1.7,3-3.1,2.8-4-3.2c-0.4,0.1-0.8-3.9-1-10.2C381.6,385.5,381.5,382.7,381.5,373.9z"/>
	<path class="st0" d="M559.1,240.6c-1.8-7.7-4.4,6.4-7.6,13.7c-1.6,10-3.3,17.2-5.2,14.4c-1.9,5.3-4-4.5-6.1,16.5
		c-4.4,0.2-9.3,11.7-14.8,11.8c-2.7,11.5-5.6,11-8.5,15.5c-3,7.3-6.1,2.7-9.2,7.6c-6.4,16.2-13.2-9.6-20.4,8.8
		c-7.2,15.8-14.7-2-22.6,13.2c1.2,20.2,2.1,21.8,2.7,15.6c0.3-2.8,0.5-7.5,0.7-8c0.2-4.3,0.2,18.9,0.2,24.1c0,14.3-0.5,12.8-1.4,19
		c-0.9,7.5-2.2,21.2-4,19.1c-1.7,11.5-3.9,19.5-6.4,24.9c-2.5,5.4-5.4,8.1-8.6,9.2c-6.4,28.9-14.2,27.8-23.1,28.6
		c8.3,31.5,17.6,35.1,27.6,20.3c10-36.1,20.8,12.3,32.2,13.1c11.4,0.5,23.3,32.9,35.6,4.6c15.3,24.3,30.1,2.6,43.9-7.1
		c13.8,14.6,26.6-26.1,38.1-19.7c11.5-20,21.6-24.9,30-30c8.4-34.3,15.1-6.3,19.7-38.1c2.3-18.9,4.1-23.5,5.3-26.5s1.8-4.6,1.8-17.4
		c0-32.9-0.7-15.8-1.9-26c-1.3,5.7-3.1-25.9-5.6-19.1c-1.2,15.1-2.6,2.4-4.1-3.2c-1.5-21.4-3.1-25.1-4.9-19.7
		c-3.5-2.6-7.5-24.7-11.9-16c-2.2,1-4.6-5.4-7-18.1c-2.4-14.2-5-26.3-7.6-14.2c-5.3-9-11-13-17,2.1c-6-17.5-12.4-9.7-19.1-9.9
		C573.3,261.2,566.3,263.6,559.1,240.6z"/>
	<path class="st0" d="M424.9,273.1c-4.9,7.7-9.4-14.5-13.6,4.7c-4.2,7.9-8,5.2-11.3,26.9c-3.4-14.8-6.3-9.2-8.8,15.3
		c-2.5,7.9-4.6,33.2-6.1,22.8c3.1,25.7,6.2-17.1,9.4,13.1c3.2,26.6,6.4-2.4,9.6-9c6.5-15.8,13.1-2.3,19.8,1.4
		c7.1,5.2,14.1,8.3,20.9-1.6c3.4,15.4,6.8-21.8,10.1-8.7c3.3,11.7,6.6-18.4,9.8,4.2c-0.8-41.7-1.7-21.6-2.7-19.4
		c-1,15.8-2.2-0.4-3.4-7.8c-2.5,5.8-5.5-0.9-8.8-10.5c-3.4-24-7.1,20-11.3-0.8c-2.1-19.6-4.2-25-6.5-14.4
		C429.6,289.2,427.3,271.2,424.9,273.1z"/>
</g>
</svg>
