<?xml version="1.0" encoding="utf-8"?>
<!-- Generator: Adobe Illustrator 21.1.0, SVG Export Plug-In . SVG Version: 6.00 Build 0)  -->
<svg version="1.1" id="Calque_1" xmlns="http://www.w3.org/2000/svg" xmlns:xlink="http://www.w3.org/1999/xlink" x="0px" y="0px"
	 viewBox="0 0 841.9 595.3" style="enable-background:new 0 0 841.9 595.3;" xml:space="preserve">
<style type="text/css">
	.st0{fill:#575756;}
</style>
<path class="st0" d="M535.5,238c-12.1,1.7-24,5.7-35.6-5.3c-11.5-5.5-22.8,1.7-33.5-13.2c-10.7-0.4-21,23.8-30.7-0.6
	c-9.7-11.1-18.7-24-27.1-9.9c-16.7-2.7-30.6,6.2-40.6-1.8c-10-9.2-16.1-22.8-17.4,7.7c-0.1,9.6-0.1,10.2-0.2,0.9
	c0,8.6-3.1,9-6.2,20.4c-3.1-2.6-6.2,17.7-6.2,20.4c-0.1-12.4-0.2,9.8-0.3,0.8c-0.1-5.3-0.1-3.1-0.2,0.9c0,21.1,0-20,0,0.1
	c0-25.7,0-24.5,0,0c-0.1-19-0.1,22.6,0,1.8c-2.4,0.5-4.8-26.8-7.2-17.6c-2.4,0.3-4.8-18.1-7.3,17.5c-6.3,9.8-12.6,4.8-18.8,12.9
	c-6.2-6.5-12.2-8.1-18.2-12.2c-6,3.4-11.8,15.7-17.6-1c-5.7-13.4-11.4,21.8-16.9,2.9c-5.5,27.6-10.8,21.1-16,11.3
	c-5.2-0.6-10.2-16.9-15.1-8.3c-9.8,7.1-18.9-16.6-27.2,3.9c-8.3-21.5-15.8,7.3-22.4,2.1c-6.6,2.9-12.3,22.6-16.9,8
	c-9.3-1.6-14.4-3.2-14.4,12.4c0-22.7,0-21.6,0.1,0.9c0,23.8,0,2.2,0,21.4c0,26.5,0-2.6,0,21.4c0-27.6-0.1-14-0.1,0.9
	c0,6,0-4.8,0.1,0.9c0-10.3,0-7.9,0,0.1c0,9.6,0,4.7,0,0c0.4,16.6,2,22.5,4.7,22.9c2.7,0.3,6.5-4.9,11.3-10.8
	c9.6,11.9,23.1,16.8,39.6,9.8c8.3,14.4,17.3,20.3,26.9,20.4c9.7,0.1,19.9-5.4,30.7-13.8c10.8-1.3,22.1,21.4,33.9,12.9
	c11.7-8.2,23.9-0.3,36.3-10.5c11.4-22.7,22.6,11,33.4-2.1c10.8-17.8,21.3-14.8,31.4,0c5-4.7,10-2.3,14.8-0.2
	c4.8,2.1,9.5,3.8,14.1-2.2c9.1,12.1,17.8-6,25.8-3.2c8-4.5,15.4,2.4,22.2-3.9c6.7-8.1,12.8,0.7,18-4.6
	c10.5-24.3,17.9-12.3,21.4-10.6c11.9,9.1,23.5,22,34.9,15.4c11.3,1.8,22.3,2.1,32.9,2.7c10.5,17.6,20.7,0.5,30.2,6.2
	c9.5,1.2,18.5,19.5,26.8,4.2c16.6,15.5,30.5,8.7,40.7,2.1c10.2-0.1,16.8,7.5,18.7-6.9c0-19.1,0,17.3,0,0c0-3,0,14.9,0-0.1
	c0.1,4.7,0.3,15.7,0.3-0.9c0.1,1.2,0.1,9.4,0.2-0.9c0,1.1,3.1-2.6,6.2-20.4c3.1-21.8,6.2-28.6,6.2-20.4c0.1-13.5,0.3,9.6,0.3-0.9
	c1.3,10.2-2.4,5.3-10.2-16.1c-3.9,4.1-8.8-25-14.6-11.1c-5.8-11.7-12.5-5.2-20-10.1c-10-0.4-21.5-9.9-34.1-15.6
	c-12.6,2.7-26.3-24.3-41-15.9c-7.3,0.7-14.9-5.6-22.6-10.9C551.5,237.2,543.5,233.1,535.5,238z"/>
</svg>
