<?xml version="1.0" encoding="utf-8"?>
<!-- Generator: Adobe Illustrator 21.1.0, SVG Export Plug-In . SVG Version: 6.00 Build 0)  -->
<svg version="1.1" id="Calque_1" xmlns="http://www.w3.org/2000/svg" xmlns:xlink="http://www.w3.org/1999/xlink" x="0px" y="0px"
	 viewBox="0 0 841.9 595.3" style="enable-background:new 0 0 841.9 595.3;" xml:space="preserve">
<style type="text/css">
	.st0{fill:#575756;}
</style>
<path class="st0" d="M417.5,352.2c0,17.7-1.1,9.7-3.2,14.4c-2,3.3-5,5.2-8.7,14.2c-3.7,4.8-8,10.1-12.9,9
	c-4.8,10.6-10.2,12.8-15.8,2.8c-5.6,0.4-10.9-2.7-15.8-2.9c-4.8-6.5-9.2-23.5-12.9-8.9c-3.7-21.2-6.6-9.7-8.7-16.8
	c-2-13.7-3.2-10.1-3.2-11.8c0-13.4,1.1,1.8,3.2-19.4c2-5.7,5-2.3,8.7-9.2c3.7,4.4,8,7.1,12.9-4.1c4.8-9.1,10.2-10.8,15.8-7.7
	c5.6-9.8,10.9-13.8,15.8-0.3c4.8,8.7,9.2,2.8,12.9,12.2c3.7,6,6.6,14.2,8.7,14.9C416.4,348.6,417.5,331.6,417.5,352.2z"/>
<path class="st0" d="M516.3,392c0-5.4-1.1,9-3.2,15.7c-2,1.4-5-2-8.7,12.9c-3.7,11-8,5.7-12.9,8.7c-4.8-6.2-10.2,5.7-15.8,3.2
	c-5.6,2.2-10.9-2-15.7-3.2c-4.8-5.5-9.2-3.9-12.9-8.7c-3.7-11.9-6.6-1.8-8.7-12.4c-2-8.4-3.2-16.5-3.2-16.2c0-17.7,1.1-10.9,3.2-10
	c2-21.8,5-18.5,8.7-18.7c3.7-3.7,8-19.2,12.9-6.5c4.8-4.6,10.2-4.6,15.7-5.4c5.6-3.2,10.9-3.6,15.8,3.8c4.8-10.6,9.2-6.4,12.9,8.1
	c3.7-4.7,6.6,14.1,8.7,12.4C515.2,391.3,516.3,405.2,516.3,392z"/>
<path class="st0" d="M602.2,161c0,0.4,1.2-39.8,1.2-28.7c0.3-12.9,0.5-19.9,0.7-17.3c0.2-3,0.4-8.1,0.6-17.5c0,0.6,0.1-16.5,0.1-2.9
	c0,10.9-3.1-6.9-3.1-0.1c-7.5-1.2-15.1,13-22.6-0.6c-7.5-0.4-15.1,1-22.6-0.5c0-4.5-22.6,9.2-22.6-0.4c0,0.2-22.6-7.7-22.6-0.3
	c-5,15.8-10,7.2-15.1-0.2c-5-19.4-10-5.8-15.1-0.2c-5,7-10-8.7-15.1,2.2c-5,7.1-10,6.5-15.1-2.4c-5-4.6-10,16.8-15.1-2.1
	c-5-5.2-10-4.6-15.1,2.1c-5-1.7-10-1-15.1-2.7s-10-2.4-15.1,2.8c-10-3.1-20.1-6.2-30.1,0.3c-10,12.2-20.1,8.5-30.1,0.3
	c-7.5-8.3-15.1-6.5-22.6,0.3c-7.5-16.4-15.1,2.8-22.6,0.4c0,1.3-11.3,10.2-22.6,0.6c-11.3,1.2-22.6-2-22.6,0.6
	c0,4.7-2.8,5.9-2.8,0.1c0-1.6,0.1,5.4,0.1,2.7c0.1,6.9,0.3,22.3,0.4,17.1c0.1,8.6,0.2,5.3,0.3,17.1c0.1,0.3,0.2,13.5,0.3,17.1
	c0.1-2,0.1,20,0.1,14.9c0,2.7-1.2,9.3-1.2,0c0,5.3,0,4.7,0,2.7c0.2,13.8,0.4,27.6,0.6,41.4c0.1,6.9,0.2,13.8,0.2,20.7
	s0.1,13.8,0.2,20.7c0.1,4.2,0.1,18,0.1,20.7c0,6.1,0,5,0.1,20.7c0-7.8,0,10.6,0,20.7c0,11.1-0.1,33.9-0.1,20.7
	c0,6.4-0.1,9.7-0.1,15.3c-0.1,2.9-0.1,19.2-0.2,26.1c-0.2,13.8-0.4,27.6-0.6,41.4c-0.2,13.8-0.5,27.6-0.8,41.4
	c-0.2,21.3-0.5,24.7-0.7,41.4c0-0.8-0.1,7.2-0.1,3.9c0,3.4,4,0.5,4,0.1c7.6,8.8,15.2,8.7,22.8,0.3c7.6,8.2,15.2,13.7,22.8,0.2
	c7.6-4.5,15.2-9.7,22.8,0c7.6-2.5,15.2,16.3,22.8,0c5.1,4.5,10.1-20.4,15.2-0.1c5.1,7.7,10.1-4.3,15.2-0.1
	c5.1,0.6,10.1-10.9,15.2-3.3c5.1-6.8,10.1-3,15.2,3.1c5.1,27.6,10.1,12.6,15.2,2c5.1-8.5,10.1-3.2,15.1-2.3
	c0,16.1,22.7,9.7,22.7-0.3c0-6,22.6,13.8,22.6-0.4c0-6.5,11.3,6.4,22.6-0.4c11.3,2.4,22.6-4.5,22.6-0.4c10,8.9,20,5.1,29.9-0.6
	c9.9,1,19.9,0.9,29.8-0.6c9.9,4.5,19.7-2.2,29.6-0.7c0,9.9,0.4-27.7,0.9-40.9c0.2-10.2,0.4-20.4,0.6-28.1c0.2-7.7,0.3-19.6,0.3-12.8
	c0-16.2,0.4-30.5,0.7-41.4c0.4-20.7,0.7-41.4,0.7-41.4l0.6-41.6l0.5-41.8c0.2-13.9,0.3-27.9,0.4-41.8c0.1-22.4,0.2-19.2,0.2-41.9
	c0-1.9,0,9.9,0-5.2C606.9,167.2,602.2,156.2,602.2,161z M330.4,102c10-8.1,20.1-26.3,30.1,0.3c5-3.7,10-2.7,15.1-1.3
	c5,1.4,10,3.3,15.1,1.6c5,4.5,10,26.6,15.1,12.3c5-4.2,10,5.4,15.1-12.1c5-13.4,10-19.1,15.1-3.9c5-6.6,10,8.4,15.1,3.9
	c5,14,10,13.6,15.1-2.9c5,5.6,10-14.6,15.1,2.7c5,4,10-2.9,15.1-0.2c5,3.5,10-7.5,15.1-0.2c0,0.8,22.6,5.9,22.6-0.3
	c0-9,22.6,14.9,22.6-0.4c7.1-17.8,14.1,2.7,21.2-0.5c7.1-2.7,14.1,4.5,21.2-0.5c0.2-5,0.3-0.8,0.5,15.1c0.2,11.3,0.4,17.7,0.6,15.2
	c0,4.6,0.3,4.8,0.6,15.1c0.3-0.7,0.6,23.4,0.6,15.1c0,7.2-22.1-11.3-22.1-0.1c0-0.6-22.6-9.8-22.6,0c0-0.2-11.3-14-22.6,0
	c-11.3,5.5-22.6,7.7-22.6,0c0,1.9-10-7.1-23.4,0.1c-13.4-8.4-30.1,4.6-43.5,0.2c-13.4-5-23.4,6.8-23.4,0.1c-1.3,16.6-2.7,11.4-4,0
	c-6.7,11.7-13.4,5.2-20,0.1c-4.1-10.7-8.1-0.9-12.2,0.1c-9,1.4-18.1-3-27.1,0.2c-9,16.8-18.1,3.1-27.1,0.3
	c-9.9-4.3-19.7,1.5-29.6,0.4c-9.9,5.9-19.7,7.8-29.6,0.5c-9.9,8-19.7-2.7-29.6,0.5c0-6.6,0.1-11.4,0.1-14.9
	c0.1-6.5,0.1-21.4,0.3-17.1c0.1-6.6,0.2,1.8,0.3-15.7c0.1,7.1,0.2-5.5,0.4-15.7c0-18.8,10.6,16,21.3,0.5
	c10.6-13.7,21.3-6.5,21.3,0.5c7.5,9.5,15.1-3.6,22.6,0.4C315.3,103.8,322.9,99.1,330.4,102z M509.7,495.3c0-1.8-11.3,12.5-22.7-0.4
	c-11.3-8.4-22.7-3.6-22.7-0.4c0-10.1-22.6-14.3-22.6-0.4c0,0-22.5,2.4-22.5-0.3c-5-1.1-10,4.4-15-6.3c-5,0.9-10-0.4-15,5.9
	c-5-5-10,7.9-15-1c-5,5-10,7.6-14.9,0.8c-5,13.4-10,8.9-14.9-0.1c-5-8.5-10-9.7-14.9-0.1c-7.5-0.5-14.9,8.8-22.4,0
	c-7.5,7-14.9-0.3-22.4,0c-6.8,17.4-13.6-5.1-20.4,0.2c-6.8,0.9-13.6-5.4-20.5,0.2c-0.2-23.8-0.4-31.7-0.6-39.4
	c-0.2-13.1-0.5-26.3-0.7-39.4c-0.2-13.8-0.4-27.6-0.6-41.4c-0.1-5-0.2-4.3-0.2-20.6c-0.1-3.6-0.1-14.9-0.1-20.8
	c0-24.9-0.1-8.4-0.1-20.7c0-9.5,0-20.2,0-20.7c0-4.3,0-22.4,0.1-20.7c0,1.1,0.1-11,0.1-20.7c0-6.7,0.1-13.3,0.2-20
	c0.1-6.7,0.1-13.3,0.2-20c0.2-13.3,0.4-26.7,0.6-40c14.6,1.7,29.2-13.7,43.9,0.7c14.6,6.4,29.2,10.1,43.9,0.6
	c10-15.6,20.1-11.4,30.1,0.3c10,5.6,20.1,2.3,30.1,0.2c5,0,10,0.1,15.1,0.1c5,2.8,10,5.1,15.1,0.1c0,5.1,10-11.4,23.4,0.1
	c13.4,5.2,30.1,4.9,43.5,0.2c13.4-2.4,23.4,3.4,23.4,0.1c0,13.9,11.3,10.8,22.6,0c11.3,7.8,22.6,7.8,22.6,0c0,3.8,22.6-0.2,22.6,0
	c0,6.3,17.4-0.8,17.4-0.1c0.1,22.1,0.1,7.1,0.2,38.3c0.1,12.8,0.2,25.6,0.4,38.3l0.5,41.1l0.6,41.2c0,0,0.4,20.7,0.7,41.4
	c0.4,14,0.7,30,0.7,41.4c0,4.6,0.1-7.4,0.3,13.1c0.2,7.9,0.4,18.3,0.6,28.8c0.4,1.6,0.9,40.2,0.9,41.9c-10.3,4.2-20.5-16.7-30.7-0.7
	c-10.2-7-20.4,10.5-30.5-0.6C529.9,489.6,519.8,500.7,509.7,495.3z"/>
</svg>
