<?xml version="1.0" encoding="utf-8"?>
<!-- Generator: Adobe Illustrator 21.1.0, SVG Export Plug-In . SVG Version: 6.00 Build 0)  -->
<svg version="1.1" id="Calque_1" xmlns="http://www.w3.org/2000/svg" xmlns:xlink="http://www.w3.org/1999/xlink" x="0px" y="0px"
	 viewBox="0 0 841.9 595.3" style="enable-background:new 0 0 841.9 595.3;" xml:space="preserve">
<style type="text/css">
	.st0{fill:#575756;}
</style>
<path class="st0" d="M301.6,327c0,3.2-1.1,6.3-3.2,8.9c-2.1,2.5-5.2,4.5-8.9,4.9c-1.8,0.2-3.7,0.1-5.6-0.4c-1.8-0.5-3.6-1.5-5.1-2.7
	c-3-2.5-4.9-6.6-4.9-10.7c0,1.6,1.9,0.2,4.9-10.7c1.5-6.3,3.3,5.6,5.1-2.7c1.8,16.5,3.8-0.8,5.6-0.4c3.6-0.7,6.8-8.8,8.9,5
	C300.5,324.4,301.6,328.9,301.6,327z M301.6,327c0,1.7-1.5-9.9-3.9-8.2c-1.2-5.3-2.6,1.8-4-2c-1.4-4.2-2.9-6.2-4.2-0.1
	c-2.7-14.7-4.9-14.7-6.4,3.9c-1.5-11.9-2.2,7.1-2.2,6.4c0,2.3,0.7,4.5,2.2,6.4c1.5,1.9,3.7,3.4,6.4,3.9c1.4,0.2,2.8,0.2,4.2-0.1
	c1.4-0.4,2.8-1,4-2C300.1,333.3,301.6,330.2,301.6,327z"/>
<path class="st0" d="M346.6,317.2c0,1.1-1.1-7.5-3.2,8.9c-2.1,2.5-5.2,4.5-8.9,4.9c-1.8,0.2-3.7,0.1-5.6-0.4
	c-1.8-0.5-3.6-1.5-5.1-2.7c-3-9.1-4.9-7.8-4.9-10.7c0-5.4,1.9-15.6,4.9-10.7c1.5,9.5,3.3-5.9,5.1-2.7c1.8-5.6,3.8-4.5,5.6-0.4
	c3.6,2.1,6.8,9.6,8.9,5C345.6,314.6,346.7,313.2,346.6,317.2z M346.6,317.2c0,1.3-1.5-2.6-3.9-8.2c-1.2-3.3-2.6,7.3-4-2
	c-1.4-8.2-2.9,9.4-4.2-0.1c-2.7,7.1-4.9,0.2-6.4,3.9c-1.5,8.7-2.2-0.5-2.2,6.4c0-16.4,0.7,0.1,2.2,6.4c1.5-9.3,3.7,3.4,6.4,3.9
	c1.4,0.2,2.8,0.2,4.2-0.1c1.4-0.4,2.8-1,4-2C345.2,326.2,346.7,320.2,346.6,317.2z"/>
<path class="st0" d="M261.3,301.7c0,0.2-1.1,11.7-3.2,8.9c-2.1,3.2-5.2-3.7-8.9,4.9c-1.8,6.4-3.7,1.7-5.6-0.4
	c-1.8-4-3.6-12.4-5.1-2.7c-3-0.1-4.9-19.5-4.9-10.7c0-6.1,1.9-2.1,4.9-10.7c1.5,7.4,3.3-9,5.1-2.7c1.8-7.9,3.8-13.3,5.6-0.4
	c3.6,12.8,6.8-0.8,8.9,5C260.2,288.2,261.3,290.9,261.3,301.7z M261.3,301.7c0-6.4-1.5-2-3.9-8.2c-1.2,3.8-2.6-20.6-4-2
	c-1.4-13.7-2.9,14.3-4.2-0.1c-2.7-7.9-4.9-6.8-6.4,3.9c-1.5-0.6-2.2-4-2.2,6.4c0,8.8,0.7,11.3,2.2,6.4c1.5,1.3,3.7,10.8,6.4,3.9
	c1.4-1.7,2.8-2.5,4.2-0.1c1.4,14.4,2.8-5.9,4-2C259.8,303.5,261.3,309.3,261.3,301.7z"/>
<path class="st0" d="M332.9,164.2c0-0.3-1.1-2.1-3.2,8.9c-2.1,4.8-5.2,7.7-8.9,4.9c-1.8,0.2-3.7,0.9-5.6-0.4
	c-1.8-16.7-3.6,1.3-5.1-2.7c-3-8.4-4.9,2.2-4.9-10.7c0-1.9,1.9-1.3,4.9-10.7c1.5,1.2,3.3-3.2,5.1-2.7c1.8,2.3,3.8-17.2,5.6-0.4
	c3.6-5.3,6.8,10.1,8.9,5C331.8,155.1,332.9,165.7,332.9,164.2z M332.9,164.2c0,8.3-1.5-11.8-3.9-8.2c-1.2,1.9-2.6,10-4-2
	c-1.4-4.5-2.9-14.9-4.2-0.1c-2.7-7.1-4.9-3.5-6.4,3.9c-1.5-7-2.2,3.9-2.2,6.4c0-0.5,0.7,12.2,2.2,6.4c1.5-14.9,3.7,7.9,6.4,3.9
	c1.4,3.5,2.8-0.8,4.2-0.1c1.4-0.3,2.8,3,4-2C331.5,164,332.9,171.8,332.9,164.2z"/>
<path class="st0" d="M256.4,252.3c0,12.7-1.9,10.4-5.5,14.4c-3.5,0.3-8.7,18.6-14.4,7.2c-2.8-20.9-5.7,6-8.5-1
	c-2.8-5.4-5.4-13.6-7.6-4.4c-2.2,1.2-4-5.8-5.3-7.3c-1.2-0.1-1.9,6.8-1.9-8.9c0-14.9,0.6,0.5,1.9-8.9c1.2-13.3,3.1-2.2,5.3-7.3
	c2.2-31.2,4.9-10.8,7.6-4.4c2.8-6.8,5.7-0.5,8.5-1c5.7-5.2,10.9,0.7,14.4,7.2C254.5,248.2,256.5,249.1,256.4,252.3z M256.4,252.3
	c0-5.1-2.3-11.9-6.2-13.7c-1.9,6.3-4.1-4.4-6.5-3.7c-2.4,5.2-4.8,0.9-7.2-0.7c-4.8,2.8-9,11.9-11.9,6.2c-2.9,12.3-4.5,15.2-4.5,11.9
	c0,8,1.5,6.4,4.4,11.9c2.9-3.4,7.1,7.5,11.9,6.2c2.4,9.3,4.8-1.7,7.2-0.7c2.4,7.7,4.6,2.8,6.5-3.7
	C254.1,270.4,256.5,254.5,256.4,252.3z"/>
<path class="st0" d="M372.7,250c0,5.3-1.9,12.4-5.5,14.4c-3.5,2.6-8.7,11.3-14.4,7.2c-2.8-6.3-5.7-0.6-8.5-1c-2.8,6-5.4-7.9-7.6-4.4
	c-2.2,7.4-4-17-5.3-7.3c-1.2-0.9-1.9,0.4-1.9-8.9c0-0.2,0.6,1.5,1.9-8.9c1.2-4.8,3.1-1.3,5.3-7.3c2.2-15.3,4.9,1,7.6-4.4
	c2.8,2.1,5.7-4.5,8.5-1c5.7-1.5,10.9-3.3,14.4,7.2C370.8,236.5,372.7,248.4,372.7,250z M372.7,250c0-6.5-2.3-7.3-6.2-13.7
	c-1.9,2.1-4.1,3.4-6.5-3.7c-2.4,2.9-4.8,1.3-7.2-0.7c-4.8-5.4-9,15.6-11.9,6.2c-2.9,9.4-4.5,5.7-4.5,11.9c0,2,1.5,23.9,4.4,11.9
	c2.9-8.2,7.1,1.5,11.9,6.2c2.4-6.5,4.8,7.4,7.2-0.7c2.4-11.3,4.6-8.7,6.5-3.7C370.4,254.1,372.7,250.3,372.7,250z"/>
<path class="st0" d="M281,165.3c0,10-1.9,14.8-5.5,14.4c-3.5,4-8.7,5.8-14.4,7.2c-2.8-1.9-5.7-0.1-8.5-1c-2.8-0.9-5.4-2.4-7.6-4.4
	c-2.2-2-4-3.8-5.3-7.3c-1.2,3.8-1.9-5.2-1.9-8.9c0-15.8,0.6-5.1,1.9-8.9c1.2-7.7,3.1,10.7,5.3-7.3c2.2-0.6,4.9,5,7.6-4.4
	c2.8-5.8,5.7,3.5,8.5-1c5.7-3.9,10.9,6.4,14.4,7.2C279.1,141.2,281,154,281,165.3z M281,165.3c0-12.5-2.3-6-6.2-13.7
	c-1.9,4.4-4.1-0.8-6.5-3.7c-2.4,3.7-4.8-2-7.2-0.7c-4.8-1.4-9,2.5-11.9,6.2c-2.9,5.3-4.5,15.3-4.5,11.9c0-1.2,1.5,12.9,4.4,11.9
	c2.9,3.3,7.1,5.7,11.9,6.2c2.4,0.2,4.8,0,7.2-0.7c2.4-0.7,4.6-2,6.5-3.7C278.7,180.6,281,180.8,281,165.3z"/>
<path class="st0" d="M323.7,220.2c0,8.7-2.8,23.8-7.8,19.9c-4.9,2-12.2,5.3-19.9,9.5c-3.8,10.4-7.8,7.4-11.5-1.6
	c-3.7-12.6-7.2,5.8-10.2-6.1c-2.9-11.8-5.3-1.1-7-9.8c-1.6,3.1-2.5-7.4-2.5-11.9c0,6.7,0.8-11,2.5-11.9c1.6-12,4,2.7,7-9.8
	c2.9,3.6,6.5-3.3,10.2-6.1c3.7-10.2,7.7-9.9,11.5-1.6c7.7-7.2,14.9,12.7,19.9,9.5C321,206.4,323.7,219,323.7,220.2z M323.7,220.2
	c0,5.5-0.8-19.3-2.2-10.5c-1.4,0-3.6-11.9-6.2-8.7c-2.6-0.4-5.7-3.2-9-5.4c-3.3-3.3-6.8-4.1-10.2-1.3c-6.8,1.5-13.1,4.9-17.4,8.5
	c-4.4,1.8-6.7,15.9-6.7,17.4c0,10.8,2.4,12.9,6.7,17.4c4.3,11.3,10.6,14.4,17.4,8.5c3.4-15.7,6.9-2.9,10.2-1.3c3.3-9.8,6.4-9,9-5.4
	c2.6-4.3,4.8-10.3,6.2-8.7C323,215.1,323.7,217.5,323.7,220.2z"/>
<path class="st0" d="M333.8,101c0,13.3-1,26.4-2.9,15.1c-1.9,7.8-4.7-9.4-8.3,13.1c-3.6,8.1-7.9,5.9-12.7,9.2
	c-4.8,8.6-10.1,23.6-15.5,3.8c-5.4-0.3-10.9,2.3-16-2.5c-5.1,10.9-9.9-25.3-14-8.7c-4-10.4-7.3-5.6-9.5-13.6
	c-2.2-16.1-3.4-11.2-3.4-16.4c0-15.2,1.1-9.3,3.4-16.4c2.2-9.2,5.5-14.3,9.5-13.6c4,0.2,8.8-8.7,14-8.7c5.1,10.4,10.6-0.3,16-2.5
	c5.4-2,10.7-3,15.5,3.8c4.8,8,9.2-2.4,12.7,9.2c3.6,3.9,6.4,15.8,8.3,13.1C332.9,85.4,333.9,83,333.8,101z M333.8,101
	c0-1.8-1.1-6.8-3.1-15c-2-12.7-5-13.2-8.8-12.5c-3.7,4.4-8.1-2.9-12.8-7.9c-4.7,6.9-9.7-9-14.7-2.2c-9.9,7.3-19.2,10.9-25.7,11.9
	c-6.5,13.9-10.2,24.5-10.2,25.7c0-0.6,3.6,26.7,10.2,25.7c6.5,0.5,15.8,19.4,25.7,11.9c4.9,7,10-9.6,14.7-2.2
	c4.7,15.9,9.1-3.7,12.8-7.9c3.7,0.6,6.7-5.5,8.8-12.5C332.8,100.1,333.8,102.3,333.8,101z"/>
<path class="st0" d="M320.4,285.6c0,0.8-0.7-2.1-2.2,6.6c-1.5-3.2-3.8,9.2-6.6,4c-1.4-8.8-2.9,2.3-4.3-0.2c-1.4-1.9-2.9-6.6-4.1-2
	c-2.4,10.3-4-14.3-4-8.4c0,1.4,1.5-10.5,3.9-8.4c1.2-4.2,2.6-7.6,4.1-2c1.5,0.7,2.9,5.1,4.3-0.2c2.8,8.2,5.1,0.4,6.6,4
	C319.6,277.1,320.4,282.1,320.4,285.6z M320.4,285.6c0,7.4-1.1-5.2-2.9-5.9c-1.8-4.9-4.1-1.4-5.9-1.2c-1.9-16.4-3.2,4.6-4.1,3
	c-0.9,5.2-1.2,10.5-1.2,4.1c0,9.8,0.4-2.8,1.2,4.1c0.9,10.1,2.2-5.3,4.1,3c1.8-2,4.1-2.6,5.9-1.2
	C319.2,300.1,320.4,292.4,320.4,285.6z"/>
<path class="st0" d="M286.8,264.9c0,0.1-0.7,16.6-2.2,6.6c-1.5,5.8-3.8,3.9-6.6,4c-1.4-2.7-2.9,5.8-4.3-0.2c-1.4-11-2.9-9.9-4.1-2
	c-2.4-4.1-4-15.2-4-8.4c0-21.8,1.5-2.9,3.9-8.4c1.2-3.1,2.6,0.8,4.1-2c1.5,0,2.9,7.3,4.3-0.2c2.8-5.8,5.1-7.8,6.6,4
	C286.1,262.5,286.8,283.6,286.8,264.9z M286.8,264.9c0,13.2-1.1-4.2-2.9-5.9c-1.8-1.7-4.1-2.5-5.9-1.2c-1.9,12.3-3.2,6.8-4.1,3
	c-0.9-2.4-1.2,5.5-1.2,4.1c0,2.1,0.4-0.7,1.2,4.1c0.9,4.5,2.2,11.4,4.1,3c1.8-4.4,4.1,3.5,5.9-1.2
	C285.7,274.8,286.8,257.1,286.8,264.9z"/>
<path class="st0" d="M251.2,205.8c0,0.2-0.7-5.3-2.2,6.6c-1.5,10.9-3.8,9.3-6.6,4c-1.4,1-2.9,11.8-4.3-0.2c-1.4-1-2.9,8.2-4.1-2
	c-2.4,4.1-4,2.8-4-8.4c0,5.4,1.5,3.9,3.9-8.4c1.2-10.6,2.6,9.5,4.1-2c1.5,5.9,2.9-9.4,4.3-0.2c2.8,1.3,5.1,20.9,6.6,4
	C250.5,192.9,251.2,199.6,251.2,205.8z M251.2,205.8c0,5.7-1.1-8.6-2.9-5.9c-1.8,9.8-4.1,4.7-5.9-1.2c-1.9-1.7-3.2-10.6-4.1,3
	c-0.9,5.7-1.2-9.1-1.2,4.1c0,1.2,0.4,8.4,1.2,4.1c0.9-0.2,2.2,10.8,4.1,3c1.8-4.7,4.1,8.9,5.9-1.2
	C250.1,219.6,251.2,212.1,251.2,205.8z"/>
<path class="st0" d="M632,472.9c-0.7,13.4-1.5-10.4-2.4,1.6c-1.7,5.5-3.5,6.9-5.3,1.8c-3.6,3.9-7.3-2.8-10.9,1.2
	c-7.3,9.7-14.6,10.8-21.9-1c-7.3,0.6-14.5,0.4-21.7-2.8c-7.2-4.5-14.3-5.5-21.5-3.9c-7.1-10.6-14.2,4.7-21.3-4.6
	c-7.1,14.9-14.1,15.7-21.2-5.2c-7,3.4-14.1,14.1-21-2.2c-3.5,6.8-7,10.7-10.5,9.8c-3.5-0.9-7-4.1-10.4-19.6
	c-6.9,19.2-13.9-11.3-20.8-5.5c-6.9-15.1-13.8-9.8-20.6-8.3c-6.8-13.2-13.6-7.4-20.4-8.9c-6.8-8.3-13.5-3.9-20.2-7.2
	c-6.7-14.2-13.3-10-19.9-9c-6.6,10-13-17.1-19.4-10c-6.3-10.3-12.6,2.6-18.5-11.5c-2.9,19.6-5.8,5-8.3-7.1c-1.2,6.1-2.4-4.9-3.3-4.3
	c-0.8,0.9-1.4-20.5-1-4.8c-0.4-3-0.7-3.9-0.9,1.7c-0.1-1.7-0.1-0.7-0.2,0.8c0-12.4-2.9,12-5.7,18.8c-2.9-7.2-5.7-1.1-5.7,18.8
	c-0.1,6.8-0.2,10.8-0.3,0.8c-0.1,2.5-0.1-20.1-0.2,0.8c0,5.5,0-12.3,0,0.1c0-4.6,0,3.2,0,0c-0.5,7.6,3.4,6.9,10.8,14.9
	c7.4,1.2,18.4,17.7,32.2,19.3c6.9,0.7,14.5,6.4,22.7,11.8s17,10.3,26.3,9.5c9.3,5.1,19.1-0.3,29.3,7.5c10.2,0.7,20.8-4.3,31.7,13.5
	c21.8,14.4,42.9-11.3,62.3,16.7c19.4-0.2,37.2,16,52.5,9.6c15.3,6.8,28,3.2,37.4,2c9.4,0.1,15.4-9.6,17.3-6.4c0-6.7,0,3.7,0,0
	c0,9.1,0,0.6,0-0.1c0.1-15.2,0.2-12.6,0.3-0.8c0.1,9.6,0.1-5.5,0.2-0.8c0,9.5,2.9-2.2,5.7-18.7c2.9-0.8,5.7-21.5,5.7-18.7
	c0.1,2.4,0.2-2.7,0.3-0.7C632.9,470.5,632.5,478,632,472.9z"/>
<g>
	<path class="st0" d="M311.9,370.3c1.1,2.1,6.7-6.2,15.8-6.4c4.6-9.9,10,5.3,16.2,1.2c6.2,10.9,13.2,5.1,20.8,1.1
		c7.6,10.7,15.9,5.9,24.8,1.2c8.8,5.8,18.2,9.5,28,9c9.8-3,20.1,4.5,30.6,13.2c10.6-2.8,21.5,6.8,32.5,4.1c5.5,5.9,11,14.8,16.4,6.1
		c5.4,1.7,10.7,0.9,15.8,4.6c5.2,1.9,10.2-4.2,15.2,1c5-3.3,9.8-13.7,14.5,9.7c4.7,3.3,9.3-3.5,13.7-0.3c4.4-12.6,8.7-0.3,12.8,11.2
		c8.3,7.8,15.9-6.6,22.8,10.6c6.9,4.1,13.1,3.9,18.4,5.2c5.3,1.3,9.8,4,13.4,13.9c7.2-2.3,10.6,7.7,9.4,14.2
		c-1.1-8.2-6.7,15.6-15.8,6.4c-9.1,7.9-21.8,1.6-37-2.3c-15.3,12.8-33.2,5.4-52.8-10.1c-4.9,6.5-9.9,3.3-15-0.8
		c-5.1-1.1-10.3-16.1-15.6-6c-5.3,0.6-10.6,5.7-16.1,3c-5.4,2.4-10.9-12.6-16.5-13.5c-5.5-2.3-11,9-16.4-0.4
		c-5.4-1.6-10.7-11.8-15.8-7.9c-5.2,9.2-10.2,8.4-15.2-8.6c-5-7.7-9.8,1.2-14.5-4.6c-4.7-2.6-9.3-4.9-13.7-9.7
		c-4.4-6.6-8.7-12.7-12.8-3.8c-8.3-1-15.9-5-22.8-8c-6.9,2.5-13.1-0.9-18.4-8c-5.3-4.4-9.8,1.7-13.4-11
		C314.2,374.3,310.8,374.9,311.9,370.3z"/>
</g>
</svg>
