<?xml version="1.0" encoding="utf-8"?>
<!-- Generator: Adobe Illustrator 21.1.0, SVG Export Plug-In . SVG Version: 6.00 Build 0)  -->
<svg version="1.1" id="Calque_1" xmlns="http://www.w3.org/2000/svg" xmlns:xlink="http://www.w3.org/1999/xlink" x="0px" y="0px"
	 viewBox="0 0 841.9 595.3" style="enable-background:new 0 0 841.9 595.3;" xml:space="preserve">
<style type="text/css">
	.st0{fill:#575756;}
</style>
<g>
	<path class="st0" d="M417.6,333.1c5.7-4.6,11.1-13.8,16-6.8c4.9-3.9,9.3-8.9,13.1-5.2c3.7-15.6,6.7-12.2,8.8-16.8
		c2.1-18.2,3.2-9.2,3.2-12.3c0,10.2-1.2-17.7-3.2-16c-2.1-12.6-5.1-0.7-8.8-13.1c-3.7,11-8.1-2.3-13.1-8.8c-4.9-7.8-10.3-8.7-16-3.2
		c-5.7-3.3-11.1,4.8-16-1.5c-4.9-13.2-9.3-8.5-13.1,13.6c-3.7,0-6.7,16.1-8.8,17.4c-2.1,10.5-3.2,16.7-3.2,11.7
		c0,9.9,1.2,22.6,3.2,22c2.1,6.6,5.1,2.1,8.8,7.1c3.7,0.3,8.1,15.5,13.1,8.8C406.5,330.5,411.9,331.5,417.6,333.1z"/>
	<path class="st0" d="M696.5,269.3c-1.7-31.9-4.3-0.7-7.5-20.8c-3.2-4.9-7.1-7.7-11.4-18.9c-4.4-7.5-9.2-11.9-14.3-17
		c-5.1,0.7-10.6-15.9-16.3-15.1c-5.7-10.4-11.6-9.6-17.8-13.4c-6.1,0.5-12.4-5.1-18.9-11.8c-6.5-7-13,8.4-19.8-10.3
		c-4.5-6.3-9-9.1-13.6-10.3c-4.6-1.3-9.2-1-13.8-1.3c-9.3,7.3-18.7-18.7-28.3-9.2c-4.8-3.5-9.6-0.9-14.4-3.7
		c-4.8-5.8-9.7-3.8-14.5-3.2c-7.3-2.9-14.6,4.4-22-3.8c-7.4-16.3-14.7,9.2-22.1-2.7c-7.4,6.6-14.8,12-22.2-1.6
		c-7.4-6.7-14.8,8.1-22.3-0.6c-5,1.4-9.9-8.3-14.9-2c-5,4.6-9.9-10.8-14.8,2.8c-4.9-15.6-9.9-2.1-14.8-2.9c-4.9,3-9.9-1.9-14.8,5.5
		c-4.9-1.8-9.8,12.3-14.7,3.5c-4.9-2.2-9.8,1.4-14.7,1.1c-4.9-2-9.7-0.2-14.6,3.8c-4.8,1.8-9.7,1.2-14.5,2.7
		c-4.8-9.9-9.6,7.7-14.4-0.7c-4.8,2.3-9.5,2.3-14.2,9.3c-4.7,3.9-9.4-9.9-14,1.4c-4.6,4.8-9.3,8.4-13.8,9.4
		c-6.9,12.5-13.6,13.8-20.3,9.7c-6.6,17-13.2,12.2-19.5,11.3c-6.4,4-12.6,8.4-18.5,13.1c-6,4.7-11.7,9.7-17,15.2
		c-5.4,6-10.4,21.3-14.9,17.4c-4.5,15.3-8.5,12.2-11.9,19.9c-3.3,2.9-5.9,19.2-7.6,22c-1.7,19.8-2.5,16-2.2,23.1
		c0.3,18.3,1.4,18.6,3.5,22.8c2.1,8.1,5.1,14.4,8.6,21.1c2.6,4.8,5.5,9.3,8.7,13.7c3.2,17,6.6,25.4,10.2,12.4
		c0.2,11,0.5,4.3,0.8,1.8c1.9-10.6,4.8,5.9,8.1,7.4c0,12.5,0-3.3,0-0.1c5.4-0.2,11.1,6.2,17,14.2c5.9,9.1,12,6.9,18.3,12.4
		c6.3,21.3,12.7-11.7,19.2,10.8c6.5-5,13.2-2,19.9,9.4c13.5,11.2,27.3,15.4,41.3,15.4c14-4.5,28.3,15.9,42.7,11.3
		c7.2-0.9,14.4,13.1,21.7,4.2c7.3,4.7,14.6,9.3,21.9,3.2c7.3,0.9,14.7,1.8,22.1,2.4c7.4,0.6,14.8,1,22.2,0.8
		c9.9,16.3,19.7,13,29.6-0.4c9.9-6.6,19.7,1.5,29.5-2.4c9.8-5.7,19.6,1.1,29.3-4.5c9.7-2.7,19.4-6.4,28.9-6.7
		c9.5-2.8,19-15.2,28.3-9c9.3-2.4,18.4-30.3,27.4-11.5c6.7,1.6,13.3-3,19.8-10.3c6.5-4.5,12.8-19.2,18.9-11.7
		c6.1,2.2,12.1-11.7,17.8-13.4c5.7-4.7,11.2-9.7,16.3-15c5.1-9.2,9.9-5.8,14.3-16.9c4.3-7.3,8.2-13.6,11.4-18.9
		c3.2-2.6,5.9-16.3,7.5-20.7c1.8,6.5,2.7-35.1,2.7-21.9C699.1,278.4,698.3,265.3,696.5,269.3z M523.6,157.3c7-0.7,13.9-1.1,20.9,4.7
		c6.5-0.5,13-0.4,19.5,5.3c-0.3-4.6-0.7,12.7-1,0.3c-2.4,5.4-4.7,4.1-6.6,4.3c-1.9-13.6-3.2-1.5-4,6.7c-0.5,9-0.7,7-1,3.6
		c-0.1,7.9-0.1,7.7-0.2,1.8c0,5.1-0.1-3.1-0.1,0.9c0,6.5,0-2.8,0,0.9c0-0.3,0,0.1,0.1,1.7c0.1,10.8,0.2-3.7,0.2,1.7
		c0.1-6.5,0.2-12.4,0.3,1.6c0-6,0.3-2.1,0.3,1.4c0.2,4,0.3,12.9,0.4,2.8c0.1,4.9,0-2.4,0,2.8c-0.1,5.1-0.1,1.5-0.2,1.4
		c-0.1,0.5-0.2,18.4-0.3,1.4c-0.1-9.9-0.3,23.2-0.5,1.3c-0.2-11.3-0.4-12.4-0.6,1.3c-0.9,1.6-2.2-15.8-3.7,4.2
		c-1.5-21.9-3,1.5-4.5,3.1c-1.5-14.4-2.8,19-4.2,3.1c-1.4,1-2.8,2.5-4.3,3.1c-1.5-8.6-3.1,2.1-4.8,3.3c-1.6-5.2-3.2,0.8-4.9-1.4
		c-1.1-10.4-2.2,5.2-3.3-0.6c-1.1,5.4-2.2,2.9-3.4-0.3c-0.8,3.9-1.7,0.3-2.5-0.1c0.3-5.7,0.6,2.1,0.9-0.1c0.5,8,1,3.5,1.5-0.2
		c4.1,2.6,8.3-1,12.7-2.5c0-5.3,0.2-2.4,0.2-1c-2-5.9-4.1-1-6.3-2.9c-2.2,5.8-4.4,8.4-6.6-1.4c-1.1,1-2.2,2.4-3.4-0.3
		c-1.1-2.4-2.2-19.1-3.4,0c-0.8-6.5-1.7,0.7-2.5,0.1c0.3-1.1,0.6,13.3,0.8-0.2c0.5-6.5,1-5.7,1.5-0.3c4-3.1,8.1,7,12.4-3.6
		c0-2.4,0.1-5.1,0.1-1c-2.1,13.2-4.3,2.6-6.5-2.3c-2.2-19.4-4.5,2.7-6.7-0.8c-1.1-4.7-2.2-1.8-3.4,0c-1.1-6.6-2.2-0.6-3.4,0.3
		c-0.8,12.8-1.7,13.5-2.5,0.4c0.3-2.3,0.5,2.9,0.8-0.3c0.5,19.4,1-1.4,1.5-0.5c3.9-0.8,7.9,0.4,12.1-4.7c0-3.8,0,2.3,0-1
		c-2.2-4.3-4.4-19.7-6.7-1.7c-2.3,5.8-4.5-3.1-6.8-0.3c-1.1-5.8-2.2,6.3-3.4,0.3c-1.1,5.2-2.2,1.5-3.3,0.6
		c-0.8-11.5-1.6,4.7-2.4,0.6c0.3,17.4,0.5-1.4,0.8-0.3c0.5-33.1,1-5.1,1.4-0.6c3.8,5.4,7.7-0.7,11.6-5.7c0,5.1-0.1,3.9-0.1-1
		c-2.3-1.9-4.6-0.5-6.8-1.1c-2.3-0.8-4.5,3.5-6.7,0.3c-1.1-5.9-2.2,3.3-3.3,0.6c-1.1,16.4-2.2,3.7-3.3,0.9c-0.9-7.4-1.7-8.4-2.5,0.9
		c0.3,18.7,0.6-7.7,0.9-0.5c0.5-3.8,0.9-15,1.4-0.7c3.7,15,7.3,12.1,11.1-6.7c0,21.4-0.2-21.7-0.2-1c-2.3-5.7-4.6,10.6-6.9-0.5
		c-2.3,20.9-4.5,10-6.7,0.9c-1.1,0.6-2.2-17.8-3.3,0.9c-1.1-2.3-2.1-12.2-3.2,1.1c-0.8-22.7-1.6-21.3-2.5,1.1
		c0.3,21.6,0.6,7.6,0.9-0.6c0.4-1.7,0.9,9.4,1.3-0.8c3.5-19.9,7-10.7,10.5-7.7c0-7-0.3-11-0.3-1c-2.4,1-4.7-12.5-6.9,0.1
		c-1.7-24.5-3.4,16.2-5,1c0.1-13.4,0.3-17.3,0.4-0.7c0.5-31,0.9-11.7,1-3c0.1,8.3,0.1,1.5,0.1-1.9c0,9,0.1-16.8,0.1-0.1
		c0,4.7-0.1-1.5-0.1-0.3c0-4-0.1,1.9,0.4-4.5c0.7-6.3,2.3,13.2,4.2-4.9c1,8.1,1.9,4.7,2.8-1.8c0.9-2.3,1.6,4.3,2.4-1.9
		c1.5-0.5,3.1-6.1,4.3-3.3c4,9.9,8,3.2,12,1.8C509.6,173.3,516.6,162.8,523.6,157.3z M482.7,386.4c-0.2-0.6-0.2,12.4-0.2,5.3
		c-0.1,18.4-0.4-7.6-0.6-3.1c0,14.7-0.4-1.7-0.4-1.7c-0.1-0.6-0.3-1.1-0.5-1.7c-0.3-1.1-0.7-2.2-0.9-3.3c-0.3-1.1-0.6-2.1-0.9-3.2
		c-0.1-0.5-0.2-1.1-0.3-1.6c-0.1-0.5-0.2-1.1-0.3-1.6c-0.2-1.1-0.4-2.2-0.5-3.3c-0.2-1.1-0.4-2.2-0.6-3.3l-0.2-1.7l-0.3-1.7
		c-0.3-2.1-0.8-4.3-1.5-6.3l0.9,0.9l2,2.4l1,1.2c0.3,0.4,0.6,0.9,0.9,1.3c0.6,0.9,1.1,1.8,1.6,2.7c0.4,1,0.8,1.9,1.1,2.9
		c0.2,0.5,0.3,1,0.5,1.5c0.1,0.5,0.2,1,0.3,1.5c0.1,1,0.2,2.1,0.3,3.1c0,1.1-0.1,2.1-0.2,3.2c-0.1,1.1-0.2,2.1-0.4,3.1
		C482.9,384.4,482.9,385.4,482.7,386.4z M473.6,397.1c0-8-0.2-9.3-0.3-3.1c0,8.7-0.3-5.7-0.3-1.7c-0.1-3.4-0.2-3.5-0.3-1.7
		c-0.2-1.1-0.5-2.2-0.6-3.3c-0.2-1.1-0.4-2.2-0.6-3.3c-0.1-0.5-0.1-1.1-0.2-1.6c-0.1-0.5-0.2-1.1-0.2-1.6c-0.1-1.1-0.2-2.2-0.3-3.3
		c-0.1-1.1-0.2-2.2-0.3-3.3l-0.1-1.7l-0.2-1.7c-0.1-2.2-0.4-4.3-1-6.4l0.8,1l1.8,2.5l0.9,1.3c0.3,0.4,0.5,0.9,0.7,1.4
		c0.5,0.9,0.9,1.9,1.3,2.8c0.3,1,0.6,2,0.8,3c0.1,0.5,0.2,1,0.3,1.5c0.1,0.5,0.1,1,0.1,1.6c0,1,0,2.1,0,3.1
		c-0.1,1.1-0.3,2.1-0.5,3.2c-0.2,1-0.4,2.1-0.7,3.1c-0.3-1.9-0.4-2.3-0.6,3C473.9,388.5,473.7,397.1,473.6,397.1z M463.5,407
		c-0.1,6-0.1,0.1-0.2,1.5c-0.3-6.8-0.5,0.6-0.7,7.1c-0.3,9.1-0.7,5.1-1.3-2c-0.1,3-0.2-4.3-0.3-0.2c0.3-3.4,0.5-7.6,0.7-1.7
		c0.4-1.2,0.9,5.6,1.2-3.2c0.3,8.4,0.5-1.1,0.7-2.4C463.6,402.3,463.5,409.5,463.5,407z M282.3,184c0,3.5-0.1-7.6-0.2-1.8
		c-0.3-4.1-0.5,2.3-1-3.6c-0.8,2.7-2.1-14.8-4-6.7c-1.2,3.4-2.6-8.8-4.2-3.2c4.8-2.3,9.7-9.9,14.6-6.3c4.9-2.1,9.8,10.6,14.8-2
		c5,3.7,9.9-2.8,14.9-1.7c5-1.9,10-11.4,15-4.5c2.2,7,4.4-11.9,6.6-1c0.8,16.7,1.6-1.4,2.4,1.8c0.8,7.3,1.5-9.2,2.4,1.9
		c0.9,4.2,1.8,0.1,2.8,1.8c1.9-0.8,3.5,6.8,4.2,4.9c0.8-7.7,0.2,10.3,0.5,6.8c0.1,1.9,0.5-2.1,1,3c0.5-0.7,1-1.5,1.7,2.7
		c0-17.1,0.1,16.4,0.1,0.1c-0.3-17.5-0.6,7.5-0.8,2.4c-0.4-13.1-0.6,25.5-0.9,3.3c-0.2,7.7-0.5,2.5-0.6,3.3
		c-0.1,12.4-0.2-11.6-0.3,2.5c0,4.3,0,2,0-0.9c0-4.4,0-5.9-0.1-1.5c-0.2,5.4-0.5-8.5-1.4-12.9c0,2.4-1,0-1-0.3
		c-1.5-12.7-2.5-9.1-3.4,6c-0.9-16.6-1.5,9.9-2,6.5c-0.3-1.1-0.4,4.7-0.6,3.3c-0.1,9.8-0.3,11.7-0.3,3.4c0-7.5-0.1-8.8-0.1,2.5
		c0,1.2-0.1-6.5-0.1-0.9c-0.1,0.4-0.1,2.1-0.2-1.5c-0.6,4.4-1.3-10.5-2.5-12.7c0,3.8-1-10.9-1-0.2c-1.3-12.8-2.2,15.9-2.9,6.3
		c-0.7,12-1.1,6.6-1.4,6.6c-0.2,8.9-0.2,8.8-0.3,3.4c0-1.3-0.1-9.1,0,3.4c0-6,0.1,1.8,0.1,2.5c-0.1-15.4-0.1-1.4-0.2-0.8
		c-0.1-7.1-0.2-10.1-0.3-1.5c-1-4.2-2-7.5-3.6-12.4c0,0.2-1,5.7-1-0.1c-1.1,1.8-1.8,1.7-2.3,6.5c-0.5,10.8-0.8,20.4-0.8,6.7
		c-0.1-9,0-8,0,3.4c0.1,17.6,0.1-3.5,0.3,3.4c0.1-3.8,0.2-8.1,0.4,2.5c-0.1-2.8-0.2-3.8-0.3-0.8c-0.2,6.1-0.3-25-0.5-1.5
		c-1.3-4.4-2.7-8.9-4.7-12.1c0,8.9-1-1.7-1,0c-1,1.6-1.4,0.4-1.7,6.7c-0.3,9.5-0.4-5.4-0.3,6.8c0,10.6,0.2,17.6,0.3,3.4
		c0.2,9.3,0.3-15.9,0.6,3.3c0.2,10,0.4-9.6,0.6,2.4c-0.1,23.1-0.2-3.2-0.3-0.8c-0.2,0.1-0.4-2.4-0.6-1.4c-1.6,9.3-3.4-18.7-5.7-11.6
		c0-1-1-0.7-1,0.1c-0.8,9.3-1,2.8-1.1,6.8c-0.1,0.2,0-1.7,0.3,6.7c0.1,25.2,0.4-8,0.6,3.3c0.3,26.4,0.5,23.2,0.9,3.3
		c0.3,3.7,0.5,0,0.9,2.5c-0.2,1-0.3-11.8-0.5-0.9c-0.2,1.8-0.5,1.9-0.7-1.4c-2,11.8-4-20.4-6.7-11.1c0-1.1-1-4.7-1,0.2
		c-0.6,7.2-0.6,1.2-0.5,6.9c0-16.8,0,4.4,0.1,0.8c-1.7,11.1-3.2,3.2-4.8-3.3c-1.5,12.7-2.9-7.3-4.3-3.1c-1.4,4.8-2.7-5.6-4.2-3.1
		c-1.5-22.5-3-4.9-4.5-3.1c-1.5-10-2.7-13.9-3.7-4.2c-0.2,10-0.4-9.3-0.6-1.3c-0.2,20-0.3,7.4-0.5-1.3c-0.1-7.4-0.3-10.6-0.3-1.4
		c-0.1-15.5-0.2-11-0.2-1.4c-0.1,8.7-0.1,6.5,0-2.8c0.1-8.9,0.2-6.5,0.4-2.8c0,6.9,0.3-4,0.3-1.4c0.1-3.2,0.2-9.4,0.3-1.6
		c0.1-3.6,0.2-0.1,0.2-1.7c0,3.5,0.1-27.6,0.1-1.7c0,5.7,0-5,0-0.9C282.4,185.8,282.3,195.9,282.3,184z M370,185.6
		c0,1.1,0.1,8.8,0.1,1.7c0,1.7,0.1,18.3,0.2,1.7c0.1-0.3,0.3,2.1,0.4,3.4c0.2-11.4,0.3,3.6,0.3,3.3c0,12.1,0,5.1,0,1.6
		c0,3,0.1,22.4,0.1,1.6c0-11.9,0,9.6,0,3.3c0-19.1,0-4.9,0,3.3c0-0.4-0.1,8.5-0.1,1.7c0,6.4,0-1,0,1.7c-0.1-8,0,9.9,0.4,6.5
		c0,10.7-0.7-5.3-0.7-1c0,11.9-1.5-5.5-1.5-2.7c0,16.4-0.8,1.4-0.8-1.4c-0.2-9.8-0.4-9.4-0.6-1.4c-0.4-1.9-0.7-0.9-1.1-3
		c-0.3-9.1-0.4-7.4-0.6-3.1c-0.1,0.9-0.1-6.8-0.2-1.6c0-1.5,0,6.2,0-1.6c0,14,0.1,3.7,0.3-3.1c0.2-7.5,0.5-4.9,0.8-3.1
		c0.3-3.3,0.6,2.1,0.9-3c0.4-17.1,0.6-6.3,0.9-3c0.5-11.8,0.8,0.2,1.1-5.2C369.9,199.4,369.9,183.3,370,185.6z M519.2,340.8
		c-0.8-8.4-1.7-2.7-2.4-2.4c-0.8,5.1-1.6-1.3-2.4-2.3c-0.4-7.2-0.7,7.9-1.1-1.2c-0.4,2.4-0.7,8.2-1.1-1.2c-0.7,9.3-1.4,11.2-2.1-2.6
		c-0.7-15.8-1.4,12.7-2.1-2.6c0,9.8-1-11.6-1-1.4c0-2.2-1.1-8.4-1.1-1.3c-1.3,8.6-2.8,1.2-4.5-4.7c0,12.3,1.2-10.1,1.2,0.4
		c0-11.6,2.9-29.8,2.9,1.1c0,0.3,1.5-12.6,1.5,0.6c0.5,8.4,0.9-26.5,1.4,0.7c0.9,9.9,1.8,9.5,2.7,1.6c0.4-15.8,0.8-18.7,1.2-18.5
		c0.4-12.1,0.8,8.3,1.2,20.5c0.4,13.6,0.8-4.2,1.1,1.1c0.4,8.1,0.7-8.4,1,1.2c0.6,14,1.2-4.3,1.8,2.6c0.5-6.8,1,4.8,1.4,2.9
		c0.5,3.8,0.8,5.7,1.2,2.9c0.4,13.4,0.8,6.9,1.2,2.9c0.7,6.3,1.6,2.2,2.5,4.7c-0.6,3.3-1.3-6.4-2.1-2.4c0-2.1-1.2-15.9-1.2-1.2
		C520,348.4,519.6,341,519.2,340.8z M460,388.3c-0.1,1-0.3,2.1-0.6,3.1c-0.3,1-0.7,2-1,3c-0.3,5.7-0.8-1.1-1.2,2.9
		c-0.4-4.9-0.8-3.3-1.2,2.9c-0.7,6.6-1.1,5-1.5,5.1c0.2-1.3,0.2-5.6,0.2-3.1c0-7.7,0-1.8,0-1.7c0-7.9,0-7.3,0-1.7
		c0-4.4-0.1-4.4-0.1-3.4c-0.1-1.1-0.1-2.2,0-3.3c0-0.6,0.1-1.1,0.1-1.6c0-0.5,0-1.1,0.1-1.6c0.1-1.1,0.2-2.2,0.3-3.3
		c0.1-1.1,0.2-2.2,0.3-3.3l0.2-1.7l0.1-1.7c0.3-2.1,0.3-4.3,0.1-6.5l0.6,1.1l1.3,2.8l0.6,1.4c0.2,0.5,0.3,1,0.5,1.5
		c0.3,1,0.6,2,0.8,3c0.2,1,0.2,2.1,0.3,3.1c0,0.5,0,1,0.1,1.6C460.1,387.2,460.1,387.7,460,388.3z M351.4,197.6
		c0.2,0.9,0.2-6.9,0.2-5.3c0.1,12.1,0.4,3.5,0.6,3.1c0-7.5,0.4,4.9,0.4,1.7c0.1-0.2,0.3,5.3,0.5,1.7c0.3-4.2,0.7,0.6,0.9,3.3
		c0.3-1.4,0.6-7.7,0.9,3.2c0.1,7.6,0.2,6,0.3,1.6c0.1,2.4,0.2,10.3,0.3,1.6c0.2-1.2,0.4-5.4,0.5,3.3c0.2-1.6,0.4-10.4,0.6,3.3
		c0,6.8,0.2-3.5,0.2,1.7c0-2.2,0.3,0.3,0.3,1.7c0.3-11.2,0.8-7.2,1.5,6.3c0-10.7-0.9,8.6-0.9-0.9c0,14.7-2-9.9-2-2.4
		c0,2.2-1-9.4-1-1.2c-0.3-26.9-0.6,21.8-0.9-1.3c-0.6,12.8-1.1-1.4-1.6-2.7c-0.4-5.7-0.8-1.4-1.1-2.9c-0.2-2.9-0.3-15-0.5-1.5
		c-0.1-5.6-0.2,5.1-0.3-1.5c-0.1-7.6-0.2,4.8-0.3-3.1c0-4.1,0.1,11,0.2-3.2c0.1,3.3,0.2,1.6,0.4-3.1
		C351.2,191.3,351.3,191.1,351.4,197.6z M463.2,189.2c1-13.1,1.9,17.4,2.9-1.2c1.7,8.7,3.2-2.6,4.7-2.5c-0.8-20.3-1.6,2.2-2.4,2.1
		c0-7.5-1.2,13.4-1.2,1.2c-0.4,19-0.8,12.2-1.2,1.3c-0.8,12.6-1.6,8.6-2.4,2.4c-0.8-2.8-1.5-15.7-2.3,2.4c-0.4,0.7-0.8,13.4-1.2,1.1
		c-0.4,6.7-0.8,0.2-1.2,1.1c-0.8,2.5-1.7-4-2.6,2.1c-0.8,1-1.7-8.9-2.6,2.1c0,17.6-1.4-2.1-1.4,1c0-1-1.3,6.4-1.3,1.1
		c-1.7-4.5-3.3,11.2-4.7,4.5c0,6.4,0.4-8.1,0.4-1.2c0-7.7,1.1-11.7,1.1-2.9c0,4.6,0.6-10,0.6-1.5c0.2,13.6,0.5-3.4,0.7-1.4
		c0.5,2.2,1,0,1.6-2.7c0.6,1.9,1.3,0,2-2.4c0.3,7.6,0.7,8.6,1.1-1.1c0.4,4.9,0.8,5.6,1.2-1c0.8-2,1.7-21,2.6-1.8
		c0.9-10.5,1.9-2.1,2.9-1.4C461.2,172.1,462.2,192.8,463.2,189.2z M386.1,328.1c-1.6,0.6-3-10.4-4.3,3.2c0.5-7.2,1.2,2.7,1.9-5.3
		c0,3.6-0.7-4.7-0.7-0.7c-1.6-2.2-3.1,0.7-4.5,2.8c0.6-1.5,1.5-2.7,2.4-5.2c0,5.7-0.6,1-0.6-0.8c-1.7,11.8-3.3-4.2-4.8,2.4
		c0.8-11.5,1.8,5.4,2.8-4.9c0,1.8-0.6,2-0.6-0.8c-1.7,0.2-3.4,3.6-4.9,2c0.9-6.6,2,3.2,3.3-4.7c0,5.1-0.5,2.2-0.5-0.9
		c-1.7-10.3-3.5-9.7-5.1,1.6c1,15.4,2.3,9.3,3.6-4.4c0,4.5-0.4,13.5-0.4-0.9c-1.8,12.7-3.5,3.9-5.2,1.1c1.1-10.9,2.5-15.3,4-4
		c0,1.7-0.3,12.9-0.3-0.9c-1.8-13.4-3.5-3.8-5.3,0.7c1.3,5.4,2.7-3,4.4-3.7c0,23.5-0.3-9.8-0.3-1c-1.8,2.2-3.5-9.6-5.3,0.2
		c1.4-4.2,2.9,4,4.7-3.3c0,3.5-0.2-2.3-0.2-1c-1.7,15.3-3.5-3.2-5.3-0.3c1.5,8.4,3.1,5.2,4.9-2.8c0-2.1-0.1,11.8-0.1-1
		c-1.7,0.4-3.5,0.1-5.3-0.7c1.5,2.7,3.3-2.3,5.1-2.4c0-5.6,0-15.2,0-1c-1.6-13.5-3.4,2.9-5.2-1.2c1.6,6.3,3.4,2.6,5.3-2
		c0,5.4,0.1-4.1,0.1-1c-1.6,5.3-3.3-11.5-5.1-1.6c1.7-0.9,3.5-1.2,5.5-1.5c0-10.2,0.2-11.5,0.2-1c-1.5,7.9-3.1-18.2-4.9-2.1
		c1.7,11.6,3.6-18.9,5.6-1c0-8,0.3-11.5,0.3-1c-1.4,11.2-3-1.7-4.7-2.5c1.7,1.9,3.6,7.3,5.7-0.5c0,8.7,0.3,0.3,0.3-0.9
		c-1.3-2.7-2.8,13.1-4.5-2.9c1.8-3.9,3.7,18.4,5.7,0c0,1.4,0.4-11.6,0.4-0.9c-1.2,15.7-2.6-14.7-4.2-3.3c1.8-14,3.6,8.7,5.7,0.5
		c0,2.6,0.5-18.6,0.5-0.9c-1.1,5-2.4,1.9-3.9-3.6c1.8-2.9,3.6-7,5.6,1c0-4.5,0.6,5.9,0.6-0.8c-1-9.8-2.2-1.9-3.6-4
		c1.7-7.4,3.5,8.4,5.5,1.5c0-13.2,0.6-1.4,0.6-0.8c-0.8-8.9-1.9-3.6-3.2-4.3c1.7-3.3,3.5,5.3,5.3,1.9c0,13.6,0.7,0.8,0.7-0.7
		c-0.7,2.8-1.6,5.4-2.8-4.5c1.7,5.8,3.3-7.3,5.2,2.4c0-8.2,0.8-10.8,0.8-0.6c-0.6,3.3-1.4,2.2-2.4-4.8c1.6-3.9,3.2,12.6,4.9,2.8
		c0,17.7,0.8,18.2,0.8-0.6c-0.4,6.4-1.1-0.9-2-4.9c1.5,9.1,3,14,4.7,3.3c0,1.3,0.9,5.8,0.9-0.5c-0.3,5.3-0.8,15.8-1.6-5.1
		c1.4,11.1,2.8,3.6,4.4,3.6c0-27.5,0.9,3.7,0.9-0.4c-0.1-9.5-0.5-9.9-1.1-5.2c1.3-4.3,2.6-14.4,4,4c0,6.9,0.9,22,0.9-0.3
		c0-7.5-0.2-7.3-0.7-5.3c1.2,6.3,2.4,16.2,3.7,4.4c0,6.3,1,4.5,1-0.3c0.2-6.8,0.1-1-0.2-5.3c1.1-7.1,2.2,0.2,3.3,4.7
		c0,0.6,1-4.3,1-0.2c0.4,4.6,0.5-14,0.3-5.3c1,6.7,1.9-2.6,2.8,4.9c0-0.7,1,6.4,1-0.1c0.5-16.6,0.8,11.6,0.7-5.3
		c0.9-10.2,1.6,0.3,2.4,5.1c0,1.4,1,4.3,1,0c0.6-18.4,1.1,8.9,1.2-5.2c0.7,5,1.3,8.9,2,5.3c0-0.4,1-1.7,1,0.1
		c0.8-3.4,1.3-14.4,1.6-5.1c0.6-2,1,15.6,1.5,5.5c0-8.1,1,5.4,1,0.2c0.9-10.7,1.6-1.4,2.1-4.9c0.4,12.8,0.7-15.4,1,5.6
		c0,12.3,1-12,1,0.3c1.1-4.2,1.9-12.9,2.5-4.7c0.3,12.6,0.4,6.3,0.5,5.7c0,10.3,0.9,10,0.9,0.3c1.2-4.7,2.1-4.4,2.9-4.5
		c0.1-8.9,0.1,16,0,5.7c0-0.9,0.9,0.8,0.9,0.4c1.3-13.1,2.4,1.7,3.3-4.2c0-17.3-0.2,19.1-0.5,5.7c0-12.5,0.9-4.8,0.9,0.5
		c1.4,25.8,2.6-9,3.6-3.9c-0.2,7.5-0.6,5.6-1,5.6c0-5.8,0.8,12.3,0.8,0.6c1.5-9.9,2.8-12.2,4-3.6c-0.3,22-0.9-2.5-1.5,5.5
		c0-15.9,0.8,8.1,0.8,0.6c1.6-1.3,3,0.1,4.3-3.2c-0.5,11.2-1.2-5-1.9,5.3c0,1.9,0.7,1.2,0.7,0.7c1.6-4.2,3.1,1.3,4.5-2.8
		c-0.6-1.5-1.5-6.1-2.4,5.2c0,16.2,0.6,15.4,0.6,0.8c1.7,2.8,3.3,20.6,4.8-2.4c-0.8,7.8-1.8,6.3-2.8,4.9c0-3.4,0.6-3.3,0.6,0.8
		c1.7,2.9,3.4-7.7,4.9-2c-0.9,0.1-2,6.3-3.3,4.7c0,5.5,0.5-5,0.5,0.9c1.7-21.4,3.5,13.9,5.1-1.6c-1-14.5-2.3-1.7-3.6,4.4
		c0-16.4,0.4-15.6,0.4,0.9c1.8-15.3,3.5-9.7,5.2-1.1c-1.1-9.2-2.5,5.2-4,4c0,4.2,0.3-23,0.3,0.9c1.8-5.4,3.5,12,5.3-0.7
		c-1.3,6.6-2.7,16-4.4,3.7c0-3,0.3-7.1,0.3,1c1.8-4.7,3.5,5.4,5.3-0.2c-1.4,7.5-2.9,17.2-4.7,3.3c0-11.9,0.2,6.8,0.2,1
		c1.7-13.8,3.5-5.6,5.3,0.3c-1.5,0.9-3.1,12.9-4.9,2.8c0,3.4,0.1-0.7,0.1,1c1.7,11.8,3.5-4.8,5.3,0.7c-1.5,6.6-3.3-4.9-5.1,2.4
		c0-11.1,0,11.4,0,1c1.6,0,3.4,8.4,5.2,1.2c-1.6-3.3-3.4,8.9-5.3,2c0,19.9-0.1,15.3-0.1,1c1.6-13.7,3.3-21.5,5.1,1.6
		c-1.7,7.3-3.5,18-5.5,1.5c0-15.1-0.2-1.2-0.2,1c1.5,14.8,3.1,8,4.9,2.1c-1.7,11.6-3.6-18.8-5.6,1c0,19.3-0.3,9.8-0.3,1
		c1.4-10.6,3-7.3,4.7,2.5c-1.7-17.8-3.6,19.3-5.7,0.5c0,2.4-0.3-1.7-0.3,0.9c1.3,11,2.8,6.2,4.5,2.9c-1.8,7.9-3.7,2.5-5.7,0
		c0-2.3-0.4-0.9-0.4,0.9c1.2,0.8,2.6-4.8,4.2,3.3c-1.8,4.5-3.6,10.5-5.7-0.5c0,6-0.5,12.9-0.5,0.9c1.1,6.9,2.4,13.3,3.9,3.6
		c-1.8,8-3.6,0-5.6-1c0-0.2-0.6,4-0.6,0.8c1,0,2.2,15.8,3.6,4c-1.7-0.4-3.5-7.2-5.5-1.5c0-11.7-0.6-17.6-0.6,0.8
		c0.8-6.1,1.9-2,3.2,4.3c-1.7,7.2-3.5,3.7-5.3-1.9c0,2-0.7,6.4-0.7,0.7c0.7,2.6,1.6-12.8,2.8,4.5c-1.7-0.9-3.3-0.5-5.2-2.4
		c0,29.5-0.8,2.8-0.8,0.6c0.6,0.1,1.4,7.4,2.4,4.8c-1.6,17.6-3.2,15.1-4.9-2.8c0-5.1-0.8-12-0.8,0.6c0.4-17.4,1.1,12.2,2,4.9
		c-1.5,19.8-3-5.2-4.7-3.3c0,9.5-0.9-2.6-0.9,0.5c0.3-3.7,0.8,22.6,1.6,5.1c-1.4-19.5-2.8,6-4.4-3.6c0,8.5-0.9,1.6-0.9,0.4
		c0.1-4.9,0.5,10.8,1.1,5.2c-1.3-3.1-2.6-13.5-4-4c0-14.7-0.9-13.3-0.9,0.3c0,2.2,0.2-25.2,0.7,5.3c-1.2,8-2.4,2.4-3.7-4.4
		c0-26.6-1,6.2-1,0.3c-0.2,4.4-0.1,4.7,0.2,5.3c-1.1,7-2.2-1-3.3-4.7c0-0.6-1,11.7-1,0.2c-0.4,1.6-0.5,4-0.3,5.3
		c-1-5.5-1.9-13.9-2.8-4.9c0-2.5-1-1-1,0.1c-0.5,1.2-0.8,5.5-0.7,5.3c-0.9-3.7-1.6-10.6-2.4-5.1c0-10.4-1,4.1-1,0
		c-0.6,15.3-1.1,4.5-1.2,5.2c-0.7-4.3-1.3,5.8-2-5.3c0,5.3-1,12-1-0.1c-0.8-8.3-1.3,4-1.6,5.1c-0.6,5.3-1,9.8-1.5-5.5
		c0,5.4-1,10.9-1-0.2c-0.9,4.7-1.6,0.6-2.1,4.9c-0.4,4.3-0.7-2.2-1-5.6c0-1.2-1-3.9-1-0.3c-1.1,2.4-1.9-4.5-2.5,4.7
		c-0.3-4-0.4-10.3-0.5-5.7c0,3.2-0.9-3.9-0.9-0.3c-1.2,5-2.1-1.5-2.9,4.5c-0.1-14.5-0.1,2.9,0-5.7c0-7.3-0.9-0.8-0.9-0.4
		c-1.3-6.9-2.4,4.7-3.3,4.2c0-6.8,0.2,2.5,0.5-5.7c0,1.2-0.9-3.6-0.9-0.5c-1.4-8.7-2.6,4.6-3.6,3.9c0.2-3.2,0.6-6.9,1-5.6
		c0,5.5-0.8-6.9-0.8-0.6c-1.5,1.1-2.8,0.9-4,3.6c0.3-3.2,0.9-1.8,1.5-5.5C386.9,314.2,386.1,332.6,386.1,328.1z M350.5,222.2
		c0,21.7,0.5-5.3,0.5,1.6c0.5,18.8,1.2,9.5,2.1,6.2c0-2.4-0.9,8.2-0.9-0.8c0,8.1-2.2-13.1-2.2-2.2c0-11.4-1.1,7.9-1.1-1.1
		c-0.3-4.7-0.7,9.9-1-1.2c-0.6,4.8-1.2-0.8-1.8-2.6c-0.5-7-0.9-10.8-1.3-2.8c-0.2-4.1-0.4,13.7-0.6-1.5c-0.2,0.8-0.3-4-0.4-1.5
		c-0.2,2-0.4-12.1-0.5-3.1c-0.1-2.5-0.1,16-0.1-3.2c0,23.4,0.1,8.3,0.1-3.2c0.1-5.3,0.1,1.9,0.1-3.1c0-11.6-0.1-8.7-0.3-5.3
		c0.2,0.1,0.5-0.5,0.8,3c0-0.4,0.5-6.4,0.5,1.6c0.2,2.7,0.4,4.4,0.6,1.6c0.4,0.8,0.8,5.4,1.2,3.2c0.4-3.1,0.8-6.8,1.2,3.1
		c0.2,6.8,0.3,2.1,0.5,1.6c0.2-17.6,0.3,10.5,0.5,1.6c0.3,4.4,0.6,1.1,0.8,3.2c0.3-2.5,0.6-6.1,0.8,3.2
		C350.2,223.1,350.5,222.5,350.5,222.2z M343.1,223.5c0.4-18.9,0.8,6.7,1.1,3.2c0,7.3,0.5,9.6,0.5,1.6c0,12.1,0.6,3.5,0.6,1.6
		c0.7,1.9,1.5-11.5,2.6,6c0-5.2-1-18.1-1-0.7c0-4.2-2.4-11.9-2.4-2c0-0.1-1.2,17-1.2-1c-0.4,11.6-0.7-4.3-1.1-1.1
		c-0.7-0.3-1.4-2.1-2-2.4c-0.6,13.1-1.1,3.5-1.6-2.7c-0.2,10.6-0.5,29-0.7-1.4c-0.2,25.4-0.4-3.8-0.5-1.5c-0.3,18.8-0.6-4.6-0.8-3
		c-0.2-1-0.3-13.2-0.3-3.2c-0.1-12.9-0.1-15.5-0.1-3.2c0,0.9-0.1-10.5-0.2-3.1c-0.1,21.5-0.4-16.4-0.7-5.2c0.3,4.1,0.7,11.6,1.1,2.9
		c0,5.4,0.7,9,0.7,1.6c0.2,2.3,0.5,0.6,0.8,1.5c0.5,8.6,1,1.3,1.5,3c0.5,5.1,1,5,1.4,3c0.2,11.6,0.4,1.5,0.6,1.5
		c0.2-0.6,0.4-5.9,0.6,1.5C342.4,219.5,342.7,237.5,343.1,223.5z M334.5,224.2c0.3-3.1,0.5-8.7,0.7,1.5c0.3,13.5,0.5,16.1,0.8,1.5
		c0.5-6.5,0.9,14.5,1.4,3c0.5,8.4,1-6.4,1.4,3c0,28,0.6-6,0.6,1.6c0,8.7,0.8-14.6,0.8,1.5c0.8,15.7,1.9,1.2,3.1,5.7
		c0,6.9-1.1-1.4-1.1-0.6c0,10.5-2.5,2.8-2.5-1.8c0,4.6-1.3,12.8-1.3-0.9c-0.4,3-0.8-18-1.2-1c-0.8-9.7-1.5-19.6-2.2-2.2
		c-0.7,12.9-1.2,7.7-1.8-2.5c-0.3-11.9-0.6,0.8-0.8-1.3c-0.2,15.7-0.5-2.5-0.7-1.4c-0.4-7.8-0.8,8.1-1.1-3c-0.2,0.7-0.4-5-0.6-3.1
		c-0.2-6.6-0.3-3.8-0.4-3.1c-0.1,13.4-0.3-18-0.4-3.1c-0.3,4-0.7,4.3-1.2-5.2c0.4-3.4,0.9-4.9,1.4,2.8c0,1.9,0.8,5.4,0.8,1.5
		c0.3,0.8,0.6-5.7,0.9,1.5c0.6-11.8,1.2,1.7,1.7,2.9C333.5,228.8,334,214.1,334.5,224.2z M327,228.9c0.7,5.4,1.3-8.3,1.9,2.7
		c0.3,22.3,0.6-8.6,0.9,1.4c0.3-7.9,0.6-11.7,0.9,1.4c0.6,11.9,1.1-10,1.6,2.9c0.6-15.7,1.1-10.7,1.6,2.9c0,10.6,0.8,4.4,0.8,1.5
		c0,11.9,0.9-6.6,0.9,1.5c0.5-6,1.1-8.9,1.7-13.1c0.6,2.2,1.3,4.6,2,18.6c0,14.6-1.1,5-1.1-0.6c0,8.7-2.7,11.4-2.7-1.5
		c0,18.7-1.3,6.3-1.3-0.8c-0.4,2.8-0.8,3.2-1.3-0.9c-0.8,10.8-1.6,2.2-2.4-2c-0.7-35.7-1.4,0.7-2-2.4c-0.3,11.6-0.6-18.7-0.9-1.3
		c-0.3-17.3-0.5,0.9-0.8-1.4c-0.5,2.3-0.9,5.2-1.3-2.9c-0.3-11.6-0.6,2.5-0.9-3.1c-0.3,3.9-0.5-3.9-0.7-3.1c-0.2,23.6-0.5-4.2-0.7-3
		c-0.4-2.5-1-6-1.6-5c0.5,10.5,1-19.9,1.6,2.7c0-6.2,0.9,10.1,0.9,1.4c0.3-0.9,0.7-8.4,1,1.4C325.7,238.6,326.4,222.1,327,228.9z
		 M321.9,237c0.8,10.1,1.5,10,2.2,2.5c0.3,0.8,0.6-0.8,1,1.3c0.3,16.7,0.7,8.7,1,1.3c0.7,7.4,1.3,2.1,1.9,2.7
		c0.7,25,1.3,6.6,1.9,2.8c0,10.8,0.9,0.8,0.9,1.4c0,8.8,1-6,1,1.4c1.2,7.6,2.5,12.6,4.1,5.1c0-2.5-1.2,4.2-1.2-0.5
		c0,5.2-2.8-3.7-2.8-1.3c0-16-1.4,0.7-1.4-0.7c-0.5,4.8-0.9-3.4-1.3-0.8c-0.9,11.1-1.7,0.7-2.6-1.8c-0.8-1.3-1.5-4-2.2-2.2
		c-0.4,6-0.7-12.3-1-1.2c-0.3,1.5-0.6,3.4-0.9-1.3c-0.6-5.3-1.1,10.4-1.6-2.7c-0.4-10.8-0.8-3.3-1.1-3c-0.4-11.7-0.7-27.4-1-3
		c-0.3,14.4-0.7-12.5-1-3c-0.6-15-1.3,6.9-2.1-4.9c0.5-2.5,1.2,11.6,1.8,2.5c0-11.7,1.1,20.1,1.1,1.3c0.4-28.7,0.8,16.4,1.1,1.3
		C320.4,219.7,321.1,235.4,321.9,237z M315,243.2c0.8,0.6,1.7,20.4,2.4,2.4c0.8-17.2,1.6-20.3,2.4,2.3c0.4-2.6,0.7,10.4,1.1,1.2
		c0.4,16.1,0.7,7.2,1.1,1.2c0.7-9.8,1.4,1.4,2.1,2.6c0.7,8,1.4-14.1,2.1,2.6c0-5.3,1-9.6,1,1.4c0,22.4,1.1-12,1.1,1.3
		c1.3,0.5,2.8,20.2,4.5,4.7c0,9.1-1.2-5.4-1.2-0.4c0-15.4-2.9,6.7-2.9-1.1c0-7.3-1.5-1.9-1.5-0.6c-0.5,4.3-0.9-4.2-1.4-0.7
		c-0.9,4.2-1.8-7.3-2.7-1.6c-0.8,0.3-1.6-9.2-2.4-2c-0.4-12.4-0.8-11.9-1.1-1.1c-0.4-11.1-0.7-15.1-1-1.2c-0.6,8.2-1.2,3.3-1.8-2.6
		c-0.5-6.9-1-0.6-1.4-2.9c-0.5,7.8-0.8,6.9-1.2-2.9c-0.4-1-0.8-1.3-1.2-2.9c-0.7,6.2-1.6-6.1-2.5-4.7c0.6-4.3,1.3-2.3,2.1,2.4
		c0-5.8,1.2,19.4,1.2,1.2C314.1,238.3,314.6,244.3,315,243.2z M309.8,251.2c0.4-0.4,0.9-10.3,1.4,1.1c0.9-5.4,1.8,14.5,2.6,2.1
		c0.9,2.6,1.8,9.3,2.6,2.1c0.4,7.8,0.8,2.5,1.2,1.1c0.4,3.7,0.8,2.1,1.2,1.1c0.8-9.8,1.5-11.2,2.3,2.4c0.8-6.6,1.6-5.3,2.3,2.4
		c0-21,1.1,14.1,1.1,1.3c0-7.9,1.2,21.8,1.2,1.2c1.5-5.3,3.1,12.5,4.9,4.3c0-0.1-1.2,0.4-1.2-0.2c0,3.4-3,2.4-3-0.8
		c0,3.9-1.5-3.4-1.5-0.4c-0.5,4.6-1,4.5-1.4-0.6c-1,13.7-1.9,11.4-2.8-1.3c-0.9-1.7-1.7-2.3-2.6-1.8c-0.4,0.4-0.8,0.2-1.2-1
		c-0.4-8.5-0.7,7.5-1.1-1.1c-0.7,1.6-1.4-6.8-2-2.4c-0.6-3-1.1-0.3-1.6-2.7c-0.5-19.6-1-11.4-1.5-2.8c-0.5-10.6-1,2.4-1.5-2.7
		c-0.9-25.9-1.9,0.7-2.9-4.5c0.7,13.3,1.5,4.5,2.3,2.2C308.5,249.7,309.8,271.3,309.8,251.2z M300.7,289.7c0-2,1.6,10.4,1.6,0.6
		c0.5,2.7,1.1-4.1,1.6,0.5c1.1,9,2.2-4.1,3.2,1.1c1.1-3.2,2.1,2.4,3.1,1.1c0.5-4.9,1-12.2,1.5,0.7c0.5-4.2,1,8.6,1.5,0.6
		c1-1.4,2-16,3,1.4c1,1.4,2,9.3,3,1.4c0-1.6,1.5,12.6,1.5,0.8c0-2.6,1.6-17.3,1.6,0.7c1.9,0.6,3.9,6.9,6.1,2.4
		c0,6.3-1.2,4.8-1.2,0.2c0-8.7-3.1,2-3.1,0.3c0-0.5-1.6,2.8-1.6,0.1c-0.5-5.6-1,14-1.6,0c-1,5.1-2.1,3.2-3.1-0.3
		c-1-2.5-2,13.1-3-0.8c-0.5-3.2-1-13.6-1.5-0.5c-0.5,0.3-1,2.2-1.4-0.7c-0.9-11.4-1.8,0.9-2.7-1.6c-0.9-19.7-1.7,9.1-2.5-2
		c-0.8,7-1.6,0.9-2.3-2.1c-0.8,13.2-1.6-13.2-2.3-2.1c-1.4-19.5-2.8-12-4.3-3.2C298.7,289.9,299.7,296.6,300.7,289.7z M298.6,278
		c0.9,1,1.8-3.5,2.8,1.6c0,0.9,1.5-3.2,1.5,0.8c0.5-4.9,1.1-1.5,1.6,0.7c1.1,9.7,2.1,8.2,3.1,1.4c1-11.1,2.1-14.1,3,1.4
		c0.5,7.1,1-13.7,1.4,0.8c0.5,0.6,1-10.8,1.5,0.8c1-5.4,1.9,1.6,2.8,1.7c1-3.9,1.9,12.6,2.9,1.7c0-7.6,1.4,5.3,1.4,0.9
		c0-16.8,1.5,5.8,1.5,0.8c1.8-4.3,3.8-9.9,5.8,2.9c0-2.1-1.2,13.1-1.2,0.1c0,7.2-3.1,10.8-3.1,0c0-5.5-1.6-17.7-1.6,0
		c-0.5,3.7-1,0-1.6-0.2c-1-31.2-2.1-12.4-3.1-0.6c-1-0.7-2-0.1-2.9-1c-0.5-7.6-1-9.9-1.4-0.6c-0.5-20-0.9-1.9-1.4-0.8
		c-0.9,1.1-1.7-19.7-2.6-1.8c-0.8-16.6-1.6,11.6-2.3-2.2c-0.8-12.9-1.5-6.7-2.1-2.3c-0.7-4.5-1.4,11.8-2.1-2.3
		C301.3,282.8,300,294.9,298.6,278z M300.9,299.9c0,17.2,1.6-5.8,1.6,0.5c0.5,12.3,1.1-5.2,1.7,0.4c1.1,5.5,2.2-8.6,3.3,0.8
		c1.1-5.6,2.2,1.2,3.2,0.9c0.5-11.8,1-4.5,1.6,0.5c0.5,9.7,1.1,7.9,1.6,0.5c1-18.5,2.1,0.5,3.1,1.2c1,3.4,2.1,13.2,3.1,1.2
		c0,15.7,1.6,5.7,1.6,0.7c0-21.3,1.6,4.5,1.6,0.6c2-8.9,4.1,8.4,6.3,1.8c0-8.2-1.2-9.3-1.2,0.3c0-10.3-3,13.9-3,0.5
		c0,2.8-1.5,10.6-1.5,0.3c-0.5,4.5-1-7-1.6,0.1c-1,2.3-2.1,20.8-3.1,0c-1-6.1-2.1-11.6-3.1-0.5c-0.5,4.9-1,4.7-1.5-0.4
		c-0.5,1.7-1,13.2-1.5-0.5c-1-9.8-1.9,10.7-2.8-1.3c-0.9,13.6-1.8-14.3-2.6-1.8c-0.9,2.5-1.7,2.2-2.5-1.9c-0.8-10.4-1.7,8.8-2.5-1.9
		c-1.5-10.5-3-7.6-4.5-2.8C298.9,288.6,299.9,297.1,300.9,299.9z M302.1,310c0-6.7,1.7,0.1,1.7,0.3c0.6,10.4,1.1,18.6,1.7,0.3
		c1.1-10.7,2.3-13.2,3.3,0.5c1.1,5.7,2.2,0.2,3.3,0.6c0.5-10.9,1.1-30.8,1.6,0.4c0.5-0.8,1.1,3.7,1.6,0.4c1.1,17.2,2.1,6.3,3.2,0.9
		c1.1-0.7,2.1,4.2,3.2,0.9c0-14.4,1.6,11,1.6,0.5c0,8.6,1.7,11.8,1.7,0.4c2.1,15.2,4.2,10,6.4,1.3c0-3.3-1.2-2-1.2,0.4
		c0-11.9-3-6.1-3,0.8c0-5.2-1.5-6.4-1.5,0.4c-0.5-22.5-1-4-1.5,0.2c-1,6.6-2.1-5.1-3.1,0.3c-1,9.3-2.1-1.3-3.1-0.2
		c-0.5,15.8-1-10.5-1.5-0.2c-0.5-1.2-1-8.9-1.5-0.4c-1,2.5-2,10-3-1.1c-1,0.7-1.9-10.8-2.8-1.5c-0.9,13.1-1.8-13.9-2.7-1.7
		c-0.9-13.1-1.8,25-2.6-1.6c-1.5-7.5-3.1,4.1-4.8-2.4C300,297.9,301,321.7,302.1,310z M304.1,319.9c0,17.3,1.7,3.1,1.7,0.2
		c0.6,4.8,1.1,19.1,1.7,0.1c1.1,0,2.3-11.3,3.4,0.2c1.1-13.2,2.2,16.1,3.3,0.3c0.5-9.6,1.1,19.4,1.6,0.2c0.5,14.8,1.1-7.4,1.6,0.2
		c1.1,15.7,2.2-10,3.2,0.6c1.1,14.4,2.2,10.8,3.3,0.6c0-6.5,1.7-6.8,1.7,0.4c0,0.5,1.7,9.7,1.7,0.3c2.1-2,4.3-20.5,6.5,0.7
		c0,1.8-1.1,5.5-1.1,0.5c0,1.2-2.9,7.5-2.9,1.1c0-5.7-1.5-1.6-1.5,0.5c-0.5,0.6-1-2.6-1.5,0.4c-1-5.5-2.1,9-3.1,0.5
		c-1-12.2-2.1,3.5-3.1,0c-0.5,2.5-1,5.4-1.6-0.1c-0.5-16.9-1-1.7-1.5-0.3c-1-2.8-2-9.5-3-0.8c-1-6.6-2,13.1-2.9-1.3
		c-1,3.4-1.9,15.2-2.8-1.5c-0.9,16.5-1.9-6.4-2.8-1.4c-1.6-12-3.2-18.9-4.9-2C302,329.8,303,327.5,304.1,319.9z M306.9,329.7
		c0-4.5,1.7,9,1.7,0c0.6,10.1,1.2-2.6,1.7,0c1.1,10.3,2.3,10.5,3.4-0.1c1.1,4.3,2.2-3.6,3.3,0c0.6-11.6,1.1-19.6,1.6,0.1
		c0.5-4.2,1.1,9,1.6,0.1c1.1,13.1,2.2,1.1,3.3,0.3c1.1,6.4,2.2,3.2,3.3,0.3c0,7,1.7,5.7,1.7,0.2c0-4.2,1.7,6.5,1.7,0.1
		c2.1-15.2,4.3,0.5,6.5,0.1c0-8.3-1.1-2.4-1.1,0.6c0,7-2.8-5.7-2.8,1.3c0-4.8-1.4-0.7-1.4,0.6c-0.5,1.1-1,2.2-1.5,0.5
		c-1-13.5-2-3.5-3,0.8c-1-2.3-2.1-1.5-3.1,0.3c-0.5,8.8-1,3.1-1.6,0.1c-0.5,8.6-1-20.8-1.6-0.1c-1,5.6-2.1,7.7-3.1-0.6
		c-1-12-2,8.2-3-1c-1,7.3-2-6.7-2.9-1.2c-1-7-1.9,8.4-2.9-1.2c-1.7,10.2-3.3,8.2-5.1-1.5C304.8,318.2,305.9,323.8,306.9,329.7z
		 M533.5,294.3c0-15.7-1.6,7.2-1.6-0.6c-0.5,12.6-1.1-11.5-1.6-0.5c-1.1,7-2.2,7.4-3.2-1.1c-1.1-2-2.1-20.7-3.1-1.1
		c-0.5-7-1-2.4-1.5-0.7c-0.5,28.9-1,8.2-1.5-0.6c-1,2.3-2-3.2-3-1.4c-1,9.5-2,3.2-3-1.4c0-6.9-1.5,2-1.5-0.8c0,1.9-1.6-1-1.6-0.7
		c-1.9,8.4-3.9-2.6-6.1-2.4c0,1.5,1.2,7.2,1.2-0.2c0,4.2,3.1-8.5,3.1-0.3c0-6.1,1.6-6.9,1.6-0.1c0.5-6.6,1-16.3,1.6,0
		c1-10.3,2.1,2.6,3.1,0.3c1,19.1,2,19.5,3,0.8c0.5,11.4,1,2.3,1.5,0.5c0.5-5.6,1-3.3,1.4,0.7c0.9-0.9,1.8,15.5,2.7,1.6
		c0.9-6.7,1.7-0.5,2.5,2c0.8,8.7,1.6,2.5,2.3,2.1c0.8-1.9,1.6,0.5,2.3,2.1c1.4-6.7,2.8-13.2,4.3,3.2
		C535.4,304.9,534.4,277.5,533.5,294.3z M535.6,306c-0.9,6.6-1.8,0.8-2.8-1.6c0,13.1-1.5,2.5-1.5-0.8c-0.5,4-1.1,18.2-1.6-0.7
		c-1.1,8.7-2.1,3.3-3.1-1.4c-1-11.9-2.1,15.3-3-1.4c-0.5,9.8-1,6.6-1.4-0.8c-0.5-4.1-1-11-1.5-0.8c-1,26.2-1.9-6.8-2.8-1.7
		c-1,9.9-1.9,4.8-2.9-1.7c0,0.3-1.4-5-1.4-0.9c0-24.1-1.5,2.1-1.5-0.8c-1.8-1.4-3.8,3.5-5.8-2.9c0-20.5,1.2-4.6,1.2-0.1
		c0,11.1,3.1,5.2,3.1,0c0,6.4,1.6-4.5,1.6,0c0.5-7.8,1,24,1.6,0.2c1,13,2.1,25.5,3.1,0.6c1,5.7,2-1.3,2.9,1c0.5-1.3,1,2,1.4,0.6
		c0.5,7.7,0.9,2.8,1.4,0.8c0.9,0.7,1.7-2.6,2.6,1.8c0.8-11.9,1.6,2.2,2.3,2.2c0.8,24.3,1.5-17.2,2.1,2.3c0.7-16,1.4-16.5,2.1,2.3
		C532.9,301.1,534.2,300.8,535.6,306z M533.2,284.1c0,6.1-1.6,3.4-1.6-0.5c-0.6,13.4-1.1,17-1.7-0.4c-1.1,0.4-2.2-0.6-3.3-0.8
		c-1.1,14.3-2.2,31.1-3.2-0.9c-0.5-7.9-1-2.1-1.6-0.5c-0.5-6.8-1-5.6-1.6-0.5c-1,0.1-2.1-9.7-3.1-1.2c-1,4.9-2.1,3-3.1-1.2
		c0,14.9-1.6,1.7-1.6-0.7c0-15.4-1.6-8.1-1.6-0.6c-2-0.5-4.1,4.4-6.3-1.8c0,0.9,1.2-6.5,1.2-0.3c0,8.1,3-14.5,3-0.5
		c0,16.8,1.6-0.2,1.6-0.3c0.5-18.5,1,17.4,1.6-0.1c1-16.8,2.1-4.5,3.1,0c1,10.7,2.1-10.6,3.1,0.5c0.5-9.9,1-21.6,1.5,0.4
		c0.5,5.3,1-22.9,1.5,0.5c1,6.8,1.9,7.3,2.8,1.3c0.9-6.9,1.8,18.5,2.6,1.8c0.9,5.2,1.7,6.1,2.5,1.9c0.8,12.6,1.7,9.7,2.5,1.9
		c1.5,5.1,3,5.9,4.5,2.8C535.3,278,534.2,278.3,533.2,284.1z M532.1,274c0-4.5-1.7,10.8-1.7-0.3c-0.6,10.2-1.1,9.5-1.7-0.3
		c-1.1-2.6-2.3-11.9-3.3-0.5c-1.1,0.1-2.2,23.5-3.3-0.6c-0.5,6.3-1.1-23.8-1.6-0.4c-0.5-7.2-1.1,8.5-1.6-0.4c-1.1,5-2.1-4.7-3.2-0.9
		c-1.1,5-2.1,15.7-3.2-0.9c0,2.6-1.6,0.7-1.6-0.5c0,23.6-1.7,5.8-1.7-0.4c-2.1-9.9-4.2-6.9-6.4-1.3c0-2.8,1.2-5.2,1.2-0.4
		c0,18.3,3-11.7,3-0.8c0-15.5,1.5-9,1.5-0.4c0.5-3.4,1,16.8,1.5-0.2c1-5.6,2.1,1.2,3.1-0.3c1,5.5,2.1-11.1,3.1,0.2
		c0.5-7.7,1-12.5,1.5,0.2c0.5,1,1-9.9,1.5,0.4c1-21.6,2,2.8,3,1.1c1-17.4,1.9-11.2,2.8,1.5c0.9-0.2,1.8,11.9,2.7,1.7
		c0.4,6.2,0.9,23,1.3,15.9c0.4-8.4,0.9-2.8,1.3-14.3c1.5-7.1,3.1,30.7,4.8,2.4C534.2,279.8,533.1,275.9,532.1,274z M530.1,264.1
		c0,6.9-1.7,1.4-1.7-0.2c-0.6-5.8-1.1-15.4-1.7-0.1c-1.1,10.7-2.3,4.4-3.4-0.2c-1.1,4.5-2.2-2-3.3-0.3c-0.5-18.5-1.1-10.6-1.6-0.2
		c-0.5,1.8-1.1,5.2-1.6-0.2c-1.1-8.2-2.2-10.6-3.2-0.6c-1.1,12.1-2.2,4.2-3.3-0.6c0-7.9-1.7,13.9-1.7-0.4c0-21-1.7,0.8-1.7-0.3
		c-2.1,28.5-4.3-10.5-6.5-0.7c0-5.2,1.1-1.8,1.1-0.5c0,13.5,2.9,3.2,2.9-1.1c0-17,1.5-2,1.5-0.5c0.5,0.5,1-9.7,1.5-0.4
		c1,17.8,2.1-5.7,3.1-0.5c1-8.6,2.1-5.1,3.1,0c0.5-4.2,1-9,1.6,0.1c0.5-1.9,1-5.8,1.5,0.3c1-10.1,2-9.4,3,0.8c1-8.6,2-14,2.9,1.3
		c1-24.2,1.9,3.2,2.8,1.5c0.9,1,1.9,11.6,2.8,1.4c1.6,2.7,3.2-12,4.9,2C532.2,273.8,531.1,254,530.1,264.1z M527.2,254.3
		c0,3.2-1.7-6.4-1.7,0c-0.6,14.9-1.2,5.5-1.7,0c-1.1-6.4-2.3,21.3-3.4,0.1c-1.1,9.7-2.2-2.3-3.3,0c-0.6-8.5-1.1-0.8-1.6-0.1
		c-0.5-14.1-1.1-2.3-1.6-0.1c-1.1-9.3-2.2-8.2-3.3-0.3c-1.1,2.8-2.2,6-3.3-0.3c0,6.4-1.7,9.2-1.7-0.2c0-22.7-1.7,5.3-1.7-0.1
		c-2.1-7.2-4.3,15.7-6.5-0.1c0,3.1,1.1,17.1,1.1-0.6c0-12.8,2.8-11.5,2.8-1.3c0,7,1.4,1.5,1.4-0.6c0.5-35,1-12.2,1.5-0.5
		c1-2.3,2,0.8,3-0.8c1-2.6,2.1-4.6,3.1-0.3c0.5-2.8,1,4,1.6-0.1c0.5-4.8,1,0.7,1.6,0.1c1-9.3,2.1,0.2,3.1,0.6c1,14.5,2-1.7,3,1
		c1,6.4,2,1.4,2.9,1.2c1-4.8,1.9,9.9,2.9,1.2c1.7-7.8,3.3-0.1,5.1,1.5C529.3,247.4,528.3,258.1,527.2,254.3z M516.8,226.5
		c-1,14-2-14.5-3.1,0.6c0-5.3-1.7-12.5-1.7,0.4c-0.6,1.4-1.1,2.2-1.7,0.5c-1.1-10-2.2,17.3-3.3,0.9c-1.1-7-2.1-10.7-3.2,0.9
		c-0.5,8.9-1.1-6.1-1.6,0.3c-0.5,0.5-1.1-3.5-1.6,0.3c-1.1,6.2-2.2,12.7-3.3,0.5c-1.1-7.5-2.2,5.9-3.3,0.6c0,6.6-1.7,7.9-1.7,0.2
		c0,10.8-1.7,15.3-1.7,0.3c-2.1-11.9-4.3-12.4-6.3,1.5c0-2.4,0.9-1.3,0.9-0.9c0-4.2,2.4-12.7,2.4-2c0,10.2,1.2-0.7,1.2-1
		c0.4,3.7,0.9-5.9,1.3-0.9c0.9-14.2,1.8-2.4,2.7-1.6c1,6.6,1.9,7.6,2.9-1.1c0.5,17.6,1-12.4,1.5-0.5c0.5,9.4,1,10.5,1.5-0.3
		c1,10.1,2.1-9.5,3.1-0.3c1.1-2,2.1-0.2,3.2,0.2c1.1-9.1,2.1-10,3.1,0.4c1,13,2.1-1.9,3.1,0.4C513.3,221.1,515,239.6,516.8,226.5z
		 M507.7,218.9c0,7-1.6,1.8-1.6,0.5c-0.5-7.7-1.1-12.4-1.6,0.6c-1.1,1.3-2.1,7-3.2,1.2c-1,8.7-2.1,2.3-3.1,1.2
		c-0.5-1.6-1.1-5.3-1.6,0.5c-0.5,12.5-1,9.2-1.6,0.5c-1,6.5-2.1,11-3.2,0.8c-1.1-3.5-2.1,5.2-3.2,0.8c0-17.9-1.7,25.5-1.7,0.4
		c0-7.4-1.6,1.5-1.6,0.5c-2.1,7.4-4.2,6.8-6.2,2.1c0,9.8,0.8,2.1,0.8-0.9c0,4.5,2.2,9,2.2-2.2c0,6.3,1.1,21.6,1.1-1.1
		c0.4,1.4,0.8-21.2,1.2-1c0.8,21.5,1.7,13.6,2.6-1.8c0.9-16.1,1.9,2.4,2.8-1.3c0.5-11.8,1,17,1.5-0.6c0.5-26.2,1-3.7,1.5-0.4
		c1,11.2,2.1,15.8,3.1-0.5c1.1,13.5,2.1-3.5,3.2-0.1c1.1-6.2,2.1-1.7,3.2,0.1c1.1,14.6,2.1-6.9,3.1,0.1c1.8,2,3.5,0,5.3-0.3
		C509.7,215.5,508.7,217,507.7,218.9z M501,211.3c0,4.3-1.6-11.3-1.6,0.7c-0.5-6.5-1,4.9-1.5,0.8c-1-10.6-2-7.6-3,1.5
		c-1-9.4-2-3.4-3,1.4c-0.5-18.6-1,32.7-1.5,0.6c-0.5,16.5-1,18.1-1.5,0.6c-1,15.8-2.1-6-3.1,1.1c-1,1.8-2.1-8-3.2,1.1
		c0-11.8-1.6,6.1-1.6,0.5c0-15.8-1.6,10.4-1.6,0.6c-2.1,8.7-4.1-3.5-6,2.6c0-18,0.7-13.5,0.7-1c0-6.7,2,0.4,2-2.4
		c0,10.4,1,1.7,1-1.2c0.4-9.2,0.8-5.5,1.1-1.1c0.8-5.5,1.6-3.6,2.4-2c0.9-24.9,1.8-14.2,2.7-1.6c0.5,7.2,0.9-8.1,1.4-0.7
		c0.5,11.3,1-2.9,1.5-0.5c1,2.2,2-4.6,3-0.8c1.1,5,2.1,1.5,3.2-0.3c1,6.1,2.1,6.9,3.2-0.1c1.1,3.2,2.1,1.5,3.1-0.2
		c1.8,4.3,3.5-4.3,5.2-0.7C502.9,208.6,501.9,219,501,211.3z M493.6,204.3c0,3.9-1.5-12.8-1.5,0.8c-0.5,13.8-1-10.4-1.5,0.9
		c-1,2.2-1.9-2.2-2.9,1.7c-0.9,4.3-1.9-12.5-2.9,1.7c-0.5,11.3-1-14.8-1.5,0.7c-0.5,0-1,0.4-1.5,0.8c-1,2.1-2-7.4-3,1.4
		c-1,5-2-2.6-3,1.4c0-11.8-1.6-12.1-1.6,0.6c0-5.2-1.5,0.7-1.5,0.8c-2,3.6-3.9,10.4-5.7,3.1c0-10.3,0.6,2.7,0.6-1.1
		c0-2.9,1.8-5.4,1.8-2.5c0,12,0.9-3,0.9-1.3c0.3-4.4,0.7-8.1,1-1.2c0.7-19.3,1.5,11,2.2-2.2c0.8-10.1,1.7-11.1,2.5-1.8
		c0.4-3.3,0.9,12.1,1.3-0.8c0.5-6.2,0.9-20.4,1.4-0.7c1,20.3,2,7.9,3-1.1c1,16.1,2.1,6.8,3.1-0.6c1-8.2,2.1-11.6,3.1-0.4
		c1.1,5.3,2.1-12.4,3.1-0.4c1.8,4.7,3.5-8.3,5.2-1.2C495.5,194.2,494.6,194.2,493.6,204.3z M485.7,198c0-1-1.4,12.2-1.4,0.9
		c-0.5,19.6-0.9-11.2-1.4,1c-0.9-2.4-1.8-9.6-2.7,2c-0.9-2.9-1.8,13.6-2.7,1.9c-0.5,6-0.9,6.9-1.4,0.9c-0.5-4.1-0.9-14.2-1.4,0.9
		c-0.9,2.2-1.9-3.7-2.9,1.6c-0.9,4.5-1.9,9.8-2.9,1.6c0,6.3-1.5,3.7-1.5,0.8c0,15.7-1.5-0.9-1.5,0.9c-1.9-7.2-3.7-5.2-5.4,3.6
		c0,7.8,0.1,25.5,0.3,14.3c0.1-21.6,0.3-3,0.3-15.4c0,9.2,1.5,9.6,1.5-2.7c0-23.2,0.8,23.1,0.8-1.3c0.3-8.9,0.6-3.8,0.9-1.3
		c0.6,10.6,1.3-14.5,2-2.4c0.7-13.6,1.6,4.7,2.4-2c0.4-5,0.8,2.1,1.3-0.9c0.4,6.1,0.9,7.8,1.4-0.8c0.9-0.1,1.9-8.9,2.9-1.3
		c1,7.6,2-4.3,3.1-0.9c1-11.4,2.1-11.6,3.1-0.7c1,13.1,2-9.6,3-0.7c1.7-20.9,3.4,5,5-1.6C487.5,206.1,486.6,192.2,485.7,198z
		 M477.2,192.4c0-1.3-1.3-4.7-1.3,1.1c-0.4,5.5-0.9,0-1.3,1.1c-0.8-6.7-1.7,4.2-2.6,2.2c-0.8-2.7-1.7-8.2-2.5,2.2
		c-0.4,2-0.9,1.1-1.3,1c-0.4-19-0.9-22.6-1.3,1c-0.9,17.5-1.8,9.7-2.7,1.9c-0.9-4.2-1.8-1.6-2.8,1.9c0-0.9-1.4,3.8-1.4,0.9
		c0,0.1-1.4-6.6-1.4,1c-1.8,6.9-3.5-13.6-5.1,4.1c0-6.2,0.5-0.6,0.5-1.2c0-6.2,1.3-0.7,1.3-2.8c0,1,0.7,0.5,0.7-1.4
		c0.2-7.6,0.5-6.2,0.8-1.3c0.6-17.1,1.2,16.9,1.8-2.6c0.7-20.1,1.4-10.1,2.2-2.2c0.4-8.8,0.8-13.5,1.2-1c0.4,0.5,0.9,5.6,1.3-0.9
		c0.9,13,1.8,3.8,2.7-1.6c1,20.2,2-3.6,3-1.1c1,5,2,1.4,3-1c1,9.7,2-10.3,3-1c1.7,6.3,3.3-2.5,4.9-2.1
		C478.9,184.5,478.1,192.4,477.2,192.4z M466.3,177.3c0-4,0-11.2,0,0.3c-0.6,1.3-1.1,1.1-1.7,0.9c0.3,10.1,0.5,6,0.8-0.6
		C465.8,183.2,466.1,163.4,466.3,177.3z M459,183.4c0-19.9-1.1,0-1.1,1.3c-0.4,10.5-0.7-10.8-1.1,1.3c-0.7-3.7-1.4-2.9-2.1,2.6
		c-0.7-8.1-1.4,0.5-2.1,2.6c-0.4,6.3-0.8-0.8-1.1,1.2c-0.4,6.7-0.7,4.8-1.1,1.2c-0.7,10.9-1.6,2-2.4,2.3c-0.8-10.2-1.6-6.6-2.4,2.3
		c0-2.2-1.3-4.8-1.3,1.1c0,13.6-1.2,14-1.2,1.2c-1.6,4.6-3,9.5-4.3,4.9c0-9.1,0.2,3.3,0.2-1.2c0,10.7,0.8-4.6,0.8-3
		c0,0.5,0.4-15.3,0.4-1.5c0.2-9.6,0.4,8.6,0.6-1.5c0.4,3,0.9,13,1.3-2.8c0.5,8,1.1,17.4,1.8-2.6c0.3,6,0.6-14,1-1.2
		c0.3,3.1,0.7-6.4,1.1-1.1c0.8,4.5,1.6-6.3,2.4-2c0.9-4.1,1.8-9.8,2.7-1.6c0.9,5.9,1.9,3.2,2.8-1.5c1,0.2,1.8,0.4,2.7-1.5
		c1.6-16,3.1,12.9,4.5-2.9C460.5,158.9,459.7,170.3,459,183.4z M449.4,180.2c0-2.3-1,13.9-1,1.4c-0.3-3.2-0.6,2.6-0.9,1.4
		c-0.6-14.4-1.2-14.2-1.9,2.8c-0.6,9.6-1.2,4.3-1.9,2.7c-0.3-10.5-0.7,2.3-1,1.3c-0.3-5.6-0.7-19-1,1.3c-0.7-2.9-1.4-0.8-2.2,2.5
		c-0.7,0.5-1.4,7.8-2.2,2.5c0,11.9-1.2,10.1-1.2,1.2c0-8.7-1.1,15.8-1.1,1.3c-1.4,5.1-2.7,9.9-3.9,5.3c0-13.8,0.1,6.9,0.1-1.2
		c0,14.4,0.5-10,0.5-3c0,1.9,0.3,2.3,0.3-1.5c0.1,4.1,0.3,4.1,0.4-1.5c0.3,6.2,0.7,22.7,1.1-2.9c0.5,1.1,1,11,1.5-2.7
		c0.3-15.6,0.6-7.1,0.9-1.3c0.3,16.7,0.7-14.5,1-1.2c0.7,5.8,1.5-11.9,2.2-2.2c0.8-1.1,1.7-18.6,2.6-1.9c0.9,5.7,1.8-7.4,2.7-1.7
		c0.9-12.8,1.7,13.2,2.6-1.7c1.5,8.8,2.9,4.4,4.2-3.3C450.7,179.5,450,163.3,449.4,180.2z M439.5,177.8c0,10.9-0.9,1.3-0.9,1.5
		c-0.3-2.6-0.5-4.4-0.8,1.5c-0.5,9.7-1.1-12.5-1.6,3c-0.5-6.5-1.1-1.5-1.7,2.9c-0.3,0.6-0.6-9.3-0.9,1.4c-0.3,2.8-0.6-4.9-0.9,1.4
		c-0.6,13.7-1.3,1.4-1.9,2.7c-0.6,7.9-1.3,2.9-1.9,2.7c0,7.4-1-16.2-1,1.3c0,1-1,4.5-1,1.4c-1.3,0-2.4,5.8-3.4,5.6
		c0-1.2,0-3.7,0-1.2c0-11.7,0.3-7.2,0.3-3.1c0-7.9,0.2-4.8,0.2-1.6c0.1-4.5,0.2-1.6,0.3-1.5c0.2-12,0.5-15.3,0.8-3
		c0.4,1.3,0.8,2.7,1.3-2.8c0.2,11.5,0.5,14.6,0.7-1.4c0.3-5.1,0.6,0.2,0.9-1.3c0.6-7.4,1.3-17.3,2-2.4c0.8,9.7,1.6-14.8,2.4-2.1
		c0.8-20.5,1.7-9.2,2.5-1.9c0.9-1.5,1.6,8.4,2.4-1.9c1.4,7.8,2.7,12.7,3.9-3.7C440.7,179.1,440.1,183.1,439.5,177.8z M429.5,176.3
		c0-4.9-0.8,12.6-0.8,1.5c-0.2,9.7-0.5-7.8-0.7,1.6c-0.4-25.5-0.9-8.1-1.4,3.1c-0.4-5.7-0.9-9.2-1.4,3c-0.2-5.2-0.5-2.9-0.8,1.4
		c-0.2,6.4-0.5-22.6-0.8,1.5c-0.5,5.1-1.1-8.2-1.7,2.8c-0.5-3.8-1.1-5.9-1.7,2.9c0,20.9-0.9,6.8-0.9,1.4c0-2.4-0.8-14.6-0.8,1.5
		c-1.1-7.8-2.1-0.2-2.9,5.8c0-7.3-0.1-17.1-0.1-1.2c0,10.2,0,9.4,0-3.1c0-1.7,0,0.8,0-1.6c0,1.4,0.1,1.1,0.2-1.6
		c0.1-3.3,0.3-5,0.6-3.1c0.3,0.1,0.7-11,1-2.9c0.2,17.1,0.4,16.5,0.6-1.4c0.2-0.1,0.5,0.8,0.8-1.4c0.6,0.5,1.2-22,1.8-2.6
		c0.7,4.2,1.5-12.5,2.2-2.3c0.7-4.5,1.5,5.8,2.3-2.1c0.8,4.8,1.5-9.9,2.3-2.1c1.3,11.6,2.5,1.6,3.6-4
		C430.5,194.5,430,174.3,429.5,176.3z M419.4,175.6c0-11.9-0.6-1.1-0.6,1.6c-0.2-3.6-0.4,3.4-0.5,1.6c-0.3,2.7-0.7-7.7-1.1,3.2
		c-0.3-7.8-0.7,3.3-1.1,3.1c-0.2,1.3-0.4-0.5-0.7,1.5c-0.2,7.3-0.4-8.2-0.6,1.5c-0.4,1.7-0.9,2.3-1.4,3c-0.4,7.5-0.9-7.8-1.4,3
		c0,1.6-0.8,4.6-0.8,1.5c0,11.3-0.7-11.2-0.7,1.6c-1,22.5-1.8-0.5-2.4,6.1c0-0.1-0.2,8.7-0.2-1.2c0-9.5-0.3,1.4-0.3-3.1
		c0,9.7-0.1,7.6-0.1-1.6c0-8.8,0,4.5,0-1.6c0.1-2,0.1-4.6,0.3-3.1c0.2-6.1,0.5,0.4,0.8-3c0.1,6.7,0.3-10.7,0.5-1.5
		c0.2-5.6,0.4,16.6,0.7-1.4c0.5,10.4,1,0.9,1.6-2.7c0.6,4.4,1.3-7.7,2-2.5c0.7-5.9,1.4-1.1,2.1-2.3c0.7,0.1,1.4,1.8,2.1-2.3
		c1.2-1.6,2.2,2.9,3.2-4.3C420.2,164.6,419.8,175.3,419.4,175.6z M409.2,175.9c0-16.1-0.5,2.3-0.5,1.6c-0.2,1.4-0.3,10.7-0.4,1.7
		c-0.2,7.7-0.5,13.2-0.8,3.3c-0.2-14.6-0.5-3.9-0.9,3.2c-0.2,0.9-0.4,13.1-0.5,1.6c-0.2,4.3-0.3,11.9-0.5,1.6
		c-0.3,1.3-0.8,0.3-1.2,3.1c-0.3-13.4-0.7,9.8-1.2,3.1c0-4.7-0.7,8.1-0.7,1.6c0,1-0.6-5.5-0.6,1.6c-0.8-8.1-1.4,15.2-1.8,6.3
		c0-6-0.3,6.6-0.3-1.2c0,6.6-0.5-8.7-0.5-3c0,5.6-0.3,1.4-0.3-1.5c-0.1-1.1-0.1,6.4-0.1-1.6c0,3.3,0-11.5,0-3.1
		c0.1,1.1,0.3-9.2,0.5-3.1c0.1-1,0.2,7.9,0.4-1.5c0.1,7.4,0.3,3.4,0.5-1.5c0.4,9.3,0.8-5,1.3-2.8c0.6-3.8,1.2-6.7,1.8-2.6
		c0.6,1,1.3,2.1,1.9-2.5c0.7-18.2,1.2,2.3,1.9-2.5c1.1,4.6,2-10.7,2.8-4.5C409.8,176.3,409.5,156.2,409.2,175.9z M399.1,177
		c0,12.1-0.3,1.3-0.3,1.7c-0.1-11.2-0.2-2.4-0.3,1.7c-0.2,0.8-0.3-5.8-0.5,3.3c-0.1,3.5-0.3-3-0.6,3.3c-0.1-5.8-0.3-10.8-0.4,1.6
		c-0.1-1.6-0.2,2.5-0.4,1.6c-0.2-1.4-0.6,0.5-0.9,3.2c-0.3,8-0.6,3.4-0.9,3.2c0-8.7-0.5-4.3-0.5,1.6c0,11.3-0.4-2.5-0.4,1.7
		c-0.6,0.1-1.1,4.5-1.3,6.4c0,8.8-0.4-3.8-0.4-1.2c0,4.9-0.8-10-0.8-3c0-13.1-0.4,18.2-0.4-1.5c-0.1,1.8-0.2-10.8-0.2-1.5
		c-0.1-15.2-0.2,0.4-0.3-3.1c0,6.4,0.1,1.1,0.2-3.1c0.1,8.7,0.1-3.4,0.2-1.5c0.1,4.3,0.3-1.3,0.4-1.5c0.3-12.1,0.7,6.9,1.1-3
		c0.5-1.1,1-8.9,1.5-2.8c0.5,4.4,1.1,13.8,1.7-2.7c0.6,11.1,1.1-4.5,1.6-2.6c0.9-12.2,1.7,0.8,2.4-4.8
		C399.6,173.7,399.3,179.4,399.1,177z M389.2,179c0,6.9-0.2,18-0.2,1.7c-0.1-2.6-0.1-0.2-0.1,1.7c-0.1-3.7-0.1,7.5-0.2,3.4
		c0,3.5-0.1-7.3-0.3,3.3c-0.1-11.2-0.2,2.6-0.2,1.6c-0.1-9-0.1-1.5-0.2,1.6c-0.2-10.5-0.4,3.2-0.6,3.2c-0.2-3.2-0.4,0.2-0.6,3.3
		c0,6.8-0.4-6.2-0.4,1.7c0-5.3-0.3-2.2-0.3,1.7c-0.4,2.6-0.7,9.5-0.7,6.5c0-8.3-0.5-21.9-0.5-1.1c0,5.8-1.1,10.1-1.1-2.9
		c0,3-0.5-4.5-0.5-1.5c-0.1-4.6-0.2-5.2-0.4-1.5c-0.2,1.3-0.4-10.6-0.5-3.1c-0.1,6.7-0.1,2.9,0-3.1c0,0,0-16.5,0.1-1.6
		c0.1-6.2,0.2-6,0.3-1.5c0.2-1.1,0.5-5,0.8-3c0.4-4.3,0.8,7.7,1.3-2.9c0.4,2.6,0.9,6,1.5-2.8c0.5-11.1,0.9,3.7,1.4-2.8
		c0.8,6.3,1.4,0.9,2-4.9C389.4,183.2,389.3,172.9,389.2,179z M379.4,185.3c0-6.3,0.1-5.6,0.1,3.4c0.1,8.7,0.1,0.1,0,3.3
		c0,8.8-0.1,3-0.1,1.6c0,9.4,0-8-0.1,1.6c-0.1-0.3-0.2-1.8-0.3,3.3c-0.1,8.5-0.2-19.5-0.3,3.3c0-1.8-0.2-2.4-0.2,1.7
		c0,0.4-0.1-10.9-0.1,1.7c-0.3,6.7-0.3-6.3-0.1,6.5c0-4.7-0.6-0.4-0.6-1.1c0,3.2-1.3-4.9-1.3-2.8c0-0.2-0.6-1.6-0.6-1.4
		c-0.2-18.8-0.3-2.1-0.5-1.5c-0.3-18.6-0.6-0.5-0.8-3c-0.2,5.8-0.2,0-0.3-3.1c0-7.3,0-4.9-0.1-1.6c0-10.9,0.1-6.6,0.1-1.6
		c0.1,3.5,0.3,4.4,0.6-3.1c0.3-0.4,0.7-4.1,1-3c0.3,11,0.8,5.2,1.2-2.9c0.4-10.6,0.8-0.9,1.2-2.9c0.7-3.6,1.1-23.3,1.5-5.1
		c-0.2,3.9-0.2,6.1-0.2,3.1c0,7.5,0,18.5,0,1.7C379.4,181.4,379.4,176.1,379.4,185.3z M364.1,218.8c0,3.8-1.8-10.5-1.8-2.5
		c0-8.9-0.9-6-0.9-1.3c-0.3,14.7-0.5,13.5-0.7-1.4c-0.5-9-0.9,13.9-1.3-2.8c-0.3,2.6-0.6-5.9-0.8-3c-0.1-5.1-0.2-3.6-0.3-1.5
		c-0.1-6-0.1-3.2-0.1-1.6c0-5.9,0-6.8,0-3.1c0.1,4.4,0.3,4.8,0.5-3.2c0.2,18,0.4-8.6,0.7-3.1c0.3,1.9,0.4,8.6,0.6-3
		c0.4-7.3,0.5,5.3,0.6-5.3c0,6.7,0.2-0.3,0.3,3.1c0,8,0.3-0.9,0.3,1.7c0.1-6.5,0.2,22.1,0.3,1.7c0.2,7.2,0.5,4.1,0.6,3.3
		c0.2-9.6,0.4,1.9,0.6,3.3c0.1-8.5,0.1,10.6,0.2,1.6c0.1-9.6,0.2,23.3,0.2,1.6c0.1,1.3,0.2-3.8,0.3,3.3c0.1-9.7,0.2-12.6,0.3,3.3
		c0-4.6,0.1,6,0.1,1.7c0-5.8,0.2,20.7,0.2,1.7c0.1-6.5,0.4-5.5,1,6.4C364.8,253.4,364.1,224,364.1,218.8z M302.3,224.9
		c0.9,24.6,1.7-1.8,2.6,0c0.1,3.2,0.1-11.4,0.2,0.9c0.2,21.5,0.5,17.8,0.9,3.3c0.3,7.8,0.7,12,1.1,3.2c0.3,17,0.7-19.3,1.1,2.4
		c-0.2-6-0.4-5.8-0.6-0.9c-0.3-17.6-0.5,7-0.8-1.3c-1.7-2.5-3.4-11.5-5.4-7.7C301.7,239.3,302,217.8,302.3,224.9z M305.2,259.7
		c0-2.3,1.4,14.2,1.4,1c0.5-6.8,1,22.2,1.4,0.9c1-5.3,1.9-5.2,2.8,1.9c1,12.1,1.9-9.3,2.7,1.9c0.4-21.2,0.9,6.4,1.3,1
		c0.4,7.9,0.9-0.5,1.3,1c0.9,4.3,1.7,12,2.5,2.2c0.9,0.2,1.7-5.9,2.5,2.2c0-7.6,1.2-7.1,1.2,1.2c0-7.7,1.3-9.9,1.3,1.1
		c1.6-5.9,3.4-5.3,5.3,3.9c0-11.8-1.2-4.7-1.2-0.1c0-0.4-3,5.3-3-0.5c0,1.1-1.5,0.3-1.5-0.3c-0.5,12.5-1-16.3-1.5-0.4
		c-1,12.9-2,6-2.9-1.1c-0.9-2.2-1.8,0.5-2.7-1.5c-0.4,0.1-0.9-18.7-1.3-0.9c-0.4-6.5-0.8,7.2-1.2-1c-0.8-8.2-1.5,9-2.2-2.2
		c-0.7,7.8-1.3-2.6-1.9-2.6c-0.6,1.9-1.2,3.8-1.7-2.7c-0.5-5.4-1.1-8.2-1.7-2.6c-1-0.5-2.1,10.2-3.3-4.2
		C303.5,253.3,304.4,271.1,305.2,259.7z M302.8,269.6c0,0.7,1.5-1.2,1.5,0.9c0.5-12.4,1,7.6,1.5,0.8c1,8.8,2-7.2,3,1.6
		c1,11.4,2-3.4,2.9,1.7c0.5-9.2,0.9,1.8,1.4,0.9c0.5,1.9,0.9,2.2,1.4,0.9c0.9-0.1,1.8-17.9,2.7,1.9c0.9-5.3,1.8,19.8,2.7,1.9
		c0,0.6,1.3-10.5,1.3,1c0,10.5,1.4-10.4,1.4,1c1.7,11.4,3.6-5.8,5.6,3.4c0,7.7-1.2-10.6-1.2,0c0-11-3.1,2.1-3.1-0.3
		c0,3.1-1.6,1-1.6-0.2c-0.5-2.9-1-20.7-1.5-0.3c-1,2.9-2,2-3-0.8c-1,6.5-1.9,16.9-2.8-1.3c-0.5-3.7-0.9-0.1-1.4-0.7
		c-0.4,1.5-0.9,9.6-1.3-0.9c-0.8-13.2-1.6-1-2.4-2c-0.7,2-1.4-4-2.1-2.4c-0.7-9.6-1.3,1.8-1.9-2.5c-0.6-7.6-1.3-8.1-1.9-2.4
		c-1.1-0.9-2.4,12.1-3.7-3.9C301,285,302,277,302.8,269.6z M310.6,339.1c0,8.3,1.7,3.4,1.7-0.1c0.6,7.4,1.1-9.1,1.7-0.2
		c1.1-9.9,2.3,2.3,3.4-0.4c1.1-1.1,2.2,5,3.3-0.3c0.5-5.5,1.1-16.8,1.6,0c0.5-7.7,1.1-3.7,1.6-0.1c1.1-7.4,2.2,4.1,3.3,0
		c1.1-5.4,2.2,7,3.3,0c0,0.6,1.7-4.1,1.7,0.1c0-11.3,1.7,9.9,1.7,0c2.2-11.6,4.3,1.3,6.5-0.4c0-8.1-1,11.9-1,0.7
		c0-2.9-2.7,9.1-2.7,1.5c0-9.9-1.4,1-1.4,0.8c-0.5,7.1-1-8.9-1.4,0.6c-1,4.7-2-11.1-3,1.1c-1-15.4-2-6.8-3.1,0.6
		c-0.5,2.4-1,4.1-1.6,0.2c-0.5,5.3-1,13-1.6,0c-1,4-2.1,5.9-3.1-0.3c-1,1-2.1-11.7-3.1-0.8c-1,12.3-2,11.1-3-0.9c-1,12.1-2-19-3-0.9
		c-1.7,0.6-3.4-16.9-5.2-1.1C308.5,342.7,309.6,338.9,310.6,339.1z M315.1,348.2c0-16,1.7-6.5,1.7-0.3c0.6-1,1.1,15,1.7-0.3
		c1.1-1,2.2,0.7,3.3-0.6c1.1,4.3,2.2,8.2,3.3-0.6c0.5,1.8,1.1-10.8,1.6-0.2c0.5,8.7,1.1-0.6,1.6-0.2c1.1,0,2.2-0.1,3.3-0.3
		c1.1-16.8,2.2-14.8,3.3-0.3c0,2.8,1.7,2.9,1.7-0.1c0-6.4,1.7,4.5,1.7-0.2c2.2,3.6,4.3-21.6,6.4-1c0,1.6-1-4.4-1,0.8
		c0,3.6-2.5,1.3-2.5,1.8c0,3.6-1.3,2.2-1.3,0.9c-0.4-9.9-0.9,13-1.4,0.7c-0.9-13.5-1.9-15.9-2.8,1.3c-1-5-2,0.3-3,0.8
		c-0.5,0.1-1-4.6-1.5,0.3c-0.5-3.7-1-3-1.6,0.1c-1-1.6-2.1,7.6-3.1,0c-1.1,6.1-2.1-1.4-3.2-0.5c-1-23-2.1,0.8-3.1-0.7
		c-1,9.8-2,0-3-0.6c-0.9-18.5-1.7-33.1-2.6-14.8c-0.9-3.2-1.7,10.6-2.6,14.2C313.1,366,314.1,341.3,315.1,348.2z M320.4,356.9
		c0-13.7,1.7-7.9,1.7-0.4c0.6,0.9,1.1,1.6,1.7-0.5c1.1,7.4,2.2-0.6,3.3-0.9c1.1-5.7,2.1-2.2,3.2-0.9c0.5-0.4,1.1-4,1.6-0.3
		c0.5-7.7,1.1-18.8,1.6-0.3c1.1,0,2.2,1.2,3.3-0.5c1.1,4.2,2.2-3.6,3.3-0.6c0-1.3,1.7-18,1.7-0.2c0,5.3,1.7-2.9,1.7-0.3
		c2.1,2.5,4.3-4,6.3-1.5c0,8.8-0.9-2.5-0.9,0.9c0,4.6-2.4,6.5-2.4,2c0-1.9-1.2-3.8-1.2,1c-0.4,6.8-0.9-6.1-1.3,0.9
		c-0.9-3.6-1.8,8-2.7,1.6c-1,19.9-1.9,17.3-2.9,1.1c-0.5-8.3-1-9.4-1.5,0.5c-0.5-9.3-1,5.5-1.5,0.3c-1,9-2.1-1-3.1,0.3
		c-1.1,6.8-2.1-1.6-3.2-0.2c-1.1,2.6-2.1,2.7-3.1-0.4c-1,6.1-2.1-5.8-3.1-0.4c-1.8,1.9-3.5,0.8-5.3-0.2
		C318.4,355.8,319.4,356.5,320.4,356.9z M326.4,365.1c0,6,1.6,8.2,1.6-0.5c0.5-2.2,1.1,9.9,1.6-0.6c1.1,3.9,2.1-5.9,3.2-1.2
		c1-6.5,2.1,1.1,3.1-1.2c0.5,6.6,1.1,8.2,1.6-0.5c0.5,4.5,1,3.1,1.6-0.5c1,1.5,2.1,3.5,3.2-0.8c1.1,5,2.1,15.3,3.2-0.8
		c0-9.4,1.7,10.6,1.7-0.4c0-8.7,1.6-4.3,1.6-0.5c2.1-1.7,4.2,0.3,6.2-2.1c0-3.3-0.8,3.7-0.8,0.9c0-3.3-2.2-1.6-2.2,2.2
		c0-8.2-1.1,6.3-1.1,1.1c-0.4,8.6-0.8,7.9-1.2,1c-0.8-9.7-1.7,11.7-2.6,1.8c-0.9-13-1.9-1.8-2.8,1.3c-0.5,5.2-1-4-1.5,0.6
		c-0.5-7.9-1-9.2-1.5,0.4c-1,9.9-2.1,0.8-3.1,0.5c-1.1,4.6-2.1-1.7-3.2,0.1c-1.1,4-2.1,11.8-3.2-0.1c-1.1,10.3-2.1-1.7-3.1-0.1
		c-1.8-3-3.5,10.7-5.3,0.3C324.5,361.6,325.5,369.5,326.4,365.1z M333.2,372.7c0-13.6,1.6-20.9,1.6-0.7c0.5,10.9,1-9.9,1.5-0.8
		c1-6.4,2-12.6,3-1.5c1,10.8,2-11.6,3-1.4c0.5-9.6,1,5,1.5-0.6c0.5,3,1-3.6,1.5-0.6c1-8.4,2.1-2.1,3.1-1.1c1,7.6,2.1-10.9,3.2-1.1
		c0,4.5,1.6,3.1,1.6-0.5c0,17.2,1.6-2.3,1.6-0.6c2.1-12.5,4.1,0.8,6-2.6c0,2.8-0.7,0-0.7,1c0-8.1-2-7.7-2,2.4c0,4.3-1-3.8-1,1.2
		c-0.4,8-0.8-3.3-1.1,1.1c-0.8-5.1-1.6,16.8-2.4,2c-0.9,3.4-1.8,5.9-2.7,1.6c-0.5-0.4-0.9,7.6-1.4,0.7c-0.5,3.3-1,11.7-1.5,0.5
		c-1,7.4-2-2.4-3,0.8c-1.1,7.7-2.1,4.6-3.2,0.3c-1-1.1-2.1-3.7-3.2,0.1c-1.1-2.2-2.1,6.2-3.1,0.2c-1.8,5.4-3.5-3.4-5.2,0.7
		C331.2,361.3,332.2,373,333.2,372.7z M340.5,379.7c0,9,1.5-3.6,1.5-0.8c0.5,0.6,1-8.7,1.5-0.9c1-2.2,1.9-14.2,2.9-1.7
		c0.9-5.7,1.9-0.3,2.9-1.7c0.5,6.7,1-6.2,1.5-0.7c0.5-0.3,1-7.2,1.5-0.8c1-9.6,2-8.9,3-1.4c1-2.6,2,3.6,3-1.4c0,5.5,1.6-3.3,1.6-0.6
		c0,2,1.5,6.4,1.5-0.8c2-23.9,3.9-1,5.7-3.1c0-9.7-0.6-9.8-0.6,1.1c0-4.9-1.8-7.2-1.8,2.5c0,13.9-0.9-0.9-0.9,1.3
		c-0.3-7.7-0.7,0.1-1,1.2c-0.7-4.6-1.5,5.1-2.2,2.2c-0.8-6.9-1.7-9-2.5,1.8c-0.4-4.1-0.9,5.4-1.3,0.8c-0.5,14-0.9-5.5-1.4,0.7
		c-1-15.4-2-1.9-3,1.1c-1,4.7-2.1-18.4-3.1,0.6c-1-3.3-2.1-2.1-3.1,0.4c-1.1-2.9-2.1-12.4-3.1,0.4c-1.8,7.5-3.5,1.6-5.2,1.2
		C338.7,372.1,339.6,376.5,340.5,379.7z M348.4,386.1c0-0.9,1.4-1.4,1.4-0.9c0.5-2.4,0.9-13.7,1.4-1c0.9,8.2,1.8,3,2.7-2
		c0.9,0.6,1.8-8.1,2.7-1.9c0.5,4.4,0.9-8.5,1.4-0.9c0.5-7.1,0.9,7.9,1.4-0.9c0.9,9.3,1.9-4,2.9-1.6c0.9-2.4,1.9,1.8,2.9-1.6
		c0-1.4,1.5-12.5,1.5-0.8c0,11,1.5,2.1,1.5-0.9c1.9-11.2,3.7-0.2,5.4-3.6c0-4.3-0.6-0.3-0.6,1.1c0,9.4-1.5-3-1.5,2.7
		c0,6-0.8,0.7-0.8,1.3c-0.3-11.3-0.6,2.3-0.9,1.3c-0.6,4.7-1.3,5.6-2,2.4c-0.7-10.6-1.6,5.7-2.4,2c-0.4-15.1-0.8-8.7-1.3,0.9
		c-0.4-7.4-0.9-5.6-1.4,0.8c-0.9,23.7-1.9,0.3-2.9,1.3c-1-10.4-2-7.3-3.1,0.9c-1,11.3-2.1-15.6-3.1,0.7c-1,0.7-2-6.4-3,0.7
		c-1.7-5.9-3.4,15.3-5,1.6C346.7,386.5,347.6,377.9,348.4,386.1z M356.9,391.7c0,9.4,1.3-7.5,1.3-1.1c0.4,4.6,0.9-7.1,1.3-1.1
		c0.8,6.5,1.7-5.1,2.6-2.2c0.8,3.2,1.7-3,2.5-2.2c0.4-6.7,0.9-5.8,1.3-1c0.4,2.3,0.9,0.4,1.3-1c0.9,7.2,1.8,9.2,2.7-1.9
		c0.9,1.3,1.8-2.7,2.8-1.9c0,3.6,1.4-1.8,1.4-0.9c0,19.4,1.4-4.2,1.4-1c1.8,3.2,3.5-10.2,5.1-4.1c0,7.1-0.5-8.7-0.5,1.2
		c0,14.2-1.3-10.1-1.3,2.8c0,5.7-0.7,6.1-0.7,1.4c-0.2,6.3-0.5-6.6-0.8,1.3c-0.6,4.3-1.2,13.7-1.8,2.6c-0.7-4.8-1.4,12.2-2.2,2.2
		c-0.4,2.6-0.8-0.2-1.2,1c-0.4-10.9-0.9-10.9-1.3,0.9c-0.9-2.7-1.8,3.6-2.7,1.6c-1,6.2-2,6-3,1.1c-1-4-2,12.2-3,1c-1-9.1-2,14.1-3,1
		c-1.7,6.8-3.3-5.6-4.9,2.1C355.3,403.6,356.1,393.6,356.9,391.7z M365.8,396.5c0-0.3,1.2,19.2,1.2-1.2c0.4,3.3,0.8-5.7,1.2-1.3
		c0.8-7.6,1.6,8.2,2.4-2.4c0.8-7,1.5,4.3,2.3-2.4c0.4,7.6,0.8-7.5,1.2-1.1c0.4,11.5,0.8-11.2,1.2-1.1c0.8-7.3,1.7,5.1,2.6-2.1
		c0.8,4.9,1.7-11,2.6-2.1c0-8.1,1.4-19,1.4-1c0-3.9,1.3-0.1,1.3-1.1c1.7,10,3.3-4.3,4.7-4.5c0-6.4-0.4,8.6-0.4,1.2
		c0,5.7-1.1,3.5-1.1,2.9c0,5.8-0.6,6.8-0.6,1.5c-0.2,5.4-0.5,11.8-0.7,1.4c-0.5,3.4-1,17.5-1.6,2.7c-0.6,0.2-1.3-0.1-2,2.4
		c-0.3-13.6-0.7,5.9-1.1,1.1c-0.4,11.1-0.8,3.8-1.2,1c-0.8,12.3-1.7,1.6-2.6,1.8c-0.9-2.6-1.9-3.7-2.9,1.4c-0.9,6.1-1.9,0.8-2.9,1.2
		c-1-7.9-1.9-8-2.9,1.2c-1.7,6.4-3.2-5.1-4.7,2.5C364.2,389.6,365,390.1,365.8,396.5z M375.1,400.6c0-4.9,1.1-3.6,1.1-1.3
		c0.4,4,0.7-8.6,1.1-1.3c0.7-5.3,1.4-9.9,2.1-2.6c0.7-4.1,1.4-4.3,2.1-2.6c0.4-1.7,0.8,4.6,1.1-1.2c0.4-10,0.7-2.2,1.1-1.2
		c0.7-5.6,1.6-14.8,2.4-2.3c0.8,5.6,1.6-3.9,2.4-2.3c0,6.3,1.3,0.9,1.3-1.1c0-12.3,1.2-4.5,1.2-1.2c1.6,3.1,3,10.8,4.3-4.9
		c0,6.7-0.2-4.2-0.2,1.2c0-0.4-0.8-8.4-0.8,3c0,6.6-0.4-1.5-0.4,1.5c-0.2-13.4-0.4-3.2-0.6,1.5c-0.4,14.6-0.9-7.7-1.3,2.8
		c-0.5-0.5-1.1-6.6-1.8,2.6c-0.3-0.9-0.6-5.6-1,1.2c-0.3,8.3-0.7-11.4-1.1,1.1c-0.8-4.8-1.6,8.7-2.4,2c-0.9-3.8-1.8,6.5-2.7,1.6
		c-0.9,6.4-1.9,8.4-2.8,1.5c-1-22.1-1.8,6.1-2.7,1.5c-1.6,4-3.1,2-4.5,2.9C373.7,404.4,374.4,400.1,375.1,400.6z M377.6,410.9
		c0,0-0.1-12-0.1,0.1c-0.2,9.4-0.4-6-0.6,0.1c-0.3-7.4-0.5,7.3-0.8,0.2c0.4-0.3,0.8,10.2,1.2-0.7c0.8,12.2,1.5-5.5,2.2-1.5
		c-0.2,2.5-0.5-1.9-0.8,0.7C378.4,402.5,378,407.4,377.6,410.9z M384.7,403.9c0-6.3,1,11.3,1-1.4c0.3,4.6,0.6-4,0.9-1.4
		c0.6-1.2,1.2-3.2,1.9-2.8c0.6-10.1,1.2,1.7,1.9-2.7c0.3-6.1,0.7-3.8,1-1.3c0.3-18.6,0.7-13.6,1-1.3c0.7-1.3,1.4-12,2.2-2.5
		c0.7,0.7,1.4-7.8,2.2-2.5c0-3.3,1.2-0.9,1.2-1.2c0-9.7,1.1,0.1,1.1-1.3c1.4-1.3,2.7-6.1,3.9-5.3c0,0-0.1,6.2-0.1,1.2
		c0,2-0.5,5.2-0.5,3c0,1.5-0.3,8.6-0.3,1.5c-0.1-0.6-0.3,6.4-0.4,1.5c-0.3,7.2-0.7,2.5-1.1,2.9c-0.5,1.3-1,3.5-1.5,2.7
		c-0.3-13.9-0.6,0.8-0.9,1.3c-0.3-1.7-0.7,4-1,1.2c-0.7,0.1-1.5,2.5-2.2,2.2c-0.8,6.1-1.7,10.8-2.6,1.9c-0.9,5.2-1.8-2.7-2.7,1.7
		c-0.9-8.2-1.7-1.3-2.6,1.7c-1.5,4.5-2.9,5.6-4.2,3.3C383.5,401,384.1,406.8,384.7,403.9z M394.6,406.2c0,8.2,0.9-1.2,0.9-1.5
		c0.3,7.2,0.5,0.7,0.8-1.5c0.5,2.8,1.1-12.4,1.6-3c0.5,4.5,1.1,8.4,1.7-2.9c0.3-4.6,0.6,1.6,0.9-1.4c0.3,19.2,0.6-3.2,0.9-1.4
		c0.6,5.4,1.3,12.5,1.9-2.7c0.6,8.2,1.3,13.8,1.9-2.7c0-2,1,3.3,1-1.3c0-1,1-5.3,1-1.4c1.3-15.9,2.4,4.8,3.4-5.6c0,7.4,0-8.5,0,1.2
		c0-4.9-0.3,6.7-0.3,3.1c0-10.7-0.2,0.8-0.2,1.6c-0.1-6.9-0.2,6.6-0.3,1.5c-0.2-11.4-0.5,0.2-0.8,3c-0.4-4.6-0.8,4.3-1.3,2.8
		c-0.2,7.5-0.5,7.4-0.7,1.4c-0.3-10.8-0.6,6.6-0.9,1.3c-0.6-8.3-1.3-0.8-2,2.4c-0.8-1-1.6,6.5-2.4,2.1c-0.8-4.2-1.7-5.2-2.5,1.9
		c-0.9,6-1.6-5.6-2.4,1.9c-1.4,12.7-2.7,4.1-3.9,3.7C393.5,390.6,394.1,402.6,394.6,406.2z M404.7,407.8c0,1.2,0.8,10.5,0.8-1.5
		c0.2-18.6,0.5,4,0.7-1.6c0.4,13.6,0.9-7.3,1.4-3.1c0.4,4.5,0.9-0.6,1.4-3c0.2,10.3,0.5,0.7,0.8-1.4c0.2-0.5,0.5,20.3,0.8-1.5
		c0.5,16.2,1.1,13.9,1.7-2.8c0.5-10.4,1.1-5.7,1.7-2.9c0-2.5,0.9,1.8,0.9-1.4c0,5.6,0.8,5.4,0.8-1.5c1.1-4.3,2.1-3.8,2.9-5.8
		l0.1,1.2l0,3.1c0,0,0-0.1,0,1.6c0-2.1-0.1,11.9-0.2,1.6c-0.1,4-0.3-4.1-0.6,3.1c-0.3-5.1-0.7-3.8-1,2.9c-0.2-5.3-0.4-2.2-0.6,1.4
		c-0.2-2.7-0.5,7.6-0.8,1.4c-0.6,0.4-1.2-10.9-1.8,2.6c-0.7,8.7-1.5-4.2-2.2,2.3c-0.7-2.6-1.5-0.1-2.3,2.1
		c-0.8,11.1-1.5,7.7-2.3,2.1c-1.3-7.2-2.5,6.6-3.6,4C403.7,400.5,404.2,412.5,404.7,407.8z M414.8,408.4c0,7,0.6,8.5,0.6-1.6
		c0.2-7.2,0.4-9.2,0.5-1.6c0.3,1.4,0.7-5.3,1.1-3.2c0.3-1.8,0.7,4.2,1.1-3.1c0.2,7,0.4,1.3,0.7-1.5c0.2-2.4,0.4,10.7,0.6-1.5
		c0.4-8.7,0.9,3.4,1.4-3c0.4-1,0.9-2,1.4-3l0.8-1.5l0.7-1.6c1-1.9,1.8-3.9,2.4-6.1l0.2,1.2l0.3,3.1l0.1,1.6c0,0.5,0,1,0,1.6
		c-0.1,1-0.1,2.1-0.3,3.1c-0.2,1-0.5,2-0.8,3c-0.1,0.5-0.3,1-0.5,1.5c-0.2,0.5-0.4,1-0.7,1.4c-0.5,0.9-1,1.8-1.6,2.7
		c-0.6,6.4-1.3-7.3-2,2.5c-0.7-11.9-1.4,10.3-2.1,2.3c-0.7-6.7-1.4,3.8-2.1,2.3c-1.2,2.2-2.2-4.1-3.2,4.3
		C414,408.8,414.4,400.6,414.8,408.4z M424.9,408.2l0.5-1.6c0.2-0.5,0.3-1.1,0.4-1.7c0.2-1.1,0.5-2.2,0.8-3.3
		c0.2-1.1,0.5-2.2,0.9-3.2c0.2-0.5,0.4-1,0.5-1.6c0.2-0.5,0.3-1.1,0.5-1.6c0.3-1,0.8-2.1,1.2-3.1c0.3-1,0.7-2.1,1.2-3.1l0.7-1.6
		l0.6-1.6c0.8-2,1.4-4.1,1.8-6.3l0.3,1.2l0.5,3l0.3,1.5c0.1,0.5,0.1,1,0.1,1.6c0,1,0,2.1,0,3.1c-0.1,1-0.3,2.1-0.5,3.1
		c-0.1,0.5-0.2,1-0.4,1.5c-0.1,0.5-0.3,1-0.5,1.5c-0.4,1-0.8,1.9-1.3,2.8c-0.6,0.9-1.2,1.8-1.8,2.6c-0.6,0.9-1.3,1.7-1.9,2.5
		c-0.7,0.8-1.2,1.7-1.9,2.5c-1.1,1.5-2,0.2-2.8,4.5C424.3,408.4,424.6,409.2,424.9,408.2z M435,407c0-3.6,0.3-3.9,0.3-1.7
		c0.1,17.4,0.2-3.4,0.3-1.7c0.2-1.1,0.3-2.3,0.5-3.3c0.1-1.1,0.3-2.2,0.6-3.3c0.1-0.5,0.3-1.1,0.4-1.6c0.1-0.5,0.2-1.1,0.4-1.6
		c0.2-1.1,0.6-2.1,0.9-3.2c0.3-1.1,0.6-2.1,0.9-3.2l0.5-1.6l0.4-1.7c0.6-2.1,1.1-4.2,1.3-6.4l0.4,1.2l0.8,3l0.4,1.5
		c0.1,0.5,0.2,1,0.2,1.5c0.1,1,0.2,2.1,0.3,3.1c0,1-0.1,2.1-0.2,3.1c-0.1,0.5-0.1,1-0.2,1.5c-0.1,0.5-0.3,1-0.4,1.5
		c-0.3,1-0.7,2-1.1,3c-0.5,1-1,1.9-1.5,2.8c-0.5,0.9-1.1-1.1-1.7,2.7c-0.6-1.7-1.1-2.1-1.6,2.6c-0.9-3.9-1.7-2-2.4,4.8
		C434.6,402.9,434.8,413.3,435,407z M445,405c0,2.2,0.2,12.1,0.2-1.7c0.1,17.1,0.1,6.2,0.1-1.7c0.1,14.3,0.1-3.2,0.2-3.4
		c0-1.1,0.1-2.2,0.3-3.3c0.1-0.5,0.2-1.1,0.2-1.6c0.1-0.5,0.1-1.1,0.2-1.6c0.2-1.1,0.4-2.2,0.6-3.2c0.2-1.1,0.4-2.2,0.6-3.3l0.4-1.7
		l0.3-1.7c0.4-2.1,0.7-4.3,0.7-6.5l0.5,1.1l1.1,2.9l0.5,1.5c0.1,0.5,0.2,1,0.4,1.5c0.2,1,0.4,2.1,0.5,3.1c0.1,1,0.1,2.1,0,3.1
		c0,0.5,0,1-0.1,1.6c-0.1,0.5-0.2,1-0.3,1.5c-0.2,1-0.5,2-0.8,3c-0.4,1-0.8,2-1.3,2.9c-0.4,20.2-0.9,3.6-1.5,2.8
		c-0.5,6.6-0.9,1.9-1.4,2.8c-0.8-4.8-1.4-0.1-2,4.9C444.7,408.1,444.9,405.7,445,405z M464.2,398.5c0-8-0.1-3.6-0.1-1.7
		c0,12.4-0.1-4.6-0.2-1.7c-0.1-2.8-0.3-3.8-0.4-3.4c-0.2-1.1-0.3-2.2-0.3-3.3c0-0.5,0-1.1,0-1.6c0-0.5-0.1-1.1-0.1-1.6
		c0-1.1,0-2.2,0-3.3c0-1.1,0-2.2,0-3.3l0.1-1.7l0-1.7c0.1-2.2,0-4.3-0.4-6.5l0.7,1l1.5,2.7l0.8,1.4c0.2,0.5,0.4,1,0.6,1.4
		c0.4,1,0.7,2,1.1,3c0.3,1,0.4,2,0.6,3.1c0.1,0.5,0.1,1,0.2,1.6c0,0.5,0,1,0,1.6c0,1-0.1,2.1-0.3,3.1c-0.2,1-0.5,2.1-0.8,3.1
		c-0.3,0.8-0.6,15.3-0.9,3c-0.4,11.1-0.6-1.8-0.9,3c-0.5-5.2-0.8-5.4-1.1,5.2C464.3,393.3,464.2,400.1,464.2,398.5z M483.6,361.9
		l-0.5-1.6c-0.5-2.1-1.2-1.2-2.1-6.2c0-3.7,0.9,4,0.9,0.8c0-8.2,2.2,0.7,2.2,2.2c0-3.5,1.1,1.1,1.1,1.1c0.3,0.4,0.7,0.8,1,1.2
		c0.6,0.8,1.2,1.7,1.8,2.6c0.5,0.9,0.9,1.9,1.3,2.8c0.2,0.5,0.4,1,0.6,1.5c0.2,0.5,0.3,1,0.4,1.5c0.2,1,0.4,2.1,0.5,3.1
		c0.1,1.1,0.1,2.1,0.1,3.2c0,1.1-0.1,2.1-0.1,3.2c-0.1,1.1-0.1,2.1-0.1,3.1c0,1.8,0.1,3.5,0.3,5.3c-0.2-1-0.5-2-0.8-3l-0.5-1.6
		c-0.2-0.5-0.4-1.1-0.6-1.6c-0.4-1.1-0.8-2.1-1.2-3.2c-0.4-1-0.8-2.1-1.2-3.1c-0.2-0.5-0.3-1.1-0.5-1.6c-0.2-0.5-0.3-1-0.5-1.6
		c-0.3-1-0.6-2.1-0.8-3.2c-0.3-1.1-0.6-2.1-0.8-3.2L483.6,361.9z M491.1,360.6c-0.4-1-0.8,1.4-1.1-3.2c0,1.5-0.5,1.4-0.5-1.6
		c0,3.9-0.6-11.6-0.6-1.6c-0.7-2.2-1.5,7.2-2.6-6c0,1.4,1,6.7,1,0.7c0,1.8,2.4,3.4,2.4,2c0-14.4,1.2,8.8,1.2,1
		c0.4-3.6,0.7,1.9,1.1,1.1c0.7,2.6,1.4,5.4,2,2.4c0.6,4.9,1.1,4.2,1.6,2.7c0.2,1.9,0.5,3.8,0.7,1.4c0.2,0.5,0.4,1,0.5,1.5
		c0.3,1,0.6,2,0.8,3c0.2,1.1,0.3,2.1,0.3,3.2c0.1,1,0.1,2.1,0.1,3.2c0,1.1,0.1,2.1,0.2,3.1c0.1,1.8,0.4,3.5,0.7,5.2
		c-0.3-1-0.7-2-1.1-2.9l-0.7-1.6c-0.2-0.5-0.5-1-0.8-1.5c-0.5-1-1-2-1.5-3c-0.5-1-1-2-1.4-3c-0.2-0.5-0.4-1-0.6-1.5
		c-0.2-0.5-0.4-1-0.6-1.5C491.8,362.7,491.4,361.6,491.1,360.6z M499.6,359.8c-0.3,2.4-0.5,0.9-0.7-1.5c-0.3-4.5-0.5-5.4-0.8-1.5
		c-0.5,2.9-0.9-4.6-1.4-3c-0.5-13.4-1,5.7-1.4-3c0-3.8-0.6,9.7-0.6-1.6c0,2.5-0.8,10.8-0.8-1.5c-0.8,0.3-1.9,4.6-3.1-5.7
		c0,7.9,1.1,5,1.1,0.6c0,7.9,2.5,5.3,2.5,1.8c0-2.5,1.3,15.6,1.3,0.9c0.4,1.7,0.8,8.7,1.2,1c0.8,16.2,1.5-13.2,2.2,2.2
		c0.7-0.7,1.2-1.8,1.8,2.5c0.3,1.4,0.6-1.2,0.8,1.3c0.2,4.6,0.5,4.1,0.7,1.4c0.4,5.4,0.8-2.7,1.1,3c0.2,3.9,0.4,0.1,0.6,3.1
		c0.2,1,0.3,2.1,0.4,3.1c0.1,1.1,0.3,2.1,0.4,3.1c0.3,1.8,0.7,3.5,1.2,5.2c-0.4-1-0.9-1.9-1.4-2.8l-0.8-1.5c-0.3-0.5-0.6-1-0.9-1.5
		c-0.6-1-1.2-1.9-1.7-2.9C500.7,361.8,500.1,360.8,499.6,359.8z M507.1,355.1c-0.7-2.5-1.3-8-1.9-2.7c-0.3-14.7-0.6-3.9-0.9-1.4
		c-0.3,7.1-0.6,0-0.9-1.4c-0.6,8.3-1.1,0.4-1.6-2.9c-0.6,6.3-1.1,4.9-1.6-2.9c0-17.1-0.8,4.9-0.8-1.5c0-18.8-0.9-6.2-0.9-1.5
		c-1-6.7-2.2-9.6-3.6-5.4c0-8.3,1.1-3.8,1.1,0.6c0-6.6,2.7-2,2.7,1.5c0-4,1.3-1.8,1.3,0.8c0.4-10.3,0.8,7.8,1.3,0.9
		c0.8-4.7,1.6,17.5,2.4,2c0.7-10,1.4,3.9,2,2.4c0.3-4.1,0.6-3.4,0.9,1.3c0.3,3.5,0.5,0.9,0.8,1.4c0.5-2,0.9,11.3,1.3,2.9
		c0.3-4.6,0.6,8.8,0.9,3.1c0.3,6.4,0.5-6.9,0.7,3.1c0.2,4.2,0.5,6.1,0.7,3c0.4,3.5,1,3.4,1.6,5c-0.5-0.9-1-1.8-1.6-2.7
		c0,0.8-0.9,1.1-0.9-1.4c-0.3,2.3-0.7-10.7-1-1.4C508.4,358.3,507.8,357.4,507.1,355.1z M512.3,347c-0.8-32-1.5-2.3-2.2-2.5
		c-0.3,3-0.6-9.4-1-1.3c-0.3,11.6-0.7,12.5-1-1.3c-0.7-2.5-1.3-6.2-1.9-2.7c-0.7,6.3-1.3-18.1-1.9-2.8c0,8.4-0.9,3.3-0.9-1.4
		c0,2.5-1,3.7-1-1.4c-1.2-9-2.5,3.9-4.1-5.1c0-5.7,1.2-37.6,1.2,0.5c0,2.2,2.8-13.2,2.8,1.3c0-7.3,1.4-9.4,1.4,0.7
		c0.5-7.4,0.9,4.6,1.3,0.8c0.9-24.6,1.7,13.6,2.6,1.8c0.8-14.9,1.5-11,2.2,2.2c0.4,9,0.7-5.3,1,1.2c0.3,8.5,0.6,0.5,0.9,1.3
		c0.6-3.5,1.1,10.5,1.6,2.7c0.4,6.1,0.8-2.9,1.1,3c0.4,9.3,0.7,13,1,3c0.3,7.2,0.7,12.1,1,3c0.6,11.7,1.3,6,2.1,4.9
		c-0.5-8-1.2-5.2-1.8-2.5c0,10.2-1.1,1.5-1.1-1.3c-0.4-7.4-0.8,2.4-1.1-1.3C513.7,352.5,513,342,512.3,347z M522.9,367.8
		c-0.1-1.1-0.4-2.2-0.6-3.3c-0.3-1.1-0.5-2.2-0.9-3.3c-0.3,2.2-0.5,1.5-0.9-2.5c0.2-10.7,0.3,4.3,0.5,0.9c0.2,3.2,0.5,3.8,0.7,1.4
		c1.3,2.4,2.6,4.8,4.2,7.3c-1,0.1-2,0.3-2.9,0.5C522.9,368.4,522.9,368.1,522.9,367.8z M524.4,332.8c-0.4-7-0.9-11.7-1.3-1.1
		c-0.9-6.7-1.8-26.8-2.6-2.1c-0.9,9-1.8-0.4-2.6-2.1c-0.4,9.1-0.8-2.2-1.2-1.1c-0.4,10.8-0.8-9.5-1.2-1.1c-0.8,6.2-1.5,9.2-2.3-2.4
		c-0.8,2.2-1.6,11.7-2.3-2.4c0-4.5-1.1,11.1-1.1-1.3c0,1.4-1.2,5.6-1.2-1.2c-1.5-19.1-3.1,9.4-4.9-4.3c0-6.9,1.2,7.6,1.2,0.2
		c0,4.5,3,1.1,3,0.8c0,5,1.5-0.5,1.5,0.4c0.5,8.6,1-13.6,1.5,0.6c1,6,1.9-4.2,2.8,1.3c0.9-5,1.7-25.9,2.6,1.8c0.4-6,0.8,17.3,1.2,1
		c0.4,3.2,0.7,6.2,1.1,1.1c0.7-2.8,1.4,18,2,2.4c0.6,7.1,1.1,15.8,1.6,2.7c0.5,2.5,1,14.1,1.5,2.8c0.5,12.3,1,7.9,1.5,2.7
		c0.9-30.4,1.9-12.2,2.9,4.5c-0.7,7.8-1.5,5.6-2.3-2.2C525.7,340.9,524.4,332.1,524.4,332.8z M528.9,324.3c0,10.9-1.4,17.8-1.4-1
		c-0.5,0.4-1-0.7-1.4-0.9c-1-23.6-1.9-4.9-2.8-1.9c-1-18.9-1.9,10-2.7-1.9c-0.4,13.6-0.9-7.9-1.3-1c-0.4,9.7-0.9,20.2-1.3-1
		c-0.9,21.6-1.7-21.3-2.5-2.2c-0.9-5-1.7-17.1-2.5-2.2c0-3.5-1.2-1.8-1.2-1.2c0,5.3-1.3-8-1.3-1.1c-1.6-10.8-3.4-8.7-5.3-3.9
		c0-8.5,1.2-12.6,1.2,0.1c0-13.7,3-11.2,3,0.5c0,2.2,1.5,1.6,1.5,0.3c0.5-6.3,1,8.2,1.5,0.4c1,7.1,2-8.2,2.9,1.1
		c0.9-9.4,1.8-3.6,2.7,1.5c0.4-6,0.9,11.2,1.3,0.9c0.4,11,0.8,23.3,1.2,1c0.8-13.1,1.5-5.8,2.2,2.2c0.7-17.5,1.3,7.5,1.9,2.6
		c0.6-4.9,1.2,0.1,1.7,2.7c0.5,17,1.1,11.7,1.7,2.6c1,6.9,2.1,1.5,3.3,4.2C530.6,341.7,529.8,332.1,528.9,324.3z M531.3,314.5
		c0-30.8-1.5-3.1-1.5-0.9c-0.5,17.5-1,0.3-1.5-0.8c-1,22.3-2,12.1-3-1.6c-1,15.1-2,17.6-2.9-1.7c-0.5,15.3-0.9,0.5-1.4-0.9
		c-0.5,26.1-0.9,6.4-1.4-0.9c-0.9,15.9-1.8-5.5-2.7-1.9c-0.9,1.9-1.8-14.2-2.7-1.9c0,9.5-1.3-13.4-1.3-1c0,5.2-1.4-22.5-1.4-1
		c-1.7-3.1-3.6,1.8-5.6-3.4c0,1.5,1.2,7.8,1.2,0c0-3.4,3.1-17.7,3.1,0.3c0,12.6,1.6,2.6,1.6,0.2c0.5-15.9,1-9.7,1.5,0.3
		c1-24.5,2,0.3,3,0.8c1,13.4,1.9-4.2,2.8,1.3c0.5-1,0.9,15.2,1.4,0.7c0.4-2.4,0.9,3.8,1.3,0.9c0.8-6.7,1.6,16.4,2.4,2
		c0.7,23.1,1.4,1.5,2.1,2.4c0.7,10.3,1.3-17.1,1.9,2.5c0.6,1.3,1.3-11.8,1.9,2.4c1.1-9.2,2.4,2.9,3.7,3.9
		C533.1,299.1,532.2,300,531.3,314.5z M523.5,244.9c0,5.7-1.7,4.2-1.7,0.1c-0.6,6.1-1.1,1.7-1.7,0.2c-1.1-5.3-2.3-1.5-3.4,0.4
		c-1.1-5.9-2.2-5.7-3.3,0.3c-0.5-15.7-1.1-18.5-1.6,0c-0.5,6.9-1.1-3-1.6,0.1c-1.1,0.6-2.2-37.6-3.3,0c-1.1,2.1-2.2,3.1-3.3,0
		c0-2.8-1.7-15.5-1.7-0.1c0-14.8-1.7,3.3-1.7,0c-2.2,13.9-4.3-8.9-6.5,0.4c0-5,1,10.8,1-0.7c0,9.1,2.7-4.2,2.7-1.5
		c0,9.1,1.4,10.3,1.4-0.8c0.5,1.3,1,10.2,1.4-0.6c1,7.8,2-4.5,3-1.1c1-3.9,2-15.1,3.1-0.6c0.5,19.2,1-3.2,1.6-0.2
		c0.5,2.6,1-2.8,1.6,0c1-15.1,2.1,7.1,3.1,0.3c1,15.3,2.1,2.2,3.1,0.8c1,0.1,2-1.3,3,0.9c1-2.8,2-2.6,3,0.9
		c1.7-13.8,3.4,2.8,5.2,1.1C525.6,275.1,524.6,266.6,523.5,244.9z M519,235.8c0,5-1.7,5.7-1.7,0.3c-0.6-11.2-1.1-10.9-1.7,0.3
		c-1.1,5.1-2.2,3.9-3.3,0.6c-1.1,8-2.2,9.9-3.3,0.6c-0.5-2.3-1.1-27.1-1.6,0.2c-0.5,8.1-1.1,1.7-1.6,0.2c-1.1-28.6-2.2,12.5-3.3,0.3
		c-1.1-8.4-2.2-25.1-3.3,0.3c0,13.1-1.7,0.1-1.7,0.1c0-13.8-1.7-3.3-1.7,0.2c-2.2-2.4-4.3,2.1-6.4,1c0-1.4,1-4.6,1-0.8
		c0,0.8,2.5,0.1,2.5-1.8c0,11.4,1.3,6.6,1.3-0.9c0.4,5.5,0.9-1.2,1.4-0.7c0.9,9.6,1.9-0.5,2.8-1.3c1-18.1,2-9.9,3-0.8
		c0.5,15,1,4.7,1.5-0.3c0.5-1.2,1-8.9,1.6-0.1c1-11.5,2.1,5,3.1,0c1.1,7.1,2.1-19.6,3.2,0.5c1,6.3,2.1,9,3.1,0.7c1-4.8,2-13.7,3,0.6
		c1.8-11.4,3.5-4,5.3,0.6C521.1,239,520,242.2,519,235.8z M438.8,147.4c7.1,14.4,14.2-17.2,21.3,1.2c6.1-5.4,12.1-5.5,18.1,1.7
		c-0.3,16.8-0.7-3.9-0.9,1.9c-0.4-14.2-0.7-2.4-0.9,3.6c-0.4,12.2-1.1,10.6-2.4,6.4c-1.3,0.9-3.7-5.2-5.3,4.9c-0.4,5-0.8,11.9-1,1.5
		c-1.7,1.3-3.3-33.7-4.8,1.7c-1.1-3.5-2.1-16.5-3.1,1.4c-1,13.6-2,14.3-2.9,1.7c-0.8,4.4-1.5,0-2.2,1.5c0.2,13.1,0.5,2,0.8-0.7
		c0.4,1.2,0.8,6.8,1.1-1c3,16.1,6-15.3,9-9.4c0-2-0.4-7.2-0.4-0.9c-1.2-17.6-2.4-5.5-3.5-14.4c-1.1,6.6-2.2-1.9-3.3,15.7
		c-2.2,8.6-4.2-34-6.2,2.6c-1-1.8-2-10.7-2.9,1.7c-0.9,5.3-1.9-16.6-2.8,1.9c-0.7,0.9-1.4,14.8-2.1,1.7c0.2,27.4,0.5-1.5,0.7-0.8
		c0.4,4.1,0.7,8.7,1-1.1c2.8-18.6,5.5-16.9,8.1-10.1c0,8.6-0.5-15-0.5-0.9c-2.4,7.9-4.6-11.4-6.7,1.9c-2.1,13.5-4.1,6.2-6,3.2
		c-1,15.8-1.9,15.1-2.8,1.9c-0.9-31.4-1.8,2.3-2.6,2.2c-0.7,2.7-1.3,12-1.9,1.9c0.2-10.9,0.4-22.7,0.6-0.8c0.3,1.1,0.6,8,0.9-1.2
		c2.5,7.1,4.9-9.3,7.2-10.8c0,9.4-0.6-17.9-0.6-0.8c-2.4,10.2-4.5,1.3-6.5,2.4c-2,10.5-3.9,17.6-5.7,3.7c-0.9,7.5-1.7-13.7-2.6,2.2
		c-0.8,5-1.7,2.9-2.4,2.4c-0.6-12.7-1.2-9.3-1.8,2c0.2-1.8,0.4-10.1,0.5-0.9c0.3,6.5,0.6-2.9,0.8-1.3c2.2,10.2,4.3,11,6.2-11.4
		c0,16.2-0.6,15-0.6-0.8c-2.3-7.7-4.3,8.6-6.2,3c-1.9-19.2-3.7-8.5-5.3,4.1c-0.9,12.1-1.6-11.8-2.4,2.4c-0.7-8.9-1.5,2.8-2.2,2.6
		c-0.5,9.9-1.1,6.9-1.6,2.2c0.2,5.1,0.3-9.8,0.5-0.9c0.2,2.6,0.5-7.7,0.7-1.4c1.9-20.1,3.7-23.1,5.2-11.9c0-4.7-0.7,6.2-0.7-0.7
		c-2.2-2.9-4.2,4.4-6,3.5c-1.8,3.5-3.5,10.5-5,4.6c-0.8,13.1-1.5-6.5-2.2,2.6c-0.7,7-1.4-12.6-1.9,2.8c-0.5-14-1-4.7-1.4,2.3
		c0.1-5.7,0.3-12.8,0.4-1c0.2,4.4,0.4,0.9,0.6-1.4c1.5-2.6,3-23.4,4.2-12.3c0,6.3-0.8,11.1-0.8-0.6c-2.1-15.6-3.9,21.5-5.6,4
		c-1.7,0-3.2,9.4-4.5,5c-0.7-13.6-1.3-12.3-1.9,2.8c-0.6,3.7-1.2-0.5-1.7,2.9c-0.4-8.4-0.8,9.3-1.2,2.4c0.1-15,0.2,3.9,0.3-1
		c0.2-3.4,0.3-7.1,0.5-1.5c1.2-11.5,2.3-15.4,3.1-12.6c0,4.7-0.8,2-0.8-0.6c-2-5.1-3.7,4.7-5.3,4.5c-1.5-8.3-2.9,9-4.1,5.4
		c-0.6-3.9-1.2-0.8-1.7,2.9c-0.5-1.5-1,9.9-1.4,3c-0.3,8.4-0.7-19-1,2.5c0.1-2.9,0.1,5.7,0.2-1c0.1,7.6,0.2,13.3,0.3-1.5
		c0.8-1.1,1.6-20.9,2-12.8c0,0.7-0.9-21.7-0.9-0.5c-1.9,11.3-3.5,3.2-4.8,4.9c-1.4-5.2-2.6,17.5-3.6,5.7c-0.5,6.4-1,11.4-1.4,3.1
		c-0.4,7.6-0.9-13.8-1.2,3.2c-0.3-9.5-0.5,1-0.7,2.4c0-6.7,0.1-3.9,0.1-0.9c0.1-8,0.1-18.2,0.2-1.5c0.5,6.2,0.9-1.3,0.9-12.9
		c0,1.1-0.9,7.2-0.9-0.4c-1.8,7.9-3.2-4.5-4.4,5.3c-1.2,3.9-2.2,14-3.1,6c-0.5,3.8-0.8,10.4-1.1,3.2c-0.3,10-0.7,20.5-0.9,3.3
		c-0.2,2.3-0.4,1.3-0.5,2.5c0,1.1,0-1.3,0-0.9c0,1.7,0.1-8.9,0.1-1.5c0-3.2,0-10.5,0-1.2c0.2-2.2,0.3,17.4,0.3-1.9
		c0.1,4.7,0.1-12.6,0-3.6c-0.1-1.5-0.2,11-0.3-1.7c-0.1,3.5-0.1-3-0.3-4.6c0-4.3-0.9-1.3-0.9-0.3c-0.2-3.6-0.4-3.1-0.6,0.7
		c-0.1,17-0.2-5.2-0.3-0.4c-1.5,14.1-4,9.5-5.3-4.9c-1.4-6-2-9.2-2.4-6.4c-0.3-1.6-0.5-16.8-0.9-3.6c-0.1,7.9-0.1-9.8-0.2-0.5
		c5.6-8.1,11.2,0.9,16.8-1.4c5.6-2,11.2,5.5,16.8-1.9c5.6-5.9,11.2-1.5,16.9,0.1c5.6-13.4,11.3,7.7,16.9-1.3
		c3.6,20.1,7.1,24.7,10.7,11C431.6,139.6,435.2,144.6,438.8,147.4z M142.1,291.2c0.2,4.3,1.4-14.2,3.2-20.1
		c1.9-5.6,4.5-1.4,7.8-18.8c3.3-2.3,7.2-14,11.5-16.9c4.3,3,9.1-5,14.2-15c2.1-4.2,4.3-0.7,6.5-5.6c2.2,6.1,4.4,8.3,6.6,4.1
		c0,0,6.6,1.6,6.6,4.2c2.1-0.5,4.3,6.3,6.5,4c2.2,4.3,4.5,2.8,6.6,4c2.2-9.3,4.1-4.1,5.6,5.3c1.5,5.8,2.6,8.1,3.1,7
		c0.1,4.1,0.2-0.9,0.3,1.9c0.1,5.4,0.1,4.9,0.1,1.9c0,12.1,0.1,4,0.1,2.2c0-0.5,0.1,10.4,0.1,1.2c0-8.2,0.1-3.7,0.2,1.2
		c0.5,6.2,2,17.7,4.3,8.9c2.3,5.4,5.1,2.7,7.9,5.5c5.7,6.5,11.6,10.3,17.4,4c2.9,10,5.8-6,8.6-0.4c2.8,2.9,5.6,6.7,8.3-1.4
		c5.5-10.7,10.8-2.2,15.8-5.9c0,7.7-0.2,8.6-0.2-1c-5.6,1.8-11-6.8-16.4-1c-5.3,5.4-10.6,1.2-15.6-0.9c-5,3.9-10,0.3-14.5-2.1
		c-2.2,0.9-4.2,5.2-6-2.7c-1.8,13.7-3.3,9.4-4.5-4.6c-0.1-8.8-0.3-7.8-0.4-0.8c0,4.1-0.3,1.7-0.3-0.8c-0.2-2.2-0.4-6.1-0.6-1.8
		c-0.2-3.7-0.4,7.8-0.6-2.1c-0.2,4.2-0.5,9-0.7-2.1c-1,18.5-2.3-6.4-3.6-7.8c-1.3-2.7-2.8,4.2-4.4-7.5c-1.6,1.7-3.4-0.5-5.5-6.8
		c-2.1,1.7-4.5-2-7-5.1c-2.5-3.5-5.1,4.9-7.8-3.5c-1.5-9.3-3,11.7-4.6-1.4c6.9-9.7,14.3-10.2,21.8-14.8c6-2,12.2-2.1,18.5-10
		c6.3-1.4,12.8-2.6,19.3-8.7c1.9,5.8,3.8,2.1,5.7-2.3c0.3-20.8,0.6-3.6,0.9,0.1c1.8-2.1,3.5,3.7,5.1,1.1c1.6-10.7,3-0.6,4.3,1.6
		c2.5-10.6,4.5-1.7,6,5c0.4,3.8,0.7,9.5,1,2c0.2,0.3,0.6,3.1,0.9,2.3c0.1,1,0.3,13.6,0.4,1.2c0.1,1.9,0.3-5.2,0.4,1.3
		c0.1-6.5,0.3,7.2,0.4,1.4c0,1.9,0.4-2.8,0.4,1.6c1.1-4.3,2.5,6.9,3.8,12c0.7,7.3,1.3,2.7,2.1,6.1c0.8-1.2,1.8,4.3,3.2,5.9
		c1.4,6.9,3.1,0.8,5,4.4c1.9-14.2,3.9,5.5,5.9,2.8c0.7,7.9,1.3,4.7,2,0.6c-0.1-2.8,0,1.9,0.2,5.1c0.3,2.3,0.8,3.2,1.5,6.6
		c0.3-4.6,0.7,9.8,1.2,3.2c0.4-17,0.9,2.6,1.4,3.1c0.4,2.6,0.8,3.9,1.3,2.3c-0.2-14.9-0.4,12-0.6-0.8c-0.3-2.6-0.6-13.8-0.9-1.2
		c-2.6,3.3-5.2,6.5-8.5-9.7c0-15.4-0.9,1-0.9,0.3c-0.1-7.5,0.2,30.8,0.7,6.9c0.5,2.7,1.2,5.4,2.1,6.4c0.4,7.6,0.9-12.6,1.4,3.1
		c0.5,8.2,1-5.7,1.7,2.9c0.5-15.2,1,3.2,1.5,2.2c-0.2-7.9-0.5,11.2-0.7-0.8c-0.3,0.9-0.7-12.2-1-1.1c-2.8,0.8-5.8-1.2-9.4-9
		c0-1.3-0.9,1-0.9,0.4c0.1-0.2,0.6-5.7,1.3,6.8c0.7-14,1.6-10.9,2.6,6.2c0.5-3.3,1.1,17.7,1.7,2.9c0.6,11.4,1.2,18.1,1.9,2.8
		c0.5-4.4,1.1-2.3,1.7,2.1c-0.3-3.8-0.5-3.5-0.8-0.7c-0.4-23.1-0.7-7.9-1.1-1c-3.1-12.7-6.3,26-10.1-8.1c0,4.7-0.9-5.8-0.9,0.5
		c0.3,9.7,1-5.3,1.9,6.7c0.9,15,1.9,0.3,3.2,6c0.6-2.6,1.3,2,1.9,2.8c0.7,15.4,1.4,8.9,2.2,2.6c0.6-1.3,1.2,25.4,1.9,1.9
		c-0.3,4.9-0.5,7.6-0.8-0.6c-0.4-18.7-0.8-13.4-1.2-0.9c-3.3,13.2-6.7-9.9-10.8-7.2c0,5.4-0.8-3.4-0.8,0.6c0.5,9.3,1.4,0.8,2.4,6.5
		c1,3.5,2.3,21.1,3.7,5.7c0.7-1.4,1.4-19.1,2.2,2.6c0.8-2.4,1.5-5.1,2.4,2.4c0.7-3.3,1.3-10.6,2,1.8c-0.3-6.8-0.6-1-0.9-0.5
		c-0.4-8.1-0.9,2.8-1.3-0.8c-3.5-5-7.2-5.3-11.4-6.2c0,9.5-0.8-1.7-0.8,0.6c0.7,19.4,1.8-4.4,3,6.2c1.2,8.2,2.6,8.5,4.1,5.3
		c0.7-2.6,1.6,3.2,2.4,2.4c0.8-11,1.7-3.4,2.6,2.2c0.7-2.6,1.4,13.8,2.2,1.6c-0.3,5.8-0.6-23.1-0.9-0.5c-0.5,6.4-0.9,7.2-1.4-0.7
		c-3.7-4-7.5-6.3-11.9-5.2c0,6.9-0.7-1.6-0.7,0.7c0.9,1.1,2.1-2,3.5,6c1.4,15.1,2.9,29,4.6,5c0.8,10,1.7,2.2,2.6,2.2
		c0.9,9.4,1.8,4.6,2.8,1.9c0.8,12.6,1.5-0.3,2.3,1.4c-0.3-4-0.6-15.8-1-0.4c-0.5-1.1-0.9-21.2-1.4-0.6c-3.9-11.3-7.8,2.1-12.3-4.2
		c0,5.1-0.6,13-0.6,0.8c1.1,4.2,2.5,18.1,4,5.6c1.5-9.4,3.2,4.6,5,4.5c0.9-7.5,1.8-6.8,2.8,1.9c1-4.1,1.9,19.8,2.9,1.7
		c0.8-8.4,1.6,4.9,2.4,1.2c-0.3-13.8-0.7-1.1-1-0.3c-0.5,8-1,8.1-1.5-0.5c-4-2-8-9.3-12.6-3.1c0-7.8-0.6-4.5-0.6,0.8
		c1.2-7.3,2.7-1.8,4.3,5c-1.3-4.8-2.6,8.2-3.8,0.4c-1.6,5.1-3.3,6-4.9,0.4c0,3.4-4.9,0.5-4.9,0.4c-6.5-1.8-12.8-2.3-19.1,0.4
		c-6.3,14.2-12.7,9-19.3-0.7c-6.5,1.8-13.3,7-20.3-0.3c-6.9-12.9-13.8,8.6-20.4,3.5c-3.3,2.9-6.6-3.9-9.9,3.6
		c-0.8,8.1-1.6-9.9-2.4,1.2c-0.8,2.9-1.6-5.6-2.3,1.3c-0.8,5.6-1.5,5.7-2.3,1.3c-0.7,2.5-1.5,3.8-2.2,1.5c-2.8,2.1-5.4,4.7-7.6,7.7
		c-1.8-0.9-3.4,1.8-4.3,8.6c0,6.9,0-5.9-0.1-0.1c-4.2-5.7-7.8-11.8-10.9-18.1c-3.1-2.7-5.3-5.4-6.8-19.6
		C142.6,309.7,141.9,310,142.1,291.2z M209.6,391.7c-6.1,4.8-12-3.3-17.7-12.2c-5.7-0.3-11.1-20.1-16.1-14.1
		c-2.7-7-5.3-10.1-7.8-8.4c0.2-6.8,0.5-7.4,1-3.7c0.9-14.9,2.5-6.2,4.3-7.2c1.9-7.4,3.9,9.7,6-6.8c0.5-3,1.1-1.2,1.6-1.8
		c0.5-0.6,1.1-1.2,1.6-1.8c0.5,0.5,1.1,2.1,1.7-1.7c0.6,3.6,1.1-5.4,1.7-1.7c2.3-0.1,5-7.7,8-5.2c2.9-14.5,6.1-10.6,9.4-2
		c3.2,4.3,6.4,1.9,9.6,0.9c1.6-13.5,3.2,3.7,4.8,1.1c1.6-9.2,3.2-10.1,4.8,1.2c3.2,4.5,6.5,1.8,9.8,2c6.6,1.9,13.5,12.6,20.5,2
		c6.3-10.9,12.5-0.8,18.5-2.7c6,8.1,11.8,4.1,17.2-7c0.9,0.4,1.7,12.8,2.6,1.8c0.9-2.8,1.9,3.9,2.9,1.7c1-2.1,2,1.4,3,1.4
		c0.8,6.9,1.7-0.3,2.5,1c-0.3,10.7-0.7,6.1-1-0.2c-0.5,6.6-1,12.3-1.5-0.3c-4.1,14.9-8.2-10.1-12.8-2c0-1.6-0.5,14-0.5,0.9
		c1.4,2.4,3.1-2.1,4.9,4.8c1.8,7.2,3.7,11.4,5.7,3.6c1,10,2,12.6,3.1,1.4c1-7.2,2.1,3,3.2,1.2c0.8,3.4,1.6,1.3,2.4,0.7
		c-0.3-2.1-0.6,1.2-0.9-0.1c-0.5-1.8-1-1.6-1.5-0.2c-4.1-20.6-8.3,5.8-12.9-0.9c0,11.2-0.4,4.2-0.4,0.9c1.6-8.1,3.4,12.2,5.3,4.4
		c1.9,4.1,3.9,10.8,6,3.1c1,4.5,2.1-0.2,3.2,1.1c1.1-8.2,2.1,0.8,3.3,0.9c0.8,7.5,1.6,10.7,2.5,0.5c-0.3,5.7-0.6,5.4-0.9,0
		c-0.5-2-1,5.2-1.5-0.1c-4.2,3.5-8.4,2.6-13,0.3c0-8.7-0.3,8.5-0.3,0.9c1.7-8.2,3.7,6.4,5.7,3.9c2,2.7,4.1-1.3,6.3,2.5
		c1.1-13.1,2.2-4.3,3.3,0.9c1.1,2.7,2.2-5.7,3.3,0.6c0.8,2.4,1.7,5.4,2.5,0.3c-0.3-10.3-0.6,3.2-0.9,0c-0.5,0.1-1,0.9-1.5,0.1
		c-4.1-1.7-8.3-9.6-12.9,1.4c0-9.2-0.3,8.6-0.3,1c1.9,9,3.9,1.2,6,3.4c2.1,16.5,4.3,1.1,6.5,2c1.1,16.7,2.2,0.7,3.3,0.6
		c1.1-7.2,2.2,10,3.4,0.3c0.8-8.6,1.7,8.9,2.5,0.1c-0.3-6.8-0.6-17.7-0.9,0.1c-0.5,3.4-1-9.1-1.5,0.2c-2.8,0.4-5.6-2.9-8.5,1.5
		c-1.9,17.1-3.9,0.5-5.8-0.4c-1.9-5.6-3.8-11.8-5.7,0.3c-1.9-0.2-3.8,9.7-5.6,1c-3.7,11.1-7.3,21.2-10.7,5c-1.7-11-3.5,12.7-4.9,4.4
		c-1.4,8.8-2.5,11.6-2.5,7c0,2.2,0.2-1.4,0.7,3.6c0.2,8.3,0.4-10.4,0.7,1.5c0.2-1.1,0.5-4,0.8,1.4c0.3,3.6,0.6-6.3,0.8,1.3
		c0.2-0.5,0.5-3.7,0.7,1.1c0.4,3.2,0.9-0.2,1.2,2.3c0.3,0.2,0.5,7.9,0.7,2.5c0.2,4.8,0.2,0,0.2,2.6c0,11,0-13.5,0,1.3
		c0-6.1-0.1,10-0.1,1.3c-0.1-1.9,0,2.7-0.1,2.5c0,10.6,0,7.9,0.2,4.8c0,6.7,0.4,10.1,0.4,4.8c0.1-9.1,0.3,1.7,0.4,5.6
		c-5.3-5-10.6-9.5-15.8-5c-5.2-5.6-10.4-3.9-15.5-5.8c-6.7-1.7-13.2-8.9-19.7-8.9C222,383.4,215.7,399.2,209.6,391.7z M284.2,423.4
		c0.1,1.4,0.2,4.2,0.4-0.6c1,12.4,1.7-7.7,2.2-5.5c0.3-3.6,0.4-7.2,0.6-2.9c0.1,2.7,0.2-12.1,0.2-3c0,4.8-0.2-9.7-0.9-5.9
		c-0.3,3.4-0.8-7.2-1.2-2.8c0,3.4-0.7-0.4-0.7-1.3c-0.3-3.5-0.6-2.2-0.8-1.3c-0.6,0.9-1.1,11.1-1.6-2.4c-0.6-6.4-1.1,4-1.6-2.4
		c-0.5-0.5-1,1.3-1.4-2.4c-0.2,16.3-0.4-6.5-0.6-1.2c-0.2-5.2-0.3,13.3-0.5-1.1c-0.5,6.4-0.4-4.1,0.3-3.9c0.7,6.8,1.7-6.5,2.8-2.2
		c1.1-13.1,2.4-6.6,3.8-1.9c2.8,9.4,6.1-7,9.2-3c3.2-13.1,6.4-18.2,9.7-3.8c1.9,1.9,3.8-5.2,5.6-2.6c0.2-3.3,0.3,2.8,0.5,0.2
		c2.2-7.4,4.4-4.5,6.6,1.4c1.1-9.5,2.2-5,3.4,0.3c1.1-3.5,2.2,6.6,3.4,0c0.8-8.1,1.7-2.4,2.5-0.1c-0.3-10.5-0.6,13.7-0.8,0.2
		c-0.5-4.8-1,15.6-1.5,0.3c-4,0.1-8.1-0.6-12.4,3.6c0-10.4-0.1,0.7-0.1,1c2.1,2.3,4.3-11.8,6.5,2.3c2.2,0.4,4.5-11.2,6.7,0.8
		c1.1-10.9,2.2,6.1,3.4,0c1.1-13.7,2.2-3.6,3.4-0.3c0.8-7.1,1.7-21.1,2.5-0.4c-0.3,4.4-0.5-1.8-0.8,0.3c-0.5,12.9-1-2.7-1.5,0.5
		c-3.9,3.7-7.9-4.2-12.1,4.7c0,5.8,0,4.2,0,1c2.2-4.4,4.4-5.4,6.7,1.7c2.3,5,4.5-1.6,6.8,0.3c1.1-6.4,2.2,10.4,3.4-0.3
		c1.1,3.5,2.2-0.1,3.3-0.6c0.8,7.6,1.6-2.6,2.4-0.6c-0.3,1.9-0.5-1.1-0.8,0.3c-0.5,9.4-1,7-1.4,0.6c-3.8-3-7.7,1.8-11.6,5.7
		c0-8.9,0.1-6.7,0.1,1c2.3,4.6,4.6-2.8,6.8,1.1c2.3,4.1,4.5,4.5,6.7-0.3c1.1,1,2.2,2,3.3-0.6c1.1,3,2.2-10.9,3.3-0.9
		c0.9-5.5,1.7,0.3,2.5-0.9c-0.3,2.5-0.6,10.1-0.9,0.5c-0.5-2-0.9,4.3-1.4,0.7c-3.7-16.5-7.3,0.3-11.1,6.7c0-3.7,0.2-8.9,0.2,1
		c2.3,5.2,4.6-2.8,6.9,0.5c2.3-9.6,4.5,1.2,6.7-0.9c1.1,3.5,2.2,11.7,3.3-0.9c1.1,4.2,2.1-5.2,3.2-1.1c0.8,15.5,1.6-6.4,2.5-1.1
		c-0.3,11.2-0.6-10.8-0.9,0.6c-0.4-12.4-0.9,2.1-1.3,0.8c-3.5-1.1-7,6.6-10.5,7.7c0,9,0.3,8.4,0.3,1c2.4-0.1,4.7,8.5,6.9-0.1
		c2.3-3.6,4.5-1.2,6.6-1.5c1.1,8.2,2.1-3.4,3.2-1.2c1-11.4,2.1,6.2,3.1-1.4c0.8,11.9,1.6,7.8,2.3-1.3c-0.3-1.3-0.5,12-0.8,0.6
		c-0.4-1.7-0.8,0.6-1.2,0.9c-3.3,8.6-6.5-7.4-9.7,8.5c0-9.1,0.3,1.7,0.3,0.9c2.4,11.5,4.7-2.9,6.9-0.7c2.2,0.9,4.4-0.7,6.4-2.1
		c0.5-3.5,1,0.4,1.5-0.6c-0.2-8.8-0.3,7.1-0.5,0.4c-0.6-9.3-1.1-13.9-1.4,2.1c-0.2-16.8-0.3-1.6-0.4,2.5c-0.6,13.7-1.3-6.4-1.9,2.2
		c0,2.3,0.4,3,0.4,0.9c0.3,11.9,0.6-8.5,0.9-0.1c-0.6-9.9-1.9,17.3-3.5,3.4c-0.8-0.8-1.6,13.6-2.3,1.6c-0.7,19.6-1.2,1.4-1.7,2.1
		c-0.5-4.5-1,16.1-1.4,2.5c-0.4,8.2-0.7,1.7-0.7,2.9c-0.1,4.7,0-8.8,0.1,2.5c-9.6,9.5-19.3-0.7-28.9-3.2c-8-7.9-15.9-0.6-23.8-4.1
		C299.8,439.3,291.9,416.6,284.2,423.4z M417.4,437.7c-7.9-2-15.7,4-23.6,0.1c-7.9,10.2-15.8-10.9-23.6-0.9c0.3-0.4,0.5-2,0.7-1.6
		c0.3,2.5,0.2-2,0.4-3.5c0.1,11.7,0.2,14.4,0.2-2.1c0-1.2,0-11.9-0.1-1.2c0,3.8-0.1-8-0.1-1.3c-0.1-10.6,0.3-2.2,1.4-4.3
		c1.1,6.7,3.3,2.6,4.7-2c0.7,6.5,1.2,14.4,1.6-1.5c0.2,10.7,0.3-5.3,0.5-0.8c0.9-3.2,1.7-2,2.6-1.2c1-6.7,2,9.1,2.9-1.7
		c0.9,6.9,1.9-3.8,2.8-1.9c0.7-0.9,1.4,0.5,2.1-1.7c-0.2,5.6-0.5,2.8-0.7,0.8c-0.4,11.6-0.7,4.3-1,1.1c-2.8,2.6-5.5,1.8-8.1,10.1
		c0,5.7,0.5-12.9,0.5,0.9c2.4,1.3,4.6,7.5,6.7-1.9c2.1,0.9,4.1-5.8,6-3.2c1,7.1,1.9-15.2,2.8-1.9c0.9-3.1,1.8-6.2,2.6-2.2
		c0.7-13.8,1.3-7.1,1.9-1.9c-0.2,1.9-0.4,7-0.6,0.8c-0.3-10.1-0.6,11.2-0.9,1.2c-2.5,15.5-4.9,1.1-7.2,10.8c0-1.9,0.6-5.5,0.6,0.8
		c2.4,2.9,4.5,7.1,6.5-2.4c2,4.7,3.9-6.9,5.7-3.7c0.9,9.7,1.7-3.6,2.6-2.2c0.8-7.8,1.7,3.8,2.4-2.4c0.6-1.8,1.2,8.4,1.8-2
		c-0.2-1.8-0.4-3.2-0.5,0.9c-0.3,13.2-0.6,3.2-0.8,1.3c-2.2,9.3-4.3,18.8-6.2,11.4c0-6.4,0.6,7.2,0.6,0.8c2.3-19.8,4.3,4.6,6.2-3
		c1.9,11.3,3.7,4.2,5.3-4.1c0.9-0.1,1.6-0.9,2.4-2.4c0.7,9.9,1.5-4.2,2.2-2.6c0.5-3.9,1.1,11.6,1.6-2.2c-0.2-4.3-0.3,0.1-0.5,0.9
		c-0.2-2.5-0.5,5-0.7,1.4c-1.9,2.1-3.7,14.3-5.2,11.9c0,7.6,0.7,4.2,0.7,0.7c2.2,7.2,4.1-11.7,6-3.5c1.8,2.9,3.5-3.5,5-4.6
		c0.8,22.9,1.5,11.3,2.2-2.6c0.7-1.3,1.4-6.1,1.9-2.8c0.5,2.3,1-1.3,1.4-2.3c-0.1-9.3-0.3,0.9-0.4,1c-0.2,10.3-0.4-7.4-0.6,1.4
		c-1.5,9.3-3,7.5-4.2,12.3c0,1.5,0.8,5.5,0.8,0.6c2.1-1,3.9-1.6,5.6-4c1.7-3.6,3.2,7.3,4.5-5c0.7-6,1.3,9.3,1.9-2.8
		c0.6,7.6,1.2-1.2,1.7-2.9c0.4,5.1,0.8,4.6,1.2-2.4c-0.1,10.4-0.2,14-0.3,1c-0.2-2-0.3,1.4-0.5,1.5c-1.2-6.4-2.3,20-3.1,12.6
		c0,1.5,0.8-4.3,0.8,0.6c2-5.6,3.7,0,5.3-4.5c1.5-10.2,2.9,1.9,4.1-5.4c0.6,8,1.2-1.2,1.7-2.9c0.5,0.6,1-0.4,1.4-3
		c0.3,13.3,0.7-6.2,1-2.5c-0.1,9-0.1,1.1-0.2,1c-0.1,0.6-0.1,4.3-0.2,0.9c0,7.2-0.4-0.1-0.4,0.4c-0.1-9.4-0.1-6.4-0.1,1.6
		c-0.7,9.8-1.4,18.4-1.7,11.5c0,10.5,0.9-3.7,0.9,0.5c1.7-4,3.2,0.4,4.4-4.4c1.4,1.5,3.5,9.7,4.6,1.9c1.2,2.8,1.6-12.6,1.4,4.3
		c0,13.3-0.1-1.5-0.1,1.3c0,2.3-0.1,3.9-0.1,1.2c0,4.5,0.1-11.9,0.2,2.1c0.1-12.5,0.1,6.3,0.3,3.2c-7.5,8.8-15.1-1.9-22.6,1.8
		C432.5,428.7,425,442.1,417.4,437.7z M502.7,429.7c-4.9-5.8-9.8,8.7-14.7,2.3c-4.9-15.4-9.8,6.9-14.7,1.9c0,2,0,3.8,0-0.2
		c-0.1,1.8-0.4-2.3-0.7-2.9c-0.4-8.4-0.9-8.4-1.4-2.5c-0.5-8.6-1-1.5-1.7-2.1c-0.7-1.6-1.5-14.8-2.3-1.6c-1.5-2.9-2.7-4.8-3.4-3.1
		c1.6,2.7,2.9-8.5,4-4.9c1.2-14.8,2.2-2.2,3.1-6c0.5,6.8,0.8-8.6,1.1-3.2c0.3-2.9,0.7,2.7,0.9-3.3c0.2,7.6,0.4-14.8,0.5-2.5
		c0,0.8,0,13,0,0.9c0-1.8-0.1,2.3-0.1,1.5c-0.1,0-0.2,27.5,0.3,13c0-3.5,0.9-3,0.9,0.3c1.7-12,2.9-4.9,3.9-5.7
		c1.1,4,1.9-9.5,2.5-6.3c0.4,1.4,0.6,6.1,0.9-3.3c0.2-4.9,0.5-0.7,0.6-3.3c0.1-5.6,0.2,0.4,0.3-2.5c0-11.6,0-5.2,0,0.9
		c0-2.9,0-2.4,0.1,1.5c0.2,4.9,0.5,10.5,1.4,12.9c0-2.4,1-0.9,1,0.3c1.5-2.9,2.5-13.1,3.4-6c0.9-1,1.5,5.1,2-6.5
		c0.3,2,0.4-3.6,0.6-3.3c0.1-0.8,0.3-1.7,0.3-3.4c0,4.2,0.1-10.7,0.1-2.5c0-5.2,0.1,12.1,0.1,0.9c0.1-6.8,0.1,5.3,0.2,1.5
		c0.6-8.6,1.3,13.6,2.5,12.7c0-10.2,1-7.6,1,0.2c1.3,5.5,2.2-14.9,2.9-6.3c0.7-4.4,1.1-17.2,1.4-6.6c0.2-9.2,0.2-8.8,0.3-3.4
		c0-6.5,0.1-6.2,0-3.4c0,9-0.1,16.3-0.1-2.5c0.1,0.3,0.1,12.2,0.2,0.8c0.1-0.5,0.2-0.7,0.3,1.5c1-2.9,2-5.1,3.6,12.4
		c0-14.1,1-3.4,1,0.1c1.1-10.9,1.8-3.9,2.3-6.5c0.5-11.1,0.8-10.4,0.8-6.7c0.1-3.7,0,4.9,0-3.4c-0.1-1.1-0.1-2.2-0.3-3.4
		c-0.1-0.8-0.2-1.7-0.4-2.5c0.1,0.3,0.2,0.5,0.3,0.8c0.2,0.5,0.3,1,0.5,1.5c1.3,3.9,2.7,4,4.7,12.1c0,14.1,1,7.4,1,0
		c1-4.1,1.4,6.4,1.7-6.7c0.3-2.3,0.4-4.5,0.3-6.8c0-1.1-0.2-2.2-0.3-3.4c-0.2-1.1-0.3-2.2-0.6-3.3c-0.2-0.8-0.4-1.6-0.6-2.4
		c0.1,0.3,0.2,0.5,0.3,0.8c0.2,0.5,0.4,1,0.6,1.4c1.6,3.8,3.4,7.7,5.7,11.6c0-2.1,1-2.3,1-0.1c0.8-2.3,1-4.6,1.1-6.8
		c0-0.7,0-1.3,0-2c2.2,1.2,4.4,2.2,6.6,3.1c3.3,1.4,6.5,2.6,9.7,3.8c3.2-2,6.4-0.9,9.2,3c1.4,13,2.7-6.5,3.8,1.9
		c1.1,15.4,2.1-3.5,2.8,2.2c0.7-9.4,0.8-3.4,0.3,3.9c-0.1-11.3-0.3,12.5-0.5,1.1c-0.2-5-0.4,1-0.6,1.2c-0.4,0.3-1,8.7-1.4,2.4
		c-0.5,12.4-1,13.5-1.6,2.4c-0.6,7.1-1.1,1.9-1.6,2.4c-0.3-7.6-0.6-15.3-0.8,1.3c0-2.8-0.7,5.3-0.7,1.3c-0.5,1.2-1,13.8-1.2,2.8
		c-0.7-0.4-0.9-0.8-0.9,5.9c0,4.8,0.1,7.7,0.2,3c0.2,1,0.3,1.8,0.6,2.9c0.3,0.4,0.5-7.3,0.9,2.9c-7.4-10.3-14.9,6.2-22.4,5.3
		C517.8,418,510.3,436,502.7,429.7z M624.5,390.6c-6.3-5.3-12.7,17-19.2,9.6c-6.5,8.3-13.1-1.4-19.8,8.1
		c-5.1,10.4-10.2,5.2-15.4,5.3c-5.2,7.3-10.4-9.5-15.6,4.7c0,4.5,0.1,1.2,0.1-1.8c0-10.9,0.4-9.1,0.4-4.8c0.2-16.1,0.3,4.5,0.2-4.8
		c-0.1,4.4-0.1,7.1-0.1-2.5c0-18.9-0.1-0.6-0.1-1.3c0,9.6,0-2.8,0-1.3c0-7.9,0-1.8,0.2-2.6c0.2-12.7,0.4-16.6,0.7-2.5
		c0.3-10.1,0.7-19.1,1.2-2.3c0.2-4.1,0.4-3.8,0.7-1.1c0.3-4,0.5-1,0.8-1.3c0.3,9,0.6,5.1,0.8-1.4c0.3,0.4,0.5-2.6,0.7-1.5
		c0.4-0.5,0.7-10.8,0.7-3.6c0-8-1.1-6.9-2.5-7c-1.4-1.9-3.2-3.2-4.9-4.4c-3.4-2.3-7-4.1-10.7-5c-1.9-0.5-3.7-0.8-5.6-1
		c-1.9-0.2-3.8-0.3-5.7-0.3c-0.4,0-0.9,0-1.3,0c0-1,0-2,0-2.9c-0.1-2.3-0.4-2.1-0.9-6.7c-0.2-14.4-0.5,5.7-0.9-3.3
		c-0.3-4.7-0.7,4.3-1.1-3.2c-0.3-1.8-0.7,5.8-1.1-2.5c0.2-7.5,0.4,4.7,0.6,0.9c0.3,2,0.5-6.2,0.8,1.3c2.3,3.7,4.6,13.2,7.7,10.5
		c0-10.1,1-7.8,1-0.3c0.4-3,0.2,1.4-0.1-6.9c-0.3-1.5-0.8,2.2-1.5-6.6c-0.3-1.9-0.7,10.3-1.2-3.2c-0.4,0.4-0.9,0.5-1.4-3.1
		c-0.4-16-0.8,7.7-1.3-2.3c0.2,4.6,0.4,4.4,0.6,0.8c0.3,3.5,0.6,4,0.9,1.2c2.6,2.8,5.2,9.2,8.5,9.7c0,13.7,0.9,0.4,0.9-0.3
		c0.1-1.5-0.2,1.1-0.7-6.9c-0.5-9.8-1.2-20.5-2.1-6.4c-0.4-23.8-0.9-19.5-1.4-3.1c-0.5-5.2-1-3.6-1.7-2.9c-0.5,10.6-1-0.7-1.5-2.2
		c0.2-14.6,0.5,1.5,0.7,0.8c0.3,7.6,0.7-1,1,1.1c2.8,10.1,5.8,19.9,9.4,9c0,10,0.9-11.9,0.9-0.4c-0.1,7.6-0.6,10-1.3-6.8
		c-0.7-6.9-1.6,4.5-2.6-6.2c-0.5-3.6-1.1,9.3-1.7-2.9c-0.6,3.4-1.2-15.2-1.9-2.8c-0.5-3.9-1.1-13.7-1.7-2.1
		c0.3,0.2,0.5-18.5,0.8,0.7c0.4-18.4,0.7-0.3,1.1,1c3.1-7.9,6.3,2.4,10.1,8.1c0-7.1,0.9-8.3,0.9-0.5c-0.1-18.9-0.2-4.8-0.4-2.3
		c4.4-2.9,9.1,6.6,13.8,8.5c4.7,5.8,9.6-2.1,14.4-2.4c7-4.8,13.9,1.8,20.5-2c3.3-15.2,6.6-12.6,9.8-2c1.6-1.9,3.2,5.9,4.8-1.2
		c1.6-5.1,3.2-11,4.8-1.1c3.2,4.5,6.4-6.2,9.6-0.9c3.2-7.5,6.4-10.3,9.4,2c2.9-8.7,5.6,15.3,8,5.2c0.6,17.8,1.1,7.4,1.7,1.7
		c0.6-2.5,1.1,9.6,1.7,1.7c0.5-0.4,1.1-9.8,1.6,1.8c0.5-3.2,1.1-7.7,1.6,1.8c2.1,11.4,4.2,0.4,6,6.8c1.8,3.3,3.4,2.6,4.3,7.2
		c1,15.4,1.4,2.2,0.9,7.9c-0.2-1.7-0.4-2.5-0.7,2.9c-0.7,3-1.4,4.1-2.2,2c-5.3,4.8-11,9.2-16.9,13.3
		C636.9,383.4,630.7,385,624.5,390.6z M694.3,312.6c-1.8,9.4-4.5,15.9-7.9,20c-4.6,12.2-10.4,17.8-17,23.7c0.1,1.6,0-5.7-0.3-5
		c-0.8-3.6-2.6-12.2-4.8-10.5c-2.1,6.7-4.8-1.5-7.6-7.7c-0.7-20.1-1.4-15.1-2.2-1.5c-0.8,11.7-1.5-13.2-2.3-1.3
		c-0.7,4.3-1.5-15.1-2.3-1.3c-0.8,13.3-1.6,3.4-2.4-1.2c-3.2,12.8-6.6-7-9.9-3.6c-6.6-5.4-13.5,13.3-20.4-3.5
		c-6.9-5.8-13.7-3.7-20.3,0.3c-6.6-8.1-13,13.6-19.3,0.7c-6.3,13.2-12.7-8-19.1-0.4c0-0.8-4.9-3.7-4.9-0.4
		c-1.6-11.4-3.3,7.2-4.9-0.4c-0.5,11-1,13-1.5-0.2c-0.7,10.2-1.5-11.6-2.4-4.3c-0.6,9.6-1.3,13.2-1.9-2.8
		c-0.7,20.5-1.4,19.1-2.2-2.6c-0.6,3.8-1.2-8-1.9-1.9c0.3-14,0.5,11.4,0.8,0.6c0.4-6.2,0.8-14.3,1.2,0.9c3.3,23.3,6.7-0.8,10.8,7.2
		c0,1.7,0.8,15.3,0.8-0.6c-0.5-8.2-1.4-6.8-2.4-6.5c-1-15.1-2.3,8.7-3.7-5.7c-0.7-23.8-1.4,7.1-2.2-2.6c-0.8,5.8-1.5-1.5-2.4-2.4
		c-0.7-1.5-1.3-4.4-2-1.8c0.3-13.8,0.6,10.9,0.9,0.5c0.4-7.5,0.9-3,1.3,0.8c3.5,20.6,7.2-13.2,11.4,6.2c0-21,0.8,5.9,0.8-0.6
		c-0.7-4.8-1.8,10.8-3-6.2c-1.2,17.2-2.6,3.6-4.1-5.3c-0.7,13.2-1.6-14.5-2.4-2.4c-0.8,8.3-1.7-13.6-2.6-2.2
		c-0.7,9.9-1.4,4.6-2.2-1.6c0.3-8.3,0.6-6.4,0.9,0.5c0.5,4.5,0.9-14.3,1.4,0.7c3.7-12.6,7.5,3.7,11.9,5.2c0-10.7,0.7-4.5,0.7-0.7
		c-0.9-17.1-2.1-12.6-3.5-6c-1.4-6.3-2.9-16.5-4.6-5c-0.8,32.4-1.7,2.5-2.6-2.2c-0.9,7-1.8-28.8-2.8-1.9c-0.8,2.4-1.5-15.6-2.3-1.4
		c0.3-3.4,0.6,25.6,1,0.4c0.5-14.9,0.9-13.1,1.4,0.6c3.9-7.5,7.8-5,12.3,4.2c0-28.1,0.6,12,0.6-0.8c-1.1-1.1-2.5-3.3-4-5.6
		c-1.5-0.6-3.2-0.4-5-4.5c-0.9-17.6-1.8-11.2-2.8-1.9c-1,20.3-1.9,5.7-2.9-1.7c-0.8,10.7-1.6-2-2.4-1.2c0.3-7.1,0.7,3.6,1,0.3
		c0.5,15.5,1-3.2,1.5,0.5c4,10.4,8-11.1,12.6,3.1c0-21,0.6,2.3,0.6-0.8c-1.3-13.1-2.8,2.5-4.5-5.3c-1.7,2.5-3.5,29.3-5.4-4.1
		c-0.9-13.8-1.9,3.3-2.9-1.7c-1,10.1-2,0.5-3-1.4c-0.8-19.4-1.7-16.5-2.5-1c0.3-0.8,0.7,1.3,1,0.2c0.5,9.9,1,12.1,1.5,0.3
		c4.1-7.3,8.2,17.2,12.8,2c0,3.5,0.5,14.9,0.5-0.9c-1.4-35.2-3.1,9.1-4.9-4.8c-1.8-8.9-3.7-6.5-5.7-3.6c-1,21.1-2-0.9-3.1-1.4
		c-1-9.3-2.1,26.7-3.2-1.2c-0.8-8-1.6-1.4-2.4-0.7c0.3,6,0.6-20.2,0.9,0.1c0.5-1.4,1-2.9,1.5,0.2c4.1,3.2,8.3,16,12.9,0.9
		c0-12.9,0.4,6.8,0.4-0.9c-1.6,4.1-3.4-6-5.3-4.4c-1.9,3-3.9-16-6-3.1c-1,10-2.1,0-3.2-1.1c-1.1,12.5-2.1,12.9-3.3-0.9
		c-0.8,10.2-1.6,11.7-2.5-0.5c0.3-7.6,0.6,6.5,0.9,0c0.5,6.4,1,14.9,1.5,0.1c4.2-5.7,8.4,0.6,13-0.3c0-19.3,0.3-7.3,0.3-0.9
		c-1.7-6.9-3.7-7-5.7-3.9c-2-4.3-4.1-6.4-6.3-2.5c-1.1-0.8-2.2,6.7-3.3-0.9c-1.1,14.7-2.2-13.6-3.3-0.6c-0.8,5.2-1.7,22.7-2.5-0.3
		c0.3-0.8,0.6,9.4,0.9,0c0.5,5.3,1-2.2,1.5-0.1c4.1-15.6,8.3,1.3,12.9-1.4c0,18.9,0.1,17.5,0.1,16.1c0.1-3.3,0.1-24.6,0.1-17.1
		c-0.1,26.6-0.1,15.3-0.2-0.1c0.3,14.5,0.5,0.9,0.8-0.2c2.1,6.8,4.1-10.4,5.9-2.8c1.9-15.4,3.6-14.4,5-4.4c1.4-7.7,2.4-0.4,3.2-5.9
		c0.8,17,1.4-11,2.1-6.1c1.3-6.3,2.7-3.3,3.8-12c0,4.4,0.4-3,0.4-1.6c0.1,16.6,0.3,3,0.4-1.4c0.1-3.7,0.2-3.7,0.4-1.3
		c0.1-1.7,0.3-11.1,0.4-1.2c0.2-13.1,0.6-7.5,0.9-2.3c0.4-1.3,0.6-0.7,1-2c1.5,0.2,3.5-8.5,6-5c1.3-2.1,2.7-18.7,4.3-1.6
		c1.6-12.2,3.3-12.2,5.1-1.1c2.4,0.7,5,11.5,7.6-0.9c0.5,9.1,0.9,0.5,1.4,0.5c6.7,0.1,13.3,4.1,19.8,8.1
		c6.5,13.7,12.9,24.4,19.2,9.6c4.6-1.3,9,10.4,13.4,8c4.4-3.5,8.6,12.8,12.8,9c-1.4-7.4-2.8-7.1-4.2,0.6c-2.8-19-5.5-12.1-8.2,2.2
		c-2.7-0.5-5.3,15.4-7.8,3.5c-2.5,5.3-4.9,4.9-7,5.1c-2.1-6.3-3.9,2.4-5.5,6.8c-1.6,13.7-3,31.7-4.4,7.5c-1.3-17.9-2.6,4.8-3.6,7.8
		c-0.2,7.1-0.5-20.9-0.7,2.1c-0.2,14.5-0.4,1.9-0.6,2.1c-0.2-0.1-0.4-7-0.6,1.8c0,11.3-0.3,15.1-0.3,0.8c-0.1,2.7-0.3-12.4-0.4,0.8
		c-1.1-1.6-2.7-0.3-4.5,4.6c-1.8-16.7-3.8-3.4-6,2.7c-4.4,5.9-9.4,6.2-14.5,2.1c-5.1,9-10.3,13.3-15.6,0.9
		c-5.3-5.2-10.8,13.9-16.4,1c0,14.6-0.2,5.1-0.2,1c5-3.5,10.4,9.5,15.8,5.9c2.7,1.2,5.5,17.4,8.3,1.4c2.8-18.1,5.7,10.5,8.6,0.4
		c5.8-5.1,11.7,8.4,17.4-4c2.8,1.6,5.7-13.5,7.9-5.5c2.3-8.1,3.8-7.9,4.3-8.9c0.1-6.6,0.2-7.8,0.2-1.2c0,14.9,0.1-3.5,0.1-1.2
		c0-0.1,0.1,0.5,0.1-2.2c0-15.1,0-18.4,0.1-1.9c0.1-15.7,0.2,15.6,0.3-1.9c0.6-14.9,1.6,3.5,3.1-7c1.5-6.5,3.5-25.9,5.6-5.3
		c2.1-13.9,4.4-4.3,6.6-4c2.2,5.1,4.4,10.4,6.5-4c0,18.4,6.6-7.3,6.6-4.2c3.9-12.7,7.8,2.6,11.8-7.6c2.1,14.8,4.2-9.7,6.2,5.3
		c5.3-12.8,10.3,9.9,14.9,15.5c4.5,2.6,8.6,8.5,12,17.8c3.4,9.2,6.1,4,7.9,20c1.9,4.4,2.7,5.6,2.8,21.3
		C697,297.6,696.2,308.1,694.3,312.6z"/>
</g>
</svg>
