<svg id="Calque_1" data-name="Calque 1" xmlns="http://www.w3.org/2000/svg" width="29.7cm" height="21cm" viewBox="0 0 841.89 595.28">
  <defs>
    <style>
      .cls-1 {
        fill: #5f5e5e;
      }
    </style>
  </defs>
  <title>Plan de travail 1</title>
  <g>
    <path class="cls-1" d="M414,275.72c-3.33-11.27-6.51-1.78-9.4,3-2.89,1.07-5.49,1.32-7.68,4.11-2.18,9.07-3.95,10.82-5.17,11.21-1.23-.32-1.9,0-1.9,5.87,0,14,.67,4.6,1.9,10.64,1.22,0,3,3.42,5.17,6.43,2.19,1.65,4.79-5.08,7.68,3.41,2.89.42,6.07,4,9.4,3.67,3.33-1,6.51,3.52,9.4-.27,2.89-6,5.49-6.82,7.68-6.81,2.18-5.57,4-5.37,5.17-9.77,1.23-9.38,1.9-9.38,1.9-7.3,0-2.8-.67-3.78-1.9-11.12-1.22-3.89-3-1.58-5.17-6-2.19.14-4.79-5.61-7.68-1.88C420.52,270.15,417.34,278,414,275.72Z"/>
    <path class="cls-1" d="M414,247.67c-3.6,1.93-7.11,8.85-10.51.63-3.39-3-6.67-1.69-9.79,3.48-3.12,5.51-6.09,2.44-8.87,5.3s-5.37,6-7.73,5.9c-2.36,4.64-4.5,15.81-6.38,11.91-1.88,2.74-3.5-1.94-4.82,4.68-1.32,12.56-2.35,6.36-3.05,9.94a51.9,51.9,0,0,0-1.06,10.37c0,3.66.37-1.61,1.06,6.21.7,3.08,1.73,12.4,3.05,14.09,1.32.76,2.94,4,4.82,8.79,1.88.69,4,1.41,6.38,7.8,2.36,1,4.95,1.39,7.73,6.68,2.78,4.14,5.75,2.79,8.87,4.52,3.12,4.5,6.4,2.18,9.79,4.32,3.4-.11,6.91,5.78,10.51-.21,3.6-3.28,7.11,2.71,10.51-2.46,3.39-2.49,6.67-4.06,9.79-1.65,3.12-6.7,6.09-5.94,8.87-5.32,2.78-1.79,5.37,2.64,7.73-5.88a62.36,62.36,0,0,1,6.38-9.46c1.88-.87,3.5-7.37,4.82-7.13,1.32-3.08,2.35-13.3,3.05-10.49.69-7.44,1.06-7.16,1.06-9.81a27.43,27.43,0,0,0-1.06-8.56c-.7-8.55-1.73-5-3.05-11.75-1.32-5.36-2.94-1.76-4.82-7.71-1.88-10.14-4,5.15-6.38-8.88-2.36-4.13-5-12.92-7.73-9.5-2.78-6.15-5.75-3.56-8.87-1.7-3.12-2-6.4,3.79-9.79-2.25C421.12,246.34,417.61,239.5,414,247.67Zm0,89.41c-3.42,7.39-6.73,1.75-9.88-.33a44.23,44.23,0,0,0-8.88-4.75c-2.76-.61-5.29-3.41-7.54-3.22-2.24-7.53-4.2-11.47-5.82-10.14-1.62-9.29-2.89-8-3.76-11.92-.86-11.57-1.33-3.33-1.33-6.84,0-4.42.47-5.87,1.33-10.13.87-.28,2.14-5.41,3.76-8.64,1.62,1.67,3.58-.53,5.82-9.15,2.25-3.55,4.78-.79,7.54-4.21,2.75-7.75,5.73,2.44,8.88,0,3.15,4.65,6.46,3.07,9.88-5.08,3.42,9.71,6.73,6.77,9.88,5.3,3.15-.27,6.13,10,8.88-.22,2.76.32,5.29,4.69,7.54,6.66,2.24,1.29,4.2,4.75,5.82,6.7,1.62.82,2.89,8.22,3.76,9.7a67.73,67.73,0,0,1,1.33,9.07c0,1.51-.47,8.76-1.33,8.83-.87,7.58-2.14,8.35-3.76,9.93-1.62,4.43-3.58,10.34-5.82,9.28-2.25,4-4.78,2-7.54,4.08-2.75,4-5.73,3.75-8.88,6.18C420.74,343.37,417.43,341.54,414,337.08Z"/>
    <path class="cls-1" d="M414,219.58c-4.43,7-8.77,6.57-13,7-4.23,4.58-8.36-3.59-12.34-2.87-4,.2-7.84,5.09-11.52,3-3.68,1.51-7.2,2.12-10.52,8.43-3.32,5.67-6.45-.44-9.36,7.28-2.91,2.36-5.6,6.78-8,10.11-2.44,2.05-4.63,6-6.54,10-1.91-4.35-3.55,8.81-4.88,12.07-1.33,4.8-2.35,1.81-3,9.67-.7.47-1.06,15.64-1.06,15.69,0,7.78.36,7.37,1.06,11.75.69.42,1.71,11.71,3,13.6,1.33,3.83,3,9.06,4.88,12.74,1.91,4.84,4.1,3.21,6.54,9.3,2.43,8.48,5.12,6.12,8,8.57,2.91-1.86,6,5.91,9.36,8.82,3.32,6.86,6.84,1,10.52,6.16,3.68.21,7.53,8.78,11.52,5.25,4-1.8,8.11,3.43,12.34,6.15,4.24,2.48,8.58-.43,13-2.05,4.43,1.08,8.77-1.13,13-.22,4.23-.71,8.36,0,12.34-3.88,4,3.44,7.84.17,11.52-2.75,3.68-3.3,7.2-5.77,10.52-8.66,3.32-5.11,6.45,1.49,9.36-3.92,2.91-4,5.6-.31,8-13.47,2.44-5.54,4.63-3.51,6.54-12,1.91-4.08,3.55-3.89,4.88-10.06a47.91,47.91,0,0,0,3-14c.7-3,1.06-14.74,1.06-11.31,0-15.29-.36-4.61-1.06-12.32-.69-8.18-1.71-13.33-3-13-1.33-2.51-3-6.27-4.88-13.74-1.91-13.6-4.1,1.4-6.54-8.3-2.43-2.13-5.12.33-8-5.88-2.91-7.46-6-10.59-9.36-11.51-3.32-10.19-6.84-17.4-10.52-20-3.68-.17-7.53,3.37-11.52,8.55-4,2.52-8.11,4.24-12.34-.49C422.78,228.18,418.44,220.76,414,219.58Zm0,145.59c-4.5.08-8.9.63-13.14-3.57-4.25-.78-8.35-2.86-12.25-1.57-3.91,1.85-7.62,5.72-11.09-2.9a78.89,78.89,0,0,1-9.67-11.1,76,76,0,0,0-8-10.13c-2.35-6.17-4.37-2.88-6-10.63-1.65-3.27-2.94-10.81-3.81-12.89a105.88,105.88,0,0,1-1.33-12.5c0-15.15.46-9.19,1.33-18.6.87-6.34,2.16-8.89,3.81-6.8,1.66-5.7,3.68-11.63,6-10.12,2.35,4.12,5-9.93,8-10.63,3-5,6.19-.38,9.67-9.24,3.47.41,7.18-5.38,11.09-4.77,3.9-3.06,8-3.31,12.25-4.39,4.24-8.85,8.64-8.82,13.14-.75,4.5,4,8.9,6.54,13.14,5.75,4.25,3.06,8.35-5.76,12.25-.61,3.91-4.12,7.62-2.81,11.09,1.56,3.48-1.61,6.71-2.6,9.67,12.45,3,12.38,5.63,2.94,8,9.83,2.35,0,4.37,13.73,6,10.92,1.65-1.06,2.94,5.81,3.81,10.87.87,11.42,1.33,15.13,1.33,14.53,0,.63-.46,10.48-1.33,14.23-.87,11.55-2.16,5.63-3.81,11.16-1.66,5-3.68,6.93-6,9.49-2.35,2.32-5,12.49-8,11.27-3,3-6.19,10.52-9.67,7.83-3.47,2.89-7.18,2.57-11.09,6.17-3.9,1.16-8,6-12.25,4.23A20,20,0,0,1,414,365.17Z"/>
    <path class="cls-1" d="M414,192.8c-4.92,2.89-9.76-4.18-14.51-1-4.75,4.59-9.39,1.15-13.92,4.8-4.53-1.53-8.94-2.94-13.21-1-4.27.82-8.39,5.73-12.36,11.85-4,12-7.77,13.92-11.39,16.93-3.62,1-7.05,1.6-10.29-.17-3.23,5.86-6.25,13.62-9.05,12.14-2.8-.91-5.38,5-7.7,9.54-2.33,11-4.41,14.8-6.21,15.55-1.81,9-3.35,5.07-4.6,10-1.25,2.8-2.21,9.46-2.85,14.58a91.38,91.38,0,0,0-1,13.86c0,4.27.33,12.14,1,13.21.64,1.29,1.6,8.76,2.85,15.22a71.18,71.18,0,0,0,4.6,14.9c1.8,3.68,3.88,8.2,6.21,10.66,2.32,4.62,4.9,8.73,7.7,13.8,2.8.28,5.82,4.3,9.05,7.88,3.24,5.67,6.67,5.89,10.29,12,3.62,2.65,7.42,10.54,11.39,4.77,4,2.73,8.09,4.56,12.36,4.75,4.27,4.15,8.68,5.35,13.21,6.06,4.53-3.67,9.17,1.48,13.92-.6,4.75.12,9.59,3.62,14.51,4.43,4.92,1.82,9.76,5.07,14.51,2.53s9.39-5.37,13.92-6.36c4.53,1.28,8.94-6.5,13.21-3.16,4.27.59,8.39-7.52,12.36-7.65,4-1.41,7.77-2.76,11.39-6.12,3.62-4.48,7.05-8.5,10.29-10.64,3.23-5,6.25-15,9.05-12.21s5.38-3.16,7.7-9.47c2.33-2.89,4.41-8.83,6.21-10.31,1.81,3.25,3.35-13.37,4.6-15.25,1.25-11.83,2.21-11.81,2.85-14.79.65-1.92,1-4.82,1-13.64,0-3.26-.33-4-1-12.75-.64-12.28-1.6-8.92-2.85-15.69-1.25-1.2-2.79,1.62-4.6-13.56-1.8-7.31-3.88-8.75-6.21-12-2.32-1.55-4.9-10.68-7.7-9.37-2.8-3.75-5.82-4.48-9.05-12.31-3.24-15.16-6.67-9.64-10.29-11.87-3.62-1.52-7.43-2.22-11.39-4.89-4,.58-8.09-.94-12.36-5.15-4.27-4-8.68-4.34-13.21-5.66a32.65,32.65,0,0,0-13.92-7.12C423.77,189.52,418.93,193.93,414,192.8ZM414,392c-4.23,1.22-8.4-4.48-12.48-3.16-4.08-5.38-8.07-.73-12-.14-3.89,3.61-7.68,4.42-11.35.72-3.67-.88-7.22-3.18-10.63-10-3.41-5.08-6.69-10-9.8-8.08-3.11-1.09-6.07,1.47-8.84-6.33-2.78,2.06-5.39-3.87-7.79-6.7-2.41-7-4.62-7.27-6.62-11.94-2-8.27-3.79-7.39-5.35-11.89-1.55-3.69-2.87-6.08-3.95-10.1-1.07-.16-1.89-1.7-2.45-7.14-.56-8.35-.84-14.92-.84-17.3,0-5.38.28,1.7.84-11.87.56-7.29,1.38-6.14,2.45-12.58,1.08,8.67,2.4,0,3.95-8.5,1.56,2.52,3.35-14.47,5.35-13.49,2-3.32,4.21-8.37,6.62-10.32,2.4-3.59,5-8,7.79-8.32,2.77-6.27,5.73-13.55,8.84-15.23a8.35,8.35,0,0,1,9.8.82c3.41-7.22,7-11,10.63-9.3,3.67-3.44,7.46,3,11.35,0,3.9-4,7.89-9.24,12-5.88,4.08,3.52,8.25,1.49,12.48,2.58,4.23,3.89,8.4,2.68,12.48,1.81,4.08-.33,8.07,7.14,12,1.49,3.89,5.94,7.68,3.68,11.35,6.54,3.67-2.26,7.22,3.24,10.63,2.75,3.41,2.52,6.68.35,9.8,7.88,3.11-2.77,6.07,12.66,8.84,6.53,2.78,9,5.39,6.06,7.79,11,2.41,5.33,4.62,18,6.62,7.68,2,14.77,3.79,3.92,5.35,11.88,1.55,12.63,2.87-.26,4,10.11,1.07-3.55,1.89,1.4,2.45,11.23.56-2.06.84,8.08.84,13.22,0,7.84-.28,15.19-.84,14.29-.56-3-1.38,3.49-2.45,10.15-1.08,5.4-2.4,8.76-4,8.93-1.56-.84-3.35,9-5.35,13.06-2,3.27-4.21,3.23-6.62,8.57-2.4,2.78-5,6.38-7.79,10.07s-5.73-4-8.84,4.73c-3.12,3-6.39,7.13-9.8,9.68-3.41,4.24-7,3-10.63,3.46-3.67,1.78-7.46.93-11.35,5.83-3.9-.61-7.89,2-12,.87C422.41,390.9,418.24,391.19,414,392Z"/>
    <path class="cls-1" d="M414,165.42c-4.63-2-9.21-.13-13.73-1.87-4.51-1.56-9,.26-13.33,4.61-4.37,1-8.67,2.87-12.88,1.74-4.21.93-8.32,2.17-12.34,6.11-4,1.89-7.94,2.75-11.75,4.89-3.81,7.39-7.51,8-11.09,7.52-3.58,4-7,.78-10.35,7.14-3.33-.22-6.51,2.07-9.56,9.29-3,8-5.94,1.68-8.68,5.39-2.74,3.09-5.33,7.21-7.75,14.51a47.42,47.42,0,0,0-6.74,9.61c-2.07,8.42-4,9.52-5.67,13.23-1.7,10.56-3.21,28.16-4.53,15.2-1.31,10.49-2.42,3.24-3.31,10-.9,10.86-1.59,18.19-2.05,9-.46,14.93-.69,12.67-.69,18.06a112.67,112.67,0,0,0,.69,14.05c.46,1.06,1.15,15.22,2.05,13,.89,2.91,2,16.65,3.31,13.66,1.32,1.2,2.83,9.07,4.53,11.56,1.7,7.23,3.6,14.52,5.67,11.21,2.07,1.2,4.32,4.68,6.74,11.63,2.42,1.8,5,1.5,7.75,10.55,2.74,3.71,5.64,7.27,8.68,9.35,3,.36,6.23-.46,9.56,4.47,3.32,3.43,6.77,11.64,10.35,12,3.58,2.92,7.28,2.77,11.09,6.91,3.81,1.33,7.73-.8,11.75,5.5,4,2.07,8.13,9.82,12.34,6.71,4.21,1.05,8.51-.29,12.88,1.14s8.82,3.7,13.33,3.08c4.52-3.5,9.1-2.18,13.73-.34,4.63.65,9.21,1.59,13.73-2.54,4.51.14,9-3.39,13.33-.2,4.37,2.37,8.67-2.91,12.88-5.12,4.2,0,8.32.72,12.34-2.73,4,.45,7.94.15,11.75-8.88,3.81-4.44,7.51,2.58,11.09-3.53,3.58-7.77,7-6.18,10.35-7C502.81,398,506,403,509,394.9c3-.12,5.94-19.26,8.68-14.25,2.74-4.1,5.33-6.48,7.75-5.65,2.42-12,4.67-15.37,6.74-8.82,2.07,1,4-3.49,5.67-14,1.7-.41,3.21-11.13,4.53-16.63,1.31-7.58,2.42-5.95,3.31-8.59.9-2.48,1.59-3.14,2-11.73.46-11.72.69-11.22.69-15.33,0-10.75-.23-11-.69-12.81a135.94,135.94,0,0,1-2-14.26c-.89,4.71-2,7.81-3.31-6.36-1.32-10.31-2.83-13.62-4.53-18.86-1.7-14.18-3.6-9.82-5.67-13.39-2.07-8.46-4.32-.52-6.74-9.45-2.42-13.3-5-10.66-7.75-11.29-2.74-1.68-5.64-.74-8.68-8.61-3.05-4.14-6.23,1.32-9.56-8.85-3.32.41-6.77,1.3-10.35-7.58-3.58,3.48-7.28-.33-11.09-2.61-3.81-3.66-7.73-8.31-11.75-9.8-4,1.55-8.14.58-12.34,2.15-4.21-.39-8.51-6.16-12.88-10-4.37-.37-8.82-2-13.33-1.49C423.22,161.16,418.64,166.78,414,165.42Zm0,253.91c-4.7.79-9.35,1.21-13.91-.11-4.57-4.64-9.05-6.87-13.45-3.05-4.39-2-8.69-7-12.88-4-4.2-2.06-8.28-.53-12.25-5-4-1.76-7.8-7.7-11.5-8.92-3.7-3-7.27-1.09-10.68-5.2-3.41-2.12-6.67-8.94-9.76-10-3.08-3.39-6-11.76-8.75-8.48-2.73-2.31-5.29-13.48-7.65-10.65-2.36-4.55-4.52-5.65-6.46-11.53-2-4.59-3.68-3.34-5.19-10.55-1.5-4.7-2.78-1.67-3.81-14.58-1-11.47-1.82-12.66-2.36-17.4-.53-8.74-.8-4.24-.8-9.95,0-3.41.27-10.55.8-16.87.54-2.74,1.33,2,2.36-10.49,1,2.53,2.31-12,3.81-9.07,1.51-5.37,3.24-3.11,5.19-16.06,1.94-9.59,4.1-7.95,6.46-12.91,2.36-7.81,4.92-4.23,7.65-9.27,2.74-4.53,5.67-3.46,8.75-8.85,3.09-.35,6.35-3.46,9.76-9.66,3.41,5.2,7-2,10.68-5.79,3.7-7.92,7.54-6.09,11.5-8.33,4,1,8.05-3.87,12.25-4.73,4.19-1.56,8.49,0,12.88-4.27,4.4.9,8.88-3.06,13.45-3.05,4.56,4.52,9.21,1.25,13.91-.11,4.7-3,9.35.9,13.91,1.3,4.57,3.46,9.05.55,13.45,1.86,4.39.44,8.69,5.73,12.88,6.79,4.2,2.14,8.28,5.65,12.25,2.21,4,2.89,7.8,2.23,11.5,9.49,3.7,11.13,7.27-1.4,10.68,4.63,3.41,6.63,6.66.66,9.75,7.11,3.09,5.78,6,5.89,8.76,11.4,2.73-2.33,5.29,8,7.65,10.42,2.36,7,4.51,14.75,6.46,11.76,2,1.48,3.68,6.19,5.19,10.05,1.5,17.9,2.78,15.18,3.81,15.08,1,12.28,1.82,2.67,2.36,11.08.53,7.71.8,5.6.8,16.28,0,1.16-.27,10.45-.8,13.31-.54,4.16-1.33,12-2.36,14-1,.47-2.31,5.22-3.81,9.82-1.51-1.13-3.24,4.4-5.19,15.31-1.95.84-4.1,13.94-6.46,11.13-2.36-1.52-4.92,14.39-7.65,11.05-2.74,9.29-5.67,7.4-8.76,10.09-3.09,2.36-6.34,7.26-9.75,8.42-3.41,4.71-7-.4-10.68,6.82-3.7,2.86-7.54,5.88-11.5,7.3-4,2.07-8.05,2.4-12.25,3.31-4.19.43-8.49,5.82-12.88,5.69-4.4,8.21-8.88,8.27-13.45,6.77C423.36,423.53,418.71,417.12,414,419.33Z"/>
    <path class="cls-1" d="M414,138.46c-4.94,3.81-9.84,3.48-14.67-1.32-4.83,1.77-9.61,6.47-14.31,3.92-4.7,2.81-9.33,2-13.88,2.26-4.55-4.18-9,2.92-13.41,5.25-4.38-3.43-8.67-2.21-12.86,4.82-4.2-4.79-8.29,9.61-12.28,7.14-4,.67-7.86,7.47-11.62,7.45-3.76,2-7.4-5.11-10.91,8.49-3.51-4.37-6.9-1.64-10.15,3.86-3.24,7.26-6.35,8.95-9.32,15.6-3,12.55-5.78,22.78-8.44,17.23s-5.16,5.27-7.5,5.31a67.1,67.1,0,0,1-6.5,13.47c-2,4.78-3.82,2.1-5.45,11.67-1.64,17.4-3.09-7-4.34,2.59-1.26,16-2.32,11.26-3.17,24.7a78.89,78.89,0,0,0-1.95,13.44c-.43,2.4-.66,15.84-.66,15.54,0,3,.23,8,.66,12.24.44,3.05,1.09,11.84,1.95,16.73.85,4.44,1.91,8.67,3.17,14,1.25-4.75,2.7,4.94,4.34,13.33,1.63-.65,3.45,4.2,5.45,11.76,2,6.36,4.17,7.3,6.5,13.38,2.34,5.59,4.84,19,7.5,13.76,2.66,10.08,5.48,10.2,8.44,8.78,3-.3,6.08,1.16,9.32,7.71,3.25,8.07,6.64,5.88,10.15,11.75,3.51.13,7.15,5.48,10.91,8.33,3.76,2.57,7.64,5.57,11.62,7.61,4,9.54,8.08,7.93,12.28,6.88,4.19,5.12,8.48,2.49,12.86,5.08,4.39,1.92,8.86-2.59,13.41.6,4.55,4,9.18-.15,13.88,6.91,4.7,4.36,9.48,1,14.31-.25,4.83,1,9.73,8,14.67,2.85,4.94.95,9.84,4.5,14.67,2.64,4.83-.51,9.61-5.13,14.31-5.24,4.7,1.8,9.33,7.66,13.88,2.29,4.55-2.21,9-10.61,13.41-9.8,4.38-1,8.67-2.45,12.86-7,4.2-3.26,8.29-8.16,12.28-5,4-4.76,7.86-5.61,11.62-9.23,3.76-4.19,7.4-6.1,10.91-6.71,3.51-10.06,6.9-4.64,10.15-8.09,3.24-7.3,6.35-9.59,9.32-11.37,3-8.13,5.78-13.29,8.44-13.67,2.66-10.06,5.16-1.72,7.5-8.87,2.33,2.18,4.51-5.88,6.5-10.92,2-5.31,3.82-12.19,5.45-14.22,1.64-2.81,3.09-11.29,4.34-14,1.26-11.33,2.32-6.12,3.17-13.31.86.08,1.51-13.35,1.95-12.71.43-2.08.66-9.51.66-16.26s-.23-16-.66-19.46c-.44,1.63-1.09-13.37-1.95-9.52-.85-10.55-1.91-4.6-3.17-10.12-1.25-12.45-2.7-8.89-4.34-17.17-1.63-.71-3.45-10.1-5.45-10.37-2-6.58-4.17-7.61-6.5-14.77-2.34,5.38-4.84-9-7.5-12.22-2.66-5.81-5.48-13.86-8.44-10.32-3-9.74-6.08-18.92-9.32-15.84-3.25-1-6.64.64-10.15-3.62-3.51-12.34-7.15-4.47-10.91-10.73-3.76,2.25-7.64,5.49-11.62-5.21-4,3.9-8.08.3-12.28-4.82-4.19-.21-8.48-5.28-12.86-7.14-4.39-1.37-8.86,2.06-13.41.84-4.55-4.88-9.18-7.92-13.88-8.35-4.7,4.14-9.48-5.86-14.31-2.36C423.85,137,419,134.91,414,138.46Zm0,307.83c-5.05,1.42-10-5-14.95-.52a46.3,46.3,0,0,0-14.52-2.46c-4.76-2.72-9.44-12.07-14-5.92-4.58,4.62-9.07-.44-13.45-2.62-4.38-.15-8.64-3.13-12.79-5.43-4.15-3.3-8.18-4.34-12.08-8.09-3.89,2.44-7.65-8-11.27-7.51-3.62-1.15-7.09-4.93-10.4-10.38a86.53,86.53,0,0,1-9.46-12.23c-3,.4-5.8-14.92-8.44-9.45-2.63-1.88-5.08.19-7.34-8.57a114.49,114.49,0,0,0-6.17-16.3c-1.86.77-3.5-7-4.93-13.43-1.43-6-2.64-10.27-3.62-14-1-4.87-1.72-6.2-2.22-13.51-.5-6.83-.76-3.48-.76-16,0-11.12.26-27.72.76-21.88.5-5.09,1.25-11.27,2.22-7.6,1,5.32,2.19-8.9,3.62-12.2,1.43,3.49,3.07-13.82,4.93-15.26,1.85-13.51,3.91-17.79,6.17-14.75,2.26-.13,4.71-7.59,7.34-10.12,2.64,0,5.45-9.36,8.44-11.27,3,1.73,6.14-2.67,9.46-10.41,3.31-8.48,6.78-9.34,10.4-11.37,3.62-5.53,7.38-8.71,11.27-6.52,3.9-2.71,7.93-7.45,12.08-12.76,4.15-1.67,8.41-7.8,12.79-.76,4.38-1.89,8.87-.56,13.45-3.28,4.58-5.63,9.26-5.95,14-5.26,4.76,6.4,9.6,3.81,14.52,1.11,4.92-3.28,9.9-8.22,14.95-4.09,5.05-4.39,10-5.23,14.95-.66,4.91-1.81,9.76-3.17,14.52,3.64,4.76,3.49,9.44,6.34,14,3.3,4.58,1,9.07-3.69,13.45,5.24,4.37,0,8.64,2.94,12.79,8.79,4.15,3,8.18,5.5,12.08,4.73,3.89,4.85,7.65,1.48,11.27,9.24,3.62,6.81,7.09.26,10.4,8.65,3.32,10.07,6.47,13.92,9.46,12.8,3,6.86,5.8,24,8.44,8.88,2.63,7.86,5.08,10.06,7.34,13.65,2.26,7.76,4.32,17.53,6.17,11.22,1.86,8.08,3.5,12.74,4.93,11.68,1.43,5.07,2.64-.13,3.62,15.78,1-8.06,1.72,7.35,2.22,15a144.59,144.59,0,0,1,.76,14.5c0,6.51-.26,8.23-.76,17.64-.5,8.58-1.25,4.73-2.22,11.83-1-.88-2.19-3.09-3.62,10.12-1.43,7.72-3.07,10.9-4.93,17.34-1.85,0-3.91,13.51-6.17,16.22-2.26,6.64-4.71,19.16-7.34,8.65a39.78,39.78,0,0,1-8.44,8.5c-3,9.38-6.14,7.14-9.46,13.18-3.31,7-6.78,3.74-10.4,8.8-3.62-.34-7.38,6.69-11.27,9.09-3.9,6.87-7.93,7.49-12.08,9.33-4.15,4-8.42.86-12.79,4.19-4.38,1-8.87,3.29-13.45,2.1-4.58,1.85-9.26,4.31-14,6.44-4.76-3.67-9.61-.4-14.52.63S419.06,445.4,414,446.29Z"/>
    <path class="cls-1" d="M414,112.87c-5.16-2.12-10.26-1.47-15.32-.58-5.05.19-10-2.37-15,3-4.93-.33-9.8,5.34-14.6,3.2-4.79,1.72-9.51,6.2-14.16,3.9-4.64,3.11-9.2,8.5-13.67,8.52-4.47,8.88-8.86-2.94-13.15,2.83-4.29,6.2-8.48-1.13-12.56,7.09-4.09,3.15-8.07,5.48-11.94,8.14-3.87,1-7.63-1.7-11.26,5.77-3.64,5.24-7.15,3.65-10.54,12.93-3.39-2.8-6.64,6.72-9.76,5.39-3.13,3-6.11-4.6-8.95,16.41-2.84,1.33-5.53,16.61-8.07,11.93-2.54-3.43-4.93,1.66-7.15,12.58-2.23,11.4-4.29,19.56-6.19,18.87-1.89,12.81-3.62.88-5.17,8-1.54,14.26-2.92,14-4.1,12.6-1.19,2.62-2.19,6.05-3,16.15-.81-4.44-1.42,19.31-1.83,14.77-.42,1-.63,2.85-.63,15.53,0-.61.21,20.72.63,14.25.41-1.9,1,16.46,1.83,16,.8,7.65,1.8,17.05,3,17.64,1.18-.31,2.56,4.51,4.1,11.11,1.55,9.11,3.28,19.63,5.17,19,1.9,6.43,4,10.6,6.19,7.82,2.22,4.89,4.61,4.2,7.15,11.37,2.54,2.44,5.23,4.7,8.07,13.14,2.84,9.29,5.82,15.23,8.95,15.58,3.12,2.9,6.37,7.38,9.76,6.22,3.39,10.33,6.9,1.6,10.54,12,3.63-.41,7.39,1.12,11.26,6.69,3.87,2.49,7.85.53,11.94,7.57,4.08,6.83,8.27,6.88,12.56,7.66,4.29,5.21,8.68,9.68,13.15,3.61,4.47-.25,9,.24,13.67,7.74,4.65,1.58,9.37-1.77,14.16,3.66,4.8.93,9.67.25,14.6,3.44,4.93-1.33,9.92,3.71,15,3.18,5.06,3.15,10.16-2.16,15.32-.73,5.16-.22,10.26-6.72,15.31-2.2,5.06-3,10.05-4.2,15-.25,4.93.43,9.8-9.48,14.6-3.55,4.79-3.93,9.51-6.78,14.15-3.55,4.65,1.3,9.21-2.35,13.68-6s8.86-6.19,13.15-5.34c4.28,3.7,8.48-7.24,12.56-7.39,4.09-1,8.07-.83,11.94-7.84,3.87-2.14,7.63,1.81,11.26-5.71,3.64,4.24,7.15-17.36,10.54-13,3.39.95,6.64-7.47,9.76-7.75,3.13-7.18,6.11-3,8.95-14.05,2.84-7.43,5.53-17.25,8.07-11.65,2.54,2.2,4.93-9.22,7.15-12.86,2.23-.57,4.29-9.06,6.19-9.41,1.89-3.48,3.62-8.8,5.17-17.41,1.54-1.33,2.92-4.51,4.1-16,1.19-5.61,2.19-3,3-12.75.81-5.95,1.42-11.08,1.83-18.45.42-1.94.63-20.46.63-11.84,0-11.78-.21-17.5-.63-20-.41-8.55-1-3.16-1.83-10.29-.8-.52-1.8-12.2-3-12.26-1.18-6.69-2.56-10.51-4.1-16.49-1.55-8.34-3.28-8.89-5.17-12.92-1.9-.59-4-.15-6.19-13.9-2.22-1.12-4.61-12.58-7.15-12.44-2.54-8-5.23-14.7-8.07-12.07-2.84-3.9-5.82-11-8.95-11.08-3.12-1.08-6.37-12.07-9.76-10.72-3.39-.24-6.9-7-10.54-11.74-3.63-6.81-7.39-4.58-11.26-7-3.87,2-7.85-12.66-11.94-6-4.08,2.58-8.28-7.13-12.56-9.26-4.29-6.85-8.68-16.27-13.15-7.11-4.47-2.34-9-5.84-13.68-4.24-4.64-.83-9.36-5.13-14.15-7.08-4.8,0-9.67,2.11-14.6,0-4.93,1.86-9.92-1.24-15,.25C424.27,113,419.17,112.74,414,112.87Zm0,359c-4.74-1.05-9.44,4.26-14.09.06-4.64-2.27-9.24,3.66-13.77-2.31-4.54,1-9,1.68-13.43-3.13-4.41-2.72-8.75-4.9-13-3.4-4.27,6-8.46,2.47-12.58-3-4.11-4.53-8.15-4.95-12.09-7.49-3.94-4.22-7.8-5.11-11.56-6.48-3.76-3.43-7.42-1.09-11-7.52-3.56,1.2-7,.28-10.36-4.89-3.34,1.26-6.57-5.09-9.69-12.32-3.11.23-6.11-.39-9-4.52-2.87-5.37-5.61-15.74-8.22-15.53-2.62,6-5.09-9.9-7.43-13.26-2.34-1.37-4.53-7.22-6.58-9.28-2.05,1-3.94-8.43-5.69-13-1.74-5.56-3.33-13.38-4.75-11.7C249.36,339.31,248.1,342,247,332.4c-1.09,3.92-2-10.2-2.75-4.66-.74-16.87-1.31-4.7-1.68-14.25-.38-11.36-.58-14.17-.58-13.61,0-7.51.2-3.57.58-12.15.37-3.93.94-17.74,1.68-15.72.74-.72,1.66-15.76,2.75-15.74,1.09-9.91,2.35-16.25,3.78-10.7,1.42-2.49,3,5,4.75-8.54,1.75-6.26,3.64-15.19,5.69-16.13,2,3.6,4.24-7.32,6.58-10.55,2.34-4,4.81-13.83,7.43-12,2.61-.39,5.35-2.25,8.22-9.41,2.87-7.5,5.87-2.24,9-10.64,3.12,7.3,6.35-6,9.69-3.4,3.35-2.45,6.8-11.29,10.36-13.81,3.56,6.08,7.22,4,11,.43,3.76-8.06,7.62-12.65,11.56-14.43,3.94.26,8,5.88,12.09-3.41,4.12-6,8.31-7.23,12.58-7,4.27-6.43,8.61-4.32,13-5.12,4.41-1.09,8.89-5,13.43-1.41,4.53-3.72,9.13.42,13.77-3.28,4.65.11,9.35.92,14.09,1,4.74-1.4,9.44-4.09,14.09-1.08,4.64,1.12,9.24-3.82,13.77,3.33,4.54,5.77,9-3.49,13.43.4,4.41-.3,8.75-4.7,13,6.13,4.27-5.8,8.46,2,12.58,3.19,4.11,8.38,8.15,7.09,12.09,7.26,3.94.74,7.8,10.27,11.56,12a11.38,11.38,0,0,0,11,2c3.56,5.75,7,15.22,10.36,16.47,3.34-3.33,6.57-.93,9.69.74,3.11,6.15,6.11,9.38,9,10.61,2.87,8.11,5.61,20.37,8.22,9.44,2.62,8.19,5.09,5.18,7.43,8.66,2.34-2.49,4.53,2.08,6.58,13.88,2.05,21.79,3.94,24.32,5.69,20.31,1.74,2.45,3.33-7.8,4.75,4.36,1.43,3.14,2.69,10.34,3.78,15.48,1.09,6,2,15.68,2.75,11a96,96,0,0,0,1.68,9.49c.38-3,.58,12.28.58,18.38,0,1.4-.2,11-.58,14.16s-.94,5.57-1.68,13.7C583,343.08,582.1,340,581,347c-1.09-1.82-2.35.95-3.78,7.23-1.42,4.67-3,9.92-4.75,9.16-1.75,6-3.64,6.06-5.69,15.51-2,10.85-4.24,9.13-6.58,11.62-2.34,1.08-4.81,13.5-7.43,10.92s-5.35,7.57-8.22,6.07c-2.87,4.67-5.87-.45-9,14-3.12,9.89-6.35,8.21-9.69,9.67-3.35,2.07-6.8,9.84-10.36,7.54-3.56,4.72-7.22,2.48-11,7.8-3.76.88-7.62,1.57-11.56,6.2-3.94.38-8,5.21-12.09,5.89-4.12-.31-8.31,2.44-12.58,4.56-4.27,3.7-8.61.72-13,3.87-4.41-5.36-8.89-1.17-13.43,2.66-4.53.58-9.13-1.58-13.77-.37C423.45,466,418.75,472.74,414,471.88Z"/>
    <path class="cls-1" d="M565.35,148.53c-3.37-7.91-6.83-10.83-10.38-11.06-3.54-8.57-7.18-2.94-10.9-7.62-3.71-14.17-7.51-10.28-11.38-16.83-3.87,4.27-7.82-4.26-11.84,1.29-4-5.58-8.1,3-12.25-5.53-4.15.71-8.37-7.5-12.64-6.75-4.27-4.38-8.6-10.4-13-5-4.38,6.41-8.82-3.92-13.3-4-4.48-4.6-9-6.27-13.58-9.5-4.57.87-9.18,1.08-13.83,4.07-4.64-.69-9.32.11-14-3.07-4.72-1.53-9.46.59-14.22,1.23-4.76-.36-9.5,4.08-14.22,1.09-4.71-5.19-9.39-4.92-14,.75-4.65,2.83-9.26-.43-13.83,4.41-4.57,2.12-9.1,3.68-13.58,1-4.48,1.18-8.92,2.72-13.3,4.32-4.39.22-8.72,3.79-13,4.6-4.27,2.47-8.49,6.17-12.64,3.92-4.15,2.14-8.24,3.5-12.25,8.36-4-2.83-8,3.88-11.84,7.78-3.87,5-7.67,12.76-11.39,7.76-3.71,7.42-7.35-.47-10.89,8.36-3.55,3.18-7,8-10.38,10.32-3.37-2.69-6.61-1.49-9.73,10.33-3.11,7.36-6.1,1.89-8.95,10.95-2.86,1.31-5.58,21-8.17,18.87-2.59,11.67-5,11.64-7.37,4.35-2.32-1.07-4.51,8.59-6.56,8.59-2-3.13-4,4.68-5.73,16.3-1.77,1.86-3.4,6.78-4.88,8.38-1.49,7.63-2.83-1.06-4,17.91-1.2,9.89-2.25,14.22-3.16,15.78-.91.66-1.67,10.7-2.27,11.63s-1.07,12.57-1.38,17.57c-.31,9.11-.46,14.8-.46,10.69,0,14.62.15-.65.46,17.15.31,2.59.77,9.73,1.38,11.1.6,10.7,1.36,21.92,2.27,17.08.91-7.41,2,2.2,3.16,10.33,1.2,5.14,2.54,11.28,4,15.66,1.48,10.11,3.11,1.43,4.88,10.63,1.77,6.51,3.68,7.2,5.73,12.42,2.05.86,4.24,5.62,6.56,12.47,2.32,1,4.78,3.44,7.37,9.63,2.59,3.39,5.31,14.15,8.17,13.59,2.85,7.15,5.84-.88,8.95,10.05,3.12,6.4,6.36,14.39,9.73,11.23,3.37,6.3,6.83,3.71,10.38,8.84,3.54-.31,7.18,7.58,10.89,9.84,3.72-5.63,7.52-3.38,11.39,5.67,3.87.68,7.82,3.08,11.84,9.87,4,2.4,8.1,3.24,12.25,8.11,4.15,3.23,8.37,8.63,12.64,4.17,4.27,3.9,8.6,5.84,13,6.25,4.38,2.31,8.82,6.68,13.3,2.67,4.48-1.8,9,4.42,13.58,2.91,4.57.37,9.18,1.85,13.83,2.52,4.64,9.68,9.32,1.94,14,6.29,4.72-5,9.46-.21,14.22-4.45,4.76-3.25,9.5,2,14.22.72,4.71,3.09,9.39-2.64,14-2.56,4.65-2.81,9.26-.15,13.83-1.05,4.57,1,9.1-5.23,13.58-4.38,4.48,6.09,8.92.8,13.3-2.88,4.39,1,8.72,0,13-6,4.27,6.42,8.49-2.94,12.64-8,4.15-7.46,8.24-11.31,12.25-4.33,4-1.22,8-1.84,11.84-5,3.87,2,7.67-2.12,11.38-10.5,3.72-6.44,7.36-12.24,10.9-10,3.55-2.05,7-8.9,10.38-8.71,3.37-3.25,6.61-2.52,9.73-10.22,3.11-4.64,6.1-6.45,8.95-11.06,2.86-8.94,5.58-16.78,8.17-18.48,2.59-6.82,5,.85,7.37-4.74,2.32-1.9,4.51-14.74,6.56-16.36,2-2.47,4-10.4,5.73-8.53,1.77-8,3.39-18,4.88-16.16,1.49-4.08,2.83-10.08,4-10.13,1.2-4.27,2.25-13.51,3.16-10.31.91-5.22,1.66-12.18,2.27-17.1.61,1.41,1.07-8.44,1.38-13.29.31-7.81.46-12,.46-15,0,.33-.15-9.35-.46-16.42-.31-4.33-.77-8-1.38-11.84-.61-14-1.36-19.63-2.27-16.29-.91,4.3-2,.49-3.16-11.12-1.2-7.2-2.54.42-4-13.93a50.36,50.36,0,0,0-4.88-12.36c-1.77-10.48-3.68-1.91-5.73-12.51-2-5.66-4.24-7.54-6.56-12.38-2.32,7.5-4.78-.46-7.37-6.54-2.59-12.52-5.31-18.81-8.17-16.68-2.85-8-5.84-7-8.95-11.06C572,150.39,568.72,153.8,565.35,148.53ZM414,498.91c-5,2.55-9.93,1.59-14.83-.27-4.9-2-9.75,2.41-14.54-1.9-4.8-5.06-9.53,1.22-14.21-3.64-4.68.43-9.29-1-13.84-2.64-4.55-1.42-9-5-13.43-6.68-4.4-2.29-8.73-1.71-13-3.4-4.25-4.27-8.42-3.11-12.5-5.93-4.08-1.6-8.07,5-12-7.65-3.9-.78-7.7-3.28-11.4-9.92-3.71,7-7.31.29-10.81-6.85-3.49-8.93-6.88-4.78-10.16-10.78-3.28.59-6.44,2.68-9.48-8.87-3.05-3.56-6-9.3-8.77-14.89-2.79-2.29-5.46-5.42-8-7.32-2.54-1.19-4.94-5.91-7.21-11.23-2.27-1.95-4.39-10.23-6.37-13.23-2-9.68-3.82-9.32-5.5-12.57-1.69-.06-3.22-8.75-4.59-13.85-1.37,4.55-2.59-6.89-3.63-8.38-1,5.23-1.94-15.49-2.65-19.66-.71-6.49-1.25-8.91-1.61-14.07-.37-.54-.55-3-.55-15.3,0,3.14.18-6.12.55-14.95.36-12.65.9-6.71,1.61-14.43.71,1.47,1.6-5.16,2.65-12.83a121,121,0,0,1,3.63-15.21c1.37-6.92,2.9-8,4.59-9.23,1.68-1.9,3.52-1.12,5.5-17.19,2-9.81,4.1-9.93,6.37-16.16,2.27-9.34,4.67-12.64,7.21-8.3,2.54-2.68,5.21-.61,8-8,2.8-12,5.72-21.25,8.77-14.17,3-10.54,6.2-.84,9.48-9.64,3.28-7,6.67-4.39,10.16-10,3.5-8.1,7.1-8.83,10.81-7.25,3.7-1.23,7.5-9.81,11.4-9.52,3.9-6,7.89-9.82,12-10.28,4.08,2.18,8.25-7.71,12.5-3.3,4.25-2.14,8.58-8.28,13-7,4.41-.8,8.88-8.17,13.43-3.11,4.55-7.72,9.16-11.08,13.84-10.69,4.68-2,9.41,6.38,14.21,4.41,4.79,4.45,9.64-1.1,14.54.09,4.9.09,9.84-3.9,14.83-2.26,5,2,9.93,7.1,14.83,1,4.9-2,9.75.92,14.54,1.18,4.79.56,9.53-4.12,14.21-3.77,4.68-.11,9.29,4,13.84,10.05,4.55,8.13,9,12.44,13.43,6.18,4.4,1.7,8.73,2.06,13,3.9,4.25-5.71,8.42,9.7,12.5,6.35,4.08-6.33,8.07,8.93,12,7.23,3.89,4.28,7.7-5.27,11.4,5.32,3.71,12.25,7.31,1.47,10.81,11.45,3.49-1.42,6.88,15.23,10.16,9.4,3.28,4.59,6.44,3.71,9.48,10.25,3.05.85,6,7.78,8.77,9.25,2.79,2.21,5.46,13,8,13,2.54,12.23,4.94,19.73,7.21,14.09,2.27-2.74,4.39,15.25,6.37,10.37,2,5.89,3.82,8.15,5.5,11.64,1.69-.21,3.22,18.73,4.59,14.78,1.37,13.53,2.59,20.93,3.63,16,1,8.76,1.94,3.26,2.65,12.09.71-3.42,1.25,10.87,1.61,11,.37,8,.55,14.61.55,18.35s-.18,16.36-.55,18.37c-.36-.28-.9,1-1.61,11-.71,4.63-1.6,7.9-2.65,12.88-1,2.37-2.26,9-3.63,15.16-1.37,10.52-2.9,3.38-4.59,12.82-1.68-1.61-3.52,6.57-5.5,13.6-2,4.25-4.1,7.21-6.37,14.48-2.27,8.63-4.67,9.57-7.21,10-2.54,9.07-5.21-1.36-8,10.63-2.8,8.05-5.72,6.09-8.77,11.58-3-7.05-6.2,5.7-9.48,7.14C551.4,441,548,443.17,544.52,450c-3.5-.62-7.1,9.24-10.81,6.8a85.74,85.74,0,0,1-11.4,10c-3.9-3.3-7.89,4.53-12,6.28-4.08-6.36-8.25,5.18-12.5,7.3-4.25-.51-8.58,3.88-13,4.27-4.41-1.06-8.88,2.57-13.43,5.81-4.55,4.9-9.16.74-13.84,5.33-4.68,3.81-9.42-8-14.21.95-4.79-6.24-9.64-2.09-14.54-.42C423.94,501.13,419,499.62,414,498.91Z"/>
  </g>
</svg>
