<svg id="Calque_1" data-name="Calque 1" xmlns="http://www.w3.org/2000/svg" width="29.7cm" height="21cm" viewBox="0 0 841.89 595.28">
  <defs>
    <style>
      .cls-1 {
        fill: #5f5e5e;
      }
    </style>
  </defs>
  <title>Plan de travail 2</title>
  <path class="cls-1" d="M654.42,263.35c-1.41-6.68-1.56-9.41-1.79-7.74,1.33-1.48-1.89-3-2.23-7.62-1.85.23-2.12-4.69-2.6-7.49-.86,2.42-2.18-9-3-7.35-4.58-1.83-1.4-5.26-3.33-8.29-1.53-3-7.41-5.66-3.72-5.88,3.47-.74-9.85-2.15-4.08-4.33-2.59-2.18,3.8-5.14-4.39-9-7.74-4.54,3.56-6.51-4.7-7.92-11.34-1.4-10.35-2.22-5-4.45-2.24-2.35,4-3-5.34-4.12a25.24,25.24,0,0,1-5.6-7.13c-1.29-.08-4.73-3.35-5.86-6.21-5.62-2.87-15.58-5.34-6.12-3.84-7.11.42-6.37-2.59-6.37-5.29-7.59-2.7-.33-5.09-6.56-3.4-5.47,3.29-6,2.63-6.75.55-3.53-2.07-8-5.55-6.91-7.91-6-1.22-1,1.23-7.06,2-1.62.78-.34-.1-7.2-8-6.89.93-6.92,1.23-9.78.45-6-.78-7.72-2.63-9.94-6-2.41-3.69-10.52-3.9-10-3.44-.71.46-12,1.6-10.1.62-11.77,1.34-1.19.35-10.1-.51-10.37-.85-7.07-1.56-10.06.34,5.3-3-8.13-1.41-7.5.3-3.68,1.72-5.74,3.6-7.45,1.3,2.86.64-14.22,2.27-7.37,3.3-1.31,1,.17,1.46-7.27-.27-7.51-.14-3.16-.88-7.17-.65.82.22-7.21,1.41-7,5.09,5.71,2.82-4.28-.42-6.89-2,1.92-1.61-9-1.58-6.74,7.76-1.69,2.62-4,2.23-6.58,2.25-1.25,0-3.11.44-6.39,4.69,3.66-.48,1.56,2.31-6.19,4.85-8,2.54-8.19,4.82-6,3.29-1.13-3.34,1.58-3.11-4.87-1.19-5.7,1.92-3.62,5.53-4.7,9-7-8.53-2.26-.64-8.28-.26-.43-3.21-4-4.22-8.22.33-8.94,1.37-2.4,3.71-11.25,5-1.32,1.32-5.82,1.62-11-1.11a20.54,20.54,0,0,1-10.61,5.5c-7.51.7-4,.9-10.14,2.55-9.38.5-10.67,3.5-9.36,5.25-10.26,3.93-4.4,5.4-8.77,6.06-5.08,5.88-10.32-4.81-13.46-1.62-6.92,3.54-9-3-13.35.29-6.16.17-1.11-.72-9.1-.77-3.17-.06-7.08.73-8.85,4.27.44,5.22-4.38,6.75-8.52,7.06-6.71.31-7.58-.6-8.1-.26-1.68,6.35-1.56,9.49-5.5,10.3,3.62.8-3.12-.73-5.24-3.72-2.78,2.73-10.95,1.59-11-1.09-5.53-3-10.76-6.31-5.48-7.16a9.43,9.43,0,0,0-5.41,7.62c-1.12,3.94-6.43,1.82-7.5.16-6.78-1.65-1.2-2.83-7.28,3-5.6,1.09-14.41,5.55-13.58,5.88-.86,2.29-6.42,5.13-6.2,7s-8.95,2.74-5.77,1.11c-4.71,2.87-.93,6.78-5.29,9.26,2,2.48,1,3.53-4.8.66-4.32,2.83-4.64,7.32-5.6,10.78-5.49,3.47-1.3,5.9-4.63,4.63-4.24.64-5.39,3.71-3.63,7.22-6.12,3.51-.66,7.47-2.61,9.87,1.44,4.82-.92,7.24-1.57,9.48-3,2.24,1.44,4.31-.51,8.45-2.93,0-.63,5,.51,9.77,1.78,4.78,3.24,9.28,1.57,8.15,1.32,4.3-5.72,5.48,2.62,7.12,3.06,1.65,5.87,3.77,3.63,10,8.16,1.46-1.24,3.56,4.64,6.17,2.79,2.6-1,5.72,5.6,9.22-3-1.1,4.22-.59,4.8,1.18,1.35,1.77,8.36,4.8,5.3,8.73,4.95,7.15,9.45.39,12,8.09-2.72,3.87,7.23,6.6,13.57,5.85-2.67-.53,4.79,1.32,7.26,2.77-2.16,1.46.48,2.52,7.5.4,4.82-1.39,6.73-1.11,10.87.45,1.79,3.18,5.73-.31,11-1.09,5.69,3.41,6.45,5.88,10.81,6.63,3.46,1.72,8.35,2.82,8.11,3.79,4.67,1-1.87,1.8,8.51,3,.44-.68,5.25.29,8.84,1.38a83.32,83.32,0,0,0,9.09,2.11c5.83,6.44,11.9,2.86,13.33.28,2.46-1.31,5.19-1,13.42-1.62,2.95,2,3.9,4.73,8.81,6.08,3.41,3.57.87,4,9.41,5.27,1-1.07,4.14,1.08,10.13,3.43,5,2.36,6.52,4.9,10.6,4.6.77,0,10.21-.06,11,.4,4,.45,3,1.43,11.24,3.5.67,3.64,7.8,10,8.2.32,5.82,2.68,2.52,2.58,8.26-.25,2.51,1.13,5.6-1.23,9.64,7.82a14.53,14.53,0,0,0,6,6.6c.18,1.38,2.6,1.92,6.19,1.53,4.91.5,9,4.23,13,6.93,8.88,1.79,8.05,4.91,13.63,5.72,3.11,1.11-.39.59,7,.61-3.23,0,4.8.58,7.16,3.83-.16,1.78,7.14,3.44,7.27,4.2,3.26.76,4.43.63,7.37-1.18.29,2.11,2.91,1.05,7.44.19,2.25-.85,3.12-1.51,7.5,1.41,4,.17,10.14-1.14,10-1.86,3.35-.71,8.82-.84,10.1,1.68.56-5,4.67-7.74,10.09-8.2a10.12,10.12,0,0,1,10,5.38c6.32,1,6.43.81,9.93-.26,1.3-1.08,5.92-3,9.78-5.27,2.4,4,2.53,2.83,7.18.49,2.37-2.34,1.63-5.83,7.06-6.44,3.31-2.37,6.28-4.93,6.91-6.54,2.64-1.61,4.9-2.26,6.74-.81,2.21,0,3.66-1.06,6.56-4.19,4.31-1.26,3.36,1.2,6.36-4.51,3.68,9.05,1.58-5.91,6.14-4.83-1.16-4.27,4.12-4.45,5.85-5.19,4.76-.88,9-3.39,7.41-6.34,3-2.94-.76-6.32,6.9-8.91,5.48-3,5.46-5.61,6.37-8.27,2.59-2.66,3.13-5.42,5.79-8.86,1.22-.24,2.93-3.16,5.18-6.9,2.85-3.74,2.48-8.29,4.56-11.79-.17-1.56-4.68-4.31,3-7.15-2.61-2.84,4.23-5.77,2.61-7.69,9.23-4.8-1.12-7.87,2.23-10.12,2.2-2.25-3.17-3.69,1.81-5.23-7.77-2.42-7-4.4,1.4-6.74,1.92-2.34.94-5.05,1-8.95,7.24-2.53,7-2.48.62-3.81-4.76-1.32-3.85-4,.24-12,.22-6.34-.48-8.13-.22-9.43,4.88-1.29,5.12-2.08-.62-6.41,5.09-3.41-4.73-4.52-1-6.18C650.6,271.21,650.89,269,654.42,263.35ZM394.93,395.75c-5-4.65-7.68-9.63-13-14.88.43-5.25-5.58-10.78-10.83-16.53,11.46-4.24,5.47-9,12.5-14.1,0-5.13,10.4-10.65,9.51-16.47-.56-3-4-6.15,3.6-9.32-5.38-3.17-4.89-6.4,2.63-9.67-2.28-3.27-2.81-6.58,1.54-9.9,2.77-3.32,4.49-6.66.57-10-8.48-3.33,6.51-6.67-.55-10-4.79-3.32-2.6-6.63-1.55-9.91-2.9-1.63,2.85-3.26-1.15-4.88-1-1.61,3.7-3.2-1.45-4.79.32-1.59-1.95-3.15-1.68-4.72,1.07-1.56-7-3.08-1.92-4.61-2.67-3.06-9.45-6-4.54-8.88-6.15-2.86.81-5.63-5.45-8.3-8.1-2.46-4.92-4.8-5.69-7-13.05-2.24-.64-4.37-6.33-6.4,8.85-5.74,11.11-11.25,10.82-16.49,2.82-5.24,8.18-10.21,13-14.85-.32-1.08,5.55-2.13,3.3-3.17,8.87.54,11.18,1.44,14.74,2.68,6.87,1.24,12.9,2.83,14.2,4.76,11.69,2.64,10.27,5.9,18,9.72,6.89,3.82,21.15,8.19,15.79,13,5.09,4.85,15.53,10.17,12.94,15.86,12.66,5.69,6.44,11.74,9.59,18.06-7.44,6.31,12.82,12.88,5.86,19.57,4,6.7,3.42,13.52,1.95,20.34,3.14,6.82.23,13.64-1.94,20.34,4,6.69-18.27,13.26-5.86,19.57-1.88,6.31-4.44,12.37-9.6,18.06-11.95,5.69-4.54,11-12.93,15.86,4.52,4.85-12.17,9.22-15.79,13-.11,3.82-12.23,7.08-18,9.72-2.74,1.93-10.48,3.52-14.19,4.76-6.31,1.24-13.52,2.14-14.75,2.68C396.91,397.88,400.39,396.82,394.93,395.75ZM319.49,375c-3.49-1.89-10.19-3.87-6.51-5.94-5.84-3.08-4.17-6.36-8.69-9.81-1.31-3.44-12.3-7.05-7.42-10.81,4.24-3.05,3.24-6.34,7.81-9.84-3.6-3.5-5.84-7.19,6.18-11.05,5.51-2.56,1.49-5.17,3.07-7.83.3-2.66,7.77-5.37,2.23-8.12,8.75-2.75-3.78-5.53,1.31-8.32,4.51-2.8-11.71-5.6.5-8.4,6.21-2.8-10.86-5.61-.48-8.4,7-2.79,3.84-5.57-1.31-8.33-3.39-1.37,4.69-2.74-1-4.1,10.89-1.35,1.34-2.69-1.24-4,2.61-1.33-4.12-2.64-1.44-3.95,3.89-1.31-.13-2.59-1.63-3.88,8.67-2.56,9-5-3.86-7.43.69-2.4-3.75-4.71-4.63-6.94.37-2.31-2.78-4.5-5.49-6.58-1.5-3.74,9.43-7.34,7.39-10.77-1.46-3.43,1.76-6.7,8.68-9.77-1.68-2.07-1.76-4.05,6.5-5.94,4.66,1,10.37,2.26,11.37,3.81,7.4,2.09,10.08,4.67,14.23,7.69,2.36,3,10,6.48,12.47,10.31-1.83,1.19,14.18,2.42,3.4,3.67,5.22,4.27-5.66,8.61-4.32,13,8.53,4.4-6.26,8.85-3.12,13.33-1.71,4.66,2.72,9.36-2,14.09,1.18,4.72,0,9.47-.62,14.21-1.77,4.74-8.13,9.48.62,14.21,4.82,4.72-9.61,9.43,2,14.09a105,105,0,0,0,3.13,13.32c1.39,4.4,9,8.75,4.32,13,8.62,1.25,2.58,2.48-3.41,3.67-6.29,3.83-6.6,7.29-12.46,10.31-1.2,3-5.53,5.6-14.24,7.69C325.41,372.75,322.84,374,319.49,375Zm-72.21-15.52c-5.71-1.86-.86-3.84-6.69-5.94-5.71-3.82-6.48-8-10.37-12.54a28.15,28.15,0,0,0-7.74-14.32c-2-5-1.89-10.24-4.78-15.58.82-5.33-.32-10.77-1.66-16.22-5.65-5.45,2.44-10.89,1.66-16.23-1.68-5.33-1-10.56,4.78-15.57,7.59-5,2-9.82,7.74-14.32,2-4.51,8.77-8.72,10.37-12.54-3.68-2.11,4-4.08,6.69-5.94,8.73.83,4.24,1.92,10.12,3.3,3,1.68,6.52,3.76,11.43,6.19,8.16,2.43,3,5.21,10,8.29.18,2.79,6.36,5.83,7.49,9.07-1.23,2.74-2.82,5.52-2.52,8.33-4.74,2.8-6.35,5.64-1.9,8.48.84,3.45,2.7,6.93-1.46,10.43,1.25,3.49,5.35,7-.43,10.51-3.83,3.51,2.22,7,.44,10.51,6.56,3.5,2.78,7,1.45,10.43,0,2.84,1.4,5.67,1.9,8.48-3,2.81,4.14,5.59,2.52,8.33,5.27,3.23-.54,6.28-7.49,9.07-2.94,3.08-8.19,5.86-10,8.29-2.35,2.43-9.9,4.51-11.43,6.19C256.92,357.57,248.82,358.66,247.28,359.49Zm45.8-89.89c5.23,4,7.89,8.16,3.69,12.4-.46,4.25,4.34,8.57,1.21,12.89-4.43,4.32-2.87,8.64-1.2,12.88-1.75,4.25,4.36,8.41-3.7,12.41-2.66,3.38-.41,6.62-5,9.72,5.6-5.6,2.38-11.38-4.53-17.24,2.11-5.86,1.41-11.81-1.57-17.77,7.14-6-6.84-11.91,1.57-17.77-5.83-5.86,5.57-11.64,4.53-17.24C292.61,263,292.91,266.23,293.08,269.6Zm82.25-6.22c-3.82,5,8.45,10.17,4.61,15.45-1.81,5.29,9.77,10.67,1.52,16.06-2.85,5.38,5,10.77-1.51,16.05-3.22,5.29-6.44,10.48-4.62,15.46.32,3.75-4.13,7.38-5.42,10.86-5.8,3.48-1,6.81-7,9.95-7.9-5.53-5.2-11.2-5.53-17,5.87-5.76-.89-11.62-3.36-17.53-4.6-5.91-10.65-11.86-1.16-17.82-3.92-6,2.66-11.91,1.16-17.82,9.14-5.91-3-11.77,3.36-17.53,5.41-5.77,3.33-11.44,5.52-17,2.22,3.14,4.85,6.47,7,10C378.87,256,370.46,259.63,375.33,263.38Zm-28.27-65.31c14.4-2.61,20.68-4.58,19.67-5.89,7-1.31,8.58-2,20.44-2-2.33,0,.57.05,4.91.14-3.32.14.18.27-.4.41-6.73,4.91-6.83,10.09-12.55,15.51.85,5.41-7.95,11.06-10.42,16.9-8.75-4.1-8.47-7.69-15.32-10.72-9.48-3-3.78-5.5-16.95-7.36-1.66-.24.75-.47-2.23-.69C334.33,202,343.89,199.89,347.06,198.07Zm-79.51,20.28c3.11.93,7.06-.27,7.66-1.68a14.1,14.1,0,0,1,7.89-3c.58,3.34,7.93,2.92,8,1.68,2.65-1.23,7-3.28,8.11-3.2,5.84-2.3,7.19,1,14.23,1.31-10.44,8.65-5.85,3.91-3.74,4-7.85,6.16-1.45,2.95-8.23,10.28-3.7,3.64-3.55,11.82-7,11.07,1.45-1.74-4.43.31-3.34-3.09-2.87,2.22-7.79,2.85-6.38,1.45,4-1.4-6.74-4.83-6.83-10.71-5.56-5.74-3-5.52-7.19-4.75.16.77-4.85,2.08-7.45-1.48C260.49,225,270.67,215.94,267.55,218.35ZM232,361.36c-.73,0-6.19-.39-13-1.22-6.24-.82-4.64-2.07-12.51-3.72A47,47,0,0,1,195,350.31c-4-2.41-5.11-5.17-10.15-8.24-1.11-3.08-7.21-6.46-8.35-10.08-3.24-3.62-6.65-7.49-6.23-11.52-5.35-4,2.54-8.24-3.86-12.53,2.25-4.29,1.62-8.67-1.35-13.05-.79-4.39,3.86-8.77,1.35-13.06-1.11-4.29,2.69-8.49,3.86-12.52-1.15-4,1.89-7.9,6.23-11.52,3.24-3.62,5.57-7,8.35-10.08,10.75-3.07,6.22-5.84,10.15-8.24,1.33-2.41,8.06-4.46,11.54-6.11,4.72-1.65,7.3-2.9,12.51-3.72,8.87-.83,4.91-1.24,13-1.22,3,0,3.07.25,9,.67,3,1.27-.17,2.56-3.63,3.89-4.37,4.33-3.24,9-10,13.83-6.09,4.87-8.4,10-7.34,15.23,5.68,2.63-1.88,5.3-2.6,8-2.65,2.7-.35,5.44-1.85,8.18,2.56,2.75-7.7,5.52-1.14,8.3,1.72,2.78,1,5.57-.33,8.36-.14,2.79,1.4,5.58.33,8.36s3.72,5.55,1.14,8.29c-5,2.75-1.84,5.48,1.86,8.19,2,2.7,6.35,5.38,2.59,8-1.94,2.61,3.36,5.21,3.33,7.76,5.74,2.55-1.26,5.05,4,7.47-2.37,2.42-1.12,4.79,4.71,7.11-3.33,2.31.5,4.56,5.34,6.71,1,1.33,1.12,2.63,3.66,3.91C240.51,361.11,233,361.34,232,361.36Zm67.24,16.24c-10.09,0-11.43-.49-16.15-1.52-1.87-1-12.11-2.59-15.55-4.65-3.37-.6,2.54-1.26-4.35-1.94,6.24-1.55,7.42-3.63,14.67-6.23,0-2.59,8.84-5.69,13.25-9.26a32.66,32.66,0,0,1,3.36-3.11c-.29,1.44-4.34,2.86,2.49,4.26,3.29,3,5.4,6,6,8.84,1.68,2.87,2.52,5.65,6.79,8.31-6.79,1.35-5.2,2.68,3.76,4C315.21,377.12,308,377.58,299.25,377.6Zm47.81,14.11c.9-1.84-14.48-4-13-6.43,4.69-.22,2.23-.46,2.32-.7,5.74-1.87,9.71-4.34,16.94-7.37,2.81-3,14.47-6.61,15.33-10.71,5.33,3.27-4.09,6.48,5.54,9.61-.41,4,3.61,8,8.21,11.81,8.09,3.83,6.68,7.52,9.27,11.05-2.88.15,2.48.3.42.44,0,.09-4.32.13-4.95.14a136.63,136.63,0,0,1-20.44-1.95C358.39,396.29,350.85,394.32,347.06,391.71Zm280-42.47c5.15,5.73-3.33,11.3-8.19,16.68-3.23,5.37-8.23,10.54-10.3,15.47-.56,4.92-6.59,9.61-12.23,14-2.78,4.4-14.27,8.51-13.95,12.3-5.53,3.79-8.1,7.25-15.44,10.37-6.76,3.12-9.77,5.89-16.67,8.28-2.71,2.39-14.66,4.4-17.61,6-4.69,1.61-12.19,2.83-18.25,3.65a122.5,122.5,0,0,1-18.58,1.27,164.1,164.1,0,0,1-18.6-1.18c-10.32-.8-10.67-2-18.28-3.58-2.69-1.59-10.88-3.58-17.66-5.95-7.4-2.18-7.25-4.68-15.44-7.49-.77-2.8-10.89-5.9-14.44-9.29.86-.48,5.7-1.12,10.76-1.94a60.19,60.19,0,0,0,10.59-3c7.66-1.66,6.93-3.68,14.48-6,7.2-2.34,10.78-5,13.61-8,4-3,8.55-6.27,12.47-9.84-.73-3.58-.93-7.44,11.06-11.54,3.33-4.11,10.18-8.47,9.41-13-6.54-4.56-9.17-9.33,7.56-14.27-5.19-3.7,15.17-7.49,4.32-11.35,5.41-3.86,3.26-7.78,3.15-11.76-3.31-4-3.18-8,1.86-12-6.83-4,10.72-8.09.68-12.14,2-4.05-5.21-8.11-.67-12.14-18.4-4-13.53-8.06-1.86-12,2.38-2,3.79-4-1.38-5.93-7.52-2,.38-3.89-1.74-5.83,3.84-1.94-6.6-3.83-2-5.74-1.33-1.9,3.18-3.75-2.3-5.62-2.09-3.72,3-7.33-5.47-10.83-6.3-3.49-3.49-6.88-6.56-10.14-.25-3.28-9.33-6.41-7.53-9.4,7.87-3-3.36-5.82-8.45-8.51-9-3.58-4-6.88-12.47-9.86,2.39-3-4-5.66-13.62-8-9-2.35-11.75-4.36-14.49-6-6.43-1.17.89-2.17-10.55-3-3.4-.82-10.86-1.46-10.71-1.94,2.65-3.36,9.21-6.45,14.37-9.24,5.75-2.79,4.86-5.28,15.38-7.45.51-2.37,12.9-4.36,17.66-6,6.62-1.59,14-2.78,18.28-3.58,9.27-.79,7.24-1.19,18.6-1.17-3.76,0,13.76.43,18.58,1.26,2.68.82,11.82,2,18.25,3.66,13,1.61,11.12,3.62,17.61,6-2.1,2.39,13.49,5.16,16.67,8.28-2.95,3.12,17.23,6.59,15.43,10.37-2.43,3.79,13.53,7.9,14,12.3,1.59,4.39,18.37,9.08,12.23,14,5.89,4.93,5.78,10.1,10.29,15.47,3.87,5.38,10.45,10.95,8.19,16.68,6.91,5.73,4.2,11.61,5.93,17.6,5.92,6,7.64,12.08,3.57,18.22-2.32,6.14.84,12.34,1.18,18.53,1.73,6.19-6.57,12.39-1.18,18.53-7.3,6.14-2.34,12.23-3.57,18.22C641.65,337.63,629.48,343.51,627,349.24Z"/>
</svg>
