<svg id="Calque_1" data-name="Calque 1" xmlns="http://www.w3.org/2000/svg" width="29.7cm" height="21cm" viewBox="0 0 841.89 595.28">
  <defs>
    <style>
      .cls-1 {
        fill: #5f5e5e;
      }
    </style>
  </defs>
  <title>Plan de travail 1</title>
  <path class="cls-1" d="M113.69,217.69c0,3.42-1.94,10.7-3.88,11.66-2-.35-3.89,5.67-3.89,11.67,0-8.45,1.89,5.33,5.59-2.61,1.84,8.94,4.14,7.06,6.87-.52,1.37-14,2.85-4.52,4.43-7.91,1.59-4.89,3.28,14.09,5.08,3.65,3.59,1.17,7.61,3.4,12-2,2.22,2.37,4.54-.54,7,1.28,2.42.66,4.95,1.2,7.57-1.76,2.62.4,5.35-13.12,8.17-1.27,2.83,8,5.75,3,8.77,1.41,3-2,6.13-.93,9.34,2.95,3.22-1.62,6.52-4.41,9.93,1.31,2.72-13.62,5.36,1,7.92,2,1.29.44,2.55,1.29,3.8,1.43,1.24-.07,2.47,5.54,3.69.67,1.21-3.55,2.4,6.59,3.58,8.89,1.18,3.94,2.35,4.21,3.5-3.2,2.3.71,4.54,5.88,6.73-1.13,2.18,5.12,4.32,4.63,6.41,6.22,2.1,2.07,4.14.86,6.15-1.34,2,4.84,4-3,5.94,7.69,1.94,4.55,3.86,1.05,5.75-2.69,1.9-.84,3.77-3.66,5.63-1.27.92-5,1.85-4.61,2.77-4.63.93-.67,1.85,6.05,2.76,9.41,3.68,3.62,7.33,2.37,11,6.11,2.45-1.45,4.92-4.87,7.42,2.33,2.5-11.27,5-.34,7.61,3.18,2.58,9,5.21,1.25,7.91,2.31,2.7,10.75,5.47-2.87,8.32,1.95,1.43-5.84,2.88-7.08,4.35-5.52,1.47-3.49,3,4.39,4.49,7,3-8,6.18,3.1,9.45,1,4.08,9.79,8.12-5.46,12.13.8,4-2.27,8,3.2,11.95.47,4-5.53,7.9,7,11.84,1.5,2-4.19,3.93,3,5.9-2,2,1.52,3.93,2.1,5.9.35,2,.06,3.94-1.28,5.92-4.92,2,4.49,3.95-5.67,5.93,4.27,2,5.35,4,3.32,6-3s4-2.36,6,2c3-.05,6-2.26,9.1-.67,3.05.53,6.13-3.37,9.24-1.7,3.11,4.54,6.24-14.86,9.41-.71,1.59,8.51,3.18,9.53,4.79,3.87,1.6-.9,3.21-10.16,4.83-6.55,1.63-4.68,3.26,7,4.9,5.47,1.64,3.23,3.29-12.35,5-6.11,3.33-8.78,6.7,2.76,10.12-3.79a80.45,80.45,0,0,1,10.43-2.64c1.76,1,3.54.92,5.33,1.23,1.8,4.73,3.6,10.49,5.43-4.14,1.62,5.39,3.29,6.86,5,1.54,1.73-.93,3.51-15.93,5.35-5.05,3.67,1.41,7.54-7.37,11.59-1.79,1.81,9.92,3.64,4.72,5.51,5.27,1.87-4.86,3.77,3.31,5.7-7.47,1.94,7.27,3.9-10.47,5.89-5.22,2-1.48,4,1.64,6.07,3.15,2-5.21,4.12-5.27,6.21-6.78,2.1-14.09,4.23,6.78,6.37,1.48,2.14.87,4.31.24,6.5-2.75,2.18-.51,4.39-2,6.61,4.44,2.23-4.61,4.47-5.75,6.73-5.35s4.53,2,6.81,3.88c2.29-4.93,4.59,1,6.9-2.26,2.31-.46,4.63.71,7,1.06,2.33,10.66,4.67-2.85,7,.34,2.35-12.13,4.7,2,7.06-1.26,2.36,3,4.72,3.55,7.08,3s4.73-2.17,7.1-3.61c2.37,4,4.73,6.12,7.1,3,2.36,1.43,4.73,2.48,7.08-3.76,2.36,15.75,4.72-2.06,7.06.65,2.35,5.1,4.69-6.83,7,0,2.33,2.53,4.65,4.34,7,4.67s4.61-.83,6.9-4.22c4.58-3.92,9.11,5.31,13.57,1.15,2.23-3.4,4.44,5.72,6.63,0,2.2-6.83,4.37-5.72,6.52,1.48,2.15,4.46,4.28,13.34,6.38,8,2.11,4.14,4.19-6.58,6.25-5.93,4.11-4.44,8.11,1,12,2,1.94.22,3.85-2.32,5.73.42,1.88-.13,3.73,2.69,5.54,3.28,3.62,9,7.1-2,10.43,3.75,3.33.63,6.5,3.6,9.49,4.39,0,3.93,3.31-2.9,6.61-7.77,3.31,3.52,6.61-16.81,6.61-7.78,0,7-1.85-10.06-5.46-2.32-1.81-1.6-4,4.7-6.72-1.91-2.67,5.77-5.77-11.31-9.28-3.62-3.51,8.74-7.43-8-11.75-5.13-4.33,4.89-9-1.72-14.17-1.47-2.56-2.53-5.21,5-8,0-2.75-11-5.6-4.6-8.54-3-2.94,6.5-6,5.41-9.1-.27-3.13-2-6.35-2.3-9.66-2.23-3.31.64-6.71,5.34-10.2-1.53-3.49.43-7.07-4.55-10.74-.88-3.66.78-7.42-7.11-11.26-1.76-3.84-7.88-7.77-2-11.79,1.85-3.34.83-6.74-4.82-10.2.12-3.47,9.65-7,2.73-10.56.37-3.58-4.14-7.21-2.63-10.9,1.68-3.69-4.65-7.43,2.89-11.23-.1-2.54-3.4-5.1-1.6-7.68.79-2.58-1-5.19-1.47-7.82.94-2.63-.82-5.29-4.34-8-1.46-2.68,6.4-5.39-1.51-8.11,3.78-2.73,0-5.48,2-8.25.23-2.77-2.18-5.57.43-8.39,2.74-1.76-4.21-3.5-1.36-5.23-.59-1.73,4.08-3.45,6-5.14,2.62-3.4,4-6.73.41-10,1.95-3.27,5.18-6.48-6.34-9.63,1.87-3.14-1-6.23,3.85-9.26,1.79-1.52,13.3-3,5.41-4.51,7.58-1.49.47-3-.6-4.42-7.68-2.92,10.56-5.78-8.33-8.59,3.44-2.11-3.72-4.18,6.65-6.23,2.11-2-1.61-4.06,8.17-6,.17-4,1.08-7.85-.49-11.6,2.09s-7.41,2-11,2.32c-3.54,12.8-7-8.17-10.34,1.25-1.68-8.25-3.33-6.15-5-5.22-1.63,2.3-3.24,6.57-4.82,6.69-3.17,7-6.26,1.5-9.26,1.26-3,7.45-5.92,6.24-8.76,1-2.85,1.77-5.62-6.58-8.32.82-3.24-9.37-6.39,9.79-9.44.68-3.06-1.36-6,3.47-8.93.35-1.44,8-2.87,7.89-4.28,6.54-1.41,3.34-2.81.71-4.19-6.5-2.75-10.94-5.44,11.38-8.08-.39-1.54,3-3.06.88-4.57-3.45-1.51,4.54-3-7.09-4.47,2.59-3-1.79-5.86,8.83-8.72-1.36-1.43-12.49-2.86-3.5-4.27.25-.71,6.94-1.42,12.68-2.12,7.36-.71,2.36-1.41-9.09-2.12-10.05-2.81-8.68-5.6-5.91-8.4-1.86-3.19,1.64-6.39-2.65-9.61-3.42-1.61,3.74-3.23-3-4.86-4.11-1.62,1.15-3.26-10.27-4.92,0-1.88-1.07-3.75-3.91-5.6,1.26-1.86-3.11-3.69-7.84-5.51-6.39-3.64-10.65-7.22,6.57-10.77-5-1.77-8.82-3.54-14.62-5.3-9.06-1.75-6.76-3.51-5.49-5.25,4.31-.88,5.58-1.75,7-2.63,5.75s-1.74-5.25-2.61-10.5c-1.75,3.51-3.49-3.61-5.24.33-1.74,1.11-3.49,3.4-5.24,4.33-1.75,2.81-3.51-4.72-5.28-6.46-1.76-3.86-3.53,3-5.31,2.61-.45,2.36-.9,4.9-1.34,9.15-.45,5-.9-7.5-1.35-6.17-.89-14.31-1.79-5.49-2.69-10.95-1.81-1.05-3.63-1.22-5.46,1.85-1.83-4.08-3.68-12.75-5.55-4.88-1.87-.18-3.76-20.66-5.66-5.35-1.91.47-3.84-3.19-5.79,3.33-1,3.35-2,9.58-3,6.77-1-5.36-2-.23-3-10.55-2,16-4-2.21-6.09,4.79-2.06-1.48-4.14,7.46-6.26,3.07-2.12,4.39-4.27-6.85-6.46-6-1.09-3-2.19-5.57-3.31-9.66-1.11-7.51-2.23-1.56-3.35,5.05-1.13.92-2.27,1.19-3.42,6.8-1.15,7-2.31,4.13-3.47-3.91-2.34,18.37-4.72,5.94-7.13,5.55-2.42-9.49-4.89-1.21-7.39-1.77-2.51,6.28-5.06-8.81-7.66-.71s-5.26.31-8,2.17c-2.7-5.54-5.45-3.83-8.25,5.51C119.47,218.43,116.61,217.81,113.69,217.69Z"/>
  <path class="cls-1" d="M111.36,353.77c0-.46-2.53,20-5,12.83-1.27-.06-2.53,6-3.48,11.38-.47,4.35-.87,14.52-1.14,9.68-.28,3.27-.44-8.15-.44-8.23,0-1,1-20.78,3.25-2.45,2.25-6.22,5.76-.18,10.79-4.84,1.25-3.67,2.6.89,4.06,5.84,1.45,1.62,3-2.7,4.65-6.37,1.65,2.48,3.41,3.33,5.27,3.47,1.86.56,3.83-1.28,5.91-6.4,2.08,1.45,4.27,7.63,6.58,2.59,2.31-2.53,4.73-7.35,7.27-4.29,2.55-4.38,5.21,10.46,8,4.42,2.79,15.25,5.69-1.72,8.73-1,3-13,6.2-5.93,9.49,4,3.3-10.31,6.73-7.67,10.29.46,1.78,13.4,3.59,8.65,5.44,7.24,1.85,2.88,3.74,2.83,5.66-5.08,1,.34,1.92,4.72,2.9,6,1-1.13,2-3.6,3-9,2,18.21,4-1.94,6.07,7,2.95-2.73,5.86-3.67,8.75,2.74,1.44-7.44,2.88.32,4.31,4.45,1.43,3.34,2.86,6.27,4.27-2.05,2.84,5.43,5.64-3.31,8.42,2.07,2.78,6.95,5.53-12.91,8.26,1.76,2.72-6.36,5.42-8.15,8.09,2.53,2.67-13.79,5.32-2.63,7.94.09,2.61-7.44,5.21.23,7.77.93,2.57-3.15,5.11-2.71,7.62.67,2.51-11.92,5-4.88,7.46-1,1.23,1,2.45,4.83,3.67,6.78s2.43,2,3.64-4.48c2.41,1.41,4.79-11.77,7.15.47,2.36-9.85,4.69-2.2,7-1.35,2.31,1.51,4.59-11.49,6.85,3.05,2.25-15.27,4.49,1.37,6.69-3.94,2.21-2.9,4.39-.23,6.55,5.46,2.16-3.67,4.3,6.34,6.4-6.94,2.11-1.33,4.2-1.15,6.26,3.4,2.06.54,4.1-4.08,6.11-5.32,2,8.41,4,1.63,6,4.08,1,6.61,2,4.28,2.93.67a33.46,33.46,0,0,1,2.89-7.06c3.84-1,7.58,3,11.23-4.11,3.65,1.18,7.21,10.83,10.67-1,3.47.84,6.84-1.17,10.13-2.58,3.29,1.68,6.49-7.12,9.6-2.45,1.81,4.35,3.65,6.47,5.53,6.4s3.77-2.32,5.7-6.7c3.86,2.12,7.82-7,11.89-5.64,2,7,4.1-8.95,6.18-5.9,2.08-9.46,4.19,3,6.32,2.72,4.26,5.12,8.61-7.5,13.05-3.17,3.55-5.59,7.15,1.5,10.8-2.46,3.65-10.05,7.34,6.48,11.09-2.33,3.74-11,7.52-3.72,11.35-7.2,3.82,3.92,7.69-8.75,11.58,3.18,3.9,1.91,7.84-10,11.8-.43,4-10.52,7.95-11.88,12-2.39,2,8.24,4,16.42,6,2.43,2-1.91,4-10,6.08-3.24,2,10.53,4.07,5.88,6.11,3.82,2,5.1,4.09,7.5,6.14-4.16,2,7.58,4.1,6.7,6.16,3.76,2.06-11.89,4.12-3.34,6.19-3.57,4.12-8,8.27-4.63,12.41.78,3.11-2.22,6.18.58,9.21-.15,1.51-4.86,3-4.15,4.5-4.18,1.49-1.54,3,12.75,4.44,6.74,2.93-1.86,5.81-9.85,8.64,1.08,2.84-.58,5.62,2.53,8.34,2.64,2.73.8,5.4-7.53,8-1.24,2.61-3.48,5.17,7.56,7.65,2.74,1.25-3.38,2.47-9.65,3.69-7,1.21-1.09,2.4,8.23,3.58,10.57,2.36-5.89,4.65,3.3,6.87,4.8,2.22.68,4.37-1.54,6.45,5.71,2.08-1.34,4.08,16.25,6,4.49,3.85-3.38,7.39-.08,10.59.53,3.2,9.3,6.05,8.3,8.54,4.75,2.49,4.74,4.6,9.35,6.32,3.85,3.43-7.6,5.27,6.66,5.27,3.52,0,1.82,4.86.73,9.72-8.95,4.86-6.36,9.72-.61,9.72-8.94,0,.48-3.47-4.13-10.09-6.74-1.66-4.5-3.51-1.27-5.56-5.2-2,3-4.28,6.4-6.71-5.39-2.42,3-5-7.23-7.83-5.31-2.79,3.38-5.77,9.44-8.93,1.16-2.1-6.17-4.28-6.91-6.54-6.41-2.26-1.59-4.6-6.15-7,1.14-2.41,15.66-4.9-6-7.47-2.32-2.56-5.51-5.2-6.05-7.91-2.61-2.71,3.15-5.49-4.82-8.35-1.42-2.86-7.65-5.78-1.8-8.78,1.94-3-2.28-6.07,4.71-9.2,1.07-3.14-2.24-6.34-13.6-9.62-9.25-3.27-7.95-6.61,8.5-10-2.61a33.1,33.1,0,0,0-10.42.49c-3.53-.18-7.13,7.7-10.79-.76-3.67,5.72-7.39-.61-11.18.2-3.25-14.4-6.54-13.33-9.87-4.6-1.67-6.42-3.35-6.11-5-3.87-1.69-1.25-3.39,15.42-5.1,9.45-3.42-7.72-6.89,3.63-10.4,1.66-3.51-.31-7.06.35-10.65.88-2.4,3.67-4.81,4.27-7.24,5.6-2.43,7.89-4.88-1.77-7.35,1.12-2.47-6.08-4.95-16.26-7.46-2.43-2.5-11.43-5-2.58-7.56,7s-5.09.35-7.67,1.09c-2.57,1.58-5.16-4.14-7.76-1.89-1.76-4.39-3.51-6.74-5.24-3-1.74,2.5-3.46,6.53-5.16,6.18-3.42-6.29-6.78-4.41-10.09,2.93-3.31-6.75-6.57-1.25-9.78.49-3.21.14-6.37-.31-9.48,4.72-1.55-9.64-3.09,5.18-4.62,6.36-1.53,9.93-3.05-2.69-4.55-4.05-3,2.37-6-8-8.88,2.1-2.91,13.64-5.77-2.37-8.58,5.93-2.82,3.09-5.58-9.15-8.3-2.27-1.81-1.49-3.6-2-5.37-5.33-1.77,1-3.52-2.74-5.24,7.38-3.46,7.64-6.83,8.49-10.12,1.75-3.29,10.63-6.49-.65-9.62,1.48-3.13-3.37-6.17,4.8-9.14,1.22-3.71,7.69-7.29.61-10.75,1.19-3.47.22-6.81,8.92-10,.84-1.61,4.94-3.2,7.51-4.75-4.73-1.55-.58-3.08-9.59-4.57,5.26-3,3.56-5.87-11.3-8.63.25-4.14,3-8,25.63-11.68-.07-3.64,3.32-7,7.12-10.21-.53-3.17-6.1-6.1-9.44-8.8.42-2.71-2.24-5.19,22.84-7.45-2.36-2.26,1.93-4.31,11.44-6.15,4.29-1.84,14.88-3.47,2.11-4.9-6.68-1.44,11.35-2.67-6.54-3.72.57-.53-6.82-1-6.79-1.43-8.57s-.82-1.14-1.16,6c-.91-7.55-2.19-9.42-3.81-9s-3.58,3-5.84,4.54c-2.27-3.6-4.84-3.24-7.69-3.61s-6-3.45-9.33-4c-1.68-7.17-3.42-6.33-5.22-7.93-1.8-7.44-3.65,7-5.56,3.86-1.9,9.11-3.86.09-5.87,2.21-2-.88-4.06-8.36-6.16-5.94-2.09-2.31-4.24-8.72-6.42-5.38-1.09-8.85-2.19-5.08-3.3-6.36-1.11,11.06-2.23,5.43-3.36,9.82-4.51-3.61-9.17-5.33-13.93-3.1-2.39-3.83-4.8,6.59-7.23,1.42-2.44-1.21-4.89,6.54-7.37-1.48-2.48-.24-5,13.48-7.48,1.34a8.65,8.65,0,0,0-7.58-.55c-2.53-.45-5.08,11.79-7.64.39-2.55,3.26-5.11,19.14-7.68,1.69-2.56,4.51-5.13-7.63-7.7,3.17C116.49,342.06,113.92,351.86,111.36,353.77Z"/>
</svg>
