<svg id="Calque_1" data-name="Calque 1" xmlns="http://www.w3.org/2000/svg" width="29.7cm" height="21cm" viewBox="0 0 841.89 595.28">
  <defs>
    <style>
      .cls-1 {
        fill: #5f5e5e;
      }
    </style>
  </defs>
  <title>Plan de travail 2</title>
  <path class="cls-1" d="M743.78,359.67c-1.73,4.85-3.85-3-6.31-3.44s-5.25-.37-8.33,3.35c-3.08-4.64-6.45,9.69-10-2.94-3.6-1.78-7.43-2.69-11.44,2.37-4-2.79-8.21-6.18-12.53-.62-2.16,11.55-4.35,12.87-6.57,4.41-2.21-1.11-4.46-4.33-6.72-5.34-4.52-1.54-9.12,6.75-13.74-2.08-4.62-11.55-9.26,1.45-13.88-.94-4.61,4.42-9.19,7.62-13.69,3.62-4.5-1.21-8.91-6-13.19-8.6-4.28,5.41-8.43,2.25-12.38-2.44-4,5.38-7.73-13.31-11.25-5-2.12-9.37-4.15-11.12-6.08-13.19s-3.76-.73-5.49,7.36c-3.44-13.15-6.45-.46-8.93-7-2.48,2.49-4.43-20-5.76-12-1.34-5-2.05-6.24-2.05-5.91,0-5.47-.62,1.25-1.78-9.9-1.17-18-2.88-.71-5.05-9-2.17,1.46-4.81-9.26-7.83-8.09-3-2.14-6.43-15-10.14-7.24-3.71-13.31-7.73-1.51-12,2.18-4.25,9.17-8.72-11.17-13.34-14.18-4.62-3.52-9.39-11.12-14.23-2.56-4.84,2.58-9.75-1.93-14.64-6.37-2.45-5.42-4.9-1.95-7.33,1.52-2.44,6.36-4.86,0-7.26-4.9-2.4,3.1-4.78-.45-7.12-6.44-2.35-3.15-4.66-4.61-6.93,3.74-2.27,5.15-4.5,9.69-6.68,5.6-2.18-3.23-4.3-9.07-6.37-10-4.12,16.36-8-2-11.56,1-3.55-15.87-6.78-5-9.61-1.21-2.82-10.34-5.24-10.51-7.18.11-2.25,4-5,2.42-8.2-6.54-3.18,17.53-6.77-2.48-10.67,5.92-3.89,11-8.1,8.8-12.52,1.39-4.41-4.64-9-8.07-13.77-3.79-9.46-20.3-19.35-4.21-28.87-5-4.75,5.53-9.42-5.67-13.89-3.2-4.47-1.88-8.74-4.54-12.72-5.16-4,7.83-7.66,3.83-11-.09-1.64.77-3.18-14.63-4.62-.79-1.43-.49-2.75-2.39-3.94-11.67a87.49,87.49,0,0,0-5.59-12.88c-1.3-2.39-2-3.42-2-4.68,0,10.67-1.89-34.92-5.25-12.59-1.68,5.65-3.73-13.6-6.09-7.63-2.36-15.72-5-14.17-8-3.14-2.94-17.74-6.14-7.62-9.55-2.43-3.41.86-7-10.44-10.81-6.6-2.83-1.72-5.76-5.89-8.74-7.28-3-5.95-6.05-1.43-9.15,1.6-3.1-6-6.24,5.88-9.41-4.29-3.16,6.05-6.35,2.17-9.54-.51-3.19-5.87-6.38-.14-9.54,1.57-3.17-4.74-6.31-9.85-9.41-1.87a28.74,28.74,0,0,0-9.14-6.46,12,12,0,0,0-8.75-.33c-5.67,4.13-11-9.09-15.76-.12-4.79.52-9-4.17-12.58-3.9-7.08-8.47-11.33,5.38-11.33-1.27,0,5.57-2.66.57-6.64,9.6-4,4-9.28,6.31-14.59-2.3-5.31,1.91-10.61,6.39-14.59,7-4,1.29-6.63,1.49-6.63.36,0,5.55,3.79-6.16,9.86,1.72,3,.07,6.64,6.42,10.62.68,4-4.48,8.35,10.64,12.9,4.85,4.55-6.08,9.29,9.8,14,14.41,4.75-7.87,9.49,2.64,14-4.52,4.55-5.31,8.91,11.11,12.9,5.4,2,2.31,3.89,1.61,5.66,1.86s3.44-.43,5,7.56c3-4.53,5.5,13.88,7.21,9.43,1.7,22.17,2.65,9.4,2.65,10.87,0-1,.16,16.35.47,10.9.31,2.92.76,8,1.35.62.59-6.92,1.31-6.14,2.15,1.51.85,2.83,1.82,8.38,2.89,9.68,2.15-9.9,4.74-8.63,7.67,1.73,2.93,17.85,6.19,17.6,9.69,18.85s7.23,9,11.1,9c1.94-5.85,3.91-1.93,5.9,2.47s4,11.07,6,5.34c2.7,5,5.41-1.76,8.1,3.27,2.7,10.29,5.38,7.07,8,5,2.64-7.54,5.23-5.46,7.75-4s5,11.2,7.31,9.29c4.68,16,8.95,7.94,12.56,1.88,2.26-7.91,4.9-7.49,7.86-2.86,2.95,5.35,6.2,6.16,9.67,5.54,3.48,12,7.17,5.13,11,2.71,3.82,5.6,7.77-4.18,11.76,5.08,4-.14,8,11,12,5.69,4-1.31,8-2.91,11.79,6.82,3.83-1.67,7.53,4.58,11,7.1,3.49,8,6.77,6.77,9.74,9.78,3-2.88,5.65,5.22,7.94,14.18,2.29,13,4.19-7.16,5.62,6.67,1.43-9,2.38,7,2.78,10.06.2-7.81.26-3.16.17,2.92s-.34,22.92-.74,11.47c-.81,1.43-.78,12.13,0,13.81.73,12.91,2.15-8.13,4.15,11.65,2,7.64,4.55-6.79,7.54,12,3,12.3,6.43,3,10.15,11.35,2.49,16.71,5.11,14.65,7.82,13.64,2.71,3.17,5.52-4.92,8.38.21,2.86,3.06,5.77-4.66,8.7-2.24,2.93,8.77,5.88,10.51,8.8,14.32,2.92-2.13,5.82,1.6,8.65,5.25s5.6,7.2,8.26,4.73c4,18.79,7.76-9.2,11.16,3.05,3.39,1.39,6.43,6,9,7.24,5.06-3.18,8.12,10.5,8.12,3.69,0,3.22,2.32-8,6.52.41,2.1-10,4.67-8.08,7.65.36,3,7.15,6.38-14.37,10.13.34,3.76-13.12,7.87-1.24,12.29,2.32,2.21-4.33,4.49-1.45,6.85-5.41,2.35,2.35,4.77-2.72,7.26,3.29,2.48,5.34,5,7.91,7.63,7.93s5.26-2.54,8-7.44c5.41,7.58,11-6.63,16.75-1.58,5.74-6.5,11.62-.28,17.58-2.86,6-1,12-1.72,18.08-.33,3,12.75,6.08-2.39,9.12,1.32,3.05-3,6.09-2.35,9.12-3.94,3-8.72,6.07-1.27,9.08-1.34,3,4.55,6-4.27,9-2.1,3,.32,5.94-2.61,8.87-2.65a20.61,20.61,0,0,1,8.7,2c5.74-15.94,11.34-13.31,16.74-9,5.41-10.68,10.62-8.44,15.58-10s9.68-2.15,14.08-4.2c8.82-12.78,16.42-1.95,22.36-19.47,3-17.21,5.53-8.74,7.61-11.95s3.7-8.69,4.79-13.57a84.33,84.33,0,0,0,1.64-15.17C745.61,365,745,356.85,743.78,359.67Z"/>
</svg>
