<svg id="Calque_1" data-name="Calque 1" xmlns="http://www.w3.org/2000/svg" width="29.7cm" height="21cm" viewBox="0 0 841.89 595.28">
  <defs>
    <style>
      .cls-1 {
        fill: #5f5e5e;
      }
    </style>
  </defs>
  <title>Plan de travail 3</title>
  <path class="cls-1" d="M797.57,291.83h0a6.65,6.65,0,0,1-.75,3.8q-.75-7.08-2.26-9.76c-1-.82-2.26,4.38-3.76-6.6-1.51,2.27-3.27-12.68-5.28-8.27-2-.63-4.27,5.94-6.78-13.25-2.51-8.42-5.27,6.24-8.28-6.1-1.51,13.89-3.08,9.27-4.71,6.19-1.63-13.72-3.33-7.12-5.08-15.44-1.76,17-3.58,1-5.46-2.2-1.89-6.15-3.83,0-5.84-7.89-2-4.94-4.08-6.73-6.22-7.77s-4.33-1.36-6.59-3.35c-4.52.78-9.29,11.42-14.31-3.76-5-5.93-10.29-7.43-15.82-6.54-5.52-.94-11.29,1.91-17.32.59-4.52,0-8.91,5.79-13.18.9-2.13-12.16-4.23,3-6.3,4.62-2.07,6.95-4.11,16.61-6.11-2.07-2,11.78-4,18.1-5.92,12.86-1.94,13.84-3.85,7.63-5.72-2.4-1.88-3.58-3.72-7.7-5.53-6-1.8-.83-3.58.11-5.32,4.62-3.48-9.51-6.83-12.35-10-4.7-3.21,15.53-6.29-1-9.24,17.56-2.94-11.57-5.74,2.23-8.41,8.33-2.66,5.47-5.19,10.62-7.58,6.42-3.18,5.94-6.11,25-8.78,10-2.67,6.19-5.09,14.75-7.25,9.4-2.16,12.37-4.05,23.06-5.68,6.89-1.64,8-3,5-4.1,8-2.2,11.5-3.31,6.75-3.31,6,0,14.23-.48,8.84-1.39,10.73-.91,4.42-2.26-1-4-10.73-1.75-4.09-3.9-3.22-6.41-6.71-2.51,2.76-5.38.35-8.57,6.71-1.6,15.75-3.28,6.33-5,7.67-1.76-6.75-3.59-6.06-5.49-7.67-1.91-9-3.88-.4-5.92-3.65-2-.13-4.15,1.77-6.32,3.65-2.17,3.15-4.4-3.81-6.69-1.5-2.29,1.45-4.64,3.58-7,2.6-4.8,3.49-9.81-5.47-15-1.1-5.19-1.06-10.54,5.35-16-4.65-5.49,5.22-11.11,13.48-16.83,4.65-5.73-17.74-11.55-15.33-17.42-6.6-5.88,3.06-11.82,14.35-17.78,6.6-3,7.51-6,9.31-9,11.83s-6,2.17-8.95-5.45c-6-3-11.91,2.44-17.81-6.38-5.89,1.69-11.73,10.13-17.48,4.64-5.75-1.82-11.41,6.45-16.93-4.64-3.16-10.77-6.28-4.36-9.34-3.5-3.07.06-6.09,1.52-9.05,3.5s-5.87,3.22-8.71,1.22c-2.84-.58-5.62-2.42-8.32-1.22-5.42,4-10.55,2.24-15.34,4.42-4.8-6.9-9.25,7.11-13.31-4.42-4.06,1.9-7.73-6-10.95-1.84-3.21,10.49-6,.56-8.23,1.84-4.51-9.28-7,2.23-7,0,0-.86-1,6.64-3-6-1,9.6-2.26,2.53-3.76-1.83-1.51-10.39-3.27-4.79-5.27-13-1-3.17-2.08-8.75-3.21-11.93s-2.32-3.93-3.57,2.53c-2.51-6.64-5.28-9.7-8.29-10-3-10.5-6.28,12-9.79-6.66-3.52-8.49-7.28-14.08-11.3-12.68-4,3.3-8.28-4.22-12.8.49-4.52,0-9.29,3.65-14.32-15.37-5-4.7-10.29-2.13-15.81-7.19a35,35,0,0,0-17.33,1.24c-12-22.85-23.21-.43-33.44,6-10.23,13.17-19.52-4.17-27.86,14.88-4.16,6.3-8.09,9.21-11.76,12.6-3.68,1.3-7.11,8.89-10.29,6.74-3.18,1.9-6.11,2.11-8.79,10-2.67.91-5.09,4.45-7.25,9.4-2.15,3.83-4,10.39-5.68,8.47-1.63,1.93-3-.13-4.1,6.4-2.19-5.38-3.31,4-3.31,6,0-3.2.9-5.94,2.46-2.63,1.56-.36,3.8,5.13,6.48,13.92,2.68,5.5,5.8-6.6,9.15.17,3.35,1.8,6.93,7.39,10.5,24.69,7.15,6.61,14.3,12.28,19.66,24.86,5.36,7.82,8.93,15.94,8.93,11.3,0,1.95,1,3.3,2.64,3.62,1.68-1.95,4.08.41,7,9.56,2.88,2.53,6.24,17.36,9.83,13.51,3.6-14.72,7.44,18.6,11.28,15.49,3.84,11.61,7.68,17,11.27,12.5,3.6,3.81,7,17.18,9.84,16.49,2.88,3.8,5.28,2.1,7,9.82,1.68,10.3,2.63,8.17,2.63,3.37,0,2.85,1.76,8.26,5.05,0,3.3-5,8.14,5.43,14.31,0,3.09-7.88,6.51-.71,10.24-.38,1.87-9.89,3.81-2.38,5.83-5.92,2,.15,4.1,2.33,6.26,6.3,4.32-11.19,8.92,1.32,13.78-1.42,4.86-5.32,10-1.42,15.32,1.42,5.34-17.49,10.92-9.31,16.7-3.29,5.77,7.18,11.76,12.62,17.92,3.29,6.16-1.42,12.5-5.18,19-4.15,6.49.26,13.13,6,19.9,4.15,3.39-3.91,6.8-.31,10.25-5.18,3.44-.78,6.92,2.57,10.41,5.18,3.5-1.85,7-10.9,10.57-5.15,3.55-2.52,7.11-.82,10.7,5.15,3.13-.64,6.29-4.27,9.45-5.29,3.16,1.36,6.34,6.93,9.52,5.29,3.19-1.12,6.38-3.12,9.59-3.51,3.2,2.58,6.41-.07,9.63,3.51,3.21,11.93,6.43,19.37,9.66,2.18,3.22,5.94,6.45-16.35,9.68-4.71,3.23-20.74,6.46-7.34,9.69,3.42,3.23,4.73,6.46-9.4,9.68-.89,3.23-5.53,6.45-13.64,9.67-6.36,3.21,2.65,6.43,5.43,9.63,3.74,3.2-11.86,6.4,15.55,9.59,1.08,3.18-11.1,6.36-8.66,9.52,1.54,1.59-5.24,3.17-6.29,4.74-6.3,1.58-4.32,3.15,1.07,4.72,6.81,1.57.76,3.14,3.87,4.7,6.32,1.56-4.33,3.12-1.1,4.67-6.83,1.56.31,3.11-6.09,4.66-6.2,1.54-3.63,3.08-6.73,4.62-3.08,3.07-6.13,6.13,3.91,9.16,9.28,3-1.57,6.05,7.43,9.05-3.22,3,9.06,6,6,8.9,2.5,2.94-.25,5.86,2.25,8.76,4.65,2.89-5.74,5.75-6.23,8.59-3.93,2.83-2.58,5.64-3.33,8.41-4.14s5.52.41,8.23,8.05c5.42-.58,10.71-7.4,15.84-3.91,5.13,3.78,10.11,1,14.92-.15,4.81.4,9.46.85,13.91.15,4.46,7.79,8.72,1.2,12.79-.92,4.06,15.13,7.92,2.75,11.56.92,3.64,12.67,7.06,4.18,10.23,3.68,3.18,4.21,6.12-4.87,8.8-3.68,6.08,5.45,10.84,3.05,14.09,0,3.24-.09,5-3.29,5,0,0-6.12,2.74-3.33,7.13-8.78,2.19-14.46,4.79-5.08,7.67-11.77,2.87-5.65,6-2.67,9.31-9.15,3.29,2.16,6.71-15.46,10.14-15.9,3.42.4,6.85-11,10.13-9.07,1.65-8.28,3.26-5.88,4.82-11.26,1.55-.95,3.06,1.1,4.5-.24,2.88,2.56,5.48-8.62,7.67-9.42,2.19-6.53,4-3.47,5.2,2.79,1.24-5.73,1.92-6.18,1.92-11.56,0,2.46,0,.58,0,0,0-3.46,3.57,2.59,8.94-11.3,1.34-3.18,2.8-1.46,4.33-1.25s3.16-1.11,4.84-10.33c3.35.35,6.93-17.78,10.51-13.28,3.58-10.44,7.16-27.19,10.51-17.6,3.35-1.59,6.49-7.63,9.17-7.26,2.68-2.46,4.92-13,6.48-12.42C796.68,287.78,797.57,287.11,797.57,291.83Z"/>
</svg>
