<svg id="Calque_1" data-name="Calque 1" xmlns="http://www.w3.org/2000/svg" width="29.7cm" height="21cm" viewBox="0 0 841.89 595.28">
  <defs>
    <style>
      .cls-1 {
        fill: #5f5e5e;
      }
    </style>
  </defs>
  <title>Plan de travail 4</title>
  <g>
    <path class="cls-1" d="M791.43,291.83c0-3.62-1-13.52-3-6-1-3.73-2.26-8.56-3.77-1.85-1.5-8.58-3.26-13.06-5.27-13-2-11.63-4.27-13.09-6.78-12.32-2.51-9-5.27-4.32-8.29-7-3,5.59-6.27-4.2-9.79-10.65-1.75-7.23-3.58,2.83-5.46-7.4-1.88-3.12-3.83,1.16-5.84-1.29-2-1.37-4.08-6.08-6.21-13-2.13-5.75-4.33-7.41-6.59-4.44-2.26-1.23-4.58-7.85-7,1.36-2.38-3-4.83,5.54-7.34,1.21s-5.09-1.49-7.72-4.16c-2.64-8.56-5.34-11-8.1-1.52-2.76,3.6-5.59,3-8.47-.24-2.89,7.53-5.84-3.19-8.85,0-2.91-12.94-5.77-5.09-8.58,4.59-2.8,1.62-5.55,4.72-8.25-.48-2.7-11.3-5.35-.36-7.94-3.4-2.59,1.75-5.13.77-7.62,4.87-2.48,13.5-4.91,4.11-7.29,8-2.38,3.23-4.7,9.17-7,.33-2.27,18-4.48,8.76-6.64,4.06-2.15-8.38-4.25,4.88-6.29,1.65-4.09,3-7.95,14.23-11.59,8.56-1.81-3.41-3.57.94-5.27-1.14-1.7,4.93-3.35,4.65-4.93,11.07-1.59,7.32-3.12,4.92-4.58,9.46-1.47-1.45-2.88-.91-4.23-.7-2.7,3.48-5.16,8.41-7.38,10.15-2.23,6.73-4.2-7.29-5.94,5.64-1.73,17-3.22,9.58-4.46,9.69-2.47-4-3.95-8.28-4.39,7.71,0-2,2,2.61,5.29,8.66,1.68,7.86,3.7,9.57,6,12.78s4.88,5.88,7.67,9.56c5.57,12.37,12,31.84,18.66,30.54,6.69-3,13.65,34.33,20.34,33.28,6.68,18.08,13.09,24.5,18.66,30.55,5.58,21.61,10.31,14.14,13.65,22.33,3.35,11.08,5.3-18.43,5.3,8.67,0-4,2.72-7.43,7.07-8.72,4.35,16.74,10.34-9.25,16.87-20.77,3.26-12.42,6.66-16.77,10.06-18.94,3.4-4.87,6.8-.73,10.07-5.86,3.26.19,6.39,2.26,9.25-12,2.85-5.64,5.44-12.17,7.62-8.77,4.35-18,7.07-11.66,7.07-8.71,0-5.4,0-9.22,0-8.6,0,10.14,0,5.13,0,8.6,0-10.7.9-6.72,2.46-.79,1.57-4.68,3.8,6.44,6.49-10.51,1.34-2.24,2.79-8.3,4.33-10.57,1.54-5.32,3.16.44,4.84-3.36,1.67-2.22,3.41,1.75,5.17-2.62,1.76-8.76,3.55-2.46,5.34-8.31,1.79-6.61,3.57-3.18,5.34-9.52,1.76,2,3.49,2.09,5.17-5.19,3.35-.62,6.48-8.73,9.17-10.15,2.68,4.33,4.92,2.85,6.48-.89C790.54,298.81,791.43,288.71,791.43,291.83Z"/>
    <path class="cls-1" d="M269.93,291.21c-.59,6.48-2.08-3.34-4.47-8.47-1.19,1.7-2.62-3.73-4.26-8.12-1.65-5.64-3.53-11.15-5.63-7.36-4.2,5.39-9.3-16.29-15.31-18.68-6,3.17-12.93-20.23-20.74-18.07-7.82,1.08-16.55-13.33-26.17-13.63-9.63-8.23-20.16-20.69-31.6-5.4-6-7-11.83-1.41-17.4,3.9s-10.93,9.21-16,2.05c-5.11,3.19-10,.64-14.64.44s-9,1.92-13.22,14.44c-4.17-5.35-8.09-5-11.77,9.63-3.68,5.14-7.11,9.95-10.29,9.71-6.36,29.59-11.71-.82-16,19.35-4.31-.38-7.59,6.22-9.78,14.87-1.1,9.4-1.93,18.87-2.48,15.95-.55,1.34-.83-4.95-.83-10,0-1,.89-1.67,2.46-.37s3.79,4.61,6.47,11.66c2.68-6.74,5.81,17.57,9.16,10.48,3.35,2.76,6.92,8,10.5,14.38,3.57,8.35,7.15,8.49,10.5,14.48,3.35-8.76,6.47,10.6,9.15,10.38,2.68,1.27,4.92,9.09,6.48,13.07,1.57-7.38,2.46,11.66,2.46-1.77,0,7.14,1,6.24,2.63,2.17,1.67,3.59,4.06-1.21,6.93,11,2.87-7.48,6.21,7.37,9.8,9.62,1.79-.28,3.64,9.56,5.52,12.81,1.89,4.35,3.8,7.65,5.71,6.46,3.82,13,7.65,7.87,11.23,14.13,3.59,6,6.93,10.38,9.8,14.76,2.87,1.61,5.26,9,6.93,5.43,1.67,5.36,2.63,7,2.63,7.7,0-1,1.34-7.43,3.7-5.68,1.19-12.85,2.63-2.18,4.29-9.89,1.66-1.6,3.54-.64,5.6-5.28,2.06-21.33,4.31-12,6.69-13.88,2.39-2.88,4.92,3.93,7.55-8,2.63-6.12,5.37-4.4,8.18-12.77,2.8,9.39,5.68-9.81,8.58-12.95,2.9,14.52,5.83-8.76,8.75-13.43,2.92,1.92,5.83-9,8.69-13.34,3.58-8.64,7.09-.26,10.44-16,3.36-14,6.56-15.18,9.55-14.64,3-.8,5.74-20,8.2-12.81,2.46-5.86,4.62-3.31,6.41-9.62C267.84,306.58,269.93,301.5,269.93,291.21Z"/>
  </g>
</svg>
