<svg id="Calque_1" data-name="Calque 1" xmlns="http://www.w3.org/2000/svg" width="29.7cm" height="21cm" viewBox="0 0 841.89 595.28">
  <defs>
    <style>
      .cls-1 {
        fill: #5f5e5e;
      }
    </style>
  </defs>
  <title>Plan de travail 5</title>
  <g>
    <path class="cls-1" d="M83.82,272.7c0-4.63,3.86,6.32,10.3,5.15,3.21.39,7.07,4.31,11.41,7.78s9.17,6.49,14.32,5.09c5.14,2.82,10.61,7.85,16.24,11.68,5.63,10.23,11.42,8.86,17.21,5,5.79-.86,11.58,9.58,17.21,9.88,5.62,11.53,11.09,2,16.24,6.85,5.14,3.92,10,6.84,14.31,7.63,4.34.61,8.2,3.22,11.42,5.23,6.43,13.22,10.29-6,10.29,5.15V272.7c0,1.67-3.86,8.63-10.29,0-3.22-.55-7.08,4.37-11.42,1.3-4.34-2.71-9.17,1.74-14.31-1.3-5.15-7.9-10.62-6.59-16.24-3.33-5.63,1.49-11.42,4.12-17.21,3.33-5.79-2.66-11.58.76-17.21,3.14s-11.1,3.7-16.24-3.14c-10.3-11-19.3,8.51-25.73,0C87.68,278.22,83.82,265.24,83.82,272.7Z"/>
    <path class="cls-1" d="M625.22,272.7v69.48c0,2.3,3.86-.39,10.29-5.15,3.21,3.43,7.07,7.58,11.42-4.87,4.34-14.71,9.16-14.88,14.31-8,5.15,1.74,10.61-.39,16.24-6.9,5.63.69,11.42-7.2,17.21-9.83,5.79,5.53,11.58-5.26,17.21-8.6,5.63-9,11.09-8.15,16.24-8.12,10.29-8.7,19.3-5.05,25.73-12.87,6.43-.49,10.29-9.06,10.29-5.15,0-3.77-3.86-8.52-10.29,0-6.43,5.86-15.44-1.26-25.73,0-5.15-7.89-10.61,5.46-16.24,0-5.63,1.93-11.42-3.21-17.21,0-5.79-9.24-11.58,12.29-17.21-.11-5.63,5.9-11.09-5.69-16.24.11-5.15-11.92-10-2.26-14.31.5-4.35-6-8.21-6-11.42-.5C629.08,283.2,625.22,271.63,625.22,272.7Z"/>
    <path class="cls-1" d="M625.22,342.18c0,5.7-3,4.21-8.53,0-2.76-1.08-6.14-.43-10.07,2.42-3.94-3.13-8.44,7.85-13.43-2.42-5,8.17-10.47-1.34-16.38-2.95-5.91-2.08-12.24-2.83-18.94,2.95-2.52-6.24-5.08-.86-7.69-.43-2.61.07-5.27.87-8,.43-2.7-6-5.45-1.17-8.24-.89-2.78,1.81-5.61,3.91-8.48.89-5.73,2.92-11.61,1.21-17.61,1.78-6,4.83-12.12.31-18.33-1.78-6.22-8.87-12.52,5-18.9,2.05-6.37,5.6-12.81.25-19.29-2.05-6.48,7.76-13,.19-19.53,3.84s-13.07.94-19.59-3.84c-6.52-7.55-13,.14-19.49.95-6.47,4.28-12.88,2.94-19.23-.95-6.35.47-12.62,2.69-18.8,3.69s-12.25.76-18.2-3.69c-11.9,5-23.3-13.84-34,0-5.87-4.56-11.52-8.36-16.91-1.14-5.39-10.07-10.52-2.17-15.36,1.14-4.84,7.36-9.39-6.41-13.6,1.37a45.59,45.59,0,0,1-11.63-1.37c-3.52,3.86-6.67,5.37-9.42,0-2.75.18-5.1-1.35-7,0-3.82-1.73-5.87,1.89-5.87,0,0-4.4.82,4,2.41,1.91,1.6,3.59,4,1.77,7.06,5.19,1.55-3.81,3.28,9,5.19,7.62,1.9-3.68,4,.76,6.24,0,2.26,1.47,4.69,5.15,7.28,4.5,2.59-.83,5.35,3.16,8.27,4.79,4.58-6.47,9.57-5.27,14.92,7.92,5.36,2.11,11.09-3.31,17.17,8,6.08-.7,12.52,14.52,19.28,7.73,6.77-1.73,13.86,10.27,21.27,7.05,7.4,10.23,15.12-1.2,23.12,6,8,4.56,16.29-7.82,24.85,4.48,8.56,9.49,17.38-7.53,26.45,2.61,4.53-5.58,9.12-5.44,13.78-8.26,4.65,2.38,9.36,4.63,14.13,8.58s9.59,2.21,14.46,2.06c4.88-4.7,9.81-.69,14.79-4.41,5-16,10-8.79,15.08-9.42,5.08,3,10.2,1.68,15.37,4,5.17,0,10.39-1.83,15.65-5.27,5.25,1.13,10.55-3,15.89-3.62,5.34-6.6,10.72-13.52,16.13-6,2.71-.15,5.43.93,8.15.66s5.46-1.89,8.21-7.43c2.74-.09,5.49-2.42,8.25-3.44,2.76-2.45,5.53,1.37,8.3-4.51,2.78,1.23,5.56-3.53,8.35-2.6,2.8-.28,5.59-7,8.4-6.47,2.81-4.43,5.62-.71,8.44-3.49,2.82,2,5.65-3.39,8.48-6.75,2.83,3.48,5.67.68,8.52-6.67C619.51,346.42,622.36,338.1,625.22,342.18Z"/>
    <path class="cls-1" d="M620,335.67V300.09c-.73-.63-2.18-13.79-4.2-9.25-2,2.52-4.59,4.73-7.56,2.82-3,7-6.34,1.33-9.93-5.67s-7.41-7.55-11.29-6.27c-3.88,1-7.82-.75-11.66-2.26-3.83-1-7.56-3.85-11-4.18-2.6-2.87-5.61-3.84-9,1.07-3.36.71-7.07-.41-11,2.81-4,4.38-8.21,4-12.63,4-4.42,1.2-9,6.61-13.73,4.56-4.71-12.51-9.52,8.38-14.34,3-4.83,1-9.69,3.36-14.48,5.57-4.79,0-9.52-2.66-14.11,0-4.59-2.76-9,2.09-13.27,3.91-3.38-1.63-6.7-3.38-10-3.34-3.29-3.15-6.56-3-9.84.88-3.29.45-6.58-.58-9.94-3.68-3.35,1.15-6.76-1.75-10.26-2.19-3.51-4.41-7.11-5.78-10.85-5.47-3.73.95-7.61,3.71-11.66-1.54-4.05,1.18-8.28-.53-12.72-2.41s-9.11-3.94-14-3.47c-9.84-3-20.7-4.77-32.93-2.46-6.11-6-12.1,2.09-17.93.73-5.84,3.57-11.51,1-17,2-5.49,3.57-10.77,7.62-15.83,2.9-5.06.88-9.88,9.16-14.44,3.53-4.56,10.55-8.85-1.27-12.83,3.54-4-6.31-7.66,5.18-11,4.14-3.34-9-6.33,3.31-8.94-3.19-2.62,3.6-4.85,2.83-6.66,9.62-3.64,4.29-5.6,1-5.6,2.7,0-3.88,0-3.91,0,6.14,0-7.05,0-.86.05,10.48,0,3.32,0,3.72,0,10.78,0,1,0,13.33,0,5.83,0,2.66,2,2.81,5.69,0,1.85,9.66,4.13,6.82,6.8-.9,2.66,5.54,5.72-9.31,9.14.91,3.42,11.14,7.19,11.51,11.28,4.18,4.09,2.46,8.5-12.06,13.2-4.18,4.69,3.13,9.68,8.22,14.91.55,5.23,2.77,10.71-3.22,16.4-.54,10.35,8.59,21.4-10,32.95,0,5.78,1.67,11.67,4.08,17.67,4.87a23,23,0,0,0,18.24-4.86c6.16-9.37,12.39-7.54,18.66-7.54,6.27,4,12.58,5.32,18.91,7.54,6.33,8.74,12.68-.88,19,1.86,6.34,3.4,12.66-10.48,18.95-1.85,6.29-1.4,12.54,1.36,18.72,2.48,6.19.74,12.31-2.16,18.34-2.47,6,4.15,12-3.13,17.79.69,5.83.29,11.53,2,17.09-.68,2.78-1.23,5.52,1.08,8.23,2.55,2.7.54,5.37.87,8-2.55,2.62,5.21,5.2-2.53,7.74-2,2.53-1.25,5-6.44,7.46,2,6.5-7.42,12.65-5.06,18.38-7.43,5.73,4.18,11-3.34,15.89,7.44,4.85,1.8,9.21-7.22,13-2.84,3.82,0,7.1-3.08,9.77,2.85C617,331,620,334.76,620,335.67Z"/>
  </g>
</svg>
