<svg id="Calque_1" data-name="Calque 1" xmlns="http://www.w3.org/2000/svg" width="29.7cm" height="21cm" viewBox="0 0 841.89 595.28">
  <defs>
    <style>
      .cls-1 {
        fill: #5f5e5e;
      }
    </style>
  </defs>
  <title>Plan de travail 1</title>
  <g>
    <path class="cls-1" d="M192.46,250c-.2.66.77.67,3.81-.77a18.59,18.59,0,0,1-.88,2.31c5-1.93,2.32-3.38-.81-3.85-.27.22-.52.43-.75.64C193.75,248.72,193.15,249.27,192.46,250Z"/>
    <path class="cls-1" d="M642.48,217.21c10.06-1.08,12.15-2.17,4.21-3.24.41-.54,1.69-1.08,1.7-1.61s-1.24-1.07-5.91-1.61c-4-1.06,2.41-2.12.3-3.18,5.47-1,1.22-2.1-.3-3.15,1.72-1-2.76-2.08.81-3.11,3.13-1-9.72-2.06-.81-3.07-7.47-1.47,6.65-2.93-.18-4.37-7.21-1.44-.78-2.87.18-4.29-6.46-1.41,15.67-2.81,0-4.19.38-.69,5.43-1.38-3.36-2.06.56-.68,5.89-1.36,3.36-2-11.79-.68-10.43-1.35-4.71-2,3.29-.67,3.92-1.33,4.71-2,5.79-.66,4.58-1.32,6.14-2,.62-.32-3.16-.64.43-1-5.59-.32-4.95-.64-6.57-1,3.09-.56.59-1.28,3-2.12-.07-.84,7.56-1.8-3-2.83,1.39-1,1.73-2.13,2.67-3.26-2.85-1.12-10.66-2.27-2.67-3.4-1.29-1.12-1.28-2.23,2.4-3.26-1.58-1-6.12-2-2.4-2.84-14.93-1.69-.29-2.91,0-3.29-2.22-3.88-8.47-2.95,0-3.55-3.71-.29.69-1,0-2.82,1.35-1.84-1.52-4.85,0-9.82-.06-.7-.11-1.32-.15-1.87h0c.53-.72.84-2,0-3.89a6.75,6.75,0,0,1,.16-.84v-7.5a19.71,19.71,0,0,1-1.36,6.33,23.5,23.5,0,0,0-2.85-3.2c-1.35-2.34-3,.14-4.92,3s-4.1,6.19-6.5,5.47c-4.81-22-10.52,12.14-16.83,12.53-1.58,3.91-3.19,4.05-4.84,3.61-1.65,5.43-3.33,15.15-5,3.75-1.71-4.15-3.45,13.32-5.21,3.88-1.76,5.69-3.55,5.62-5.35,4-1.8-12-3.62,2.56-5.46-3.41-1.84,2.37-3.69,6.65-5.55,7.55-1.86,8.51-3.73,7.37-5.6,6.23s-3.75-2.3-5.63,6.19c-1.88-16.13-3.76-13.12-5.63-.53-1.87,4-3.74,10.39-5.6,8.89-.93-1.65-1.86-2.88-2.78-2.56s-1.85.23-2.77,6.72c-1.83,12.39-3.66,5.48-5.46,4-.9-1.66-1.8,10.7-2.69,7.23-.89,2.43-1.78,7.68-2.66,1.74a11.62,11.62,0,0,0-2.62-3.35c-2.39-.58-4-.39-2.59,1.23-.85.4-1.7,2-2.54,3.57s-1.67,2.92-2.5,2.8c-.82-2,.15-3.47-2.44-3.47-5,0-1.61,1.5-2.4,5.47-3.15-7-6.16,4.77-9-.42-1.41,2.53-2.77,3.74-4.08,3.94-1.31,1.18-2.57,11.66-3.77,9-2.4,8.42-4.58-.23-6.5,7.1-1.91-.5-6.4-1.4-4.92,1.4-1.35,5.42-2.4,5.47-3.12,4.53a6.27,6.27,0,0,1-.72-1.73c1.54-2.26,1.68-5-.37-4.47,6.33-3.12-4.21-2.24,0-2.61-3.28-.18.42-.67.09-2.13,2.6-.73,3.84-1.7,3.8-3s-1.36-2.91-3.89-4.94c-3.33-1.31-1.06-2.67,0-4.09-.13-1.41,2.45-2.87,0-4.37-3.12-1.51-.65-3.05,0-4.63,4.45-.79-.89-1.58-2.18-2.39s0-1.62,2.18-2.43c-7.95-.55-5.72-1.1-3.17-1.65,2.71-.55,1.63-1.11,3.58-1.67,4.43-1.11-.66-2.24-.41-3.37-2.61-.28-3.16-.57.24-.85-2-.28,4.81-.57,3.59-.85s4.43-.58,2.59-.86c4.71-.29,1.14-.57-6.42-.86-.63-.57-3.17-1.15.1-1.73.33-.57,4.76-1.15-.1-1.73-4-1.16,7.7-2.32,0-3.48.76-1.16-1.78-2.33,0-3.49.62-1.56,1.57-3.11-.63-4.66-4.35-.77-3.76-1.55-2.07-2.32,3.9-.77,5.15-1.54,2.7-2.31a11.28,11.28,0,0,0-2.26-2.29c-5.06-.76-.14-1.52,2.62-2.28-1.66-1.51-.66-3-.36-4.48,1.51-1.48-2.65-2.94.22-4.37,0-1.43,1.46-2.84-.22-4.23-.81-1.16-3.77-2.5,0-4.22,2.12-1.72-1.82-3.82,0-6.5-2.3-1.34-.33-2.82,0-4.48a3.23,3.23,0,0,0,.86-.51,14.31,14.31,0,0,0-.83-2.43c-.63-.68-1.15-1.4-.54-2.13a3.74,3.74,0,0,1,.51-2.33v-6.41c0-.6-1.51-5.76-4.21,3.14-2.7-11.52-6.61,18.37-11.42,8.51-2.4-1.08-5-6.07-7.85,3-2.82-2.89-5.82,14.11-9,9.54-.79,1.65-1.59,3.82-2.39,5.22s-1.62,2-2.45.57c-1.65-5.17-3.33-1.47-5,1.56-1.71-6-3.45-20.62-5.21,5.29-1.76-15-3.54,0-5.35,2.57-1.8,5.8-3.62,4.76-5.46.68-1.84,13-3.69,10.37-5.55,7.83-1.86,1.36-3.72,3.06-5.6,4.57a19.25,19.25,0,0,1-5.63,3.48c-1.88-8.94-3.76,11.48-5.63,1.88-.94,12.94-1.87,6.65-2.81,6.15-.93,10-1.86,8.59-2.79.33-1.86,2.38-3.71,11.75-5.55,3.35-1.84,2.67-3.66,18.42-5.46,4.85-1.81-2.52-3.59-2.67-5.35-2.23-1.76,4.43-3.5-2.79-5.21,4.64-1.71,6.33-3.39-2.13-5,.21-1.65,2.91-3.26,20.59-4.84,12.59-1.58,6.81-3.12,5.11-4.62,2.64s-2.95-5.71-4.36-2c-2.82-20.22-5.45,3-7.85,11.88-2.41,22.56-4.59,5.58-6.5.53-1.92,8.48-3.57,2.43-4.92,8-1.36-1.41-2.41-1.47-3.12-.75a5.74,5.74,0,0,0-1.09,3.88.24.24,0,0,0,0-.08c0,.19,0,.38,0,.56v-5.29c0-2.14,1.51-3.79,0-5.11,0-1.33-2-2.33,0-3.17,0-.83,1.34-1.51,2-2.19s.67-1.36-2-2.2c0-.88-1.17-1.77-1.76-2.7s-.59-1.86,1.76-2.82V208c.34-1-5-2,0-3.06-3.75-1-3.75-2.08-2.82-3.15s-1.61-2.15,2.82-3.24c3.45-1.64,2.84-3.31,0-5-4.28-.28-5.12-.56-5.8-.85,1-.23-4.17-.45-4.17-.69,0,0,.28-.1,1-.16.44-.56.34-1.13.61-1.7.78-.57,3.76-1.14,8.36-1.72-.5-1.72,3.52-3.45,0-5.19-1-.87.46-1.75,1.69-2.62s2.14-1.75-1.69-2.62c-1.92-.26,2.26-.52,2.5-.78s.24-.52-5.87-.77c-.79-.28-3-.56-4.05-.84-.89-.24-.95-.48,1.4-.72-8.35-.51-.62-1-2.82-1.55-4.69-.51-5.75-1,1.55-1.54,3.09-.52,8.26-1,2.34-1.55-4.49-.51.63-1,4.95-1.54,8.61-1,9.94-2,8.39-3.05-3.09-2-17.67-4-8.39-6,7.23-2.95,1.13-5.83,0-8.59,4.39-2.83,2-5.46,3.29-7.83,2.38-2.37-3-4.49-3.29-6.29-2.06-1.81,1.77-3.3,0-4.42-1.34-1.11,2.08-1.86,0-2.18,4.42-1.46,0-5.61,0-8.36-.06-1-1.43-2.73-3.85,2.94-1.24-2.53-2.76-1.4-4.53,3.37-1.77,6.47-3.79,5.28-6,4.48-2.23,0-4.68,8.44-7.32,2.27-2.64-2.8-5.47,8.12-8.45,9.47-1.49-1.54-3,4-4.58,2.47-1.56,5-3.16.23-4.79,4.51-1.63-6.18-3.29,15.53-5,6.41-1.69-5.42-3.41.19-5.14,1.13-1.74,2.8-3.5,1.92-5.29,2.22s-3.58,1-5.39,4.46c-3.64-3.31-7.33,3-11.06,9.5-.93-13.61-1.86-8.73-2.8.85-.93,2.31-1.87,16-2.8,3.32-.94,3.46-1.88-2-2.82,2.49-.94-2.24-1.88,5.21-2.81,1.7-.94,1.35-1.88-17.3-2.82.67-.94,2.9-1.88,6.27-2.82,3.52-1.87,7.62-3.74,7-5.6,4.18-1.87-9-3.72-2.87-5.56,1-1.85,4.82-3.68-8.45-5.49,6.56-1.82,15.34-3.62-.18-5.4,3.44-1.78,2.6-3.55,5.5-5.28,5.2-3.48,7.63-6.87,8.33-10.12,10.4-3.26-10.11-6.4,7.13-9.38,4.11-3-8.44-5.81-13.65-8.44,8-2.64-12.44-5.1,0-7.33,3.7-2.24,13.73-4.25.49-6,6.71-1.77,3-3.3,2.15-4.54,1.15l-3.85,2.87s7.73,1.7,0,4.79c-9.92,3.09,4.27,7.58,0,13.14-8.34,2.79-1.43,5.84,0,9.13-3,3.28,4.88,6.8,0,10.51-2.7,3.71,7.51,7.62.42,11.68,8.61,4.06,18.15,8.27-.42,12.6,2.75,4.33,2.17,8.77,1.15,13.3s-2.28,9.12-1.15,13.76c4.64,4.64,11.19,9.32.08,14,1.4,4.68,7.43,9.36-.08,14,17.57,2.32,4.59,4.63,2.14,6.92s-5.6,4.58-2.14,6.84c1.21,4.52.38,9,0,13.3-1.88,4.33,6.57,8.54,2,12.6,5.07,4.06,5.42,8-2,11.68,14.78,3.71,4.62,7.22,5.65,10.51s.19,6.34-5.65,9.12c-11.72,5.57-2.74,10.06,0,13.15,3.55,3.09-13.2,4.79,0,4.79h15c3.27,0,2.09-1.57,0-4.42-4.44-2.86-8.48-7,0-12.15a15.54,15.54,0,0,1-1.4-8.45c.21-3.05-2.65-6.31,1.4-9.76-18-3.45,17.62-7.08,6.2-10.85-6.05-3.78-3.32-7.71-6.2-11.74,2.52-4-12.95-8.19-5.4-12.42-7.19-2.12-5.31-4.25-1.89-6.4s8.36-4.32,7.29-6.49c-7.62-3.49,6.55-7,2.62-10.51,12.31-3.52,9.65-7.05-2.62-10.57-4.25-3.53-2.8-7,0-10.53-2.71-1.74.31-3.48,2.5-5.21s3.54-3.45-2.5-5.16c-14-3.42,12.3-6.79-2.95-10.11-1.36-3.31,6.88-6.57,2.95-9.74-2.83-3.17,14.56-6.27,7.61-9.27-4-3,.83-5.9-7.61-8.68s-8.54-5.46,0-8c9.08-2.54,2.92-4.94,0-7.2-7-3.17,6-6.05,0-8.58,5.12-2.52.43-4.7,0-6.49-1.7-2.27-1.68-4.12-1-5.61.18,1.12,2.52,3.81,4.8-1.08a35.88,35.88,0,0,1-3.76,1.14c-.41-.36-.69-.49-.85-.46a10.19,10.19,0,0,1,1.68-2.22,4.86,4.86,0,0,1,1.37-1.67c.1-.43-.44-.68-2.2-.77a13.73,13.73,0,0,1,3,.13c2.4-1.92,6.07-3.89,7.07-2.37,3.77,4.06,4.46-7.38,7.06-5.35a30.9,30.9,0,0,1,8.44-6.66c3,5.69,6.22-8.41,9.56-6.74,3.34,2.67,6.82-4.52,10.39-7.78,1.79,6.71,3.6,3,5.42-1.5,1.83-11.3,3.67-4.59,5.53-6.61,1.85-3.6,3.72-15.77,5.59-7.47,1.88-1,3.76-17.21,5.64-.89,1.87,3.83,3.75,1.15,5.63-4.19,1.87-.51,3.74-3.43,5.59-4.17,1.86,1.66,3.7,3,5.53,2.7s-1.57-2.15,5.42-6.89c1.79-6.47,3.55-7,5.29-7s3.43.23,5.1-4.64a56.83,56.83,0,0,1,4.9-9.24c1.6-2.23,3.15-1.83,4.66-2.89a18.16,18.16,0,0,0,4.38,5.23c1.41,1.19,2.77.44,4.07-6.5,2.59,6.39,5-12.4,7,.51,2.08,3.54,3.89-13.48,5.38-9.77.74-.36,1.4,2.52,2,4.25-1.1,1.73-.79,2.29,1.45-2.7.23-2.2.72-2.74,1.21-2.63v7.32c-3.12,2.74-2,4.37,0,5.81v4.62c-.13,1-3.57,2-.17,3a73.55,73.55,0,0,1,7.7.8c1.19.25,1.29.49.17.74-7,.52-5,1.05-7.7,1.58,1,1.06.79,2.14,0,3.23-3,1.09,1,2.2,0,3.32-1.69,1.11,6.43,2.24,3.39,3.38-1.3,1.14-.13,2.29-.38,3.44.58.19.82.37.82.56,0,1-6.23,1.94-2.7,2.92-2,.58,9.93,1.16,4.7,1.74,1,.29-3,.58.94.87,4.17.15.37.29-.51.44-1.74.15-2.79.29-6.26.44-4.86,1.16,2.41,2.33,3.62,3.49s1.21,2.32-3.62,3.47c3.44,1.15,6.82,2.3,0,3.44v3.39a6.29,6.29,0,0,1,2,3.31c-.63,1.1-3.67,2.17-.22,3.23,2.32,1.06,4.48,2.11.11,3.13,1.15.51-4.69,1-5.73,1.51-2.56.51,2.08,1,3.86,1.49-7.24,1-4.1,1.93-2.91,2.86,2,.47,2.11.92,4.47,1.37-.62.46,1.54.9-1.56,1.34,2.53,1.74,2.68,3.37,0,4.87,4,.74,4.7,1.45,4.05,2.12s-2.65,1.31-4.05,1.91c.87,1.18,8.75,2.21,0,3.05.31.84,2.51,1.49,3.54,1.93s.87.68-3.54.68c3.53,0-.24.52,2.41,1,3.57.52,1.35,1-2.41,1,4.88,0,2.87.47-.91,1.35-1.15.89,3.11,2.19.91,3.87-2.68.84,2,1.77,1,2.79-7,1,4.34,2.14-1,3.33,5.47,1.19-3.95,2.47,0,3.82,1,1.35,0,2.78,0,4.29-1,1-4.83,2-2.88,3.09,7.07,1.07-7.63,2.16-2.2,3.28.56,1.13-2.06,2.28-.93,3.45,4.41,1.18-1,2.39,0,3.62.74,1.23,3,2.48,3.52,3.76-1.36,1.28,2.88,2.58,2.5,3.91-1.74,1-1.74,2-1.57,3s.52,2-.5,3.08c-4.86,2.08-.31,4.21,2.07,6.37-6,2.16-3.09,4.37-6.57,6.6-1.64,1.69,11.75,3.4,11.75,5.12,0,.56-1.4,1.12-5.18,1.68,8.31,3.06,5.15,6.17.5,9.31-14.64,1.57-2.3,3.16-9.74,4.74-12.84,1.59-9.55,3.19,3,4.79-5.58,1.6-4,3.21-1,4.82s7.34,3.23,7.25,4.84c6.4,2-10,4.05-6,6.07,3.8,2-3.49,4.06,6,6.08-13.59,2-25.42,4-3.94,6.06,7.58,2-1.11,4,3.94,6-5.92,2,1.94,4-.36,6s-4.43,3.94.61,5.89c7.42,3.9,14.33,7.74-.25,11.49,8.21,2.15-8.11,4.26-5.34,6.34-.38,2.08,1.53,4.13,8.35,6.14,5.48,4-6.95,7.88-3,11.56,4.6,3.67,5.71,7.15-.19,10.4,3.54,3.26-7.48,6.28.19,9-8.77,2.75-12.48,5.24-7.05,7.42-.67,2.18,1,4.06,7.05,5.59,6.48,2.92.32,4.59,0,4.74h15c-14.64,0,8.62-1.57,0-4.42-1.31-1.43,3.74-3.18,6.6-5.21,0-2,2.28-4.36-6.6-6.94-2.77-2.58-17-5.41,1.06-8.45,5.23-3.05.29-6.31-1.06-9.76.52-3.45,6.21-7.08,7.18-10.85-2.49-1.89-.25-3.82.6-5.78s3.29-3.94-7.78-6c14.31-2,10.24-4.07,3.48-6.14s5.77-4.17-3.48-6.28c16.57-2.12,17.13-4.25,6.43-6.4-18.47-2.15,12.32-4.32-6.43-6.49,11.31-1.75,17.09-3.49,11.52-5.25-6.7-1.75-13.9-3.5-11.52-5.26,1.71-1.76,1-3.53,6.64-5.29-6.51-1.76,2.79-3.52-6.64-5.28,2.42-1.77,3.16-3.52,2.72-5.28s-2-3.5-4.28-5.25c-7-1.74-6.89-3.48-4.84-5.21,9.08-1.73,14.36-3.45,6.4-5.16-3.78-1.71-5.39-3.41-1.8-5.09,21.19-1.69-4.91-3.36,1.8-5-1-1.65-2.21-3.3-3.37-4.92a21.51,21.51,0,0,1-5.69-1.18c-2.51-1.22,4.47-2.44,9.06-3.64,5-2.12,3.33-4.2.83-6.24-11.63-2-.77-4-.83-6,11.44-2,6.78-3.86,0-5.72,8.2-1.86,24.77-3.67,0-5.42-12.88-3.5-2.58-6.77,0-9.78-16.05-3.17,2.79-5.67,0-8,1.61-2.27,5.57-4.4.47-6.86.74.13,1-.9,1-2.25a35.75,35.75,0,0,0,3.17-7c1.48.11,3.29-2.26,5.38-4.63,2.09-.93,4.45,2.84,7.05-4.63,2.6-13,5.43-17.38,8.44-11.83,3-14.92,6.22-12.4,9.56-1.57,1.67.13,3.38-2.15,5.11-3,1.73-3.52,3.5,10.14,5.28-3.9,1.79,9.06,3.6,11.17,5.43,7.13,1.82,5.3,3.67,2.49,5.52-16.12,1.86-11.09,3.73,2.14,5.6,4,1.87,10,3.75,5.07,5.63-12.38.94,9.41,1.88,7.76,2.82,4.17.94-3,1.87-14.31,2.81-7.43.94-14.6,1.87-9.11,2.81-8.66.93-6.47,1.86,5.82,2.79,3.56,1.85-12.93,3.7-17.3,5.52-10.87,1.83-7.89,3.64,9.53,5.43,2.72.89.56,1.78-.45,2.66-2.19a69.86,69.86,0,0,0,2.62-6.54c1.73,1.39,3.44,3.63,5.11,1a11.77,11.77,0,0,0,2.48,3.82c.81.72,3.24.86,2.43.37.69-.06,2.73-.34,2.35-1.37-.19-1.42,1.54-4.27,2.3-9.94,1.5,12.8,3-5.09,4.37,1.83.66-9.44,1.3-16.12,1.93-18.6.73-2.84,1.44-.1,2.14,10.49,2.6-12.45,5-13.29,7.05-7.36,1.05,3.68,4.15,4.4,2.92,3.61.9-.8,1.72-3.12,2.46-5.51a14.21,14.21,0,0,1,1.67,3.57c.19-1.72,1.08-4,3-7v8.32a10.27,10.27,0,0,0-1.05,1.87c-.24-.16-.51-.33-.76-.52a3.62,3.62,0,0,0,.76.54,1,1,0,0,0,.6,1.36c-.67.85-1.43,1.64,0,2.36-2.17,1.22.41,2.26.41,3.12a4.35,4.35,0,0,0-1.43,1.79l-.15.17.12-.08c-.14.65.36,1.11,1.46,1.4a6.81,6.81,0,0,1-1.45.35c.43.73,1,1.46.33,2.18-3.83,1.6-4.59,3.15,1.12,4.53.17.69-1.06,1.34-1.44,1.94s.09,1.13,3.67,1.6c-1.55.94-7.55,1.6-2.23,1.86,2.25.75,2.36,1.5,3.3,2.25-2.11.76-1.91,1.52-3.3,2.28-2.33.76-3.84,1.53,1.15,2.3,3.91.77,5.33,1.54-1.15,2.31-3.46,1.55.38,3.1,0,4.65,2.07.78,1,1.56,2,2.33,4.17.78-.33,1.55-2,2.32,3.58,1.55,2.45,3.09,0,4.62,1.5.76.83,1.52-1.5,2.27,3,.76-1.51,1.51,1.5,2.25-4.52.75-2,1.49-1.19,2.22,5.13.74-5.16,1.46.13,2.19,1.35,1.44,2.48,2.85,1.06,4.23,5.92,1.38,7.51,2.73,1,4-1.47,1.31.39,2.57-1,3.79-1,1.21.64,2.38-2.06,3.49.79,1.11,2.19,2.17,1.61,3.16.9,2-.15,3.73.45,5.16-6.65,2.87-3.48,4.53,0,4.53-2.32,0-3.29,0,0,0,5.77,0,2.68,1.4,0,4,1.24,1.29,3.21,2.88,2.32,4.73-3.59,1.85.78,4-2.32,6.32,4.34,1.17,2.42,2.41,2.55,3.7,6.06,1.29-2.21,2.63-4.07,4-2.24,1.4-2.53,2.85-1.93,4.34s2.11,3,3.45,4.63c-3.22,1.2.69,2.41-1.12,3.65.85,1.24,1.5,2.51,1.12,3.79,4.34,2.57,1.46,5.23,0,8-.82,2.74,2,5.54,2.64,8.42a8.66,8.66,0,0,1-2.64,8.79c7.3,3-.31,6-2.43,9.09-.81,3.07-.81,6.19,2.43,9.32-1.74,1.38-5.57,2.75.48,4.14-2,1.38-7.62,2.76.81,4.15-5.21,1.39,3,2.78.16,4.18-.48,1.39-6.27,2.79-1.45,4.18-4.73.7-4.74,1.4-3.81,2.1s2.83,1.39,1.9,2.09c.11,1.4,2.39,2.8,1.91,4.19-2.74,1.4.58,2.79-1.3,4.18-.65,1.4-1.59,2.79,1.3,4.17-2.63,1.39-.74,2.77-4.39,4.15,1.7,1.38-2.76,2.75,1.3,4.12,2.82,1.37-1.51,2.74,1.57,4.1a23.84,23.84,0,0,1,1.52,4.05c-2.64,1.34-2.57,2.68-1.51,4s5.55,2.65,4.48,4c1.28,1.31-9.24,2.61-1.28,3.9-1.6,1.29,3,2.57-1.69,3.84-3.57,1.27-2.49,2.52-1.88,3.77-7.83,1.24-.42,2.47-.11,3.69-3.45,1.22,7.05,2.43.89,3.62-.32,1.19,1.15,2.36,1.1,3.52-8,.63-9.07,1.25-8.57,1.87s2.72,1.24,2.79,1.85c1.41,1.21,5.19,2.41,5.78,3.59-6.14,1.18-3.32,2.34,0,3.47-5.31,1.14-5.9,2.25,0,3.34-4.57,2.18-6.3,4.26.47,6.24-1.54,2-4.4,3.86-.47,5.62,2,1.75,2.74,3.4,2.7,4.92s-1,2.91-2.7,4.17c2.55,2.51,3.09,4.48,0,5.82-2.17,1.34-6.91,2.05,0,2.05h15c3.48,0-5.1-.57,0-1.66-10.89-1.09.3-2.69,0-4.74-2.63-1-3-2.17-2.52-3.41s1.79-2.59,2.52-4c-.51-1.45-9.26-3,.88-4.62,5.52-1.63,1.34-3.36-.88-5.16.21-1.81-1.39-3.69,0-5.65-1.91-2-3.07-4,0-6.1-7.3-.84-6.75-1.69-5.28-2.55-2.88-.86,1-1.73.19-2.61,3.4-.88,2.81-1.77,1.52-2.67,3-.9,1.53-1.81,3.57-2.73.3-.92-.63-1.84,2.69-2.77,5.38-.94,4.42-1.88,3.65-2.83-1-1-.13-1.91.48-2.87-6.59-1-2.27-1.94-6.82-2.92-4.06-1-5.29-2-2-2.95s.25-2-.59-3c-4.43-1-2.46-2-3.45-3,6.09-1,2.8-2,6-3.06a9.38,9.38,0,0,1-1.31-5.41c.1-1.82,1-3.65,1.31-5.48,2.45-1.84-3.5-3.69,1.43-5.54-1.18-1.86-4.22-3.71-1.43-5.58,6.23-1.86-6.79-3.73,0-5.6-4.67-.93-9.17-1.86-1.92-2.8,7.61-.93,3.79-1.87,1.92-2.8,1-.93-2.32-1.87-4.25-2.8,3.57-.93,1.54-1.87,4.2-2.8,6.79-1.86,5.4-3.71.05-5.56,5.23-1.86-1.74-3.7,0-5.53,1-1.84-.76-3.66,0-5.47-.51-1.81-1.66-3.61-2.11-5.4s-4.53-3.55,2.11-5.31c-2.77-1.75-8.15-3.48,0-5.2,5.12-1.71,6.38-3.41,0-5.08,6.55-1.67-10.65-3.32,0-4.94-1.52-1.62,1.88-3.22,0-4.79-4.33-1.39-7.87-2.76-2.88-4.1-1.12-1.34-3.6-2.66,2.88-3.95,1.39-1.29-9.51-2.56,0-3.8,2.25-.62,1.15-1.23-.39-1.84-5-.6-5.8-1.2.39-1.79.15-1.19-2.8-2.34,0-3.46,12-.56,5.86-1.11-1.8-1.66-6.44-.54-4.12-1.08,1.8-1.61-1.45-3.2.37-5.63,1.64-7.47,3.34-1.83,2.55-3.07-1.64-3.87a7.15,7.15,0,0,0,1.32-.55c3,1.1,3.44,2.48-1.32-3.18,1.32-3.38-6.31-6.06,0-8.13l.41-.14a2.32,2.32,0,0,1-.41,2.72c-2.3,1.76.86,2.34,1.21,1.75a4.67,4.67,0,0,0,2.89-1.74c.58-.87-3.84-2,.54-3.46-4.59.2,2.29-1.74,2.47-3.65-.41-1.91,2.47-3.78,2.91-3.46,5.78-.1-2.08-.88,3.34-1.52a4.43,4.43,0,0,1,3.72-.63c2.59.09,5.42,6.89,8.44-3.61,1.51,8.16,3.06,1.29,4.66-3.82,1.59-.29,3.23-6.22,4.9-6,1.67,4.94,3.37-22.51,5.11-7.26,1.73,5.6,3.49-.77,5.28.1.89,12.4,1.79,4.13,2.7,3.13.9,1.46,1.81,5.72,2.72-5.6.92,11.53,1.83-.72,2.75-.81.93,15.16,1.85-15,2.78-5.45,1.85-6.57,3.72,8.17,5.6-4,.93-10.93,1.87-8.5,2.81-9.2.94-5.35,1.88,3,2.82,4.86,1.88,5.07,3.75,14.73,5.63,2.5.93,3.6,1.87-1.55,2.8-4.44s1.87-6.1,2.79-6.42c3.71-7.25,7.38-15.27,11-13.56,1.79-1.16,3.55-4.07,5.29-5.52,1.73,5.1,3.43,7.06,5.1,3.2,1.67-.74,3.31,8.25,4.91-.56,1.59-5.23,3.14,4.05,4.65-6.56,3-5.15,5.85,9.78,8.45-6.28,5.19-18.89,9.46-8.68,12.43-9.26,1.48,2,2.64,0,3.43-2s1.21-3.81,1.21-1.48l.69.54c-.39.46-.69,1.44-.69,3.26,5.06.71,1.24,2.37,3,4.31-.63,1.93-2.26,4.14-3,5.94-.31.31-.58.61-.82.89-3.15,1.28-3.86,3.14,2.62,5.64-1.66,2.71.07,6.17-1.8,10.45-1.44,2.11,7.82,4,0,5.79,7.53,1.78,2.75,3.45,0,5.11-1.24,1.65,1,3.28-1.76,5-6.85.85-2.71,1.72,2.45,2.62,2.05.9,1.62,1.83-.69,2.81-1,.74-1.61,1.48,2.54,2.24a85.83,85.83,0,0,1,8.52,1.13c-8.74.38,5.55.76-11.06,1.14,6.63,1.53-.13,3.08,0,4.65-9.11,1.57-5.81,3.15,2.35,4.76,4,1.61,5.91,3.24-2.35,4.88,3.85,1.64,4,3.31-2.62,5-3,.42-4.74.84-4.94,1.26s1.15.85,4.28,1.27c5,.85,2,1.7,3.28,2.55-2.06.86-4.11,1.72-3.31,2.58a11.88,11.88,0,0,1,4.94,2.6c-4.68.87-1.54,1.74-4.19,2.62.06.87,6.21,1.75,2.56,2.63,1.37,1.18-.1,2.36.46,3.55-.52,1.19-4.49,2.38-.46,3.58,5.75,1.2-6.58,2.4-2.57,3.61,4.77,1.2,9.74,2.42,2.57,3.63,1.51.61,6.95,1.22,5.76,1.83,1.51.24,3.7.48,4.86.72-.06-.83,2.58-1.65,1.77-2.47-3.43-1.17,2.86-2.34.07-3.51-.33-1.16,4.88-2.33,2.54-3.49,3.85-1.16-7.4-2.32-.6-3.47,4-1.16,3-2.31.59-3.46-5.65-2.3,2.06-4.59,0-6.86,5.43-1.14,8-2.27,7.84-3.4s-2.91-2.26-8.11-3.38c-6.39-1.13-3.81-2.24-3.6-3.36,2.67-1.11-11-2.22,3.87-3.33-5.22-1.1-.56-2.21-2-3.3C634.42,219.39,641.13,218.3,642.48,217.21ZM326.92,149.69c-.47,1-.87,1.87-1.22,2.57C325.77,150.52,326.92,146.84,326.92,149.69Zm149.74,13.55c.74-.21.33-.53-.36-1a9.71,9.71,0,0,0,1,.44,3,3,0,0,1-.34.59Zm15.53,82-.23,0C491.15,243.69,498,243.88,492.19,245.23ZM627.48,166.6l-.08,0s.05-.11.08-.17l.44-.38Z"/>
    <path class="cls-1" d="M635.58,263.47c-6.83.62-5.78,1.23-8.1,1.85,5,1.23-3.62,2.46,3.41,3.7-.16.62-8.59,1.24-4.95,1.86-1,.62-.19,1.24,1.54,1.86a41.44,41.44,0,0,1,5.48,2.14c.85.53.93,1.06-.58,1.6-9.41,1.25,4.48,2.5-6,3.75-4.09,1.26-4.86,2.51-5.07,3.77s1.44,2.52,6.14,3.78c.06,1.26,9.95,2.52.71,3.78-11.81,1.26,8.93,2.52-.71,3.79-5.46,2.52-1,5,0,7.58,2.78,1.27,4,2.53,2.15,3.79-.81,1.27-5.9,2.53-5.66,3.79-4.65,1.27-3.84,2.53-1.84,3.79s5.21,2.52,5.35,3.77c6,1.26,1.36,2.52,2.7,3.77-.35,1.25-2.88,2.5-.2,3.75,6,1.25.79,2.5-.75,3.74a5.57,5.57,0,0,1-1.75,3.73c-7.59,1.24,6.46,2.47,1.4,3.7-3.59,1.24-.46,2.46-2,3.69-4.39,1.22-3,2.44-4.35,3.66-6,1.22-10.31,2.43,5,3.64-11.94,1.21,7.06,2.41-4.14,3.61-3.24,1.2-.21,2.39,4.14,3.58.57,1.19,2.6,2.37,3.48,3.55s.59,2.35-3.48,3.51c4.88,2.34,2.9,4.64-1,6.92.77,1.15-1.91,2.28-1.56,3.41-6.23,1.12.09,2.24,2.58,3.35,4.34,1.12,6.62,2.22-1.88,3.32,1.73,1.1-2.49,2.19-1,3.27-.34,1.08-.94,2.15-.8,3.22s1,2.12,3.72,3.16c-1.75,1.05,2,2.09,1.23,3.12-7.28,1,3.9,2.05-.11,3.06-2.64,1-.6,2-3.07,3,8.86,1-1.36,2,2,2.94-3.43,1.23-3.39,2.45-2.52,3.65s2.6,2.39,2.52,3.55c.51,1.17,4.88,2.31,6.53,3.44,4,1.13,5.36,2.24-6.53,3.32-5.39,1.09-8.23,2.16-2.15,3.21.52,1.05,1.76,2.08,2.11,3.09,2.59,2-6.53,3.94,0,5.78-8.11,1.83-10.06,3.58-5.07,5.23-4.39,1.65,11.62,3.21,5.07,4.66,1.47,1.45-7.09,2.79-1.19,4,1.4,1.24,3.2,2.37,1.19,3.39-12.64,2-1.44,3.6,0,4.66,3.7,1.06,3.1,1.62,0,1.62h15c2,0,5.21-.54,0-1.57,4.65-1,5.68-2.56,0-4.53-1-1-3.11-2.09-3.91-3.29-4.74-1.21,2.25-2.52,3.91-3.94-2-1.41-3.84-2.93,2.21-4.54-1.47-1.62,5.88-3.33-2.21-5.13-2.34-1.8,4.53-3.69-.27-5.67-3.7-1-1.72-2,.23-3,3.14-1,5.27-2.08,0-3.16-6.34-2.14,11-4.36,0-6.66-2.36-2.29,14.35-4.66,0-7.1,2.7-1-.36-1.93.95-2.91,4.74-1-.62-2,.8-3-4.68-1,3.72-2,4.26-3-7.19-1,5.29-2.05-6-3.09,1.49-1,.26-2.08,3.16-3.14-3-1.06,3.94-2.12-3.88-3.2-1.38-.53-.34-1.07-5.16-1.62-2.34-.54-8.88-1.08,2.43-1.63,6.93-1.09,3.12-2.19,3.45-3.3-1.4-2.21-6.25-4.46.79-6.74,3.06-1.14-10.07-2.28-2.11-3.44,1.79-1.15-2-2.31,1.32-3.48,3.73-1.16.43-2.34,1.1-3.52-1.83-1.18,2.61-2.37-1.1-3.56-3.17-1.19,2.53-2.39,1-3.59-2.9-1.21,1-2.42-1-3.63-3.45-1.11-2-2.22,5.87-3.33,6.85-1.12-6.34-2.23-3.16-3.36-5.42-1.12-8.58-2.24-2.61-3.37-6.9-1.13-4.25-2.27-.1-3.4-3.63-1.14-5.86-2.28-6.18-3.42s1.28-2.29,5.32-3.44c4.5-1.15-3.29-2.3,3.12-3.46,1.8-1.16-15.71-2.31-2.26-3.47-5.27-1.16,4.91-2.33,3.06-3.49,5.39-.59,6.15-1.17,4.8-1.75a55.05,55.05,0,0,0-7.86-1.75c-6-1.17,4.37-2.35-6-3.52,1.18-1.17,1.43-2.35,6-3.52,6.24-1.18-.51-2.36,1.2-3.54-.26-1.18,1-2.36-5.22-3.54-3.65-1.18-8.69-2.36-4-3.55.4-1.18,2.64-2.36,8.06-3.55,6.82-1.18.26-2.37.4-3.55s9.09-2.37-.4-3.56c-5.31-.59-7.26-1.18-6.57-1.78,4.15-.59,12.33-1.18,9.3-1.77.83-.6-1.54-1.19,1.55-1.78-2.67-.59-.9-1.19-4.28-1.78-9.77-1.18,5.53-2.37-5.6-3.55-2-.46-3.46-.92-3.8-1.38a.3.3,0,0,1,0-.39c.44-.6-3.42-1.19,8.93-1.78,2.8-.59,4.49-1.18-3-1.77,2.44-.59,2.34-1.18,4.78-1.77,5.37-1.18-3.54-2.36-1.32-3.53-4.44-1.18,7-2.36-2.38-3.53a5.86,5.86,0,0,1-1.59-.56,72.85,72.85,0,0,1-9,.63C627.18,262.24,631.11,262.86,635.58,263.47Z"/>
    <path class="cls-1" d="M638.51,261c.69-.16.38-.32-.41-.48C638.11,260.68,638.23,260.84,638.51,261Z"/>
    <path class="cls-1" d="M493.06,135.38a1.36,1.36,0,0,1-.86,1.68c-1.3,1.28,7.6,0,0-6.68a2.57,2.57,0,0,0-.51.44,8.23,8.23,0,0,0,.54,2.13C493,133.8,493.93,134.61,493.06,135.38Z"/>
    <path class="cls-1" d="M475.62,171c-1.55,1.16-1.21,1.82.13,1.67C475.43,172.08,475.19,171.52,475.62,171Z"/>
    <path class="cls-1" d="M474.23,159a8.16,8.16,0,0,0,0,1,2.42,2.42,0,0,0,1.16,1.64.73.73,0,0,1-.27-.72A14.61,14.61,0,0,1,474.23,159Z"/>
  </g>
</svg>
