<svg id="Calque_1" data-name="Calque 1" xmlns="http://www.w3.org/2000/svg" width="29.7cm" height="21cm" viewBox="0 0 841.89 595.28">
  <defs>
    <style>
      .cls-1 {
        fill: none;
      }

      .cls-2 {
        fill: #5f5e5e;
        stroke: #5f5e5e;
        stroke-miterlimit: 10;
      }
    </style>
  </defs>
  <title>Plan de travail 2</title>
  <path class="cls-1" d="M238.32,208.62l.14.34.13-.33h-.27Z"/>
  <path class="cls-1" d="M240.72,133.56a2.54,2.54,0,0,0-2.42-.48,2.44,2.44,0,0,0,.94.52A2.39,2.39,0,0,0,240.72,133.56Z"/>
  <path class="cls-1" d="M240.51,210.39a2.5,2.5,0,0,0-.55-1l-1.2.36,1.15,2.93A2.38,2.38,0,0,0,240.51,210.39Z"/>
  <path class="cls-1" d="M241.29,134.29l-.18.07-.29.71.71.07A2.16,2.16,0,0,0,241.29,134.29Z"/>
  <path class="cls-2" d="M594.2,380.82a2.8,2.8,0,0,0-.11-1.23,2.9,2.9,0,0,0-.81-1.31l5.46-1.72-4.53-2.32c.1-.13.19-.25.27-.37l.31-.45.1-.54c0-.19.08-.38.12-.56a5.78,5.78,0,0,0-.57-4.86l-.54-.79-.8-.21a3,3,0,0,0,.38-2.62l2.29-.7-1.38-2.67a6.11,6.11,0,0,0-1.3-1.6l0-.72q0-.36,0-.72a6,6,0,0,1,.09-1,3.38,3.38,0,0,0,2.42-2.57,2.67,2.67,0,0,0-.2-1.54l2.64-.73-3.69-2.49a4.27,4.27,0,0,0,.38-1.46l0,0c2.24-2.48,2-4.29,1.08-5.51a3.7,3.7,0,0,0-1.39-4.07,9.48,9.48,0,0,0,.66-1.24l.45-1.1a3.08,3.08,0,0,0,1.35-3,3.34,3.34,0,0,0-2.24-2.45,3,3,0,0,0-.41-.64l1-.48-1.82-1.73a4.52,4.52,0,0,0,1.1-2.74v-1.36l-.29-.19.4-.35a2.83,2.83,0,0,0,.94-2.56,2.91,2.91,0,0,0-1.06-1.84,3.7,3.7,0,0,0,.93-1.68,4.52,4.52,0,0,0-.88-3.61l-.26-.42-.41-1.31h0a1.83,1.83,0,0,0,.13-.16l.52-.68v-.85a6.06,6.06,0,0,1,.58-1.34c.67-1.28,2-3.93.27-6.41a3.66,3.66,0,0,0,.22-1,4.3,4.3,0,0,0-.56-2.52,4.41,4.41,0,0,0-.47-3.31h0l.65-1.68-2-.9.12-.13c.9-1,2.13-2.33,1.95-4.19a3.63,3.63,0,0,0-.4-1.35A3.61,3.61,0,0,0,596.1,284a3.32,3.32,0,0,0-1.64-2.51l-.17-.1a3.35,3.35,0,0,0,1-2,3.88,3.88,0,0,0-1-2.9,5.38,5.38,0,0,0,.32-4.56l-.08-.27-.14-.25a9.18,9.18,0,0,0-1.1-1.48l-.09-.1a3.15,3.15,0,0,0,.18-2.39l2.44-.93L594,264.18l.15,0,5.65-1.68-5.13-2.9-.26-.15,1.9-2.16-3.14-1.37a4,4,0,0,1-.83-.43,3.08,3.08,0,0,0,.62-1.86l.2-.05.68-.17.5-.5a10.78,10.78,0,0,0,1.64-2.23,6.13,6.13,0,0,1,.89-1.26l1-1-.12-.55a3.36,3.36,0,0,0,.51-3.2,3.22,3.22,0,0,0-.71-1.08,2.81,2.81,0,0,0,0-4.42,3,3,0,0,0,0-1.6,3.15,3.15,0,0,0,.68-2.13c-.1-1.89-1.7-2.87-3.06-3.41,1.63-.87,2.94-1.94,2.88-3.72a3.08,3.08,0,0,0-.2-1,3,3,0,0,0,.1-.54,3.44,3.44,0,0,0-1.92-3.21,5.86,5.86,0,0,0-.61-4.92,3.57,3.57,0,0,0,1-1.82,4.54,4.54,0,0,0-1.61-4l.75-.52-1.06-2a6.36,6.36,0,0,0-2.07-2,9.15,9.15,0,0,1,1-.59l2-1-.83-2.12a5.13,5.13,0,0,1-.35-2.73c2.48-.5,4.41-1.25,4.82-3.18.44-2.13-1.39-3.31-2.34-3.92-.23-.16-.48-.31-.73-.46l2-1.53-2.73-.62,3.65-1-4.38-2.31a4.23,4.23,0,0,0,.3-.87l.31-.11c1.76-.64,3.94-1.43,3.74-3.73a2.69,2.69,0,0,0-.37-1.18,2.69,2.69,0,0,0,.3-2c-.37-1.72-1.9-2.43-4-2.87a3.33,3.33,0,0,0,1.12-3.11,3,3,0,0,0-.18-.6,2.7,2.7,0,0,0,.68-2.36,3.4,3.4,0,0,0-2.51-2.52l.39-.18c1.42-.64,3.78-1.71,3.59-4.13s-3.19-3.47-4.81-3.92a11.51,11.51,0,0,0,.59-1.24c.15-.33.3-.69.51-1.11a5.54,5.54,0,0,0,2.29-2.77l.72.62-.49-1.61a6.09,6.09,0,0,0-.11-2.05l-.24-1.21-.67-.33a3.46,3.46,0,0,0-.87-2.68l-.12-.42a25.05,25.05,0,0,1-.7-2.78l1.5-2.39-.68-.7a2.41,2.41,0,0,0,0-3,2.6,2.6,0,0,0-3.56-.5,11,11,0,0,0-2.88,2.43c-.32,0-.67,0-1.09,0-.27,4.27-1.12,4.24-2.5,3.12.09.46-.5.95-1.15,1.37-.59-.82-2-2.23-3.53-4.49a5.76,5.76,0,0,0-1.91-2.42c-.12,1-.76,2.3-2.62,3.44,3.26,3.27-.5,3.12-2.49,2.1-.51-1-2.82-2.91-2.63-3.11-1.2-3.52-2.44,4.32-3.72.85-1.28.41-2.6-2.07-4-.85-.68,6.32-1.37-.33-2.06-2.78-.7-2.21-1.41-1.21-2.12,2.95s-1.45-2.12-2.18,3c-.74,1.29-1.48,1.21-2.23-3.2-.38,4.57-.76,3.63-1.14,4-.38-.91-.76-3.07-1.14-3.48-.77-4.12-1.55-.06-2.34-.52-.79,1.31-1.58,2.48-2.38,4s-1.62,0-2.44-4c-.41-6.43-.82-1.4-1.24-5.3-.41.17-.83-2.27-1.24,1.71-.42-3-.84-5.78-1.26-2.08-.42,0-.85,4.55-1.27,5.58-1.71,4.29-3.44-6.94-5.2.09-1.76,2.27-3.56,0-5.38,0-.91,4.91-1.82-4-2.75-1-.92.49-1.85,3-2.79,1-.93,3.34-1.88,2.6-2.83,1.1s-1.9-3.76-2.86-3.48c-.49-4-1-3.68-1.45-5.54-.49-.95-1-.43-1.46,3.32-1-2.57-2,7-2.94,4.61-.85,3.67-1.7.85-2.55.1-.86,2.61-1.71,3-2.58.79-.86-1-1.72,4.18-2.59,2.21-.87,1.79-1.75-6-2.63-2.53-.88,6.08-1.76-1.41-2.64,3.1-.45,3.48-.89.56-1.33,1.75-.45,3-.89-3.76-1.34-5.44-.89-6.83-1.79-5.69-2.69-3.49-.9,5.11-1.8,2.42-2.71,3.53-1.81-4.67-3.64.25-5.48,0-.92-6.45-1.84-.87-2.77-.23-.92-.27-1.85,3.94-2.78.23-.94.53-1.87,0-2.81,3.63-.94,5.14-1.88-2.12-2.82-3.62-.94,8.79-1.89,3.81-2.84,1.81-.94-4.43-1.89-7.29-2.85-1.81-.85-.3-1.71,5.16-2.58,2.85-.86-3-1.72,3.12-2.59-2.67-.86-7.36-1.73,2-2.6-2.86-.87,3.13-1.74-.59-2.61,1.55-.87,1.66-1.74,4.9-2.62,3.18-.87-11.82-1.75.41-2.63-4.37-.44,1.83-.88-3.38-1.32-4.51-.44-3-.88-2-1.32,2.87-.88-.55-1.76-1.3-2.65,4-1.76-4.58-3.54,1.64-5.31-3.26-.89,2.59-1.78,5.22-2.67,3-.89,2.18-1.78.83-2.68-.83-1.78-3.07-3.57-.24-5.36-1.31-1.8-1.54-3.59,1.61-5.39,2.37-.9-10.26-1.8-7.55-2.7-4-.45-1.29-.9-4.47-1.35-1.76a18.31,18.31,0,0,1-1.35,5.79c-.45-.63-.9-2.08-1.35-2.7-.45,7.16-.9-1.33-1.35,5.85-.91-3.47-1.81-3.68-2.71-3.15-.45,3.6-.9-.59-1.35-.77-.46-1-.91-5-1.36-2.81-.9,2.76-1.8-.06-2.71,3.58-1.8-8.94-3.61-2.34-5.42,0-.9,1.16-1.8-3.74-2.71-2-.9-1.2-1.8-1.87-2.7,1.14-1.81,4.22-3.61.13-5.42-.15-1.8-2.7-3.6-1.28-5.4-.65-1.8,3.06-3.59-4.19-5.39,1.69-1.67-5.13-3.34-1.44-5,.4-1.67-3.41-3.33-3-5,.66-.83,2.35-1.66,9-2.49,2.44-.83-3.86-1.66-8.55-2.48-2.3-1.66-10.85-3.3-.24-5-1.18-1.64-1.8-3.28,1.17-4.92.94-.81,4-1.63,5.88-2.44,2.92-.82,1.8-1.63,2.14-2.44-3.08-1.62-3.27-3.24-4.95-4.85-1-1.61-5.82-3.21,2.39-4.81.23-1.6-2-3.18,3-4.77-4.42-1.58-1.91-3.15,1.45-4.72-.1-1.57-.42-3.12,1.77-4.67,2.22-.78,4.49-1.55-10.26-2.32-2.17-.77-.84-1.54,5-2.3,4.48-.77,4.76-1.53,5.81-2.29,3.71-.77-7.18-1.52-4.43-2.28-2.77-.76.76-1.51-3.31-2.26-2.74-.75-2.61-1.5-5-2.25-1.55-1.49,3.81-3-1.4-4.44-.77-1.47,1.41-2.93.28-4.38,4.14-1.45-3.92-2.89-.74-4.31-3.24-1.43-4.72-2.84-2-4.24-.11a25.29,25.29,0,0,1-4.17,1.46,12.94,12.94,0,0,0-4.08,1.9c-.68-3.71-1.35.87-2,2.57-.67,2.57-1.33,7.89-2-3.7-.66-4.15-1.32-5.43-2-4.62-.66,1.89-1.31,4.81-1.95,2.73-1.29-.75-2.57,3.45-3.83.73-1.26,6.79-2.51-3.26-3.74,2.3-1.36,3-2.7-5-4,.85-1.32-2.54-2.62-1.56-3.9-1-1.28,2.74-2.54,2.23-3.77,1.59-1.24-4.28-2.45-2.44-3.65-1.41-.59-2.86-1.18-3.63-1.77-2.77-.58.53-1.16,1.08-1.74,7-1.14,1.2-2.27-.87-3.37-3.82-1.1-1.39-2.17-3.24-3.23-1-1,3.11-2.08-1.78-3.08.62-1,5.35-2,4.76-2.93,6.72-.95-4.48-3.37-.29-2.77-5.71-2.87,3.63-1.44,1.32-2.61.39-.84-1.87-1.66-4-2.45-1.39-1.43,4-2.09,1.34-4.37-1.27-1,2.86-.93,2.4-1.92,3.76-.12-.7-1.29.92-1.74-2.49-1.58.28-1.76.53-2.27,1.57,0-.14-.09-.27-.13-.41l-.18-.53s0,0,0,0,0,0,0,0l-.2-.62h.5a2.68,2.68,0,0,0-1.35-2.58l-.81-2.44-1,2.18c-.81.16-1.73.79-2.11,2.64-.28,1.28-.81,3.82.91,4.88a4.2,4.2,0,0,0-.67,3l.12,1.6H220l-.06.29c-.62,3.05-1.08,6.12.19,8a5,5,0,0,1-.23,1.06,7.18,7.18,0,0,0-.31,2.47,3.17,3.17,0,0,0-.45,1.51c-1.24,1.77-1.46,2.81-1,3.9l.68,1.46H219l-4.95,4.57,7.37-1.59.2.44a2.69,2.69,0,0,1-.36,1,2.63,2.63,0,0,0-1.48,1.63,2.54,2.54,0,0,0,.1,1.76l-.88.49,1.34,2.22a2.25,2.25,0,0,1,.22.85c0,.17.06.36.1.56l-.36,0-.3,2.36a13.27,13.27,0,0,1-.26,1.48l-.09,0-.5.63a2.62,2.62,0,0,0,1.13,4.14q-.07.28-.18.63l-.35,1.1.21.34c-.27.2-.6.43-.82.57-1,.69-2.55,1.72-2.25,3.6a3,3,0,0,0,2.12,2.33,3.18,3.18,0,0,0,.95.6,2.74,2.74,0,0,0,.19.79,3.1,3.1,0,0,0,.26,1.78l-2.8.83,3.14,3-3.71,1.4,4.06,2.7c.29.2.53.37.71.52a6.12,6.12,0,0,0-1.87,1h-.06c-2.69.82-3,2.58-3,3.3a3.18,3.18,0,0,0,1.41,2.65,5.77,5.77,0,0,0,.29,2.87,4.78,4.78,0,0,0,1.3,1.87c-.1.39-.22.79-.34,1.19a7.75,7.75,0,0,0-.51,3.13c-.16.19-.3.38-.43.54a3.7,3.7,0,0,1-.47.56c-1.7,1.51-1.47,2.95-1.18,3.68a3,3,0,0,0,.47.79,2.56,2.56,0,0,0,.3,1.1l-2.35.41,5.87,3.46.31.18c-.12.09-.26.2-.43.31l-3.68,2.46-1.32.29.3.39-1,.67,1.68.19.85,1.08a3,3,0,0,0,.31,1.93,4.33,4.33,0,0,0,2.84,2l-4.58,2.28,5,2.09,0,0-3.25,1.51,1.68,1.67A4,4,0,0,0,219,257a3.6,3.6,0,0,0,1,1.76,2.78,2.78,0,0,0,.28.51l-1.79,1.1.37.13c-1.79.67-3.21,1.68-3.33,3.48-.17,2.74,2.95,4.06,5.52,5,.15.28,0,.69-.78,2.1l-.59,1.07.48,1.11a4.34,4.34,0,0,1,0,2.24v0c-2.29.33-3.28.77-4.1,1.7l-3.18,2.29,3.62,1.87c.84.43,1.64.87,2.39,1.31l.35.21.41.08c.68.15,1.12.27,1.39.36a3.53,3.53,0,0,0,.31.82,9.54,9.54,0,0,1-.49,1.37c-.19.46-.39,1-.56,1.49a3.53,3.53,0,0,0-2.1,2.7L213,292.35l5.45,1.5a3,3,0,0,0,.24.86,2.55,2.55,0,0,0,.25.46,1.33,1.33,0,0,0-.19.14l-3.34,2.7,1.19.47a2.67,2.67,0,0,0,0,1.13,2.64,2.64,0,0,0,.16.54,2.43,2.43,0,0,0-.08.47,2.57,2.57,0,0,0,.12,1.17l-3.48,1,6.83,2.11a4.23,4.23,0,0,0,.8,4.33c-1.86.66-2.95,1.53-3.45,2.78-1.38.35-2.67,1-2.88,2.62-.18,1.41.6,2.49,2.32,3.23a11.2,11.2,0,0,0,2.37.67l2.4.83h0a5.92,5.92,0,0,0-.57,1.12.19.19,0,0,1,0,.07l-3.39,2.16,3.5,2.07.11.08a.86.86,0,0,1,0,.17,5.14,5.14,0,0,0,.85,2.11l-.45.14-.25.09c-2.67,1.14-3.29,2.67-3.57,4.16a1.55,1.55,0,0,1,0,.21l-.45.58v.56s0,0,0,.06a3.78,3.78,0,0,0-.21,3.37,4.25,4.25,0,0,0,2.15,2,10.12,10.12,0,0,0,0,3.68,2.8,2.8,0,0,0-1.7,2.32,2.56,2.56,0,0,0,.45,1.82l-3.67,1.14,6.15,1.79-.52.5,0,1a2,2,0,0,1-.05.34,5.69,5.69,0,0,0-.08,1.79c-1.86.41-3.3,1-3.37,2.85a2.64,2.64,0,0,0,1.27,2.32,3.87,3.87,0,0,0-.66,1.92,1.69,1.69,0,0,0,0,.23,2.83,2.83,0,0,0-.69,1.69c-.14,1.78,1.19,2.79,2.47,3.51a2.75,2.75,0,0,1-.61.46l-1.2.68-.07,1.59c-.1,1.81.24,3.84,3.42,5.33,0,.22-.17.58-.26.84a5.55,5.55,0,0,0,.25,5.18l.54.81.24.06a4,4,0,0,0-1.73,2.31,3.85,3.85,0,0,0,1.25,3.79l.44.46.45.14a3.21,3.21,0,0,0,.53,1.67l-.29.09-.27.09a3.46,3.46,0,0,0-1.29,6.17l0,0v.5l.84.73.16.13a5,5,0,0,0,0,4.82c0,.11.1.23.14.35l-.17.1-.88.5-.29,1c-.56,1.92.48,3.45,1.34,4.54a4.08,4.08,0,0,0,0,.7l-5.87,2.12,4.66,1.92-3.19,1,3.82,2-.2.21-1.72,1.9,1.44,1.26-.19.27c-1.83,2.6-1.8,4.74.08,6.38.49.95.43,2-.16,3.85l-.17.46.08.57a4.85,4.85,0,0,1-.39,1c-.61,1.28-2,4.27,1,6.73l.38.31.47.14.6.2a3.83,3.83,0,0,0,.06.65l-.59.25-1.84.73.3,2a4,4,0,0,0,.31,1l-8.81,2.81,8.4,1.79a3,3,0,0,0-.13.55,3.09,3.09,0,0,0-1.44,3.21,2.71,2.71,0,0,0,.33.82,4.08,4.08,0,0,0-.57.24,2.79,2.79,0,0,0-1.57,2.38,4.25,4.25,0,0,0,.05,1.3,2.32,2.32,0,0,0-.84,1.44,2.85,2.85,0,0,0-.32,1.2c-.08,1.52.85,2.61,2.22,3.45a4.62,4.62,0,0,0-.41.34L214,465.78l3.18.78a3.49,3.49,0,0,0,.29,1,4.31,4.31,0,0,0,1.72,1.85,3,3,0,0,0-.72,1.35c-.47,2,1.09,3.23,1.84,3.84a3.3,3.3,0,0,1,.44.37,1.8,1.8,0,0,1-.34-1.38,2.08,2.08,0,0,1,.39-.95l2.26,3-.83.08-5.12.49,3.55,3.72c.4.42.63.7.77.87a3.57,3.57,0,0,0,.76.73v0a2.49,2.49,0,0,1-.34.27,2.6,2.6,0,0,0-2.3,2.5,3.41,3.41,0,0,0-1.54,2.51,3.3,3.3,0,0,0,.35,1.77l-.1.58a4,4,0,0,0,1.49,3.23l.62.93.25-.17.24.18a5.12,5.12,0,0,0,.57.77c-.93.44-.84.67-.13.75-.07-.19,0-.39.26-.59a4.73,4.73,0,0,0,.76.61,8,8,0,0,1-1,0c.1.27.57.54,1.6.76,1.22.66,5.07,1,3.46.57-.24-.14-.94-.37-1.71-.71a2.72,2.72,0,0,0,2.41-2.2,2.92,2.92,0,0,0-1.21-2.88,10.84,10.84,0,0,1,1.26-.73,21.42,21.42,0,0,0,2.13,2.28c.49.27.89.5,1.21.72.16-.07.32-.14.53-.21-1-1.1,7.92-2.1,1.92-.78,1.58,2.62,1.25,3.08,5,2.69-7.08-.31-1-1.17-.09-1.91,2.62,1.85,8.72-4.28,5.64-2.25a1.78,1.78,0,0,0,.44-.83,1.57,1.57,0,0,0-.64-1.32l1.88.94c1.69,3.55.92,3.7,1.45,5.12,0,.42.08.75.1,1a5.76,5.76,0,0,1,1.38-3.2c-.11-.31,2.68-5,3.08-2.83,1,2.52,1.06,1.73,1.6-2.17.88,1.32,1.08.26,1.63,5,.55.52,1.11-8.15,1.67-5.52.56-.64,1.13,5.94,1.7,1.53.58-7.13,1.16,2.49,1.74-.91.59-1.14,1.18-2.33,1.77,4.9,1.09,5.57,2.19,3.5,3.31,2.44.56-5.74,1.13-3.76,1.7-5.63.56-2.48,1.14,4.93,1.72,3.79,1.15,3.44,2.33,2,3.52,1s2.39-3.49,3.62-1.57c1.22,2.4,2.46,1.76,3.71-.78,1.26-2.27,2.53.22,3.81.77,1.29,2.49,2.59-.67,3.91-.57,1.31,1.91,2.64-1.51,4,.57,1.54,6.65,3.1-.37,4.68,0,.79,2.13,1.58-1.11,2.38-3.51.79-1.93,1.6.37,2.4,3.51,1.61-2.78,3.24,7.16,4.89,1.1a51.33,51.33,0,0,0,1.23,6.09,17,17,0,0,0,1.25-3.06c.83.71,1.66-3.49,2.5-4.14.84-3.5,1.68-8.06,2.52-3.18.85-2.3,1.7-2.19,2.55,3.18.43-3.54.85,2.64,1.28,4.53.43,1.71.86,2.74,1.29.49.86-.11,1.72-1.69,2.59-5,.86,0,1.73.59,2.6-3.29.88-.81,1.75.12,2.63,3.28,1.76,3.14,3.53,2.78,5.31,0,.6.09,1.19-2.66,1.79-4.71.6,1.46,1.19.52,1.79,2.56a25.56,25.56,0,0,0,1.8-2.49c.61-.69,1.21-1.79,1.81,4.63.61-3.61,1.21-4.8,1.82-4.55s1.21,1.94,1.82,4.1c1.22.13,2.44-1.69,3.67.45.61-1.29,1.22-7.56,1.84-3.59.61,3.39,1.23,1.37,1.84,2.84.62,4.3,1.24,1.75,1.86,4.08.62-2.49,1.24-2.75,1.86-3.34,1.24-.57,2.48,1.46,3.73-1.18,1.25-1.43,2.5-.09,3.76,1.18.31,4.93.63,7,.94,4.92.31,4.45.63,5.79.94-.47.63.24,1.26-8.33,1.89-2.26,1.26-4.72,2.53-2,3.8-2.2,1.26.86,2.53,3.76,3.8.47,1.28-2.72,2.55-4.51,3.83-.47.64,1.28,1.27-.82,1.91,3.15.64-.34,1.28-1.91,1.92-4.28,1.28-3.39,2.57-1.6,3.85,1.12.64,3.36,1.29-1.31,1.93,3.23a20.31,20.31,0,0,0,1.93-3.89c1.29,4.4,2.57-5.16,3.86.66,1.29,8.92,2.59-1,3.88.4,1.29.64,2.58-2.53,3.88.19,1.29-1.52,2.58-5,3.88-1,1.29-5.68,2.59,6.76,3.88.4.65,2.59,1.3,1.24,2-3.41.65.59,1.29-.86,1.94,3.66,1.3-1.42,2.59-1.6,3.89-.25,1.29,2.75,2.59,4.12,3.88,2.08,1.3-6.29,2.59-1.25,3.88-2.09,1.29-8,2.59-1.24,3.88-.69,1.29,1.73,2.58,2.81,3.87.69,1.28-5.08,2.57.2,3.86.08,1.28-2,2.57,1.59,3.85-.09,1.28,7.74,2.56,2.51,3.84,4.29,1.28,1,2.55-4.3,3.83-4.29,1.27,1.83,2.54,2.25,3.81,1.09,1.27-.77,2.54-4.17,3.8-1.1.63-5.64,1.26-3.07,1.89-5.22.63-1.92,1.26,1.6,1.89,3.67,1.26-3,2.51,6.72,3.77,1.55,1.25,3.59,2.49,2.89,3.74,1.71,1.24.3,2.48-1,3.72-1.72,1.24,2.95,2.47-.35,3.7,2.52,1.23,2.69,2.45-4.23,3.67-2.52,2.44.79,4.87-2.56,7.27,0,1.2,1.13,2.4.52,3.59-1.6,1.2-.93,2.38-.4,3.57.38,1.18-3.72,2.35,1.21,3.52,2.53,1.18-1.37,2.34,1.3,3.5-1.32,2.32,4,4.61,2.6,6.89.72,2.27-.07,4.51-4.46,6.73-.73,1.11-.35,2.21-5.25,3.3-3,1.1,2.7,2.19,2.47,3.27,3,2.16,1.33,4.29-3.33,6.39,0,.52-1.05,1,6.38,1.57,5.1.52-2.22,1-1,1.55-3.57,1-2.19,2.06-1.45,3.08-3.35,1,2.57,2,3.89,3,3.3,1,1,2,.52,3-1.49,1.28-2.87,2.55,2.86,3.81,1,1.25-5.3,2.49,1.51,3.72-1,1.22,5.85,2.43-3.12,3.62,2,1.19-5.73,2.36-3.75,3.52-2,1.15-5,2.29-6.14,3.41-1.66,1.12-.82,2.22,12.2,3.31,1.94,1.08-.15,2.15-2.39,3.19-3.61s2.08-2.41,3.09,3.32c2-1.22,3.95-2.38,5.81-1.12,1.85.53,3.62-.62,5.31,1.11.84-6.15,1.66-4.47,2.46-3.91.8,1.16,1.57,3.66,2.32,4.19,1.51,2,2.92-2.31,4.24-.28,2.63-1.72,4.88-.48,6.71,0l.1-.05v.86h5v-1.35c.35.61.53,1,.53.54a1.78,1.78,0,0,0-.53-1.54v-4.74c.08-.18.15-.36.22-.5.66-1.53,1.56-3.61.69-5.57a3.6,3.6,0,0,0-.37-.64,12.87,12.87,0,0,0-.63-4.06l-.37-1.27-.79-.28c.06-.18.15-.42.27-.69l.36-.4c3.64-4.11,3-6.61,2.1-7.82a3.11,3.11,0,0,0,.27-2.87,2.73,2.73,0,0,0-.36-.63,4.51,4.51,0,0,0,2-2.17,4.14,4.14,0,0,0-.87-4.38,4.44,4.44,0,0,1-.49-.92c-.07-.14-.14-.31-.23-.48l.19-.11-.43-.33a4.22,4.22,0,0,0-1.05-1.22,4.73,4.73,0,0,0,0-.76,7,7,0,0,0,.22-3.36,4.35,4.35,0,0,0,1.63-2.8,3.55,3.55,0,0,0-.1-1.36,3.1,3.1,0,0,0,.16-.74,3.21,3.21,0,0,0-1.29-2.73l.63-.47-2.75-2a10.4,10.4,0,0,0-1.27-.76,11.25,11.25,0,0,0,2.26-4.27l.33-1.68-.26-.17a3.43,3.43,0,0,0,1.69-2.28c.35-1.82-1-3-1.69-3.65l-.31-.29-.27-.62-.77-.41-.45-.27c.13-.25.32-.57.47-.81a9.79,9.79,0,0,0,1.11-2.22c.2-.14.47-.3.67-.42,1.22-.75,2.61-1.6,2.86-3.25a2.71,2.71,0,0,0,0-1.1,3,3,0,0,0,1.14-2.75,3.31,3.31,0,0,0-2.25-2.52l2.15-1.16-3.29-2.15a4.45,4.45,0,0,0-.47-1.92,6.75,6.75,0,0,0-.28-4.12,3.06,3.06,0,0,1-.24-1.19l2.45-3.14-2.87-.62,6.62-2-7-1.28,0,0c.75-.78,1.68-2.36,0-4.54l1.93-2-1-.25,6.51-2.28ZM592.27,143.3a1.1,1.1,0,0,1,0,.18l-.08,0Zm-1.78-3.42.64.67a3.19,3.19,0,0,0-.32.56,3,3,0,0,0-.45.21l-.12.08A2.47,2.47,0,0,1,590.49,139.88ZM498.26,301.71a7.14,7.14,0,0,0,1.08,3.16,5.22,5.22,0,0,0-1.12,2.55,4.41,4.41,0,0,0,.72,3L494.11,312l3.86,2.19,0,0a3.34,3.34,0,0,0-1.62,2.93,3.25,3.25,0,0,0,.85,2.21,3.12,3.12,0,0,0-.95,1.91c-.33,2.49,1.83,3.55,3.12,4.19l.26.12.3.29a3.9,3.9,0,0,0,1.82,3.78c0,.35,0,.69,0,1,0,1.51,0,2.16-.62,2.92l-.67.8v1.09a19.33,19.33,0,0,0,.2,2.3c.24,1.84.23,2.39-.41,3.13l-.1.13a7.49,7.49,0,0,0,.26,10.07,9.66,9.66,0,0,1-2,3.79,4.72,4.72,0,0,0-1.5,3.27c-.08,2.17,1.32,3.73,2.52,5a3.56,3.56,0,0,0-.33,1c-.36,2.08,1,3.49,1.8,4.25l.37.37.18.64a5.53,5.53,0,0,0-3.4,3.73,5.45,5.45,0,0,0,1.25,4.48,3.14,3.14,0,0,0-.22,1.83,3.06,3.06,0,0,0,.68,1.56,3.86,3.86,0,0,0,.67,1.35,4.18,4.18,0,0,1,.09,1.51l-1,.16-6.2.88,1.17.95,4,11.54a4.52,4.52,0,0,0-.92,1.24,4.13,4.13,0,0,0-.43,1.52,13.16,13.16,0,0,0-1.54,1.27c-.4-.14-.9-.33-1.36-.53-.38-1.74-1.71-3.11-4.16-4.38l-.37-.19-.4-.05-.35,0a.08.08,0,0,1,0-.05c-.85-1.95-2.92-2-4.58-2h-4.73l1.42,2.31a2.94,2.94,0,0,0-1.13.16,4.55,4.55,0,0,0-2.57,3.09,3.45,3.45,0,0,0-1,1.51,2.23,2.23,0,0,0-.39-.09l-.21,0a3,3,0,0,0-.85-.09,2.86,2.86,0,0,0-1.12.31l-1-5.34-2.51,3.83a4.17,4.17,0,0,0-2.81-1.29c-.67-.85-1.87-2.19-3.65-1.71s-2.62,2.72-3,4.31l-2.18-9.18-2.13,8.68a2.44,2.44,0,0,0-2.15-1.3,2.5,2.5,0,0,0-2.09,1.07,2.71,2.71,0,0,0-2.45-1.46,2.45,2.45,0,0,0-1.8.82l-2.73-6.64-.34,3.78a3.37,3.37,0,0,0-.93-.81,2.6,2.6,0,0,0-2.47-2.18c-2.42,0-2.78,2.23-3.29,6l-.73,1c-.19.25-.31.34-.31.36a3.66,3.66,0,0,1-1.33-.83L433,398.27l-1,3.7-.06.2a3.68,3.68,0,0,0-1.39-1.86l-2.78-1.8-.89,3.4c0,.16-.08.3-.12.43-.13-.23-.28-.51-.44-.85l-.12-.25L426,401a13,13,0,0,1-.83-1.3c-1-1.73-2.44-4.09-4.84-3.65a3.93,3.93,0,0,0-2.74,2.42,3.52,3.52,0,0,0-2.47,1.27l-2.6-6.4-1.38,8.95c-.1.68-.2,1.23-.3,1.66,0-.1-.05-.21-.08-.33l-.26-1.13-.93-.58a7.39,7.39,0,0,0-3.49-1c-.32,0-.57-.06-.78-.1-.38-2-.95-3.23-2.15-3.95l-.32-1.15-.82-.37a2.78,2.78,0,0,0-3.18-.87c-1.18.49-1.81,1.56-2.24,3.57a2.62,2.62,0,0,0-1.74-.45,2.78,2.78,0,0,0-1.79.89,3.87,3.87,0,0,0-2.78.61l-2.6-2.41-.58,3.52a2.74,2.74,0,0,0-1.69-.61,2.84,2.84,0,0,0-1.85.71,3.82,3.82,0,0,0-1,.69l-1.69-7.36L379,399.17a2.75,2.75,0,0,0-2.4-.76l-.31.06c0-.06,0-.12-.06-.2l-.67-2.18-1.85.3c-2-.24-3,.94-3.62,2.42a2.76,2.76,0,0,0-2.11-.42,3.06,3.06,0,0,0-1.79,1.15,3,3,0,0,0-.81.35l-.18-.87-2.34.44a2.58,2.58,0,0,0-1.57,1l-1.93-9.2-1.76,7.46a2.42,2.42,0,0,0-1.79-.42,3.33,3.33,0,0,0-2.56,2.49c-.63-1.2-1.84-3-3.74-3.34a3.57,3.57,0,0,0-.89,0,2.52,2.52,0,0,0-3.32.47,9.63,9.63,0,0,0-.43-1.19,3.18,3.18,0,0,0-.4-.89,2.37,2.37,0,0,0-3.25-.72L337.72,397l-5.08-.77c-1.77-.26-3.6-.54-4.75,1a3.08,3.08,0,0,0-.79,0,5.42,5.42,0,0,0-3.66,2.36l-1.36.74c-.34-1.8-.95-3.19-2.57-3.6a2.91,2.91,0,0,0-2.66.71,3,3,0,0,0-1.06-.36,11.85,11.85,0,0,0-.7-2.95c-.08-.23-.18-.52-.24-.72h0a.39.39,0,0,1,0-.13v.1L311,390a1.69,1.69,0,0,1,.56-.36,3.63,3.63,0,0,0,1.48,0,2.2,2.2,0,0,1,1.45,1.65,11.87,11.87,0,0,1,.17-2.11l.88-.25-.15-2.28a4,4,0,0,0-.24-1.16,10,10,0,0,0,.18-5l-.08-.34a20,20,0,0,0,.17-4.12l.94-.76c.54-.43,1.11-.88,1.6-1.34a3.79,3.79,0,0,0,1.21-4.25,4.66,4.66,0,0,0-3.71-2.73,4.1,4.1,0,0,0,.91-3,2.6,2.6,0,0,0-.07-.45,9.12,9.12,0,0,0,2-2.26,4.43,4.43,0,0,0,.4-3.64c-.74-2.17-3-3.18-5-3.84l-.83-.35a5.1,5.1,0,0,0,.22-1.3l.53-.23,6-2.27-5.75-2.84-.18-.09a19.3,19.3,0,0,0,1.19-2.59c1.4-.64,3.15-1.81,3.27-4a4.31,4.31,0,0,0-2.24-3.93,5.35,5.35,0,0,0-.62-.71l.09-.44a10.11,10.11,0,0,0-.32-4.42c-.36-1.48-.38-1.83-.12-2.22l.58-.86-.1-1.06a4.27,4.27,0,0,0-1.36-2.66,3.28,3.28,0,0,0,1.69-2.76,3.4,3.4,0,0,0-.39-1.68,10.61,10.61,0,0,0-.59-2.07c-.09-.26-.22-.63-.28-.86l0,0,3.3-3.05-4-1.64a.48.48,0,0,1-.16-.07c0-.07,0-.14-.07-.22a9.28,9.28,0,0,0,1.52-2l.66-1.23-.25-.6c.08-.1.16-.22.22-.31a5.62,5.62,0,0,0,1.33-4.58,5.28,5.28,0,0,0-3.11-3.44l-.28-.14c0-.11,0-.23,0-.36s0-.27-.08-.42l.26,0,8.61-1.38-7.07-3.43a4.57,4.57,0,0,0,1-3.43,4,4,0,0,0-.78-1.82l.09-.22a6.61,6.61,0,0,0,.33-4.68,3.58,3.58,0,0,0,.09-.65,4.18,4.18,0,0,0-1.31-3.12l.37-.71a8.64,8.64,0,0,0,1-6.47,4.94,4.94,0,0,0,1-2.39c.34-2.4-1.15-4.29-2.23-5.57a3.41,3.41,0,0,0,.49-3.77,2.79,2.79,0,0,0,1.69-2.83c-.09-2.08-1.73-2.72-3-3a1.72,1.72,0,0,1-.49-1.09l.07-.48-.08-.48a4.77,4.77,0,0,0-.18-.7l.15,0,7.93-2.3-5.82-2.23v-.28a4,4,0,0,0,.61-3.13,3.71,3.71,0,0,0-.81-1.65l0-1.08c0-1-.09-1.95-.14-2.74a21.41,21.41,0,0,1-.06-3.1c1.11-2.33,1.86-4.26,1-5.95a2.87,2.87,0,0,0-.82-1v0A3,3,0,0,0,316.9,226a3.17,3.17,0,0,0,0-.54h0l0-.05a8.1,8.1,0,0,0,.62-1.17l.36-.07.63,1.72,2.56-2.86a6.09,6.09,0,0,1,1.58.41,2.91,2.91,0,0,0,2.6,0l.08,0a2.35,2.35,0,0,0,1,0,2.56,2.56,0,0,0,1-.39,4.08,4.08,0,0,0,.49.28c0,.13-.06.27-.1.45a4.8,4.8,0,0,0,.28,3.73,3.64,3.64,0,0,0,1.12,1.18,2.67,2.67,0,0,0,.56.95l1.06,1.15,1.4-.4c1.14-.33,2.07-1,3.52-6.83l0-.2a2,2,0,0,1,.38,0,1.74,1.74,0,0,1-.34-.09l.11-.46-.23-.78a1.66,1.66,0,0,1-.09,1.13,2.46,2.46,0,0,1-1-1.15,2.8,2.8,0,0,1,.19-2.58l3.93,3.4a1.66,1.66,0,0,1,.62-.56,3.17,3.17,0,0,0,1.5.83,3.44,3.44,0,0,0,2.92-.84c1.26.84,3.42,1.94,5.72.59a3.47,3.47,0,0,1,1.31.16c.43,1.72,1.23,3.75,3.09,4.13s3-1.07,3.77-2.27l.08,1.29,1-1.85a2.57,2.57,0,0,0,2.25,1.84,2.27,2.27,0,0,0,2.08-.95,5.91,5.91,0,0,0,3.56-.36c.23-.08.45-.16.67-.22l1.49-.39.22-1a3.24,3.24,0,0,0,1.92.8,3,3,0,0,0,.67,0h0l0,.08c.32,1.36,1,4.54,3.61,4.41,2-.1,2.84-2.11,3.32-4.48a6.6,6.6,0,0,0,1.5-.65l3.48,4.83.41-5.27a2.65,2.65,0,0,0,1.71.67,2.89,2.89,0,0,0,2.45-1.39,4.06,4.06,0,0,0,3,2,3.06,3.06,0,0,0,.8-.07,6.34,6.34,0,0,0,4.25.38,4.2,4.2,0,0,0,2.41,1.61c2.26.48,3.93-1.34,5.15-2.67l.43-.47c.5-.57.72-.6,2.2-.29l.88.17,1.92.31.23-.59a4.37,4.37,0,0,0,2.26,1.47,2.85,2.85,0,0,0,4.18.05l3.12,10.56.67-9.07.69,2.37.93-5.08,2.22,1.51.75-2.61.27.41c1.12,2.29,2.52,5,5.07,4.74,2.09-.23,3.09-2.37,3.61-4l.18,0a2.69,2.69,0,0,0,.92-.43l.51,1.11,2.43-2.36.15-.15c.08.3.15.58.22.83l.73,2.47,2.29-.66a4,4,0,0,0,2.24-2.06l.36.18a7.38,7.38,0,0,1,.69.69,5.48,5.48,0,0,0,3.19,2.11,3.75,3.75,0,0,0,2.8,2.31c2.15.26,3.38-1.68,4.39-3.72l.31-.06.5-.1,2.06,2.26,1.38-2.2.22.69.75.38.36.49c.67.95,1.93,2.73,4,2.22,2.29-.57,2.9-3.62,3.23-5.26l0-.13c.12-.78.24-1.37.33-1.81a2.85,2.85,0,0,0,.89,0c.73,2.56,1.65,5.15,4.15,4.56l1.71-.41.15-1.16a5.59,5.59,0,0,0,1,.8,3.92,3.92,0,0,0,5-.32,5.78,5.78,0,0,1,2.67-.65l.11,1,.1,0-3.36,10,8.57-12.64c0,.27,0,.52.08.73l.59,3.39,2.92-1.33c.78-.35,1.49-.68,2-.91l3.06,4.77,1-4a3,3,0,0,0,1.19,1,3.19,3.19,0,0,0,.69.21,3.21,3.21,0,0,0,.9,3.05l-.57,1.07.49,1.28a3.16,3.16,0,0,0,.54.93q-.17.83-.42,1.89c-.87,1.25-.37,2.83.12,4.36.13.42.36,1.15.54,1.82l-.5.75c-1.89,2.84-1.26,5.83-.81,8,.15.69.28,1.34.35,1.95l.1.53c.73,2.5,1.12,4.13.23,5.8l-.82,1.53.64,1a7,7,0,0,1-.69.76,4,4,0,0,0-1.15,6.83,5.43,5.43,0,0,0-.17.61,3.58,3.58,0,0,0,.19,2c-2.2.71-3.72,1.78-3.79,3.86-.1,2.83,2.57,4,6.24,5-.06.16-.13.33-.19.46a9.41,9.41,0,0,0-.84,2.83c-1.37.78-3,2-2.71,4.17a3.41,3.41,0,0,0,1.83,2.61l-2.72.48,4.86,3.9a1.66,1.66,0,0,1,.33.32,9.24,9.24,0,0,1-.76,1.57,17.57,17.57,0,0,0-1,2A8.32,8.32,0,0,0,498.26,301.71ZM501.48,394c-.08.44-.24,1-.38,1.47l-6.17-9.09,2.94,2.37C498.09,390.37,498.74,392.14,501.48,394ZM336.6,403.75a4.06,4.06,0,0,0,0-1.7l1.14,1.18a3,3,0,0,0,.49,1.28,2.27,2.27,0,0,1-1.46-.59ZM312,392.21l-1-.9a1.69,1.69,0,0,1,.56-.36,3,3,0,0,0,.5.06C312.07,391.43,312,391.84,312,392.21ZM224.58,150.62l.17-.07a1.9,1.9,0,0,1,.24.86l-.7-.07Zm-1.91-8.83a2.47,2.47,0,0,1,1.55,1.2,2.42,2.42,0,0,1-1,.62c-.22-.73-.43-1.34-.62-1.83Zm-2.68-.15h.5c0,.15,0,.27-.05.38l-.19.43A2.17,2.17,0,0,1,220,141.64Zm.29.86.13-.12c0,.08,0,.05,0,0a2.45,2.45,0,0,1,1.78-.61,14.35,14.35,0,0,0,.14,1.89l-.32.1A2.44,2.44,0,0,1,220.28,142.5Zm1.64,82.73-.13-.35h.26Zm-.15-75.89a2.42,2.42,0,0,1,1.24-.08,2.39,2.39,0,0,1,1.17.57,2.39,2.39,0,0,1-1.48,0A2.47,2.47,0,0,1,221.77,149.34Zm1.65,76.3a2.29,2.29,0,0,1,.55,1,2.4,2.4,0,0,1-.59,2.26L222.23,226Zm2,263.43a.19.19,0,0,0,0-.07l.07,0Zm5.68-10.73.45-.2C231.47,478.3,231.34,478.38,231.05,478.34Zm18.28-6.72a1.23,1.23,0,0,0,.77-.32C251,471.63,250.59,471.75,249.33,471.62Zm56.18-65.55c-.58-.27-1.22-5.42-1.91-.19-.7,3.38-1.46,5.86-2.26,4.51-.81,5.61-1.67-3.08-2.58,2.94-.9.46-1.86-.44-2.85,2.68-1,5.7-2-.09-3.11,3.21-1.07,2-2.18,5.32-3.32,3.44-.57-4.53-1.15-4.16-1.73-.23-.59-.53-1.18,3.37-1.78,3.86-.3,1.54-.6,5-.91,5.57s-.61-.21-.91-2.3c-.31,1.22-.62-4.06-.93-4.2-.3,1.41-.61-.18-.93,4.73-.93,0-1.88-2.2-2.84,2.57a12.5,12.5,0,0,1-.72-4.28c-.24.68-.48,2-.72,2.84-.48.23-1,1.11-1.46,4.81-.48-2.94-1,3.67-1.47,6.22-.49,1.12-1,.34-1.47-1.84-1-3.2-2,1-3,1.76-1-3.33-2,9.5-3,3.1-1-1.61-2,6.34-3,3.11-.5,2.38-1-2-1.51,5.21-.25-.7-.5-.16-.75,2.35-.25-.62-.5.12-.75-4.92-1-3.08-2,4.73-3,3.56-.6,5-1.19-.35-1.78,1.13-.59-3.73-1.18-1.9-1.76,2.53-1.09-5.94-.83-5.31-.88-4.94-.75-.21-1.18-1.19-1.37-1.8.11.56.28,1.63.5,3.49a21.35,21.35,0,0,1-.86,5.4c-.87-1.65-.65,2.21-.8,1.77,1.2,5.77.62,2.26-3.45,3.18a28.12,28.12,0,0,1-3.17,1.73c.58.08.3.47.91,2l-1-.31c1.14.59-1.12.09-2.41-.79a18.42,18.42,0,0,1-.73,3.51c2.64,1.88,2.26,2.16,1.12,2.83l-.38-.07c-.24-.51,2.61-.7-3.72-.61-.84-.39-1.79,2.74-2.35,3.55.36.19-.58.41-1.74.19-.59.91-1.39,1.95-1.85,2.68-.81-1.07-.91-1.8-.6-2.27a4.78,4.78,0,0,0,.84-.58,4.48,4.48,0,0,1,.58-.14,2.44,2.44,0,0,1-.28-.14,2,2,0,0,1,.78-.59,8.79,8.79,0,0,0-1.8-.22,2.52,2.52,0,0,1-.21-.25c-3.5-2.31-2.6-1-1.64.44l-.62.08a5.54,5.54,0,0,1,1.11.7,3.91,3.91,0,0,1,.4.79c-.42,1.12-5.66,1.13-2,2.37.76.37-1.06.75-.51,4.19,2.59,1.28-1,1-1.75,2.39a2.74,2.74,0,0,0-.94-2.2,4.43,4.43,0,0,0,.79-4.49,2.43,2.43,0,0,0,1.32-1.89,4.28,4.28,0,0,0-1.43-5.2,6.28,6.28,0,0,0-1.35-.85c1.61-.63,3.31-1.7,3-3.73-.29-1.87-2-2.46-3.73-2.64a2.37,2.37,0,0,0,1.84-1.6l.52-1.47L226,461.54a3.65,3.65,0,0,0-1.22-1.48,2.14,2.14,0,0,0-.16-.42L236,457.41l-10.24-1a4.48,4.48,0,0,0,2.26-2.95,3.5,3.5,0,0,0,0-1.21l5.32-6-6.93,3.58-.12-.11-.82-.1-.48-.06a1.71,1.71,0,0,0,0-.31,3.3,3.3,0,0,0,1.21-3.28,2.8,2.8,0,0,0-.51-1.07,3.36,3.36,0,0,0,.06-2,3.85,3.85,0,0,0,2.19-3.1,3.08,3.08,0,0,0-.9-2.29c-.16-2.09-1.65-3.11-3.22-3.71.08-.19.18-.4.26-.56a7.09,7.09,0,0,0,.88-3.11,9.16,9.16,0,0,0-.72-7.9l-.18-.26.16-.23a5.84,5.84,0,0,0,1.33-4.09,4,4,0,0,0,1.36-2.73,3.09,3.09,0,0,0,1.13-2.24,3.38,3.38,0,0,0-1.56-2.94,4,4,0,0,0,0-1.34l1-1-1.28-1.81c-.22-.31-.47-.62-.72-.93l-.17-.21a4.68,4.68,0,0,0,.61-5.06c1.52-.4,2.91-1.14,3.1-2.83.26-2.31-2-3.2-3.59-3.84l-.27-.11A4.66,4.66,0,0,0,228,390a4.1,4.1,0,0,0-.87-3.8l-.41-.54h0a3.14,3.14,0,0,0-.89-2.16l.59-.18.61-.77a4,4,0,0,0,1.07-3.88,4.78,4.78,0,0,0-3.28-2.76l.08-.25c.45-1.32,1.39-4.06-1.31-6.41l-.31-.27-.39-.15-.42-.19a8,8,0,0,0,1.25-1.72,3.42,3.42,0,0,1,.55-.77l1.84-1.82-1.88-1.78a2.69,2.69,0,0,0-.32-.27l.92-.32-2.17-2.06.22-.17a2.86,2.86,0,0,0,2-2.81,1.87,1.87,0,0,0,0-.34,2.55,2.55,0,0,0,1.85-2.43l.05-1.67-1.52-.69-.06,0c1.06-.72,2.63-1.9,2.32-3.88a3.16,3.16,0,0,0-1.16-2,2.48,2.48,0,0,0-.4-.87l-1.13-2.44a5.38,5.38,0,0,1,0-4.88l1.3-2.78-3-.72-.73-.19a5.93,5.93,0,0,0,.52-1.63.9.9,0,0,1,0-.16,3.46,3.46,0,0,1,.47-.26c2.36-.73,4.76-1.81,5-4.14.12-1-.17-2.44-2.09-3.69l0-.13a5.67,5.67,0,0,0-.53-1.62l.06-.16a.25.25,0,0,0,0-.07,1.42,1.42,0,0,1,.24-.11l2.56-1.15-1.38-2.32s0-.08,0-.12a8.12,8.12,0,0,0-5-4.44,7.31,7.31,0,0,1,.92-.31l.36-.14a4.87,4.87,0,0,0,2.9-3,4.2,4.2,0,0,0-.87-3.49,3.2,3.2,0,0,0,1.58-2.69,3,3,0,0,0-1-2.2l18.48-2-20.59-2.49a3.32,3.32,0,0,0,1.42-2.69,3.14,3.14,0,0,0-1.74-2.74,2.76,2.76,0,0,0-.23-.92l-.09-.19,1.43-.4L225,289a6,6,0,0,1,.52-1.59,7.7,7.7,0,0,0,.77-4.64l-.17-.81-.28-.24a3.71,3.71,0,0,0-.81-1.69h0l0-2.32a9.85,9.85,0,0,1,.15-1.52,10.41,10.41,0,0,0,0-3.67c1-2,1.95-4.9-1-7.57l-.37-.33-.44-.16,9.72-2.11-6-1.58a2.84,2.84,0,0,0,.07-.66,2.61,2.61,0,0,0-.2-1,2.67,2.67,0,0,0-.67-1.48l.76-.6-2.48-1.29a5.65,5.65,0,0,0,.56-1.22c2-.69,3.89-1.37,4.07-3.38a2.73,2.73,0,0,0-.61-2,4.63,4.63,0,0,0-2.05-1.84,4.34,4.34,0,0,0,.13-.73A4.62,4.62,0,0,0,225.2,243c1.86-.57,3-1.35,2.87-3.09a2.48,2.48,0,0,0-1.21-2.08,3.68,3.68,0,0,0,.13-1.11,3.73,3.73,0,0,0-.37-1.56,2.73,2.73,0,0,0,.33-1.13c.16-2.3-2.06-3-3.85-3.61l-.43-.14-.06-.49a3,3,0,0,0,2.51-2.34,2.69,2.69,0,0,0-.93-2.59l.11-.34a11.49,11.49,0,0,0,.69-4.14l-.07-1.7-1.69-.5a1.33,1.33,0,0,1,.24-1l1.61-2.65-.16-.06h0a3.73,3.73,0,0,0,2.58-2.18l.28-.75-.25-.79a1.3,1.3,0,0,1,0-.21,5.91,5.91,0,0,0-.77-2.25,3.47,3.47,0,0,0,1.53-2.9,3.14,3.14,0,0,0-1.62-2.62,3,3,0,0,0-.41-1.63l3.73-1.71-3.17-1.16a2.67,2.67,0,0,0,.2-1.69v0a3,3,0,0,0-.33-2.12,3.05,3.05,0,0,0-1.47-1.3,3.35,3.35,0,0,0,0-1.83c.49-1.75.7-3.47,0-4.8a2.28,2.28,0,0,0,1.29-1.14,1.13,1.13,0,0,0,.13-.27l5.84-2.14-6.45-2.34a1.6,1.6,0,0,1-.33-.14l-.06-.33c0-.15,0-.32-.08-.51a3.28,3.28,0,0,0,.84-3.05,3.42,3.42,0,0,0-.32-.81,6.16,6.16,0,0,0,.54-4.08l-.07-.31-.14-.28a10.56,10.56,0,0,1-.46-1,10.42,10.42,0,0,0-.6-1.28,2.94,2.94,0,0,0-.24-.8c0-.23-.1-.47-.17-.72a2.89,2.89,0,0,0,2.38-2c.63-2-1-3.19-2.42-3.81a7,7,0,0,0,.08-4.39l-.29-.82-.2-.13a14.77,14.77,0,0,1,.37-3.22,10.15,10.15,0,0,0,1-3.16,2.64,2.64,0,0,0,.48-2.15c.27.14.56.56.9,1.58-.21,1.5,1,4.83,2.21,6.18-.68-.81.43,2.64,2.45-2.49,3.22.88.56,2.89,2.69,1.87-.49,4.91,3.92-.5,2.89,3.09,1.85,2.81,0-2.54,3.08,3.7,2.35-4.13,1.95-4.61,1.6-.51,1.09,3.78.11,2.77,1.64,3.75.92-3.41-.16.36,1.67-2.36,1.3,4,.78-2.23,1.7,3.94,2-1.25,3.84-.83,1.74,4.92a3.18,3.18,0,0,1,1.7.69,2.52,2.52,0,0,0,.12,1.59,3,3,0,0,0,.62-.75,1.77,1.77,0,0,1,.15,1.77c.07.1.15.2.22.31-.31,1,.36,6.17,2.53,2.8.74.12,1.21-5.3,1.82-2.74.6,2.92,1.22-1.11,1.83,3.93,1,5.94,2.05-1.58,3.08,3.08.51.08,1-.54,1.55-2,.51,2.67,1,1.28,1.55,5.06,1-5,2.06.83,3.1,3.11,1-2.54,2.07,5.23,3.09,3.09,1.38,5.05,2.74,3.71,4.1,4.05,1.35-2.45,2.69,8.95,4,4.07.66,2.79,1.32,5,2,2.39.66,2.63,1.31,2.91,1.95.63.64-.86,1.28.36,1.91-1.05.63-2.42,1.26.92,1.88,5.74s1.23,4.37,1.83,3.39,1.2-2.48,1.79.23c.59,1.21,1.17,3.66,1.74,5.06.58,1.71,1.14,2.32,1.69-1.63.42,6.3.83,8,1.23,6.18.41,1.25.8,4,1.2-.15a34.31,34.31,0,0,0,1.16-4.73c.38,1,.75-1,1.12,3.41.37-1.18.73,2.44,1.09,6.09.56,4.91.7-2.31,1-2.93.68,1.6,1.34-4.42,2,.93,2.95,2.26.42,5.34,3.37,3.27-.76-1.69.95-4,1.38-3.61.21-1.29.41-1.69.6-.78s-1.72,3.11.56,7a9,9,0,0,0,1.21-.48,3.11,3.11,0,0,0,1.31,1.62c-.12.31-.24.64-.37,1l.56.59a3.81,3.81,0,0,0,.31,1.4,3.36,3.36,0,0,0,.29.54l.08.09-.39.84-.11.25a8.08,8.08,0,0,0-.42,2.69c0,.47.05,1,.08,1.53,0,.11,0,.23,0,.35l0,.06c0,.3,0,.61.05.95,0,.11,0,.23,0,.35a4.06,4.06,0,0,0-.9,2.3,7.6,7.6,0,0,0,.29,1.35l.42,1.3.05,0c-.11.15-.21.3-.31.46l.28.88.06,0a4.37,4.37,0,0,0-1,2.48,3.94,3.94,0,0,0-1.24,1.73,4.11,4.11,0,0,0-.18.71,6.37,6.37,0,0,0,.74,1.86h0a6.68,6.68,0,0,0,.73,3.08,2.3,2.3,0,0,0-.4.26,6.84,6.84,0,0,0,.42,1.1,2.93,2.93,0,0,0-1.22,1.2L307,261.48l.5.13-.67.18-.49.86,1.19.32-5.74,1.51,7.32,2,.21.06a4,4,0,0,0,2.23,1.9c.16.2.33.41.46.6l-.3.2-.57.35c.15.07.28.15.44.21s.32.41.45.6l-.29.2-2,1.23,1.3,1.62c.26.33.49.64.17,1.56.2.29.3.64,0,1.48a4.33,4.33,0,0,0-2.93,3.21h0a5,5,0,0,0,1.58,2.53l-.74.52a6.92,6.92,0,0,0,.77.84l-.3.2,1.61,1.5c-.06.18-.14.38-.2.54s-.11.3-.16.46l.38.36c-.05.18-.13.38-.19.54a9,9,0,0,0-.61,2.33,5.72,5.72,0,0,0,.14.67l.2.68-.24.35c0,.11,0,.22.07.33l.2.68a5.22,5.22,0,0,0-1.19,2.82,3.4,3.4,0,0,0-1.88,2.11,2.87,2.87,0,0,0-.08.38c0,.08,0,.16.05.23l-.1.1a3.2,3.2,0,0,0,.13,1.26l-.64.58.57.3a3.6,3.6,0,0,0,.07,1.37c.48,1.87,2.2,2.49,3.79,2.83a8.7,8.7,0,0,0-.69,1.19l.71.17a6.09,6.09,0,0,0-1.15,2.89c-.22.25-.48.51-.7.73-.43.45-.88.91-1.29,1.42L307,312.41l1.86,1a4.59,4.59,0,0,0,.7,1.56,5.6,5.6,0,0,0-.13,1.13l.15.23a5,5,0,0,0-.1.64,10,10,0,0,0,.6,2.27c0,.1.07.21.11.33l-.38.18c.1.32.21.62.29.85s.08.21.12.33c-1.2.53-2.6,1.3-2.89,2.92a3.06,3.06,0,0,0,1.07,1.73A8.13,8.13,0,0,0,310,327.2a7.07,7.07,0,0,0-.18,1.17l.21.19a6.8,6.8,0,0,0-.19,1.23,15.91,15.91,0,0,0,.41,2.19c.06.24.12.49.17.73-.08.06-.16.15-.24.22s.07.28.1.41.12.49.17.73a3.42,3.42,0,0,0-1.27,2.15,5.16,5.16,0,0,0,2.29,2.93l.28.21v.11l-.8.3-.08.27c.22.17.43.34.62.47l.27.21,0,.11-.8.3-.38,1.33a13.21,13.21,0,0,1-1.33,3,6.2,6.2,0,0,0-.83,2.29,4,4,0,0,0,.09.45,4.22,4.22,0,0,0,.31.82,4.18,4.18,0,0,0-.28.56,4.73,4.73,0,0,0,.3.8,5.17,5.17,0,0,0-.65,2.37,4.05,4.05,0,0,0-.81,1.87c.44,2.35,2.75,3.53,4.83,4.32l.89.33-.29.25-.77.7.19.08c.35.12.65.23.89.33l-.28.25a14.87,14.87,0,0,0-1.74,1.72l-1.43,1.75.57.32a6.41,6.41,0,0,0-.78.91l.81.45a5.07,5.07,0,0,0-1.57,2.68A4.68,4.68,0,0,0,311.9,372a6.86,6.86,0,0,0-.84,1c.32.17.63.29.87.39a4.58,4.58,0,0,0-1.54,2.59,2.3,2.3,0,0,0,.06.28c0,.52,0,1,0,1.33v0a15.13,15.13,0,0,1-.07,2.69,2.27,2.27,0,0,0-.31.39l-.65,1,.66,1,.43.57a5,5,0,0,1-.28.95l.3.41a6.14,6.14,0,0,1-.53,1.55,5.71,5.71,0,0,0-.46,1.37,3.39,3.39,0,0,0,.17.51c-.05.28-.09.58-.13.89a2.9,2.9,0,0,0,.16.47,16.94,16.94,0,0,0-.25,2.11,5.78,5.78,0,0,0,.33,1.53,8,8,0,0,0,.58,3.13,3.66,3.66,0,0,1,.3,2.24,2.56,2.56,0,0,1-.09,1.76l-.13.49c-.12.61-.25,1.1-.36,1.48h-.52a4.33,4.33,0,0,0-.58.06C306.55,399.33,307.79,402.65,305.51,406.07Zm21.79.73c-.19.39-.38.09-.57-.54l.76-.46,0-1.36a5.26,5.26,0,0,1,.56.1,2.85,2.85,0,0,0,0,.51A10.2,10.2,0,0,1,327.3,406.8Zm89.37.49a4.58,4.58,0,0,0,.46-.42l.13.38C417.06,407.85,416.87,407.75,416.67,407.29Zm65.56-2c-.5,3.15-1,4.73-1.53,3.45l.85-3.94c0-.07,0-.14,0-.21l.7.46C482.27,405.1,482.25,405.17,482.23,405.26ZM590.3,482.93a7.16,7.16,0,0,0-.8,3.16c-1.3-1.06-3.6-3-3.26-3.19-1,.23-2.79-.8-4-1.94-.85-.82,0-1.68.1-2.16l6-6a4.83,4.83,0,0,0,.26,2.34A4.12,4.12,0,0,0,590,477a8.64,8.64,0,0,1,.17.88l-1.24,1.82,1.32,1.46a2.8,2.8,0,0,0,.57.46C590.69,482,590.45,482.58,590.3,482.93ZM592,414.6a2.3,2.3,0,0,0,.07.42,4.49,4.49,0,0,0-2.4,2.91,6.38,6.38,0,0,1-.6,1.12c-.72,1.17-1.7,2.77-1.17,4.72a5.17,5.17,0,0,0,2.47,3h0a4.5,4.5,0,0,0-1.66,3.46,3.7,3.7,0,0,0,.48,1.59c-.24.37-.53.78-.82,1.17a3.68,3.68,0,0,0-2.69,3c-.2,2.28,1.93,3.34,3.65,4.19l.15.08a3.18,3.18,0,0,0,.69,1.15l-1,.43,2.07,1.81c-.09.06-.2.11-.31.17l-2.88,1.49,2.05,2.27a3.36,3.36,0,0,0-1.14,1.08,3.64,3.64,0,0,0,0,3.8,2.49,2.49,0,0,0,.14.92l-1,2.23,3.9-.34a13.74,13.74,0,0,0,.67,1.29,4.35,4.35,0,0,1-.7.06l-.65,0-.56.33a4,4,0,0,0-2.13,2.72l-13.69,1.9,15.25,2.27a2.7,2.7,0,0,0-.22.33L581,478c-2.5-1.17-1.49-2.16-1.53-3.87-.71-4.48-2.28,5.14-2.63-.84a6.57,6.57,0,0,1-.77-3.48,9.14,9.14,0,0,1-2,1.05c-2.07,2.83-4.8-2.06-2.88-3.2,3.52-.77,6-3.07,1.8-4.87-1.44-1.79-2-3.09-3.27-1.86,0,.87.09,3.81-1.5,2-.51,3,.65-4-1.52-4.95-.26-1.8-.51-2.94-.77-2.61-.26-.92-.51,3.09-.77,6.26-.13-1.05-.26-4.36-.39-1.71-.13-2.87-.26,4.25-.39-4.6-.26-2.25-.52-1.84-.78,1.1-.52,1.16-1.05-7-1.57,2.08-1.06-2.19-2.12-7.37-3.19-3.19-1.07-1.17-2.14-6.39-3.22-3.36-.54-1.68-1.09-6.26-1.63-4.54-.54-4.24-1.08-.79-1.62,1.43-.55,3-1.09.23-1.63,3.48-.55-4.37-1.09,1.9-1.63-6.74-1.09-3.74-2.17-3.27-3.25-3.25-.54-1.42-1.08-5.12-1.62-3.8-.54-1.83-1.08-.05-1.61,1-.54.81-1.07,1.92-1.61,2.17-.53-.64-1.06-2.31-1.59-5.8-.52,4.45-1,3.37-1.57,1.84-.53-2.22-1.05-5.64-1.57-5.23-1-2.87-2.06-4.55-3.07-2.82-.5-1.54-1-8.4-1.5-5.69-.5-.37-1,1.4-1.48,2.14-.25-1.61-.49-6.64-.74-6.2-.24-2-.48-2.75-.72.21-.48,6.18-1,2.16-1.43,3.67-.24,5.95-.47,6.25-.71,4.94-.23,2.07-.46.6-.7-4.59-.46-2.86-.92.39-1.37-4.62-.9,3.42-1.78.36-2.64-1.15-.86.32-1.69,5.49-2.5,1.69-.81-4.1-1.59-3.3-2.34-6.53-.43-7.19-.85-3.49-1.26-6s-.81,5.8-1.2,1.23c-.77.55-1.51,1.21-2.2.67-.34,2.25-.68,3.86-1,4-.32-4.79-.63-3.4-.93-3.54-.59.24.68-6.43-1.63-4.59-.37-1.63-1.09-4.27-1.63-4.42a.16.16,0,0,0-.17,0,4.45,4.45,0,0,0-.6-1.33,4.69,4.69,0,0,0-.46-.54l.33-.94a3.62,3.62,0,0,0-.36-.42l.6-1.72-.11,0a9.57,9.57,0,0,0,.11-1.41l-.14,0q.06-.39.09-.78a4.8,4.8,0,0,0-.54-1.72,3.66,3.66,0,0,0-2.07-1.71l-.29-.21a8.32,8.32,0,0,0,1.48-.47,3.4,3.4,0,0,0-1.22-.68l-.28-.21c2.08-.5,3.3-1.27,3.6-3a3.69,3.69,0,0,0-1.66-2.14,2.41,2.41,0,0,0,.82-.65,4.59,4.59,0,0,0-.84-.71,2.72,2.72,0,0,0,1.46-2,2.67,2.67,0,0,0-1.23-1.64l-.83-1.14c-.31-.42-.67-.82-1-1.21l-.52-.58a3.89,3.89,0,0,1,.39-.16l.31-.15.14-.07-.35-.4-.52-.58.39-.16.31-.15c.77-.42,3-1.66,3.36-4.05a4.83,4.83,0,0,0-2-3.05,2.33,2.33,0,0,0-.17-.26l.94-.39a5.45,5.45,0,0,0-.79-.71l-.18-.26.71-.29-.69-1.56a10.43,10.43,0,0,0-2.21-2.92c-.23-.24-.56-.58-.82-.88.18-.23.37-.48.55-.73-.19-.2-.39-.42-.57-.63,1.42-1.83,3.14-4.48,3.28-7.61l-.08-.92-.8-.74a3.32,3.32,0,0,1-1.21-1.77,1.51,1.51,0,0,1,.19-.77,1.49,1.49,0,0,1-.22-.59,2.61,2.61,0,0,1,.61-1.44,7.73,7.73,0,0,0,1.84-4.83c0-.52-.1-1-.15-1.43,0-.24-.07-.47-.09-.69a2.39,2.39,0,0,0,.12-.22l-.06-.45q0-.36-.09-.69a9.81,9.81,0,0,0,1.21-5.77,8.69,8.69,0,0,1,.1-1.92l.29-1.3-2-.65-.08,0a3.89,3.89,0,0,0-.65-2.42l.37-.57a3.87,3.87,0,0,0-.39-.79l.6-.93a3.54,3.54,0,0,0,.47-1.2s0-.06,0-.09a4.13,4.13,0,0,0-2.33-2.62,5.23,5.23,0,0,0,.65-.94c-.22-.15-.44-.29-.67-.42a4.23,4.23,0,0,0,1.13-2.76,3.7,3.7,0,0,0,1.32-2.34,4.69,4.69,0,0,0-1.62-2.53c.14-.13.31-.27.51-.43l.21-.16a6.07,6.07,0,0,0-.75-.77l.52-.43,1.91-1.51-1.81-1.54a3.16,3.16,0,0,1-1.25-1.72,1.7,1.7,0,0,1,.19-.8,1.33,1.33,0,0,1-.22-.56,3.37,3.37,0,0,1,.9-1.93l.3-.38.15-.47a10.21,10.21,0,0,1,.74-1.49,9.36,9.36,0,0,0,1.49-5.11,3.79,3.79,0,0,0,2.7-2.89c-.38-1.75-2.12-2.67-4-3.45l.86-.56-.27-.53c-.21-.1-.41-.19-.62-.27l.36-.24-.57-1.11a6.58,6.58,0,0,1,.29-.74l-.32-.62a8.2,8.2,0,0,1,.35-.86,9.46,9.46,0,0,0,.8-2.78,5.2,5.2,0,0,0-1.86-3.22l-.11-.09.5-.68s0-.08.08-.11c-.15-.16-.31-.32-.49-.48l-.11-.09.5-.68a3.81,3.81,0,0,0,.67-1.49,4.18,4.18,0,0,0-.51-1.23l.48-.15a4.44,4.44,0,0,0-.5-1.21l2-.62-2.41-2.31a12.35,12.35,0,0,0-1.06-.88c.25-.27.47-.52.67-.78-.23-.2-.46-.4-.7-.58a7.44,7.44,0,0,0,2.22-4.11l0-.17c0-.07,0-.15.07-.22a4.7,4.7,0,0,0-.1-1.14,10,10,0,0,0,.61-3.18,21.66,21.66,0,0,0-.87-4.18c-.1-.82-.26-1.59-.41-2.28a10.4,10.4,0,0,1-.35-2.54l.09-.05a5.47,5.47,0,0,1-.11-1.31,3.11,3.11,0,0,0,1.11-.81,3.85,3.85,0,0,0,.9-2.3,22.24,22.24,0,0,0-1-4.13c-.05-.17-.11-.35-.17-.53s.12-.48.18-.72c.38-1.54.68-2.88.85-4a2.26,2.26,0,0,0,.16-.26c1.2,1.54-.87,6.32.65,2.57,3.73.22,5.59-3.26,2.87-5.36,1.71.66,1.24-4.26.91-5.63,2,2.09,2.69-3.33,1.87,1.63,1.89.69,2.85-5.74,4.52-4.67.83-6.58,1.7-4.21,2.6-2.13.9-4.19,1.84,3.59,2.81-3.61,1-4.8,2-4.24,3-1.7,1,5.62,2.07-9.38,3.14-4.49,1.07,4.48,2.16-4.23,3.27-3.39,1.11-5.18,2.24,5.49,3.39-3.5,1.14,4,2.3-2,3.47-1.28,1.17-6.17,2.35-3.91,3.54-6,1.19-5.23,2.38-5.51,3.58-6.07.6,1.51,1.2-3.32,1.81-3.11.6-2,1.2-2.42,1.8,1.74,1.2-3.45,2.41-5.51,3.61-3.58,1.2,2.91,2.39-1.67,3.58-3.86.6,1.22,1.19,2.85,1.78,3s1.18-1.33,1.76-6.24c6.23,3.66,1.17-4.83,1.75-5.45.58-4,1.15-.68,1.73,2-.59,2.67,2.27-4.83,3.38-1.47,5.07,4.35,3,3,1.65.28,4.37-1.32,3.17-4.77,2.19-6.17a11.65,11.65,0,0,1,4.45.9,24,24,0,0,1-1.88-2c4,2.31-4.31-2.63,3-3.09a12.78,12.78,0,0,0-.6-2,1.74,1.74,0,0,0,1.85.26,10.82,10.82,0,0,0,1.9-1.8c4-1.79-3-4.12,2.26-4.18,5.13-7.79,3.82-1.14,4.52-4.54a3.37,3.37,0,0,1,.56-4.05,2.73,2.73,0,0,0,1.55,2.13c0,.25.09.51.14.78a3.73,3.73,0,0,0-.53,3.73,3.68,3.68,0,0,0,2.09,2.48,3.37,3.37,0,0,0,.78,1.42l-.4.25-.63.34-.35.62a21,21,0,0,0-1,2.14,3.32,3.32,0,0,1-.37.72L586.22,160l.6.9a2.73,2.73,0,0,0-.17,1.81c.37,1.56,1.82,2.32,3.56,2.87-2.19,1-4,2.23-4,4.32,0,1.08.53,2.59,3,3.58h0a2.57,2.57,0,0,0-.22,2.74,3.58,3.58,0,0,0-1.13,3.23c.43,2.17,2.79,2.83,3.57,3l.22.05-.5,1.38a3,3,0,0,0-1.66,2.19,2.58,2.58,0,0,0,0,.92,4.22,4.22,0,0,0-.78,1.76c-1.48.66-2.81,1.7-2.77,3.45,0,2.08,2,3.08,3.77,3.65a4.47,4.47,0,0,0,1.28,1.32l-.69.11-.53,1.32a10,10,0,0,0-.59,5.62A4.83,4.83,0,0,0,587,208c-.39,1.36.31,2.72,2.08,4.07a.34.34,0,0,1,0,.1,4.55,4.55,0,0,0,1.52,3.51l-1.25.53.44,2a9.56,9.56,0,0,0,1,2.4,8.11,8.11,0,0,1,.5,1.05,2.54,2.54,0,0,1-.4.32l-2.11,1.38,1.4,2.1a3.94,3.94,0,0,0,.36.45l-3.72,1.23,3.82,1.47-.41.19-.34,1a5.85,5.85,0,0,0,1.22,5.67l0,0-5.7,2.32,6.35,1.64a2.73,2.73,0,0,0,.06,1.16.94.94,0,0,0,0,.16,3.45,3.45,0,0,0-2.34,2.71,2.85,2.85,0,0,0,1.29,2.69l.44.3.53.1.8.15c-.35.47-.62.92-.85,1.3s-.34.58-.52.83a4.79,4.79,0,0,0-3,2,3.07,3.07,0,0,0-.42,1.57l-1.89.69,1,2.43c.06.15.1.3.15.44a5.81,5.81,0,0,0,2,3.17,4.11,4.11,0,0,0,0,.95,4.22,4.22,0,0,0,.24.86,3.67,3.67,0,0,0-1,1.56,3.41,3.41,0,0,0,0,2.13,3,3,0,0,0-.37.72,3.44,3.44,0,0,0,.19,2.7c-.78,1.45-.36,3.12,1.26,5,.12.15.28.33.39.48a1.12,1.12,0,0,1,.06.23,1.79,1.79,0,0,1-.32.23l-1.61,1,.5,1.81a4.22,4.22,0,0,0,.84,1.57,3.34,3.34,0,0,0-1.59,2.47c-.19,1.78,1,2.92,2.38,3.79a3.4,3.4,0,0,0-.7,2,3.1,3.1,0,0,0,.64,1.89l-.3.33c-.92,1-2.32,2.54-1.89,4.59a4.28,4.28,0,0,0,1.91,2.66,5.09,5.09,0,0,0,.21.56l-1.82,1.2,2.1,2.17.15.16-2.75,1.92,3.14,2a2.46,2.46,0,0,1,.57.45,7.81,7.81,0,0,1-.57,1.26,10.63,10.63,0,0,0-1,2.43l-.23.17c-1,.73-2.65,1.95-2.26,4a3.73,3.73,0,0,0,2.33,2.61,3.29,3.29,0,0,0-2.43,2.63,2.9,2.9,0,0,0,1.33,2.79,3.24,3.24,0,0,0-.69,1.59,3.56,3.56,0,0,0,1.07,3,4.54,4.54,0,0,0-.83,2.43,3,3,0,0,0-.35,1.15,3.13,3.13,0,0,0,1,2.53l-3.06,2,4.3.86a2.87,2.87,0,0,0-.19,1.24,3.51,3.51,0,0,0,.12.62,4.14,4.14,0,0,0,.5,5.24l.33.34.15.06a3.69,3.69,0,0,0,.34,2.48l-.08.09a9.38,9.38,0,0,0-1.1,1.38l-.79,1.3.37.62a4.93,4.93,0,0,0-.55,2.07,2.85,2.85,0,0,0,.13,3.76,6.78,6.78,0,0,0-1,3.49,3.29,3.29,0,0,0-.67,1.72,3.59,3.59,0,0,0,.85,2.58,3.51,3.51,0,0,0-.34.67,3.22,3.22,0,0,0,.07,2.33,3.65,3.65,0,0,0-1.44,3.37c.3,1.85,2,2.78,3.56,3.3,0,.12-.06.24-.08.34l0,.18-.11.13a4.81,4.81,0,0,0-1.46,3.5,3.82,3.82,0,0,0-1.38,2,4.37,4.37,0,0,0,1.43,4.1,2.89,2.89,0,0,0-.12,1,3.27,3.27,0,0,0,.25,6.2l.07.15a7.53,7.53,0,0,0-1.08.73,2.25,2.25,0,0,1-.49.32l-3.74,1.66,2.44,2c0,.09,0,.19.06.29a3.12,3.12,0,0,0-.35.68,3,3,0,0,0,.24,2.64c.61,1,1.72,1.71,3.83,2.34a9.31,9.31,0,0,0,.51,2.43,5.88,5.88,0,0,1,.29,1.07.57.57,0,0,1-.1.12L588.17,405l2.57,1.53a5,5,0,0,0,.12,1,3.4,3.4,0,0,0-.64,2.17,4.14,4.14,0,0,0,2.16,3.18A2.69,2.69,0,0,0,592,414.6Z"/>
</svg>
