<svg id="Calque_1" data-name="Calque 1" xmlns="http://www.w3.org/2000/svg" width="29.7cm" height="21cm" viewBox="0 0 841.89 595.28">
  <defs>
    <style>
      .cls-1 {
        fill: #5f5e5e;
      }
    </style>
  </defs>
  <title>Plan de travail 3</title>
  <g>
    <path class="cls-1" d="M202.61,317.92l-.13.07,0,0C202.6,317.94,202.61,317.93,202.61,317.92Z"/>
    <path class="cls-1" d="M216.14,306.93a.73.73,0,0,0,0,.12C216.19,306.9,216.17,306.83,216.14,306.93Z"/>
    <path class="cls-1" d="M470.47,133.84l.35-.07-.47-.24Z"/>
    <path class="cls-1" d="M472.25,129.45a9.24,9.24,0,0,0,1.26-.8l-5.6,0c.24.62.46,1.19.66,1.73l.12.16c.47-.06.87-.13,1.12-.19A9.92,9.92,0,0,0,472.25,129.45Z"/>
    <path class="cls-1" d="M668.51,343.23a3.48,3.48,0,0,1-.16,1.1c0,.05-.07,0-.12-.1a2,2,0,0,1-.13-.25l-.23-.52c-.28-.7-.55-1.42-.86-2.13a10.38,10.38,0,0,0-1.16-2,3.9,3.9,0,0,0-.88-.89,2.29,2.29,0,0,0-1-.42,23.8,23.8,0,0,1-2.61-6.56,14.85,14.85,0,0,1-.29-1.75l-.09-1,0-.08,0-.17a.51.51,0,0,0,0-.11,1,1,0,0,0-.36-.42.86.86,0,0,0-.57-.16,1,1,0,0,0-.66.3,1.89,1.89,0,0,0-.3.44,2.61,2.61,0,0,0-.37-.19,2.72,2.72,0,0,0-.38-.1l-.5-.08c-.28,0-.49-.07-.71-.11a5.54,5.54,0,0,1-1.21-.4,10.29,10.29,0,0,1-3.12-2.44l.58-.55c.29-.25.57-.49.87-.73l.13-.11.09-.08.11-.11,0,0,0,0,.08-.1a2.12,2.12,0,0,0,.29-.56c0-.1.05-.2.07-.3a1.71,1.71,0,0,0-.14-1,1.91,1.91,0,0,0-1.7-1.13c-.48,0-.18,0-.31,0l-.17,0-.24.07-.11.05-.1,0-.12,0-.42.14a4.77,4.77,0,0,1-3.3-.32,8.59,8.59,0,0,1-2.88-2.43,19.48,19.48,0,0,1-2.25-3.61l-.19-.37-.48-.4a16.6,16.6,0,0,0-2.61-1.84l-.54-.28-.19-1.38-2-15L634.6,303l0-.34c-.08-1-.2-2.05-.37-3.13a18.93,18.93,0,0,0-.89-3.57,9.69,9.69,0,0,0-.85-1.79,7.41,7.41,0,0,0,.34-1.2l0-.22,0-.36a4.57,4.57,0,0,0,0-.74,5.83,5.83,0,0,0-.26-1.46,5.92,5.92,0,0,0-1-1.84,5.65,5.65,0,0,0-1.44-1.3,6.43,6.43,0,0,0-1.72-.75,5.79,5.79,0,0,0-1.19-.16h-.6a3.92,3.92,0,0,0-.51.05c-.23,0-.46.08-.69.14a5.7,5.7,0,0,0-1.12.42,7.07,7.07,0,0,0-.76.43,6.29,6.29,0,0,0-.58.42l-.29,0a23.6,23.6,0,0,1-3.48-.64l-.22-.06q-.13-.63-.21-1.23c0-.55-.06-1.1-.11-1.67s-.14-.83-.22-1.25l-.12-.62c-.06-.22-.15-.48-.22-.73-.18-.5-.32-.95-.56-1.49a18,18,0,0,0-.94-1.65,12.74,12.74,0,0,0-1.4-1.65,13,13,0,0,0-1.75-1.38,14.28,14.28,0,0,0-1.79-.9l-.81-.28-.4-.13-.33-.09c-.33-.08-.69-.17-1-.22l-.35-6.64-2.57,1.92c-.35-.57-.72-1.16-1.17-1.77l-3.59-4.91-.95.28c-.09-.32-.2-.64-.31-.93a9.46,9.46,0,0,0-.47-1l-.09-.58c-.14-.74-.29-1.49-.5-2.32a23,23,0,0,0-.88-2.86l-.37-.91c-.18-.37-.37-.75-.57-1.12a15.52,15.52,0,0,0-.9-1.4c-.24-.31-.49-.62-.75-.92l-.41-.43c-.18-.18-.4-.38-.6-.56l-.65-.53a8.23,8.23,0,0,0-.77-.53,12.26,12.26,0,0,0-2-1,12.41,12.41,0,0,0-2.47-.62,12.1,12.1,0,0,0-2.48,0c-.28,0-.56.07-.83.12-.3-.79-.62-1.6-1-2.48a24.46,24.46,0,0,0-2.07-3.74c-.26-.37-.47-.69-.83-1.12a13.57,13.57,0,0,0-1.08-1.23l-.67-.65a10.37,10.37,0,0,0-.84-.7,11.86,11.86,0,0,0-1.46-1c-.06-.21-.11-.44-.18-.71s-.15-.5-.27-.86-.11-.35-.24-.66l-.17-.41c-.09-.2-.19-.42-.3-.63l-.19-.36c-.1-.18-.21-.36-.32-.53l-.36-.52a11.09,11.09,0,0,0-.77-.94c-.15-.16-.29-.31-.45-.45l-.23-.22-.34-.29a10.09,10.09,0,0,0-2.33-1.44,7.14,7.14,0,0,0-1.07-.4l-.13-2.84c-.11-2-.21-3.91-.45-6.21-.06-.61-.12-1.19-.28-2.11,0-.21-.1-.53-.17-.84l-.17-.65-.14-.46-.2-.58-.06-.16-.13-.29c-.08-.2-.18-.4-.27-.59s-.2-.38-.31-.56a10.2,10.2,0,0,0-1-1.37c-.18-.23-.38-.44-.58-.65l-.31-.3a7.39,7.39,0,0,0-.61-.52,10.29,10.29,0,0,0-4.39-2,9.5,9.5,0,0,0-1.27-.16c-.24,0-.5,0-.75,0-.06-.36-.12-.72-.21-1.17a15.44,15.44,0,0,0-.5-2l-.16-.47c-.07-.19-.1-.29-.24-.61l-.19-.41c-.08-.16-.09-.21-.26-.51s-.28-.48-.43-.72l-.24-.35c-.11-.16-.34-.46-.52-.67a10.74,10.74,0,0,0-1.31-1.3,10.33,10.33,0,0,0-3.55-1.9,12.21,12.21,0,0,0-1.28-.29,10.59,10.59,0,0,0-1.5-.12,10,10,0,0,0-6.47,2.25l-.36.31-.19.17-.31.3c-.2.21-.4.42-.58.64l-.24.32-.49-2.3-.69-3.1c-.26-1.08-.52-2.17-.91-3.46-.11-.34-.19-.64-.33-1l-.19-.56-.26-.66-.13-.33-.19-.42-.2-.43c-.06-.13-.12-.27-.25-.5l-.35-.61-.18-.3-.1-.15-.17-.25c-.24-.33-.49-.66-.75-1-.14-.16-.25-.29-.43-.47a10.3,10.3,0,0,0-.91-.83,12.3,12.3,0,0,0-1-.74c-.17-.11-.34-.22-.52-.32s-.12-.08-.32-.18l-.51-.24a10.75,10.75,0,0,0-4.51-1,11.55,11.55,0,0,0-1.16.09c-.3-.21-.59-.41-1-.64s-1-.54-1.58-.78a14.59,14.59,0,0,0-1.94-.62,14.05,14.05,0,0,0-2.05-.29l-.33-.38c-.18-.19-.42-.42-.64-.62a11.2,11.2,0,0,0-1.47-1.19,11.79,11.79,0,0,0-1.69-1,15.31,15.31,0,0,0-1.62-.69l-.65-.21-.56-.16-.47-.12h0l.19.06a6.76,6.76,0,0,1,.67.28,6.38,6.38,0,0,1,.84.5,4.57,4.57,0,0,1,.72.58,3.44,3.44,0,0,1,.92,1.12l-4.74-1.66c-.11-.72-.2-1.45-.3-2.19l-10-79.37-6.56,52.93-.09-.1-.46-.5c-.16-.17-.45-.43-.68-.63s-.5-.41-.76-.6l-.2-.14-.27-.18c-.18-.11-.37-.23-.56-.33a11.7,11.7,0,0,0-1.18-.58,12,12,0,0,0-1.5-.49,10.49,10.49,0,0,0-2.64-.31l-.08-.15-.17-.33-.28-.47-.3-.46-.17-.24-.26-.35q-.27-.35-.57-.66l-.31-.33-.52-.48a10.54,10.54,0,0,0-1.14-.85,7.54,7.54,0,0,0-.81-.48c-.25-.14-.52-.25-.78-.37,0-.64-.05-1.29-.07-1.93l-3.7-.1v-.3a9.54,9.54,0,0,0,1.21-2,5.36,5.36,0,0,0,.22-.51l.07-.18.13-.38c.09-.25.16-.5.23-.76l.07-.32.08.11c.15.24.28.48.41.72a6.33,6.33,0,0,1,.29.62,5.25,5.25,0,0,1,.22.55,6.43,6.43,0,0,1,.23.69c.16.6.16.71.19.84l0,.25-.06-.72-.13-2.17-.24-4.69-.13-2.46-.09-1.35-.08-.82-.06-.57-.07-.43c0-.19-.06-.4-.16-.84l-.1-.4c-.07-.25-.15-.49-.23-.74s-.21-.53-.32-.79l-.19-.4s-.26-.49-.46-.81l-.06-.25c-.07-.31-.16-.63-.26-.93a10.72,10.72,0,0,0-.8-1.78l-.26-.43a7.05,7.05,0,0,0-.42-.61,9.93,9.93,0,0,0-2.87-2.6,10.07,10.07,0,0,0-4.12-1.38,9.87,9.87,0,0,0-3.33.2,10,10,0,0,0-2.45.93,9.49,9.49,0,0,0-1.92,1.35l-.15-.2c-.18-.2-.37-.38-.55-.56l-.15-.14-.3-.26c-.22-.18-.45-.36-.7-.53a10.85,10.85,0,0,0-3.21-1.52,10.72,10.72,0,0,0-4.7-.17l-.32.07c-.23-.15-.44-.31-.67-.45l-.68-.35a7.64,7.64,0,0,0-.79-.34,9.88,9.88,0,0,0-1.66-.45c-.35-2.72-.74-5.47-1.26-8.35a49.09,49.09,0,0,0-1.53-6.49,18.12,18.12,0,0,0-1.2-2.84l-.29-.51-.17-.28-.28-.42c-.2-.28-.4-.55-.62-.82l-.32-.39c-.16-.17-.45-.46-.68-.68A13,13,0,0,0,439,86.24l-.22-.13-.1-.07-.2-.11c-.27-.15-.56-.28-.85-.41a11.23,11.23,0,0,0-1.83-.61,10.06,10.06,0,0,0-1.86-.27,9.17,9.17,0,0,0-1.28,0l-.12-6.23-.09-3,0-.84c0-.33,0-.57-.09-1.27L432.3,73l0-.28c0-.25-.09-.49-.15-.74s0,.06-.18-.66a10.32,10.32,0,0,0-1.18-2.49c3.1,3-4.67-9.08-15.64-1.42a9.42,9.42,0,0,0-1.85,2.74,10,10,0,0,0-.58,1.61l-.09.39c-.06.24-.12.61-.12.62l-.08.5,0,.29,0,.39-.07,1c-.1,2.16-.14,4-.19,5.89L412,85.12a10.65,10.65,0,0,0-3,.36c-.25.08-.51.16-.77.26a10.29,10.29,0,0,0-2.95,1.7,10.73,10.73,0,0,0-1.18,1.15l-.26.32-.13.17c-.17.22-.34.45-.49.69L393.1,22.6l-3.52,65-7.64-38.62-3.86,43.64L368,131a8.22,8.22,0,0,0-1.59.11c-.33,0-.65.13-1,.21a9.84,9.84,0,0,0-2.69-.45,9.72,9.72,0,0,0-1.72.09,9.15,9.15,0,0,0-1.29.27,10.18,10.18,0,0,0-2.43,1c-.19.11-.35.23-.52.35l-.05,0c-.24-.11-.52-.23-.79-.33a10.24,10.24,0,0,0-3.74-.61,11.13,11.13,0,0,0-1.87.22c-.29.07-.58.14-.85.22l-.55.2a9.82,9.82,0,0,0-1.94,1,10.45,10.45,0,0,0-1.7,1.38,7.61,7.61,0,0,0-.77.88,10.72,10.72,0,0,0-.77,1.13c-.11.19-.22.39-.32.59l-.15.32-.21.47a10.7,10.7,0,0,0-.43,1.29l-.1.39-.07.29-.1.49c-.19,1.07-.23,1.63-.3,2.25,0,.16,0,.3,0,.45s-.16.29-.23.44a6.83,6.83,0,0,0-.38.92c-.08.2-.16.47-.21.62s-.13.46-.17.68l-.05.21c-.13.05-.26.07-.39.12a10.45,10.45,0,0,0-2.56,1.41c-.33.25-.85.72-.87.75l-.37.37a10.81,10.81,0,0,0-1.28,1.68l-.18.3-.1.18-.18.36c-.12.24-.23.49-.33.73l-.16.42c-.08.23-.17.5-.23.71l-.11.43c-.09.32-.11.47-.16.67-.14.72-.2,1.17-.25,1.59l-.13,1.15c-.13,1.41-.21,2.62-.28,3.85-.16,2.85-.27,5.63-.36,8.38-.29.05-.57.11-.85.18a9.49,9.49,0,0,0-1.85.66,9.72,9.72,0,0,0-2.27,1.46c-.27.23-.53.48-.77.73l-.36.39-.16.2a10.1,10.1,0,0,0-.62.84l-.27.44-.16.27a10.61,10.61,0,0,0-.47,1l-.24.59-.16.47c-.08.27-.16.54-.2.7l-.13.51c-.14.62-.2,1-.27,1.41,0,.13,0,.24-.05.37a11.66,11.66,0,0,0-1.22.41A10.18,10.18,0,0,0,320.8,181a8.84,8.84,0,0,0-.88.74,10.35,10.35,0,0,0-.79.84c-.12.14-.25.31-.35.44l-.15.2c-.19.27-.37.55-.53.83l-.22.39-.11.22-.2.45-.15.35-.1.27-.15.44-.1.34-.07.24h0a12.67,12.67,0,0,0-1,1.08c-.2.25-.24.32-.35.46l-.27.4a14.53,14.53,0,0,0-.77,1.3l-.25.49,0,.09c-.29.07-.59.13-.88.22a10,10,0,0,0-1.24.5,10.21,10.21,0,0,0-1,.53,10.9,10.9,0,0,0-1.58,1.18c-.25.23-.47.49-.7.74-.28.06-.57.12-.86.21a10.13,10.13,0,0,0-5.35,4l-.2.31-.16.05a10.41,10.41,0,0,0-1.88,1.07,10.82,10.82,0,0,0-1.63,1.45l-.35.4-.15.19-.22.29c-.11.16-.21.34-.31.51l-.31.11L295,158.12l-13.27,63.5a12.49,12.49,0,0,0-3.28,1.43l-.28.19h-.23a10.26,10.26,0,0,0-1.69.22,10.73,10.73,0,0,0-1.44.42,10.47,10.47,0,0,0-1.36.62l-.3.17-.15.08a10.49,10.49,0,0,0-4,.2,10.66,10.66,0,0,0-3,1.27,11.33,11.33,0,0,0-1.55,1.21,10.53,10.53,0,0,0-2.11,2.76,14,14,0,0,0-1,2.3,26.3,26.3,0,0,0-.69,2.55c-.32,1.42-.53,2.65-.73,3.86l-.23,1.42-.11,0a8.8,8.8,0,0,0-1.3-.26,8.47,8.47,0,0,0-2.71.08l-.63.14-.3.09-.2.07c-.26.09-.52.19-.78.31a9.66,9.66,0,0,0-1.49.87,7.18,7.18,0,0,0-.67.54l-.31.28-.23.24c-.15.16-.29.32-.43.49a9.71,9.71,0,0,0-.74,1.07l-.17.28-.08.15-.12.25-.24.52-.1.24a7.42,7.42,0,0,0-1.36.6,7,7,0,0,0-1.3.94l-.27.25-.09.09-.18.2a7.81,7.81,0,0,0-.65.84c-.1.15-.2.3-.28.45l-.1.18a7.76,7.76,0,0,0-.37.77l-.16.43-.12.36a11.6,11.6,0,0,0-.35,1.56c-.13.77-.2,1.37-.27,2-.13,1.18-.22,2.28-.32,3.35L243,260.7l-.14,1.24c0,.1-.06.28.06-.06l.06-.17c.06-.14.12-.29.19-.43l.17-.31a5.72,5.72,0,0,1,.37-.58l.21-.28.12-.13a3.71,3.71,0,0,1,.35-.38c.1-.11.23-.2.34-.3a2.72,2.72,0,0,1,0,.28c0,.83,0,1.67,0,2.52h-2.31c-.41,1.5-.8,2.95-1.2,4.25-.14.46-.29.91-.42,1.29a2.71,2.71,0,0,0-.34.26c-.17.14-.35.28-.51.43l-.36.37a11.68,11.68,0,0,0-1.64,2.21c-.69,1.17-1.09,2.07-1.48,2.88l-.51,1.06-.32.62s0,0,.14-.12l.35-.3a3,3,0,0,1,.37-.25l.22-.12a3.47,3.47,0,0,1,.33-.18l.35-.14.42-.13a4.27,4.27,0,0,1,1.07-.17,5.34,5.34,0,0,1,2.28.36,4.65,4.65,0,0,1,1.39.85,3,3,0,0,1,.56.6l-10.57,2.43c-.05.25-.1.5-.14.74l-.46,0a6,6,0,0,0-1.88.57,7.72,7.72,0,0,0-.78.46l-.34.28a6.25,6.25,0,0,0-.64.62,5.61,5.61,0,0,0-.46.57c-.15.22-.29.45-.42.68l-.18.34-.09.21-.18.44a6.69,6.69,0,0,0-.26.73c-.06.2-.15.49-.17.59l-.22.79c-.14.54-.29,1.06-.44,1.56a6.36,6.36,0,0,0-1.09.17,8.21,8.21,0,0,0-.78.29,5.44,5.44,0,0,0-.66.35,6,6,0,0,0-.52.36l-.24.19-.16.15a8.56,8.56,0,0,0-.6.62l-.37.5a9.82,9.82,0,0,0-.52.85l-2,3.46a6.27,6.27,0,0,0-.77-.61c-.12-.08-.24-.16-.37-.23a5.14,5.14,0,0,0-.58-.27,5.35,5.35,0,0,0-.64-.21,5.18,5.18,0,0,0-.87-.11,4.41,4.41,0,0,0-1.77.28,5,5,0,0,0-1.25.72,3.6,3.6,0,0,0-.38.35l-.31.33a3.59,3.59,0,0,0-.41.57,4.41,4.41,0,0,0-.3.5l-.18.38a6.84,6.84,0,0,0-.27.7c-.08.21-.15.44-.2.61a28.94,28.94,0,0,0-.74,4c-.13,1-.22,2-.31,3.05a5.51,5.51,0,0,0-.22.58,9.5,9.5,0,0,0-.34,1.28c-.15.75-.22,1.4-.29,2l0,0a7,7,0,0,0-1-.73,6.71,6.71,0,0,0-.77-.35,4.81,4.81,0,0,0-1-.22,3.76,3.76,0,0,0-1.15.05,3.58,3.58,0,0,0-1,.36,3.63,3.63,0,0,0-.45.25l-.32.25a3.72,3.72,0,0,0-.57.52,7.1,7.1,0,0,0-1.12,1.76,17.86,17.86,0,0,0-1,2.88c-.07.3-.13.59-.19.89l-.16.09a7.15,7.15,0,0,0-1.37,1.14,20.58,20.58,0,0,0-1.71,2.11,39.92,39.92,0,0,0-2.63,4.3c-.39.73-.76,1.48-1.11,2.28-.21.5-.41,1-.6,1.53l-.92-.33a35,35,0,0,1-2.43,5.42A7.67,7.67,0,0,1,187.6,332a1.1,1.1,0,0,1-1.59,0l-1.16-.81-.36,1.19c-.21.72-.43,1.42-.69,2.11a13.4,13.4,0,0,1-.91,1.95,3.85,3.85,0,0,1-1.27,1.42,2.28,2.28,0,0,1-1.72.06,10.5,10.5,0,0,0-2.25-1.57,1.74,1.74,0,0,0-1.66,0,2.25,2.25,0,0,0-.85,1.32,12.28,12.28,0,0,0-.35,2.81c0,.93,0,1.86,0,2.79,0-.93.11-1.86.22-2.77a11.55,11.55,0,0,1,.58-2.66,1.75,1.75,0,0,1,.68-.93,1.07,1.07,0,0,1,1,.17,10.74,10.74,0,0,1,2,1.73l.06.07.14.05a3.48,3.48,0,0,0,2.65.1,5,5,0,0,0,2-1.75,13.86,13.86,0,0,0,1.22-2.09c.17-.36.31-.72.46-1.08a2.92,2.92,0,0,0,.9.25,3.32,3.32,0,0,0,2.1-.58,9.26,9.26,0,0,0,2.45-2.52,24.93,24.93,0,0,0,1.45-2.33,2.43,2.43,0,0,0,.7.17h.31a2.28,2.28,0,0,0,.83.15,2.9,2.9,0,0,0,.58-.08,3.34,3.34,0,0,0,1.08-.49,5.91,5.91,0,0,0,.64-.46c.4-.32.75-.64,1.09-1l.09-.06.48-.41.3-.31a3.47,3.47,0,0,0,.22-.32,2.54,2.54,0,0,0,.22-.52l0-.14a1.79,1.79,0,0,0,0-.53,1.88,1.88,0,0,0-.5-1.07l-.64-.66a34.25,34.25,0,0,1,2.61-3.53,14,14,0,0,1,1.39-1.45l.35-.27-.11,0-.11,0-.19,0h-.2a1.43,1.43,0,0,1-.29,0,2.27,2.27,0,0,1-.63-.2,1.83,1.83,0,0,1-.53-.38,1.68,1.68,0,0,1-.3-.37l4.79-.8c.21-.77.43-1.53.68-2.25,0-.13.09-.25.13-.37l.35.54a10.48,10.48,0,0,0,.71.93,6.11,6.11,0,0,0,.45.51,6,6,0,0,0,.61.56l.4.29a5.92,5.92,0,0,0,.61.33c.12.05.18.09.34.15a4.07,4.07,0,0,0,.5.13,4,4,0,0,0,.5.09,4.55,4.55,0,0,0,.64,0,3.54,3.54,0,0,0,1.25-.31,5.28,5.28,0,0,0,.58-.3,4.64,4.64,0,0,0,.4-.31,4.37,4.37,0,0,0,1-1.19,7.63,7.63,0,0,0,.66-1.54c.13-.43.22-.8.3-1.15.3-1.39.45-2.57.65-3.65a14.2,14.2,0,0,1,.31-1.42,2.14,2.14,0,0,1,.11-.31l-.05.07.72-1.77c.13-.76.26-1.5.39-2.24.19.06.38.12.57.16a4.91,4.91,0,0,0,1.59,0l1.38.32c.83.19,1.68.36,2.56.5a25.43,25.43,0,0,0,2.79.33,12.13,12.13,0,0,0,3.65-.23,4.68,4.68,0,0,0,.67-.19,5.81,5.81,0,0,0,.74-.29c.29-.15.57-.3.85-.47a7.74,7.74,0,0,0,1-.82,6.42,6.42,0,0,0,.89-1.21,5.21,5.21,0,0,0,.54-1.44,4.86,4.86,0,0,0,.16-1.34,5.76,5.76,0,0,0-.1-1.13,8.7,8.7,0,0,0-.22-.88,5.6,5.6,0,0,0-.25-.68l-.27-.6-.14-.26c.07-.09.15-.19.21-.28s.27-.41.38-.6a5.72,5.72,0,0,0,2.06,0,7.06,7.06,0,0,0,1.27-.36l.59-.26.34-.2a8,8,0,0,0,1.18-.9c.27-.27.39-.42.58-.64a7.54,7.54,0,0,0,.46-.6c.19-.28.36-.57.53-.86s.23-.44.35-.67c.24-.48.35-.79.52-1.18.51-1.25.86-2.34,1.2-3.41a6.42,6.42,0,0,0,.53-.38,9.82,9.82,0,0,0,.86-.76,11.19,11.19,0,0,0,1-1.18,20.07,20.07,0,0,0,1.14-1.72l.8-1.36c.41-.73.79-1.38,1.07-1.8l.91-.16c.3-.26.59-.54.86-.82s.38-.44.56-.67.27-.37.41-.57.25-.37.33-.51c.18-.3.36-.61.49-.87s.27-.52.39-.77c.47-1,.81-1.82,1.14-2.64s.56-1.47.81-2.18l.23-.31a5.74,5.74,0,0,0,.43-.66l.14-.25,0-.1.31,12.22c-.26.51-.53,1-.8,1.58a43.62,43.62,0,0,0-2,4.75c-.08.23-.17.51-.26.81s-.17.53-.27.95a12.76,12.76,0,0,0-.42,2.93v.56c0,.21,0,.3,0,.62a12.38,12.38,0,0,0,.25,1.6,11.13,11.13,0,0,0,.76,2.1,9.86,9.86,0,0,0,.74,1.24c.18.86.38,1.55.57,2.22s.42,1.29.64,1.9l-.06.24-.05.22-.08.43q-.06.44-.09.87a7.87,7.87,0,0,0,0,.83l0,.5c0,.33.08.67.15,1s.2.84.3,1.15.2.55.29.78.12.27.18.4l0,.06a14.15,14.15,0,0,0-1.05,7,15.38,15.38,0,0,0,.7,3.27,13.71,13.71,0,0,0,1.38,2.91c0,.47,0,1,0,1.52,0,.29,0,.59,0,1s0,.77.15,1.46a9.18,9.18,0,0,0,.42,1.65c0,.11.13.35.24.59a9.86,9.86,0,0,0-.94.61,9.74,9.74,0,0,0-1.09.89,10.09,10.09,0,0,0-1.09,1.15,10.53,10.53,0,0,0-1,1.47,10.93,10.93,0,0,0-.77,1.75,10,10,0,0,0-.47,3.69,10.91,10.91,0,0,0,.64,3,13.29,13.29,0,0,0,2.36,4,16,16,0,0,0,3,2.73,13.38,13.38,0,0,0,2,1.18c.21.1.38.18.63.28s.51.2.78.28a7.46,7.46,0,0,0,1,.26l.55.1.59.05c-.41.26-.88.53-1.36.79l-14.43,7.71,15.43,3.8.64.16-.23.18a21.89,21.89,0,0,0-2.82,2.43l.29-.28c-.27.26-.53.53-.79.8s-.53.68-.78,1a9.78,9.78,0,0,0-.69,1.33,7.76,7.76,0,0,0-.47,1.53,8.26,8.26,0,0,0,0,3,10.07,10.07,0,0,0,.57,2,.25.25,0,0,0,0,.09c-.52.21-1.1.4-1.69.59l-4.82,1.5,1.11,4.59c.21.89.42,2,.78,3.31a17.29,17.29,0,0,0,1.69,4.14,15.76,15.76,0,0,0,1.78,2.46l-1.46.76c-1,.5-1.95,1-3.09,1.74a12.82,12.82,0,0,0-1.92,1.48,8,8,0,0,0-1.25,1.54,6.09,6.09,0,0,0-.62,1.39,5.52,5.52,0,0,0,1.12,5.25A6.92,6.92,0,0,0,252,402.7a12,12,0,0,0,2.22,1.11,35.19,35.19,0,0,0,6.38,1.6c.42.17.83.34,1.22.52a11.9,11.9,0,0,1,1.35.73,5.46,5.46,0,0,1,.88.64c.09.1.14.15.16.15a.92.92,0,0,1-.1.27l-.1.25-.17.31a34.58,34.58,0,0,1-2.14,3.07l-.36.5-.14.36a5.44,5.44,0,0,0-.37,2.33,5.61,5.61,0,0,0,.06.59c0,.17.08.33.13.49a5.89,5.89,0,0,0,.33.91c.12.23.25.47.39.7s.26.35.39.53a8,8,0,0,0,.75.83,16.66,16.66,0,0,0,2.55,2l2.12,1.36-.18.06c-.7.25-1.44.46-2.19.68l-1.61.46-.63,4.19a.1.1,0,0,0,.05.09s0,.06,0,.1a1.61,1.61,0,0,0,0,.22c0,.12,0,.22-.06.37a15.23,15.23,0,0,1-1,2.44,12.91,12.91,0,0,0-1.22,4,10.59,10.59,0,0,0,0,1.38,8.67,8.67,0,0,0,.31,1.43,9,9,0,0,0,.58,1.3c.24.37.5.73.76,1.08l.13.18.52.41.39.29a1.56,1.56,0,0,1,.19.13.43.43,0,0,0,.09.1c.07.06.16.13.13.13s.06,0,0,0v0s0,.08,0,.16a3.81,3.81,0,0,1-.39.88c-.42.77-1.08,1.66-1.75,2.85a10.16,10.16,0,0,0-.49,1,6.95,6.95,0,0,0-.59,2.74,7.54,7.54,0,0,0,.3,1.66l.4,1.54,1.72.24c2.07.27,4.13.58,6.11,1,1,.2,1.95.45,2.84.72.25.08.49.17.71.26-.59.4-1.31.81-2,1.22l-2.83,1.55a14.83,14.83,0,0,0-3.09,2.16l.27-.22c-.22.17-.43.35-.64.53a4.69,4.69,0,0,0-.65.83,3.23,3.23,0,0,0-.31,2.63,3.74,3.74,0,0,0,.47.94,4.12,4.12,0,0,0,.53.65,7.2,7.2,0,0,0,1,.89c1.28,1,2.49,1.62,3.5,2.34a5.17,5.17,0,0,1,.72.57,8.54,8.54,0,0,1-1.13.55c-.57.22-1.19.42-1.81.61l-.15,0,0,0a11.52,11.52,0,0,0-3.1,1.79,4.29,4.29,0,0,0-1.35,1.9,3.66,3.66,0,0,0,.06,2.48,20.86,20.86,0,0,0,1.61,2.87,1.77,1.77,0,0,1,.28.78c0,.12,0,.26-.24.5l-.17.2-.07.15a46.59,46.59,0,0,0-1.82,4.34,20.49,20.49,0,0,0-1.15,4.72,11.38,11.38,0,0,0,.51,5,11.68,11.68,0,0,0,2.68,4.17l.11.11.11,0c1.16.61,2.33,1.44,2.47,2.39a2.33,2.33,0,0,1-.42,1.57,11.29,11.29,0,0,1-1.24,1.6l-1.46,1.59a6.86,6.86,0,0,0-1.3,1.94,2.14,2.14,0,0,0,.54,2.49,6.31,6.31,0,0,0,1.9,1.16,29.84,29.84,0,0,1,2.69,2.93,12,12,0,0,1,2,3.44,3.09,3.09,0,0,1-.65,3.6,6.3,6.3,0,0,1-3.83,1.12,6.38,6.38,0,0,0,4-1,2.75,2.75,0,0,0,1.09-1.78,4.77,4.77,0,0,0,.05-1.07c-.08-.34-.11-.7-.22-1a12.3,12.3,0,0,0-1.94-3.69,30.11,30.11,0,0,0-2.64-3.2l0,0-.09,0a5.7,5.7,0,0,1-1.64-1.08,1.19,1.19,0,0,1-.24-1.45,6.07,6.07,0,0,1,1.18-1.55l1.52-1.5a11.92,11.92,0,0,0,1.48-1.73,3.41,3.41,0,0,0-.5-4.79A8.75,8.75,0,0,0,265,496.9a9.61,9.61,0,0,1-2-3.55,9.27,9.27,0,0,1-.21-4.1,27.25,27.25,0,0,1,3.09-8,3.31,3.31,0,0,0,.92-2,4.38,4.38,0,0,0-.49-2.17,23.78,23.78,0,0,1-1.32-2.57.69.69,0,0,1,0-.54,1.83,1.83,0,0,1,.5-.53,8.59,8.59,0,0,1,2.21-1.1c.68-.17,1.36-.36,2.06-.59A8.83,8.83,0,0,0,272,470.6a4.85,4.85,0,0,0,.65-.58,2.65,2.65,0,0,0,.33-.44,2.09,2.09,0,0,0,.27-.54,3.21,3.21,0,0,0,.17-.66,3.28,3.28,0,0,0,0-.7,2.82,2.82,0,0,0-.14-.59,2.57,2.57,0,0,0-.21-.49,6.86,6.86,0,0,0-1.92-2.07c-1.2-.94-2.39-1.67-3.28-2.43l-.29-.26.05,0a12.38,12.38,0,0,1,2.24-1.35l2.85-1.37a24.39,24.39,0,0,0,3.09-1.71,6.59,6.59,0,0,0,1.76-1.69,3.27,3.27,0,0,0,.43-.84c.06-.18.12-.36.16-.53a3.39,3.39,0,0,0,.05-.64,3.48,3.48,0,0,0-.74-2.15,6.1,6.1,0,0,0-2.05-1.65,14.77,14.77,0,0,0-1.76-.79c-1.12-.41-2.22-.74-3.3-1s-2.4-.58-3.59-.83c.43-.64,1-1.39,1.61-2.34a9.16,9.16,0,0,0,1-2.08,5.36,5.36,0,0,0,.31-1.45c0-.27,0-.54,0-.8s-.08-.57-.13-.86a5.1,5.1,0,0,0-.56-1.55,5.16,5.16,0,0,0-.83-1.2l-.45-.52a5.21,5.21,0,0,0-.45-.39l-.32-.26a.7.7,0,0,1-.09-.56,8,8,0,0,1,.8-2,20.88,20.88,0,0,0,1.49-3.36c.11-.37.2-.79.28-1.18a2.66,2.66,0,0,0,0-.28,18.66,18.66,0,0,0,2.79-1l.8-.42c.3-.19.6-.39.89-.6a8,8,0,0,0,1-1,5.21,5.21,0,0,0,.94-1.68,5,5,0,0,0,.2-2.23,6.36,6.36,0,0,0-.25-1,7.35,7.35,0,0,0-.34-.76,5,5,0,0,0-.36-.6c-.12-.17-.26-.38-.37-.51s-.49-.56-.7-.76a19.29,19.29,0,0,0-2.42-2l-2-1.46-.35-.26c.42-.54.86-1.13,1.29-1.81l.37-.59c.12-.22.24-.46.35-.69a9.29,9.29,0,0,0,.63-1.58,7.41,7.41,0,0,0,.22-.95,7.92,7.92,0,0,0,.12-1,7.14,7.14,0,0,0-.23-2.2,8.45,8.45,0,0,0-1.87-3.51,13.16,13.16,0,0,0-2.31-2,20.7,20.7,0,0,0-2.25-1.38c-.73-.39-1.45-.71-2.18-1.06l-.24-.12-.3-.07.27-.12a24.84,24.84,0,0,0,3.36-1.86,9.62,9.62,0,0,0,1.07-.85,7.61,7.61,0,0,0,1.32-1.54,5.22,5.22,0,0,0,.36-.64l.16-.36c.06-.14.11-.29.16-.44a4.94,4.94,0,0,0,.23-1,5.06,5.06,0,0,0,.07-1.11,5.71,5.71,0,0,0-.16-1.11,5.49,5.49,0,0,0-.32-1,6.64,6.64,0,0,0-.89-1.47l-.32-.42-.77-.57a14.07,14.07,0,0,1-1.69-1.44,6.11,6.11,0,0,1-1-1.43,1,1,0,0,1-.08-.18,12.6,12.6,0,0,0,2.66-1.59,9.19,9.19,0,0,0,1.68-1.72,9.49,9.49,0,0,0,.78-1.33,6.91,6.91,0,0,0,.53-1.61,7.22,7.22,0,0,0,.18-1.64,8.44,8.44,0,0,0-.13-1.4,10.75,10.75,0,0,0-.55-2c0-.07-.05-.13-.08-.19l.4-.28,2.2-1.44a32.11,32.11,0,0,0,2.68-1.94A15.39,15.39,0,0,0,276.6,365a9.41,9.41,0,0,0,1.78-2.93,7.86,7.86,0,0,0,.34-1.16,8.86,8.86,0,0,0,.16-1.36,7.67,7.67,0,0,0-.43-2.77l-.24-.64c-.09-.18-.17-.34-.27-.51a10,10,0,0,0-.59-1c-.19-.25-.38-.49-.59-.73l-.31-.34-.27-.26-.29-.26.29-.6c.21-.46.4-.92.57-1.39a15.39,15.39,0,0,0,.34-1.56c0-.26.08-.53.11-.79s0-.52,0-.78c0-.51,0-1-.09-1.55a13.47,13.47,0,0,0-1.7-4.65c-.18-.29-.36-.61-.54-.89l-.54-.75c-.37-.52-.74-.95-1.1-1.37a33.52,33.52,0,0,0-2.82-2.87l1-.7c.43-.3.94-.62,1.68-1.2.17-.12.41-.34.62-.51l.38-.36c.12-.11.25-.24.42-.42s.29-.32.46-.54.36-.47.52-.72a7.61,7.61,0,0,0,.56-1,6.34,6.34,0,0,0,.27-.61l.24-.7a8.77,8.77,0,0,0,.3-1.6,8.16,8.16,0,0,0,0-1.71,8.26,8.26,0,0,0-.34-1.55c-.08-.24-.17-.49-.26-.71s-.16-.37-.25-.55a10.16,10.16,0,0,0-1.11-1.71c-.19-.23-.32-.36-.48-.54l-.46-.46a14.81,14.81,0,0,0-1.91-1.49,2.46,2.46,0,0,0,.09-.29,8,8,0,0,0,.16-.83c0-.26.08-.58.09-.73,0-.36,0-.8,0-1.08l7.61,3.63-6.67-16.86-.08-8.66c0-.32,0-.63,0-.94a6.76,6.76,0,0,0-.12-1,12.41,12.41,0,0,0-.28-1.24,10.61,10.61,0,0,0-.6-1.54,8.83,8.83,0,0,0-.8-1.36c.34-.59.7-1.18,1.06-1.78l1.12-1.86.07-2.6.31-12.46,1.38,9.64,9.11-24.23a9,9,0,0,0,.91.61,7.77,7.77,0,0,0,.72.38,9.82,9.82,0,0,0,.94.4,10.07,10.07,0,0,0,2.05.5,10,10,0,0,0,3.76-.2,10.14,10.14,0,0,0,3.06-1.32c.23-.15.45-.31.67-.47l.49-.41q.23-.19.45-.42a8,8,0,0,0,.82-.92c.13-.16.25-.32.37-.49l.29-.45.24-.4q.23-.42.42-.84l.15-.37a6,6,0,0,0,.31-.55l.18-.37.14-.31c.08-.2.17-.46.23-.62l.1-.3a13,13,0,0,0,.31-1.27c.07-.44.1-.64.13-.86l.07-.75,7,37.11,1.38-13.52,3.13,24.4,7.56-73.31c.22-.17.45-.34.66-.52a10.77,10.77,0,0,0,.89-.9c.34-.39.34-.4.48-.58a10.38,10.38,0,0,0,.59-.88l.27-.46.13-.26a9.53,9.53,0,0,0,.42-.93l.2-.56c.14-.41.18-.57.25-.82l.14-.56c.11-.53.18-.91.23-1.24l.62-.35.34-.23q.38,0,.75-.06a9.33,9.33,0,0,0,1.47-.3,9.56,9.56,0,0,0,2.16-.89,10.84,10.84,0,0,0,1-.62,8.78,8.78,0,0,0,.74-.59,10.25,10.25,0,0,0,1.36-1.43l.29-.4.12-.17.23-.37c.15-.25.3-.51.42-.75l.19-.41c.18-.41.3-.71.38-.94l4.19,0c0,.08-.06.17-.1.26l.07-.17a.36.36,0,0,0,0-.09h.16c0-.17,0-.38.06-.56.14-.38.27-.77.37-1.15s.13-.52.18-.73l.13-.63c.22-1.33.29-2.18.36-3s.11-1.57.16-2.3c0-.13,0-.25,0-.38v0l.12-.21.24-.43.22-.44.13-.27.23-.54.28-.76.19-.58c.05-.16.09-.31.13-.45l0,0,.37-.25.2-.16.37-.29a11.22,11.22,0,0,0,1.33-1.34l.21-.26.13-.19.27-.37c.17-.26.33-.52.48-.79l.23-.45.18-.38.06.57.08.73.08.51.06.36.12.56.14.53.09.29c.07.23.15.45.24.68s.18.45.29.66a10,10,0,0,0,1.62,2.42,6.38,6.38,0,0,0,.51.53,9.73,9.73,0,0,0,1.79,1.36,10,10,0,0,0,7.18,1.21,9.39,9.39,0,0,0,2.12-.69,10,10,0,0,0,1.48-.84,10.22,10.22,0,0,0,2.47-2.39,7.3,7.3,0,0,0,.57-.88l.15-.27q.15-.27.27-.54a12.08,12.08,0,0,0,.45-1.13c.09-.29.15-.49.21-.74l.12-.5.06-.33c.11-.67.13-1,.16-1.24l.07-.8,0-.45V187l.05-2.09.23-7.78c.09-2.57.18-5.16.31-7.65l.08-1.36h.74l.12-2.19.46-.12c.3-.09.61-.19.91-.31a11,11,0,0,0,1.77-.92,9.62,9.62,0,0,0,1.52-1.21l.34-.34.23-.25a10.59,10.59,0,0,0,.81-1.06c.13-.18.24-.37.36-.56l.2-.37.22-.45.21-.47.16-.4c.1-.28.2-.59.27-.85l.6,0a10.41,10.41,0,0,0,3.77-.72q.45-.19.9-.42a9.92,9.92,0,0,0,3.89-.57,11,11,0,0,0,1.93-.9l.44-.27.25-.18.41-.32a11,11,0,0,0,1.51-1.46l.33-.4.14-.19.07-.09.26-.39c.17-.26.33-.53.48-.8l.22-.41.1-.2.05-.11.2-.45c.12-.3.26-.64.35-.91s.26-.82.38-1.22l.23-.93c.13-.6.23-1.1.32-1.6.17-1,.29-1.86.41-2.72,0-.13,0-.25,0-.38l.61-.35a12.7,12.7,0,0,0,1.05-.76,10.21,10.21,0,0,0,1.39-1.4,10.15,10.15,0,0,0,2.06,0,10.76,10.76,0,0,0,1.86-.34c.33-.09.54-.17.68-.22l.52-.2a10.49,10.49,0,0,0,3.68-2.66,12,12,0,0,0,.91-1.21c.13-.21.26-.42.38-.64l.18-.33.08-.16c.17-.36.32-.73.46-1.1l.13-.37.09-.29.16-.55.08-.38.09-.37.05-.27.1-.54c.1-.62.17-1.16.22-1.64,0-.14,0-.27.05-.41l.13-.2c.23-.4.38-.7.55-1.07s.38-.92.47-1.18c.15-.47.26-.84.34-1.15a10,10,0,0,0,4.89-.83,10.74,10.74,0,0,0,1.26-.66c.35-.22.87-.61.93-.66a10.82,10.82,0,0,0,.88-.79c.21-.2.42-.45.62-.68l.32-.11c.1.21.19.41.3.61l.2.37.11.19.25.39a11,11,0,0,0,1.31,1.58,10.28,10.28,0,0,0,1.57,1.26,10,10,0,0,0,5.43,1.64,10.23,10.23,0,0,0,3.49-.59,10.42,10.42,0,0,0,1.58-.75,13.33,13.33,0,0,0,.91,2.08l.2.34.11.19.21.33a12.79,12.79,0,0,0,1,1.23l.26.29.23.23.29.27a12.37,12.37,0,0,0,1.28,1,11.31,11.31,0,0,0,1.23.68c0,.11.08.22.11.32l.16.42c.06.15.19.43.28.64a11.22,11.22,0,0,0,1,1.73c.14.2.29.4.44.59l.23.29.12.14.17.19a11,11,0,0,0,2.54,2,9.75,9.75,0,0,0,2.19.92,10.51,10.51,0,0,0,2.81.42h.69l.59-.06a10.32,10.32,0,0,0,1.19-.22c.24-.06.48-.14.72-.22l.12.32,4.78.31c-.13,1.45-.27,2.88-.44,4.06,0,.08,0,.17,0,.25l-.15-.09-.35-.25-.18-.14-.33-.27c-.21-.18-.42-.37-.62-.57s-.41-.45-.53-.6l-.24-.31a7.49,7.49,0,0,1-.45-.65l-.21-.36-.18-.34-.09-.18c-.12-.28-.14-.33-.18-.45s0,.07.08.35c.15.6.32,1.45.49,2.33l.54,2.81c.2,1,.4,2,.71,3.3a21,21,0,0,0,.77,2.52l.22.53a6.76,6.76,0,0,0,.31.67l.21.42.12.22.2.32c.13.22.27.43.42.64l.12.16.21.27c.14.18.29.36.44.53a10.51,10.51,0,0,0,3.79,2.67,10.16,10.16,0,0,0,2.11.59.61.61,0,0,0,.07.1,9.77,9.77,0,0,0,1.26,1.59,10.36,10.36,0,0,0,1.57,1.32c.27.18.56.35.84.51a10.32,10.32,0,0,0,1.67.72l.2,5.24c.08,1.52.07,2.21.1,3.74l0,2.08,0,1.1,0,.62c0,.26,0,.42.06,1l0,.3.08.51.09.51.1.41a9.91,9.91,0,0,0,.7,1.9c.15.3.31.6.49.89.52.68-.39-.32,1.33,1.7.8,2.36,6.54,3.42,10.48,2.52l.08,1.45c.07,1.19.14,2.38.25,3.68.06.65.12,1.31.23,2.16l.11.72.08.46.13.6.09.38.18.6.1.31.09.26.14.34q.14.33.3.66l.08.16.14.26c.17.3.36.6.56.89a8.8,8.8,0,0,0,.65.83l.35.39c.14.14.14.16.66.63a10,10,0,0,0,4.66,2.28,8.86,8.86,0,0,0,1.76.19,10.18,10.18,0,0,0,4.12-.8,9.84,9.84,0,0,0,1.79-1,8.13,8.13,0,0,0,.73-.56,9.84,9.84,0,0,0,1.89-2.08l.25-.37.12-.2.22-.41c.15-.28.29-.56.41-.85s.2-.52.3-.78.11-.37.17-.55l0-.12a10.4,10.4,0,0,0,1.37.05c.05.35.09.69.14,1,.21,1.41.41,2.79.77,4.53.09.45.2.92.36,1.52l.14.47.19.59.11.33.17.44.18.43c.11.24.23.48.35.72l.19.35.11.18.22.35a12.5,12.5,0,0,0,1,1.29l.36.38a2.25,2.25,0,0,0,.12.21l.15.24.22.32c.16.21.32.42.49.62a10.76,10.76,0,0,0,1.11,1.13l.29.25.19.15.4.29a10.06,10.06,0,0,0,1.8,1,10,10,0,0,0,6,.62l10.56,34.55,2.63-20.58a9.25,9.25,0,0,0,1,.33l.42.1.55.11a11.11,11.11,0,0,0,1.16.12,9.84,9.84,0,0,0,2.1-.12l.21.12a14.42,14.42,0,0,0,3.87,1.39c.21,1.38.45,2.79.75,4.29.24,1.12.48,2.25.93,3.74.12.39.25.78.44,1.28a16.24,16.24,0,0,0,.86,1.87c.13.24.21.39.41.7l.27.42.14.2.21.28a10.87,10.87,0,0,0,1.09,1.22l.38.35c.13.12.22.2.45.38a9.92,9.92,0,0,0,1.26.85l.35.2.48.24.14,0L554.72,258l.81-12.13.42,0c0,.08.07.15.11.25l.23.46c.09.17.15.3.31.56l.2.35.26.4.38.53.2.25.1.13.18.21c.26.29.52.56.8.82l.43.38c.28.23.57.44.87.64s.62.39.94.56l.32.16.35.46.35.4.19.2.26.25a10.55,10.55,0,0,0,1.83,1.4l.51.28c.19.09.26.14.64.3a10.08,10.08,0,0,0,1.17.42l.06.27.1,4.65,0,1.45V263c0,.45,0,.91,0,1.39a15.67,15.67,0,0,0-.91,2.14,17.14,17.14,0,0,0-.63,2.35c-.14.53-.26,1.08-.36,1.67a14.61,14.61,0,0,0-.1,3.79,14,14,0,0,0,.56,2.67,17.64,17.64,0,0,0,.51,1.73,15.33,15.33,0,0,0,1.17,2.47l-.11.32-1.76,5.42-.44,1.46c-.16.54-.3,1-.51,1.88l-.08.38-.1.54-.06.39,0,.28,0,.39V293a4.36,4.36,0,0,0,0,.51l.06.5.05.25.07.36a8.46,8.46,0,0,0,1.43,3.07l.25.33a8.1,8.1,0,0,0,.59.63,8.27,8.27,0,0,0,1.52,1.17,8,8,0,0,0,1.29.62l0,.85a12.24,12.24,0,0,0-3.05,4.82,13.55,13.55,0,0,0-.63,2.86,12.58,12.58,0,0,0,.06,3.11c0,.29.08.56.15.87s.18.67.28,1a10,10,0,0,0,.47,1.18c0,.1.08.18.15.3l.23.39c.15.26.32.51.49.76a8.1,8.1,0,0,0,.78.9,1.22,1.22,0,0,0,.17.15h0l0,.54c0,.2,0,.41,0,.62a8.17,8.17,0,0,0,.15,1.41,7.6,7.6,0,0,0,.52,1.62,7.33,7.33,0,0,0,.89,1.5c0,.48.06.93.1,1.37a16.56,16.56,0,0,0-2.09,1.25,9.92,9.92,0,0,0-1.9,1.75l-.28.36-.13.18-.17.26a7.38,7.38,0,0,0-.58,1.12,8.24,8.24,0,0,0-.45,1.54,8,8,0,0,0,0,1.83,7.55,7.55,0,0,0,.4,1.67,7.38,7.38,0,0,0,.62,1.26,7.82,7.82,0,0,0,.63.88c.2.24.38.42.57.61a9.88,9.88,0,0,0,1.77,1.36,24,24,0,0,0,2.35,1.25c.95.44,1.78.82,2.41,1.14-.26.35-.53.76-.83,1.24a9.52,9.52,0,0,0-1.4,4.1,7.69,7.69,0,0,0,.36,3.09l.06.15c-.18,1.24-.47,2.78-.66,4.61a18,18,0,0,0,.09,4.43,14.08,14.08,0,0,0,1.4,4.33,12,12,0,0,0,1.67,2.88c.6.79,1.14,1.38,1.6,1.91l.25.29a19.14,19.14,0,0,1-2.11.89l-.59.21-.26.17a12.15,12.15,0,0,0-2.56,2,8.1,8.1,0,0,0-1.33,1.87,6.92,6.92,0,0,0-.76,2.72,7.29,7.29,0,0,0,.31,2.61,5.86,5.86,0,0,0,.38,1,8.93,8.93,0,0,0,.41.82,14.62,14.62,0,0,0,1.61,2.22c.87,1,1.61,1.78,2,2.28l-.33.81a7.15,7.15,0,0,0,.06,1.6,7.87,7.87,0,0,0,.38,1.28,6.92,6.92,0,0,0,.5.95,6.67,6.67,0,0,0,.5.72,10.87,10.87,0,0,0,1.78,1.74c.92.71,1.72,1.23,2.47,1.71-1.63.5-3.41.91-5.2,1.28l-.6.13-.34.17a20.37,20.37,0,0,0-2.19,1.22,11.13,11.13,0,0,0-2.31,1.95,7.24,7.24,0,0,0-1.82,3.74,7.31,7.31,0,0,0,.61,4,18.37,18.37,0,0,0,2.75,4.07c.4.5.75.95,1,1.33a5,5,0,0,1,.43.74l.74,1.49.42.36a3.59,3.59,0,0,1,1,1.24,6,6,0,0,1,.28,2.23,13.15,13.15,0,0,0,.73,4.63,10.17,10.17,0,0,0,3.15,4.11l.48.38.57.19.51.17h0l-1.87,1.31a19.77,19.77,0,0,0-2.17,1.71l-.29.28-.31.34a5.86,5.86,0,0,0-.64.85,3.35,3.35,0,0,0-.32.58,3.9,3.9,0,0,0-.27.71,5.47,5.47,0,0,0-.16.9,4.7,4.7,0,0,0,0,1,3.39,3.39,0,0,0,.27.9,3.86,3.86,0,0,0,.4.76c.13.19.28.37.43.55l.23.26.21.17a6.23,6.23,0,0,0,1.18.84l2.4,2.27a15.14,15.14,0,0,1,2.06,2.32l.17.26.11.22a1.63,1.63,0,0,1,.14.34c0,.1,0,.12,0,.18s0,.07,0,.14a4,4,0,0,1-1.46,1.46L576,447.11l1.58,2.17c.09.13.09.11.1.14a.92.92,0,0,1-.08.49,29.14,29.14,0,0,1-1.3,2.61,9,9,0,0,0-.75,2.09,5.08,5.08,0,0,0,.24,2.93,5.86,5.86,0,0,0,1.58,2.16,10.31,10.31,0,0,0,1.75,1.2l1.24.67a4.88,4.88,0,0,1,.76.62l.15.13a.37.37,0,0,0,.05.11.87.87,0,0,1,.08.1.15.15,0,0,0,0,.09,1.4,1.4,0,0,1,0,.65c-.1.71-.59,1.73-.79,3.29a6.11,6.11,0,0,0,0,1.28,6.27,6.27,0,0,0,.37,1.33,32.14,32.14,0,0,0-3.78,3.16,11.11,11.11,0,0,0-2.37,3.25,7.37,7.37,0,0,0-.39,1.12,6,6,0,0,0-.12,1.28,4.58,4.58,0,0,0,.16,1.11c-.53.51-1,1-1.52,1.59-.76.88-1.42,1.78-2.06,2.62a17.63,17.63,0,0,1-4.11,4.07,19.28,19.28,0,0,0-1.92.61l-.58.24-.61.32c-.21.12-.45.3-.66.45a2.61,2.61,0,0,0-.71,1,2,2,0,0,0,0,1.56c0,.1.1.23.15.31l.16.21a3.28,3.28,0,0,0,.32.37,6,6,0,0,0,1.17.82,17.37,17.37,0,0,0,2.15,1c1.39.54,2.78,1,4.1,1.49.63.24,1.24.48,1.79.75-.44.15-.89.3-1.34.48a9.76,9.76,0,0,0-3,1.73,3.12,3.12,0,0,0-.67.91,2.22,2.22,0,0,0-.19,1.33,3.32,3.32,0,0,0,1.15,1.8,13.84,13.84,0,0,0,2.83,1.78c1.9,1,3.84,1.73,5.62,2.69a11.07,11.07,0,0,1,1.22.77c.37.27.63.64.6.71s-.25.42-.65.63a9.52,9.52,0,0,1-1.33.58l-.6.22.24.54a2.67,2.67,0,0,1-.43,2.68,10.07,10.07,0,0,1-2.32,2.23c-1.79,1.31-3.79,2.34-5.75,3.51a10.88,10.88,0,0,0-1.43,1,1.17,1.17,0,0,0-.49.91.7.7,0,0,0,.34.49,2.13,2.13,0,0,0,.43.21,14.24,14.24,0,0,0,3.41.44c2.26.1,4.52.07,6.78,0-2.26-.06-4.52-.12-6.76-.31a14.61,14.61,0,0,1-3.28-.57c-.24-.08-.48-.25-.46-.34s.16-.33.37-.48a10.14,10.14,0,0,1,1.38-.88c2-1.07,4-2,6-3.31a11,11,0,0,0,2.64-2.34,4.4,4.4,0,0,0,.83-1.71,3.47,3.47,0,0,0,0-1.4,7.2,7.2,0,0,0,1-.44,3.31,3.31,0,0,0,.78-.52,1.72,1.72,0,0,0,.57-1.09,1.84,1.84,0,0,0-.37-1.15,4.72,4.72,0,0,0-.65-.68,11.06,11.06,0,0,0-1.38-1c-1.85-1.1-3.75-1.94-5.53-2.94a12.51,12.51,0,0,1-2.39-1.63,1.71,1.71,0,0,1-.53-.78c0-.09,0-.24.34-.5a8.11,8.11,0,0,1,2.43-1.21c.94-.33,1.92-.59,2.9-.83l.61-.15.15-.55a2.12,2.12,0,0,0,.08-.82,2.26,2.26,0,0,0-.24-.65c-.1-.14-.2-.29-.31-.42l-.29-.27a6.38,6.38,0,0,0-1.11-.73,20.45,20.45,0,0,0-2.08-1c-1.37-.58-2.72-1.09-4-1.65a16.57,16.57,0,0,1-1.79-.9l-.11-.07.07,0,.44-.16c.6-.2,1.27-.36,1.94-.52l.22-.05.23-.14a18.48,18.48,0,0,0,2.81-2.12,26.26,26.26,0,0,0,2.36-2.51,25.41,25.41,0,0,1,4.23-4.4l.95-.72-.53-1.51a1.45,1.45,0,0,1-.17-.75c0-.12,0-.26,0-.39a4.1,4.1,0,0,1,.19-.46,7.77,7.77,0,0,1,1.69-2,36.86,36.86,0,0,1,5.14-3.73l1.76-1.12-1.54-2.12a2.61,2.61,0,0,0-.27-.31c-.07-.1-.06-.17-.13-.24a1.48,1.48,0,0,0,0-.19c0-.11,0-.15,0-.32.06-.56.51-1.5.85-2.88a7.17,7.17,0,0,0,.15-1.18,5.07,5.07,0,0,0-.12-1.33c-.06-.23-.12-.46-.19-.68a5.71,5.71,0,0,0-.29-.61c-.1-.2-.21-.4-.33-.59l-.38-.47a9.18,9.18,0,0,0-1.63-1.48l-1.53-.94a5.18,5.18,0,0,1-.86-.63,1.07,1.07,0,0,1-.29-.4,1.09,1.09,0,0,1,0-.21,4.5,4.5,0,0,1,.4-.88,28.88,28.88,0,0,0,1.64-3.07,6.15,6.15,0,0,0,.46-2.62c0-.12,0-.23,0-.34s.17-.14.26-.23.31-.28.47-.45l.46-.58a4.8,4.8,0,0,0,.42-.62c.13-.24.25-.49.36-.74a6,6,0,0,0,.44-1.67,7.14,7.14,0,0,0-.09-1.68,6.32,6.32,0,0,0-.44-1.43l-.28-.64-.31-.55a19.94,19.94,0,0,0-2.72-3.42l-2.47-2.54.85-.56,2-1.27a14.67,14.67,0,0,0,2.28-1.76l.32-.31.34-.4a6.13,6.13,0,0,0,.67-1,4.91,4.91,0,0,0,.3-.74,3.68,3.68,0,0,0,.18-.89,5.57,5.57,0,0,0,0-1,7.64,7.64,0,0,0-.24-1,3.64,3.64,0,0,0-.38-.79,4.45,4.45,0,0,0-.44-.66,7.79,7.79,0,0,0-.87-.86c-.25-.2-.52-.4-.79-.58l-.71-.41c-.49-.27-.9-.43-1.35-.64l-.5-.19a2.86,2.86,0,0,1-.72-1.1,6.88,6.88,0,0,1-.15-2.23,12.62,12.62,0,0,0-.56-4.65,10,10,0,0,0-2.2-3.53,11.43,11.43,0,0,0-.91-1.79c-.46-.75-.91-1.35-1.31-1.91a17.51,17.51,0,0,1-1.54-2.28,3.7,3.7,0,0,1,.63-.43c.25-.15.55-.3.87-.45,1.91-.32,3.82-.68,5.82-1.2.54-.15,1.09-.29,1.66-.49s1.16-.41,1.76-.66a11.55,11.55,0,0,0,2.05-1.12l.28-.19.32-.28c.22-.19.43-.39.63-.59a5.94,5.94,0,0,0,1.26-2.14,4.75,4.75,0,0,0,.28-1.49,6.94,6.94,0,0,0,0-.79,5.24,5.24,0,0,0-.12-.67c0-.22-.11-.45-.17-.66a3.7,3.7,0,0,0-.22-.52,5.57,5.57,0,0,0-.48-.89c-.15-.23-.31-.46-.48-.68l-.45-.51a10.55,10.55,0,0,0-.84-.82,33.24,33.24,0,0,0-2.8-2.13c-.56-.4-1.08-.77-1.52-1.1a6.57,6.57,0,0,0,.08-1.7,8.57,8.57,0,0,0-1.34-3.78,25.08,25.08,0,0,0-2.13-2.81,21.46,21.46,0,0,0,3.22-1.49,11.18,11.18,0,0,0,3-2.42,10,10,0,0,0,.77-1.09,7.62,7.62,0,0,0,.64-1.38,7.4,7.4,0,0,0,.39-3.18,9.71,9.71,0,0,0-1.57-4.24c-.61-.94-1.17-1.63-1.65-2.24s-.9-1.11-1.16-1.5-.35-.66-.24-.4l-.38-.9a3.66,3.66,0,0,1-.33-1.28,7.66,7.66,0,0,1,.08-1.85c.19-1.54.81-3.59,1.1-6.38l-.38-1.27.53-.66c.37-.45.83-1,1.37-1.73a10.66,10.66,0,0,0,1.67-3.39c.06-.22.11-.43.15-.65a6.31,6.31,0,0,0,.1-.76,7.26,7.26,0,0,0,0-1.61,7.92,7.92,0,0,0-.37-1.64,9,9,0,0,0-.65-1.4,9.76,9.76,0,0,0-3-3.11l-.07,0a6.06,6.06,0,0,0,1-1.95l.08-.26,0-.14a5.72,5.72,0,0,0,.11-.57l0-.33,0-.34c0-.3,0-.45,0-.57l0-.31,0-.45-.06-.87,18.33,1.54L587.61,320v0a8.78,8.78,0,0,0,1-2.66l.1-.57,0-.47c0-.31,0-.66,0-.93a13.75,13.75,0,0,0-.31-2.75,20.23,20.23,0,0,0-1.26-3.79,6.16,6.16,0,0,0-1.64-3.47l.8-.71a24.58,24.58,0,0,0,2.57-2.92,17.54,17.54,0,0,0,2.33-4.1,15.55,15.55,0,0,0,.49-1.5,11.73,11.73,0,0,0,.33-1.92,10.12,10.12,0,0,0,0-1.13,11.2,11.2,0,0,0-.1-1.3,9.28,9.28,0,0,0-.32-1.45,7.52,7.52,0,0,0-.57-1.47,10.07,10.07,0,0,0-1.85-2.66,11,11,0,0,0-1.1-.95c-.19-.15-.39-.3-.57-.42l-.52-.31c-.35-.2-.71-.39-1.07-.56s-.61-.24-.92-.35-.65-.22-.9-.28l-.11,0,0-.07a8.76,8.76,0,0,0,.94-.74l.32-.31.15-.15.29-.32c.24-.29.46-.59.67-.9l4.8,4.2c0,.06,0,.12,0,.18a9.43,9.43,0,0,0,.94,4.13c.07.15.15.3.23.44l-.06.82c.33.48.61.9,1,1.57l.45.75.25.4.25.37c.1.14.13.19.43.57l.39.44.2.21.23.22.37.33a8.84,8.84,0,0,0,1.68,1.1l.22.1.11.06.32.13a8.86,8.86,0,0,0,1.58.46,8.67,8.67,0,0,0,3.48-.06,7.94,7.94,0,0,0,1.4-.45l5.17,4.53c0,.18.07.36.1.56.09.61.16,1.27.22,2.06l.08,1,0,.24.06.33c0,.17.07.34.11.51l.08.28a6.49,6.49,0,0,0,2.91,3.65,6.57,6.57,0,0,0,2.2.8,6.45,6.45,0,0,0,6.34-2.69,7.75,7.75,0,0,0,.71-1.3l0-.12.08-.23c0-.16.1-.32.14-.48h0a5.06,5.06,0,0,0,1.67-.16,5.36,5.36,0,0,0,1-.36c0,.24,0,.48,0,.71.06.82.1,1.76.14,2.65.08,1.84.07,3.66.28,5.9a13,13,0,0,0,1,4.11,6.68,6.68,0,0,0,.78,1.3,8.18,8.18,0,0,0,.53.64c.2.2.42.39.64.58a7.17,7.17,0,0,0,2.8,1.38,2.79,2.79,0,0,0,.59.12l.54.08a10.83,10.83,0,0,0,1.21.08,5.78,5.78,0,0,0,.77-.05,4.76,4.76,0,0,0,.88-.15,7.86,7.86,0,0,0,1.06-.38,6.31,6.31,0,0,0,1.12-.73,5.26,5.26,0,0,0,1.42-2,4.78,4.78,0,0,0,.19-.48c.06-.16.07-.26.11-.39s0-.18,0-.27a21.47,21.47,0,0,0,2.2,2.7,12.86,12.86,0,0,0,4.79,3.24,8,8,0,0,0,1.47.4l-.21.25,1,1.06a22.76,22.76,0,0,0,2.55,2.33,11.83,11.83,0,0,0,3.18,1.78,8.49,8.49,0,0,0,1.86.42l.61,0,0,.13c-.09.48-.21,1-.33,1.5l-2.31,9.6,4.39-8.73c.27-.53.53-1.08.78-1.63a1.55,1.55,0,0,0,.06.23,25.49,25.49,0,0,0,3.51,6.8l.17.25.23,0a2.06,2.06,0,0,1,1.63.86,9.86,9.86,0,0,1,1.27,1.82c.38.66.71,1.34,1.06,2l.28.51a1.38,1.38,0,0,0,.17.25.38.38,0,0,0,.11.11l.1,0a.19.19,0,0,0,.1-.06A3.12,3.12,0,0,0,668.51,343.23ZM194.23,325.38h0C194.15,325.43,194.05,325.44,194.23,325.38ZM206.56,312h0c.07-.08.12-.13.11-.11A.38.38,0,0,1,206.56,312Zm5.1-.82-.06,0ZM270,467.73s0,0,0,0v0Zm-2.8-6.29Zm2.39-40.53-.09.07C269.58,420.91,269.56,420.91,269.6,420.91Zm-1.45-7.74,0,.05s-.08-.08-.05-.07Zm-4-5.91s0,0,0,0,0,0,0,.07a.19.19,0,0,0,0,.07s0,0,0,0S264.15,407.3,264.19,407.26Zm308.52-22.73a1.79,1.79,0,0,1,.11-.47.92.92,0,0,1,.16-.33.35.35,0,0,1,.12-.17Zm4.93,48.72h0l0,0Zm2-7.27,0,0h0C579.57,426,579.64,425.93,579.59,426Zm-6.66-22.67c0-.12,0-.11,0,0Zm3.78-35.88,0-.05C576.82,367.32,576.8,367.36,576.71,367.43ZM577,376c0-.08,0-.06,0,.08ZM425.23,123.75a9.86,9.86,0,0,1-1.88-.83,11.65,11.65,0,0,1-1.06-.7c-.23-.18-.46-.37-.68-.57a8.1,8.1,0,0,1-.59-.6l-.26-.29c-.16-.19-.31-.39-.46-.6a.08.08,0,0,0,0,0l.21-.15.26-.21c.18-.14.35-.29.51-.44l.33-.31,8.14,1.14.41.78.52,1a5.53,5.53,0,0,1,.38,1c.06.19.12.42.18.67l-.69.22a10.23,10.23,0,0,1-4.35.17C425.86,123.93,425.55,123.85,425.23,123.75ZM269.38,237.4v0Zm339.11,36h0l0,0Zm-6.79,7-1.18.63-1-.28a1,1,0,0,1,.08-.11l0-.06A8.08,8.08,0,0,1,601.7,280.43Zm-6.15-6.79-.59.27-.31.12-.42.14a9.4,9.4,0,0,1-3.39.45,8.37,8.37,0,0,1-1.9-.29,8.92,8.92,0,0,1-1-.31c0-.21,0-.41-.06-.59-.06-.55-.13-1-.2-1.46-.14-.79-.28-1.53-.43-2.25l.67-.89.15-.21,10.56,2.49-.09.11-.12.15-.26.29-.29.3c-.12.11-.13.13-.45.41a6.57,6.57,0,0,1-.79.6A9.47,9.47,0,0,1,595.55,273.64ZM574.5,329l-.07,0C574.34,328.91,574.36,328.9,574.5,329ZM507.31,194.72Zm79,76.29h0C586.39,271.14,586.36,271.1,586.31,271Zm-27.92-43.89.07,0-.42,0,.2-.08Zm-1.6-.34,0-.39.35.15ZM574.46,276l-.42,0a7.93,7.93,0,0,1-1.18-.33c-.14,0-.26-.1-.39-.15l0,0-.43-.26a8.13,8.13,0,0,1-.82-.59c-.25-.21-.54-.49-.58-.53l-.32-.34a5.87,5.87,0,0,1,.16-.6c.06-.19.12-.39.2-.58l.18-.41a7.29,7.29,0,0,1,.37-.74,7.62,7.62,0,0,1,.8-1.15ZM569,271.74l.09.21,0-.05-.07-.17C568.94,271.68,569,271.69,569,271.74Zm7.63,20.53a.63.63,0,0,1,.06-.17C576.7,292,576.67,292.12,576.6,292.27ZM442.17,119ZM464,134.26a9.63,9.63,0,0,1-1.57-.61l1.73.3A3,3,0,0,1,464,134.26Zm23.87,29.11v-.05l0,0Zm-13.39-32.13a9.86,9.86,0,0,1-2.52,2.1c-.18.11-.37.2-.55.29l-.58.14.14.07a3.93,3.93,0,0,1-.43.18.47.47,0,0,0,0-.09l0-.09a8.78,8.78,0,0,1-1.89.12,9.53,9.53,0,0,1-4.11-1.05l5.14.34v0l.75.32c-.07-.19-.16-.41-.3-.71l-.16-.34-.26-.5-.3-.51c-.17-.27-.36-.54-.55-.8l-.09-.11h-.06l-.06-.16-.09-.11c-.14-.17-.39-.45-.59-.66s-.45-.43-.68-.64l-.36-.29,0,0h1.09c-.07-.17-.14-.36-.22-.54l5.46,0c.26.09.5.17.71.26l-.35.28h.94a9.45,9.45,0,0,1,.92.55l.33.23c-.17.31-.34.61-.53.9A9.24,9.24,0,0,1,474.47,131.24ZM320.26,196.5c-.28-.25-.55-.5-.77-.74l.82,0C320.29,196,320.28,196.27,320.26,196.5Zm3.85,1.11,0,0-.88-.08Zm-6.67-2.46v.14l-.08,0ZM396,120.65v-.08a8,8,0,0,1,1,0l.13.16-.25.23a8.23,8.23,0,0,1-.75.57Zm3.45-2.9-.17-.07h0l.05-.3a1.9,1.9,0,0,1,0-.19v0s0,0,0,.08a2.25,2.25,0,0,1-.08.24l-.06.16v0a3,3,0,0,1-.32-.12,8.27,8.27,0,0,1-1-.5l1.67-.8.08,1.18.15.38,0,0Zm-55,47.77-.4-.3a9.45,9.45,0,0,1-1.7-1.76,10.08,10.08,0,0,1,1-.79,9.48,9.48,0,0,1,1.23-.71l.09,3.25,0,.31h-.25Zm88.43-72.13c-.26,0-.61,0-1.07,0v-.28l1.3.1Zm-95.51,68Zm-2.46,20a9.51,9.51,0,0,1,1.84.9,10.89,10.89,0,0,1,1.26.94,9.44,9.44,0,0,1,1.08,1.11c.17.2.32.41.47.62l.29.45c.16.26.3.54.44.82l-3.73.17-.07-.25c0-.12-.13-.4-.2-.58l-.13-.33c-.08-.2-.17-.39-.26-.59s-.18-.37-.3-.58a11.69,11.69,0,0,0-.79-1.19c-.15-.19-.3-.38-.46-.55a10.22,10.22,0,0,0-1.25-1.19l-.35-.26.23,0A9.27,9.27,0,0,1,334.92,181.45ZM316,194.3l0,.27-.05,0-.4-.14-.12,0c.2-.1.41-.19.62-.27Zm-53.18,89.21c-.36,0-.45,0-.11,0Zm.28,32.79.43-.06a7.42,7.42,0,0,1,1.06,0,7.71,7.71,0,0,1,2.28.47l-8.55,2.72a2.5,2.5,0,0,1,.16-.24l.15-.22.22-.28.35-.37a6.28,6.28,0,0,1,.67-.59,5.39,5.39,0,0,1,.66-.45,6.3,6.3,0,0,1,.79-.42,6.93,6.93,0,0,1,1.42-.46Zm.7,6.53.09-.09.09-.07h0Zm-.55-21.73a6.45,6.45,0,0,1-.76,0l1.08-1.05a8,8,0,0,1,2-.09c.16,0,.32,0,.47.06l.28,0h0l-.22.13a9.28,9.28,0,0,1-1.39.57,7.17,7.17,0,0,1-1,.22ZM257,315.46Zm13.17-22c0-.07,0,0,0,.15v.11A2.1,2.1,0,0,1,270.21,293.42Zm26.58-51.22a5.81,5.81,0,0,0,.33-.5c.15-.24.3-.49.43-.74a6.51,6.51,0,0,0,.3-.6L298,240c.06.08.13.15.19.22.21.26.29.37.42.56a9.49,9.49,0,0,1,.67,1.1c.08.16.15.31.22.47l-2.82,0A1.47,1.47,0,0,0,296.79,242.2ZM460.4,136h-.35s0,0,0-.09l.05-.31C460.2,135.75,460.3,135.88,460.4,136Zm-.26,4.88V141l-1.52,0,.19-.12ZM508.82,197c.15-.2.31-.41.48-.6a9.61,9.61,0,0,1,1.12-1.09c.2-.16.4-.32.61-.46l.33-.22.42-.26a8.5,8.5,0,0,1,.9-.47,9.92,9.92,0,0,1,3.54-.82c-.17.85-.31,1.62-.44,2.38s-.25,1.74-.36,2.57l-1.4-.06a4,4,0,0,1-.46-.48c-.06-.08.08.13.26.47l-5.45-.25a3.91,3.91,0,0,1,.26-.44Zm85.69,67.18h0a1.93,1.93,0,0,1-.4.08C594,264.23,594.05,264.18,594.51,264.15Zm-118-134a1.36,1.36,0,0,1,.12.12l-.13.16ZM265.61,334.62v0a.86.86,0,0,0-.07-.1C265.46,334.42,265.48,334.33,265.61,334.62Zm34.31-92.27-.08-.92c0-.48-.07-1-.11-1.46l0,.06a10.28,10.28,0,0,1,.49.93l.2.49.09.24.13.37.08.29ZM350.19,183c.13-.19.26-.37.38-.56a1.72,1.72,0,0,0,.17-.28l.13-.22q.25-.47.48-.93l.17-.36a9.81,9.81,0,0,0,3-1.38,9.46,9.46,0,0,0,1.2-1,9.76,9.76,0,0,1,1.77.12A10.08,10.08,0,0,1,361,179.7a9.86,9.86,0,0,1,1.77,1.35c.17.16.34.33.51.52a9.59,9.59,0,0,1,1.16,1.58Zm15.09.14Zm91.81-45.32c.07-.13,0-.08.42-.72a8.94,8.94,0,0,1,1.08-1.39,8.63,8.63,0,0,1,1-.92l.11,1.8c0,.4.06.78.11,1.33-.19.08-.38.17-.57.24a10.5,10.5,0,0,1-1.16.32,8.6,8.6,0,0,1-1.35.18C456.84,138.34,457,138.06,457.09,137.79Zm49,59.76s0,0,0-.07l.06-.21c.05-.15.14-.38.22-.57,0,0,.17-.37.29-.6s.28-.49.44-.73a7.28,7.28,0,0,1,.73-1h0l.55-.28c-.11.9-.22,1.79-.34,2.64,0,.3-.09.6-.13.89l-1.86-.09ZM574.4,339.1c.1-.25.11-.17,0,0ZM609.7,274a4.94,4.94,0,0,1,.93.73,4.49,4.49,0,0,1,.41.46c.05,0,.09.11.14.17l-1.81,1-.14-2.59A3.54,3.54,0,0,1,609.7,274Zm-31-31.9v0l0,.08C578.79,242.21,578.77,242.15,578.75,242.07ZM456.14,116a9.22,9.22,0,0,1,.78.62,9,9,0,0,1,1,1.11l-.11.41v0l-2.24.37c0-.24,0-.47,0-.7l-.15-1.94-.28-.56A10.32,10.32,0,0,1,456.14,116ZM432.76,87.7l0-.79C433,86.64,433,87,432.76,87.7ZM312.47,192.05l.4-.23c.15-.09.35-.19.53-.28l.62-.25c-.39.91-.64,1.59-.87,2.24l-.06.19a10.75,10.75,0,0,0-2.19-.2l-.26,0c.12-.12.23-.25.36-.37A8.52,8.52,0,0,1,312.47,192.05ZM227.42,295.46s-.08,0-.21.06l.11,0Zm2.94-7.09-.2-.14,0,0C230.38,288.36,230.44,288.43,230.36,288.37ZM220.79,296a1.24,1.24,0,0,1-.13-.15C220.86,296,220.81,296,220.79,296Zm-.81-1-.14-.18.24.19Zm-3.17.63a3.59,3.59,0,0,1,2.23-.45l-2.85.92A2.36,2.36,0,0,1,216.81,295.58Zm1.38,3.46,0,0,0-.06c0-.07.06-.12.06-.1h0A.52.52,0,0,1,218.19,299ZM237,287.44l-.08.15a.43.43,0,0,1,0,.07c0-.1.05-.11.07-.17s.06-.15.05-.09ZM248.38,278a5,5,0,0,1-.85.53,4.27,4.27,0,0,1-.81.32c-.15.05-.27.07-.46.12a5.81,5.81,0,0,1-.58.09,5.54,5.54,0,0,1-2.38-.28l5.29-1Zm.37-.34-.06.06a.22.22,0,0,1,.05-.08C248.85,277.45,249,277.33,248.75,277.64Zm9.57,63.9a1.72,1.72,0,0,1-.11-.46,4.87,4.87,0,0,1,.09-1.8,5.31,5.31,0,0,1,.23-.71,5.76,5.76,0,0,1,.54-1.12,6.23,6.23,0,0,1,.8-1,5.51,5.51,0,0,1,1.08-.89,5.84,5.84,0,0,1,3.37-.92,4.12,4.12,0,0,1,1.38.27h0c0,.11.06.31.07.5a4,4,0,0,1-.12,1.24Zm2.56,45.82.11-.11S261,387.3,260.88,387.36Zm-.35-15.6s0,0-.13.11A1.18,1.18,0,0,1,260.53,371.76Zm-3.45,23.62,0,0-.11-.08Zm11.38-24.18-.21.15.29-.26h0A.31.31,0,0,1,268.46,371.2Zm.63-2.55c0-.08,0-.08.05.13h0Zm3.11-51.75,0,.17,0-.21s0,0,0,0Zm58.61-112.08-.43.1c.05-.13.09-.25.14-.37h1A7,7,0,0,1,330.81,204.82Zm35.45-36.32c-.14.29-.25.51-.44.85a8.63,8.63,0,0,1-.9,1.3l0-1.08-.05-1.49h1.59Zm53.84-48.23v0l.05,0,.09-.07,0,.08c.09.17.25.44.39.65l.17.25A10.15,10.15,0,0,1,420.1,120.27Zm28.73,14.62s0,0,0,0Zm5.08,3.47c.24-.18.48-.36.7-.56a6.14,6.14,0,0,0,.45-.43l.2-.2.1-.11.4-.47c.19-.23.38-.5.55-.73l-.09,2.36c0,.13,0,.28,0,.42l-.75,0A8.69,8.69,0,0,1,453.91,138.36Zm1.38,6.62,0-.1c.07-.16.1-.24.3-.64.12-.2.18-.34.32-.56a.31.31,0,0,1,0,.09l.05.26.08.42.06.28.13.48.07.24,0,.14A10.66,10.66,0,0,1,455.29,145Zm15.57,31c-2-3.08-.75-1.24-1.24-2-.07-.16-.15-.33-.21-.5a9.61,9.61,0,0,1-.35-1,10.56,10.56,0,0,1,.52-1.07h.52v0c0,.1.1.4.16.61s.1.35.18.57l.13.35.07.17.19.45c.14.3.3.59.47.88l.26.42.22.32.29.39c.2.25.42.5.65.74a10.44,10.44,0,0,0,1.52,1.3c.27.18.54.36.82.51a10.26,10.26,0,0,0,1.8.79,9.68,9.68,0,0,0,2.86.47l.07.38C476.38,180,471.86,178.17,470.86,176Zm13.61,12-.05,0,.08.06.24.18Zm72.37,57.64.12,0,.17,0,.35.63A6.84,6.84,0,0,1,556.84,245.67Zm9.42,41.51-.15.19S566.12,287.34,566.26,287.18Zm2.61,5.63a4.49,4.49,0,0,1-.22-.67,2.43,2.43,0,0,1,0-.28.34.34,0,0,1,0-.09,0,0,0,0,1,0,0l3.42,4.55c-.27-.16-.54-.33-.77-.5a6.33,6.33,0,0,1-.7-.58,6.89,6.89,0,0,1-.95-1.09l-.17-.26-.11-.18c-.07-.12-.14-.23-.2-.36A5,5,0,0,1,568.87,292.81ZM581,392.54l0,0,0,0,0,0ZM580.6,385s0,0,.07.1C580.6,385,580.56,384.94,580.6,385Zm.88-37.46-.62-2.07a1,1,0,0,1,.21.31,2,2,0,0,1,.24.51A3.12,3.12,0,0,1,581.48,347.5Zm28.24-46.82c-.13-.31-.08-.28,0-.19s.06.16.09.28A.36.36,0,0,0,609.72,300.68Zm.69,2.55v-.05l0-.15,0-.09,0,.17C610.43,303.18,610.41,303.26,610.41,303.23Zm13.89-3.74s0,0,0,.05l-.06-.08C624.11,299.22,624.22,299.32,624.3,299.49Zm27.41,21.59.06-.06,0,0-.07.07h0Zm5.59,9.07v0s0-.05,0-.05Z"/>
  </g>
</svg>
