<svg id="Calque_1" data-name="Calque 1" xmlns="http://www.w3.org/2000/svg" width="29.7cm" height="21cm" viewBox="0 0 841.89 595.28">
  <defs>
    <style>
      .cls-1 {
        fill: #fff;
      }
    </style>
  </defs>
  <title>Plan de travail 1</title>
  <metadata><?xpacket begin="﻿" id="W5M0MpCehiHzreSzNTczkc9d"?>
<x:xmpmeta xmlns:x="adobe:ns:meta/" x:xmptk="Adobe XMP Core 5.6-c137 79.159547, 2016/07/07-11:39:24        ">
   <rdf:RDF xmlns:rdf="http://www.w3.org/1999/02/22-rdf-syntax-ns#">
      <rdf:Description rdf:about=""
            xmlns:dc="http://purl.org/dc/elements/1.1/"
            xmlns:xmpMM="http://ns.adobe.com/xap/1.0/mm/"
            xmlns:stEvt="http://ns.adobe.com/xap/1.0/sType/ResourceEvent#"
            xmlns:xmp="http://ns.adobe.com/xap/1.0/">
         <dc:title>
            <rdf:Alt>
               <rdf:li xml:lang="x-default">Plan de travail 1</rdf:li>
            </rdf:Alt>
         </dc:title>
         <xmpMM:PreservedFileName>02.svg</xmpMM:PreservedFileName>
         <xmpMM:InstanceID>xmp.iid:156585ee-f62e-4a4d-839d-cc7850d1f0a6</xmpMM:InstanceID>
         <xmpMM:DocumentID>xmp.did:156585ee-f62e-4a4d-839d-cc7850d1f0a6</xmpMM:DocumentID>
         <xmpMM:OriginalDocumentID>xmp.did:156585ee-f62e-4a4d-839d-cc7850d1f0a6</xmpMM:OriginalDocumentID>
         <xmpMM:History>
            <rdf:Seq>
               <rdf:li>
                  <rdf:Description>
                     <stEvt:action>saved</stEvt:action>
                     <stEvt:instanceID>xmp.iid:156585ee-f62e-4a4d-839d-cc7850d1f0a6</stEvt:instanceID>
                     <stEvt:when>2018-09-27T10:33:59+02:00</stEvt:when>
                     <stEvt:softwareAgent>Adobe Bridge CC 2017 (Macintosh)</stEvt:softwareAgent>
                     <stEvt:changed>/metadata</stEvt:changed>
                  </rdf:Description>
               </rdf:li>
            </rdf:Seq>
         </xmpMM:History>
         <xmp:MetadataDate>2018-09-27T10:33:59+02:00</xmp:MetadataDate>
      </rdf:Description>
   </rdf:RDF>
</x:xmpmeta>
                                                                                                    
                                                                                                    
                                                                                                    
                                                                                                    
                                                                                                    
                                                                                                    
                                                                                                    
                                                                                                    
                                                                                                    
                                                                                                    
                                                                                                    
                                                                                                    
                                                                                                    
                                                                                                    
                                                                                                    
                                                                                                    
                                                                                                    
                                                                                                    
                                                                                                    
                                                                                                    
                           
<?xpacket end="w"?></metadata>
<path class="cls-1" d="M46.65,264.21a31.63,31.63,0,0,0,2.21,9.47,39.25,39.25,0,0,0,9.73,13.73,65.49,65.49,0,0,0,11.15,8.23,123.3,123.3,0,0,0,22.2,10.09c7.36,2.61,14.67,4.73,22,6.62,14.59,3.78,29.15,6.45,43.65,8.9s29,4.28,43.45,6.09,28.88,3.31,43.24,4.83,28.66,3.09,42.69,4.94c7,.95,14,2,20.47,3.45,2.22.49,4.38,1.05,6.33,1.65A52.74,52.74,0,0,1,307.2,346a205.29,205.29,0,0,1-19.22,7.9c-13.42,4.93-27.33,9.48-41.06,15.35a127.57,127.57,0,0,0-20.27,10.61,52.77,52.77,0,0,0-9.39,7.8,28.19,28.19,0,0,0-6.79,11.56,22.79,22.79,0,0,0-.73,7.07,19.76,19.76,0,0,0,1.65,7,26.87,26.87,0,0,0,8.19,10.17,51.52,51.52,0,0,0,10.11,6.17,97,97,0,0,0,10.53,4.25,171.52,171.52,0,0,0,21.45,5.62c7.19,1.46,14.41,2.64,21.64,3.6,14.46,1.88,28.94,3.12,43.44,3.89s29,1.22,43.5,1.19,29-.21,43.5-1c14.49-1,28.88-2.35,43.31-3.75s28.82-2.95,43.22-4.62c28.78-3.48,57.54-7.32,86.11-13.77,7.14-1.65,14.26-3.51,21.35-5.8s14.16-5,21.07-9.46a35.66,35.66,0,0,0,5.1-4,21.33,21.33,0,0,0,4.39-6.2,17.49,17.49,0,0,0,1.27-8.27,19.43,19.43,0,0,0-2.2-7.64,20.1,20.1,0,0,0-5.09-6.11,29.1,29.1,0,0,0-6-3.74A55.18,55.18,0,0,0,614.32,370a182.12,182.12,0,0,0-22.55-2.72l-21.65-1.46c-7.09-.53-14.07-1.21-20.75-2.33a82.45,82.45,0,0,1-18.56-5.07c-5.48-2.35-9.69-5.52-12-9.25-.09-.14-.17-.29-.25-.44l.52-.25a42.9,42.9,0,0,1,7.74-2.62c3-.77,6.22-1.38,9.5-1.93,6.6-1.08,13.48-1.82,20.45-2.38,13.94-1.09,28.18-1.64,42.48-1.92s28.68-.46,43.1-.6,28.92-.22,43.48-.53,29.2-.69,44.2-1.74A217.5,217.5,0,0,0,753.34,334c2.08-.38,4.24-.83,6.55-1.45,1.2-.36,2.29-.62,3.65-1.13l2-.7,2.25-1,1.13-.54,1.38-.79,1.36-.84a14.37,14.37,0,0,0,1.55-1.13c.58-.46,1.13-.94,1.68-1.44a14.42,14.42,0,0,0,1.78-1.9,27,27,0,0,0,1.84-2.55,15.51,15.51,0,0,0,1.09-2l.73-1.6c.23-.59.45-1.21.65-1.83a26.15,26.15,0,0,0,.94-4.05,23.84,23.84,0,0,0-.49-9.05,26.59,26.59,0,0,0-7.26-12.34,39.59,39.59,0,0,0-7.44-5.68,73.41,73.41,0,0,0-12.8-5.93,172.55,172.55,0,0,0-23.25-6.31c-12.27-2.54-24.36-4.16-36.41-5.43,7.74-2.95,15.46-6.06,23.15-9.46,13.79-6.16,27.54-12.9,40.91-22.41,6.65-4.84,13.29-10.33,19.18-18.15a48.88,48.88,0,0,0,7.41-14,39.45,39.45,0,0,0,1.8-8.68c.06-.76.13-1.51.14-2.27l0-1.14c0-.25,0-1.26-.08-1.86a20.26,20.26,0,0,0-.65-4,21,21,0,0,0-1.22-3.57,28.58,28.58,0,0,0-6.74-9.38,43.94,43.94,0,0,0-6.55-5,77.93,77.93,0,0,0-12-6.11,183.51,183.51,0,0,0-22.48-7.45c-14.74-3.94-29.31-6.74-43.87-9.19s-29.1-4.42-43.64-6.11c-29.07-3.35-58.11-5.91-87.18-7.52q-21.79-1.27-43.59-2.11c-14.54-.52-29.07-.86-43.6-1.11q-43.59-.72-87.17,0C330,128,272,130.5,214.06,137.89A406,406,0,0,0,170.8,146a123.9,123.9,0,0,0-21.37,7.33,41.89,41.89,0,0,0-10.34,6.5,19.64,19.64,0,0,0-4.45,5.5,14.78,14.78,0,0,0-1.38,3.76,10.76,10.76,0,0,0-.28,2c0,.33-.06.73,0,1l0,.78a31.94,31.94,0,0,0,2.76,12.32,37.12,37.12,0,0,0,7,10.26c5.62,5.93,12.38,9.93,19.18,13.27,13.74,6.47,28.06,10.28,42.34,13.55,28.56,6.44,57.59,9.81,85.33,16a125.46,125.46,0,0,1,19.66,5.89,24.52,24.52,0,0,1,7.16,4.18,3.47,3.47,0,0,1,.27.3,9.19,9.19,0,0,1-1.44.39,16,16,0,0,1-2.05.37,64,64,0,0,1-9.62.53c-6.78-.07-13.8-.62-20.85-1.36-14.1-1.48-28.32-3.6-42.58-5.76l-42.93-6.63q-21.55-3.32-43.45-5.75c-14.62-1.55-29.37-2.93-44.6-2.92a171.23,171.23,0,0,0-23.49,1.4,83.27,83.27,0,0,0-12.58,2.69A46.43,46.43,0,0,0,59.29,238c-1.19.82-2.4,1.89-3.56,2.88a45.8,45.8,0,0,0-3.35,3.69,34.13,34.13,0,0,0-2.8,4.52,26.38,26.38,0,0,0-1.92,5c-.22.85-.43,1.72-.61,2.59a24.4,24.4,0,0,0-.31,2.52c-.07.83-.13,1.67-.17,2.51S46.61,263.39,46.65,264.21Zm270.46,75c.15-.5.34-.47,0,0Zm200.28,7.17a.51.51,0,0,1,.15.3s0,.11,0,.21l-.18-.36,0-.07A.06.06,0,0,0,517.39,346.41Zm235.92-46.47h0Zm3.74-106.36c.17.17.15.21,0,0Zm-439.7,56.11c-.05,0,0,.05,0,.08s0,.08,0,0a.66.66,0,0,1,0-.31A.52.52,0,0,1,317.35,249.69ZM74.47,261.26a1.2,1.2,0,0,0,.28-.33c.25-.15.35-.35.64-.56a19.8,19.8,0,0,1,5.8-2.73,61.11,61.11,0,0,1,8.58-2,143.43,143.43,0,0,1,19.76-1.81c13.71-.4,27.88.06,42.08,1s28.5,2.26,42.85,3.56c28.73,2.61,57.48,6.07,86.94,7.57,7.38.34,14.83.52,22.51.16a88.56,88.56,0,0,0,12-1.35,30.39,30.39,0,0,0,3.25-.78,25.22,25.22,0,0,0,3.47-1.2,14.67,14.67,0,0,0,1.9-.91,12.62,12.62,0,0,0,2-1.22,18.88,18.88,0,0,0,2.05-1.72,20.21,20.21,0,0,0,1.93-2.47,19.84,19.84,0,0,0,1.34-3.16,20.28,20.28,0,0,0,.42-3.29,24.89,24.89,0,0,0-.24-2.64,19.85,19.85,0,0,0-.7-2.54,18.07,18.07,0,0,0-5.28-7.33,38,38,0,0,0-11.69-6.35,138.88,138.88,0,0,0-22.16-5.54c-14.57-2.59-28.94-4.38-43.27-6.33s-28.54-4-42.53-6.9S178.51,206,166,200.06c-6.16-3-12.05-6.51-16.43-11.13a23.78,23.78,0,0,1-7.09-16.3c-.69-3.75,5-7.92,11-10.62a113.2,113.2,0,0,1,19.71-6.47c13.73-3.36,27.95-5.39,42.18-7s28.59-2.73,43-3.59,28.77-1.23,43.17-1.51c28.81-.61,57.66-.14,86.49.68s57.63,2.31,86.39,4.19q21.57,1.43,43.1,3.2t43,3.75c28.62,2.87,57.2,5.88,85.53,10,14.15,2.06,28.25,4.29,42.19,6.9s27.74,5.61,40.88,9.42a155.29,155.29,0,0,1,18.58,6.54,49.37,49.37,0,0,1,7.28,3.86c.22.14.42.28.61.42a1.06,1.06,0,0,0-.06.19,18.8,18.8,0,0,1-2.92,5c-2.88,3.73-7.48,7.63-12.58,11.18-10.34,7.14-22.76,13.15-35.46,18.55s-26,10.16-39.5,14.67-27.11,8.62-41.29,13.39c-3.62,1.25-7.12,2.42-11.42,4.25-1.12.49-2.27,1-3.81,1.83a28,28,0,0,0-2.94,1.83,20.71,20.71,0,0,0-2.56,2.17,17.71,17.71,0,0,0-4.56,7.46c-2.39,4.89.8,15.2,4,17.21a17.65,17.65,0,0,0,6,4.18,22.37,22.37,0,0,0,4.74,1.48,42.42,42.42,0,0,0,4.68.65c4.85.38,8.74.27,12.13.33l10.56.18c14.09.41,28.22,1.09,42.21,2.34,13.66,1.2,27.27,2.94,40.27,5.4-12.52,1-25.36,1.62-38.23,2.14l-43.3,1.67c-29,1.28-58.13,2.59-87.75,6.53-7.42,1-14.87,2.28-22.48,4-3.81.88-7.63,1.83-11.59,3.16a64.74,64.74,0,0,0-12.38,5.39,31.75,31.75,0,0,0-3.38,2.24c-.58.45-1.14.85-1.73,1.36s-1.2,1.13-1.79,1.72a16.44,16.44,0,0,0-1.75,2.05,17.6,17.6,0,0,0-1.65,2.44c-.51,1-1,1.95-1.39,2.94a25.72,25.72,0,0,0-.89,3.35,15.57,15.57,0,0,0-.28,3.4,13.74,13.74,0,0,0,.28,3.23c.19,1,.42,2,.7,2.95s.64,1.63,1,2.43l.55,1.19.46.81.95,1.62c.69,1,1.38,2.1,2.15,3.09a42.47,42.47,0,0,0,10.7,9.84,55.84,55.84,0,0,0,12,5.81,99,99,0,0,0,23.63,4.69c7.68.68,15.16.81,22.53.81l21.73-.21a167.34,167.34,0,0,1,20.68.92,42.17,42.17,0,0,1,9,2c2.6,1,4.44,2.24,5.35,3.64a7,7,0,0,1,1,5,9.12,9.12,0,0,1-1.66,2.73,24.84,24.84,0,0,1-3.2,2.92c-5,3.81-11.44,6.77-17.9,9.39s-13.29,4.84-20.16,6.82c-13.73,4-27.78,7.23-41.91,10s-28.39,5.21-42.67,7.37c-28.56,4.27-57.35,7.47-86.11,9.82A660.76,660.76,0,0,1,327,442.67c-14.37-1.23-28.7-2.84-42.84-5.39s-28.19-5.75-41.2-11c-6.43-2.61-12.75-5.78-17.42-10a17.21,17.21,0,0,1-4.93-6.82,9.44,9.44,0,0,1-.6-3.57,12.29,12.29,0,0,1,.65-3.65c1.7-4.69,6.73-8.85,12.43-12.06a115.57,115.57,0,0,1,18.81-8.13c13.27-4.59,27.19-8.05,41.29-12.07a222.59,222.59,0,0,0,21.5-7.07A65.64,65.64,0,0,0,326,357.22a30.09,30.09,0,0,0,6-5,19.73,19.73,0,0,0,4.87-9.56,15.62,15.62,0,0,0,.2-1.55,14,14,0,0,0,.08-1.74,13.55,13.55,0,0,0-1.15-5.18,16.33,16.33,0,0,0-4.39-5.77,24.9,24.9,0,0,0-3.8-2.67c-1.17-.69-2.25-1.22-3.31-1.72a84.18,84.18,0,0,0-11.76-4.21c-7.5-2.16-14.78-3.73-22.05-5.2-14.5-2.94-28.89-5.15-43.22-7.4l-42.84-6.52q-21.33-3.18-42.36-7c-14-2.49-27.87-5.39-41.3-8.83-6.71-1.73-13.3-3.66-19.58-5.89a107,107,0,0,1-17.33-7.66,38.23,38.23,0,0,1-6.38-4.51,11.9,11.9,0,0,1-2.93-3.68,3.9,3.9,0,0,1-.3-1,1.22,1.22,0,0,0,0-.26.43.43,0,0,0,0-.19c0-.05-.06-.16,0-.18s0,0,0,0S74.49,261.42,74.47,261.26Z"/>
</svg>
