<svg id="Calque_1" data-name="Calque 1" xmlns="http://www.w3.org/2000/svg" width="29.7cm" height="21cm" viewBox="0 0 841.89 595.28">
  <defs>
    <style>
      .cls-1 {
        fill: #fff;
      }
    </style>
  </defs>
  <title>Plan de travail 2</title>
  <metadata><?xpacket begin="﻿" id="W5M0MpCehiHzreSzNTczkc9d"?>
<x:xmpmeta xmlns:x="adobe:ns:meta/" x:xmptk="Adobe XMP Core 5.6-c137 79.159547, 2016/07/07-11:39:24        ">
   <rdf:RDF xmlns:rdf="http://www.w3.org/1999/02/22-rdf-syntax-ns#">
      <rdf:Description rdf:about=""
            xmlns:dc="http://purl.org/dc/elements/1.1/"
            xmlns:xmpMM="http://ns.adobe.com/xap/1.0/mm/"
            xmlns:stEvt="http://ns.adobe.com/xap/1.0/sType/ResourceEvent#"
            xmlns:xmp="http://ns.adobe.com/xap/1.0/">
         <dc:title>
            <rdf:Alt>
               <rdf:li xml:lang="x-default">Plan de travail 2</rdf:li>
            </rdf:Alt>
         </dc:title>
         <xmpMM:PreservedFileName>03.svg</xmpMM:PreservedFileName>
         <xmpMM:InstanceID>xmp.iid:7f2d2562-9f87-40ae-b9bd-a4ef8fc3e092</xmpMM:InstanceID>
         <xmpMM:DocumentID>xmp.did:7f2d2562-9f87-40ae-b9bd-a4ef8fc3e092</xmpMM:DocumentID>
         <xmpMM:OriginalDocumentID>xmp.did:7f2d2562-9f87-40ae-b9bd-a4ef8fc3e092</xmpMM:OriginalDocumentID>
         <xmpMM:History>
            <rdf:Seq>
               <rdf:li>
                  <rdf:Description>
                     <stEvt:action>saved</stEvt:action>
                     <stEvt:instanceID>xmp.iid:7f2d2562-9f87-40ae-b9bd-a4ef8fc3e092</stEvt:instanceID>
                     <stEvt:when>2018-09-27T10:33:59+02:00</stEvt:when>
                     <stEvt:softwareAgent>Adobe Bridge CC 2017 (Macintosh)</stEvt:softwareAgent>
                     <stEvt:changed>/metadata</stEvt:changed>
                  </rdf:Description>
               </rdf:li>
            </rdf:Seq>
         </xmpMM:History>
         <xmp:MetadataDate>2018-09-27T10:33:59+02:00</xmp:MetadataDate>
      </rdf:Description>
   </rdf:RDF>
</x:xmpmeta>
                                                                                                    
                                                                                                    
                                                                                                    
                                                                                                    
                                                                                                    
                                                                                                    
                                                                                                    
                                                                                                    
                                                                                                    
                                                                                                    
                                                                                                    
                                                                                                    
                                                                                                    
                                                                                                    
                                                                                                    
                                                                                                    
                                                                                                    
                                                                                                    
                                                                                                    
                                                                                                    
                           
<?xpacket end="w"?></metadata>
<path class="cls-1" d="M381.3,485.86a154.47,154.47,0,0,1-42.18-6.59,105,105,0,0,1-20-8,52.76,52.76,0,0,1-9.07-6.1,26.9,26.9,0,0,1-7-8.84,17,17,0,0,1-1.44-5.76,20.44,20.44,0,0,1,0-2.93,27.35,27.35,0,0,1,.41-2.86,27.67,27.67,0,0,1,4.62-10.38c4.36-6.18,10.3-10.81,16.59-14.51a86.65,86.65,0,0,1,20.17-8.4,87.75,87.75,0,0,1,21.68-3.32c.81,0,1.62-.07,2.35-.17a8.77,8.77,0,0,0,1.86-.37l.19-.08c-.09,0,0,0-.23.13a2.29,2.29,0,0,0-.65.91,2.56,2.56,0,0,0-.14,1.58,2.42,2.42,0,0,0,.2.54c.08.09,0,0,0,0a1.92,1.92,0,0,1-.23-.19l-.34-.24a25.4,25.4,0,0,0-4-2.07c-1.51-.64-3.08-1.23-4.69-1.78a169.94,169.94,0,0,0-20-5.26A348.06,348.06,0,0,0,298,395.54c-13.91-1.12-27.86-1.54-41.79-1.35l-10.52.22c-3.69,0-7.38.12-11.1-.09s-7.44-.47-11.18-.8c-3.74-.51-7.49-1-11.24-1.84A87.48,87.48,0,0,1,189.87,384c-.9-.49-1.82-.94-2.72-1.46l-2.65-1.7a54,54,0,0,1-5.16-3.82c-.84-.69-1.63-1.51-2.44-2.27l-1.2-1.16c-.4-.39-.76-.86-1.13-1.29-.74-.89-1.5-1.75-2.2-2.68s-1.33-2-2-3a33.2,33.2,0,0,1-4.66-14.39,29.61,29.61,0,0,1,3-15.5,37,37,0,0,1,9.29-11.63l2.8-2.17c1-.67,1.93-1.24,2.9-1.86l1.47-.89,1.5-.75,3-1.46a71.43,71.43,0,0,1,24.45-5.23l3-.14,2.5-.07c1.65-.05,3.28-.13,4.9-.23A90.77,90.77,0,0,0,234,311.2c1.45-.25,2.85-.54,4.11-.88a19.58,19.58,0,0,0,3.1-1.09,3.56,3.56,0,0,0,.65-.38c.07,0-.05,0-.49.46a6.39,6.39,0,0,0-1.39,2.89,7.16,7.16,0,0,0,.17,3.68,4.06,4.06,0,0,0,.53,1.11c0,.06-.13-.1-.34-.29a18.21,18.21,0,0,0-2.42-1.58,45.91,45.91,0,0,0-7.56-3.14,86.36,86.36,0,0,0-18.18-3.55c-3.16-.3-6.35-.47-9.55-.49-1.47,0-3.57,0-5.35-.05l-5.48-.15a410.71,410.71,0,0,1-43.5-3.68c-14.49-2.11-29-4.9-43.57-10A97.19,97.19,0,0,1,83,283.48a52.66,52.66,0,0,1-10.21-8.89,36.63,36.63,0,0,1-7.55-13.22,32.54,32.54,0,0,1-1.46-7.85,31.2,31.2,0,0,1,0-4c0-.69,0-1.33.16-2.06s.22-1.43.35-2.14a24.83,24.83,0,0,1,9.9-15.51,35.77,35.77,0,0,1,14-5.73,70.81,70.81,0,0,1,12.44-1.2,157.6,157.6,0,0,1,22.65,1.63c7.28,1,14.41,2.24,21.46,3.63,28.17,5.6,55.47,12.61,83,18.16,13.74,2.79,27.5,5.26,41.3,6.89,6.89.81,13.79,1.43,20.66,1.71a186.28,186.28,0,0,0,20.5-.24,42.69,42.69,0,0,0,9.15-1.56,11.55,11.55,0,0,0,1.58-.65,3.25,3.25,0,0,0,.45-.27.38.38,0,0,1,.15-.09h0s0,0,0,.07,0,.1-.06.16a.34.34,0,0,0,0,.22.25.25,0,0,0,0,.17c0,.17.09.08-.09-.3a11.55,11.55,0,0,0-2-3,43.34,43.34,0,0,0-3.27-3.45c-2.38-2.29-5-4.54-7.7-6.75-5.39-4.41-11-8.76-16.52-13.37a142.6,142.6,0,0,1-15.89-15.11,51.41,51.41,0,0,1-6.67-9.47,30.93,30.93,0,0,1-2.31-5.76,22.64,22.64,0,0,1-.63-3.22,13,13,0,0,1-.13-1.67l0-.84,0-.73a54.9,54.9,0,0,1,1.51-11.36,68.7,68.7,0,0,1,3.44-10.72c5.72-13.83,15-25.7,26-35.44a122.13,122.13,0,0,1,17.66-13,133.53,133.53,0,0,1,19.5-9.86,173.27,173.27,0,0,1,42-11.11c14.33-2.1,28.86-2.33,43.11-2a418.4,418.4,0,0,1,42.85,3.06,378.12,378.12,0,0,1,42.45,7.53,264.51,264.51,0,0,1,41.46,13.31,168.54,168.54,0,0,1,19.88,9.87,109.8,109.8,0,0,1,18.55,13.38,64.21,64.21,0,0,1,14.85,19.27l1.35,2.92c.41,1,.72,2,1.08,3.07a30.77,30.77,0,0,1,1,3.14l.67,3.24c.1.54.22,1.08.31,1.63l.15,1.65.25,3.32c.07,1.11,0,2.18-.06,3.27s0,2.18-.19,3.26a53.44,53.44,0,0,1-9.06,24A77.32,77.32,0,0,1,578,228.87a123.81,123.81,0,0,1-19.56,12.25,198.74,198.74,0,0,1-20.59,9q-10.47,3.82-21.1,6.78c-7.1,1.9-14.23,3.63-21.4,5a391.74,391.74,0,0,1-43.21,6.15c-3.62.37-7.24.57-10.85.86s-7.24.43-10.86.6-7.24.31-10.86.35L409,270.1a176.91,176.91,0,0,0-19.71,1.49,92.88,92.88,0,0,0-9.18,1.71,48.63,48.63,0,0,0-8,2.59,26.58,26.58,0,0,0-3,1.56,10.88,10.88,0,0,0-1.71,1.36c-.32.34-.3.45-.18.23a2.11,2.11,0,0,0,.19-.84c0-.17,0,0,.24.46a10.8,10.8,0,0,0,1.28,1.83,26.67,26.67,0,0,0,5.27,4.58,56.91,56.91,0,0,0,15.46,7.16,73,73,0,0,0,17.54,3c11.77.55,23.94-2.13,36.5-6.41s25.45-9.84,38.76-15.15c6.66-2.66,13.42-5.27,20.27-7.75s13.83-4.78,20.88-6.89a345.88,345.88,0,0,1,43.13-9.88,351.64,351.64,0,0,1,44-4.2,285.35,285.35,0,0,1,44.56,1.55,206.8,206.8,0,0,1,44.35,10.26c1.82.59,3.59,1.37,5.39,2.05s3.59,1.38,5.34,2.2l5.29,2.37,5.18,2.62a158.88,158.88,0,0,1,19.81,12.35,140,140,0,0,1,17.71,15.52,121.51,121.51,0,0,1,14.81,18.68,99.72,99.72,0,0,1,6,10.62,76.62,76.62,0,0,1,4.68,12.09,41.42,41.42,0,0,1,1.5,7.8l.07,1.31a12.55,12.55,0,0,1,0,1.4,33.22,33.22,0,0,1-.33,3.33c-.2,1-.45,2-.73,2.93a24.77,24.77,0,0,1-1,2.56c-.17.41-.35.84-.54,1.21l-.58,1.06c-.39.69-.79,1.43-1.21,2l-1.27,1.78c-.21.28-.43.59-.65.86l-.65.76a34.76,34.76,0,0,1-2.66,2.83l-1.34,1.28c-.45.42-.9.76-1.35,1.14a64.24,64.24,0,0,1-10.84,7.3c-1.81,1.06-3.62,1.86-5.43,2.79s-3.62,1.65-5.43,2.38a180.31,180.31,0,0,1-21.67,7.2,326.82,326.82,0,0,1-43.29,7.94c-14.41,1.73-28.78,2.75-43.12,3.31s-28.65.68-42.93.47q-42.81-.68-85.34-4.56c-14.19-1.33-28.36-3.07-42.41-5.15l-10.5-1.53c-3.48-.5-7-1-10.26-1.28a28.12,28.12,0,0,0-4.54-.08,5.92,5.92,0,0,0-1.44.27,1.19,1.19,0,0,0-.45.23,6.83,6.83,0,0,0-.8,3.11c-.16,1.55-.2,3.27-.23,5l-.07,5.29-.05,2.68c0,.89,0,1.62,0,2.44a17.18,17.18,0,0,0,2.26,8.5c1.44,2.43,3.92,4.22,6.84,5.83s6.28,3,9.51,5.18a20.79,20.79,0,0,1,7.81,9A28.64,28.64,0,0,1,473,445.15c0,.47,0,.93,0,1.41L472.9,448l-.12,1.46-.3,1.44-.31,1.43-.49,1.39c-.16.46-.31.93-.49,1.38l-.65,1.3a29.15,29.15,0,0,1-7.1,8.84c-5.67,4.88-12.33,8-19,10.59a138.94,138.94,0,0,1-20.67,5.71A218.45,218.45,0,0,1,381.3,485.86Zm0-2.71a208.18,208.18,0,0,0,21-1.27,202,202,0,0,0,20.78-3.33,136.14,136.14,0,0,0,20.06-5.95c6.41-2.59,12.7-5.74,17.63-10.3a25.13,25.13,0,0,0,5.88-7.74,19,19,0,0,0,1.71-9.27A23.15,23.15,0,0,0,466.3,436a15.62,15.62,0,0,0-6.22-6.53c-2.74-1.67-5.95-2.9-9.3-4.57a31.6,31.6,0,0,1-5-3,19.47,19.47,0,0,1-7.06-10.15,28.22,28.22,0,0,1-.73-2.95c-.15-1-.29-2-.38-2.94s-.13-2-.15-2.87l-.09-2.62-.19-5.31c-.05-1.8-.1-3.62,0-5.6a21.86,21.86,0,0,1,.39-3.21,10.59,10.59,0,0,1,1.51-3.81,8.92,8.92,0,0,1,3.62-3.07,13.46,13.46,0,0,1,3.67-1.06,36.45,36.45,0,0,1,6-.28c3.76.11,7.31.43,10.86.72l10.57.92q21,1.74,42.08,2.37c14,.43,28.09.47,42.14.27s28.12-.69,42.11-1.38c28-1.41,55.88-3.86,83.07-8.47A320.61,320.61,0,0,0,723,363.3a155.37,155.37,0,0,0,18.34-6.8c1.45-.64,2.81-1.35,4.22-2s2.72-1.42,3.92-2.2a42.84,42.84,0,0,0,6.61-4.69c.22-.2.48-.39.67-.59l.55-.57a11.6,11.6,0,0,0,.94-1.05l.21-.25a1.73,1.73,0,0,0,.13-.21,3.39,3.39,0,0,1,.27-.39c.08-.11.06-.17.11-.25l.07-.1s0,0,0,0,0,0,0,.09a.56.56,0,0,0-.09.35,1.8,1.8,0,0,0-.09.7c0,.17,0,0,0,.07h0a20.17,20.17,0,0,0-.65-2.57,50.38,50.38,0,0,0-3.2-7.58,80,80,0,0,0-4.58-7.73,94.29,94.29,0,0,0-11.76-14.3A111.9,111.9,0,0,0,724.2,301a137.15,137.15,0,0,0-34.06-17.27,179,179,0,0,0-38.22-8.43,274,274,0,0,0-40.14-1.22A347.06,347.06,0,0,0,571.36,278a318.49,318.49,0,0,0-39.56,8.83Q522,289.67,512.34,293c-6.47,2.26-12.94,4.67-19.44,7.18-13,5-26.16,10.54-40.46,15.15A162.59,162.59,0,0,1,430,321a105.69,105.69,0,0,1-24.27,1.42,98.76,98.76,0,0,1-24.08-4.58A83.49,83.49,0,0,1,359,306.69a52.73,52.73,0,0,1-10.39-9.63,35.58,35.58,0,0,1-4.48-7,27.24,27.24,0,0,1-2.65-9.68,24.18,24.18,0,0,1,1.78-11.21,26.43,26.43,0,0,1,5.76-8.48,35.86,35.86,0,0,1,6.62-5.14,50.53,50.53,0,0,1,6.45-3.24,73.57,73.57,0,0,1,12.24-3.79,117.13,117.13,0,0,1,11.7-2,200.11,200.11,0,0,1,22.59-1.31h10.63c3.45,0,6.89-.1,10.34-.14l10.33-.37c3.44-.2,6.88-.32,10.31-.6s6.86-.49,10.28-.84,6.84-.69,10.25-1.08,6.8-.87,10.2-1.31,6.78-1,10.13-1.62a279.36,279.36,0,0,0,39.5-9.65,175,175,0,0,0,18.5-7.36,103.53,103.53,0,0,0,16.71-9.64,58.37,58.37,0,0,0,13.08-12.41,34.21,34.21,0,0,0,6.52-15c.14-.66.12-1.35.2-2s.17-1.37.14-2l-.08-2,0-1c0-.33-.11-.66-.16-1l-.31-2a15.77,15.77,0,0,0-.52-2c-.2-.64-.33-1.31-.57-1.95l-.81-1.93a47.13,47.13,0,0,0-10.33-14.55,93.54,93.54,0,0,0-15.29-12.06A150,150,0,0,0,540,133a250.52,250.52,0,0,0-38.68-14.21c-6.66-1.94-13.42-3.53-20.2-5.06s-13.64-2.76-20.54-3.8a386.35,386.35,0,0,0-41.62-4.3c-14-.62-27.86-.84-41.57,1l-5.13.66-5.1.87c-1.71.26-3.39.63-5.07,1s-3.38.67-5,1.13a148.78,148.78,0,0,0-19.62,6.27,118.32,118.32,0,0,0-34.91,21.12,96.86,96.86,0,0,0-13.81,14.9,80.74,80.74,0,0,0-9.92,17.51,59.64,59.64,0,0,0-3,9.46,43.58,43.58,0,0,0-1.18,9.63c-.21,5.33,3.52,10.87,7.88,15.78a123.48,123.48,0,0,0,15.13,13.77c5.44,4.34,11.1,8.51,16.76,12.92,2.83,2.21,5.68,4.45,8.47,7a57.32,57.32,0,0,1,4.16,4.11,21.86,21.86,0,0,1,3.86,5.75,11.11,11.11,0,0,1,.95,4.84c0,.5-.09,1-.17,1.5s-.29,1-.46,1.47a7.17,7.17,0,0,1-.66,1.33,6.21,6.21,0,0,1-.8,1.16q-.42.51-.87,1l-.88.76a14.06,14.06,0,0,1-1.75,1.2A20.69,20.69,0,0,1,323,263.2a39.47,39.47,0,0,1-5.95,1.63c-1.93.39-3.8.66-5.66.9a197.58,197.58,0,0,1-21.88,1.15q-10.89,0-21.66-.82c-14.36-1.07-28.58-2.86-42.69-5-28.19-4.21-56-9.89-83.61-14-6.88-1-13.74-1.86-20.5-2.48a138.51,138.51,0,0,0-19.68-.59,49.42,49.42,0,0,0-8.61,1.12,14.4,14.4,0,0,0-5.45,2.28,2.77,2.77,0,0,0-1,2.06,2.61,2.61,0,0,1,0,.48,5.41,5.41,0,0,0,0,.58,10,10,0,0,0,0,1.31,10.13,10.13,0,0,0,.58,2.53,14.07,14.07,0,0,0,3.13,4.91,30.35,30.35,0,0,0,5.94,4.77,76.33,76.33,0,0,0,16.57,7.52c12.25,4,25.63,6.55,39.12,8.36s27.29,2.89,41,3.35l5.12.14,5.26.06c3.86.08,7.74.32,11.61.73a109.46,109.46,0,0,1,23.31,4.88,63,63,0,0,1,11.88,5.26,38.74,38.74,0,0,1,6.26,4.48,26.66,26.66,0,0,1,3.32,3.53,20.1,20.1,0,0,1,3.12,5.7,16.73,16.73,0,0,1,.6,8.89,17,17,0,0,1-3.78,7.56,20.18,20.18,0,0,1-4.5,3.9,27.45,27.45,0,0,1-4,2.15,52.13,52.13,0,0,1-13.22,3.52,114,114,0,0,1-11.79,1c-1.91.05-3.81.08-5.7.08l-2.8,0-2.27,0A52.38,52.38,0,0,0,198,338l-1.79.79-.91.38-.81.46c-.53.31-1.11.58-1.62.9s-1,.69-1.44,1a16.37,16.37,0,0,0-4.15,4.56,9.44,9.44,0,0,0-1.32,5,13,13,0,0,0,1.52,5.68c.29.49.58,1,.85,1.5s.74,1,1.1,1.47c.19.24.34.51.56.74l.68.71c.46.47.85,1,1.36,1.43a35.57,35.57,0,0,0,3.22,2.66l1.74,1.27c.61.4,1.26.76,1.89,1.15a69.15,69.15,0,0,0,17.3,7.1c3.11.92,6.35,1.51,9.58,2.19,3.28.49,6.56,1.08,9.91,1.35s6.72.55,10.1.74l10.68.47q21.51,1.1,42.84,4.14a358.32,358.32,0,0,1,42.2,8.52A183.67,183.67,0,0,1,362.19,399c1.7.7,3.4,1.44,5.11,2.29a31.16,31.16,0,0,1,5.21,3.12l.69.58c.25.23.5.46.74.72a7.26,7.26,0,0,1,.81,1,5.77,5.77,0,0,1,.77,1.73,4.73,4.73,0,0,1-.21,2.87,4.89,4.89,0,0,1-1.46,1.94,6.17,6.17,0,0,1-1.35.83c-.34.13-.74.29-1.05.38a15.37,15.37,0,0,1-3.36.55c-1,.08-2,.08-2.94.07a81.5,81.5,0,0,0-39.46,9.21c-6,3.22-11.64,7.28-15.58,12.62a23.5,23.5,0,0,0-4.2,8.74,24,24,0,0,0-.42,2.37,15.8,15.8,0,0,0-.06,2.37,13.13,13.13,0,0,0,1,4.5,22.83,22.83,0,0,0,5.92,7.73,48.22,48.22,0,0,0,8.4,5.84,102.05,102.05,0,0,0,19.24,8,155.23,155.23,0,0,0,20.45,4.78A135.84,135.84,0,0,0,381.3,483.15Z"/>
</svg>
