<svg id="Calque_1" data-name="Calque 1" xmlns="http://www.w3.org/2000/svg" width="29.7cm" height="21cm" viewBox="0 0 841.89 595.28">
  <defs>
    <style>
      .cls-1 {
        fill: #fff;
      }
    </style>
  </defs>
  <title>Plan de travail 3</title>
  <metadata><?xpacket begin="﻿" id="W5M0MpCehiHzreSzNTczkc9d"?>
<x:xmpmeta xmlns:x="adobe:ns:meta/" x:xmptk="Adobe XMP Core 5.6-c137 79.159547, 2016/07/07-11:39:24        ">
   <rdf:RDF xmlns:rdf="http://www.w3.org/1999/02/22-rdf-syntax-ns#">
      <rdf:Description rdf:about=""
            xmlns:dc="http://purl.org/dc/elements/1.1/"
            xmlns:xmpMM="http://ns.adobe.com/xap/1.0/mm/"
            xmlns:stEvt="http://ns.adobe.com/xap/1.0/sType/ResourceEvent#"
            xmlns:xmp="http://ns.adobe.com/xap/1.0/">
         <dc:title>
            <rdf:Alt>
               <rdf:li xml:lang="x-default">Plan de travail 3</rdf:li>
            </rdf:Alt>
         </dc:title>
         <xmpMM:PreservedFileName>04.svg</xmpMM:PreservedFileName>
         <xmpMM:InstanceID>xmp.iid:147a42a5-f066-4041-ad50-f5b28f969871</xmpMM:InstanceID>
         <xmpMM:DocumentID>xmp.did:147a42a5-f066-4041-ad50-f5b28f969871</xmpMM:DocumentID>
         <xmpMM:OriginalDocumentID>xmp.did:147a42a5-f066-4041-ad50-f5b28f969871</xmpMM:OriginalDocumentID>
         <xmpMM:History>
            <rdf:Seq>
               <rdf:li>
                  <rdf:Description>
                     <stEvt:action>saved</stEvt:action>
                     <stEvt:instanceID>xmp.iid:147a42a5-f066-4041-ad50-f5b28f969871</stEvt:instanceID>
                     <stEvt:when>2018-09-27T10:33:59+02:00</stEvt:when>
                     <stEvt:softwareAgent>Adobe Bridge CC 2017 (Macintosh)</stEvt:softwareAgent>
                     <stEvt:changed>/metadata</stEvt:changed>
                  </rdf:Description>
               </rdf:li>
            </rdf:Seq>
         </xmpMM:History>
         <xmp:MetadataDate>2018-09-27T10:33:59+02:00</xmp:MetadataDate>
      </rdf:Description>
   </rdf:RDF>
</x:xmpmeta>
                                                                                                    
                                                                                                    
                                                                                                    
                                                                                                    
                                                                                                    
                                                                                                    
                                                                                                    
                                                                                                    
                                                                                                    
                                                                                                    
                                                                                                    
                                                                                                    
                                                                                                    
                                                                                                    
                                                                                                    
                                                                                                    
                                                                                                    
                                                                                                    
                                                                                                    
                                                                                                    
                           
<?xpacket end="w"?></metadata>
<path class="cls-1" d="M756.28,351.15a25.57,25.57,0,0,0-.52-4.8,28.91,28.91,0,0,0-1.24-4.35,34.64,34.64,0,0,0-1.74-3.73A40.34,40.34,0,0,0,744,327.56a64.63,64.63,0,0,0-9.44-6.78,104.3,104.3,0,0,0-18.8-8.48,160.19,160.19,0,0,0-18.59-5.13,272.8,272.8,0,0,0-36.62-5.2q-9.09-.74-18.1-1c-5.92-.2-12.28-.15-17.47-.25-10.87-.13-21.72-.9-32.46-2a280.4,280.4,0,0,1-31.72-5.19A199.3,199.3,0,0,1,531,284.6c-8.72-3.51-17-7.91-22.56-12.77,4.14.51,8.47,1.18,12.82,1.92,10.93,1.86,22.14,4.08,33.44,6.23,22.66,4.27,45.73,8.58,69.84,10.4a210.86,210.86,0,0,0,37.25-.13,107.33,107.33,0,0,0,19.59-3.78,66.42,66.42,0,0,0,19.41-9.27,51.41,51.41,0,0,0,8.41-7.48,47.22,47.22,0,0,0,6.29-9.16,51.93,51.93,0,0,0,5.55-19.64c.62-6.48-.17-12.5-.87-18.55l-2-9c-.88-2.91-2-5.77-3-8.64a107.09,107.09,0,0,0-19.09-30.41A154.82,154.82,0,0,0,670,150.72c-18.88-13.88-39.75-24.36-61-33.42-10.67-4.47-21.49-8.56-32.47-12.18S554.52,98,543.35,95A518.19,518.19,0,0,0,475.2,81.27c-5.79-.75-11.66-1.2-17.57-1.56a92.74,92.74,0,0,0-18.31.74A100.3,100.3,0,0,0,421.7,85.2a140,140,0,0,0-16.13,7.43,321.93,321.93,0,0,0-29,18.4c-9.29,6.39-18.34,12.88-27.65,18.82a225.58,225.58,0,0,1-28.62,15.83,120.41,120.41,0,0,1-30.37,9.38c-2.58.45-5.19.67-7.78,1-2.61.09-5.19.4-7.8.33l-8.25-.09-4.54-.07-4.53.08a254.8,254.8,0,0,0-36,3.33,263.89,263.89,0,0,0-35.09,8.31,230.3,230.3,0,0,0-33.67,13.12,175.78,175.78,0,0,0-31.21,19,109.43,109.43,0,0,0-26,27.38,68,68,0,0,0-8.31,18.17,60.83,60.83,0,0,0-2,10.12l-.29,5.22c0,1.62,0,2.92,0,4.4.27,11.5,1.67,23.59,6.17,35.74a71.05,71.05,0,0,0,23.83,32.14,91.79,91.79,0,0,0,17.33,10.23A119.92,119.92,0,0,0,150,350.07a202.12,202.12,0,0,0,36.44,6.45,353.83,353.83,0,0,0,35.8,1.49l4.43-.05,2.22,0H230l.92,0,7.34.21,7.27,1a23.2,23.2,0,0,1,3.6.73l3.59.85a95.39,95.39,0,0,1,27.17,12.4c2.08,1.47,4.3,2.75,6.3,4.37l6.07,4.78,5.78,5.19c1.93,1.74,3.68,3.68,5.56,5.49a216.28,216.28,0,0,1,20.23,24.2,367.79,367.79,0,0,1,32,55.16c4.58,9.65,9,19.42,12.93,29.36,2,5,4,9.95,5.82,15l2.72,7.56,1.32,3.79.64,1.9.32,1,.19.61a2.47,2.47,0,0,0,1.95,1.57,14.55,14.55,0,0,0,1.36-2.55h0s0,0,0-.05.05-.12.07-.19a7.41,7.41,0,0,0,.28-1.72l.07-1,.32-4q.34-4,.84-7.89,1-7.86,2.65-15.55a124.89,124.89,0,0,1,10.14-29.44A97.18,97.18,0,0,1,440,427.06a127.13,127.13,0,0,1,29.7-11,185.68,185.68,0,0,1,32-4.94c2.7-.28,5.45-.36,8.19-.44s5.46-.24,8.21-.24l8.26.09,4.16,0,4.36.11c11.65.38,23.33.24,35,.08a656.58,656.58,0,0,0,70.34-4.94c11.73-1.56,23.46-3.53,35.18-6.08a280.33,280.33,0,0,0,35.1-9.8,158.87,158.87,0,0,0,17.53-7.33A78,78,0,0,0,746,371.05a30.6,30.6,0,0,0,2.34-2.27l1.16-1.23c.4-.45.82-1,1.21-1.5l1.18-1.55c.39-.54.82-1.28,1.2-1.93s.76-1.31,1.13-2.09.73-1.79,1-2.7l.43-1.39c.13-.58.24-1.18.33-1.78s.16-1.2.22-1.8S756.3,351.46,756.28,351.15ZM698.2,361.73a246.31,246.31,0,0,1-30.5,9.68c-10.55,2.69-21.37,4.91-32.31,6.76s-22,3.49-33.12,4.8-22.36,2.27-33.61,3.09-22.55,1.3-33.88,1.69l-4.25.17-4.46.22-9,.46c-3,.19-6,.55-9,.82s-6,.55-9,1.05c-23.79,3.17-47.84,10-68.38,23A109.28,109.28,0,0,0,404,437a105.12,105.12,0,0,0-17,29.8c-1.07,2.6-1.81,5.3-2.67,8-.69,2.69-1.49,5.36-2,8.07a133.58,133.58,0,0,0-2.54,16.26c-.42,3.94-.61,7.89-.67,11.82-.87-3.81-1.77-7.61-2.79-11.39-2.79-10.44-5.87-20.84-9.49-31.11-7.23-20.53-16.09-40.74-27.66-60a231.39,231.39,0,0,0-19.77-27.81,147.28,147.28,0,0,0-25.78-24.47,116.57,116.57,0,0,0-33.43-17.34l-4.69-1.38a38,38,0,0,0-4.75-1.2c-3.22-.59-6.46-1.21-9.71-1.69l-9.86-.7-1.24-.08-1,0-2.09-.06-4.19-.13c-11.13-.42-22.17-1.19-32.95-2.53a179.16,179.16,0,0,1-31-6.39A89.69,89.69,0,0,1,145,319.27a61.14,61.14,0,0,1-11.53-7.12A44.37,44.37,0,0,1,119.17,292c-2.93-8.08-4-17.46-4.2-27.23,0-1.18-.06-2.54,0-3.59s.12-1.84.15-2.76a34.94,34.94,0,0,1,1.13-5.58,45.61,45.61,0,0,1,5-11.2c4.61-7.4,11.29-14.39,19-20.68A164.46,164.46,0,0,1,165.91,204,243.52,243.52,0,0,1,226,181.41a229.25,229.25,0,0,1,32.23-5.32l4.07-.36,4.08-.23,9-.55c3.14-.17,6.24-.73,9.35-1.09,3.07-.59,6.16-1.1,9.18-1.85a144.9,144.9,0,0,0,33.93-13.07,237.45,237.45,0,0,0,29.31-18.71c18.41-13.33,35.17-27.94,54-38.9a131,131,0,0,1,14.54-7.1,81.64,81.64,0,0,1,15.35-4.34c10.25-1.64,21.62-.57,32.76.81s22.32,3.45,33.36,5.9,22,5.39,32.77,8.63,21.46,6.88,32,10.83,20.73,8.47,30.76,13.24a298,298,0,0,1,29,15.79A220.27,220.27,0,0,1,658,163.89a134.22,134.22,0,0,1,21.6,22.21,85.86,85.86,0,0,1,13.72,25.49c.58,2.26,1.26,4.48,1.79,6.73l1,6.8c.15,4.55.42,9.22-.3,13.36a29.27,29.27,0,0,1-3.7,11,21.65,21.65,0,0,1-7.44,7.45c-6.27,4-15.66,6.05-25.65,6.78a180.35,180.35,0,0,1-31.56-1c-21.65-2.38-43.64-6.87-65.85-11.72-11.13-2.41-22.32-4.94-33.93-7.23-5.83-1.14-11.72-2.23-18.08-3.05-3.15-.43-6.5-.74-10.09-.93l-2.81-.07c-1,0-2,0-3.05.06s-2.26.17-3.38.27-2.63.4-3.91.64c-.61.1-1.57.39-2.33.61s-1.51.44-2.48.84a24.42,24.42,0,0,0-6,3.43,20.71,20.71,0,0,0-5.64,6.56,24.86,24.86,0,0,0-1.66,4.09,23.4,23.4,0,0,0-.63,3.71c0,.55-.1,1.37-.09,1.71l0,.84.09,1.67a22.92,22.92,0,0,0,.36,3.33c.19,1.09.41,2.18.65,3.27s.62,2.08.95,3.12c2.81,8.31,7.92,14.55,13.09,19.64a89.52,89.52,0,0,0,16.56,12.42,145.7,145.7,0,0,0,17.33,8.73c23.37,9.83,47.42,14.79,71.54,17.66a346.88,346.88,0,0,0,36.27,2.28c6.3.08,11.43,0,17,.19s10.91.39,16.31.73a237.48,237.48,0,0,1,31.51,4,140.77,140.77,0,0,1,14.5,3.73A69.75,69.75,0,0,1,716,348.3a34.24,34.24,0,0,1,3.57,2.3,61.54,61.54,0,0,1-7.74,4.87A123.34,123.34,0,0,1,698.2,361.73ZM494.64,271.16h-.05a.6.6,0,0,1-.18,0S494.47,271.17,494.64,271.16Zm228.12,76.62a.36.36,0,0,1,0-.09.39.39,0,0,1,.09-.11s0,.05-.06.12Zm.13-.2.07-.08A.18.18,0,0,0,722.89,347.58Z"/>
</svg>
