<svg id="Calque_1" data-name="Calque 1" xmlns="http://www.w3.org/2000/svg" width="29.7cm" height="21cm" viewBox="0 0 841.89 595.28">
  <defs>
    <style>
      .cls-1 {
        fill: #fff;
      }
    </style>
  </defs>
  <title>Plan de travail 4</title>
  <metadata><?xpacket begin="﻿" id="W5M0MpCehiHzreSzNTczkc9d"?>
<x:xmpmeta xmlns:x="adobe:ns:meta/" x:xmptk="Adobe XMP Core 5.6-c137 79.159547, 2016/07/07-11:39:24        ">
   <rdf:RDF xmlns:rdf="http://www.w3.org/1999/02/22-rdf-syntax-ns#">
      <rdf:Description rdf:about=""
            xmlns:dc="http://purl.org/dc/elements/1.1/"
            xmlns:xmpMM="http://ns.adobe.com/xap/1.0/mm/"
            xmlns:stEvt="http://ns.adobe.com/xap/1.0/sType/ResourceEvent#"
            xmlns:xmp="http://ns.adobe.com/xap/1.0/">
         <dc:title>
            <rdf:Alt>
               <rdf:li xml:lang="x-default">Plan de travail 4</rdf:li>
            </rdf:Alt>
         </dc:title>
         <xmpMM:PreservedFileName>05.svg</xmpMM:PreservedFileName>
         <xmpMM:InstanceID>xmp.iid:c18ef9b8-34af-41d0-be16-cafaf2546e98</xmpMM:InstanceID>
         <xmpMM:DocumentID>xmp.did:c18ef9b8-34af-41d0-be16-cafaf2546e98</xmpMM:DocumentID>
         <xmpMM:OriginalDocumentID>xmp.did:c18ef9b8-34af-41d0-be16-cafaf2546e98</xmpMM:OriginalDocumentID>
         <xmpMM:History>
            <rdf:Seq>
               <rdf:li>
                  <rdf:Description>
                     <stEvt:action>saved</stEvt:action>
                     <stEvt:instanceID>xmp.iid:c18ef9b8-34af-41d0-be16-cafaf2546e98</stEvt:instanceID>
                     <stEvt:when>2018-09-27T10:33:59+02:00</stEvt:when>
                     <stEvt:softwareAgent>Adobe Bridge CC 2017 (Macintosh)</stEvt:softwareAgent>
                     <stEvt:changed>/metadata</stEvt:changed>
                  </rdf:Description>
               </rdf:li>
            </rdf:Seq>
         </xmpMM:History>
         <xmp:MetadataDate>2018-09-27T10:33:59+02:00</xmp:MetadataDate>
      </rdf:Description>
   </rdf:RDF>
</x:xmpmeta>
                                                                                                    
                                                                                                    
                                                                                                    
                                                                                                    
                                                                                                    
                                                                                                    
                                                                                                    
                                                                                                    
                                                                                                    
                                                                                                    
                                                                                                    
                                                                                                    
                                                                                                    
                                                                                                    
                                                                                                    
                                                                                                    
                                                                                                    
                                                                                                    
                                                                                                    
                                                                                                    
                           
<?xpacket end="w"?></metadata>
<g>
    <path class="cls-1" d="M782.21,356.81c0-.2.63.41,0,0Z"/>
    <path class="cls-1" d="M125.5,382.14A135.81,135.81,0,0,0,157,386.51c20.88.59,41.1-2.63,60.73-8.09a200.62,200.62,0,0,0,29.08-10.56c2.39-1.14,4.78-2.2,7.16-3.52l3.57-1.91c1.19-.67,2.38-1.43,3.57-2.14,2.37-1.37,4.78-3.1,7.16-4.81l.89-.64.54-.36,1-.66a13.4,13.4,0,0,1,1.9-1.22,14.13,14.13,0,0,1,6.42-2.22,14.6,14.6,0,0,1,6.34,1.13c5.1,1.85,11.69,6.73,18.06,12.39s13,12.35,19.84,19,14,13.47,21.61,20.06a207.3,207.3,0,0,0,24.74,18.56c4.47,2.81,9.06,5.51,13.87,7.92l3.62,1.8.94.45,1.17.51,2.36,1c1.59.63,3.29,1.13,5,1.66s3.45.88,5.24,1.17a51.89,51.89,0,0,0,21.55-.83,63.83,63.83,0,0,0,18.08-7.89c10.42-6.62,18.09-14.6,24.9-22.56,13.46-16,23.58-32.76,33.54-48.75,5-7.94,9.87-15.79,14.91-22.52a62.85,62.85,0,0,1,7.26-8.38l.53-.45,1.88,2.09,9.32,10.73c3.21,3.69,6.67,7.42,10.23,11.07s7.4,7.22,11.51,10.53a116.33,116.33,0,0,0,26.78,16.82A133,133,0,0,0,612,385.16a163.28,163.28,0,0,0,30.09,3c5,.17,9.93-.18,14.87-.3l7.35-.57c2.45-.18,4.89-.39,7.31-.71,19.44-2.15,38.34-6.35,56.84-11.43,4.65-1.2,9.22-2.65,13.79-4.08s9.13-2.85,13.64-4.43l6.77-2.33,3.41-1.2q2-.7,4-1.53c1.51-.61,3-1.32,4.42-2.05l1.41-.43,3.42-1.12,1.7-.58.85-.3.43-.15a.33.33,0,0,1,0-.1c-.21-.14-.57-.41-1.16-.87.94-.47,1.87-.9,2.81-1.28-3.41-2.43-1.94-.53-2.49-1.09l-.43.07-.88.13-1.75.27-3.5.5-7,.95c-4.68.59-9.37,1.06-14,1.54-9.36.94-18.73,1.46-28,1.72a247.37,247.37,0,0,1-27.69-.68,145.74,145.74,0,0,1-26.43-4.48c-8.34-2.33-16.16-5.69-22.05-10.42a30.55,30.55,0,0,1-11.3-17.46c-1.67-6.89-1.32-14.85.37-22.94l.67-3,.81-3.05.87-3.36.92-3.74a148.34,148.34,0,0,0,3-15.3c1.32-10.48,1.55-21.51-.75-32.73A69.69,69.69,0,0,0,629,209.89a63.85,63.85,0,0,0-6.3-6.44c-2.19-2-4.65-3.7-7-5.52-2.46-1.57-5-3.14-7.51-4.53-2.59-1.22-5.16-2.64-7.81-3.62a104.22,104.22,0,0,0-32.21-7,148.88,148.88,0,0,0-61.94,9.68,140.82,140.82,0,0,0-28.13,14.3c-2.18,1.55-4.42,3-6.55,4.65l-3.17,2.51c-1.06.84-2.18,1.73-2.88,2.33-3.14,2.74-6.66,5.31-10.19,7.84a213.34,213.34,0,0,1-22.66,13.74,194.06,194.06,0,0,1-24.36,10.51,113.75,113.75,0,0,1-25.17,6,75.23,75.23,0,0,1-12.42.43A50.65,50.65,0,0,1,359,252.67l-1.41-.4-1.32-.56c-.87-.37-1.79-.69-2.66-1.09a38.15,38.15,0,0,1-4.88-2.92,35.1,35.1,0,0,1-8.26-8.07,44.14,44.14,0,0,1-3.2-5.12l-1.43-2.73c-.48-.92-.79-1.94-1.2-2.91l-1.18-2.94-.9-3.11-.92-3.14-1.12-4a57.12,57.12,0,0,0-18-26.08c-7.92-6.75-17-11.47-26.25-15.11-18.64-7.09-38.31-9.67-57.77-9.63a198.46,198.46,0,0,0-57.64,8.93c-18.66,5.85-36.67,14.65-52.41,27S89.45,229.33,81,248a129.35,129.35,0,0,0-9.6,29l-1.41,7.45a67.3,67.3,0,0,0-1.07,7.59c-.26,2.56-.58,5.11-.77,7.7L68,307.65c.2,10.56,1.7,21.62,6.1,32.29a68.25,68.25,0,0,0,21.15,27.53A84,84,0,0,0,125.5,382.14ZM521,322.88c-.51-.26-.61-.48-.29-.25A2.37,2.37,0,0,0,521,322.88ZM111.32,345.69a41.86,41.86,0,0,1-14.23-16.23c-3.4-6.68-5.28-14.58-6.11-22.89l-.42-6.33c0-2.14.1-4.32.14-6.48-.07-4.32.71-8.75,1.09-13.15A110.29,110.29,0,0,1,98,255.16a106.24,106.24,0,0,1,12.1-23.34,108.62,108.62,0,0,1,17.6-20A133.2,133.2,0,0,1,149.57,196a149.22,149.22,0,0,1,24.89-11.35,162.14,162.14,0,0,1,26.65-7,167.72,167.72,0,0,1,27.49-2.55c4.6-.06,9.2.09,13.79.41s9.14.93,13.66,1.68a118.73,118.73,0,0,1,26.17,7.44,75.8,75.8,0,0,1,22.29,14c6.24,5.88,10.87,13.08,12.7,20.91l1.35,6.71.8,3.8,1.15,3.78c.41,1.25.72,2.53,1.23,3.77l1.56,3.71a60.2,60.2,0,0,0,3.77,7.25,54.2,54.2,0,0,0,25.4,21.53,69.15,69.15,0,0,0,15.92,4.46,93.72,93.72,0,0,0,16,1A135.44,135.44,0,0,0,415,271.23a204.27,204.27,0,0,0,55.72-23.64c4.34-2.75,8.64-5.56,12.85-8.82l5.21-3.83c1.65-1.2,3.46-2.24,5.18-3.38a127.31,127.31,0,0,1,22.78-10.81c16-5.73,33.18-8.81,49.59-8s32,5.77,41.1,16.14a42.17,42.17,0,0,1,9.77,18.71,78.44,78.44,0,0,1,1.57,23.82,123,123,0,0,1-1.84,12.7l-.6,3.2-.71,3.58-.77,3.87-.6,4a92.09,92.09,0,0,0-.88,16.38,64.14,64.14,0,0,0,3,17A52,52,0,0,0,637.53,360a73.73,73.73,0,0,0,21.1,9.25l-1.87,0c-4.53-.33-9.09-.44-13.55-1-4.5-.4-8.91-1.12-13.31-1.79-4.34-.88-8.68-1.74-12.87-3A103.07,103.07,0,0,1,573,339a157.73,157.73,0,0,1-17.33-19.63L547,308l-2.33-3-1.19-1.49c-.61-.7-1.34-1.5-2-2.23a29.82,29.82,0,0,0-5.51-4.42,26.15,26.15,0,0,0-7.88-3.2,30.74,30.74,0,0,0-4.5-.56,29.3,29.3,0,0,0-4.33.25,28.5,28.5,0,0,0-7.27,2.05,41,41,0,0,0-9.74,6,90.35,90.35,0,0,0-12.08,12.4c-6.7,8.17-12.18,16.2-17.65,24.09s-10.71,15.58-16,23a239.34,239.34,0,0,1-16.41,20.8c-5.65,6.27-11.66,11.74-17.35,15.19a27.29,27.29,0,0,1-7.9,3.36,15.48,15.48,0,0,1-6.66.12c-.55-.07-1.12-.3-1.69-.4s-1.16-.39-1.77-.65l-.92-.39-.46-.19-.66-.33-2.74-1.38c-3.66-1.83-7.24-4-10.79-6.2a195.54,195.54,0,0,1-20.71-15.57c-13.67-11.44-26.31-24.92-42-38.23a146.46,146.46,0,0,0-12.95-9.79A73.2,73.2,0,0,0,296.92,319a47.19,47.19,0,0,0-41.72,4.69,38,38,0,0,0-4,2.72l-3.36,2.5c-1.45,1.08-2.83,2.22-4.54,3.26-.83.53-1.61,1.09-2.47,1.61l-2.65,1.53c-1.72,1.06-3.65,2-5.5,2.94a168.93,168.93,0,0,1-24,9.63,200,200,0,0,1-25.51,6.3,172,172,0,0,1-25.82,2.48C140.32,356.94,123.5,353.88,111.32,345.69Z"/>
  </g>
</svg>
