<svg id="Calque_1" data-name="Calque 1" xmlns="http://www.w3.org/2000/svg" width="29.7cm" height="21cm" viewBox="0 0 841.89 595.28">
  <defs>
    <style>
      .cls-1 {
        fill: #fff;
      }
    </style>
  </defs>
  <title>Plan de travail 5</title>
  <metadata><?xpacket begin="﻿" id="W5M0MpCehiHzreSzNTczkc9d"?>
<x:xmpmeta xmlns:x="adobe:ns:meta/" x:xmptk="Adobe XMP Core 5.6-c137 79.159547, 2016/07/07-11:39:24        ">
   <rdf:RDF xmlns:rdf="http://www.w3.org/1999/02/22-rdf-syntax-ns#">
      <rdf:Description rdf:about=""
            xmlns:dc="http://purl.org/dc/elements/1.1/"
            xmlns:xmpMM="http://ns.adobe.com/xap/1.0/mm/"
            xmlns:stEvt="http://ns.adobe.com/xap/1.0/sType/ResourceEvent#"
            xmlns:xmp="http://ns.adobe.com/xap/1.0/">
         <dc:title>
            <rdf:Alt>
               <rdf:li xml:lang="x-default">Plan de travail 5</rdf:li>
            </rdf:Alt>
         </dc:title>
         <xmpMM:PreservedFileName>06.svg</xmpMM:PreservedFileName>
         <xmpMM:InstanceID>xmp.iid:fb82261b-76a9-474a-b128-ccc168f27eba</xmpMM:InstanceID>
         <xmpMM:DocumentID>xmp.did:fb82261b-76a9-474a-b128-ccc168f27eba</xmpMM:DocumentID>
         <xmpMM:OriginalDocumentID>xmp.did:fb82261b-76a9-474a-b128-ccc168f27eba</xmpMM:OriginalDocumentID>
         <xmpMM:History>
            <rdf:Seq>
               <rdf:li>
                  <rdf:Description>
                     <stEvt:action>saved</stEvt:action>
                     <stEvt:instanceID>xmp.iid:fb82261b-76a9-474a-b128-ccc168f27eba</stEvt:instanceID>
                     <stEvt:when>2018-09-27T10:33:59+02:00</stEvt:when>
                     <stEvt:softwareAgent>Adobe Bridge CC 2017 (Macintosh)</stEvt:softwareAgent>
                     <stEvt:changed>/metadata</stEvt:changed>
                  </rdf:Description>
               </rdf:li>
            </rdf:Seq>
         </xmpMM:History>
         <xmp:MetadataDate>2018-09-27T10:33:59+02:00</xmp:MetadataDate>
      </rdf:Description>
   </rdf:RDF>
</x:xmpmeta>
                                                                                                    
                                                                                                    
                                                                                                    
                                                                                                    
                                                                                                    
                                                                                                    
                                                                                                    
                                                                                                    
                                                                                                    
                                                                                                    
                                                                                                    
                                                                                                    
                                                                                                    
                                                                                                    
                                                                                                    
                                                                                                    
                                                                                                    
                                                                                                    
                                                                                                    
                                                                                                    
                           
<?xpacket end="w"?></metadata>
<path class="cls-1" d="M718.86,458.25a40.85,40.85,0,0,0,8.32-9.21,37,37,0,0,0,5.11-11.8,38.16,38.16,0,0,0,.76-12.47,53.45,53.45,0,0,0-6.86-20.58,100.55,100.55,0,0,0-11.11-15.75c-2-2.38-4.08-4.65-6.17-6.84l-3.09-3.19-1.44-1.47-.47-.47c.08.06.12.22.14.25.08.23-.14,0-.26-.45a7.94,7.94,0,0,1-.23-1.82,12.27,12.27,0,0,1,1-4.71,16.73,16.73,0,0,1,7.52-8,31.58,31.58,0,0,1,13-3.52,55.27,55.27,0,0,1,7.51,0l4.62.23c1.62,0,3.24,0,4.87-.07a59.49,59.49,0,0,0,9.79-1.32,54.51,54.51,0,0,0,9.49-3.17,48,48,0,0,0,16-11.67,51.06,51.06,0,0,0,10-16.67,39,39,0,0,0,2.32-9.94,17.48,17.48,0,0,0,0-3.16c0-.33,0-.49-.07-.66l-.07-.54-.15-1.11c-.21-1.5-.44-3-.72-4.5a79.88,79.88,0,0,0-5.34-17.6c-4.91-11.29-13.36-21.63-24.45-27.68A60,60,0,0,0,741.52,254a87.4,87.4,0,0,0-17.75-1.58,306.49,306.49,0,0,1-44.65-7,396.87,396.87,0,0,1-43.43-13.22c-14.27-5.25-28.43-11-42.89-16.54s-29.39-10.86-45.44-14a141.7,141.7,0,0,0-24.7-2.72,122.37,122.37,0,0,0-25.27,2.33l-6.22,1.4-5.81,1.54c-3.87,1.09-7.75,2.21-11.61,3.55a149.29,149.29,0,0,0-23,9.83,107.71,107.71,0,0,0-21.37,14.9,216.94,216.94,0,0,0-16.91,17.63,168.38,168.38,0,0,1-14.88,15.23c-2.55,2.33-5.24,4.5-8,6.63-1.41,1-2.77,2.1-4.22,3.08l-2.16,1.51c-.68.46-1.14.75-1.74,1.12a53.45,53.45,0,0,1-17.06,6,115.12,115.12,0,0,1-20.44,2,249.35,249.35,0,0,1-43.36-3.72,369.41,369.41,0,0,1-43.29-9.79c-1.74-.52-3.48-1.05-5.16-1.6s-3.39-1.15-4.54-1.61l-.3-.12,0,0,0,0-.14-.07-1.27-.69-2.83-1.49c-2-1-4-2-6.12-2.78a69.88,69.88,0,0,0-26.29-4.76,89.27,89.27,0,0,0-25.18,4.15,133.55,133.55,0,0,0-22.6,9.46c-1.77,1-3.54,1.86-5.3,2.91s-3.55,2.05-5.13,3.06l-9.8,6.08-19.58,12c-13.1,7.87-26.21,15.73-39.47,23.34q-10,5.67-20,11.16c-3.36,1.83-6.73,3.62-10.13,5.34l-5.1,2.56-2.57,1.23-1.28.59-.64.29-.32.14a2,2,0,0,0-1,.77,1.92,1.92,0,0,0-.29,1.28,2,2,0,0,0,1.42,1,2.65,2.65,0,0,0,1-.08l.52-.11,1-.21,2.1-.42,4.2-.81,8.43-1.53c5.62-1,11.26-1.86,16.89-2.72q16.91-2.55,33.87-4.08c22.55-2.08,45.29-2.73,67.15-.19,10.87,1.35,21.55,3.64,30.93,7.65a55.47,55.47,0,0,1,12.59,7.33l6.78,5.43c2.32,1.79,4.6,3.62,7,5.37A298.27,298.27,0,0,0,265.84,380a165.24,165.24,0,0,0,33.89,14.93,114.42,114.42,0,0,0,18.93,4,130.14,130.14,0,0,0,19.08.79c3.05-.06,6-.23,8.74-.33l2.27-.12,2.47-.15c1.62-.14,3.23-.29,4.82-.47a178.59,178.59,0,0,0,18.42-3.21A286.93,286.93,0,0,0,409.18,385a311.27,311.27,0,0,0,33.06-14.21,241.18,241.18,0,0,0,31.65-18.63c2.57-1.83,5.11-3.73,7.63-5.78,1.27-1,2.52-2.07,3.76-3.16l3.05-2.63A79.54,79.54,0,0,1,500,332.43a78,78,0,0,1,26.47-9.51,104.71,104.71,0,0,1,29.36-.41,140.39,140.39,0,0,1,15.07,2.73c2.58.61,4.91,1.17,7.14,1.88a61.5,61.5,0,0,1,6.43,2.32,39.14,39.14,0,0,1,10.35,6.21,23,23,0,0,1,6.18,8.12,29,29,0,0,1,2.38,10.84,56.61,56.61,0,0,1-1.26,13.3,64.31,64.31,0,0,0-.64,22.39,79,79,0,0,0,5.86,20.27,98.15,98.15,0,0,0,9.91,17.53,95.34,95.34,0,0,0,13.3,15.29c1.29,1.2,2.76,2.44,4.28,3.6s2.9,2.09,4.3,3c2.81,1.83,5.59,3.46,8.43,5a118.45,118.45,0,0,0,17.76,7.77,86.09,86.09,0,0,0,19.88,4.42,51.44,51.44,0,0,0,22.75-2.67A39.46,39.46,0,0,0,718.86,458.25Zm-19.7-18.12a25.85,25.85,0,0,1-11.15.59,60.05,60.05,0,0,1-13.41-3.65,97.73,97.73,0,0,1-13.43-6.53c-2.16-1.26-4.28-2.6-6.22-4-1-.68-1.9-1.38-2.67-2s-1.43-1.23-2.22-2a66.65,66.65,0,0,1-8.81-10.9,68.57,68.57,0,0,1-6.57-12.53c-3.44-8.59-4.41-17.18-2.58-24.49a85.1,85.1,0,0,0,2.46-20.76,60.73,60.73,0,0,0-4.5-22.58,54.9,54.9,0,0,0-13.81-19.48,71,71,0,0,0-18.56-12.05,97.9,97.9,0,0,0-9.61-3.77c-3.21-1.1-6.43-2-9.4-2.74A171.13,171.13,0,0,0,560,289.69a130.13,130.13,0,0,0-39.08.41,109.5,109.5,0,0,0-37.74,13.79A113.24,113.24,0,0,0,467,315.69l-3.41,3c-.89.81-1.8,1.62-2.77,2.41-1.89,1.6-3.91,3.16-6,4.69a225.26,225.26,0,0,1-27.06,16.91c-19.15,10.11-39.6,18.93-60.2,24.6a153.74,153.74,0,0,1-15.27,3.38l-3.7.52-1.82.19-.9.1-1.11.1-8.39.72a104.34,104.34,0,0,1-15.23.32,89.52,89.52,0,0,1-14.83-2.18,141.5,141.5,0,0,1-29.55-11A276,276,0,0,1,248,343.18c-4.74-3-9.25-6.1-14-9.4a70,70,0,0,0-17.6-8.82c-12.07-4.11-24.19-5.67-36.1-6.3-23.84-1.14-47.05,1.76-69.84,5.77-11.38,2.07-22.64,4.6-33.81,7.4q5.34-2.35,10.63-4.78,21-9.6,41.6-20l20.52-10.5,10.18-5.29c1.72-.94,3.36-1.64,5-2.4s3.33-1.46,5-2.19c13.41-5.58,27.57-9,40.73-8.1a49.43,49.43,0,0,1,18.41,4.73c1.41.68,2.8,1.41,4.2,2.24l2.18,1.34,1.21.75.51.3.66.37,1,.5c2.34,1.13,4.18,1.87,6.14,2.65s3.81,1.47,5.69,2.16c7.54,2.74,15.08,5.07,22.7,7.2s15.29,4,23.07,5.66c15.56,3.16,31.45,5.56,48,5.75a141.5,141.5,0,0,0,25.31-1.79,78.57,78.57,0,0,0,26.14-9c1-.61,2.2-1.33,3.12-1.93l2.58-1.75c1.73-1.14,3.41-2.42,5.11-3.63,3.35-2.52,6.67-5.12,9.82-7.92a196.51,196.51,0,0,0,17.25-17.61c5.17-5.89,9.73-11.29,14.6-15.8a86.7,86.7,0,0,1,15.89-11.85,135,135,0,0,1,18.83-9.1c3.33-1.32,6.71-2.62,10.15-3.84L498,226.2l4.91-1.48a111.45,111.45,0,0,1,41.36-2.93c14.28,1.49,28.8,5.2,43.38,9.3s29.24,9,44.14,13.13,29.94,8.15,45.18,11.18a396.68,396.68,0,0,0,46.18,6.32l.22,0h.22c10.83-.19,21.71,1.66,30.68,6.87a43.07,43.07,0,0,1,11.71,10,42.24,42.24,0,0,1,4.39,6.41,51.06,51.06,0,0,1,3.37,7.08,67.93,67.93,0,0,1,4,15.37c.19,1.33.35,2.66.48,4l.1,1,0,.53c0,.18,0,.38,0,.4a8.16,8.16,0,0,1-.08,1.13,24.92,24.92,0,0,1-2,6.62A38.83,38.83,0,0,1,768,333.26,34.47,34.47,0,0,1,756,341a39.11,39.11,0,0,1-6.93,1.76,45.2,45.2,0,0,1-7.28.42c-1.23,0-2.48-.15-3.71-.22l-3.93-.5a72.75,72.75,0,0,0-9.65-.64,48.86,48.86,0,0,0-20.23,4.1,35.18,35.18,0,0,0-16.68,15.48,31.43,31.43,0,0,0-3.56,11.72c-.29,4.28-.2,8.92,2.85,14.3a20.47,20.47,0,0,0,1.38,2l.94,1.15,1.45,1.72,2.65,3.18c1.71,2.09,3.34,4.19,4.87,6.31a77.85,77.85,0,0,1,7.74,12.9c2,4.3,3.23,8.54,3.3,12a12.17,12.17,0,0,1-2.6,8.3,15.54,15.54,0,0,1-3.39,3.25A15.37,15.37,0,0,1,699.16,440.13Z"/>
</svg>
