<svg id="Calque_1" data-name="Calque 1" xmlns="http://www.w3.org/2000/svg" width="29.7cm" height="21cm" viewBox="0 0 841.89 595.28">
  <defs>
    <style>
      .cls-1 {
        fill: #fff;
      }
    </style>
  </defs>
  <title>Plan de travail 1</title>
  <metadata><?xpacket begin="﻿" id="W5M0MpCehiHzreSzNTczkc9d"?>
<x:xmpmeta xmlns:x="adobe:ns:meta/" x:xmptk="Adobe XMP Core 5.6-c137 79.159547, 2016/07/07-11:39:24        ">
   <rdf:RDF xmlns:rdf="http://www.w3.org/1999/02/22-rdf-syntax-ns#">
      <rdf:Description rdf:about=""
            xmlns:dc="http://purl.org/dc/elements/1.1/"
            xmlns:xmpMM="http://ns.adobe.com/xap/1.0/mm/"
            xmlns:stEvt="http://ns.adobe.com/xap/1.0/sType/ResourceEvent#"
            xmlns:xmp="http://ns.adobe.com/xap/1.0/">
         <dc:title>
            <rdf:Alt>
               <rdf:li xml:lang="x-default">Plan de travail 1</rdf:li>
            </rdf:Alt>
         </dc:title>
         <xmpMM:PreservedFileName>13.svg</xmpMM:PreservedFileName>
         <xmpMM:InstanceID>xmp.iid:0d3dd128-1d20-4311-908f-565bb7f4acda</xmpMM:InstanceID>
         <xmpMM:DocumentID>xmp.did:0d3dd128-1d20-4311-908f-565bb7f4acda</xmpMM:DocumentID>
         <xmpMM:OriginalDocumentID>xmp.did:0d3dd128-1d20-4311-908f-565bb7f4acda</xmpMM:OriginalDocumentID>
         <xmpMM:History>
            <rdf:Seq>
               <rdf:li>
                  <rdf:Description>
                     <stEvt:action>saved</stEvt:action>
                     <stEvt:instanceID>xmp.iid:0d3dd128-1d20-4311-908f-565bb7f4acda</stEvt:instanceID>
                     <stEvt:when>2018-09-27T10:33:59+02:00</stEvt:when>
                     <stEvt:softwareAgent>Adobe Bridge CC 2017 (Macintosh)</stEvt:softwareAgent>
                     <stEvt:changed>/metadata</stEvt:changed>
                  </rdf:Description>
               </rdf:li>
            </rdf:Seq>
         </xmpMM:History>
         <xmp:MetadataDate>2018-09-27T10:33:59+02:00</xmp:MetadataDate>
      </rdf:Description>
   </rdf:RDF>
</x:xmpmeta>
                                                                                                    
                                                                                                    
                                                                                                    
                                                                                                    
                                                                                                    
                                                                                                    
                                                                                                    
                                                                                                    
                                                                                                    
                                                                                                    
                                                                                                    
                                                                                                    
                                                                                                    
                                                                                                    
                                                                                                    
                                                                                                    
                                                                                                    
                                                                                                    
                                                                                                    
                                                                                                    
                           
<?xpacket end="w"?></metadata>
<path class="cls-1" d="M416.67,73.44c1.94,12.17,3.41,24.34,4.92,36.52q1.07,9.12,2,18.25t1.66,18.26c.49,6.09,1.55,12.17,2.34,18.26a73.41,73.41,0,0,1,.12,18.26,118.09,118.09,0,0,1-3.6,18.26,79.34,79.34,0,0,1-7.46,18.25h-2.46a79.34,79.34,0,0,1-7.46-18.25,118.09,118.09,0,0,1-3.6-18.26,73.41,73.41,0,0,1,.12-18.26c.79-6.09,1.85-12.17,2.34-18.26s1.06-12.17,1.66-18.26,1.31-12.17,2-18.25c1.51-12.18,3-24.35,4.92-36.52Z"/>
  <path class="cls-1" d="M304.26,101.86c7.77,9.57,15.13,19.38,22.52,29.16q5.49,7.38,10.88,14.8t10.57,15c3.47,5,7.43,9.77,11.15,14.65a73,73,0,0,1,9.24,15.75,118.47,118.47,0,0,1,6,17.61,79.07,79.07,0,0,1,2.67,19.54l-2.13,1.23a79.59,79.59,0,0,1-15.58-12.08,118.28,118.28,0,0,1-12.25-14,72.87,72.87,0,0,1-9-15.88c-2.37-5.66-4.49-11.46-7.11-17S326,159.56,323.51,154s-4.95-11.19-7.38-16.82c-4.78-11.3-9.59-22.57-14-34.08Z"/>
  <path class="cls-1" d="M221.12,182.67c11.52,4.4,22.79,9.22,34.09,14q8.43,3.65,16.82,7.37t16.64,7.7c5.52,2.62,11.32,4.74,17,7.1a73.7,73.7,0,0,1,15.88,9,118.31,118.31,0,0,1,14,12.25,79.32,79.32,0,0,1,12.09,15.59l-1.23,2.13a79,79,0,0,1-19.54-2.67,117.49,117.49,0,0,1-17.62-6,73,73,0,0,1-15.75-9.23c-4.87-3.73-9.61-7.69-14.64-11.15s-10-7-15-10.57S254,211,249.06,207.31c-9.79-7.39-19.6-14.74-29.16-22.51Z"/>
  <path class="cls-1" d="M189.53,294.23c12.17-2,24.34-3.41,36.52-4.92,6.08-.71,12.17-1.4,18.25-2s12.18-1.14,18.26-1.66,12.17-1.55,18.26-2.33a72.93,72.93,0,0,1,18.26-.13,118.13,118.13,0,0,1,18.26,3.61,78.9,78.9,0,0,1,18.25,7.46v2.45a78.9,78.9,0,0,1-18.25,7.46,119.32,119.32,0,0,1-18.26,3.61,73.41,73.41,0,0,1-18.26-.13c-6.09-.78-12.17-1.84-18.26-2.33s-12.17-1.06-18.26-1.66-12.17-1.32-18.25-2c-12.18-1.51-24.35-3-36.52-4.92Z"/>
  <path class="cls-1" d="M218,406.63c9.57-7.77,19.38-15.12,29.16-22.51q7.38-5.49,14.8-10.89t15-10.56c5-3.47,9.77-7.43,14.65-11.16a73.39,73.39,0,0,1,15.75-9.23,117.36,117.36,0,0,1,17.61-6,79.55,79.55,0,0,1,19.54-2.67l1.23,2.13a79.37,79.37,0,0,1-12.08,15.59,119.2,119.2,0,0,1-14,12.25,73.28,73.28,0,0,1-15.88,9c-5.66,2.36-11.46,4.49-17,7.11s-11.08,5.17-16.65,7.69-11.19,4.94-16.82,7.37c-11.3,4.78-22.57,9.6-34.08,14Z"/>
  <path class="cls-1" d="M298.76,489.77c4.4-11.51,9.22-22.79,14-34.08q3.64-8.44,7.37-16.83t7.7-16.64c2.62-5.51,4.74-11.31,7.1-17a73.63,73.63,0,0,1,9-15.87,118.4,118.4,0,0,1,12.25-14,79.29,79.29,0,0,1,15.59-12.08l2.13,1.23a79.07,79.07,0,0,1-2.67,19.54,117.75,117.75,0,0,1-6,17.61A72.57,72.57,0,0,1,356,417.41c-3.73,4.88-7.69,9.62-11.15,14.64s-7,10-10.57,15-7.22,9.88-10.88,14.79c-7.4,9.79-14.75,19.6-22.52,29.17Z"/>
  <path class="cls-1" d="M410.32,521.36c-1.95-12.17-3.41-24.34-4.92-36.51-.71-6.09-1.4-12.17-2-18.26s-1.14-12.17-1.66-18.26-1.55-12.17-2.33-18.25a73.41,73.41,0,0,1-.13-18.26,117.9,117.9,0,0,1,3.61-18.26,79,79,0,0,1,7.46-18.26h2.45a79,79,0,0,1,7.46,18.26,117.9,117.9,0,0,1,3.61,18.26,72.94,72.94,0,0,1-.13,18.26c-.78,6.08-1.84,12.17-2.33,18.25s-1.06,12.17-1.66,18.26-1.32,12.17-2,18.26c-1.51,12.17-3,24.34-4.92,36.51Z"/>
  <path class="cls-1" d="M522.72,493c-7.77-9.57-15.12-19.38-22.51-29.17q-5.49-7.36-10.89-14.8t-10.56-15c-3.47-5-7.43-9.76-11.16-14.64a73.63,73.63,0,0,1-9.23-15.75,117.49,117.49,0,0,1-6-17.62,79.41,79.41,0,0,1-2.67-19.54l2.13-1.23a79,79,0,0,1,15.59,12.09,117.61,117.61,0,0,1,12.25,14,73,73,0,0,1,9,15.87c2.36,5.66,4.49,11.46,7.11,17s5.17,11.07,7.69,16.64,4.95,11.2,7.37,16.83c4.78,11.29,9.6,22.56,14,34.08Z"/>
  <path class="cls-1" d="M605.86,412.13c-11.51-4.4-22.79-9.22-34.08-14q-8.44-3.63-16.83-7.37t-16.64-7.69c-5.51-2.62-11.31-4.74-17-7.11a72.8,72.8,0,0,1-15.87-9,118.4,118.4,0,0,1-14-12.25,79,79,0,0,1-12.08-15.59L480.6,337a79.07,79.07,0,0,1,19.54,2.68,117.72,117.72,0,0,1,17.61,6,73,73,0,0,1,15.75,9.24c4.88,3.72,9.62,7.68,14.64,11.15s10,7,15,10.56,9.88,7.23,14.79,10.89c9.79,7.39,19.6,14.75,29.17,22.52Z"/>
  <path class="cls-1" d="M637.45,300.58c-12.17,1.94-24.34,3.41-36.51,4.92q-9.13,1.06-18.26,2t-18.26,1.66c-6.08.49-12.17,1.55-18.25,2.34a73.41,73.41,0,0,1-18.26.12,117.86,117.86,0,0,1-18.26-3.6,79.41,79.41,0,0,1-18.26-7.46v-2.46a79.41,79.41,0,0,1,18.26-7.46,117.86,117.86,0,0,1,18.26-3.6,73.41,73.41,0,0,1,18.26.12c6.08.79,12.17,1.85,18.25,2.34s12.17,1.06,18.26,1.66,12.17,1.31,18.26,2c12.17,1.51,24.34,3,36.51,4.92Z"/>
  <path class="cls-1" d="M609,188.17c-9.57,7.77-19.38,15.13-29.17,22.52q-7.36,5.49-14.8,10.88t-15,10.57c-5,3.46-9.76,7.43-14.64,11.15a73.26,73.26,0,0,1-15.75,9.24,118.59,118.59,0,0,1-17.62,6,78.94,78.94,0,0,1-19.54,2.67l-1.23-2.13a79.25,79.25,0,0,1,12.09-15.58,116.72,116.72,0,0,1,14-12.25,73,73,0,0,1,15.87-9c5.66-2.36,11.46-4.48,17-7.1s11.07-5.17,16.64-7.69,11.2-4.95,16.83-7.38c11.29-4.78,22.56-9.59,34.08-14Z"/>
  <path class="cls-1" d="M528.22,105c-4.4,11.52-9.22,22.79-14,34.09q-3.63,8.43-7.37,16.82t-7.69,16.64c-2.62,5.52-4.74,11.32-7.11,17a72.87,72.87,0,0,1-9,15.88,118.31,118.31,0,0,1-12.25,14,79,79,0,0,1-15.59,12.09l-2.13-1.23a79,79,0,0,1,2.68-19.54,118.59,118.59,0,0,1,6-17.62A73.5,73.5,0,0,1,471,177.39c3.72-4.87,7.68-9.61,11.15-14.64s7-10,10.56-15,7.23-9.89,10.89-14.8c7.39-9.79,14.75-19.6,22.52-29.16Z"/>
</svg>
