<svg id="Calque_1" data-name="Calque 1" xmlns="http://www.w3.org/2000/svg" width="29.7cm" height="21cm" viewBox="0 0 841.89 595.28">
  <defs>
    <style>
      .cls-1 {
        fill: #fff;
      }
    </style>
  </defs>
  <title>Plan de travail 2</title>
  <metadata><?xpacket begin="﻿" id="W5M0MpCehiHzreSzNTczkc9d"?>
<x:xmpmeta xmlns:x="adobe:ns:meta/" x:xmptk="Adobe XMP Core 5.6-c137 79.159547, 2016/07/07-11:39:24        ">
   <rdf:RDF xmlns:rdf="http://www.w3.org/1999/02/22-rdf-syntax-ns#">
      <rdf:Description rdf:about=""
            xmlns:dc="http://purl.org/dc/elements/1.1/"
            xmlns:xmpMM="http://ns.adobe.com/xap/1.0/mm/"
            xmlns:stEvt="http://ns.adobe.com/xap/1.0/sType/ResourceEvent#"
            xmlns:xmp="http://ns.adobe.com/xap/1.0/">
         <dc:title>
            <rdf:Alt>
               <rdf:li xml:lang="x-default">Plan de travail 2</rdf:li>
            </rdf:Alt>
         </dc:title>
         <xmpMM:PreservedFileName>14.svg</xmpMM:PreservedFileName>
         <xmpMM:InstanceID>xmp.iid:cd9ce314-774a-41bc-b250-064c99368069</xmpMM:InstanceID>
         <xmpMM:DocumentID>xmp.did:cd9ce314-774a-41bc-b250-064c99368069</xmpMM:DocumentID>
         <xmpMM:OriginalDocumentID>xmp.did:cd9ce314-774a-41bc-b250-064c99368069</xmpMM:OriginalDocumentID>
         <xmpMM:History>
            <rdf:Seq>
               <rdf:li>
                  <rdf:Description>
                     <stEvt:action>saved</stEvt:action>
                     <stEvt:instanceID>xmp.iid:cd9ce314-774a-41bc-b250-064c99368069</stEvt:instanceID>
                     <stEvt:when>2018-09-27T10:33:59+02:00</stEvt:when>
                     <stEvt:softwareAgent>Adobe Bridge CC 2017 (Macintosh)</stEvt:softwareAgent>
                     <stEvt:changed>/metadata</stEvt:changed>
                  </rdf:Description>
               </rdf:li>
            </rdf:Seq>
         </xmpMM:History>
         <xmp:MetadataDate>2018-09-27T10:33:59+02:00</xmp:MetadataDate>
      </rdf:Description>
   </rdf:RDF>
</x:xmpmeta>
                                                                                                    
                                                                                                    
                                                                                                    
                                                                                                    
                                                                                                    
                                                                                                    
                                                                                                    
                                                                                                    
                                                                                                    
                                                                                                    
                                                                                                    
                                                                                                    
                                                                                                    
                                                                                                    
                                                                                                    
                                                                                                    
                                                                                                    
                                                                                                    
                                                                                                    
                                                                                                    
                           
<?xpacket end="w"?></metadata>
<path class="cls-1" d="M486.72,301,628,294.13l-141.15-6.26L624.7,256.54,484.61,274.88,615,220.08,480.18,262.47,599,185.87,473.67,251l103.75-96.08L465.27,240.88l85.49-112.64-95.53,104.1,64.64-125.77-76,119.11L485.68,90.6,431.52,221.09,449.24,80.8,418.56,218.72,411.65,77.49l-6.27,141.15L374.05,80.75,392.4,220.84,337.6,90.48,380,225.26,303.39,106.4l65.15,125.38L272.46,128l85.93,112.16L245.75,154.69l104.11,95.53L224.09,185.58l119.11,76L208.11,219.77l130.5,54.16L198.32,256.21l137.92,30.68L195,293.8l141.15,6.26L198.26,331.39l140.09-18.34L208,367.85l134.78-42.39-118.86,76.6,125.37-65.15L245.54,433l112.15-85.93L272.2,459.69l95.53-104.1L303.1,481.36l76-119.11L337.28,497.33l54.17-130.49L373.72,507.13,404.4,369.21l6.91,141.24,6.27-141.16,31.33,137.9-18.35-140.1,54.8,130.36L443,362.67l76.61,118.86L454.42,356.15,550.5,459.91,464.57,347.75l112.64,85.5L473.1,337.72l125.77,64.63-119.1-76,135.08,41.81L484.35,314l140.29,17.72Zm-24,14.46-4,9.1-.56-.52-5.48,8.27-.46-.6-6.83,7.18-.35-.67-8,5.89-.23-.72-8.87,4.42-.1-.75-9.51,2.81,0-.76-9.85,1.12.16-.75-9.9-.61.3-.7-9.65-2.32.41-.64-9.09-4,.51-.56-8.26-5.48.6-.46L366.51,328l.68-.35-5.9-8,.73-.23-4.42-8.88.75-.1-2.81-9.51.76,0-1.12-9.86.74.17.61-9.9.71.29,2.32-9.64.64.41,4-9.09.56.51,5.47-8.27.47.61,6.83-7.19.35.67,8-5.89.23.72,8.88-4.42.09.76,9.51-2.81,0,.75,9.85-1.11-.16.74,9.9.61-.29.7,9.64,2.32-.41.64,9.09,4-.51.56,8.26,5.48-.6.46,7.19,6.83-.68.35,5.9,8-.73.22,4.42,8.88-.75.1,2.81,9.51-.76,0,1.12,9.85-.74-.17-.61,9.9-.7-.29-2.32,9.64Z"/>
</svg>
