<svg id="Calque_1" data-name="Calque 1" xmlns="http://www.w3.org/2000/svg" width="29.7cm" height="21cm" viewBox="0 0 841.89 595.28">
  <defs>
    <style>
      .cls-1 {
        fill: #fff;
      }
    </style>
  </defs>
  <title>Plan de travail 3</title>
  <metadata><?xpacket begin="﻿" id="W5M0MpCehiHzreSzNTczkc9d"?>
<x:xmpmeta xmlns:x="adobe:ns:meta/" x:xmptk="Adobe XMP Core 5.6-c137 79.159547, 2016/07/07-11:39:24        ">
   <rdf:RDF xmlns:rdf="http://www.w3.org/1999/02/22-rdf-syntax-ns#">
      <rdf:Description rdf:about=""
            xmlns:dc="http://purl.org/dc/elements/1.1/"
            xmlns:xmpMM="http://ns.adobe.com/xap/1.0/mm/"
            xmlns:stEvt="http://ns.adobe.com/xap/1.0/sType/ResourceEvent#"
            xmlns:xmp="http://ns.adobe.com/xap/1.0/">
         <dc:title>
            <rdf:Alt>
               <rdf:li xml:lang="x-default">Plan de travail 3</rdf:li>
            </rdf:Alt>
         </dc:title>
         <xmpMM:PreservedFileName>15.svg</xmpMM:PreservedFileName>
         <xmpMM:InstanceID>xmp.iid:fd3cb2d7-03f0-47c7-a9e5-a608ac7d4983</xmpMM:InstanceID>
         <xmpMM:DocumentID>xmp.did:fd3cb2d7-03f0-47c7-a9e5-a608ac7d4983</xmpMM:DocumentID>
         <xmpMM:OriginalDocumentID>xmp.did:fd3cb2d7-03f0-47c7-a9e5-a608ac7d4983</xmpMM:OriginalDocumentID>
         <xmpMM:History>
            <rdf:Seq>
               <rdf:li>
                  <rdf:Description>
                     <stEvt:action>saved</stEvt:action>
                     <stEvt:instanceID>xmp.iid:fd3cb2d7-03f0-47c7-a9e5-a608ac7d4983</stEvt:instanceID>
                     <stEvt:when>2018-09-27T10:33:59+02:00</stEvt:when>
                     <stEvt:softwareAgent>Adobe Bridge CC 2017 (Macintosh)</stEvt:softwareAgent>
                     <stEvt:changed>/metadata</stEvt:changed>
                  </rdf:Description>
               </rdf:li>
            </rdf:Seq>
         </xmpMM:History>
         <xmp:MetadataDate>2018-09-27T10:33:59+02:00</xmp:MetadataDate>
      </rdf:Description>
   </rdf:RDF>
</x:xmpmeta>
                                                                                                    
                                                                                                    
                                                                                                    
                                                                                                    
                                                                                                    
                                                                                                    
                                                                                                    
                                                                                                    
                                                                                                    
                                                                                                    
                                                                                                    
                                                                                                    
                                                                                                    
                                                                                                    
                                                                                                    
                                                                                                    
                                                                                                    
                                                                                                    
                                                                                                    
                                                                                                    
                           
<?xpacket end="w"?></metadata>
<path class="cls-1" d="M554.64,297c3.78.46,7.56,1,11.34,1.28s7.57.52,11.35.71c7.57.39,15.13.78,22.7.62s15.13-.64,22.69-1.39c3.79-.38,7.57-.82,11.35-1.4s7.57-1.18,11.35-2.05v-1c-3.78-.88-7.57-1.51-11.35-2.06s-7.56-1-11.35-1.39q-11.34-1.14-22.69-1.39c-7.57-.17-15.13.23-22.7.61-3.78.2-7.56.34-11.35.71s-7.56.83-11.34,1.28a131.89,131.89,0,0,1-22.7,1.12c-6.81-.26-13.62-1.59-20.42-2.33,6.72-1.32,13.38-3.24,20.14-4.1a132.35,132.35,0,0,1,22.71-.86c3.8.13,7.62.3,11.41.29s7.58-.15,11.37-.28c7.57-.28,15.14-.55,22.66-1.37s15-2,22.49-3.36c3.74-.71,7.47-1.47,11.18-2.38s7.44-1.84,11.13-3l-.09-1c-3.84-.54-7.67-.85-11.48-1.06s-7.63-.36-11.43-.4q-11.4-.14-22.73.59c-7.55.5-15,1.55-22.55,2.59-3.76.52-7.51,1-11.25,1.7s-7.46,1.48-11.19,2.26a132.34,132.34,0,0,1-22.51,3.1c-6.81.33-13.7-.41-20.55-.54,6.58-1.91,13.05-4.4,19.71-5.85a132.83,132.83,0,0,1,22.54-2.83c3.81-.21,7.62-.37,11.4-.71s7.54-.81,11.3-1.27c7.52-.94,15-1.86,22.46-3.34s14.79-3.25,22.11-5.31c3.66-1,7.31-2.11,10.93-3.34s7.25-2.48,10.82-4l-.17-1c-3.88-.2-7.72-.18-11.54-.06s-7.62.32-11.41.6q-11.38.85-22.6,2.57c-7.48,1.16-14.86,2.86-22.24,4.55-3.69.85-7.39,1.65-11,2.67s-7.31,2.13-11,3.23A132.67,132.67,0,0,1,530,273.42c-6.75.92-13.69.79-20.52,1.25,6.39-2.47,12.62-5.52,19.12-7.54a132.38,132.38,0,0,1,22.22-4.79c3.77-.54,7.55-1,11.29-1.7s7.44-1.46,11.14-2.25c7.41-1.59,14.82-3.17,22.09-5.28s14.45-4.53,21.56-7.22c3.55-1.34,7.1-2.74,10.6-4.28s7-3.1,10.43-4.92l-.26-1c-3.88.14-7.7.5-11.49.95s-7.57,1-11.33,1.59q-11.25,1.85-22.28,4.53c-7.35,1.8-14.55,4.14-21.76,6.47-3.61,1.17-7.22,2.29-10.78,3.63s-7.09,2.75-10.63,4.16a132.61,132.61,0,0,1-21.63,7c-6.65,1.5-13.57,2-20.33,3,6.14-3,12.09-6.6,18.39-9.18a133.06,133.06,0,0,1,21.71-6.7c3.71-.87,7.44-1.69,11.1-2.68s7.29-2.11,10.91-3.22c7.24-2.22,14.49-4.44,21.54-7.18s14-5.77,20.85-9.07c3.43-1.65,6.83-3.35,10.19-5.19s6.7-3.7,10-5.81l-.34-.94c-3.86.47-7.63,1.16-11.37,1.94s-7.46,1.64-11.14,2.58q-11.06,2.82-21.8,6.45c-7.17,2.44-14.14,5.4-21.12,8.34-3.49,1.48-7,2.91-10.42,4.55s-6.83,3.36-10.23,5.08a131.26,131.26,0,0,1-20.94,8.82c-6.49,2.08-13.34,3.16-20,4.8,5.86-3.55,11.47-7.63,17.52-10.75a134,134,0,0,1,21-8.57c3.62-1.19,7.26-2.33,10.82-3.64s7.08-2.73,10.59-4.15c7-2.85,14-5.69,20.83-9s13.44-7,20-10.85c3.27-2,6.51-3.94,9.7-6.06s6.35-4.27,9.41-6.66l-.42-.91c-3.8.81-7.5,1.83-11.15,2.93s-7.29,2.28-10.88,3.53q-10.75,3.78-21.16,8.34c-6.92,3.05-13.61,6.6-20.31,10.15-3.34,1.77-6.71,3.5-10,5.44s-6.51,3.94-9.74,6A132.67,132.67,0,0,1,520.88,246c-6.28,2.64-13,4.31-19.49,6.52,5.53-4,10.76-8.6,16.52-12.23a131.09,131.09,0,0,1,20.22-10.37c3.5-1.5,7-3,10.46-4.57s6.81-3.34,10.19-5.06c6.74-3.45,13.49-6.89,20-10.82s12.78-8.11,19-12.55c3.08-2.22,6.14-4.49,9.13-6.88s6-4.81,8.8-7.45l-.5-.87c-3.71,1.14-7.31,2.47-10.86,3.89s-7.06,2.91-10.52,4.47q-10.39,4.69-20.35,10.14c-6.64,3.65-13,7.77-19.35,11.88-3.18,2.06-6.38,4.08-9.47,6.3s-6.14,4.49-9.19,6.77a132.48,132.48,0,0,1-19.09,12.33c-6,3.17-12.59,5.42-18.86,8.19,5.16-4.51,10-9.5,15.4-13.62a132.09,132.09,0,0,1,19.23-12.1c3.36-1.8,6.75-3.56,10-5.47s6.49-3.91,9.7-5.92c6.42-4,12.84-8,19-12.52s12-9.2,17.79-14.15c2.88-2.48,5.73-5,8.5-7.65s5.52-5.31,8.11-8.2l-.57-.81c-3.6,1.45-7.06,3.1-10.47,4.82s-6.78,3.51-10.1,5.37q-9.94,5.58-19.39,11.88c-6.29,4.2-12.26,8.86-18.24,13.52-3,2.33-6,4.61-8.88,7.09s-5.73,5-8.57,7.55A132.08,132.08,0,0,1,511,229.39c-5.73,3.69-12.07,6.5-18.07,9.81,4.74-4.94,9.1-10.34,14.15-14.92a132.07,132.07,0,0,1,18.1-13.72c3.19-2.09,6.42-4.13,9.52-6.32s6.13-4.47,9.15-6.75c6-4.57,12.09-9.13,17.78-14.12s11.18-10.21,16.49-15.65c2.66-2.72,5.27-5.49,7.8-8.36s5-5.77,7.37-8.87l-.64-.77c-3.46,1.77-6.77,3.71-10,5.72s-6.44,4.09-9.59,6.23q-9.42,6.42-18.27,13.52c-5.91,4.74-11.45,9.91-17,15.06-2.77,2.58-5.57,5.12-8.23,7.84s-5.27,5.49-7.87,8.27A132.25,132.25,0,0,1,505,221.81c-5.38,4.18-11.45,7.53-17.14,11.34,4.29-5.33,8.17-11.08,12.79-16.08a132.06,132.06,0,0,1,16.85-15.26c3-2.35,6-4.67,8.92-7.12s5.72-5,8.53-7.52c5.62-5.08,11.25-10.15,16.48-15.61s10.25-11.15,15.07-17c2.41-2.95,4.77-5.93,7-9s4.51-6.19,6.57-9.48l-.71-.71c-3.29,2.06-6.42,4.28-9.48,6.57s-6.07,4.63-9,7q-8.82,7.23-17,15.06c-5.46,5.24-10.53,10.87-15.61,16.49-2.54,2.81-5.11,5.59-7.52,8.53s-4.77,5.93-7.13,8.92a132,132,0,0,1-15.25,16.85c-5,4.62-10.75,8.49-16.09,12.79,3.82-5.69,7.17-11.76,11.34-17.14a132.25,132.25,0,0,1,15.45-16.67c2.78-2.6,5.6-5.18,8.28-7.87s5.26-5.46,7.84-8.24c5.15-5.55,10.32-11.09,15.06-17s9.23-12,13.52-18.28c2.14-3.14,4.24-6.32,6.23-9.59s4-6.55,5.71-10l-.76-.64c-3.1,2.33-6,4.82-8.87,7.37s-5.64,5.14-8.36,7.79q-8.16,8-15.66,16.5c-5,5.69-9.54,11.74-14.11,17.78-2.29,3-4.61,6-6.75,9.15s-4.24,6.32-6.32,9.51a130.83,130.83,0,0,1-13.73,18.11c-4.57,5-10,9.4-14.91,14.15,3.3-6,6.12-12.34,9.8-18.07A132.88,132.88,0,0,1,500,186.5c2.54-2.84,5.13-5.65,7.56-8.57s4.76-5.9,7.09-8.89c4.65-6,9.32-11.94,13.52-18.23s8.16-12.76,11.88-19.39c1.86-3.32,3.67-6.67,5.37-10.1s3.37-6.87,4.82-10.47l-.82-.58c-2.88,2.6-5.57,5.33-8.19,8.12s-5.17,5.61-7.65,8.49q-7.44,8.66-14.16,17.8c-4.47,6.1-8.49,12.53-12.51,18.94-2,3.21-4.06,6.4-5.93,9.71s-3.66,6.67-5.46,10a132.63,132.63,0,0,1-12.1,19.23c-4.12,5.43-9.11,10.24-13.62,15.39,2.77-6.26,5-12.82,8.19-18.85A133.27,133.27,0,0,1,490.28,180c2.29-3,4.62-6.07,6.78-9.19s4.23-6.29,6.29-9.47c4.12-6.36,8.24-12.72,11.88-19.35s7-13.42,10.15-20.35c1.56-3.47,3.08-7,4.47-10.52s2.75-7.15,3.89-10.86l-.87-.5c-2.64,2.84-5.09,5.8-7.45,8.8s-4.67,6-6.88,9.13q-6.66,9.26-12.56,19c-3.92,6.47-7.36,13.22-10.81,20-1.72,3.38-3.49,6.72-5.06,10.19s-3.07,7-4.57,10.46a132,132,0,0,1-10.37,20.22c-3.63,5.76-8.19,11-12.23,16.52,2.21-6.48,3.88-13.21,6.52-19.49a131.31,131.31,0,0,1,10.61-20.1c2-3.24,4.06-6.45,5.95-9.74s3.67-6.64,5.44-10c3.55-6.69,7.1-13.38,10.15-20.31s5.82-14,8.33-21.15c1.26-3.59,2.46-7.2,3.54-10.88s2.12-7.36,2.93-11.15l-.91-.42c-2.39,3.06-4.57,6.21-6.66,9.41s-4.12,6.43-6.06,9.7q-5.82,9.8-10.85,20c-3.34,6.79-6.18,13.81-9,20.83-1.43,3.51-2.89,7-4.15,10.58s-2.46,7.21-3.64,10.83a132.59,132.59,0,0,1-8.58,21c-3.11,6.06-7.2,11.67-10.74,17.53,1.64-6.65,2.71-13.5,4.79-20a132.72,132.72,0,0,1,8.82-20.94c1.72-3.4,3.49-6.79,5.08-10.23s3.08-6.93,4.55-10.42c3-7,5.91-13.95,8.34-21.12s4.58-14.43,6.46-21.8c.94-3.68,1.82-7.39,2.57-11.14s1.48-7.52,2-11.37l-.94-.34c-2.11,3.26-4,6.59-5.81,10s-3.54,6.76-5.19,10.19q-4.95,10.27-9.07,20.85c-2.74,7-5,14.3-7.19,21.54-1.11,3.62-2.27,7.22-3.21,10.9s-1.81,7.39-2.68,11.1a132.24,132.24,0,0,1-6.71,21.72c-2.57,6.3-6.15,12.24-9.17,18.39,1.05-6.77,1.53-13.69,3-20.33a132.26,132.26,0,0,1,7-21.63c1.42-3.54,2.89-7.06,4.17-10.63s2.46-7.18,3.63-10.78c2.33-7.21,4.66-14.41,6.46-21.76s3.31-14.78,4.54-22.29c.61-3.75,1.17-7.51,1.59-11.32s.81-7.61.95-11.49l-1-.26c-1.82,3.43-3.42,6.92-4.92,10.43s-2.94,7-4.29,10.6q-4,10.67-7.21,21.56c-2.12,7.27-3.69,14.68-5.28,22.08-.79,3.71-1.63,7.4-2.25,11.15s-1.16,7.52-1.71,11.29a132,132,0,0,1-4.78,22.21c-2,6.51-5.07,12.74-7.54,19.13.46-6.83.33-13.77,1.25-20.52a133,133,0,0,1,5.05-22.16c1.1-3.64,2.26-7.28,3.23-10.95s1.82-7.36,2.67-11.05c1.69-7.39,3.39-14.77,4.54-22.25s2-15,2.58-22.59c.28-3.79.51-7.59.6-11.42s.14-7.65-.06-11.53l-1-.17c-1.51,3.57-2.8,7.19-4,10.82s-2.31,7.27-3.34,10.93q-3.09,11-5.31,22.11c-1.48,7.42-2.4,14.94-3.34,22.46-.46,3.76-1,7.51-1.27,11.3s-.5,7.59-.71,11.39a132.83,132.83,0,0,1-2.84,22.55c-1.44,6.66-3.93,13.13-5.84,19.71-.14-6.85-.87-13.75-.54-20.55a132.2,132.2,0,0,1,3.1-22.51c.78-3.73,1.61-7.45,2.26-11.2s1.17-7.49,1.7-11.24c1-7.5,2.09-15,2.59-22.55s.68-15.13.59-22.73c-.05-3.81-.15-7.61-.4-11.43s-.52-7.64-1.06-11.48l-1-.09c-1.2,3.69-2.17,7.4-3,11.12s-1.67,7.45-2.38,11.19q-2.11,11.2-3.36,22.49c-.82,7.52-1.09,15.09-1.37,22.66-.13,3.78-.32,7.56-.28,11.37s.16,7.6.28,11.41a132.35,132.35,0,0,1-.85,22.71c-.86,6.76-2.78,13.42-4.11,20.14-.73-6.81-2.06-13.61-2.33-20.42a131.85,131.85,0,0,1,1.13-22.7c.45-3.78,1-7.56,1.27-11.35s.52-7.56.72-11.34c.38-7.57.77-15.13.61-22.7s-.64-15.13-1.39-22.7c-.38-3.78-.81-7.56-1.39-11.34s-1.19-7.57-2.06-11.35h-1c-.87,3.78-1.51,7.56-2.06,11.35s-1,7.56-1.39,11.34q-1.12,11.35-1.39,22.7c-.16,7.57.23,15.13.61,22.7.2,3.78.34,7.56.72,11.34s.82,7.57,1.27,11.35a131.85,131.85,0,0,1,1.13,22.7c-.27,6.81-1.6,13.61-2.33,20.42-1.33-6.72-3.25-13.38-4.11-20.14a132.35,132.35,0,0,1-.85-22.71c.12-3.81.29-7.62.28-11.41s-.15-7.59-.28-11.37c-.28-7.57-.54-15.14-1.37-22.66s-1.95-15-3.36-22.49c-.71-3.74-1.47-7.47-2.38-11.19s-1.84-7.43-3-11.12l-1,.09c-.54,3.84-.85,7.66-1.06,11.48s-.35,7.62-.4,11.43q-.13,11.4.59,22.73c.5,7.55,1.55,15,2.59,22.55.53,3.75,1,7.51,1.7,11.24s1.48,7.47,2.26,11.2a132.2,132.2,0,0,1,3.1,22.51c.33,6.8-.4,13.7-.54,20.55-1.91-6.58-4.4-13-5.84-19.71a132.83,132.83,0,0,1-2.84-22.55c-.21-3.8-.37-7.61-.71-11.39s-.8-7.54-1.27-11.3c-.94-7.52-1.86-15-3.34-22.46s-3.25-14.79-5.3-22.11c-1-3.66-2.12-7.31-3.35-10.93s-2.48-7.25-4-10.82l-1,.17c-.2,3.88-.17,7.71-.05,11.53s.31,7.63.59,11.42q.87,11.37,2.58,22.59c1.15,7.48,2.85,14.86,4.54,22.25.85,3.69,1.65,7.39,2.68,11.05s2.12,7.31,3.22,10.95a133,133,0,0,1,5.05,22.16c.92,6.75.79,13.69,1.25,20.52-2.47-6.39-5.52-12.62-7.54-19.13a132,132,0,0,1-4.78-22.21c-.54-3.77-1-7.56-1.71-11.29s-1.46-7.44-2.25-11.15c-1.59-7.4-3.16-14.81-5.28-22.08s-4.53-14.45-7.21-21.56c-1.35-3.56-2.75-7.1-4.29-10.6s-3.1-7-4.92-10.43l-1,.26c.14,3.88.5,7.7.95,11.49s1,7.57,1.59,11.32q1.85,11.26,4.54,22.29c1.8,7.35,4.14,14.55,6.46,21.76,1.17,3.6,2.29,7.22,3.63,10.78s2.75,7.09,4.17,10.63a132.26,132.26,0,0,1,7,21.63c1.51,6.64,2,13.56,3,20.33-3-6.15-6.6-12.09-9.17-18.39a132.24,132.24,0,0,1-6.71-21.72c-.87-3.71-1.68-7.43-2.68-11.1s-2.1-7.28-3.21-10.9c-2.23-7.24-4.45-14.49-7.19-21.54s-5.77-14-9.06-20.85c-1.65-3.43-3.36-6.83-5.2-10.19s-3.7-6.7-5.81-10l-.94.34c.47,3.85,1.17,7.63,2,11.37s1.63,7.46,2.57,11.14q2.82,11.06,6.46,21.8c2.43,7.17,5.39,14.14,8.34,21.12,1.47,3.49,2.9,7,4.55,10.42s3.36,6.83,5.08,10.23a132.72,132.72,0,0,1,8.82,20.94c2.08,6.49,3.15,13.34,4.79,20-3.54-5.86-7.63-11.47-10.74-17.53a131.62,131.62,0,0,1-8.57-21c-1.19-3.62-2.33-7.26-3.64-10.83s-2.73-7.07-4.15-10.58c-2.86-7-5.69-14-9-20.83s-7-13.45-10.85-20c-1.94-3.27-3.94-6.52-6.06-9.7s-4.27-6.35-6.66-9.41l-.91.42c.81,3.79,1.83,7.49,2.94,11.15s2.27,7.29,3.53,10.88q3.76,10.76,8.33,21.15c3.05,6.93,6.61,13.62,10.15,20.31,1.77,3.35,3.5,6.72,5.44,10s3.94,6.5,5.95,9.74a131.31,131.31,0,0,1,10.61,20.1c2.64,6.28,4.31,13,6.52,19.49-4-5.53-8.6-10.76-12.23-16.52a132,132,0,0,1-10.37-20.22c-1.5-3.5-2.95-7-4.57-10.46s-3.34-6.81-5.06-10.19c-3.45-6.74-6.89-13.49-10.81-20s-8.12-12.79-12.55-19c-2.22-3.09-4.49-6.15-6.89-9.13s-4.8-6-7.45-8.8l-.87.5c1.14,3.71,2.48,7.31,3.9,10.86s2.9,7,4.46,10.52q4.69,10.4,10.15,20.35c3.64,6.63,7.76,13,11.88,19.35,2.06,3.18,4.07,6.38,6.29,9.47s4.49,6.14,6.78,9.19a133.27,133.27,0,0,1,12.32,19.09c3.17,6,5.42,12.59,8.19,18.85-4.5-5.15-9.5-10-13.62-15.39a132.63,132.63,0,0,1-12.1-19.23c-1.8-3.36-3.55-6.75-5.46-10s-3.92-6.5-5.93-9.71c-4-6.41-8-12.84-12.51-18.94s-9.2-12-14.16-17.8c-2.48-2.88-5-5.73-7.65-8.49s-5.31-5.52-8.19-8.12l-.82.58c1.45,3.6,3.1,7.06,4.82,10.47s3.51,6.78,5.37,10.1q5.58,9.95,11.88,19.39c4.21,6.29,8.87,12.26,13.52,18.23,2.33,3,4.62,6,7.09,8.89s5,5.73,7.56,8.57a132.08,132.08,0,0,1,13.94,17.94c3.68,5.73,6.5,12.07,9.8,18.07-4.94-4.75-10.33-9.1-14.91-14.15a131.63,131.63,0,0,1-13.73-18.11c-2.08-3.19-4.13-6.41-6.32-9.51s-4.46-6.13-6.74-9.15c-4.57-6-9.14-12.09-14.12-17.78s-10.22-11.18-15.66-16.5c-2.72-2.65-5.48-5.27-8.36-7.79s-5.77-5-8.87-7.37l-.76.64c1.76,3.46,3.7,6.77,5.71,10s4.09,6.45,6.23,9.59q6.44,9.42,13.53,18.28c4.73,5.9,9.9,11.44,15.05,17,2.59,2.78,5.13,5.58,7.85,8.24s5.49,5.27,8.27,7.87a132.25,132.25,0,0,1,15.45,16.67c4.17,5.38,7.53,11.45,11.34,17.14-5.33-4.3-11.09-8.17-16.09-12.79a132,132,0,0,1-15.25-16.85c-2.36-3-4.68-6-7.13-8.92s-5-5.72-7.52-8.53C309,174.87,304,169.24,298.51,164s-11.15-10.24-17-15.06c-2.94-2.41-5.93-4.78-9-7s-6.19-4.51-9.48-6.57l-.71.71c2.06,3.29,4.28,6.41,6.57,9.48s4.63,6.06,7,9q7.23,8.82,15.07,17c5.23,5.46,10.86,10.53,16.48,15.61,2.81,2.54,5.59,5.11,8.53,7.52s5.93,4.77,8.92,7.12a131.38,131.38,0,0,1,16.85,15.26c4.63,5,8.5,10.75,12.79,16.08-5.69-3.81-11.76-7.16-17.14-11.34a131.49,131.49,0,0,1-16.66-15.45c-2.61-2.78-5.18-5.59-7.88-8.27s-5.46-5.26-8.23-7.84c-5.55-5.15-11.09-10.32-17-15.06s-12-9.24-18.28-13.52c-3.14-2.14-6.32-4.24-9.59-6.23s-6.56-3.95-10-5.72l-.64.77c2.34,3.1,4.82,6,7.37,8.87s5.14,5.64,7.8,8.36q8,8.16,16.49,15.65c5.69,5,11.74,9.55,17.78,14.12,3,2.28,6,4.6,9.15,6.75s6.33,4.23,9.52,6.32a132.78,132.78,0,0,1,18.11,13.72c5,4.58,9.4,10,14.14,14.92-6-3.31-12.34-6.12-18.06-9.81a131.55,131.55,0,0,1-17.95-13.94c-2.84-2.54-5.65-5.12-8.57-7.55s-5.9-4.76-8.88-7.09c-6-4.66-11.95-9.32-18.24-13.52s-12.76-8.16-19.39-11.88c-3.32-1.86-6.66-3.68-10.09-5.37s-6.88-3.37-10.48-4.82l-.57.81c2.59,2.89,5.33,5.58,8.11,8.2s5.62,5.17,8.5,7.65q8.64,7.43,17.79,14.15c6.11,4.48,12.53,8.49,18.95,12.52,3.21,2,6.39,4.06,9.7,5.92s6.67,3.67,10,5.47A132.73,132.73,0,0,1,329.55,232c5.42,4.12,10.23,9.11,15.39,13.62-6.27-2.77-12.83-5-18.85-8.19A132,132,0,0,1,307,225.14c-3.05-2.28-6.07-4.61-9.19-6.77s-6.29-4.24-9.47-6.3C282,208,275.62,203.84,269,200.19s-13.42-7-20.35-10.14c-3.46-1.56-7-3.08-10.52-4.47s-7.15-2.75-10.86-3.89l-.5.87c2.84,2.64,5.8,5.09,8.8,7.45s6,4.66,9.13,6.88q9.27,6.66,19,12.55c6.47,3.93,13.22,7.37,20,10.82,3.37,1.72,6.72,3.49,10.18,5.06s7,3.07,10.47,4.57a131.44,131.44,0,0,1,20.21,10.37c5.77,3.63,11,8.19,16.52,12.23-6.48-2.21-13.21-3.88-19.49-6.52a132.1,132.1,0,0,1-20.09-10.61c-3.24-2-6.46-4.07-9.75-6s-6.64-3.67-10-5.44c-6.7-3.55-13.39-7.1-20.31-10.15s-14-5.82-21.16-8.34c-3.59-1.25-7.2-2.45-10.87-3.53S222,199.83,218.18,199l-.42.91c3.06,2.39,6.22,4.56,9.41,6.66s6.43,4.11,9.7,6.06q9.81,5.82,20,10.85c6.79,3.34,13.81,6.18,20.83,9,3.51,1.42,7,2.89,10.59,4.15s7.2,2.45,10.82,3.64a133.61,133.61,0,0,1,21.05,8.57c6.05,3.12,11.66,7.2,17.52,10.75-6.65-1.64-13.5-2.72-20-4.8A131.26,131.26,0,0,1,296.73,246c-3.4-1.72-6.78-3.48-10.23-5.08s-6.93-3.07-10.42-4.55c-7-2.94-13.95-5.9-21.11-8.34s-14.44-4.57-21.81-6.45c-3.68-.94-7.38-1.83-11.14-2.58s-7.51-1.47-11.36-1.94l-.35.94c3.26,2.11,6.6,4,10,5.81s6.77,3.54,10.19,5.19q10.28,4.95,20.85,9.07c7.06,2.74,14.3,5,21.54,7.18,3.62,1.11,7.22,2.27,10.91,3.22s7.39,1.81,11.1,2.68a132.76,132.76,0,0,1,21.71,6.7c6.31,2.58,12.25,6.16,18.39,9.18-6.76-1.05-13.68-1.53-20.33-3a132.61,132.61,0,0,1-21.63-7c-3.54-1.41-7.06-2.88-10.63-4.16s-7.17-2.46-10.78-3.63c-7.21-2.33-14.41-4.67-21.76-6.47s-14.78-3.3-22.28-4.53c-3.75-.61-7.52-1.17-11.32-1.59s-7.62-.81-11.5-.95l-.26,1c3.43,1.82,6.92,3.41,10.43,4.92s7,2.94,10.6,4.28q10.67,4,21.57,7.22c7.26,2.11,14.67,3.69,22.08,5.28,3.7.79,7.39,1.63,11.14,2.25s7.52,1.16,11.29,1.7a132.38,132.38,0,0,1,22.22,4.79c6.5,2,12.74,5.07,19.12,7.54-6.83-.46-13.77-.33-20.52-1.25a132.67,132.67,0,0,1-22.15-5.05c-3.65-1.1-7.29-2.26-11-3.23s-7.36-1.82-11.05-2.67c-7.38-1.69-14.76-3.39-22.24-4.55s-15-2-22.59-2.57c-3.8-.28-7.6-.51-11.42-.6s-7.66-.14-11.53.06l-.18,1c3.58,1.52,7.19,2.8,10.82,4s7.27,2.31,10.93,3.34q11,3.09,22.11,5.31c7.43,1.48,14.94,2.4,22.46,3.34,3.76.46,7.51,1,11.3,1.27s7.59.5,11.4.71a132.7,132.7,0,0,1,22.54,2.83c6.66,1.45,13.13,3.94,19.71,5.85-6.84.13-13.74.87-20.55.54a132.34,132.34,0,0,1-22.51-3.1c-3.73-.78-7.45-1.62-11.19-2.26s-7.49-1.18-11.24-1.7c-7.51-1-15-2.09-22.56-2.59s-15.13-.68-22.73-.59c-3.8,0-7.61.15-11.43.4s-7.64.52-11.48,1.06l-.09,1c3.69,1.2,7.41,2.17,11.13,3s7.44,1.67,11.18,2.38q11.21,2.11,22.49,3.36c7.52.82,15.09,1.09,22.66,1.37,3.79.13,7.57.32,11.37.28s7.61-.16,11.41-.29a132.27,132.27,0,0,1,22.71.86c6.76.86,13.43,2.78,20.14,4.1-6.8.74-13.61,2.07-20.42,2.33a131.73,131.73,0,0,1-22.69-1.12c-3.79-.45-7.57-1-11.35-1.28s-7.57-.51-11.35-.71c-7.57-.38-15.13-.78-22.7-.61s-15.13.63-22.69,1.39c-3.78.37-7.57.81-11.35,1.39s-7.57,1.18-11.35,2.06v1c3.78.87,7.57,1.51,11.35,2.05s7.57,1,11.35,1.4q11.34,1.13,22.69,1.39c7.57.16,15.13-.23,22.7-.62,3.78-.19,7.56-.34,11.35-.71s7.56-.82,11.35-1.28a132.73,132.73,0,0,1,22.69-1.12c6.81.26,13.62,1.6,20.42,2.33-6.71,1.33-13.38,3.25-20.14,4.1a132.27,132.27,0,0,1-22.71.86c-3.8-.12-7.62-.3-11.41-.28s-7.58.14-11.37.28c-7.57.28-15.14.54-22.66,1.36s-15,2-22.49,3.37c-3.74.7-7.47,1.47-11.18,2.37s-7.44,1.84-11.13,3l.09,1c3.84.54,7.67.84,11.48,1.06s7.63.35,11.43.4q11.4.13,22.73-.6c7.55-.49,15.05-1.55,22.56-2.59,3.75-.52,7.5-1,11.24-1.7s7.46-1.47,11.19-2.26A132.32,132.32,0,0,1,311,305.5c6.81-.33,13.71.4,20.55.54-6.58,1.9-13.05,4.4-19.71,5.84a131.7,131.7,0,0,1-22.54,2.83c-3.81.21-7.62.37-11.4.72s-7.54.8-11.3,1.27c-7.52.93-15,1.86-22.46,3.33s-14.79,3.26-22.11,5.31c-3.66,1-7.31,2.12-10.93,3.34s-7.24,2.49-10.82,4l.18,1c3.87.2,7.71.17,11.53.05s7.62-.31,11.42-.6q11.37-.86,22.59-2.57c7.48-1.15,14.86-2.86,22.24-4.55,3.69-.84,7.39-1.64,11.05-2.67s7.31-2.12,11-3.22a130.72,130.72,0,0,1,22.15-5.05c6.75-.93,13.69-.8,20.52-1.25-6.38,2.47-12.62,5.52-19.12,7.53a132.38,132.38,0,0,1-22.22,4.79c-3.77.54-7.55,1-11.29,1.71s-7.44,1.45-11.14,2.24c-7.41,1.59-14.82,3.17-22.08,5.29s-14.46,4.53-21.57,7.21c-3.55,1.35-7.09,2.75-10.6,4.28s-7,3.11-10.43,4.93l.26,1c3.88-.13,7.7-.49,11.5-.95s7.57-1,11.32-1.59q11.25-1.84,22.28-4.53c7.35-1.8,14.55-4.14,21.76-6.47,3.61-1.16,7.22-2.28,10.78-3.62s7.09-2.75,10.63-4.17a132.57,132.57,0,0,1,21.63-7c6.65-1.51,13.57-2,20.33-3-6.14,3-12.08,6.6-18.39,9.18a132.79,132.79,0,0,1-21.71,6.71c-3.71.86-7.44,1.68-11.1,2.68s-7.29,2.1-10.91,3.21c-7.24,2.23-14.48,4.44-21.54,7.18s-14,5.78-20.85,9.07c-3.42,1.65-6.83,3.36-10.19,5.19s-6.7,3.7-10,5.82l.35.94c3.85-.48,7.62-1.17,11.36-1.95s7.46-1.63,11.14-2.57q11.06-2.82,21.81-6.46c7.16-2.43,14.13-5.39,21.11-8.34,3.49-1.48,7-2.91,10.42-4.55s6.83-3.36,10.23-5.08a133.12,133.12,0,0,1,20.94-8.82c6.49-2.08,13.34-3.16,20-4.79-5.86,3.54-11.47,7.62-17.52,10.74a131.73,131.73,0,0,1-21.05,8.57c-3.62,1.19-7.26,2.33-10.82,3.64s-7.08,2.73-10.59,4.15c-7,2.85-14,5.69-20.83,9s-13.44,7-20,10.85c-3.27,1.94-6.51,3.93-9.7,6.06s-6.35,4.27-9.41,6.66l.42.9c3.8-.8,7.5-1.82,11.16-2.93s7.28-2.28,10.87-3.53q10.75-3.78,21.16-8.33c6.92-3.05,13.61-6.61,20.31-10.15,3.34-1.78,6.71-3.51,10-5.44s6.51-3.95,9.75-6A132.1,132.1,0,0,1,321.5,342.5c6.28-2.63,13-4.3,19.49-6.51-5.53,4-10.75,8.59-16.52,12.22a132.38,132.38,0,0,1-20.21,10.38c-3.51,1.5-7,3-10.47,4.57s-6.81,3.33-10.18,5c-6.75,3.46-13.5,6.9-20,10.82s-12.78,8.12-19,12.55c-3.08,2.22-6.14,4.49-9.13,6.88s-6,4.81-8.8,7.46l.5.86c3.71-1.13,7.31-2.47,10.86-3.89s7.06-2.9,10.52-4.47Q259,393.73,269,388.28c6.64-3.64,13-7.77,19.35-11.88,3.18-2.06,6.38-4.08,9.47-6.29s6.14-4.5,9.19-6.78A131.12,131.12,0,0,1,326.09,351c6-3.18,12.58-5.43,18.85-8.19-5.16,4.5-10,9.5-15.39,13.62a132.73,132.73,0,0,1-19.24,12.1c-3.36,1.79-6.75,3.55-10,5.46s-6.49,3.91-9.7,5.92c-6.42,4-12.84,8.05-18.95,12.52s-12,9.2-17.79,14.15c-2.88,2.49-5.73,5-8.5,7.66s-5.52,5.31-8.11,8.19l.57.82c3.6-1.46,7.06-3.1,10.48-4.82s6.77-3.51,10.09-5.37q9.94-5.58,19.39-11.88C284.05,397,290,392.32,296,387.67c3-2.33,6-4.62,8.88-7.1s5.73-5,8.57-7.55a131.55,131.55,0,0,1,17.95-13.94c5.72-3.69,12.06-6.5,18.06-9.8-4.74,4.94-9.1,10.33-14.14,14.91a133.66,133.66,0,0,1-18.11,13.73c-3.19,2.08-6.42,4.13-9.52,6.31s-6.12,4.47-9.15,6.75c-6,4.57-12.09,9.13-17.78,14.12s-11.18,10.21-16.49,15.65c-2.66,2.72-5.27,5.49-7.8,8.37s-5,5.77-7.37,8.87l.64.76c3.46-1.76,6.77-3.7,10-5.72s6.45-4.08,9.59-6.22q9.42-6.44,18.28-13.53c5.9-4.74,11.44-9.9,17-15.06,2.77-2.58,5.57-5.12,8.23-7.84s5.27-5.49,7.88-8.27a131.49,131.49,0,0,1,16.66-15.45c5.38-4.17,11.45-7.53,17.14-11.34-4.29,5.33-8.16,11.09-12.79,16.09a132.05,132.05,0,0,1-16.85,15.25c-3,2.36-6,4.67-8.92,7.12s-5.72,5-8.53,7.52c-5.62,5.08-11.25,10.15-16.48,15.62s-10.25,11.15-15.07,17c-2.41,2.94-4.77,5.92-7,9s-4.51,6.19-6.57,9.48l.71.7c3.29-2.05,6.42-4.28,9.48-6.57s6.07-4.63,9-7q8.82-7.23,17-15.07C304,419.24,309,413.61,314.12,408c2.54-2.82,5.11-5.59,7.52-8.53s4.77-5.93,7.13-8.93A131.89,131.89,0,0,1,344,373.69c5-4.63,10.76-8.5,16.09-12.79-3.81,5.68-7.17,11.75-11.34,17.14a132.17,132.17,0,0,1-15.45,16.66c-2.78,2.61-5.6,5.18-8.27,7.88s-5.26,5.46-7.85,8.23c-5.15,5.55-10.32,11.09-15.05,17s-9.24,12-13.53,18.28c-2.14,3.14-4.24,6.32-6.23,9.59s-3.95,6.56-5.71,10l.76.65c3.1-2.34,6-4.83,8.87-7.37s5.64-5.15,8.36-7.8q8.16-8,15.66-16.49c5-5.69,9.55-11.74,14.12-17.78,2.28-3,4.6-6,6.74-9.16s4.24-6.32,6.32-9.51a132.85,132.85,0,0,1,13.73-18.11c4.58-5,10-9.4,14.91-14.14-3.3,6-6.12,12.33-9.8,18.06a132.17,132.17,0,0,1-13.94,18c-2.54,2.84-5.13,5.65-7.56,8.56s-4.76,5.9-7.09,8.89c-4.65,6-9.31,11.95-13.52,18.24s-8.16,12.76-11.88,19.39c-1.86,3.31-3.67,6.66-5.37,10.09s-3.37,6.88-4.82,10.48l.82.57c2.88-2.6,5.57-5.33,8.19-8.11s5.17-5.62,7.65-8.5q7.44-8.65,14.16-17.8c4.47-6.1,8.49-12.52,12.51-18.94,2-3.21,4.06-6.39,5.93-9.7s3.66-6.67,5.46-10A132.19,132.19,0,0,1,359,385.88c4.12-5.42,9.12-10.23,13.62-15.39-2.77,6.26-5,12.82-8.19,18.85a133.27,133.27,0,0,1-12.32,19.09c-2.29,3.05-4.62,6.08-6.78,9.19s-4.23,6.3-6.29,9.48c-4.12,6.36-8.24,12.71-11.88,19.34s-7,13.43-10.15,20.35c-1.56,3.47-3.07,7-4.46,10.53s-2.76,7.14-3.9,10.85l.87.5c2.65-2.84,5.09-5.79,7.45-8.79s4.67-6.05,6.89-9.14q6.64-9.25,12.55-19c3.92-6.47,7.36-13.22,10.81-20,1.72-3.37,3.49-6.72,5.06-10.18s3.07-7,4.57-10.47A132.9,132.9,0,0,1,367.21,391c3.63-5.76,8.19-11,12.23-16.52-2.21,6.48-3.88,13.22-6.52,19.5A131.68,131.68,0,0,1,362.31,414c-2,3.24-4.06,6.45-5.95,9.75s-3.67,6.64-5.44,10c-3.54,6.7-7.1,13.39-10.15,20.31s-5.82,14-8.33,21.16c-1.26,3.59-2.46,7.2-3.53,10.87s-2.13,7.36-2.94,11.16l.91.42c2.39-3.06,4.57-6.22,6.66-9.42s4.12-6.42,6.06-9.69q5.82-9.81,10.85-20c3.35-6.78,6.18-13.81,9-20.82,1.42-3.51,2.88-7,4.15-10.59s2.45-7.2,3.64-10.82a131.35,131.35,0,0,1,8.57-21c3.11-6.06,7.2-11.66,10.74-17.52-1.64,6.65-2.71,13.5-4.79,20A133.12,133.12,0,0,1,373,418.7c-1.72,3.4-3.49,6.78-5.08,10.23s-3.08,6.93-4.55,10.41c-3,7-5.91,14-8.34,21.12s-4.58,14.44-6.46,21.8c-.94,3.69-1.82,7.39-2.57,11.14s-1.48,7.52-2,11.37l.94.34c2.11-3.25,4-6.59,5.81-10s3.55-6.76,5.2-10.18q4.93-10.28,9.06-20.86c2.74-7.05,5-14.29,7.19-21.53,1.11-3.62,2.27-7.23,3.21-10.91s1.81-7.39,2.68-11.1a131.83,131.83,0,0,1,6.71-21.71c2.57-6.31,6.15-12.25,9.17-18.39-1.05,6.76-1.52,13.68-3,20.32a132.37,132.37,0,0,1-7,21.64c-1.42,3.53-2.89,7.06-4.17,10.63s-2.46,7.17-3.63,10.77c-2.32,7.21-4.66,14.42-6.46,21.77s-3.31,14.78-4.54,22.28c-.61,3.75-1.17,7.52-1.59,11.32s-.81,7.62-.95,11.5l1,.25c1.82-3.42,3.42-6.91,4.92-10.42s2.94-7,4.29-10.6q4-10.68,7.21-21.57c2.12-7.26,3.69-14.67,5.28-22.08.79-3.7,1.63-7.39,2.25-11.15s1.17-7.52,1.71-11.29a132.46,132.46,0,0,1,4.78-22.21c2-6.51,5.07-12.74,7.54-19.12-.46,6.83-.33,13.76-1.25,20.51a132.79,132.79,0,0,1-5.05,22.16c-1.1,3.65-2.26,7.28-3.22,10.95s-1.83,7.36-2.68,11.06c-1.69,7.38-3.39,14.76-4.54,22.24s-2,15-2.58,22.59c-.28,3.79-.51,7.59-.59,11.42s-.15,7.66.05,11.53l1,.18c1.51-3.58,2.8-7.19,4-10.82s2.32-7.28,3.35-10.94q3.07-11,5.3-22.11c1.48-7.42,2.4-14.94,3.34-22.45.47-3.76,1-7.51,1.27-11.3s.5-7.6.71-11.4a132.83,132.83,0,0,1,2.84-22.55c1.44-6.65,3.93-13.13,5.84-19.7.14,6.84.87,13.74.54,20.54a132.46,132.46,0,0,1-3.1,22.52c-.78,3.72-1.61,7.45-2.26,11.19s-1.17,7.49-1.7,11.24c-1,7.51-2.09,15-2.59,22.56s-.68,15.13-.59,22.73c.05,3.8.15,7.61.4,11.42s.52,7.64,1.06,11.49l1,.09c1.19-3.7,2.16-7.41,3-11.13s1.67-7.45,2.38-11.18q2.12-11.21,3.36-22.49c.83-7.52,1.09-15.09,1.37-22.66.13-3.79.32-7.57.28-11.37s-.16-7.61-.28-11.42a132.19,132.19,0,0,1,.85-22.7c.86-6.76,2.78-13.43,4.11-20.15.73,6.81,2.06,13.62,2.33,20.43a131.73,131.73,0,0,1-1.13,22.69c-.45,3.78-1,7.57-1.27,11.35s-.52,7.57-.72,11.35c-.38,7.56-.77,15.13-.61,22.69s.64,15.13,1.39,22.7c.38,3.78.81,7.57,1.39,11.35s1.19,7.56,2.06,11.35h1c.87-3.79,1.51-7.57,2.06-11.35s1-7.57,1.39-11.35q1.13-11.36,1.39-22.7c.16-7.56-.23-15.13-.61-22.69-.2-3.78-.34-7.57-.72-11.35s-.82-7.57-1.27-11.35A131.73,131.73,0,0,1,422.8,405c.27-6.81,1.6-13.62,2.33-20.43,1.33,6.72,3.25,13.39,4.11,20.15a132.19,132.19,0,0,1,.85,22.7c-.12,3.81-.29,7.62-.28,11.42s.15,7.58.28,11.37c.28,7.57.55,15.14,1.37,22.66s2,15,3.36,22.49c.71,3.73,1.47,7.46,2.38,11.18s1.84,7.43,3,11.13l1-.09c.54-3.85.85-7.67,1.06-11.49s.35-7.62.4-11.42q.13-11.4-.59-22.73c-.5-7.55-1.55-15.05-2.59-22.56-.53-3.75-1-7.51-1.7-11.24s-1.48-7.47-2.26-11.19a132.46,132.46,0,0,1-3.1-22.52c-.33-6.8.4-13.7.54-20.54,1.91,6.57,4.4,13.05,5.84,19.7a132.83,132.83,0,0,1,2.84,22.55c.21,3.8.37,7.62.71,11.4s.81,7.54,1.27,11.3c.94,7.51,1.86,15,3.34,22.45s3.25,14.79,5.31,22.11c1,3.66,2.11,7.31,3.34,10.94s2.48,7.24,4,10.82l1-.18c.2-3.87.17-7.71.06-11.53s-.32-7.63-.6-11.42q-.87-11.37-2.58-22.59c-1.15-7.48-2.85-14.86-4.54-22.24-.85-3.7-1.65-7.4-2.67-11.06s-2.13-7.3-3.23-10.95A132.79,132.79,0,0,1,442,403c-.92-6.75-.79-13.68-1.25-20.51,2.47,6.38,5.52,12.61,7.54,19.12a132.46,132.46,0,0,1,4.78,22.21c.55,3.77,1,7.56,1.71,11.29s1.46,7.45,2.25,11.15c1.59,7.41,3.16,14.82,5.28,22.08s4.53,14.45,7.21,21.57c1.35,3.55,2.75,7.09,4.29,10.6s3.1,7,4.92,10.42l1-.25c-.14-3.88-.5-7.7-.95-11.5s-1-7.57-1.59-11.32q-1.85-11.25-4.54-22.28c-1.8-7.35-4.13-14.56-6.46-21.77-1.17-3.6-2.29-7.22-3.63-10.77s-2.75-7.1-4.17-10.63a132.37,132.37,0,0,1-7-21.64c-1.5-6.64-2-13.56-3-20.32,3,6.14,6.6,12.08,9.17,18.39a131.83,131.83,0,0,1,6.71,21.71c.87,3.71,1.69,7.44,2.68,11.1s2.1,7.29,3.21,10.91c2.23,7.24,4.45,14.48,7.19,21.53s5.77,14,9.07,20.86c1.65,3.42,3.35,6.83,5.19,10.18s3.7,6.71,5.81,10l.94-.34c-.47-3.85-1.17-7.62-2-11.37s-1.63-7.45-2.57-11.14q-2.82-11-6.46-21.8c-2.43-7.16-5.39-14.14-8.34-21.12-1.47-3.48-2.9-7-4.55-10.41s-3.36-6.83-5.08-10.23a133.12,133.12,0,0,1-8.82-20.94c-2.08-6.49-3.15-13.34-4.79-20,3.54,5.86,7.63,11.46,10.74,17.52a132.32,132.32,0,0,1,8.58,21c1.18,3.62,2.32,7.26,3.64,10.82s2.72,7.08,4.15,10.59c2.85,7,5.69,14,9,20.82s7,13.45,10.85,20c1.94,3.27,3.94,6.51,6.06,9.69s4.27,6.36,6.66,9.42l.91-.42c-.81-3.8-1.83-7.5-2.93-11.16s-2.28-7.28-3.54-10.87q-3.76-10.77-8.33-21.16c-3.05-6.92-6.6-13.61-10.15-20.31-1.77-3.34-3.5-6.71-5.44-10s-3.94-6.51-5.95-9.75a131.68,131.68,0,0,1-10.61-20.09c-2.64-6.28-4.31-13-6.52-19.5,4,5.53,8.6,10.76,12.23,16.52a132.9,132.9,0,0,1,10.37,20.22c1.5,3.5,2.95,7,4.57,10.47s3.34,6.81,5.06,10.18c3.45,6.74,6.89,13.49,10.81,20s8.12,12.79,12.56,19c2.21,3.09,4.48,6.15,6.88,9.14s4.81,5.95,7.45,8.79l.87-.5c-1.14-3.71-2.48-7.3-3.89-10.85s-2.91-7.06-4.47-10.53q-4.7-10.38-10.15-20.35c-3.64-6.63-7.76-13-11.88-19.34-2.06-3.18-4.07-6.39-6.29-9.48s-4.49-6.14-6.78-9.19A133.27,133.27,0,0,1,478,389.34c-3.17-6-5.42-12.59-8.19-18.85,4.51,5.16,9.5,10,13.62,15.39a132.19,132.19,0,0,1,12.1,19.24c1.8,3.36,3.55,6.75,5.46,10s3.92,6.49,5.93,9.7c4,6.42,8,12.84,12.51,18.94s9.2,12,14.16,17.8c2.48,2.88,5,5.73,7.65,8.5s5.31,5.51,8.19,8.11l.82-.57c-1.45-3.6-3.1-7.07-4.82-10.48s-3.51-6.78-5.37-10.09q-5.58-9.94-11.88-19.39c-4.2-6.29-8.87-12.26-13.52-18.24-2.33-3-4.62-6-7.09-8.89s-5-5.72-7.56-8.56A133,133,0,0,1,486,384c-3.68-5.73-6.5-12.07-9.8-18.06,4.94,4.74,10.34,9.1,14.91,14.14a132,132,0,0,1,13.73,18.11c2.08,3.19,4.13,6.41,6.32,9.51s4.46,6.13,6.75,9.16c4.57,6,9.13,12.09,14.11,17.78s10.22,11.18,15.66,16.49c2.72,2.65,5.48,5.27,8.36,7.8s5.77,5,8.87,7.37l.76-.65c-1.76-3.45-3.7-6.76-5.71-10s-4.09-6.45-6.23-9.59q-6.43-9.42-13.52-18.28c-4.74-5.9-9.91-11.44-15.06-17-2.58-2.77-5.13-5.58-7.84-8.23s-5.5-5.27-8.28-7.88A132.17,132.17,0,0,1,493.61,378c-4.17-5.39-7.52-11.46-11.34-17.14,5.34,4.29,11.09,8.16,16.09,12.79a131.89,131.89,0,0,1,15.25,16.84c2.36,3,4.68,6,7.13,8.93s5,5.71,7.52,8.53c5.08,5.62,10.15,11.25,15.61,16.48s11.15,10.25,17,15.07c2.94,2.4,5.93,4.77,9,7s6.19,4.52,9.48,6.57l.71-.7c-2.06-3.29-4.28-6.42-6.57-9.48s-4.63-6.07-7-9q-7.23-8.82-15.07-17c-5.23-5.47-10.86-10.54-16.48-15.62-2.81-2.53-5.59-5.11-8.53-7.52s-5.93-4.76-8.92-7.12a132.73,132.73,0,0,1-16.85-15.25c-4.62-5-8.5-10.76-12.79-16.09,5.69,3.81,11.76,7.17,17.14,11.34a132.25,132.25,0,0,1,16.67,15.45c2.6,2.78,5.17,5.6,7.87,8.27s5.46,5.26,8.23,7.84c5.55,5.16,11.09,10.32,17,15.06s12,9.24,18.27,13.53c3.15,2.14,6.32,4.24,9.59,6.22s6.56,4,10,5.72l.64-.76c-2.34-3.1-4.82-6-7.37-8.87s-5.14-5.65-7.8-8.37q-8-8.16-16.49-15.65c-5.69-5-11.74-9.55-17.78-14.12-3-2.28-6-4.6-9.15-6.75s-6.33-4.23-9.52-6.31a133,133,0,0,1-18.1-13.73c-5.05-4.58-9.41-10-14.15-14.91,6,3.3,12.34,6.11,18.07,9.8A132.08,132.08,0,0,1,528.93,373c2.84,2.54,5.65,5.12,8.57,7.55s5.9,4.77,8.88,7.1c6,4.65,12,9.31,18.24,13.52s12.76,8.16,19.39,11.88c3.32,1.86,6.66,3.67,10.1,5.37s6.87,3.36,10.47,4.82l.57-.82c-2.59-2.88-5.33-5.58-8.11-8.19s-5.62-5.17-8.5-7.66q-8.64-7.43-17.79-14.15c-6.11-4.47-12.53-8.49-19-12.52-3.21-2-6.39-4.06-9.7-5.92s-6.67-3.67-10-5.46a132.09,132.09,0,0,1-19.23-12.1c-5.43-4.12-10.24-9.12-15.4-13.62,6.27,2.76,12.83,5,18.86,8.19a131.57,131.57,0,0,1,19.09,12.32c3.05,2.28,6.07,4.61,9.19,6.78s6.29,4.23,9.47,6.29c6.36,4.11,12.71,8.24,19.35,11.88s13.42,7,20.35,10.14c3.46,1.57,7,3.08,10.52,4.47s7.15,2.76,10.86,3.89l.5-.86c-2.84-2.65-5.8-5.09-8.8-7.46s-6.05-4.66-9.13-6.88q-9.27-6.65-19-12.55c-6.47-3.92-13.22-7.36-20-10.82-3.38-1.72-6.73-3.48-10.19-5s-7-3.07-10.46-4.57a132,132,0,0,1-20.22-10.38c-5.76-3.63-11-8.18-16.52-12.22,6.48,2.21,13.21,3.88,19.49,6.51A132.67,132.67,0,0,1,541,353.11c3.23,2,6.45,4.07,9.74,6s6.64,3.66,10,5.44c6.7,3.54,13.39,7.1,20.31,10.15s14,5.81,21.16,8.33c3.59,1.25,7.2,2.46,10.88,3.53s7.35,2.13,11.15,2.93l.42-.9c-3.06-2.39-6.22-4.57-9.41-6.66s-6.43-4.12-9.7-6.06q-9.81-5.82-20-10.85c-6.79-3.35-13.81-6.19-20.83-9-3.51-1.42-7-2.89-10.59-4.15s-7.2-2.45-10.82-3.64a132.11,132.11,0,0,1-21-8.57c-6-3.12-11.66-7.2-17.52-10.74,6.65,1.63,13.5,2.71,20,4.79a133.12,133.12,0,0,1,20.94,8.82c3.4,1.72,6.78,3.49,10.23,5.08s6.93,3.07,10.42,4.55c7,2.95,14,5.91,21.12,8.34s14.43,4.58,21.8,6.46c3.68.94,7.39,1.82,11.14,2.57s7.51,1.47,11.37,1.95l.34-.94c-3.26-2.12-6.59-4-10-5.82s-6.76-3.54-10.19-5.19q-10.27-4.93-20.85-9.07c-7.05-2.74-14.3-4.95-21.54-7.18-3.62-1.11-7.22-2.27-10.91-3.21s-7.39-1.82-11.1-2.68a133.1,133.1,0,0,1-21.71-6.71c-6.3-2.58-12.25-6.16-18.39-9.18,6.76,1.06,13.68,1.53,20.33,3a132.57,132.57,0,0,1,21.63,7c3.54,1.42,7.06,2.88,10.63,4.17s7.17,2.46,10.78,3.62c7.21,2.33,14.41,4.67,21.76,6.47s14.78,3.3,22.28,4.53c3.76.62,7.52,1.18,11.33,1.59s7.61.82,11.49.95l.26-1c-3.43-1.82-6.92-3.42-10.43-4.93s-7.05-2.93-10.6-4.28q-10.67-4-21.56-7.21c-7.27-2.12-14.68-3.7-22.09-5.29-3.7-.79-7.39-1.63-11.14-2.24s-7.52-1.17-11.29-1.71a132.38,132.38,0,0,1-22.22-4.79c-6.5-2-12.73-5.06-19.12-7.53,6.83.45,13.77.32,20.52,1.25a130.72,130.72,0,0,1,22.15,5.05c3.65,1.1,7.29,2.25,11,3.22s7.36,1.83,11,2.67c7.38,1.69,14.76,3.4,22.24,4.55s15,2,22.6,2.57c3.79.29,7.59.52,11.41.6s7.66.15,11.54-.05l.17-1c-3.57-1.51-7.19-2.8-10.82-4s-7.27-2.31-10.93-3.34q-11-3.07-22.11-5.31c-7.42-1.47-14.94-2.4-22.46-3.33-3.76-.47-7.51-1-11.3-1.27s-7.59-.51-11.4-.72a131.82,131.82,0,0,1-22.54-2.83c-6.66-1.44-13.13-3.94-19.71-5.84,6.85-.14,13.74-.87,20.55-.54a132.32,132.32,0,0,1,22.51,3.09c3.73.79,7.45,1.62,11.19,2.26s7.49,1.18,11.25,1.7c7.5,1,15,2.1,22.55,2.59s15.13.69,22.73.6c3.8-.05,7.61-.15,11.43-.4s7.64-.52,11.48-1.06l.09-1c-3.69-1.2-7.41-2.16-11.13-3s-7.44-1.67-11.18-2.37q-11.2-2.12-22.49-3.37c-7.52-.82-15.09-1.08-22.66-1.36-3.79-.14-7.57-.32-11.37-.28s-7.61.16-11.41.28a132.35,132.35,0,0,1-22.71-.86c-6.76-.85-13.42-2.77-20.14-4.1,6.8-.73,13.61-2.07,20.42-2.33A132.9,132.9,0,0,1,554.64,297ZM421.69,336.9h-1c-.73,2.8-1.27,5.61-1.73,8.41-.21-2.83-.51-5.67-1-8.53l-1-.09c-1,2.73-1.75,5.48-2.45,8.23,0-2.84,0-5.7-.25-8.58l-1-.18c-1.21,2.64-2.23,5.3-3.16,8,.28-2.83.48-5.68.5-8.58l-1-.25c-1.43,2.51-2.69,5.08-3.85,7.67.53-2.79,1-5.61,1.25-8.49l-.94-.35c-1.64,2.39-3.12,4.84-4.5,7.32.77-2.74,1.46-5.51,2-8.36l-.9-.42c-1.85,2.23-3.53,4.54-5.12,6.89,1-2.65,1.93-5.35,2.7-8.15l-.86-.5c-2,2.07-3.91,4.22-5.71,6.42,1.24-2.56,2.4-5.17,3.41-7.88l-.82-.57c-2.2,1.87-4.26,3.86-6.24,5.89,1.45-2.44,2.84-4.93,4.08-7.55l-.76-.64c-2.37,1.67-4.58,3.47-6.74,5.33,1.66-2.31,3.26-4.68,4.73-7.17l-.71-.71c-2.5,1.47-4.86,3.06-7.17,4.72,1.85-2.15,3.65-4.37,5.33-6.73l-.64-.76c-2.62,1.24-5.12,2.62-7.56,4.08,2-2,4-4,5.9-6.24l-.57-.82c-2.72,1-5.33,2.17-7.88,3.4,2.2-1.79,4.35-3.67,6.41-5.7l-.5-.87c-2.79.77-5.49,1.71-8.14,2.71,2.34-1.6,4.65-3.27,6.89-5.12l-.42-.91c-2.85.53-5.63,1.22-8.36,2,2.48-1.39,4.93-2.86,7.31-4.5l-.34-.94c-2.88.27-5.7.72-8.49,1.25,2.59-1.17,5.15-2.42,7.67-3.85l-.26-1c-2.89,0-5.74.22-8.57.5,2.68-.93,5.35-2,8-3.16l-.17-1c-2.89-.23-5.74-.28-8.58-.24,2.75-.7,5.5-1.49,8.23-2.46l-.09-1c-2.86-.49-5.7-.78-8.53-1,2.8-.46,5.61-1,8.41-1.73v-1c-2.8-.73-5.61-1.28-8.41-1.73,2.83-.21,5.67-.51,8.53-1l.09-1c-2.73-1-5.48-1.76-8.23-2.46,2.84,0,5.69,0,8.58-.24l.17-1c-2.63-1.21-5.3-2.23-8-3.17,2.83.29,5.68.49,8.57.51l.26-1c-2.52-1.43-5.08-2.68-7.67-3.85,2.79.53,5.61,1,8.49,1.26l.34-.94c-2.38-1.65-4.83-3.12-7.31-4.51,2.73.78,5.51,1.47,8.36,2l.42-.91c-2.24-1.84-4.55-3.52-6.89-5.12,2.65,1,5.35,1.94,8.14,2.71l.5-.87c-2.06-2-4.21-3.9-6.41-5.7,2.55,1.23,5.16,2.4,7.88,3.41l.57-.82c-1.88-2.21-3.86-4.26-5.9-6.24,2.44,1.45,4.94,2.83,7.56,4.08l.64-.77c-1.68-2.36-3.48-4.58-5.33-6.73,2.31,1.66,4.67,3.26,7.17,4.72l.71-.7c-1.47-2.5-3.07-4.87-4.73-7.17,2.16,1.85,4.37,3.65,6.74,5.33l.76-.64c-1.24-2.62-2.63-5.12-4.08-7.56,2,2,4,4,6.24,5.9l.82-.58c-1-2.71-2.17-5.32-3.41-7.88,1.8,2.2,3.67,4.36,5.71,6.42l.86-.5c-.77-2.79-1.7-5.49-2.7-8.15,1.59,2.35,3.27,4.66,5.12,6.89l.9-.42c-.52-2.85-1.21-5.62-2-8.35,1.38,2.48,2.86,4.92,4.5,7.31l.94-.34c-.27-2.89-.72-5.71-1.25-8.5,1.16,2.59,2.42,5.16,3.85,7.68l1-.26c0-2.9-.22-5.75-.5-8.57.93,2.68,1.95,5.35,3.16,8l1-.17c.24-2.89.29-5.75.25-8.59.7,2.76,1.48,5.5,2.45,8.23l1-.09c.48-2.85.78-5.69,1-8.53.46,2.81,1,5.61,1.73,8.42h1c.73-2.81,1.27-5.61,1.73-8.42.21,2.84.51,5.68,1,8.53l1,.09c1-2.73,1.75-5.47,2.45-8.23,0,2.84,0,5.7.25,8.59l1,.17c1.21-2.63,2.23-5.3,3.17-8-.29,2.82-.49,5.67-.51,8.57l1,.26c1.44-2.52,2.69-5.09,3.85-7.68-.53,2.79-1,5.61-1.25,8.5l.94.34c1.65-2.39,3.12-4.83,4.5-7.31-.77,2.73-1.46,5.5-2,8.35l.9.42c1.85-2.23,3.53-4.54,5.13-6.89-1,2.66-1.94,5.36-2.71,8.15l.86.5c2-2.06,3.91-4.22,5.71-6.42-1.24,2.56-2.4,5.17-3.41,7.88l.82.58c2.21-1.88,4.26-3.87,6.24-5.9-1.45,2.44-2.84,4.94-4.08,7.56l.77.64c2.36-1.68,4.58-3.48,6.73-5.33-1.66,2.3-3.26,4.67-4.73,7.17l.71.7c2.5-1.46,4.87-3.06,7.17-4.72-1.85,2.15-3.65,4.37-5.33,6.73l.64.77c2.62-1.25,5.12-2.63,7.56-4.08-2,2-4,4-5.9,6.24l.57.82c2.72-1,5.33-2.18,7.89-3.41-2.2,1.8-4.36,3.67-6.42,5.7l.5.87c2.79-.77,5.49-1.7,8.15-2.71-2.35,1.6-4.66,3.28-6.9,5.12l.43.91c2.85-.52,5.62-1.21,8.35-2-2.48,1.39-4.93,2.86-7.31,4.51l.34.94c2.88-.28,5.7-.73,8.5-1.26-2.59,1.17-5.16,2.42-7.68,3.85l.26,1c2.89,0,5.74-.22,8.57-.51-2.68.94-5.35,2-8,3.17l.17,1c2.89.23,5.74.28,8.58.24-2.75.7-5.49,1.49-8.22,2.46l.08,1c2.86.48,5.7.78,8.53,1-2.8.45-5.6,1-8.41,1.73v1c2.81.73,5.61,1.27,8.41,1.73-2.83.21-5.67.5-8.53,1l-.08,1c2.73,1,5.47,1.76,8.22,2.46-2.84,0-5.69,0-8.58.24l-.17,1c2.63,1.2,5.3,2.23,8,3.16-2.83-.28-5.68-.48-8.57-.5l-.26,1c2.52,1.43,5.09,2.68,7.68,3.85-2.8-.53-5.62-1-8.5-1.25l-.34.94c2.38,1.64,4.83,3.11,7.31,4.5-2.73-.77-5.5-1.46-8.35-2l-.43.91c2.24,1.85,4.55,3.52,6.9,5.12-2.66-1-5.36-1.94-8.15-2.71l-.5.87c2.06,2,4.22,3.91,6.42,5.7-2.56-1.23-5.17-2.39-7.89-3.4l-.57.82c1.88,2.2,3.86,4.26,5.9,6.24-2.44-1.46-4.94-2.84-7.56-4.08l-.64.76c1.68,2.36,3.48,4.58,5.33,6.73-2.3-1.66-4.67-3.25-7.17-4.72l-.71.71c1.47,2.49,3.07,4.86,4.73,7.17-2.15-1.86-4.37-3.66-6.73-5.33l-.77.64c1.24,2.62,2.63,5.11,4.08,7.55-2-2-4-4-6.24-5.89l-.82.57c1,2.71,2.17,5.32,3.41,7.88-1.8-2.2-3.67-4.35-5.71-6.42l-.86.5c.77,2.8,1.7,5.5,2.71,8.15-1.6-2.35-3.28-4.66-5.13-6.89l-.9.42c.52,2.85,1.21,5.62,2,8.36-1.38-2.48-2.85-4.93-4.5-7.32l-.94.35c.28,2.88.72,5.7,1.25,8.49-1.16-2.59-2.41-5.16-3.85-7.67l-1,.25c0,2.9.22,5.75.51,8.58-.94-2.69-2-5.35-3.17-8l-1,.18c-.24,2.88-.28,5.74-.25,8.58-.7-2.75-1.48-5.5-2.45-8.23l-1,.09c-.48,2.86-.78,5.7-1,8.53C423,342.51,422.42,339.7,421.69,336.9Z"/>
</svg>
