<svg id="Calque_1" data-name="Calque 1" xmlns="http://www.w3.org/2000/svg" width="29.7cm" height="21cm" viewBox="0 0 841.89 595.28">
  <defs>
    <style>
      .cls-1 {
        fill: #fff;
      }
    </style>
  </defs>
  <title>Plan de travail 4</title>
  <metadata><?xpacket begin="﻿" id="W5M0MpCehiHzreSzNTczkc9d"?>
<x:xmpmeta xmlns:x="adobe:ns:meta/" x:xmptk="Adobe XMP Core 5.6-c137 79.159547, 2016/07/07-11:39:24        ">
   <rdf:RDF xmlns:rdf="http://www.w3.org/1999/02/22-rdf-syntax-ns#">
      <rdf:Description rdf:about=""
            xmlns:dc="http://purl.org/dc/elements/1.1/"
            xmlns:xmpMM="http://ns.adobe.com/xap/1.0/mm/"
            xmlns:stEvt="http://ns.adobe.com/xap/1.0/sType/ResourceEvent#"
            xmlns:xmp="http://ns.adobe.com/xap/1.0/">
         <dc:title>
            <rdf:Alt>
               <rdf:li xml:lang="x-default">Plan de travail 4</rdf:li>
            </rdf:Alt>
         </dc:title>
         <xmpMM:PreservedFileName>16.svg</xmpMM:PreservedFileName>
         <xmpMM:InstanceID>xmp.iid:33c156b3-f91a-45b2-b5dd-307008fa3c53</xmpMM:InstanceID>
         <xmpMM:DocumentID>xmp.did:33c156b3-f91a-45b2-b5dd-307008fa3c53</xmpMM:DocumentID>
         <xmpMM:OriginalDocumentID>xmp.did:33c156b3-f91a-45b2-b5dd-307008fa3c53</xmpMM:OriginalDocumentID>
         <xmpMM:History>
            <rdf:Seq>
               <rdf:li>
                  <rdf:Description>
                     <stEvt:action>saved</stEvt:action>
                     <stEvt:instanceID>xmp.iid:33c156b3-f91a-45b2-b5dd-307008fa3c53</stEvt:instanceID>
                     <stEvt:when>2018-09-27T10:33:59+02:00</stEvt:when>
                     <stEvt:softwareAgent>Adobe Bridge CC 2017 (Macintosh)</stEvt:softwareAgent>
                     <stEvt:changed>/metadata</stEvt:changed>
                  </rdf:Description>
               </rdf:li>
            </rdf:Seq>
         </xmpMM:History>
         <xmp:MetadataDate>2018-09-27T10:33:59+02:00</xmp:MetadataDate>
      </rdf:Description>
   </rdf:RDF>
</x:xmpmeta>
                                                                                                    
                                                                                                    
                                                                                                    
                                                                                                    
                                                                                                    
                                                                                                    
                                                                                                    
                                                                                                    
                                                                                                    
                                                                                                    
                                                                                                    
                                                                                                    
                                                                                                    
                                                                                                    
                                                                                                    
                                                                                                    
                                                                                                    
                                                                                                    
                                                                                                    
                                                                                                    
                           
<?xpacket end="w"?></metadata>
<rect class="cls-1" x="400.1" y="78.5" width="22.19" height="190.79"/>
  <rect class="cls-1" x="320.72" y="106.29" width="22.19" height="190.79" transform="translate(-52.01 260.47) rotate(-40)"/>
  <rect class="cls-1" x="277.77" y="178.6" width="22.19" height="190.79" transform="translate(-31.14 510.89) rotate(-80)"/>
  <rect class="cls-1" x="291.35" y="261.61" width="22.19" height="190.79" transform="translate(144.49 797.43) rotate(-120)"/>
  <rect class="cls-1" x="355.11" y="316.46" width="22.19" height="190.79" transform="translate(569.46 924.12) rotate(-160)"/>
  <rect class="cls-1" x="439.21" y="317.5" width="22.19" height="190.79" transform="translate(1014.67 646.88) rotate(160)"/>
  <rect class="cls-1" x="504.3" y="264.23" width="22.19" height="190.79" transform="translate(1084.54 93.1) rotate(120)"/>
  <rect class="cls-1" x="519.93" y="181.59" width="22.19" height="190.79" transform="translate(711.59 -294.07) rotate(80)"/>
  <rect class="cls-1" x="478.78" y="108.24" width="22.19" height="190.79" transform="translate(245.5 -267.24) rotate(40)"/>
  <path class="cls-1" d="M349.31,138.42c5.3,10.43,10.14,21.05,14.81,31.73s9.18,21.43,13.52,32.25,8.53,21.69,12.49,32.66,7.82,22,11.19,33.18c-5.3-10.43-10.14-21.05-14.81-31.73s-9.18-21.44-13.51-32.25-8.52-21.7-12.49-32.66S352.69,149.62,349.31,138.42Z"/>
  <path class="cls-1" d="M261.41,214.92c10.76,4.59,21.29,9.61,31.74,14.79s20.8,10.52,31.08,16,20.48,11.13,30.57,17,20.11,11.81,29.9,18.23c-10.77-4.59-21.3-9.61-31.75-14.79s-20.8-10.52-31.08-16-20.47-11.14-30.56-17S271.19,221.33,261.41,214.92Z"/>
  <path class="cls-1" d="M242.53,329.17c11.19-3.4,22.49-6.32,33.82-9.07s22.7-5.31,34.1-7.71,22.85-4.63,34.34-6.63,23-3.89,34.62-5.26c-11.2,3.41-22.49,6.33-33.82,9.08s-22.71,5.31-34.11,7.7-22.85,4.63-34.34,6.63S254.14,327.8,242.53,329.17Z"/>
  <path class="cls-1" d="M302.62,428.84c6.39-9.81,13.16-19.3,20.08-28.69s14-18.67,21.16-27.83,14.53-18.24,22-27.15S381,327.4,389,318.88c-6.38,9.81-13.16,19.31-20.07,28.7s-14,18.66-21.18,27.82-14.52,18.23-22,27.15S310.63,420.31,302.62,428.84Z"/>
  <path class="cls-1" d="M412.18,467.27c-1.41-11.61-2.32-23.25-3.06-34.88s-1.29-23.28-1.67-34.93-.6-23.3-.57-35,.16-23.33.83-35c1.41,11.62,2.33,23.25,3.07,34.88s1.29,23.28,1.66,34.93.59,23.3.56,35S412.84,455.59,412.18,467.27Z"/>
  <path class="cls-1" d="M520.74,424.89c-8.55-8-16.72-16.31-24.77-24.75s-16-17-23.73-25.68S456.8,357,449.33,348s-14.87-18-21.87-27.35c8.55,8,16.73,16.31,24.77,24.75s16,17,23.73,25.68,15.43,17.48,22.91,26.42S513.73,415.52,520.74,424.89Z"/>
  <path class="cls-1" d="M576.27,323.34c-11.68-.63-23.29-1.75-34.88-3s-23.15-2.77-34.69-4.42-23.05-3.46-34.53-5.51-22.94-4.21-34.33-6.9c11.68.63,23.3,1.75,34.89,3s23.15,2.77,34.68,4.42,23.05,3.47,34.53,5.52S564.88,320.66,576.27,323.34Z"/>
  <path class="cls-1" d="M554.62,210.16c-9.36,7-19,13.64-28.68,20.09S506.42,243,496.53,249.17s-19.89,12.16-30,18-20.28,11.52-30.73,16.78c9.35-7,19-13.64,28.68-20.09s19.51-12.76,29.41-18.91,19.89-12.16,30-18S544.17,215.43,554.62,210.16Z"/>
  <path class="cls-1" d="M465.11,137.17c-2.65,11.4-5.77,22.64-9.05,33.83s-6.75,22.32-10.38,33.39-7.41,22.1-11.42,33.05-8.13,21.86-12.76,32.61c2.65-11.4,5.77-22.64,9.05-33.83s6.75-22.31,10.38-33.39,7.42-22.09,11.43-33S460.5,147.92,465.11,137.17Z"/>
</svg>
