<svg id="Calque_1" data-name="Calque 1" xmlns="http://www.w3.org/2000/svg" width="29.7cm" height="21cm" viewBox="0 0 841.89 595.28">
  <defs>
    <style>
      .cls-1 {
        fill: #fff;
      }
    </style>
  </defs>
  <title>Plan de travail 1</title>
  <metadata><?xpacket begin="﻿" id="W5M0MpCehiHzreSzNTczkc9d"?>
<x:xmpmeta xmlns:x="adobe:ns:meta/" x:xmptk="Adobe XMP Core 5.6-c137 79.159547, 2016/07/07-11:39:24        ">
   <rdf:RDF xmlns:rdf="http://www.w3.org/1999/02/22-rdf-syntax-ns#">
      <rdf:Description rdf:about=""
            xmlns:dc="http://purl.org/dc/elements/1.1/"
            xmlns:xmpMM="http://ns.adobe.com/xap/1.0/mm/"
            xmlns:stEvt="http://ns.adobe.com/xap/1.0/sType/ResourceEvent#"
            xmlns:xmp="http://ns.adobe.com/xap/1.0/">
         <dc:title>
            <rdf:Alt>
               <rdf:li xml:lang="x-default">Plan de travail 1</rdf:li>
            </rdf:Alt>
         </dc:title>
         <xmpMM:PreservedFileName>19.svg</xmpMM:PreservedFileName>
         <xmpMM:InstanceID>xmp.iid:90858353-2457-4176-972e-54eb2801058d</xmpMM:InstanceID>
         <xmpMM:DocumentID>xmp.did:90858353-2457-4176-972e-54eb2801058d</xmpMM:DocumentID>
         <xmpMM:OriginalDocumentID>xmp.did:90858353-2457-4176-972e-54eb2801058d</xmpMM:OriginalDocumentID>
         <xmpMM:History>
            <rdf:Seq>
               <rdf:li>
                  <rdf:Description>
                     <stEvt:action>saved</stEvt:action>
                     <stEvt:instanceID>xmp.iid:90858353-2457-4176-972e-54eb2801058d</stEvt:instanceID>
                     <stEvt:when>2018-09-27T10:33:59+02:00</stEvt:when>
                     <stEvt:softwareAgent>Adobe Bridge CC 2017 (Macintosh)</stEvt:softwareAgent>
                     <stEvt:changed>/metadata</stEvt:changed>
                  </rdf:Description>
               </rdf:li>
            </rdf:Seq>
         </xmpMM:History>
         <xmp:MetadataDate>2018-09-27T10:33:59+02:00</xmp:MetadataDate>
      </rdf:Description>
   </rdf:RDF>
</x:xmpmeta>
                                                                                                    
                                                                                                    
                                                                                                    
                                                                                                    
                                                                                                    
                                                                                                    
                                                                                                    
                                                                                                    
                                                                                                    
                                                                                                    
                                                                                                    
                                                                                                    
                                                                                                    
                                                                                                    
                                                                                                    
                                                                                                    
                                                                                                    
                                                                                                    
                                                                                                    
                                                                                                    
                           
<?xpacket end="w"?></metadata>
<path class="cls-1" d="M506.42,335.78V293.14a5.62,5.62,0,0,0,.09-.92c0-17.65-82.15-32-183.48-32s-183.48,14.32-183.48,32a5.35,5.35,0,0,0,.08.89v42.71a5.24,5.24,0,0,0-.08.88,5.35,5.35,0,0,0,.08.89v.11h0c3,17.2,83.95,31,183.38,31s180.36-13.78,183.38-31h0v-.08a4.75,4.75,0,0,0,0-1.84Z"/>
  <path class="cls-1" d="M688.84,363.81,701.28,323a5.64,5.64,0,0,0,.35-.85c5.15-16.89-69.24-54.55-166.16-84.13s-179.67-39.85-184.82-23a5,5,0,0,0-.19.87L338,256.8a5.64,5.64,0,0,0-.51,1.69l0,.11h0c-2.14,17.33,71.26,54.13,166.36,83.14s176.53,39.46,184.43,23.89h0l0-.08a5.24,5.24,0,0,0,.35-.85C688.73,364.41,688.79,364.11,688.84,363.81Z"/>
</svg>
