<svg id="Calque_1" data-name="Calque 1" xmlns="http://www.w3.org/2000/svg" width="29.7cm" height="21cm" viewBox="0 0 841.89 595.28">
  <defs>
    <style>
      .cls-1 {
        fill: #fff;
      }
    </style>
  </defs>
  <title>Plan de travail 2</title>
  <metadata><?xpacket begin="﻿" id="W5M0MpCehiHzreSzNTczkc9d"?>
<x:xmpmeta xmlns:x="adobe:ns:meta/" x:xmptk="Adobe XMP Core 5.6-c137 79.159547, 2016/07/07-11:39:24        ">
   <rdf:RDF xmlns:rdf="http://www.w3.org/1999/02/22-rdf-syntax-ns#">
      <rdf:Description rdf:about=""
            xmlns:dc="http://purl.org/dc/elements/1.1/"
            xmlns:xmpMM="http://ns.adobe.com/xap/1.0/mm/"
            xmlns:stEvt="http://ns.adobe.com/xap/1.0/sType/ResourceEvent#"
            xmlns:xmp="http://ns.adobe.com/xap/1.0/">
         <dc:title>
            <rdf:Alt>
               <rdf:li xml:lang="x-default">Plan de travail 2</rdf:li>
            </rdf:Alt>
         </dc:title>
         <xmpMM:PreservedFileName>20.svg</xmpMM:PreservedFileName>
         <xmpMM:InstanceID>xmp.iid:94759fb8-8691-463a-acc5-b0c233eb96a3</xmpMM:InstanceID>
         <xmpMM:DocumentID>xmp.did:94759fb8-8691-463a-acc5-b0c233eb96a3</xmpMM:DocumentID>
         <xmpMM:OriginalDocumentID>xmp.did:94759fb8-8691-463a-acc5-b0c233eb96a3</xmpMM:OriginalDocumentID>
         <xmpMM:History>
            <rdf:Seq>
               <rdf:li>
                  <rdf:Description>
                     <stEvt:action>saved</stEvt:action>
                     <stEvt:instanceID>xmp.iid:94759fb8-8691-463a-acc5-b0c233eb96a3</stEvt:instanceID>
                     <stEvt:when>2018-09-27T10:33:59+02:00</stEvt:when>
                     <stEvt:softwareAgent>Adobe Bridge CC 2017 (Macintosh)</stEvt:softwareAgent>
                     <stEvt:changed>/metadata</stEvt:changed>
                  </rdf:Description>
               </rdf:li>
            </rdf:Seq>
         </xmpMM:History>
         <xmp:MetadataDate>2018-09-27T10:33:59+02:00</xmp:MetadataDate>
      </rdf:Description>
   </rdf:RDF>
</x:xmpmeta>
                                                                                                    
                                                                                                    
                                                                                                    
                                                                                                    
                                                                                                    
                                                                                                    
                                                                                                    
                                                                                                    
                                                                                                    
                                                                                                    
                                                                                                    
                                                                                                    
                                                                                                    
                                                                                                    
                                                                                                    
                                                                                                    
                                                                                                    
                                                                                                    
                                                                                                    
                                                                                                    
                           
<?xpacket end="w"?></metadata>
<circle class="cls-1" cx="377.09" cy="352.17" r="40.46"/>
  <circle class="cls-1" cx="475.86" cy="392" r="40.46"/>
  <path class="cls-1" d="M602,497.9q-44.18,1.1-89.23,1.9l-45.11.76-22.62.36-22.71.27c-30.26.41-60.68.57-91.08.75-15.2.07-30.43,0-45.63,0s-30.43-.19-45.61-.44l-4-.06.05-3.91c.35-27.6.93-55.21,1.41-82.82s.86-55.21,1-82.82c0-13.81.13-27.61.06-41.41s-.06-27.61-.19-41.41c-.17-27.61-.6-55.22-1-82.83l0-2.69,2.78,0c30.13-.45,60.27-1,90.41-1.33s60.27-.52,90.4-.71l90.41-.51,45.21-.06H579l22.6.09,5.29,0,0,5.23c-.14,27.92-.25,55.85-.6,83.71l-.48,41.77-.63,41.64-1.49,82.75Zm-.71-.71-1.7-83.87-1.5-82.89-.62-41.19L597,248.19c-.35-27.35-.46-54.64-.6-81.94l5.26,5.26-22.6.1-22.6,0-45.21-.06-90.41-.5q-45.19-.28-90.4-.72c-30.14-.32-60.28-.87-90.41-1.32l2.73-2.74c-.41,27.61-.84,55.22-1,82.83-.13,13.8-.16,27.6-.19,41.41s0,27.6.06,41.41c.1,27.61.5,55.21,1,82.82s1.06,55.22,1.42,82.82l-4-4c14.95-.25,29.88-.29,44.8-.44s29.84-.05,44.77,0c29.87.18,59.73.34,89.74.75l22.5.27,22.57.35,45.31.76Q555.11,496.09,601.28,497.19Z"/>
  <path class="cls-1" d="M602,166c-14.48.62-29.24,1-44,1.5l-22.29.6-22.45.5c-7.47.19-15,.29-22.55.42L468,169.4c-15.15.14-30.28.38-45.5.42-7.61,0-15.23,0-22.88-.08s-15.27-.13-22.93-.31c-15.29-.27-30.59-.73-45.82-1.13-30.49-.86-60.69-1.32-90.91-1.07l-1.58,0v-1.59c0-5.69-.08-11.37-.15-17.06s-.13-11.37-.25-17.06c-.2-11.37-.48-22.75-.76-34.12l-.07-2.67,2.81-.07,45.2-1.1c15.07-.34,30.14-.53,45.21-.71,30.13-.31,60.27-.67,90.4-.77s60.28.06,90.41.51l22.61.33,22.6.42c15.07.27,30.13.69,45.2,1.06l3.09.08-.09,2.92c-.35,11.72-.73,23.4-1.23,34.85Zm-.71-.71-1.41-34.5c-.5-11.29-.88-22.36-1.24-33.39l3,3c-15.07.37-30.13.79-45.2,1.06l-22.6.42-22.61.33q-45.2.67-90.41.51c-30.13-.1-60.27-.46-90.4-.77-15.07-.18-30.14-.37-45.21-.71l-45.2-1.1,2.73-2.74c-.28,11.37-.55,22.75-.75,34.12-.13,5.69-.18,11.37-.25,17.06s-.16,11.37-.16,17.06L240,164.09c30,.25,60.11-.2,89.9-1.06,14.91-.41,29.74-.87,44.59-1.14,7.41-.18,14.85-.22,22.28-.31s14.86-.09,22.32-.08c14.92.05,29.93.28,44.9.42l22.58.36c7.53.14,15.05.24,22.65.43l22.76.5,22.91.6C570.24,164.27,585.61,164.69,601.28,165.31Z"/>
</svg>
