<svg id="Calque_1" data-name="Calque 1" xmlns="http://www.w3.org/2000/svg" width="29.7cm" height="21cm" viewBox="0 0 841.89 595.28">
  <defs>
    <style>
      .cls-1, .cls-2 {
        fill: #fff;
      }

      .cls-2 {
        stroke: #1b1b19;
        stroke-miterlimit: 10;
      }
    </style>
  </defs>
  <title>Plan de travail 3</title>
  <metadata><?xpacket begin="﻿" id="W5M0MpCehiHzreSzNTczkc9d"?>
<x:xmpmeta xmlns:x="adobe:ns:meta/" x:xmptk="Adobe XMP Core 5.6-c137 79.159547, 2016/07/07-11:39:24        ">
   <rdf:RDF xmlns:rdf="http://www.w3.org/1999/02/22-rdf-syntax-ns#">
      <rdf:Description rdf:about=""
            xmlns:dc="http://purl.org/dc/elements/1.1/"
            xmlns:xmpMM="http://ns.adobe.com/xap/1.0/mm/"
            xmlns:stEvt="http://ns.adobe.com/xap/1.0/sType/ResourceEvent#"
            xmlns:xmp="http://ns.adobe.com/xap/1.0/">
         <dc:title>
            <rdf:Alt>
               <rdf:li xml:lang="x-default">Plan de travail 3</rdf:li>
            </rdf:Alt>
         </dc:title>
         <xmpMM:PreservedFileName>21.svg</xmpMM:PreservedFileName>
         <xmpMM:InstanceID>xmp.iid:f7f1bd0e-086e-4dad-b21a-39af26bdea4f</xmpMM:InstanceID>
         <xmpMM:DocumentID>xmp.did:f7f1bd0e-086e-4dad-b21a-39af26bdea4f</xmpMM:DocumentID>
         <xmpMM:OriginalDocumentID>xmp.did:f7f1bd0e-086e-4dad-b21a-39af26bdea4f</xmpMM:OriginalDocumentID>
         <xmpMM:History>
            <rdf:Seq>
               <rdf:li>
                  <rdf:Description>
                     <stEvt:action>saved</stEvt:action>
                     <stEvt:instanceID>xmp.iid:f7f1bd0e-086e-4dad-b21a-39af26bdea4f</stEvt:instanceID>
                     <stEvt:when>2018-09-27T10:33:59+02:00</stEvt:when>
                     <stEvt:softwareAgent>Adobe Bridge CC 2017 (Macintosh)</stEvt:softwareAgent>
                     <stEvt:changed>/metadata</stEvt:changed>
                  </rdf:Description>
               </rdf:li>
            </rdf:Seq>
         </xmpMM:History>
         <xmp:MetadataDate>2018-09-27T10:33:59+02:00</xmp:MetadataDate>
      </rdf:Description>
   </rdf:RDF>
</x:xmpmeta>
                                                                                                    
                                                                                                    
                                                                                                    
                                                                                                    
                                                                                                    
                                                                                                    
                                                                                                    
                                                                                                    
                                                                                                    
                                                                                                    
                                                                                                    
                                                                                                    
                                                                                                    
                                                                                                    
                                                                                                    
                                                                                                    
                                                                                                    
                                                                                                    
                                                                                                    
                                                                                                    
                           
<?xpacket end="w"?></metadata>
<path class="cls-1" d="M621.49,509.56l11.44-37.48a5.88,5.88,0,0,0,.31-.79c4.74-15.52-63.63-50.13-152.7-77.3s-165.12-36.63-169.85-21.11a4.38,4.38,0,0,0-.17.8l-11.46,37.54a5.45,5.45,0,0,0-.3.76,5.29,5.29,0,0,0-.17.79l0,.1h0c-2,15.92,65.49,49.74,152.88,76.41S613.7,525.55,621,511.24h0l0-.06a5.88,5.88,0,0,0,.31-.79A4.54,4.54,0,0,0,621.49,509.56Z"/>
  <path class="cls-1" d="M301.6,327a13.8,13.8,0,0,1-22.73,10.66,14.08,14.08,0,0,1,0-21.34,13.69,13.69,0,0,1,5.12-2.74,13.85,13.85,0,0,1,5.56-.41A14,14,0,0,1,301.6,327Zm0,0a10.61,10.61,0,0,0-3.87-8.19,10.23,10.23,0,0,0-4-2,10.52,10.52,0,0,0-4.21-.13,10.35,10.35,0,0,0-6.39,3.92,10.51,10.51,0,0,0,0,12.79,10.25,10.25,0,0,0,10.62,3.78,10.09,10.09,0,0,0,4-2A10.61,10.61,0,0,0,301.6,327Z"/>
  <path class="cls-1" d="M346.64,317.22a13.8,13.8,0,0,1-22.73,10.66,14.08,14.08,0,0,1,0-21.34,13.71,13.71,0,0,1,5.12-2.75,13.92,13.92,0,0,1,17.62,13.43Zm0,0a10.59,10.59,0,0,0-3.87-8.19,10.23,10.23,0,0,0-4-2,10.52,10.52,0,0,0-4.21-.13A10.51,10.51,0,0,0,326,317.22a10.55,10.55,0,0,0,2.16,6.4,10.25,10.25,0,0,0,10.62,3.78,10.09,10.09,0,0,0,4-2A10.61,10.61,0,0,0,346.64,317.22Z"/>
  <path class="cls-1" d="M261.25,301.74a13.79,13.79,0,0,1-22.73,10.66,14.07,14.07,0,0,1,0-21.33,13.67,13.67,0,0,1,5.11-2.75,13.92,13.92,0,0,1,17.63,13.42Zm0,0a10.64,10.64,0,0,0-3.87-8.19,10.35,10.35,0,0,0-4-2,10.22,10.22,0,0,0-4.22-.13,10.41,10.41,0,0,0-6.39,3.91,10.53,10.53,0,0,0,0,12.79,10.23,10.23,0,0,0,10.62,3.79,10.23,10.23,0,0,0,4-2A10.64,10.64,0,0,0,261.25,301.74Z"/>
  <path class="cls-1" d="M332.94,164.17a13.85,13.85,0,0,1-17.62,13.4,13.51,13.51,0,0,1-5.11-2.74,14.07,14.07,0,0,1,0-21.33,13.58,13.58,0,0,1,10.67-3.15,14,14,0,0,1,12.07,13.82Zm0,0a10.62,10.62,0,0,0-3.88-8.19,10.21,10.21,0,0,0-4-2,10.34,10.34,0,0,0-4.21-.14,10.48,10.48,0,1,0,8.2,18.51A10.67,10.67,0,0,0,332.94,164.17Z"/>
  <path class="cls-1" d="M256.44,252.34a21.59,21.59,0,0,1-41.32,8.89,22.27,22.27,0,0,1-1.89-8.89,22,22,0,0,1,1.89-8.9,21.46,21.46,0,0,1,21.46-12.72,21.76,21.76,0,0,1,19.86,21.62Zm0,0a18.36,18.36,0,0,0-6.16-13.7,17.91,17.91,0,0,0-6.5-3.67,18.19,18.19,0,1,0,0,34.75,17.85,17.85,0,0,0,6.5-3.68A18.36,18.36,0,0,0,256.44,252.34Z"/>
  <path class="cls-1" d="M372.71,250a21.59,21.59,0,0,1-41.32,8.89,21.93,21.93,0,0,1,0-17.79,21.62,21.62,0,0,1,41.33,8.9Zm0,0a18.38,18.38,0,0,0-6.16-13.7,18,18,0,0,0-6.51-3.67,18.19,18.19,0,1,0,0,34.75,17.85,17.85,0,0,0,6.5-3.68A18.4,18.4,0,0,0,372.71,250Z"/>
  <path class="cls-1" d="M281,165.28a21.73,21.73,0,0,1-19.85,21.59,21.9,21.9,0,0,1-8.54-1,21.56,21.56,0,0,1-12.92-11.71,21.8,21.8,0,0,1,0-17.78A21.61,21.61,0,0,1,281,165.28Zm0,0a18.39,18.39,0,0,0-6.15-13.7,18,18,0,0,0-13.7-4.4,18.19,18.19,0,1,0,7.2,35.48,17.93,17.93,0,0,0,6.5-3.68A18.35,18.35,0,0,0,281,165.28Z"/>
  <path class="cls-1" d="M323.71,220.22A29.41,29.41,0,0,1,284.58,248,29.45,29.45,0,0,1,265,220.22a30.1,30.1,0,0,1,2.48-11.87,29.39,29.39,0,0,1,56.27,11.87Zm0,0a26.36,26.36,0,0,0-2.22-10.52,26,26,0,0,0-6.21-8.67,26.37,26.37,0,0,0-9-5.35,25.94,25.94,0,1,0,0,49.09,26,26,0,0,0,17.45-24.55Z"/>
  <path class="cls-1" d="M333.84,101a41.18,41.18,0,0,1-55.39,38.64,41.75,41.75,0,0,1-14-8.66,41.16,41.16,0,1,1,69.37-30Zm0,0a38.2,38.2,0,0,0-3.11-15A37.76,37.76,0,0,0,322,73.48a37.62,37.62,0,0,0-53.23,1.8,37.65,37.65,0,1,0,62,40.73A38.15,38.15,0,0,0,333.84,101Z"/>
  <path class="cls-1" d="M320.36,285.6A10.6,10.6,0,0,1,307.22,296a10.32,10.32,0,0,1-4.06-2,10.86,10.86,0,0,1,0-16.76,10.32,10.32,0,0,1,4.06-2,10.54,10.54,0,0,1,4.32-.16,10.73,10.73,0,0,1,8.83,10.59Zm0,0a7.42,7.42,0,0,0-2.92-5.9,7,7,0,0,0-5.91-1.17,7,7,0,0,0-4.1,3,7.51,7.51,0,0,0-1.23,4.1,7.36,7.36,0,0,0,1.22,4.11,7,7,0,0,0,4.11,3,7,7,0,0,0,5.91-1.18A7.43,7.43,0,0,0,320.36,285.6Z"/>
  <path class="cls-1" d="M286.82,264.91a10.6,10.6,0,0,1-13.14,10.41,10.32,10.32,0,0,1-4.06-2,10.86,10.86,0,0,1,0-16.76,10.32,10.32,0,0,1,4.06-2,10.54,10.54,0,0,1,4.32-.16,10.73,10.73,0,0,1,8.83,10.59Zm0,0a7.42,7.42,0,0,0-2.92-5.9,7,7,0,0,0-5.91-1.17,7.07,7.07,0,0,0-4.1,3,7.51,7.51,0,0,0-1.23,4.1,7.36,7.36,0,0,0,1.22,4.11,7,7,0,0,0,4.11,3,7,7,0,0,0,5.91-1.18A7.43,7.43,0,0,0,286.82,264.91Z"/>
  <path class="cls-1" d="M251.21,205.75a10.73,10.73,0,0,1-8.84,10.58,10.41,10.41,0,0,1-8.37-2.2,10.86,10.86,0,0,1,0-16.76,10.48,10.48,0,0,1,4.06-2.05,10.7,10.7,0,0,1,13.16,10.43Zm0,0a7.46,7.46,0,0,0-2.93-5.9,7,7,0,0,0-5.91-1.17,7.11,7.11,0,0,0-4.1,3,7.51,7.51,0,0,0-1.23,4.1,7.39,7.39,0,0,0,1.22,4.12,6.94,6.94,0,0,0,10,1.79A7.45,7.45,0,0,0,251.21,205.75Z"/>
  <ellipse class="cls-2" cx="472.46" cy="420.46" rx="27.68" ry="168.19" transform="translate(-68.93 747.41) rotate(-72.79)"/>
</svg>
