<svg id="Calque_1" data-name="Calque 1" xmlns="http://www.w3.org/2000/svg" width="29.7cm" height="21cm" viewBox="0 0 841.89 595.28">
  <defs>
    <style>
      .cls-1 {
        fill: #fff;
      }
    </style>
  </defs>
  <title>Plan de travail 4</title>
  <metadata><?xpacket begin="﻿" id="W5M0MpCehiHzreSzNTczkc9d"?>
<x:xmpmeta xmlns:x="adobe:ns:meta/" x:xmptk="Adobe XMP Core 5.6-c137 79.159547, 2016/07/07-11:39:24        ">
   <rdf:RDF xmlns:rdf="http://www.w3.org/1999/02/22-rdf-syntax-ns#">
      <rdf:Description rdf:about=""
            xmlns:dc="http://purl.org/dc/elements/1.1/"
            xmlns:xmpMM="http://ns.adobe.com/xap/1.0/mm/"
            xmlns:stEvt="http://ns.adobe.com/xap/1.0/sType/ResourceEvent#"
            xmlns:xmp="http://ns.adobe.com/xap/1.0/">
         <dc:title>
            <rdf:Alt>
               <rdf:li xml:lang="x-default">Plan de travail 4</rdf:li>
            </rdf:Alt>
         </dc:title>
         <xmpMM:PreservedFileName>22.svg</xmpMM:PreservedFileName>
         <xmpMM:InstanceID>xmp.iid:6e490b4c-4a41-4692-91aa-3d5a7a533073</xmpMM:InstanceID>
         <xmpMM:DocumentID>xmp.did:6e490b4c-4a41-4692-91aa-3d5a7a533073</xmpMM:DocumentID>
         <xmpMM:OriginalDocumentID>xmp.did:6e490b4c-4a41-4692-91aa-3d5a7a533073</xmpMM:OriginalDocumentID>
         <xmpMM:History>
            <rdf:Seq>
               <rdf:li>
                  <rdf:Description>
                     <stEvt:action>saved</stEvt:action>
                     <stEvt:instanceID>xmp.iid:6e490b4c-4a41-4692-91aa-3d5a7a533073</stEvt:instanceID>
                     <stEvt:when>2018-09-27T10:33:59+02:00</stEvt:when>
                     <stEvt:softwareAgent>Adobe Bridge CC 2017 (Macintosh)</stEvt:softwareAgent>
                     <stEvt:changed>/metadata</stEvt:changed>
                  </rdf:Description>
               </rdf:li>
            </rdf:Seq>
         </xmpMM:History>
         <xmp:MetadataDate>2018-09-27T10:33:59+02:00</xmp:MetadataDate>
      </rdf:Description>
   </rdf:RDF>
</x:xmpmeta>
                                                                                                    
                                                                                                    
                                                                                                    
                                                                                                    
                                                                                                    
                                                                                                    
                                                                                                    
                                                                                                    
                                                                                                    
                                                                                                    
                                                                                                    
                                                                                                    
                                                                                                    
                                                                                                    
                                                                                                    
                                                                                                    
                                                                                                    
                                                                                                    
                                                                                                    
                                                                                                    
                           
<?xpacket end="w"?></metadata>
<path class="cls-1" d="M418.71,154.9a96.19,96.19,0,0,1-5.23,11.86c-.22.47-.47.92-.71,1.37s-.46.93-.7,1.38l-1.45,2.7a40.37,40.37,0,0,1-3.19,5.21c-.62.83-1.19,1.67-1.87,2.49s-1.33,1.65-1.92,2.52-1.23,1.74-1.79,2.65-.94,1.88-1.34,2.85a15.26,15.26,0,0,0-.55,1.47c-.13.51-.25,1-.35,1.53a26.76,26.76,0,0,0-.52,3.08c0,1.05,0,2.1,0,3.14,0,.52,0,1,.09,1.56l.25,1.55.54,3,.35,1.49c.1.49.22,1,.35,1.45a44.43,44.43,0,0,0,1.54,5.38,19.29,19.29,0,0,0,2.39,4.38,30.54,30.54,0,0,0,3.28,3.73c1.26,1.29,2.77,2.65,4.4,4.31a25.78,25.78,0,0,1,4.57,6,16.58,16.58,0,0,1,2,7.46,17.93,17.93,0,0,1-1.25,7h-1a43.63,43.63,0,0,0-2.73-5.72,16.59,16.59,0,0,0-3.4-4.1,39.52,39.52,0,0,0-4.4-3.16,45.81,45.81,0,0,1-5.45-3.94,22,22,0,0,1-4.94-6.09,24.92,24.92,0,0,1-2.59-7.41,28.46,28.46,0,0,1,.89-14.15l.41-1.66.52-1.63c.34-1.07.64-2.15.9-3.22s.64-2.11.89-3.18c.13-.53.26-1.07.36-1.61s.28-1.06.39-1.6c.24-1.07.42-2.16.57-3.28s.37-2.21.52-3.35c.09-.56.15-1.14.26-1.7l.34-1.68a26.07,26.07,0,0,1,.86-3.32,31.9,31.9,0,0,1,1.3-3.14,28.34,28.34,0,0,1,1.72-2.9,40.63,40.63,0,0,1,4.11-5.34,36,36,0,0,1,4.95-4.59,24.69,24.69,0,0,1,6-3.51Z"/>
  <path class="cls-1" d="M406.76,155.28a97.39,97.39,0,0,1-4.18,12.27c-.19.48-.39,1-.59,1.43s-.38,1-.58,1.43l-1.21,2.82a40.84,40.84,0,0,1-2.72,5.46c-.55.88-1.05,1.78-1.64,2.65s-1.19,1.76-1.7,2.68-1.08,1.84-1.55,2.79-.78,2-1.09,3c-.16.5-.31,1-.42,1.51s-.16,1-.22,1.55a29.8,29.8,0,0,0-.25,3.12c.05,1.05.14,2.09.26,3.13.07.51.12,1,.23,1.54l.38,1.52.8,3,.48,1.45c.14.48.31,1,.47,1.42a43.36,43.36,0,0,0,2,5.22,19,19,0,0,0,2.76,4.16,32,32,0,0,0,3.59,3.43c1.38,1.17,3,2.39,4.76,3.91a25.4,25.4,0,0,1,5.08,5.56,16.6,16.6,0,0,1,2.63,7.26,18,18,0,0,1-.63,7.09l-1,.09a41.87,41.87,0,0,0-3.22-5.46,16.24,16.24,0,0,0-3.74-3.79,38.94,38.94,0,0,0-4.67-2.77,45.57,45.57,0,0,1-5.77-3.45,21.89,21.89,0,0,1-5.45-5.64,24.7,24.7,0,0,1-3.22-7.15,28.49,28.49,0,0,1-.35-14.18l.26-1.69.38-1.66c.25-1.1.45-2.2.61-3.29s.46-2.16.61-3.24c.09-.55.17-1.09.23-1.64s.18-1.08.24-1.62c.14-1.09.24-2.2.28-3.33s.18-2.23.24-3.38c0-.57,0-1.15.1-1.72l.19-1.7a25.39,25.39,0,0,1,.58-3.38,30.38,30.38,0,0,1,1-3.24,29.23,29.23,0,0,1,1.46-3,41.34,41.34,0,0,1,3.63-5.67,35.79,35.79,0,0,1,4.53-5,24.76,24.76,0,0,1,5.63-4Z"/>
  <path class="cls-1" d="M394.88,156.7a97.82,97.82,0,0,1-3.09,12.59c-.15.5-.31,1-.47,1.47s-.29,1-.45,1.48l-1,2.91a40.55,40.55,0,0,1-2.23,5.68c-.47.93-.89,1.86-1.41,2.78s-1,1.86-1.46,2.82-.91,1.93-1.3,2.92-.6,2-.83,3c-.11.51-.22,1-.28,1.54s-.07,1-.08,1.57a29.52,29.52,0,0,0,0,3.12c.13,1,.32,2.07.53,3.1.11.5.21,1,.36,1.51l.52,1.49,1.05,2.9.61,1.39c.18.47.38.93.59,1.37a42.05,42.05,0,0,0,2.46,5,19.18,19.18,0,0,0,3.11,3.91,31.61,31.61,0,0,0,3.87,3.1c1.47,1.05,3.2,2.12,5.08,3.48a25.48,25.48,0,0,1,5.54,5.09,16.47,16.47,0,0,1,3.26,7,18,18,0,0,1,0,7.12l-1,.17a44.66,44.66,0,0,0-3.68-5.16,16.8,16.8,0,0,0-4.07-3.45,40,40,0,0,0-4.89-2.35,44.59,44.59,0,0,1-6.05-2.93,22,22,0,0,1-5.92-5.14,24.77,24.77,0,0,1-3.83-6.85,28.37,28.37,0,0,1-1.58-14.09l.11-1.7.24-1.69c.14-1.12.25-2.23.32-3.33s.26-2.19.32-3.29c0-.55.07-1.1.08-1.65s.09-1.09.11-1.64c0-1.1,0-2.2,0-3.33s0-2.24-.06-3.39c0-.57-.05-1.15-.05-1.72l.05-1.72a27.51,27.51,0,0,1,.27-3.41c.19-1.12.44-2.23.73-3.32A29.11,29.11,0,0,1,381.6,172c.41-1.06.94-2,1.44-3a32.47,32.47,0,0,1,1.68-2.92,36.77,36.77,0,0,1,4.09-5.39,24.61,24.61,0,0,1,5.25-4.49Z"/>
  <path class="cls-1" d="M383.17,159.15a99.13,99.13,0,0,1-2,12.81c-.1.51-.22,1-.34,1.51s-.2,1-.32,1.51l-.7,3a40.52,40.52,0,0,1-1.73,5.86c-.39,1-.72,1.93-1.16,2.89s-.86,1.94-1.21,2.94-.73,2-1,3-.42,2.06-.56,3.1c-.06.52-.13,1.05-.14,1.57s0,1,.05,1.56a29.65,29.65,0,0,0,.29,3.12c.23,1,.5,2,.8,3,.16.5.3,1,.49,1.48l.65,1.43,1.3,2.8.72,1.34c.23.45.47.89.71,1.31a45.14,45.14,0,0,0,2.89,4.8,18.62,18.62,0,0,0,3.44,3.62,31.17,31.17,0,0,0,4.13,2.75c1.56.91,3.36,1.84,5.36,3a25.94,25.94,0,0,1,6,4.59,16.59,16.59,0,0,1,3.85,6.7,17.93,17.93,0,0,1,.61,7.09l-1,.26a43.71,43.71,0,0,0-4.12-4.82,16.55,16.55,0,0,0-4.35-3.08,39.14,39.14,0,0,0-5.07-1.91,46,46,0,0,1-6.28-2.4,22,22,0,0,1-6.35-4.6,24.78,24.78,0,0,1-4.41-6.49A28.44,28.44,0,0,1,370.9,209l0-1.71.09-1.7c.05-1.13.06-2.24,0-3.35s.07-2.2,0-3.3c0-.55,0-1.1-.07-1.65s0-1.09,0-1.64c-.05-1.1-.15-2.2-.3-3.32s-.21-2.23-.36-3.37c-.06-.57-.15-1.14-.19-1.71l-.11-1.71a26.19,26.19,0,0,1,0-3.43,29.3,29.3,0,0,1,.44-3.37,28.51,28.51,0,0,1,.91-3.25c.31-1.08.75-2.12,1.16-3.16a31.33,31.33,0,0,1,1.43-3.05,35.41,35.41,0,0,1,3.59-5.72,25.12,25.12,0,0,1,4.84-4.94Z"/>
  <path class="cls-1" d="M371.72,162.61a98,98,0,0,1-.86,12.93c-.05.52-.13,1-.2,1.54s-.11,1-.19,1.53l-.44,3a39.73,39.73,0,0,1-1.21,6c-.3,1-.55,2-.9,3s-.69,2-.95,3-.56,2.05-.78,3.1-.24,2.08-.29,3.13c0,.53,0,1,0,1.57s.11,1,.19,1.56a29.06,29.06,0,0,0,.56,3.07c.31,1,.67,2,1.06,3,.2.48.38,1,.62,1.43l.76,1.37,1.54,2.67.85,1.27c.26.43.54.85.82,1.25a43.76,43.76,0,0,0,3.29,4.53,18.78,18.78,0,0,0,3.74,3.3,31.82,31.82,0,0,0,4.36,2.39c1.63.77,3.51,1.53,5.6,2.54a25.48,25.48,0,0,1,6.35,4.05,16.59,16.59,0,0,1,4.42,6.34,18,18,0,0,1,1.23,7l-.94.34a43.6,43.6,0,0,0-4.53-4.44,16.29,16.29,0,0,0-4.6-2.69,39.59,39.59,0,0,0-5.22-1.47,44.38,44.38,0,0,1-6.46-1.84,21.91,21.91,0,0,1-6.73-4,24.53,24.53,0,0,1-5-6.08,28.35,28.35,0,0,1-4-13.6l-.18-1.7-.06-1.7c-.06-1.13-.14-2.24-.27-3.34s-.11-2.2-.25-3.29c-.05-.55-.12-1.09-.2-1.64s-.11-1.09-.19-1.63c-.14-1.09-.34-2.18-.59-3.28s-.4-2.21-.65-3.33c-.11-.56-.25-1.12-.34-1.69l-.26-1.69a26.2,26.2,0,0,1-.32-3.42c0-1.13,0-2.26.14-3.38a28.58,28.58,0,0,1,.63-3.32,41.77,41.77,0,0,1,2-6.42,35.88,35.88,0,0,1,3.08-6,24.87,24.87,0,0,1,4.39-5.34Z"/>
  <path class="cls-1" d="M360.61,167.06a98.1,98.1,0,0,1,.28,12.95c0,.52-.05,1-.07,1.55s0,1-.05,1.54l-.18,3.06a40.15,40.15,0,0,1-.69,6.07c-.21,1-.37,2-.64,3.05s-.5,2.06-.68,3.1-.37,2.1-.5,3.15-.06,2.1,0,3.15c0,.53.05,1,.13,1.57s.2,1,.32,1.53a28.7,28.7,0,0,0,.83,3c.4,1,.84,1.91,1.31,2.84.24.47.47.93.74,1.38l.89,1.3,1.77,2.53L365,220c.3.4.62.79.93,1.17a43.3,43.3,0,0,0,3.68,4.22,19.24,19.24,0,0,0,4,3,31.43,31.43,0,0,0,4.55,2c1.69.63,3.63,1.22,5.81,2.05a25.43,25.43,0,0,1,6.67,3.48,16.71,16.71,0,0,1,5,5.93,18,18,0,0,1,1.83,6.87l-.91.43a43.1,43.1,0,0,0-4.89-4,16.23,16.23,0,0,0-4.82-2.28,39.88,39.88,0,0,0-5.33-1,44.08,44.08,0,0,1-6.6-1.27,22,22,0,0,1-7.05-3.43,24.65,24.65,0,0,1-5.47-5.62,28.32,28.32,0,0,1-5.18-13.2l-.33-1.68-.21-1.69c-.15-1.12-.33-2.22-.55-3.3s-.31-2.19-.54-3.26c-.1-.54-.22-1.07-.35-1.61s-.2-1.08-.32-1.61c-.24-1.07-.54-2.14-.88-3.22s-.59-2.16-.94-3.26c-.16-.54-.35-1.09-.49-1.65l-.4-1.66a28.24,28.24,0,0,1-.62-3.38c-.11-1.12-.15-2.26-.15-3.39a31.39,31.39,0,0,1,.33-3.35c.12-1.12.37-2.22.6-3.32s.51-2.19.87-3.26a37.1,37.1,0,0,1,2.55-6.25,25,25,0,0,1,3.91-5.7Z"/>
  <path class="cls-1" d="M349.94,172.45a99.34,99.34,0,0,1,1.4,12.89c0,.51,0,1,.06,1.54s.07,1,.09,1.55l.09,3.06a40.14,40.14,0,0,1-.16,6.1c-.12,1-.19,2-.37,3.1s-.32,2.09-.4,3.15-.2,2.12-.23,3.18.12,2.1.26,3.14c.08.52.15,1,.27,1.55s.29,1,.45,1.49a30.46,30.46,0,0,0,1.09,2.94c.48.93,1,1.83,1.56,2.72.28.44.54.88.85,1.3l1,1.22,2,2.37,1.05,1.1c.33.38.68.74,1,1.09a44,44,0,0,0,4,3.88,18.68,18.68,0,0,0,4.26,2.6,31.16,31.16,0,0,0,4.7,1.6c1.74.47,3.73.9,6,1.53a25.7,25.7,0,0,1,6.95,2.89,16.47,16.47,0,0,1,5.45,5.47,17.87,17.87,0,0,1,2.43,6.69l-.87.5a43.36,43.36,0,0,0-5.22-3.59,16.25,16.25,0,0,0-5-1.85,37.28,37.28,0,0,0-5.4-.53,46.64,46.64,0,0,1-6.68-.69,21.82,21.82,0,0,1-7.32-2.81,24.67,24.67,0,0,1-5.95-5.12,28.44,28.44,0,0,1-6.31-12.7l-.47-1.64-.36-1.67c-.25-1.1-.52-2.18-.84-3.24s-.5-2.15-.82-3.2c-.14-.53-.31-1.05-.48-1.57s-.29-1.06-.47-1.58c-.33-1-.71-2.09-1.15-3.13s-.78-2.1-1.22-3.16c-.21-.53-.44-1.07-.63-1.6l-.54-1.63a24.24,24.24,0,0,1-.91-3.31,31.53,31.53,0,0,1-.45-3.36,27.07,27.07,0,0,1,0-3.37,41.67,41.67,0,0,1,.89-6.68,36.23,36.23,0,0,1,2-6.46,25.17,25.17,0,0,1,3.4-6Z"/>
  <path class="cls-1" d="M339.77,178.76a97.64,97.64,0,0,1,2.52,12.71c.08.51.14,1,.2,1.54s.16,1,.22,1.53l.36,3a41.21,41.21,0,0,1,.37,6.1c0,1,0,2-.1,3.11s-.14,2.12-.13,3.17,0,2.13.06,3.19a30.15,30.15,0,0,0,.53,3.11,15.23,15.23,0,0,0,.4,1.51c.18.49.37,1,.58,1.46a29.17,29.17,0,0,0,1.35,2.82c.56.89,1.16,1.75,1.78,2.58.32.42.62.83,1,1.23L350,227l2.17,2.18,1.15,1c.36.35.74.68,1.11,1a43.41,43.41,0,0,0,4.36,3.52,18.93,18.93,0,0,0,4.46,2.22,31.93,31.93,0,0,0,4.83,1.17c1.77.33,3.79.58,6.07,1a25.78,25.78,0,0,1,7.18,2.27,16.46,16.46,0,0,1,5.91,5,17.88,17.88,0,0,1,3,6.45l-.82.57a43.19,43.19,0,0,0-5.52-3.11,16,16,0,0,0-5.14-1.41,40.06,40.06,0,0,0-5.42-.07,45.18,45.18,0,0,1-6.72-.1,22,22,0,0,1-7.54-2.15,24.88,24.88,0,0,1-6.37-4.59,28.44,28.44,0,0,1-7.39-12.1l-.62-1.6-.5-1.63q-.51-1.6-1.11-3.15c-.36-1-.69-2.1-1.1-3.12-.19-.51-.4-1-.62-1.52s-.38-1-.6-1.53c-.43-1-.9-2-1.42-3s-1-2-1.49-3c-.26-.51-.54-1-.77-1.54l-.69-1.58a28.79,28.79,0,0,1-1.19-3.21,31.59,31.59,0,0,1-.74-3.31,27.15,27.15,0,0,1-.25-3.37c-.08-1.12,0-2.25,0-3.37s.12-2.24.29-3.35a36.74,36.74,0,0,1,1.42-6.61,25,25,0,0,1,2.87-6.29Z"/>
  <path class="cls-1" d="M330.2,185.93a98.47,98.47,0,0,1,3.61,12.44c.13.51.23,1,.33,1.51s.25,1,.36,1.51l.62,3a40.54,40.54,0,0,1,.9,6c.06,1,.17,2,.18,3.11s0,2.12.14,3.17.18,2.12.33,3.17.49,2.05.81,3.05a15.32,15.32,0,0,0,.53,1.48c.22.47.45.94.7,1.4a27.93,27.93,0,0,0,1.59,2.69c.63.84,1.31,1.64,2,2.42.35.38.69.77,1.07,1.13l1.19,1,2.36,2,1.23.91c.39.31.8.61,1.2.89A44.52,44.52,0,0,0,354,240a19.15,19.15,0,0,0,4.64,1.82,31,31,0,0,0,4.91.75c1.8.17,3.83.24,6.14.47a26,26,0,0,1,7.35,1.64,16.56,16.56,0,0,1,6.32,4.44,18,18,0,0,1,3.55,6.17l-.76.64a42.75,42.75,0,0,0-5.77-2.62,16.38,16.38,0,0,0-5.25-1,39.63,39.63,0,0,0-5.4.41,46.15,46.15,0,0,1-6.71.49,22.33,22.33,0,0,1-7.7-1.49,24.79,24.79,0,0,1-6.74-4,28.44,28.44,0,0,1-8.42-11.41l-.75-1.53-.64-1.58c-.44-1.05-.89-2.06-1.39-3.05s-.86-2-1.36-3c-.24-.49-.49-1-.75-1.46s-.47-1-.74-1.48c-.51-1-1.06-1.93-1.67-2.88s-1.14-1.93-1.75-2.9c-.3-.49-.62-1-.9-1.47l-.82-1.5a27.34,27.34,0,0,1-1.47-3.1,33,33,0,0,1-1-3.24,28.52,28.52,0,0,1-.54-3.33,31.28,31.28,0,0,1-.28-3.36c0-1.12-.08-2.24,0-3.37a36.35,36.35,0,0,1,.85-6.7,24.77,24.77,0,0,1,2.3-6.52Z"/>
  <path class="cls-1" d="M321.28,193.9A98.84,98.84,0,0,1,326,206c.16.49.31,1,.46,1.47s.33,1,.48,1.47l.88,2.94a39.72,39.72,0,0,1,1.43,5.93c.15,1,.34,2,.45,3.09s.22,2.11.42,3.14.36,2.1.6,3.14.66,2,1.07,3a15.38,15.38,0,0,0,.66,1.43c.26.45.53.89.82,1.33a30.28,30.28,0,0,0,1.82,2.55c.7.77,1.44,1.51,2.2,2.22.39.36.76.72,1.17,1l1.27.92,2.53,1.77,1.3.8c.41.28.84.54,1.27.78a42.32,42.32,0,0,0,4.9,2.71,18.51,18.51,0,0,0,4.78,1.41,31.05,31.05,0,0,0,5,.33c1.8,0,3.83-.1,6.15-.07a26,26,0,0,1,7.46,1,16.71,16.71,0,0,1,6.69,3.87,18,18,0,0,1,4.08,5.84l-.71.71a42.75,42.75,0,0,0-6-2.11,16.14,16.14,0,0,0-5.3-.5,37.37,37.37,0,0,0-5.35.88,45.46,45.46,0,0,1-6.64,1.07,22.16,22.16,0,0,1-7.8-.82,24.65,24.65,0,0,1-7.07-3.41,28.44,28.44,0,0,1-9.38-10.63l-.88-1.47-.78-1.51c-.52-1-1.07-2-1.65-2.92s-1-1.94-1.62-2.88c-.28-.47-.57-.93-.87-1.39s-.56-.94-.86-1.4q-.89-1.39-1.92-2.73c-.63-.92-1.3-1.83-2-2.74-.34-.46-.7-.91-1-1.38l-.95-1.43a25.11,25.11,0,0,1-1.73-3A30.45,30.45,0,0,1,320,217.3a28.47,28.47,0,0,1-.83-3.27,31.11,31.11,0,0,1-.57-3.32,31.52,31.52,0,0,1-.3-3.36,36.35,36.35,0,0,1,.25-6.75,25.46,25.46,0,0,1,1.73-6.7Z"/>
  <path class="cls-1" d="M313.09,202.63a98.13,98.13,0,0,1,5.73,11.62c.21.48.39,1,.59,1.44s.41.94.6,1.41l1.14,2.85a41.43,41.43,0,0,1,1.94,5.79c.23,1,.51,2,.71,3s.41,2.08.69,3.09.54,2.06.88,3.07a29.62,29.62,0,0,0,1.32,2.86,15.54,15.54,0,0,0,.78,1.37c.3.42.61.84.94,1.25a28.66,28.66,0,0,0,2,2.38c.77.71,1.57,1.38,2.39,2,.41.32.81.64,1.25.93l1.35.8,2.67,1.55,1.36.68c.44.24.9.46,1.34.67a42.25,42.25,0,0,0,5.11,2.27,18.89,18.89,0,0,0,4.89,1,32.28,32.28,0,0,0,5-.11c1.8-.15,3.81-.43,6.13-.6a25.48,25.48,0,0,1,7.52.34,16.48,16.48,0,0,1,7,3.27,17.83,17.83,0,0,1,4.57,5.46l-.64.76a44.17,44.17,0,0,0-6.14-1.58,16.46,16.46,0,0,0-5.33,0,39.39,39.39,0,0,0-5.25,1.34,44.53,44.53,0,0,1-6.52,1.64,21.82,21.82,0,0,1-7.84-.13,24.44,24.44,0,0,1-7.34-2.78,28.43,28.43,0,0,1-10.27-9.78l-1-1.38-.9-1.44c-.61-.95-1.24-1.87-1.9-2.76s-1.2-1.85-1.86-2.73c-.32-.44-.65-.88-1-1.31s-.63-.89-1-1.32c-.68-.87-1.39-1.72-2.16-2.55s-1.45-1.71-2.22-2.55c-.38-.43-.78-.85-1.15-1.29l-1.06-1.34a26.87,26.87,0,0,1-2-2.8,30.69,30.69,0,0,1-1.57-3,30,30,0,0,1-1.12-3.18,30.61,30.61,0,0,1-.85-3.26,28.47,28.47,0,0,1-.59-3.32,35.33,35.33,0,0,1-.34-6.75,25.1,25.1,0,0,1,1.14-6.82Z"/>
  <path class="cls-1" d="M305.7,212a98.29,98.29,0,0,1,6.71,11.08c.25.46.48.92.72,1.38s.49.9.72,1.36l1.38,2.74a39.34,39.34,0,0,1,2.44,5.6c.32,1,.69,1.94,1,3s.59,2,1,3,.72,2,1.15,3a29.7,29.7,0,0,0,1.56,2.74c.28.43.57.88.89,1.29s.69.78,1.05,1.16a27.22,27.22,0,0,0,2.23,2.2c.82.64,1.68,1.24,2.56,1.81.44.28.87.57,1.32.82l1.42.68,2.79,1.31,1.42.56c.46.2.93.38,1.39.55a44.37,44.37,0,0,0,5.29,1.82,19.27,19.27,0,0,0,5,.56,32,32,0,0,0,4.94-.55c1.78-.3,3.76-.76,6.05-1.13a25.77,25.77,0,0,1,7.52-.32,16.59,16.59,0,0,1,7.26,2.65,18,18,0,0,1,5,5l-.57.82a42.37,42.37,0,0,0-6.25-1,16.31,16.31,0,0,0-5.31.43,39.07,39.07,0,0,0-5.12,1.8,45.78,45.78,0,0,1-6.35,2.2,22,22,0,0,1-7.82.55,24.71,24.71,0,0,1-7.56-2.13,28.49,28.49,0,0,1-11.08-8.84l-1.13-1.29-1-1.36q-1-1.35-2.13-2.58c-.69-.87-1.36-1.74-2.1-2.56-.35-.41-.72-.82-1.1-1.22s-.71-.83-1.09-1.23c-.75-.81-1.53-1.59-2.37-2.35s-1.59-1.57-2.44-2.35c-.41-.39-.85-.78-1.25-1.19l-1.18-1.24a27.35,27.35,0,0,1-2.22-2.61,33,33,0,0,1-1.83-2.86,28.26,28.26,0,0,1-1.39-3.07,40.8,40.8,0,0,1-2-6.43,35.68,35.68,0,0,1-.92-6.69,25,25,0,0,1,.53-6.9Z"/>
  <path class="cls-1" d="M299.15,222a95.65,95.65,0,0,1,7.65,10.46c.29.43.56.87.84,1.3s.57.86.84,1.3l1.61,2.6a40.91,40.91,0,0,1,2.92,5.37c.4,1,.85,1.87,1.22,2.86s.77,2,1.22,2.93.9,1.94,1.4,2.87,1.16,1.76,1.8,2.59c.32.41.64.83,1,1.21s.75.72,1.14,1.07a28.73,28.73,0,0,0,2.42,2c.88.57,1.78,1.09,2.7,1.58.47.25.92.5,1.4.71l1.47.55,2.89,1.06,1.47.43c.47.16.95.3,1.43.43A43.43,43.43,0,0,0,340,264.7a19.14,19.14,0,0,0,5,.13,31.58,31.58,0,0,0,4.87-1c1.74-.45,3.67-1.08,5.93-1.65a25.48,25.48,0,0,1,7.46-1,16.67,16.67,0,0,1,7.46,2,18.09,18.09,0,0,1,5.45,4.59l-.5.86a42.61,42.61,0,0,0-6.32-.49,16.31,16.31,0,0,0-5.25.89,39.38,39.38,0,0,0-4.95,2.24,45.14,45.14,0,0,1-6.13,2.75,22.05,22.05,0,0,1-7.74,1.23,24.72,24.72,0,0,1-7.72-1.47A28.53,28.53,0,0,1,325.74,266l-1.23-1.19-1.14-1.26c-.77-.83-1.54-1.63-2.35-2.39s-1.51-1.61-2.31-2.36c-.39-.38-.79-.76-1.21-1.12s-.78-.77-1.19-1.13c-.81-.74-1.66-1.45-2.56-2.14s-1.72-1.43-2.63-2.13c-.45-.35-.92-.7-1.35-1.07l-1.29-1.13a27.77,27.77,0,0,1-2.44-2.41A31.52,31.52,0,0,1,304,245a29.13,29.13,0,0,1-1.65-2.94,41.65,41.65,0,0,1-2.57-6.23,36.62,36.62,0,0,1-1.5-6.59,24.56,24.56,0,0,1-.06-6.91Z"/>
  <path class="cls-1" d="M293.5,232.59a98.56,98.56,0,0,1,8.54,9.74l.94,1.23c.32.41.64.81.95,1.22l1.84,2.45a41.65,41.65,0,0,1,3.37,5.1c.49.91,1,1.79,1.47,2.74s.93,1.91,1.47,2.81,1.06,1.85,1.64,2.74a31.19,31.19,0,0,0,2,2.42,14.53,14.53,0,0,0,1.1,1.12c.4.33.81.66,1.23,1a29.49,29.49,0,0,0,2.58,1.77c.93.49,1.88.93,2.84,1.34.48.2.95.41,1.45.58l1.51.42,3,.8,1.49.31c.49.12,1,.21,1.46.3a43.48,43.48,0,0,0,5.53.87,18.84,18.84,0,0,0,5-.31,31.85,31.85,0,0,0,4.77-1.39c1.7-.61,3.57-1.4,5.76-2.17a25.88,25.88,0,0,1,7.35-1.62,16.67,16.67,0,0,1,7.61,1.35,18,18,0,0,1,5.82,4.09l-.42.91a42.62,42.62,0,0,0-6.33.06,16.3,16.3,0,0,0-5.16,1.35,37.51,37.51,0,0,0-4.73,2.66,46.65,46.65,0,0,1-5.87,3.27,22.19,22.19,0,0,1-7.61,1.9,24.58,24.58,0,0,1-7.81-.79,28.51,28.51,0,0,1-12.45-6.78L322.49,273l-1.25-1.17c-.83-.76-1.68-1.48-2.54-2.17s-1.64-1.47-2.51-2.15c-.42-.35-.86-.68-1.3-1s-.84-.7-1.29-1c-.87-.66-1.78-1.3-2.73-1.9s-1.85-1.27-2.81-1.89c-.48-.32-1-.62-1.44-1l-1.38-1a25.35,25.35,0,0,1-2.64-2.19,31.84,31.84,0,0,1-2.3-2.49,29.17,29.17,0,0,1-1.9-2.79,32.54,32.54,0,0,1-1.67-2.93,31.33,31.33,0,0,1-1.43-3,35.72,35.72,0,0,1-2.07-6.43,24.87,24.87,0,0,1-.67-6.88Z"/>
  <path class="cls-1" d="M288.79,243.58a95.75,95.75,0,0,1,9.35,9c.36.37.7.76,1.05,1.14l1.06,1.13,2,2.29a40.77,40.77,0,0,1,3.8,4.77c.56.87,1.17,1.7,1.7,2.61s1.1,1.82,1.72,2.68,1.21,1.75,1.87,2.58A31.27,31.27,0,0,0,313.6,272c.39.35.78.7,1.2,1s.86.58,1.31.86a28,28,0,0,0,2.72,1.54c1,.4,1.95.76,2.94,1.09.5.16,1,.32,1.49.45l1.55.29,3,.54,1.52.17c.5.08,1,.13,1.48.17a42.54,42.54,0,0,0,5.59.39,19.28,19.28,0,0,0,4.93-.74A31.26,31.26,0,0,0,346,276c1.64-.75,3.43-1.7,5.55-2.66a25.61,25.61,0,0,1,7.18-2.25,16.67,16.67,0,0,1,7.7.68,18.13,18.13,0,0,1,6.16,3.57l-.34.94a43.86,43.86,0,0,0-6.31.61,16.38,16.38,0,0,0-5,1.79,39.41,39.41,0,0,0-4.48,3.06,44.76,44.76,0,0,1-5.57,3.77,21.78,21.78,0,0,1-7.41,2.56,24.54,24.54,0,0,1-7.85-.11,28.27,28.27,0,0,1-13-5.67l-1.42-.95-1.34-1.05c-.9-.68-1.8-1.33-2.73-1.94s-1.76-1.33-2.68-1.92c-.46-.31-.92-.61-1.39-.9s-.9-.62-1.37-.91c-.93-.59-1.89-1.14-2.89-1.65s-2-1.11-3-1.64c-.5-.28-1-.53-1.51-.82l-1.46-.9a24.33,24.33,0,0,1-2.82-1.95,32,32,0,0,1-2.51-2.29,27,27,0,0,1-2.14-2.61,31,31,0,0,1-1.92-2.77c-.59-.95-1.19-1.9-1.69-2.91a37.14,37.14,0,0,1-2.62-6.23,24.59,24.59,0,0,1-1.26-6.8Z"/>
  <path class="cls-1" d="M285.06,255a97,97,0,0,1,10.1,8.12c.39.34.76.69,1.14,1l1.15,1,2.23,2.1a41,41,0,0,1,4.21,4.43c.63.82,1.3,1.59,1.92,2.45s1.25,1.72,1.94,2.52,1.36,1.63,2.09,2.41,1.57,1.39,2.4,2c.42.32.84.63,1.29.91s.91.5,1.38.74c.93.47,1.87.92,2.84,1.3s2,.59,3,.82c.51.12,1,.24,1.53.32l1.56.16,3.07.27,1.53,0c.5,0,1,0,1.49,0a43,43,0,0,0,5.6-.1,18.82,18.82,0,0,0,4.85-1.17,32.1,32.1,0,0,0,4.45-2.2c1.57-.89,3.27-2,5.3-3.14a25.66,25.66,0,0,1,7-2.87,16.64,16.64,0,0,1,7.72,0,18.07,18.07,0,0,1,6.45,3l-.26,1a43.33,43.33,0,0,0-6.23,1.15,16.34,16.34,0,0,0-4.84,2.23,37.73,37.73,0,0,0-4.2,3.44,46.07,46.07,0,0,1-5.21,4.24,22,22,0,0,1-7.17,3.19,24.56,24.56,0,0,1-7.82.58,28.28,28.28,0,0,1-13.44-4.52l-1.5-.82-1.43-.93c-.95-.6-1.91-1.17-2.88-1.7s-1.88-1.16-2.84-1.68c-.48-.27-1-.52-1.46-.77s-.95-.54-1.45-.79c-1-.5-2-1-3-1.39s-2-.94-3.1-1.38c-.52-.23-1.07-.44-1.58-.68l-1.54-.77a27.22,27.22,0,0,1-3-1.69,33.58,33.58,0,0,1-2.69-2.06,28.36,28.36,0,0,1-2.36-2.42,33.16,33.16,0,0,1-2.15-2.59,31.1,31.1,0,0,1-1.94-2.76,37,37,0,0,1-3.16-6,25.24,25.24,0,0,1-1.85-6.66Z"/>
  <path class="cls-1" d="M282.33,266.59a98.85,98.85,0,0,1,10.77,7.21c.42.31.82.63,1.23.95s.83.61,1.23.92l2.41,1.9a39.75,39.75,0,0,1,4.57,4.05c.71.75,1.45,1.46,2.13,2.27s1.4,1.6,2.15,2.33,1.5,1.51,2.3,2.22a31.28,31.28,0,0,0,2.57,1.82,15.49,15.49,0,0,0,1.36.79c.47.22.95.42,1.44.62a27.12,27.12,0,0,0,2.95,1c1,.23,2.05.42,3.08.56.52.07,1,.15,1.55.19l1.57,0h3.09l1.52-.09c.5,0,1-.05,1.49-.09a42.89,42.89,0,0,0,5.56-.59,18.66,18.66,0,0,0,4.73-1.59,31.14,31.14,0,0,0,4.25-2.58c1.48-1,3.08-2.27,5-3.58a25.73,25.73,0,0,1,6.69-3.47,16.52,16.52,0,0,1,7.69-.66,18,18,0,0,1,6.69,2.44l-.17,1a43.9,43.9,0,0,0-6.11,1.7,16.44,16.44,0,0,0-4.63,2.64,37.93,37.93,0,0,0-3.88,3.79,45.37,45.37,0,0,1-4.83,4.68,22,22,0,0,1-6.85,3.81,24.53,24.53,0,0,1-7.75,1.25,28.4,28.4,0,0,1-13.78-3.32l-1.56-.7-1.51-.79c-1-.52-2-1-3-1.44s-2-1-3-1.43c-.5-.23-1-.44-1.52-.64s-1-.46-1.5-.66c-1-.42-2.06-.79-3.14-1.13s-2.11-.75-3.21-1.1c-.54-.18-1.1-.34-1.63-.54l-1.6-.63a28.27,28.27,0,0,1-3.11-1.43,33.94,33.94,0,0,1-2.87-1.82,29.7,29.7,0,0,1-2.56-2.2,41.14,41.14,0,0,1-4.54-5,36.21,36.21,0,0,1-3.66-5.68,24.5,24.5,0,0,1-2.43-6.47Z"/>
  <path class="cls-1" d="M280.63,278.43A97,97,0,0,1,292,284.68c.45.26.88.55,1.31.83s.88.53,1.31.81l2.56,1.69a39.12,39.12,0,0,1,4.91,3.63c.77.69,1.57,1.33,2.32,2.07a31.51,31.51,0,0,0,2.35,2.14c.8.7,1.62,1.38,2.48,2a29.68,29.68,0,0,0,2.72,1.59,15.3,15.3,0,0,0,1.42.67c.49.18,1,.34,1.49.49a28.47,28.47,0,0,0,3,.78c1,.15,2.09.24,3.13.29.52,0,1,.06,1.56.05l1.56-.12,3.08-.26,1.51-.23c.5-.05,1-.13,1.47-.21a45,45,0,0,0,5.5-1.08,18.58,18.58,0,0,0,4.57-2,31.35,31.35,0,0,0,4-2.94c1.39-1.15,2.88-2.54,4.68-4a25.36,25.36,0,0,1,6.35-4,16.58,16.58,0,0,1,7.61-1.34,17.87,17.87,0,0,1,6.87,1.86l-.08,1a44.6,44.6,0,0,0-5.94,2.22,16.07,16.07,0,0,0-4.38,3,38.83,38.83,0,0,0-3.54,4.11,44.18,44.18,0,0,1-4.4,5.08,22,22,0,0,1-6.49,4.39,24.79,24.79,0,0,1-7.61,1.93,28.48,28.48,0,0,1-14-2.11l-1.62-.56-1.57-.66c-1-.43-2.08-.83-3.13-1.17s-2.05-.83-3.09-1.17c-.52-.18-1-.35-1.57-.5s-1-.37-1.56-.53c-1.05-.32-2.12-.61-3.22-.85s-2.17-.56-3.29-.81c-.56-.14-1.13-.25-1.68-.4l-1.64-.49a26.88,26.88,0,0,1-3.23-1.15,32.94,32.94,0,0,1-3-1.56,31.27,31.27,0,0,1-2.75-2,41.12,41.12,0,0,1-4.95-4.56,35.91,35.91,0,0,1-4.15-5.33,25.3,25.3,0,0,1-3-6.24Z"/>
  <path class="cls-1" d="M280,290.38a96.19,96.19,0,0,1,11.86,5.23c.46.22.92.47,1.37.71s.93.46,1.38.7l2.7,1.45a41.06,41.06,0,0,1,5.21,3.19c.82.62,1.67,1.2,2.49,1.87s1.65,1.33,2.52,1.93,1.74,1.22,2.65,1.78,1.88.94,2.85,1.35c.48.19,1,.39,1.47.54s1,.25,1.53.35a26.76,26.76,0,0,0,3.08.52c1.05.05,2.09.05,3.14,0,.52,0,1,0,1.55-.09l1.55-.25,3-.53,1.49-.36c.49-.1,1-.22,1.45-.35a44.43,44.43,0,0,0,5.38-1.54,19.5,19.5,0,0,0,4.38-2.39,31.29,31.29,0,0,0,3.73-3.27c1.28-1.27,2.64-2.78,4.31-4.41a25.78,25.78,0,0,1,6-4.57,16.58,16.58,0,0,1,7.46-2,17.93,17.93,0,0,1,7,1.25v1a43,43,0,0,0-5.72,2.73,16.41,16.41,0,0,0-4.1,3.4,38.44,38.44,0,0,0-3.16,4.41,46.59,46.59,0,0,1-3.94,5.44,22.19,22.19,0,0,1-6.09,4.94,25,25,0,0,1-7.41,2.59,28.5,28.5,0,0,1-14.16-.89l-1.65-.41-1.63-.52c-1.08-.34-2.15-.64-3.22-.9s-2.11-.64-3.18-.89c-.53-.13-1.07-.26-1.61-.36s-1.06-.28-1.6-.39c-1.07-.23-2.16-.42-3.28-.56s-2.21-.38-3.35-.53c-.57-.09-1.14-.15-1.7-.26l-1.68-.34a26.07,26.07,0,0,1-3.32-.86,31.9,31.9,0,0,1-3.14-1.3,27.3,27.3,0,0,1-2.9-1.72,31.57,31.57,0,0,1-2.75-1.94,33.42,33.42,0,0,1-2.59-2.17,36,36,0,0,1-4.59-4.95,24.62,24.62,0,0,1-3.51-6Z"/>
  <path class="cls-1" d="M280.34,302.33a99,99,0,0,1,12.27,4.18l1.43.59,1.43.58,2.82,1.21a40.84,40.84,0,0,1,5.46,2.72c.88.55,1.78,1.05,2.65,1.64s1.76,1.19,2.68,1.7,1.84,1.08,2.79,1.55a28.36,28.36,0,0,0,3,1.09c.5.16,1,.31,1.51.42s1,.16,1.55.22a29.8,29.8,0,0,0,3.12.25c1.05,0,2.09-.13,3.13-.26.51-.07,1-.12,1.54-.22l1.52-.39,3-.8,1.45-.48c.48-.14,1-.31,1.42-.47a44,44,0,0,0,5.22-2,19.29,19.29,0,0,0,4.16-2.76,30.37,30.37,0,0,0,3.43-3.59c1.17-1.37,2.39-3,3.91-4.76a25.28,25.28,0,0,1,5.55-5.07,16.58,16.58,0,0,1,7.27-2.64,18.2,18.2,0,0,1,7.09.63l.08,1a41.72,41.72,0,0,0-5.45,3.22,16.29,16.29,0,0,0-3.8,3.74,40.32,40.32,0,0,0-2.76,4.67,46.78,46.78,0,0,1-3.45,5.77,22.05,22.05,0,0,1-5.64,5.45,24.76,24.76,0,0,1-7.16,3.22,28.45,28.45,0,0,1-14.17.35l-1.69-.26-1.66-.38c-1.1-.25-2.2-.45-3.29-.61s-2.16-.46-3.25-.61c-.54-.09-1.08-.17-1.63-.23s-1.08-.18-1.62-.24c-1.09-.14-2.2-.24-3.33-.28s-2.23-.18-3.38-.23c-.57,0-1.15-.05-1.72-.11l-1.7-.19a27.09,27.09,0,0,1-3.38-.57,32.91,32.91,0,0,1-3.24-1,29.23,29.23,0,0,1-3-1.46,32.49,32.49,0,0,1-2.91-1.7,31,31,0,0,1-2.76-1.93,35.79,35.79,0,0,1-5-4.53,24.76,24.76,0,0,1-4-5.63Z"/>
  <path class="cls-1" d="M281.76,314.21a98.92,98.92,0,0,1,12.58,3.09l1.48.47c.49.15,1,.29,1.48.45l2.91,1a41,41,0,0,1,5.68,2.23c.92.47,1.86.89,2.78,1.41s1.86,1,2.82,1.46,1.93.91,2.92,1.3,2,.6,3,.83c.52.11,1,.22,1.55.28s1,.07,1.56.08a29.69,29.69,0,0,0,3.13,0c1-.13,2.07-.31,3.09-.53.51-.11,1-.21,1.52-.36l1.49-.52,2.9-1,1.39-.61c.47-.18.93-.38,1.37-.59a42.81,42.81,0,0,0,5-2.46,18.52,18.52,0,0,0,3.9-3.11,30.73,30.73,0,0,0,3.11-3.87c1-1.47,2.12-3.19,3.48-5.08a25.46,25.46,0,0,1,5.09-5.54,16.47,16.47,0,0,1,7-3.26,18,18,0,0,1,7.12,0l.17,1a43.5,43.5,0,0,0-5.16,3.69,16.36,16.36,0,0,0-3.45,4.06,40,40,0,0,0-2.35,4.89,45.81,45.81,0,0,1-2.93,6.05,22,22,0,0,1-5.14,5.92,24.77,24.77,0,0,1-6.85,3.83,28.5,28.5,0,0,1-14.09,1.59l-1.7-.12-1.69-.24c-1.12-.14-2.23-.25-3.33-.32s-2.2-.26-3.29-.32c-.55,0-1.1-.07-1.65-.08s-1.09-.09-1.64-.1c-1.1-.05-2.21-.05-3.33,0s-2.24,0-3.39.06c-.57,0-1.15.05-1.72.05l-1.72-.05a25.71,25.71,0,0,1-3.41-.27,33.85,33.85,0,0,1-3.32-.73,29.28,29.28,0,0,1-3.16-1.19c-1-.41-2-.93-3-1.44a31.14,31.14,0,0,1-2.92-1.68,36,36,0,0,1-5.39-4.08,24.91,24.91,0,0,1-4.49-5.26Z"/>
  <path class="cls-1" d="M284.21,325.92a99.13,99.13,0,0,1,12.81,2c.51.1,1,.22,1.51.34s1,.2,1.51.32l3,.7a40.52,40.52,0,0,1,5.86,1.73c1,.39,1.93.72,2.89,1.16s1.94.86,2.94,1.21,2,.74,3,1,2.06.42,3.1.56c.52.06,1,.13,1.57.14s1,0,1.56-.05a29.22,29.22,0,0,0,3.11-.29c1-.23,2-.5,3-.8.5-.15,1-.3,1.48-.49l1.43-.64,2.8-1.31,1.34-.72c.45-.23.89-.47,1.31-.71a43.54,43.54,0,0,0,4.8-2.89,18.85,18.85,0,0,0,3.61-3.44,30.25,30.25,0,0,0,2.76-4.13c.91-1.56,1.84-3.36,3-5.36a25.94,25.94,0,0,1,4.59-6,16.52,16.52,0,0,1,6.7-3.85,17.93,17.93,0,0,1,7.09-.61l.26,1a43.71,43.71,0,0,0-4.82,4.12,16.32,16.32,0,0,0-3.08,4.35,37.73,37.73,0,0,0-1.91,5.07,46,46,0,0,1-2.4,6.28,22,22,0,0,1-4.6,6.35,24.82,24.82,0,0,1-6.49,4.42,28.43,28.43,0,0,1-13.9,2.8l-1.71,0-1.7-.09c-1.13-.05-2.25-.06-3.35,0s-2.2-.07-3.3,0c-.55,0-1.1,0-1.65.07s-1.09,0-1.64,0c-1.1.05-2.2.15-3.32.3s-2.23.21-3.37.36c-.57.06-1.14.15-1.71.2l-1.71.1a26.2,26.2,0,0,1-3.43,0,29.3,29.3,0,0,1-3.37-.44,28.51,28.51,0,0,1-3.25-.91,32.29,32.29,0,0,1-3.16-1.16c-1-.44-2.07-.88-3.05-1.42a36,36,0,0,1-5.73-3.6,25.07,25.07,0,0,1-4.93-4.84Z"/>
  <path class="cls-1" d="M287.67,337.37a98.13,98.13,0,0,1,12.93.86l1.54.2,1.53.19,3,.44a41.28,41.28,0,0,1,6,1.21c1,.3,2,.55,3,.91s2,.68,3,.94,2.05.56,3.09.78,2.09.24,3.14.29c.52,0,1.05,0,1.57,0s1-.11,1.56-.18c1-.15,2.06-.32,3.07-.57s2-.67,2.95-1.06c.49-.2,1-.38,1.44-.62l1.37-.76,2.67-1.54,1.27-.84c.43-.27.85-.55,1.25-.82a44.91,44.91,0,0,0,4.53-3.3,18.78,18.78,0,0,0,3.3-3.74,31.2,31.2,0,0,0,2.38-4.35c.78-1.64,1.54-3.52,2.55-5.61a25.26,25.26,0,0,1,4.05-6.34,16.55,16.55,0,0,1,6.33-4.43,18,18,0,0,1,7-1.23l.34.94a42.61,42.61,0,0,0-4.44,4.53,16.29,16.29,0,0,0-2.69,4.6,39.59,39.59,0,0,0-1.47,5.22,44.84,44.84,0,0,1-1.84,6.47,22,22,0,0,1-4,6.72,24.53,24.53,0,0,1-6.08,5,28.35,28.35,0,0,1-13.6,4l-1.7.18-1.7.06c-1.13.06-2.24.14-3.34.27s-2.2.12-3.29.25c-.55.05-1.09.12-1.64.21s-1.09.1-1.63.18c-1.09.14-2.18.34-3.28.59s-2.21.4-3.33.65c-.56.11-1.12.25-1.69.34l-1.69.26a26.36,26.36,0,0,1-3.42.32c-1.13,0-2.26,0-3.39-.14a28.81,28.81,0,0,1-3.31-.63,40.33,40.33,0,0,1-6.42-2,36.7,36.7,0,0,1-6-3.09,24.87,24.87,0,0,1-5.34-4.39Z"/>
  <path class="cls-1" d="M292.12,348.48a96.35,96.35,0,0,1,12.95-.27c.52,0,1,0,1.55.07s1,0,1.54.05l3.06.17a40.15,40.15,0,0,1,6.07.69c1,.21,2,.37,3,.64s2.06.51,3.1.68,2.1.38,3.15.5a30.09,30.09,0,0,0,3.15,0c.52,0,1.05,0,1.57-.13s1-.2,1.53-.32a27.87,27.87,0,0,0,3-.83c1-.4,1.92-.84,2.85-1.31.47-.24.93-.47,1.38-.74l1.3-.89L343.9,345l1.2-1c.4-.3.79-.62,1.17-.93a43.3,43.3,0,0,0,4.22-3.68,18.83,18.83,0,0,0,3-4,31.43,31.43,0,0,0,2-4.55c.63-1.69,1.22-3.63,2-5.8a25.83,25.83,0,0,1,3.49-6.68,16.63,16.63,0,0,1,5.92-4.95,18,18,0,0,1,6.88-1.84l.42.91a43,43,0,0,0-4,4.89,16,16,0,0,0-2.28,4.82,38.64,38.64,0,0,0-1,5.33,45.39,45.39,0,0,1-1.27,6.6,22,22,0,0,1-3.43,7.05,24.44,24.44,0,0,1-5.62,5.47,28.32,28.32,0,0,1-13.2,5.18l-1.68.33-1.69.21c-1.12.15-2.22.33-3.3.56s-2.19.3-3.26.53c-.54.1-1.08.22-1.61.35s-1.08.2-1.61.33c-1.08.24-2.15.53-3.22.87s-2.16.59-3.26.94c-.54.16-1.09.35-1.65.49l-1.66.4a26.38,26.38,0,0,1-3.38.62,32,32,0,0,1-3.39.15,29.17,29.17,0,0,1-3.36-.33c-1.11-.12-2.21-.37-3.31-.6s-2.19-.51-3.26-.87a36.38,36.38,0,0,1-6.26-2.55,24.93,24.93,0,0,1-5.7-3.91Z"/>
  <path class="cls-1" d="M297.51,359.15a99.38,99.38,0,0,1,12.88-1.4l1.55-.06,1.54-.09,3.07-.09a40.14,40.14,0,0,1,6.1.16c1,.12,2.05.19,3.1.37s2.09.33,3.14.41,2.12.19,3.19.22a30.21,30.21,0,0,0,3.14-.26,13.41,13.41,0,0,0,1.54-.27q.76-.19,1.5-.45a29.33,29.33,0,0,0,2.93-1.09c.93-.48,1.84-1,2.73-1.56.44-.28.88-.54,1.3-.85l1.22-1,2.36-2,1.11-1c.38-.33.74-.68,1.08-1a42.85,42.85,0,0,0,3.89-4,18.68,18.68,0,0,0,2.6-4.26,31.16,31.16,0,0,0,1.6-4.7c.47-1.74.9-3.73,1.53-6a25.38,25.38,0,0,1,2.89-6.95,16.47,16.47,0,0,1,5.47-5.45,17.87,17.87,0,0,1,6.69-2.43l.5.87a43.36,43.36,0,0,0-3.59,5.22,16.25,16.25,0,0,0-1.85,5,38.66,38.66,0,0,0-.54,5.4,45.13,45.13,0,0,1-.68,6.68,22,22,0,0,1-2.81,7.33,24.81,24.81,0,0,1-5.12,5.94,28.49,28.49,0,0,1-12.7,6.31l-1.64.47-1.67.36c-1.1.25-2.18.52-3.24.84s-2.15.5-3.2.82c-.53.15-1.05.31-1.57.48s-1.06.3-1.58.47c-1.05.33-2.09.71-3.13,1.15s-2.1.78-3.16,1.22c-.53.21-1.07.44-1.61.63l-1.62.55a25.73,25.73,0,0,1-3.31.9,29.15,29.15,0,0,1-3.36.45,27,27,0,0,1-3.37,0,41.67,41.67,0,0,1-6.68-.89,35.43,35.43,0,0,1-6.46-2,25.08,25.08,0,0,1-6-3.4Z"/>
  <path class="cls-1" d="M303.82,369.32a97.64,97.64,0,0,1,12.71-2.52c.51-.08,1-.14,1.54-.2s1-.16,1.52-.22l3.05-.36a41.16,41.16,0,0,1,6.09-.37c1,0,2.06,0,3.12.1s2.12.14,3.17.13,2.13,0,3.19-.06a29.51,29.51,0,0,0,3.1-.53,15.42,15.42,0,0,0,1.52-.4c.49-.18,1-.37,1.46-.58a29.17,29.17,0,0,0,2.82-1.35c.89-.55,1.75-1.16,2.58-1.78.41-.32.83-.62,1.22-1l1.13-1.09,2.18-2.18,1-1.15c.35-.36.68-.74,1-1.11a41.72,41.72,0,0,0,3.52-4.35,18.85,18.85,0,0,0,2.23-4.47,31.64,31.64,0,0,0,1.17-4.83c.33-1.77.58-3.79,1-6.07a25.46,25.46,0,0,1,2.27-7.18,16.71,16.71,0,0,1,5-5.91,18,18,0,0,1,6.46-3l.57.82a43.19,43.19,0,0,0-3.11,5.52,16,16,0,0,0-1.41,5.14,40.06,40.06,0,0,0-.07,5.42,45.18,45.18,0,0,1-.1,6.72,22.06,22.06,0,0,1-2.16,7.54A24.61,24.61,0,0,1,367,356.4a28.44,28.44,0,0,1-12.1,7.39l-1.6.62-1.63.5c-1.07.34-2.13.71-3.15,1.12s-2.1.68-3.12,1.09c-.51.19-1,.4-1.52.62s-1,.39-1.53.6c-1,.43-2,.9-3,1.42s-2,1-3.05,1.49c-.51.26-1,.54-1.54.77l-1.57.69A25.31,25.31,0,0,1,330,373.9a31.59,31.59,0,0,1-3.31.74,29.23,29.23,0,0,1-3.37.26c-1.12.07-2.25,0-3.37,0a31.73,31.73,0,0,1-3.36-.29,35.8,35.8,0,0,1-6.6-1.42,24.68,24.68,0,0,1-6.29-2.87Z"/>
  <path class="cls-1" d="M311,378.9a96.93,96.93,0,0,1,12.44-3.62c.5-.13,1-.23,1.51-.33s1-.25,1.51-.35l3-.63a40.54,40.54,0,0,1,6-.9c1-.06,2.05-.17,3.11-.18s2.12,0,3.17-.14,2.12-.18,3.17-.33,2.05-.49,3.05-.8c.5-.17,1-.33,1.48-.54s.94-.45,1.39-.7a26.92,26.92,0,0,0,2.7-1.59c.83-.63,1.64-1.31,2.41-2,.39-.35.78-.69,1.14-1.07l1-1.19,2-2.36.91-1.23c.31-.39.61-.8.89-1.2A41,41,0,0,0,365,355.1a18.79,18.79,0,0,0,1.83-4.64,31,31,0,0,0,.75-4.91c.17-1.8.24-3.83.47-6.14a26,26,0,0,1,1.64-7.35,16.56,16.56,0,0,1,4.44-6.32,18,18,0,0,1,6.17-3.55l.64.76a42.75,42.75,0,0,0-2.62,5.77,16.38,16.38,0,0,0-1,5.25,39.63,39.63,0,0,0,.41,5.4,44.88,44.88,0,0,1,.48,6.71,21.87,21.87,0,0,1-1.49,7.7,24.52,24.52,0,0,1-4,6.74,28.44,28.44,0,0,1-11.41,8.42l-1.53.75-1.59.64c-1,.44-2.05.89-3,1.39s-2,.86-3,1.36c-.49.24-1,.49-1.46.75s-1,.48-1.48.74c-1,.51-1.93,1.06-2.88,1.68s-1.93,1.13-2.9,1.74c-.49.3-1,.62-1.47.9l-1.51.82a26.42,26.42,0,0,1-3.09,1.47,33.84,33.84,0,0,1-3.24,1,28.54,28.54,0,0,1-3.33.55c-1.11.17-2.24.21-3.36.27a31.56,31.56,0,0,1-3.37,0,37.21,37.21,0,0,1-6.7-.84,25,25,0,0,1-6.52-2.31Z"/>
  <path class="cls-1" d="M319,387.81A99.35,99.35,0,0,1,331,383.12l1.48-.46c.49-.16,1-.33,1.47-.48l2.93-.88a39.85,39.85,0,0,1,5.94-1.43c1-.15,2-.34,3.09-.44s2.11-.23,3.14-.42,2.1-.37,3.14-.61,2-.66,3-1.07a15.3,15.3,0,0,0,1.43-.65c.45-.27.89-.54,1.33-.83a30.68,30.68,0,0,0,2.54-1.81c.78-.71,1.52-1.45,2.23-2.21.36-.38.72-.76,1-1.17l.92-1.27,1.77-2.53.8-1.3c.28-.41.53-.84.78-1.27a43.06,43.06,0,0,0,2.71-4.89,19.1,19.1,0,0,0,1.41-4.79,31,31,0,0,0,.32-4.95c0-1.81-.09-3.84-.06-6.16a25.65,25.65,0,0,1,1-7.46,16.59,16.59,0,0,1,3.87-6.69,18.17,18.17,0,0,1,5.84-4.08l.71.71a44.2,44.2,0,0,0-2.12,6,16.4,16.4,0,0,0-.49,5.3,37.72,37.72,0,0,0,.88,5.36,45.17,45.17,0,0,1,1.06,6.63,21.92,21.92,0,0,1-.81,7.8,24.65,24.65,0,0,1-3.41,7.07,28.44,28.44,0,0,1-10.63,9.38l-1.47.88-1.52.78q-1.5.78-2.91,1.65c-1,.53-1.95,1-2.88,1.62-.47.28-.93.57-1.39.87s-.94.56-1.4.86a33,33,0,0,0-2.73,1.93c-.92.62-1.83,1.29-2.74,2-.46.34-.91.7-1.38,1l-1.43.94a26,26,0,0,1-3,1.74,32.77,32.77,0,0,1-3.13,1.3,30.74,30.74,0,0,1-3.27.84,31.08,31.08,0,0,1-3.32.56,31.52,31.52,0,0,1-3.36.3,36.35,36.35,0,0,1-6.75-.25,25.08,25.08,0,0,1-6.7-1.73Z"/>
  <path class="cls-1" d="M327.69,396a96.49,96.49,0,0,1,11.62-5.72l1.43-.6,1.42-.6,2.85-1.14A41.43,41.43,0,0,1,350.8,386c1-.23,2-.51,3-.71s2.09-.41,3.1-.69,2.06-.54,3.07-.88a30.77,30.77,0,0,0,2.86-1.32,14.07,14.07,0,0,0,1.36-.78c.43-.3.85-.61,1.26-.94a28.66,28.66,0,0,0,2.38-2c.71-.76,1.38-1.57,2-2.39.32-.41.64-.81.93-1.25l.8-1.35,1.55-2.67.68-1.36c.24-.44.46-.89.67-1.34a45.62,45.62,0,0,0,2.27-5.11,18.89,18.89,0,0,0,1-4.89,32.28,32.28,0,0,0-.11-5c-.15-1.8-.43-3.81-.61-6.13a25.42,25.42,0,0,1,.35-7.51,16.46,16.46,0,0,1,3.27-7,17.83,17.83,0,0,1,5.46-4.57l.76.64a42.81,42.81,0,0,0-1.58,6.14,16.18,16.18,0,0,0,0,5.33,39.39,39.39,0,0,0,1.34,5.25,44.53,44.53,0,0,1,1.64,6.52,21.82,21.82,0,0,1-.13,7.84,24.71,24.71,0,0,1-2.78,7.34,28.43,28.43,0,0,1-9.78,10.27l-1.38,1-1.44.9c-.95.61-1.87,1.24-2.76,1.9s-1.85,1.2-2.73,1.86c-.44.32-.88.66-1.31,1s-.89.64-1.32,1c-.87.67-1.72,1.38-2.55,2.15s-1.71,1.45-2.55,2.22c-.43.38-.85.79-1.29,1.15l-1.34,1.06a26.87,26.87,0,0,1-2.8,2,30.69,30.69,0,0,1-3,1.57,27.9,27.9,0,0,1-3.18,1.12c-1.07.37-2.17.6-3.26.86a31.15,31.15,0,0,1-3.32.58,35.33,35.33,0,0,1-6.75.34,25.1,25.1,0,0,1-6.82-1.14Z"/>
  <path class="cls-1" d="M337.09,403.39a98.29,98.29,0,0,1,11.08-6.71c.46-.25.92-.48,1.38-.71s.9-.5,1.36-.73l2.73-1.38a41.59,41.59,0,0,1,5.6-2.44c1-.32,1.94-.69,3-1s2-.59,3-1,2-.72,3-1.14a30.65,30.65,0,0,0,2.73-1.57c.44-.28.89-.57,1.3-.89s.78-.69,1.16-1.05a28.93,28.93,0,0,0,2.2-2.23c.64-.82,1.24-1.68,1.81-2.55.28-.44.57-.87.82-1.33l.68-1.42,1.31-2.79.56-1.42c.2-.46.38-.93.55-1.39a42.54,42.54,0,0,0,1.81-5.29,18.43,18.43,0,0,0,.56-5,30.77,30.77,0,0,0-.54-4.94c-.3-1.78-.76-3.75-1.13-6a25.41,25.41,0,0,1-.32-7.52,16.59,16.59,0,0,1,2.65-7.26,18.1,18.1,0,0,1,5-5l.82.57a42.37,42.37,0,0,0-1,6.25,16.37,16.37,0,0,0,.43,5.32,39.49,39.49,0,0,0,1.8,5.11,45.78,45.78,0,0,1,2.2,6.35,22.06,22.06,0,0,1,.55,7.83,24.73,24.73,0,0,1-2.13,7.55,28.41,28.41,0,0,1-8.84,11.08l-1.29,1.13-1.36,1q-1.35,1-2.58,2.13c-.87.69-1.74,1.36-2.56,2.1-.41.36-.82.72-1.22,1.1s-.83.71-1.23,1.09c-.81.75-1.59,1.53-2.35,2.37s-1.58,1.59-2.35,2.44c-.4.41-.78.85-1.19,1.25l-1.24,1.18a27.35,27.35,0,0,1-2.61,2.22,33,33,0,0,1-2.86,1.83,30.11,30.11,0,0,1-3.07,1.39,40.8,40.8,0,0,1-6.43,2,36.64,36.64,0,0,1-6.7.93,25.31,25.31,0,0,1-6.89-.54Z"/>
  <path class="cls-1" d="M347.1,409.94a97,97,0,0,1,10.46-7.65c.43-.29.87-.56,1.3-.83s.86-.58,1.3-.85l2.6-1.61a40.91,40.91,0,0,1,5.37-2.92c.95-.4,1.87-.85,2.86-1.22s2-.77,2.93-1.22,1.94-.9,2.87-1.4,1.76-1.16,2.59-1.8c.41-.32.83-.64,1.21-1s.72-.75,1.07-1.14a30.28,30.28,0,0,0,2-2.41c.57-.89,1.09-1.79,1.58-2.71.24-.46.5-.92.7-1.4l.56-1.47,1.06-2.89L388,376c.16-.47.3-.95.43-1.43a43.43,43.43,0,0,0,1.35-5.43,18.7,18.7,0,0,0,.12-5,30.58,30.58,0,0,0-1-4.87c-.45-1.74-1.08-3.67-1.66-5.93a25.82,25.82,0,0,1-1-7.46,16.55,16.55,0,0,1,2-7.46,18.18,18.18,0,0,1,4.58-5.45l.87.5a42.61,42.61,0,0,0-.49,6.32,16.42,16.42,0,0,0,.89,5.26,40,40,0,0,0,2.24,4.94,45.18,45.18,0,0,1,2.74,6.13,22.07,22.07,0,0,1,1.24,7.75,24.72,24.72,0,0,1-1.47,7.71,28.53,28.53,0,0,1-7.84,11.81l-1.19,1.23-1.26,1.14c-.83.77-1.63,1.54-2.39,2.35s-1.61,1.51-2.36,2.31c-.38.39-.76.79-1.12,1.21s-.77.78-1.13,1.19a33.32,33.32,0,0,0-2.14,2.56q-1.08,1.28-2.13,2.64c-.35.44-.7.91-1.07,1.35l-1.13,1.28a27.77,27.77,0,0,1-2.41,2.44,31.52,31.52,0,0,1-2.69,2.07,29.37,29.37,0,0,1-2.94,1.65,41.65,41.65,0,0,1-6.23,2.57,36.62,36.62,0,0,1-6.59,1.5,24.94,24.94,0,0,1-6.91.07Z"/>
  <path class="cls-1" d="M357.64,415.59a99.79,99.79,0,0,1,9.75-8.54l1.23-.94,1.22-.95,2.45-1.83a40.48,40.48,0,0,1,5.09-3.38c.92-.48,1.8-1,2.75-1.47s1.91-.93,2.81-1.47,1.85-1.06,2.74-1.64,1.65-1.31,2.42-2c.38-.36.77-.72,1.12-1.11s.65-.81,1-1.23a28.79,28.79,0,0,0,1.78-2.58c.49-.93.93-1.88,1.34-2.83.2-.49.41-1,.58-1.45l.42-1.52.8-3,.31-1.49c.12-.49.21-1,.3-1.46a43.21,43.21,0,0,0,.87-5.53,18.84,18.84,0,0,0-.31-5,31.85,31.85,0,0,0-1.39-4.77c-.61-1.7-1.4-3.57-2.17-5.76a25.47,25.47,0,0,1-1.62-7.35,16.67,16.67,0,0,1,1.35-7.61,18,18,0,0,1,4.09-5.82l.91.42a42.76,42.76,0,0,0,.06,6.34,16.31,16.31,0,0,0,1.35,5.15,38.65,38.65,0,0,0,2.65,4.73,45.4,45.4,0,0,1,3.28,5.87,22.19,22.19,0,0,1,1.9,7.61,24.55,24.55,0,0,1-.79,7.81,28.46,28.46,0,0,1-6.78,12.45L398,386.6l-1.16,1.25c-.76.83-1.49,1.68-2.17,2.54s-1.48,1.65-2.15,2.51c-.35.42-.69.86-1,1.3s-.7.85-1,1.29c-.66.87-1.3,1.78-1.9,2.74s-1.28,1.84-1.89,2.81c-.32.47-.62,1-1,1.43l-1,1.38a25.35,25.35,0,0,1-2.19,2.64,32,32,0,0,1-2.5,2.3,27.82,27.82,0,0,1-2.78,1.9,30.29,30.29,0,0,1-2.93,1.67,31.33,31.33,0,0,1-3.05,1.43,35.72,35.72,0,0,1-6.43,2.07,24.87,24.87,0,0,1-6.88.67Z"/>
  <path class="cls-1" d="M368.64,420.3a95.75,95.75,0,0,1,9-9.35c.37-.36.76-.7,1.14-1.05s.75-.71,1.13-1l2.28-2.05a41.73,41.73,0,0,1,4.78-3.8c.87-.56,1.7-1.16,2.61-1.7s1.82-1.1,2.67-1.71,1.75-1.22,2.59-1.88a31.13,31.13,0,0,0,2.23-2.22c.35-.39.71-.78,1-1.19s.58-.87.85-1.32a28,28,0,0,0,1.55-2.72c.4-1,.76-1.95,1.09-2.94.15-.5.32-1,.45-1.49l.29-1.55.54-3,.17-1.52c.08-.5.13-1,.17-1.48a44.33,44.33,0,0,0,.39-5.59,19.28,19.28,0,0,0-.74-4.93A32.4,32.4,0,0,0,401,363.1c-.75-1.64-1.7-3.43-2.66-5.55a25.61,25.61,0,0,1-2.25-7.18,16.55,16.55,0,0,1,.68-7.7,18.13,18.13,0,0,1,3.57-6.16l.94.35a43.85,43.85,0,0,0,.61,6.3,16.29,16.29,0,0,0,1.79,5,39.41,39.41,0,0,0,3.06,4.48,44.76,44.76,0,0,1,3.77,5.57,21.85,21.85,0,0,1,2.56,7.41,24.83,24.83,0,0,1-.11,7.85,28.27,28.27,0,0,1-5.67,13l-.95,1.42-1.05,1.35c-.68.89-1.34,1.8-1.94,2.72s-1.33,1.76-1.93,2.68c-.31.46-.6.92-.89,1.39s-.62.9-.91,1.37c-.59.93-1.14,1.89-1.65,2.89s-1.11,1.95-1.65,3c-.27.5-.52,1-.82,1.51l-.89,1.46a25.34,25.34,0,0,1-1.95,2.83,31.84,31.84,0,0,1-2.29,2.5,26.74,26.74,0,0,1-2.61,2.14,31,31,0,0,1-2.77,1.92c-.95.59-1.9,1.19-2.91,1.69a36.32,36.32,0,0,1-6.23,2.62,25,25,0,0,1-6.8,1.27Z"/>
  <path class="cls-1" d="M380,424a98.28,98.28,0,0,1,8.11-10.1l1.05-1.14c.35-.38.68-.77,1-1.15l2.1-2.23a40,40,0,0,1,4.43-4.2c.81-.64,1.59-1.31,2.45-1.93s1.71-1.25,2.51-1.94,1.64-1.36,2.41-2.09,1.4-1.57,2-2.4c.31-.42.63-.84.91-1.29s.5-.91.73-1.38a27.89,27.89,0,0,0,1.3-2.84c.32-1,.6-2,.83-3,.12-.51.24-1,.32-1.53l.16-1.56.27-3.07,0-1.53c0-.5,0-1,0-1.49a44.59,44.59,0,0,0-.1-5.59,18.63,18.63,0,0,0-1.17-4.85,31.65,31.65,0,0,0-2.2-4.46c-.89-1.57-2-3.27-3.14-5.3a25.72,25.72,0,0,1-2.87-6.95,16.68,16.68,0,0,1,0-7.73,18.07,18.07,0,0,1,3-6.45l1,.26a44.7,44.7,0,0,0,1.16,6.23,16.52,16.52,0,0,0,2.23,4.85,38.62,38.62,0,0,0,3.44,4.19,46.25,46.25,0,0,1,4.24,5.22,22.08,22.08,0,0,1,3.19,7.16,24.56,24.56,0,0,1,.58,7.82A28.38,28.38,0,0,1,415.57,387l-.82,1.5-.93,1.43c-.6,1-1.17,1.91-1.7,2.88s-1.16,1.88-1.68,2.85c-.27.47-.53,1-.77,1.45s-.54,1-.79,1.45c-.5,1-1,2-1.39,3s-.94,2-1.38,3.1c-.23.52-.44,1.07-.68,1.58l-.77,1.54a27.22,27.22,0,0,1-1.69,3,33.7,33.7,0,0,1-2.07,2.69,26.85,26.85,0,0,1-2.41,2.36A33.16,33.16,0,0,1,395.9,418a31.1,31.1,0,0,1-2.76,1.94,37,37,0,0,1-6,3.16,25.24,25.24,0,0,1-6.66,1.85Z"/>
  <path class="cls-1" d="M391.65,426.76A97.43,97.43,0,0,1,398.86,416c.31-.42.63-.82.94-1.22s.61-.84.93-1.24l1.9-2.41a40.63,40.63,0,0,1,4-4.57c.76-.71,1.47-1.44,2.28-2.13s1.59-1.4,2.33-2.15,1.51-1.5,2.22-2.3a31.28,31.28,0,0,0,1.82-2.57c.27-.44.56-.89.79-1.36s.42-1,.61-1.44a25.71,25.71,0,0,0,1-2.94c.23-1,.41-2.06.56-3.09.07-.52.15-1,.18-1.55l0-1.57v-3.09l-.1-1.52c0-.5,0-1-.08-1.49a43.08,43.08,0,0,0-.59-5.56,19.2,19.2,0,0,0-1.59-4.73,31.14,31.14,0,0,0-2.58-4.25c-1-1.48-2.27-3.08-3.59-5a26.12,26.12,0,0,1-3.46-6.68,16.71,16.71,0,0,1-.67-7.7,18,18,0,0,1,2.45-6.69l1,.18A44.14,44.14,0,0,0,411,345a16.2,16.2,0,0,0,2.64,4.63,37.93,37.93,0,0,0,3.79,3.88,46.37,46.37,0,0,1,4.68,4.83,21.81,21.81,0,0,1,3.8,6.85,24.26,24.26,0,0,1,1.26,7.75,28.4,28.4,0,0,1-3.33,13.78l-.69,1.57-.8,1.5c-.52,1-1,2-1.44,3s-1,2-1.43,3c-.22.5-.43,1-.63,1.52s-.46,1-.66,1.51c-.42,1-.8,2.06-1.13,3.13s-.76,2.11-1.1,3.21c-.18.54-.35,1.1-.55,1.63l-.62,1.6a29.31,29.31,0,0,1-1.43,3.12c-.56,1-1.17,1.94-1.82,2.86a28.26,28.26,0,0,1-2.2,2.56c-.74.85-1.58,1.6-2.39,2.37a33.27,33.27,0,0,1-2.58,2.17,37,37,0,0,1-5.68,3.67,25,25,0,0,1-6.47,2.42Z"/>
  <path class="cls-1" d="M403.49,428.46a98.46,98.46,0,0,1,6.24-11.35c.27-.45.56-.87.84-1.31s.53-.88.81-1.31l1.68-2.56A40.21,40.21,0,0,1,416.7,407c.68-.77,1.33-1.57,2.07-2.32s1.47-1.53,2.14-2.35,1.38-1.62,2-2.48,1.1-1.79,1.59-2.72a14.17,14.17,0,0,0,.67-1.42c.18-.49.34-1,.49-1.49a28.47,28.47,0,0,0,.78-3c.14-1,.24-2.09.29-3.13,0-.52.06-1,.05-1.56l-.12-1.56-.26-3.08-.23-1.5c-.05-.5-.13-1-.22-1.48a42.73,42.73,0,0,0-1.07-5.49,18.87,18.87,0,0,0-2-4.58,32.07,32.07,0,0,0-2.94-4c-1.15-1.39-2.54-2.88-4-4.68a25.18,25.18,0,0,1-4-6.35,16.45,16.45,0,0,1-1.34-7.61,18,18,0,0,1,1.85-6.87l1,.08a44.08,44.08,0,0,0,2.22,5.94,16.27,16.27,0,0,0,3,4.38,40,40,0,0,0,4.12,3.54,44.18,44.18,0,0,1,5.08,4.4,22,22,0,0,1,4.39,6.49,24.79,24.79,0,0,1,1.93,7.61,28.37,28.37,0,0,1-2.12,14l-.55,1.62-.66,1.57c-.43,1-.83,2.08-1.17,3.13s-.83,2.05-1.17,3.09c-.18.52-.35,1-.5,1.57s-.37,1-.53,1.56c-.32,1.05-.61,2.12-.85,3.23s-.57,2.16-.82,3.28c-.13.56-.24,1.13-.39,1.68l-.49,1.64a26.88,26.88,0,0,1-1.15,3.23,29.6,29.6,0,0,1-1.57,3,26.83,26.83,0,0,1-2,2.75,41.12,41.12,0,0,1-4.56,5,35.34,35.34,0,0,1-5.34,4.15,25.06,25.06,0,0,1-6.23,3Z"/>
  <path class="cls-1" d="M415.44,429.13a98.4,98.4,0,0,1,5.22-11.86c.23-.46.48-.92.72-1.37s.46-.93.7-1.38l1.45-2.7a41.78,41.78,0,0,1,3.19-5.21c.62-.82,1.19-1.67,1.87-2.49s1.33-1.65,1.92-2.52,1.23-1.74,1.79-2.65.94-1.87,1.34-2.84c.2-.49.4-1,.55-1.48s.25-1,.35-1.52a26.93,26.93,0,0,0,.52-3.09c.05-1,.05-2.09,0-3.13,0-.53,0-1-.09-1.56l-.25-1.55-.54-3-.35-1.48c-.1-.5-.22-1-.35-1.46a45,45,0,0,0-1.54-5.38,19.5,19.5,0,0,0-2.39-4.38,31.41,31.41,0,0,0-3.28-3.73c-1.26-1.28-2.77-2.64-4.4-4.31a25.78,25.78,0,0,1-4.57-6,16.58,16.58,0,0,1-2-7.46,18.1,18.1,0,0,1,1.24-7h1a43,43,0,0,0,2.74,5.72,16,16,0,0,0,3.4,4.1,37.1,37.1,0,0,0,4.4,3.16,45.81,45.81,0,0,1,5.45,3.94,22.19,22.19,0,0,1,4.94,6.09,24.67,24.67,0,0,1,2.58,7.42,28.36,28.36,0,0,1-.88,14.15l-.41,1.66-.52,1.62c-.34,1.08-.64,2.15-.9,3.22s-.64,2.11-.89,3.18c-.13.53-.26,1.07-.36,1.61s-.28,1.06-.39,1.6c-.24,1.07-.42,2.16-.57,3.28s-.37,2.21-.52,3.35c-.09.57-.15,1.14-.26,1.71L435,407a26.36,26.36,0,0,1-.86,3.31,31.9,31.9,0,0,1-1.3,3.14,27.3,27.3,0,0,1-1.72,2.9,40.63,40.63,0,0,1-4.11,5.34,35.34,35.34,0,0,1-4.95,4.59,25,25,0,0,1-6,3.52Z"/>
  <path class="cls-1" d="M427.39,428.75a97.39,97.39,0,0,1,4.18-12.27c.19-.48.39-1,.59-1.43s.38-1,.58-1.43L434,410.8a40.84,40.84,0,0,1,2.72-5.46c.55-.88,1-1.78,1.64-2.65s1.19-1.76,1.7-2.68,1.08-1.84,1.55-2.79.78-2,1.09-3c.16-.51.31-1,.42-1.52s.16-1,.22-1.55a29.8,29.8,0,0,0,.25-3.12c-.05-1.05-.14-2.09-.26-3.13-.07-.51-.12-1-.23-1.54l-.38-1.52-.8-3-.48-1.45c-.14-.48-.31-.95-.47-1.41a43.53,43.53,0,0,0-2-5.23,19.29,19.29,0,0,0-2.76-4.16,32,32,0,0,0-3.59-3.43c-1.38-1.17-3-2.39-4.76-3.91a25.56,25.56,0,0,1-5.08-5.55,16.69,16.69,0,0,1-2.63-7.27,18,18,0,0,1,.63-7.09l1-.08a42.55,42.55,0,0,0,3.22,5.46,16.43,16.43,0,0,0,3.74,3.79,39,39,0,0,0,4.67,2.76,46.78,46.78,0,0,1,5.77,3.45,22.05,22.05,0,0,1,5.45,5.64,24.76,24.76,0,0,1,3.22,7.16,28.45,28.45,0,0,1,.35,14.17l-.26,1.69-.39,1.66c-.24,1.1-.45,2.2-.6,3.29s-.46,2.16-.61,3.25c-.09.54-.17,1.08-.23,1.63s-.18,1.08-.24,1.63c-.14,1.09-.24,2.19-.28,3.32s-.18,2.23-.24,3.38c0,.57,0,1.15-.1,1.72L445,405a25.39,25.39,0,0,1-.58,3.38,30.38,30.38,0,0,1-1,3.24,28.29,28.29,0,0,1-1.46,3,32.49,32.49,0,0,1-1.7,2.91,31,31,0,0,1-1.93,2.76,35.79,35.79,0,0,1-4.53,5,24.76,24.76,0,0,1-5.63,4Z"/>
  <path class="cls-1" d="M439.27,427.33a97.26,97.26,0,0,1,3.09-12.58c.15-.5.31-1,.47-1.48s.29-1,.45-1.48l1-2.91a41,41,0,0,1,2.23-5.68c.47-.92.89-1.86,1.41-2.78s1-1.86,1.46-2.82.91-1.93,1.3-2.92.6-2,.83-3c.11-.52.22-1,.28-1.55s.07-1,.08-1.56a29.69,29.69,0,0,0,0-3.13c-.13-1-.32-2.07-.53-3.09-.11-.51-.21-1-.36-1.52l-.52-1.48-1-2.9-.61-1.4c-.18-.47-.38-.93-.59-1.37a42.81,42.81,0,0,0-2.46-5,18.85,18.85,0,0,0-3.11-3.9,30.73,30.73,0,0,0-3.87-3.11c-1.47-1-3.2-2.12-5.08-3.48a25.5,25.5,0,0,1-5.55-5.09,16.57,16.57,0,0,1-3.25-7,17.91,17.91,0,0,1,0-7.11l1-.18a44.66,44.66,0,0,0,3.68,5.16,16.4,16.4,0,0,0,4.07,3.45,40,40,0,0,0,4.89,2.35,45.14,45.14,0,0,1,6,2.93,22.07,22.07,0,0,1,5.93,5.14,24.77,24.77,0,0,1,3.83,6.85,28.38,28.38,0,0,1,1.58,14.09l-.11,1.71-.24,1.69c-.14,1.12-.25,2.22-.32,3.33s-.26,2.19-.32,3.28c0,.55-.07,1.1-.08,1.65s-.09,1.09-.11,1.64c0,1.1,0,2.21,0,3.33s0,2.25.06,3.39c0,.57.05,1.15.05,1.72l-.05,1.72a27.82,27.82,0,0,1-.27,3.42c-.19,1.11-.44,2.22-.73,3.31a29.28,29.28,0,0,1-1.19,3.16c-.41,1.05-.94,2-1.44,3a29.15,29.15,0,0,1-1.69,2.92,36,36,0,0,1-4.08,5.39,24.33,24.33,0,0,1-5.25,4.49Z"/>
  <path class="cls-1" d="M451,424.88a98.7,98.7,0,0,1,2-12.8c.1-.51.22-1,.34-1.52s.2-1,.32-1.51l.7-3a40.52,40.52,0,0,1,1.73-5.86c.39-1,.72-1.92,1.16-2.89s.86-1.94,1.21-2.93.73-2,1-3,.42-2.06.56-3.1c.06-.52.13-1,.14-1.56s0-1-.05-1.57a29.46,29.46,0,0,0-.29-3.11c-.23-1-.5-2-.8-3-.16-.5-.3-1-.49-1.48l-.65-1.43-1.3-2.8-.72-1.34c-.23-.45-.47-.89-.71-1.31a45.14,45.14,0,0,0-2.89-4.8,19.16,19.16,0,0,0-3.44-3.61,30.88,30.88,0,0,0-4.13-2.76c-1.56-.91-3.37-1.83-5.36-3a25.94,25.94,0,0,1-6-4.59,16.52,16.52,0,0,1-3.85-6.7,18.13,18.13,0,0,1-.62-7.09l1-.26a42.81,42.81,0,0,0,4.12,4.82,16.16,16.16,0,0,0,4.35,3.08,39.1,39.1,0,0,0,5.07,1.92,44.59,44.59,0,0,1,6.28,2.39,21.87,21.87,0,0,1,6.35,4.61,24.57,24.57,0,0,1,4.41,6.48,28.44,28.44,0,0,1,2.81,13.9l0,1.71-.09,1.7c-.05,1.13-.06,2.25,0,3.35s-.07,2.21,0,3.3c0,.55,0,1.1.07,1.65s0,1.09,0,1.64c.05,1.1.15,2.21.3,3.32s.21,2.24.36,3.37c.06.57.15,1.15.19,1.72l.11,1.71a26,26,0,0,1,0,3.42,29.3,29.3,0,0,1-.44,3.37,28,28,0,0,1-.91,3.25c-.31,1.08-.75,2.12-1.16,3.16a32.64,32.64,0,0,1-1.43,3.06,36.3,36.3,0,0,1-3.59,5.72,25.35,25.35,0,0,1-4.84,4.93Z"/>
  <path class="cls-1" d="M462.43,421.42a98.13,98.13,0,0,1,.86-12.93c0-.52.13-1,.2-1.53s.11-1,.19-1.54l.44-3a40,40,0,0,1,1.21-6c.3-1,.55-2,.9-3s.69-2,.95-3,.56-2.05.78-3.09.24-2.09.29-3.14c0-.52,0-1.05,0-1.57s-.11-1-.19-1.55a28.78,28.78,0,0,0-.56-3.08c-.31-1-.67-2-1.06-2.95-.2-.49-.38-1-.62-1.44l-.76-1.37-1.54-2.67-.85-1.27c-.26-.43-.54-.85-.82-1.25a43.6,43.6,0,0,0-3.29-4.52,19.12,19.12,0,0,0-3.74-3.31,31.81,31.81,0,0,0-4.36-2.38c-1.63-.78-3.51-1.54-5.6-2.54a25.82,25.82,0,0,1-6.35-4.06,16.63,16.63,0,0,1-4.42-6.33,18,18,0,0,1-1.23-7l.94-.35a43.53,43.53,0,0,0,4.52,4.44,16.52,16.52,0,0,0,4.61,2.7,41.25,41.25,0,0,0,5.22,1.46,45.68,45.68,0,0,1,6.46,1.84,21.91,21.91,0,0,1,6.73,4,24.72,24.72,0,0,1,5,6.08,28.35,28.35,0,0,1,4,13.6l.18,1.7.06,1.71q.07,1.68.27,3.33c.06,1.1.11,2.21.25,3.29.05.55.12,1.09.2,1.64s.11,1.09.19,1.63c.14,1.09.34,2.18.59,3.28s.4,2.21.65,3.33c.11.56.25,1.13.34,1.69l.26,1.69a26.53,26.53,0,0,1,.32,3.42c0,1.13,0,2.26-.14,3.39a28.41,28.41,0,0,1-.63,3.31,41.77,41.77,0,0,1-2,6.42,36,36,0,0,1-3.08,6,24.82,24.82,0,0,1-4.39,5.33Z"/>
  <path class="cls-1" d="M473.54,417a98.1,98.1,0,0,1-.28-13c0-.52.05-1,.07-1.55s0-1,.05-1.54l.18-3.06a40.15,40.15,0,0,1,.69-6.07c.21-1,.37-2,.64-3.05s.5-2.06.68-3.1.37-2.09.5-3.15.06-2.1,0-3.15c0-.52-.05-1.05-.13-1.57s-.2-1-.32-1.53a28.52,28.52,0,0,0-.83-3c-.4-1-.84-1.92-1.31-2.85-.24-.47-.47-.93-.74-1.38l-.89-1.29-1.77-2.53-.94-1.2c-.3-.4-.62-.79-.93-1.17a44.51,44.51,0,0,0-3.68-4.22,18.83,18.83,0,0,0-4-3,31.43,31.43,0,0,0-4.55-2c-1.69-.63-3.63-1.22-5.81-2a25.78,25.78,0,0,1-6.67-3.49,16.76,16.76,0,0,1-5-5.92,18.12,18.12,0,0,1-1.83-6.88l.91-.42a43,43,0,0,0,4.89,4,16.27,16.27,0,0,0,4.82,2.29,40,40,0,0,0,5.33,1,45.39,45.39,0,0,1,6.6,1.27,22,22,0,0,1,7.05,3.43,24.65,24.65,0,0,1,5.47,5.62,28.36,28.36,0,0,1,5.18,13.2l.33,1.68.21,1.69c.15,1.12.33,2.22.55,3.3s.31,2.19.54,3.26c.1.54.22,1.08.35,1.61s.2,1.08.32,1.61c.24,1.08.54,2.15.88,3.22s.59,2.16.94,3.26c.16.55.35,1.1.49,1.65l.4,1.67a25.89,25.89,0,0,1,.61,3.37,32.05,32.05,0,0,1,.16,3.39,31.58,31.58,0,0,1-.33,3.36,31.07,31.07,0,0,1-.61,3.31,33.25,33.25,0,0,1-.86,3.26,37.2,37.2,0,0,1-2.55,6.26,25.25,25.25,0,0,1-3.91,5.7Z"/>
  <path class="cls-1" d="M484.21,411.58a99.19,99.19,0,0,1-1.4-12.88c0-.52,0-1-.06-1.55s-.07-1-.09-1.54l-.09-3.07a40.14,40.14,0,0,1,.16-6.1c.12-1,.19-2.05.37-3.09s.32-2.1.4-3.15.2-2.12.23-3.19-.12-2.09-.26-3.13c-.08-.52-.15-1.05-.27-1.55s-.29-1-.45-1.5a30.28,30.28,0,0,0-1.09-2.93c-.48-.93-1-1.84-1.56-2.73-.28-.44-.54-.88-.86-1.3l-1-1.22-2-2.36-1-1.11c-.33-.38-.68-.74-1-1.08a42.85,42.85,0,0,0-4-3.89,19,19,0,0,0-4.26-2.6,32.31,32.31,0,0,0-4.7-1.6c-1.74-.47-3.73-.9-6-1.52a25.74,25.74,0,0,1-6.95-2.9,16.59,16.59,0,0,1-5.46-5.47,18,18,0,0,1-2.42-6.69l.87-.5a43.36,43.36,0,0,0,5.22,3.59,16.25,16.25,0,0,0,5,1.85,38.67,38.67,0,0,0,5.39.54,43.92,43.92,0,0,1,6.69.69,21.8,21.8,0,0,1,7.32,2.8,24.49,24.49,0,0,1,6,5.13,28.41,28.41,0,0,1,6.31,12.69l.47,1.64.36,1.67c.25,1.1.52,2.18.84,3.24s.5,2.15.82,3.2c.14.53.31,1,.48,1.57s.29,1.06.47,1.58c.33,1.05.71,2.09,1.15,3.13s.78,2.1,1.22,3.16c.21.54.44,1.07.63,1.61l.54,1.62a25.77,25.77,0,0,1,.91,3.31,31.87,31.87,0,0,1,.45,3.36,27.23,27.23,0,0,1,0,3.38,41.75,41.75,0,0,1-.89,6.67,36.23,36.23,0,0,1-2,6.46,25.23,25.23,0,0,1-3.4,6Z"/>
  <path class="cls-1" d="M494.38,405.27a97.64,97.64,0,0,1-2.52-12.71c-.08-.51-.14-1-.2-1.54s-.16-1-.22-1.52l-.36-3.05a41.16,41.16,0,0,1-.37-6.09c0-1,0-2.06.1-3.12s.14-2.11.13-3.17,0-2.13-.06-3.19a29.51,29.51,0,0,0-.53-3.1,15.42,15.42,0,0,0-.4-1.52c-.18-.49-.37-1-.58-1.46A29.17,29.17,0,0,0,488,362c-.56-.89-1.16-1.74-1.78-2.58-.32-.41-.62-.83-1-1.22l-1.1-1.13L482,354.87l-1.14-1c-.36-.35-.74-.68-1.11-1a40.78,40.78,0,0,0-4.36-3.52,18.6,18.6,0,0,0-4.46-2.23,31.93,31.93,0,0,0-4.83-1.17c-1.77-.33-3.79-.58-6.07-1a25.46,25.46,0,0,1-7.18-2.27,16.54,16.54,0,0,1-5.91-5,18,18,0,0,1-3-6.46l.82-.57a44.58,44.58,0,0,0,5.52,3.12,16.58,16.58,0,0,0,5.14,1.41,38.58,38.58,0,0,0,5.42.06,45.18,45.18,0,0,1,6.72.1,22.06,22.06,0,0,1,7.54,2.16,24.41,24.41,0,0,1,6.37,4.59,28.41,28.41,0,0,1,7.39,12.09l.62,1.6.5,1.63q.51,1.62,1.11,3.15c.36,1.05.69,2.1,1.1,3.12.19.51.4,1,.62,1.52s.38,1,.6,1.53c.42,1,.9,2,1.42,3s1,2,1.49,3.05c.25.51.53,1,.77,1.54l.68,1.57a27,27,0,0,1,1.2,3.21,31.59,31.59,0,0,1,.74,3.31,27.29,27.29,0,0,1,.25,3.37c.08,1.12,0,2.25,0,3.37s-.12,2.24-.29,3.36a36.64,36.64,0,0,1-1.42,6.6,25.09,25.09,0,0,1-2.87,6.3Z"/>
  <path class="cls-1" d="M504,398.1a98.47,98.47,0,0,1-3.61-12.44c-.13-.5-.23-1-.34-1.51s-.24-1-.35-1.51l-.62-3a40.54,40.54,0,0,1-.9-6c-.06-1-.17-2.05-.18-3.11s0-2.12-.14-3.17-.18-2.12-.33-3.17-.49-2-.81-3a15.32,15.32,0,0,0-.53-1.48c-.22-.47-.45-.93-.7-1.39a26.92,26.92,0,0,0-1.59-2.7c-.63-.83-1.31-1.64-2-2.41-.35-.39-.69-.78-1.07-1.14l-1.19-1-2.36-2-1.23-.91c-.39-.31-.8-.6-1.2-.89a42.86,42.86,0,0,0-4.64-3.12,19.19,19.19,0,0,0-4.64-1.83,31,31,0,0,0-4.91-.75c-1.8-.17-3.83-.24-6.14-.47a26,26,0,0,1-7.35-1.64,16.56,16.56,0,0,1-6.32-4.44,18,18,0,0,1-3.55-6.17l.76-.64a42.75,42.75,0,0,0,5.77,2.62,16.37,16.37,0,0,0,5.24,1,39.65,39.65,0,0,0,5.41-.41,44.88,44.88,0,0,1,6.71-.48,21.87,21.87,0,0,1,7.7,1.49,24.77,24.77,0,0,1,6.74,4A28.44,28.44,0,0,1,494,347.71l.75,1.54.64,1.58c.44,1,.89,2.05,1.39,3s.86,2,1.36,3c.24.49.49,1,.75,1.46s.47,1,.73,1.48c.52,1,1.07,1.93,1.68,2.88s1.14,1.93,1.75,2.9c.3.49.62,1,.9,1.47l.82,1.51a25.81,25.81,0,0,1,1.47,3.1,33.65,33.65,0,0,1,1,3.23,28.52,28.52,0,0,1,.54,3.33,40.56,40.56,0,0,1,.28,6.73,35.39,35.39,0,0,1-.84,6.7,24.65,24.65,0,0,1-2.3,6.52Z"/>
  <path class="cls-1" d="M512.87,390.13a99.35,99.35,0,0,1-4.69-12.08c-.17-.49-.31-1-.46-1.48s-.33-1-.48-1.47l-.89-2.93a41.09,41.09,0,0,1-1.42-5.94c-.15-1-.34-2-.45-3.08s-.22-2.12-.42-3.15-.36-2.1-.6-3.13a30.88,30.88,0,0,0-1.07-3,14.11,14.11,0,0,0-.66-1.42c-.26-.46-.53-.9-.82-1.33a28.74,28.74,0,0,0-1.82-2.55c-.7-.78-1.44-1.52-2.2-2.23-.39-.36-.76-.72-1.17-1l-1.27-.92-2.53-1.77-1.3-.8c-.41-.28-.85-.53-1.27-.78a42.32,42.32,0,0,0-4.9-2.71,18.91,18.91,0,0,0-4.78-1.41,31.1,31.1,0,0,0-5-.32c-1.8,0-3.83.09-6.15.06a25.27,25.27,0,0,1-7.46-1,16.59,16.59,0,0,1-6.69-3.87,17.91,17.91,0,0,1-4.08-5.84l.71-.71a42.87,42.87,0,0,0,6,2.12,16.4,16.4,0,0,0,5.3.49,37.37,37.37,0,0,0,5.35-.88,45.32,45.32,0,0,1,6.64-1.06,21.92,21.92,0,0,1,7.8.81,24.91,24.91,0,0,1,7.07,3.41,28.39,28.39,0,0,1,9.38,10.64l.88,1.46.78,1.52q.78,1.5,1.65,2.91c.53,1,1,1.95,1.62,2.88.28.47.57.93.87,1.39s.56,1,.86,1.41c.59.92,1.23,1.83,1.92,2.72s1.3,1.83,2,2.74c.34.46.7.91,1,1.38l.95,1.43a26,26,0,0,1,1.73,3,30.45,30.45,0,0,1,1.31,3.13A28.47,28.47,0,0,1,515,370a31.11,31.11,0,0,1,.57,3.32,31.52,31.52,0,0,1,.3,3.36,36.35,36.35,0,0,1-.25,6.75,25.46,25.46,0,0,1-1.73,6.7Z"/>
  <path class="cls-1" d="M521.06,381.41a98.24,98.24,0,0,1-5.73-11.63c-.21-.48-.39-1-.59-1.43s-.41-1-.6-1.42L513,364.08a41,41,0,0,1-1.94-5.79c-.23-1-.51-2-.71-3s-.41-2.09-.69-3.1-.54-2.06-.88-3.07a30.77,30.77,0,0,0-1.32-2.86,14.07,14.07,0,0,0-.78-1.36c-.3-.43-.61-.85-.94-1.26a28.66,28.66,0,0,0-2-2.38c-.77-.71-1.57-1.38-2.39-2-.41-.31-.81-.64-1.25-.93l-1.35-.8-2.67-1.55-1.36-.68c-.44-.24-.9-.46-1.34-.67a45.62,45.62,0,0,0-5.11-2.27,18.89,18.89,0,0,0-4.89-1,32.28,32.28,0,0,0-5,.11c-1.8.15-3.81.43-6.13.61a25.83,25.83,0,0,1-7.52-.34,16.62,16.62,0,0,1-7-3.28,17.83,17.83,0,0,1-4.57-5.46l.64-.76a42.81,42.81,0,0,0,6.14,1.58,16.18,16.18,0,0,0,5.33,0,37.91,37.91,0,0,0,5.25-1.34,44.53,44.53,0,0,1,6.52-1.64,22,22,0,0,1,7.84.13,25.09,25.09,0,0,1,7.34,2.78,28.43,28.43,0,0,1,10.27,9.78l1,1.38.9,1.44c.61,1,1.24,1.88,1.9,2.76s1.2,1.85,1.86,2.73c.32.44.65.88,1,1.31s.63.89,1,1.32c.68.87,1.39,1.72,2.16,2.55s1.45,1.71,2.22,2.56c.38.42.78.84,1.15,1.28l1.06,1.35a25.73,25.73,0,0,1,2,2.79,31.86,31.86,0,0,1,1.57,3,30,30,0,0,1,1.12,3.18,31.25,31.25,0,0,1,.85,3.26,28.85,28.85,0,0,1,.59,3.32,35.33,35.33,0,0,1,.34,6.75,25,25,0,0,1-1.14,6.82Z"/>
  <path class="cls-1" d="M528.45,372a97.41,97.41,0,0,1-6.71-11.08c-.25-.46-.48-.92-.72-1.38s-.49-.9-.72-1.36l-1.38-2.73a40.36,40.36,0,0,1-2.44-5.6c-.32-1-.69-1.94-1-3s-.59-2-1-3-.72-2-1.15-3a28.29,28.29,0,0,0-1.56-2.73,14.72,14.72,0,0,0-.89-1.29q-.51-.6-1.05-1.17a30.87,30.87,0,0,0-2.23-2.2c-.82-.64-1.68-1.24-2.56-1.81-.44-.28-.87-.57-1.32-.82l-1.42-.68-2.79-1.31-1.42-.56c-.46-.2-.93-.38-1.39-.55a42.54,42.54,0,0,0-5.29-1.81,18.84,18.84,0,0,0-5-.56,30.77,30.77,0,0,0-4.94.54c-1.78.3-3.76.76-6.05,1.14a25.78,25.78,0,0,1-7.52.31,16.59,16.59,0,0,1-7.26-2.65,18,18,0,0,1-5-5l.57-.82a42.37,42.37,0,0,0,6.25,1,16.31,16.31,0,0,0,5.31-.43,37.66,37.66,0,0,0,5.12-1.8,45.78,45.78,0,0,1,6.35-2.2,22.25,22.25,0,0,1,7.82-.55,24.71,24.71,0,0,1,7.56,2.13,28.58,28.58,0,0,1,11.08,8.84l1.13,1.29,1,1.36q1,1.35,2.13,2.58c.69.87,1.36,1.74,2.1,2.56.35.41.72.82,1.1,1.22s.71.83,1.09,1.23c.75.81,1.53,1.59,2.37,2.35s1.59,1.58,2.44,2.35c.41.4.85.78,1.25,1.19l1.18,1.24a27.35,27.35,0,0,1,2.22,2.61,33,33,0,0,1,1.83,2.86,29.31,29.31,0,0,1,1.39,3.08,31.43,31.43,0,0,1,1.14,3.17,32.38,32.38,0,0,1,.87,3.25,35.79,35.79,0,0,1,.92,6.7,24.91,24.91,0,0,1-.53,6.89Z"/>
  <path class="cls-1" d="M535,362a98,98,0,0,1-7.66-10.45c-.28-.44-.55-.88-.83-1.31s-.57-.86-.84-1.3l-1.61-2.6a40.91,40.91,0,0,1-2.92-5.37c-.4-.95-.85-1.87-1.22-2.86s-.77-2-1.22-2.93-.9-1.94-1.4-2.87-1.16-1.76-1.8-2.59c-.32-.41-.64-.83-1-1.21s-.75-.72-1.14-1.07a28.73,28.73,0,0,0-2.42-2c-.88-.57-1.78-1.09-2.7-1.58-.47-.24-.92-.49-1.4-.7l-1.47-.56-2.9-1.06-1.46-.43c-.47-.16-1-.3-1.43-.43a43.43,43.43,0,0,0-5.43-1.35,18.7,18.7,0,0,0-5-.12,30.36,30.36,0,0,0-4.87,1c-1.74.46-3.68,1.08-5.93,1.66a25.86,25.86,0,0,1-7.46,1,16.55,16.55,0,0,1-7.46-2,17.92,17.92,0,0,1-5.45-4.58l.5-.87a42.61,42.61,0,0,0,6.32.49,16.31,16.31,0,0,0,5.25-.89,38,38,0,0,0,4.95-2.24,45.18,45.18,0,0,1,6.13-2.74,21.83,21.83,0,0,1,7.74-1.23,24.6,24.6,0,0,1,7.71,1.46A28.5,28.5,0,0,1,508.41,318l1.23,1.19,1.14,1.26c.77.84,1.54,1.63,2.35,2.39s1.5,1.61,2.31,2.36c.39.39.79.76,1.21,1.12s.78.77,1.19,1.14c.81.74,1.66,1.45,2.56,2.13s1.72,1.43,2.63,2.13c.45.36.92.7,1.35,1.07l1.29,1.14a27.66,27.66,0,0,1,2.44,2.4,33.7,33.7,0,0,1,2.07,2.69,41.74,41.74,0,0,1,3.06,6,32.29,32.29,0,0,1,1.16,3.16,36.82,36.82,0,0,1,1.5,6.59,24.57,24.57,0,0,1,.06,6.91Z"/>
  <path class="cls-1" d="M540.65,351.45a99.79,99.79,0,0,1-8.54-9.75l-.94-1.23c-.32-.41-.65-.81-.95-1.22l-1.84-2.45a41.53,41.53,0,0,1-3.37-5.09c-.49-.92-1-1.79-1.47-2.75s-.93-1.91-1.47-2.81-1.06-1.85-1.64-2.74a31.19,31.19,0,0,0-2-2.42c-.35-.38-.71-.77-1.1-1.12s-.81-.65-1.23-1c-.84-.63-1.69-1.24-2.58-1.78s-1.88-.93-2.84-1.34c-.48-.2-1-.41-1.45-.58l-1.51-.42-3-.8-1.49-.31c-.49-.12-1-.21-1.46-.3a43.48,43.48,0,0,0-5.53-.87,18.84,18.84,0,0,0-5,.31,31.85,31.85,0,0,0-4.77,1.39c-1.7.61-3.57,1.4-5.76,2.17a25.54,25.54,0,0,1-7.35,1.62,16.65,16.65,0,0,1-7.61-1.35,18,18,0,0,1-5.83-4.09l.43-.91a42.62,42.62,0,0,0,6.33-.06,16.3,16.3,0,0,0,5.16-1.35,38.65,38.65,0,0,0,4.73-2.65,45.4,45.4,0,0,1,5.87-3.28,22.19,22.19,0,0,1,7.61-1.9,24.87,24.87,0,0,1,7.81.79A28.51,28.51,0,0,1,510.33,310l1.33,1.08,1.25,1.16c.83.76,1.68,1.49,2.54,2.17s1.64,1.48,2.51,2.15c.42.35.86.69,1.3,1s.84.7,1.28,1c.88.67,1.79,1.3,2.74,1.9s1.85,1.28,2.81,1.89c.48.32,1,.62,1.44.95l1.38,1a25.35,25.35,0,0,1,2.64,2.19,32,32,0,0,1,2.3,2.5,27.82,27.82,0,0,1,1.9,2.78c.63.94,1.14,1.94,1.67,2.93a31.33,31.33,0,0,1,1.43,3.05,35.72,35.72,0,0,1,2.07,6.43,24.9,24.9,0,0,1,.67,6.89Z"/>
  <path class="cls-1" d="M545.36,340.45a97,97,0,0,1-9.36-9c-.35-.37-.7-.76-1-1.14l-1.06-1.13-2-2.28a40.88,40.88,0,0,1-3.8-4.78c-.56-.87-1.17-1.7-1.7-2.61s-1.1-1.82-1.72-2.67-1.21-1.75-1.87-2.59a31.13,31.13,0,0,0-2.22-2.23c-.39-.35-.78-.71-1.2-1s-.86-.58-1.31-.85a28,28,0,0,0-2.72-1.55c-1-.4-2-.76-2.94-1.09-.5-.15-1-.32-1.49-.44l-1.55-.3-3-.54-1.51-.17c-.5-.07-1-.13-1.48-.17a44.33,44.33,0,0,0-5.59-.39,18.85,18.85,0,0,0-4.93.75,31.16,31.16,0,0,0-4.63,1.8c-1.64.75-3.43,1.7-5.55,2.66a25.61,25.61,0,0,1-7.18,2.25,16.53,16.53,0,0,1-7.7-.68,18,18,0,0,1-6.16-3.57l.34-.94a41.18,41.18,0,0,0,6.31-.61,16.12,16.12,0,0,0,5-1.79,39.41,39.41,0,0,0,4.48-3.06,45.36,45.36,0,0,1,5.56-3.77A21.9,21.9,0,0,1,490.7,296a24.76,24.76,0,0,1,7.84.11,28.37,28.37,0,0,1,13,5.67l1.42.95,1.34,1.05c.9.69,1.8,1.34,2.73,1.94s1.76,1.33,2.68,1.93c.46.31.92.6,1.39.89s.9.62,1.37.91c.93.59,1.89,1.14,2.89,1.66s1.95,1.11,3,1.64c.5.27,1,.53,1.51.82l1.46.89a24.33,24.33,0,0,1,2.82,1.95c.88.72,1.71,1.49,2.51,2.29a29.68,29.68,0,0,1,2.14,2.61,31,31,0,0,1,1.92,2.77c.59,1,1.19,1.9,1.69,2.91a37.14,37.14,0,0,1,2.62,6.23,24.59,24.59,0,0,1,1.26,6.8Z"/>
  <path class="cls-1" d="M549.09,329.09A99.69,99.69,0,0,1,539,321c-.39-.34-.76-.7-1.14-1.05l-1.15-1-2.23-2.1a41,41,0,0,1-4.21-4.43c-.63-.81-1.31-1.59-1.92-2.45s-1.25-1.71-1.94-2.51-1.36-1.64-2.09-2.41-1.57-1.4-2.4-2c-.42-.31-.84-.63-1.29-.9s-.91-.51-1.38-.74a27.89,27.89,0,0,0-2.84-1.3c-1-.32-2-.59-3-.83-.51-.11-1-.24-1.53-.32l-1.56-.15-3.07-.28-1.53,0c-.5,0-1,0-1.49,0a44.79,44.79,0,0,0-5.6.1,19.68,19.68,0,0,0-4.85,1.17,31.56,31.56,0,0,0-4.45,2.2c-1.57.9-3.27,2-5.3,3.14a25.79,25.79,0,0,1-7,2.87,16.64,16.64,0,0,1-7.72,0,18.07,18.07,0,0,1-6.45-3l.26-1a45,45,0,0,0,6.23-1.16,16.1,16.1,0,0,0,4.84-2.23,38.73,38.73,0,0,0,4.2-3.43,45,45,0,0,1,5.21-4.25,22.18,22.18,0,0,1,7.16-3.19,24.65,24.65,0,0,1,7.83-.58A28.38,28.38,0,0,1,512,293.52l1.5.82,1.43.93c.95.61,1.91,1.18,2.88,1.7s1.88,1.17,2.84,1.68c.48.27,1,.53,1.46.77s1,.54,1.45.79c1,.5,2,1,3,1.39s2,.94,3.1,1.38c.52.23,1.07.44,1.58.69l1.53.76a26.53,26.53,0,0,1,3,1.7,31.4,31.4,0,0,1,2.69,2.06,26.85,26.85,0,0,1,2.36,2.41,33.16,33.16,0,0,1,2.15,2.59A31.1,31.1,0,0,1,545,316a37,37,0,0,1,3.16,6,25.21,25.21,0,0,1,1.85,6.67Z"/>
  <path class="cls-1" d="M551.82,317.44a97.43,97.43,0,0,1-10.77-7.21c-.42-.3-.82-.63-1.23-.94s-.83-.61-1.23-.93l-2.41-1.9a40.63,40.63,0,0,1-4.57-4c-.71-.76-1.45-1.47-2.14-2.27s-1.39-1.6-2.14-2.34-1.5-1.51-2.3-2.22a31.28,31.28,0,0,0-2.57-1.82c-.45-.27-.89-.55-1.36-.79s-1-.42-1.44-.61a25.2,25.2,0,0,0-2.95-1.05c-1-.23-2.05-.41-3.08-.56-.52-.07-1-.15-1.55-.18l-1.57,0h-3.09l-1.52.1c-.5,0-1,0-1.49.08a44.51,44.51,0,0,0-5.56.59,19.28,19.28,0,0,0-4.74,1.59,32.76,32.76,0,0,0-4.24,2.58c-1.48,1-3.08,2.28-5,3.59a25.71,25.71,0,0,1-6.69,3.46,16.52,16.52,0,0,1-7.69.67,18,18,0,0,1-6.69-2.45l.17-1a43.9,43.9,0,0,0,6.11-1.7,16,16,0,0,0,4.63-2.64,37.93,37.93,0,0,0,3.88-3.79,46.37,46.37,0,0,1,4.83-4.68,21.81,21.81,0,0,1,6.85-3.8,24.83,24.83,0,0,1,7.75-1.26,28.4,28.4,0,0,1,13.78,3.33l1.56.69,1.51.8c1,.52,2,1,3,1.44s2,1,3,1.43c.5.22,1,.44,1.52.63s1,.46,1.5.66c1,.42,2.06.8,3.14,1.13s2.11.76,3.21,1.1c.54.18,1.1.35,1.63.55l1.6.62a28.27,28.27,0,0,1,3.11,1.43,33.94,33.94,0,0,1,2.87,1.82,29.7,29.7,0,0,1,2.56,2.2,43.25,43.25,0,0,1,4.54,5,36.21,36.21,0,0,1,3.66,5.68,24.56,24.56,0,0,1,2.43,6.48Z"/>
  <path class="cls-1" d="M553.52,305.6a98.46,98.46,0,0,1-11.35-6.24c-.45-.27-.88-.56-1.31-.84s-.88-.53-1.31-.81L537,296a41.2,41.2,0,0,1-4.91-3.63c-.77-.69-1.57-1.34-2.32-2.08s-1.53-1.47-2.35-2.14-1.62-1.38-2.48-2-1.79-1.1-2.72-1.59c-.47-.23-.93-.48-1.42-.67s-1-.34-1.49-.48a25.92,25.92,0,0,0-3-.79c-1-.14-2.08-.23-3.12-.29-.52,0-1-.06-1.56-.05l-1.56.12-3.08.27-1.51.22c-.5.06-1,.13-1.47.22a43.23,43.23,0,0,0-5.5,1.07,19.36,19.36,0,0,0-4.57,2,31.35,31.35,0,0,0-4,2.94c-1.39,1.15-2.88,2.54-4.68,4a25.67,25.67,0,0,1-6.35,4,16.57,16.57,0,0,1-7.61,1.33,18,18,0,0,1-6.87-1.85l.08-1a44.6,44.6,0,0,0,5.94-2.22,16.27,16.27,0,0,0,4.38-3,39,39,0,0,0,3.54-4.12,44.18,44.18,0,0,1,4.4-5.08,22,22,0,0,1,6.49-4.39,24.79,24.79,0,0,1,7.61-1.93,28.37,28.37,0,0,1,14,2.12l1.62.55,1.57.66c1,.43,2.08.83,3.13,1.17s2.05.83,3.09,1.17c.52.18,1,.35,1.57.5s1,.37,1.56.53c1.05.33,2.12.61,3.22.85s2.17.57,3.29.82c.56.13,1.13.24,1.68.4l1.64.48a26.88,26.88,0,0,1,3.23,1.15,33,33,0,0,1,3,1.57,29.22,29.22,0,0,1,2.75,2,41.12,41.12,0,0,1,4.95,4.56,36.67,36.67,0,0,1,4.15,5.34,25.13,25.13,0,0,1,3,6.24Z"/>
  <path class="cls-1" d="M554.19,293.65a96.18,96.18,0,0,1-11.86-5.22c-.47-.23-.92-.48-1.37-.72s-.93-.46-1.38-.7l-2.7-1.45a41.06,41.06,0,0,1-5.21-3.19c-.82-.62-1.67-1.19-2.49-1.87s-1.65-1.33-2.52-1.92-1.74-1.23-2.65-1.79-1.88-.94-2.85-1.34a15.26,15.26,0,0,0-1.47-.55c-.5-.13-1-.25-1.53-.35a26.76,26.76,0,0,0-3.08-.52c-1.05,0-2.09,0-3.14,0-.52,0-1,0-1.55.09l-1.55.25-3,.54-1.49.35c-.49.1-1,.22-1.45.35a42.67,42.67,0,0,0-5.38,1.55,19.09,19.09,0,0,0-4.38,2.38,31.41,31.41,0,0,0-3.73,3.28c-1.28,1.27-2.65,2.77-4.31,4.4a25.78,25.78,0,0,1-6,4.57,16.45,16.45,0,0,1-7.46,2,18.1,18.1,0,0,1-7-1.24v-1a44.3,44.3,0,0,0,5.72-2.73,16.44,16.44,0,0,0,4.1-3.41,38.27,38.27,0,0,0,3.16-4.4,45.81,45.81,0,0,1,3.94-5.45,22.19,22.19,0,0,1,6.09-4.94A24.61,24.61,0,0,1,495,268a28.39,28.39,0,0,1,14.16.88l1.65.41,1.63.53c1.07.33,2.15.64,3.22.89s2.11.64,3.18.89c.53.14,1.07.26,1.61.36s1.06.28,1.6.39c1.07.24,2.16.43,3.28.57s2.21.37,3.35.53c.56.08,1.14.14,1.7.25l1.68.34a24.52,24.52,0,0,1,3.32.87,31.83,31.83,0,0,1,3.14,1.29,27.3,27.3,0,0,1,2.9,1.72,29.66,29.66,0,0,1,2.75,1.95,31.19,31.19,0,0,1,2.59,2.16,36.54,36.54,0,0,1,4.59,4.95,24.69,24.69,0,0,1,3.51,6Z"/>
  <path class="cls-1" d="M553.81,281.7a97.39,97.39,0,0,1-12.27-4.18c-.48-.18-.95-.39-1.43-.59s-1-.37-1.43-.58l-2.82-1.21a40.84,40.84,0,0,1-5.46-2.72c-.88-.55-1.78-1-2.65-1.64s-1.76-1.19-2.68-1.7-1.84-1.07-2.79-1.55a30.83,30.83,0,0,0-3-1.09c-.5-.15-1-.31-1.51-.41s-1-.17-1.55-.23a29.8,29.8,0,0,0-3.12-.25c-1,.05-2.09.14-3.13.26-.51.07-1,.12-1.54.23l-1.52.38-3,.8-1.45.48c-.48.14-1,.31-1.42.47a45.82,45.82,0,0,0-5.22,2,19.29,19.29,0,0,0-4.16,2.76,32,32,0,0,0-3.43,3.59c-1.17,1.38-2.39,3-3.91,4.76a25.56,25.56,0,0,1-5.55,5.08,16.56,16.56,0,0,1-7.27,2.63,17.83,17.83,0,0,1-7.09-.63l-.08-1a44.08,44.08,0,0,0,5.45-3.22,16.52,16.52,0,0,0,3.8-3.75,40.32,40.32,0,0,0,2.76-4.67,46.78,46.78,0,0,1,3.45-5.77,22.05,22.05,0,0,1,5.64-5.45,24.76,24.76,0,0,1,7.16-3.22,28.45,28.45,0,0,1,14.17-.35l1.69.26,1.66.39c1.1.24,2.2.45,3.29.6s2.16.46,3.25.61c.54.09,1.08.17,1.63.23s1.08.18,1.62.24a33,33,0,0,0,3.33.28c1.11.11,2.23.19,3.38.24.57,0,1.15,0,1.72.1l1.7.19a27.11,27.11,0,0,1,3.38.58,32.86,32.86,0,0,1,3.24,1,29.23,29.23,0,0,1,3,1.46c1,.5,2,1.11,2.91,1.7a31,31,0,0,1,2.76,1.93,35.86,35.86,0,0,1,5,4.54,24.48,24.48,0,0,1,4,5.62Z"/>
  <path class="cls-1" d="M552.39,269.82a97.82,97.82,0,0,1-12.59-3.09c-.49-.14-1-.31-1.47-.47s-1-.29-1.48-.45l-2.91-1a41,41,0,0,1-5.68-2.23c-.93-.47-1.86-.89-2.78-1.41s-1.86-1-2.82-1.46-1.93-.91-2.92-1.3-2-.6-3-.83c-.52-.1-1-.22-1.55-.28s-1-.07-1.56-.08a29.69,29.69,0,0,0-3.13,0c-1,.14-2.07.32-3.09.53-.51.11-1,.21-1.52.36l-1.49.52-2.9,1.05-1.39.61c-.47.18-.93.39-1.37.59a42.81,42.81,0,0,0-5,2.46,18.85,18.85,0,0,0-3.9,3.11,30.73,30.73,0,0,0-3.11,3.87c-1,1.48-2.12,3.2-3.48,5.09A26,26,0,0,1,478.1,281a16.57,16.57,0,0,1-7,3.25,18,18,0,0,1-7.12,0l-.17-1a44.66,44.66,0,0,0,5.16-3.68,16.4,16.4,0,0,0,3.45-4.07,40.5,40.5,0,0,0,2.35-4.88,44,44,0,0,1,2.93-6.05,21.71,21.71,0,0,1,5.14-5.92,24.55,24.55,0,0,1,6.85-3.84,28.38,28.38,0,0,1,14.09-1.58l1.7.11,1.69.24c1.12.14,2.23.25,3.33.32s2.2.26,3.29.32c.55,0,1.1.07,1.65.08s1.09.09,1.64.11c1.1,0,2.21,0,3.33,0s2.24,0,3.39-.06c.57,0,1.15,0,1.72,0l1.72,0a25.71,25.71,0,0,1,3.41.28,31.18,31.18,0,0,1,3.32.73,26.22,26.22,0,0,1,3.16,1.19c1,.4,2,.93,3,1.43a29.15,29.15,0,0,1,2.92,1.69,36,36,0,0,1,5.39,4.08A25.11,25.11,0,0,1,553,269Z"/>
  <path class="cls-1" d="M549.94,258.11a99.13,99.13,0,0,1-12.81-2c-.51-.1-1-.22-1.51-.34l-1.51-.31-3-.71a40.52,40.52,0,0,1-5.86-1.73c-1-.39-1.93-.72-2.89-1.16s-1.94-.86-2.94-1.21-2-.73-3-1-2.06-.42-3.1-.56c-.52-.06-1-.13-1.57-.14s-1,0-1.56,0a27.22,27.22,0,0,0-3.12.3c-1,.22-2,.49-3,.79-.5.16-1,.3-1.48.49l-1.43.65-2.8,1.3-1.34.73c-.45.22-.89.46-1.31.7a45.14,45.14,0,0,0-4.8,2.89,19.16,19.16,0,0,0-3.61,3.44,30.88,30.88,0,0,0-2.76,4.13c-.91,1.56-1.84,3.37-3,5.37a25.68,25.68,0,0,1-4.59,6,16.73,16.73,0,0,1-6.7,3.86,18.12,18.12,0,0,1-7.09.61l-.26-1a43.71,43.71,0,0,0,4.82-4.12,16.23,16.23,0,0,0,3.08-4.35,39.14,39.14,0,0,0,1.91-5.07,46,46,0,0,1,2.4-6.28,22,22,0,0,1,4.6-6.35,24.78,24.78,0,0,1,6.49-4.41,28.44,28.44,0,0,1,13.9-2.81l1.71,0,1.7.08c1.13.05,2.24.06,3.35,0s2.2.08,3.3,0c.55,0,1.1,0,1.65-.07s1.09,0,1.64,0c1.1,0,2.2-.15,3.32-.3s2.23-.21,3.37-.36c.57-.06,1.14-.15,1.71-.19l1.71-.11a26.2,26.2,0,0,1,3.43,0,31.69,31.69,0,0,1,3.37.44,28.51,28.51,0,0,1,3.25.91,32.36,32.36,0,0,1,3.16,1.17,31.25,31.25,0,0,1,3,1.42,35.94,35.94,0,0,1,5.73,3.59,25.13,25.13,0,0,1,4.93,4.85Z"/>
  <path class="cls-1" d="M546.48,246.66a98.13,98.13,0,0,1-12.93-.86c-.52-.05-1-.13-1.54-.2s-1-.11-1.53-.19l-3-.44a40,40,0,0,1-6-1.21c-1-.3-2-.55-3-.9s-2-.69-3-1-2.05-.56-3.1-.77a29.59,29.59,0,0,0-3.13-.29c-.52,0-1.05,0-1.57,0s-1,.11-1.56.19a29.06,29.06,0,0,0-3.07.56c-1,.31-2,.67-3,1.06-.48.2-1,.39-1.43.62l-1.37.77-2.67,1.54-1.27.84c-.43.26-.85.54-1.25.82a44.87,44.87,0,0,0-4.53,3.29,19.06,19.06,0,0,0-3.3,3.74,30.77,30.77,0,0,0-2.38,4.36c-.78,1.63-1.54,3.51-2.55,5.61a25.62,25.62,0,0,1-4.05,6.34,16.63,16.63,0,0,1-6.33,4.42,18,18,0,0,1-7,1.23l-.34-.94a43.53,43.53,0,0,0,4.44-4.52,16.57,16.57,0,0,0,2.69-4.6,39.76,39.76,0,0,0,1.47-5.23,44.38,44.38,0,0,1,1.84-6.46,22,22,0,0,1,4-6.73,24.53,24.53,0,0,1,6.08-5,28.35,28.35,0,0,1,13.6-4l1.7-.18,1.7-.06c1.13,0,2.24-.14,3.34-.27s2.2-.11,3.29-.25c.55-.05,1.09-.12,1.64-.2s1.09-.11,1.63-.19c1.09-.14,2.18-.34,3.28-.59s2.21-.4,3.33-.65c.56-.11,1.12-.25,1.69-.34l1.69-.26a26.2,26.2,0,0,1,3.42-.32,32,32,0,0,1,3.39.15,28.78,28.78,0,0,1,3.31.62,30,30,0,0,1,3.25.89,32.41,32.41,0,0,1,3.17,1.15,35.88,35.88,0,0,1,6,3.08,25.17,25.17,0,0,1,5.34,4.39Z"/>
  <path class="cls-1" d="M542,235.55a98.1,98.1,0,0,1-12.95.28c-.52,0-1-.05-1.55-.07s-1,0-1.54,0l-3.06-.18a40.15,40.15,0,0,1-6.07-.69c-1-.21-2-.37-3.05-.63s-2.06-.51-3.1-.68-2.1-.38-3.15-.51-2.1-.06-3.15,0c-.52,0-1.05.05-1.57.13s-1,.2-1.53.32a27.87,27.87,0,0,0-3,.83q-1.46.6-2.85,1.32c-.47.24-.93.46-1.38.74l-1.3.88L490.25,239l-1.2.95c-.4.29-.79.61-1.17.92a43.3,43.3,0,0,0-4.22,3.68,18.83,18.83,0,0,0-3,4,31.43,31.43,0,0,0-2,4.55c-.63,1.69-1.22,3.63-2,5.81a25.78,25.78,0,0,1-3.49,6.67,16.76,16.76,0,0,1-5.92,5,18.12,18.12,0,0,1-6.88,1.83l-.43-.91a42.05,42.05,0,0,0,4-4.89,16,16,0,0,0,2.28-4.82,38.07,38.07,0,0,0,1-5.33,45.39,45.39,0,0,1,1.27-6.6,22,22,0,0,1,3.43-7.05,24.65,24.65,0,0,1,5.62-5.47,28.32,28.32,0,0,1,13.2-5.18l1.68-.33,1.69-.21c1.12-.15,2.22-.33,3.3-.55s2.19-.31,3.26-.54c.54-.1,1.08-.22,1.61-.35s1.08-.2,1.61-.32c1.07-.24,2.15-.53,3.22-.88s2.16-.59,3.26-.93c.54-.17,1.09-.35,1.65-.5l1.66-.4a26.35,26.35,0,0,1,3.38-.61,31.93,31.93,0,0,1,3.39-.16,31.14,31.14,0,0,1,3.35.33c1.12.12,2.22.38,3.32.61a30.71,30.71,0,0,1,3.26.87,36.34,36.34,0,0,1,6.26,2.54,25,25,0,0,1,5.7,3.92Z"/>
  <path class="cls-1" d="M536.64,224.88a99.34,99.34,0,0,1-12.89,1.4c-.51,0-1,.05-1.54.06l-1.54.09-3.07.09a40.14,40.14,0,0,1-6.1-.16c-1-.12-2.05-.19-3.1-.37s-2.09-.32-3.14-.4-2.12-.2-3.19-.23-2.09.13-3.14.26c-.51.08-1,.15-1.54.27s-1,.29-1.5.45a27.11,27.11,0,0,0-2.93,1.1c-.93.48-1.84,1-2.73,1.55-.44.28-.88.55-1.3.86l-1.22,1-2.36,2-1.11,1.05c-.38.33-.74.68-1.08,1a42.91,42.91,0,0,0-3.89,4,18.41,18.41,0,0,0-2.6,4.25,31.54,31.54,0,0,0-1.6,4.7c-.47,1.75-.9,3.73-1.53,6a25.38,25.38,0,0,1-2.89,7,16.5,16.5,0,0,1-5.47,5.46,18,18,0,0,1-6.69,2.42l-.5-.86a43.43,43.43,0,0,0,3.59-5.23,16.25,16.25,0,0,0,1.85-5,38.67,38.67,0,0,0,.54-5.39,45.25,45.25,0,0,1,.68-6.69,21.9,21.9,0,0,1,2.81-7.32,24.86,24.86,0,0,1,5.12-5.95,28.44,28.44,0,0,1,12.7-6.31l1.64-.47,1.67-.36q1.65-.36,3.24-.84c1.08-.25,2.15-.49,3.2-.81.53-.15,1.05-.31,1.57-.49s1.06-.29,1.58-.47c1.05-.33,2.09-.71,3.13-1.15s2.1-.78,3.16-1.22c.53-.2,1.07-.44,1.61-.63l1.62-.54A25.77,25.77,0,0,1,511,218a31.53,31.53,0,0,1,3.36-.45,29.12,29.12,0,0,1,3.37,0,31.3,31.3,0,0,1,3.36.31c1.11.16,2.22.31,3.32.58a37.07,37.07,0,0,1,6.46,2,25.42,25.42,0,0,1,6,3.4Z"/>
  <path class="cls-1" d="M530.33,214.71a97.64,97.64,0,0,1-12.71,2.52c-.51.08-1,.14-1.54.2s-1,.16-1.52.22l-3,.36a39.85,39.85,0,0,1-6.09.37c-1,0-2.06,0-3.12-.09s-2.12-.15-3.17-.14-2.13,0-3.19.06a29.51,29.51,0,0,0-3.1.53c-.51.12-1,.24-1.52.4s-1,.38-1.46.58a29.17,29.17,0,0,0-2.82,1.35c-.89.56-1.75,1.16-2.58,1.78-.41.32-.83.62-1.23,1l-1.12,1.1-2.18,2.18-1,1.14c-.35.36-.68.74-1,1.11a40.78,40.78,0,0,0-3.52,4.36,18.6,18.6,0,0,0-2.23,4.46A31.93,31.93,0,0,0,471,243c-.33,1.77-.58,3.79-1,6.07a25.46,25.46,0,0,1-2.27,7.18,16.54,16.54,0,0,1-5,5.91,18,18,0,0,1-6.46,3l-.57-.82a43.19,43.19,0,0,0,3.11-5.52,16,16,0,0,0,1.41-5.14,40.06,40.06,0,0,0,.07-5.42,45.18,45.18,0,0,1,.1-6.72,22.06,22.06,0,0,1,2.16-7.54,24.79,24.79,0,0,1,4.58-6.37,28.44,28.44,0,0,1,12.1-7.39l1.6-.62,1.63-.5c1.07-.34,2.12-.7,3.15-1.11s2.1-.69,3.12-1.1c.51-.19,1-.4,1.52-.62s1-.38,1.53-.6c1-.42,2-.9,3-1.42s2-1,3-1.49c.52-.25,1-.53,1.55-.77l1.57-.68a27,27,0,0,1,3.21-1.2c1.09-.3,2.2-.55,3.31-.74a29.22,29.22,0,0,1,3.37-.25c1.12-.08,2.25,0,3.37,0s2.24.12,3.36.29a36.66,36.66,0,0,1,6.6,1.43,24.65,24.65,0,0,1,6.29,2.86Z"/>
  <path class="cls-1" d="M523.16,205.14a96.84,96.84,0,0,1-12.44,3.61c-.51.13-1,.23-1.51.34l-1.51.35-3,.62a41.9,41.9,0,0,1-6,.91c-1,.05-2.05.16-3.11.17s-2.12,0-3.17.14-2.12.18-3.17.34a29.09,29.09,0,0,0-3,.8,15.32,15.32,0,0,0-1.48.53c-.47.22-.94.46-1.39.71a26.84,26.84,0,0,0-2.7,1.58c-.83.63-1.64,1.31-2.41,2-.39.36-.78.7-1.14,1.07l-1,1.19-2,2.37-.91,1.22c-.31.39-.61.8-.89,1.2a42.86,42.86,0,0,0-3.12,4.64,18.86,18.86,0,0,0-1.83,4.65,30.73,30.73,0,0,0-.75,4.9c-.17,1.8-.24,3.83-.47,6.14a26,26,0,0,1-1.64,7.35,16.56,16.56,0,0,1-4.44,6.32,17.8,17.8,0,0,1-6.17,3.55l-.64-.76a42.75,42.75,0,0,0,2.62-5.77,16.32,16.32,0,0,0,1-5.24,39.65,39.65,0,0,0-.41-5.41,46,46,0,0,1-.49-6.71,22,22,0,0,1,1.5-7.69,24.43,24.43,0,0,1,4-6.75,28.44,28.44,0,0,1,11.41-8.42l1.53-.75,1.59-.64c1-.43,2.05-.89,3-1.39s2-.86,3-1.36c.49-.24,1-.49,1.46-.75s1-.47,1.48-.73q1.46-.76,2.88-1.68c1-.55,1.93-1.13,2.9-1.75.49-.3,1-.62,1.47-.9l1.51-.82a26.42,26.42,0,0,1,3.09-1.47,30.43,30.43,0,0,1,3.24-1,26.58,26.58,0,0,1,3.33-.55A40.56,40.56,0,0,1,510,201a35.5,35.5,0,0,1,6.7.84,25,25,0,0,1,6.52,2.3Z"/>
  <path class="cls-1" d="M515.19,196.22a97.74,97.74,0,0,1-12.08,4.69c-.5.17-1,.31-1.48.46l-1.47.48-2.93.89a41.09,41.09,0,0,1-5.94,1.42c-1,.15-2,.34-3.09.45s-2.11.22-3.14.42-2.1.36-3.14.61-2,.66-3,1.06a15.38,15.38,0,0,0-1.43.66c-.45.26-.89.53-1.33.82a28.59,28.59,0,0,0-2.54,1.82c-.78.7-1.52,1.44-2.23,2.2-.36.39-.72.76-1,1.17l-.92,1.27-1.77,2.53-.8,1.3c-.28.42-.53.85-.78,1.27a42.32,42.32,0,0,0-2.71,4.9,19,19,0,0,0-1.41,4.78,31.1,31.1,0,0,0-.32,5c0,1.8.09,3.83.06,6.16a25.65,25.65,0,0,1-1,7.46,16.62,16.62,0,0,1-3.87,6.68,18,18,0,0,1-5.84,4.08l-.71-.71a44.58,44.58,0,0,0,2.12-6,16.48,16.48,0,0,0,.49-5.31,37.37,37.37,0,0,0-.88-5.35,45.32,45.32,0,0,1-1.06-6.64,21.94,21.94,0,0,1,.81-7.8,24.65,24.65,0,0,1,3.41-7.07,28.44,28.44,0,0,1,10.63-9.38l1.47-.88,1.52-.78c1-.52,2-1.06,2.91-1.65s1.95-1,2.88-1.61c.47-.28.93-.58,1.39-.88s.94-.56,1.4-.86q1.4-.88,2.73-1.92c.92-.63,1.83-1.3,2.74-2,.46-.34.91-.7,1.38-1l1.43-1a25.11,25.11,0,0,1,3-1.73,32.85,32.85,0,0,1,3.13-1.31,28.47,28.47,0,0,1,3.27-.83,31.11,31.11,0,0,1,3.32-.57,31.52,31.52,0,0,1,3.36-.3,36.35,36.35,0,0,1,6.75.25,25.46,25.46,0,0,1,6.7,1.73Z"/>
  <path class="cls-1" d="M506.46,188a98,98,0,0,1-11.62,5.72c-.48.21-1,.39-1.43.59L492,195l-2.85,1.14a41.43,41.43,0,0,1-5.79,1.94c-1,.23-2,.52-3,.71s-2.09.41-3.1.69-2.06.55-3.07.88a30.77,30.77,0,0,0-2.86,1.32c-.46.25-.93.49-1.36.78s-.85.61-1.26.94a28.66,28.66,0,0,0-2.38,2c-.71.77-1.38,1.57-2,2.39-.32.41-.64.82-.93,1.25l-.8,1.35L461,213l-.68,1.37c-.24.44-.46.89-.67,1.33a45.62,45.62,0,0,0-2.27,5.11,18.88,18.88,0,0,0-1,4.9,32.18,32.18,0,0,0,.11,5c.15,1.8.43,3.81.6,6.13a25.15,25.15,0,0,1-.34,7.52,16.52,16.52,0,0,1-3.27,7,17.93,17.93,0,0,1-5.46,4.56l-.76-.64a42.81,42.81,0,0,0,1.58-6.14,16.18,16.18,0,0,0,0-5.33,39.39,39.39,0,0,0-1.34-5.25,44.21,44.21,0,0,1-1.64-6.52,21.82,21.82,0,0,1,.13-7.84,24.81,24.81,0,0,1,2.78-7.34,28.43,28.43,0,0,1,9.78-10.27l1.38-1,1.44-.9c.95-.61,1.87-1.24,2.76-1.9s1.85-1.2,2.73-1.86c.44-.32.88-.65,1.31-1s.89-.63,1.32-1c.87-.68,1.72-1.39,2.55-2.16s1.71-1.45,2.55-2.22c.43-.38.85-.78,1.29-1.15l1.34-1.06a26.87,26.87,0,0,1,2.8-2,30.69,30.69,0,0,1,3-1.57,30,30,0,0,1,3.18-1.12c1.07-.36,2.17-.6,3.26-.85a31.18,31.18,0,0,1,3.32-.59,37,37,0,0,1,6.75-.34,25.1,25.1,0,0,1,6.82,1.14Z"/>
  <path class="cls-1" d="M497.06,180.64A96.84,96.84,0,0,1,486,187.35l-1.38.72c-.45.24-.9.49-1.36.72l-2.74,1.38a39.34,39.34,0,0,1-5.6,2.44c-1,.32-1.93.69-2.95,1s-2,.59-3,1-2,.72-3,1.15a28.29,28.29,0,0,0-2.73,1.56c-.44.28-.89.57-1.3.89s-.78.69-1.16,1.05a28.93,28.93,0,0,0-2.2,2.23c-.64.83-1.24,1.68-1.81,2.56-.28.44-.57.87-.82,1.33l-.68,1.41-1.31,2.79-.56,1.42c-.2.46-.38.93-.55,1.39a42.54,42.54,0,0,0-1.81,5.29,18.91,18.91,0,0,0-.57,5,32,32,0,0,0,.55,4.94c.3,1.78.76,3.76,1.13,6.05a25.77,25.77,0,0,1,.32,7.52,16.59,16.59,0,0,1-2.65,7.26,17.84,17.84,0,0,1-5,5l-.82-.57a42.15,42.15,0,0,0,1-6.25,16.33,16.33,0,0,0-.43-5.31,39.59,39.59,0,0,0-1.8-5.12,45.78,45.78,0,0,1-2.2-6.35,22,22,0,0,1-.55-7.82,24.71,24.71,0,0,1,2.13-7.56A28.49,28.49,0,0,1,451,203.3l1.29-1.12,1.36-1q1.35-1,2.58-2.13c.87-.69,1.74-1.36,2.56-2.1.41-.35.82-.72,1.22-1.1s.83-.71,1.23-1.09c.81-.74,1.59-1.53,2.35-2.37s1.58-1.59,2.35-2.44c.39-.41.78-.85,1.19-1.25l1.24-1.18a27.35,27.35,0,0,1,2.61-2.22,33,33,0,0,1,2.86-1.83,40.29,40.29,0,0,1,6.25-2.52,32.42,32.42,0,0,1,3.25-.88,35.67,35.67,0,0,1,6.7-.92,24.55,24.55,0,0,1,6.89.54Z"/>
  <path class="cls-1" d="M487.05,174.09a97.12,97.12,0,0,1-10.46,7.66c-.43.29-.87.55-1.3.83s-.86.57-1.3.84l-2.6,1.61A40.91,40.91,0,0,1,466,188c-.95.41-1.87.85-2.86,1.23s-2,.76-2.93,1.22-1.94.89-2.87,1.39-1.76,1.16-2.59,1.8c-.41.32-.83.64-1.21,1s-.72.75-1.07,1.15a27.08,27.08,0,0,0-2,2.41c-.57.88-1.09,1.79-1.58,2.71-.24.46-.5.91-.7,1.39l-.56,1.47-1.06,2.9-.43,1.46c-.16.47-.3,1-.43,1.43a43.43,43.43,0,0,0-1.35,5.43,18.7,18.7,0,0,0-.12,5,30.15,30.15,0,0,0,1,4.87c.45,1.74,1.08,3.68,1.66,5.93a25.86,25.86,0,0,1,1,7.46,16.52,16.52,0,0,1-2,7.46,18.06,18.06,0,0,1-4.58,5.45l-.87-.5a42.61,42.61,0,0,0,.49-6.32A16.31,16.31,0,0,0,440,239a39.29,39.29,0,0,0-2.24-4.94A45.91,45.91,0,0,1,435,228a22.05,22.05,0,0,1-1.24-7.74,24.66,24.66,0,0,1,1.47-7.71,28.5,28.5,0,0,1,7.84-11.82l1.19-1.23,1.26-1.14c.83-.77,1.63-1.54,2.39-2.35s1.61-1.5,2.36-2.31c.38-.39.76-.79,1.12-1.2s.77-.78,1.13-1.2c.74-.81,1.45-1.66,2.14-2.56s1.43-1.72,2.13-2.63c.35-.45.7-.92,1.07-1.35l1.13-1.29a27.77,27.77,0,0,1,2.41-2.44,33.7,33.7,0,0,1,2.69-2.07,30.26,30.26,0,0,1,2.94-1.65,32.46,32.46,0,0,1,3.06-1.41c1.05-.42,2.08-.84,3.17-1.16a36.62,36.62,0,0,1,6.59-1.5,25,25,0,0,1,6.91-.06Z"/>
  <path class="cls-1" d="M476.51,168.44a98.47,98.47,0,0,1-9.75,8.54l-1.23.94c-.41.32-.81.65-1.22,1l-2.45,1.84a40.9,40.9,0,0,1-5.1,3.37c-.91.49-1.79,1-2.74,1.47s-1.91.94-2.81,1.47-1.85,1.06-2.74,1.64a31.19,31.19,0,0,0-2.42,2c-.38.36-.77.71-1.12,1.1s-.65.82-1,1.24a30.14,30.14,0,0,0-1.78,2.57c-.49.93-.93,1.88-1.34,2.84-.2.48-.41.95-.58,1.45l-.42,1.51-.8,3-.31,1.49c-.12.49-.21,1-.3,1.46a43.48,43.48,0,0,0-.87,5.53,18.84,18.84,0,0,0,.31,5,31.85,31.85,0,0,0,1.39,4.77c.61,1.7,1.4,3.57,2.17,5.76a25.88,25.88,0,0,1,1.62,7.35,16.65,16.65,0,0,1-1.35,7.61,18.13,18.13,0,0,1-4.09,5.83l-.91-.43a42.62,42.62,0,0,0-.06-6.33,16.3,16.3,0,0,0-1.35-5.16,38.65,38.65,0,0,0-2.65-4.73,45.4,45.4,0,0,1-3.28-5.87,22.19,22.19,0,0,1-1.9-7.61,24.6,24.6,0,0,1,.79-7.81A28.51,28.51,0,0,1,435,198.76l1.08-1.33,1.16-1.25c.76-.83,1.49-1.67,2.17-2.54s1.48-1.64,2.15-2.51c.35-.42.69-.85,1-1.3s.7-.84,1-1.28c.66-.88,1.3-1.79,1.9-2.74s1.27-1.85,1.89-2.81c.32-.48.62-1,.95-1.44l1-1.38a25.35,25.35,0,0,1,2.19-2.64,32,32,0,0,1,2.5-2.3,27.82,27.82,0,0,1,2.78-1.9,32.54,32.54,0,0,1,2.93-1.67c1-.51,2-1,3.05-1.43a35.72,35.72,0,0,1,6.43-2.07,25.26,25.26,0,0,1,6.88-.67Z"/>
  <path class="cls-1" d="M465.51,163.73a97,97,0,0,1-9,9.36c-.37.36-.76.7-1.14,1s-.75.72-1.13,1.06l-2.28,2a41.73,41.73,0,0,1-4.78,3.8c-.87.57-1.7,1.17-2.61,1.71a31,31,0,0,0-2.67,1.71c-.88.59-1.75,1.21-2.59,1.87a29.19,29.19,0,0,0-2.23,2.22c-.35.39-.71.78-1,1.2s-.58.86-.86,1.31a30.21,30.21,0,0,0-1.54,2.72c-.4,1-.76,1.95-1.09,2.94-.15.5-.32,1-.45,1.5l-.29,1.54-.54,3-.17,1.51c-.08.5-.13,1-.17,1.48a44.33,44.33,0,0,0-.39,5.59,19.21,19.21,0,0,0,.74,4.93,31.5,31.5,0,0,0,1.81,4.63c.75,1.64,1.7,3.43,2.66,5.55a25.61,25.61,0,0,1,2.25,7.18,16.53,16.53,0,0,1-.68,7.7,18,18,0,0,1-3.57,6.16l-.94-.34a43.86,43.86,0,0,0-.61-6.31,16.38,16.38,0,0,0-1.79-5,39.41,39.41,0,0,0-3.06-4.48,45.36,45.36,0,0,1-3.77-5.56,21.9,21.9,0,0,1-2.56-7.42,24.48,24.48,0,0,1,.11-7.84,28.31,28.31,0,0,1,5.67-13l.95-1.42,1.05-1.34c.68-.9,1.33-1.8,1.94-2.73s1.33-1.76,1.93-2.68c.31-.45.6-.91.89-1.39s.62-.9.91-1.37c.59-.92,1.14-1.89,1.65-2.89s1.11-1.95,1.65-3c.27-.51.52-1,.81-1.52l.9-1.46a24.33,24.33,0,0,1,2-2.82,32,32,0,0,1,2.29-2.51,28.28,28.28,0,0,1,2.61-2.14,33.28,33.28,0,0,1,2.77-1.92c1-.59,1.9-1.19,2.91-1.69a37.14,37.14,0,0,1,6.23-2.62,24.59,24.59,0,0,1,6.8-1.26Z"/>
  <path class="cls-1" d="M454.14,160A98.28,98.28,0,0,1,446,170.1c-.35.39-.7.76-1,1.14s-.68.78-1,1.15l-2.1,2.23a41,41,0,0,1-4.43,4.21c-.81.64-1.59,1.31-2.45,1.92s-1.71,1.25-2.51,1.94-1.64,1.36-2.41,2.09a31.29,31.29,0,0,0-2,2.41c-.31.41-.63.83-.91,1.28s-.5.91-.73,1.38a27.09,27.09,0,0,0-1.3,2.85c-.32,1-.6,2-.83,3-.12.51-.24,1-.32,1.53l-.16,1.56-.27,3.07,0,1.53c0,.5,0,1,0,1.49a44.79,44.79,0,0,0,.1,5.6,18.82,18.82,0,0,0,1.17,4.85,31.56,31.56,0,0,0,2.2,4.45c.89,1.57,2,3.27,3.14,5.3a25.92,25.92,0,0,1,2.87,7,16.64,16.64,0,0,1,0,7.72,18.07,18.07,0,0,1-3,6.45l-1-.26a43.59,43.59,0,0,0-1.15-6.23,16.34,16.34,0,0,0-2.23-4.84,37.73,37.73,0,0,0-3.44-4.2,46.07,46.07,0,0,1-4.24-5.21,22.18,22.18,0,0,1-3.19-7.16,24.65,24.65,0,0,1-.58-7.83,28.38,28.38,0,0,1,4.52-13.44l.82-1.5.93-1.43c.6-.95,1.17-1.91,1.7-2.88s1.16-1.87,1.68-2.84c.27-.48.53-1,.77-1.46s.54-.95.79-1.44c.5-1,1-2,1.39-3s.94-2,1.38-3.1c.23-.52.44-1.06.68-1.58l.77-1.53a25.48,25.48,0,0,1,1.69-3,30.16,30.16,0,0,1,2.07-2.7,26.85,26.85,0,0,1,2.41-2.36,33.16,33.16,0,0,1,2.59-2.15,31.1,31.1,0,0,1,2.76-1.94,37,37,0,0,1,6-3.16,25.24,25.24,0,0,1,6.66-1.85Z"/>
  <path class="cls-1" d="M442.5,157.27A98.85,98.85,0,0,1,435.29,168c-.31.42-.63.82-.94,1.23s-.61.83-.93,1.23l-1.9,2.41a40.63,40.63,0,0,1-4,4.57c-.76.71-1.47,1.45-2.28,2.14s-1.59,1.39-2.33,2.15-1.51,1.49-2.22,2.29-1.25,1.69-1.82,2.57c-.27.45-.56.89-.79,1.36s-.42.95-.61,1.44a25.87,25.87,0,0,0-1.05,2.95c-.23,1-.41,2.05-.56,3.08-.07.52-.15,1-.18,1.55l0,1.57v3.09l.1,1.52c0,.5,0,1,.08,1.49a43,43,0,0,0,.59,5.57A19.35,19.35,0,0,0,418,215a31.06,31.06,0,0,0,2.58,4.24c1,1.48,2.27,3.09,3.59,5a26,26,0,0,1,3.46,6.68,16.66,16.66,0,0,1,.67,7.69,18.09,18.09,0,0,1-2.45,6.69l-1-.17a43.9,43.9,0,0,0-1.7-6.11,16.2,16.2,0,0,0-2.64-4.63,37.93,37.93,0,0,0-3.79-3.88,45.39,45.39,0,0,1-4.68-4.83,21.81,21.81,0,0,1-3.8-6.85,24.26,24.26,0,0,1-1.26-7.75,28.54,28.54,0,0,1,3.32-13.78l.7-1.56.8-1.51c.52-1,1-2,1.44-3s1-2,1.43-3c.22-.5.43-1,.63-1.52s.46-1,.66-1.5c.42-1,.8-2.06,1.13-3.14s.76-2.11,1.1-3.21c.18-.54.34-1.1.55-1.63l.62-1.6a28.27,28.27,0,0,1,1.43-3.11c.56-1,1.17-1.94,1.82-2.87a29.7,29.7,0,0,1,2.2-2.56,33.4,33.4,0,0,1,2.39-2.37c.84-.75,1.67-1.5,2.58-2.17a36.21,36.21,0,0,1,5.68-3.66,25,25,0,0,1,6.47-2.43Z"/>
  <path class="cls-1" d="M430.66,155.57a98.46,98.46,0,0,1-6.24,11.35c-.27.45-.56.88-.84,1.31s-.53.88-.81,1.31l-1.68,2.56a39.46,39.46,0,0,1-3.64,4.91c-.69.77-1.33,1.57-2.07,2.33s-1.47,1.53-2.14,2.34-1.38,1.63-2,2.48-1.1,1.79-1.59,2.72c-.24.47-.48.94-.67,1.42s-.34,1-.49,1.49a28.64,28.64,0,0,0-.78,3c-.14,1-.24,2.08-.29,3.12,0,.52-.06,1-.05,1.56l.12,1.57.26,3.07.23,1.51c0,.5.13,1,.22,1.47a43.23,43.23,0,0,0,1.07,5.5,19,19,0,0,0,2,4.57,30.67,30.67,0,0,0,2.94,4c1.15,1.39,2.54,2.88,4,4.68a25.36,25.36,0,0,1,4,6.35,16.45,16.45,0,0,1,1.34,7.61,18.09,18.09,0,0,1-1.85,6.88l-1-.09a44.6,44.6,0,0,0-2.22-5.94,16.43,16.43,0,0,0-3-4.38,40,40,0,0,0-4.12-3.53,46.24,46.24,0,0,1-5.08-4.4,22.21,22.21,0,0,1-4.39-6.5,24.79,24.79,0,0,1-1.93-7.61,28.5,28.5,0,0,1,2.11-14l.56-1.62.66-1.57c.43-1,.83-2.08,1.17-3.13s.83-2,1.17-3.09c.18-.52.35-1,.5-1.57s.37-1,.53-1.56c.32-1,.61-2.12.85-3.22s.56-2.17.81-3.29c.14-.56.25-1.13.4-1.68l.49-1.64a27.51,27.51,0,0,1,1.15-3.23,32.94,32.94,0,0,1,1.56-3,29.71,29.71,0,0,1,2-2.74,31.61,31.61,0,0,1,2.18-2.58,33.4,33.4,0,0,1,2.38-2.38,36.67,36.67,0,0,1,5.34-4.15,25.06,25.06,0,0,1,6.23-3Z"/>
  <circle class="cls-1" cx="417.55" cy="292.02" r="41.11"/>
  <path class="cls-1" d="M699.1,291.23a90.5,90.5,0,0,1-2.7,21.86,102,102,0,0,1-7.55,20.72,130.77,130.77,0,0,1-11.43,18.91,168.11,168.11,0,0,1-14.28,16.92,195.09,195.09,0,0,1-16.3,15.05c-5.69,4.74-11.63,9.18-17.76,13.36a290,290,0,0,1-38.65,22,350.67,350.67,0,0,1-84.6,27.13,425.62,425.62,0,0,1-88.44,7.19,463.62,463.62,0,0,1-87.86-10.48,449.72,449.72,0,0,1-84-26.75,319.58,319.58,0,0,1-39.16-20.26,219.8,219.8,0,0,1-35.35-26.65c-10.78-10.18-20.48-21.79-27.71-35.11A106.13,106.13,0,0,1,134.73,314a93.84,93.84,0,0,1-3.53-22.78A98.28,98.28,0,0,1,141,246.15a128.1,128.1,0,0,1,11.86-19.85,160.63,160.63,0,0,1,14.93-17.43,178.33,178.33,0,0,1,17-15.18,220,220,0,0,1,18.5-13.1,291.71,291.71,0,0,1,39.81-21,397.08,397.08,0,0,1,85.52-25.89,467.81,467.81,0,0,1,88.73-7.94q11.13.11,22.27.62c7.41.36,14.82.93,22.22,1.65A443,443,0,0,1,506,134.45a360,360,0,0,1,84.57,27.71,291.14,291.14,0,0,1,38.65,22.09c6.13,4.18,12.07,8.63,17.76,13.38a195.33,195.33,0,0,1,16.3,15.07,166.06,166.06,0,0,1,14.28,17A130.71,130.71,0,0,1,689,248.59a102.42,102.42,0,0,1,7.51,20.76A91.16,91.16,0,0,1,699.1,291.23Zm-2,0a86.6,86.6,0,0,0-2.84-21.32,93.35,93.35,0,0,0-7.92-20c-6.79-12.67-16.18-23.79-26.84-33.35A190.27,190.27,0,0,0,624.38,192a279.58,279.58,0,0,0-39-17.63A380.19,380.19,0,0,0,544.45,162c-6.92-1.71-13.87-3.29-20.86-4.67s-14-2.64-21-3.77-14.09-2.08-21.17-2.91-14.16-1.53-21.27-2.05-14.23-.88-21.35-1.16-14.25-.33-21.37-.3a524.76,524.76,0,0,0-85,7.2c-28,4.78-55.66,12-81.86,22.68a279.61,279.61,0,0,0-37.85,18.71A207.84,207.84,0,0,0,179,220.41a129,129,0,0,0-25.75,32,83.48,83.48,0,0,0-2.32,78.92,117,117,0,0,0,10.87,18.05,145.6,145.6,0,0,0,14,16.07,166.88,166.88,0,0,0,16.15,14.1,206.22,206.22,0,0,0,17.7,12.25,256.82,256.82,0,0,0,38.5,19.46C274.78,422.12,303,429,331.48,433s57.28,5.26,85.91,4.66a595.16,595.16,0,0,0,85.31-8c28.12-4.77,56-11.5,82.77-21.44a280.43,280.43,0,0,0,39-17.71A190.52,190.52,0,0,0,659.62,366a123.71,123.71,0,0,0,26.83-33.41,94.2,94.2,0,0,0,7.88-20A86.81,86.81,0,0,0,697.1,291.23Z"/>
  <path class="cls-1" d="M178.69,209.06a35.67,35.67,0,0,1,8.54.6,49.45,49.45,0,0,1,8.2,2.23,50.77,50.77,0,0,1,7.77,3.55,32.23,32.23,0,0,1,7,5.06,39.48,39.48,0,0,1,5.53,6.82c1.6,2.45,3,5,4.38,7.47a65.21,65.21,0,0,1,3.6,7.76c.22.68.48,1.36.71,2s.4,1.4.62,2.1a16.05,16.05,0,0,0,.64,1.84l.31.83c.12.27.29.51.43.76a13.07,13.07,0,0,0,4.46,4.61,23.9,23.9,0,0,0,6,2.72c4.44,1.33,9.44,1.64,14.48,2.07s10.3.69,15.62.94,10.76.48,16.37,1l.22,1a62.21,62.21,0,0,1-15.84,5.85,75.08,75.08,0,0,1-8.35,1.45,59.44,59.44,0,0,1-8.57.41,44.34,44.34,0,0,1-17.39-3.95,23.94,23.94,0,0,1-7.94-5.54,17.48,17.48,0,0,1-4.28-8.89c-.07-.39-.16-.78-.2-1.17l-.06-1.18c0-.77-.09-1.6-.09-2.17s0-1.27-.07-1.91-.19-1.26-.31-1.89a19.41,19.41,0,0,0-3.11-7,21.61,21.61,0,0,0-5.64-5.35c-2.13-1.49-4.42-2.71-6.61-4s-4.36-2.61-6.49-4l-6.58-4.16c-4.45-2.8-9-5.56-13.62-8.88Z"/>
  <path class="cls-1" d="M171.09,370.39A16.15,16.15,0,0,1,163,363a16.83,16.83,0,0,1-1.82-5.71,18.53,18.53,0,0,1,.24-6,26.87,26.87,0,0,1,4.75-10.47,34.35,34.35,0,0,1,7.6-7.71c.71-.52,1.45-1,2.17-1.52s1.5-.91,2.26-1.34,1.55-.86,2.34-1.27,1.56-.83,2.4-1.17a80.94,80.94,0,0,1,9.87-3.63,94.87,94.87,0,0,1,20.38-3.54,122.71,122.71,0,0,1,20.25.3c6.56.42,13,.61,19.31.73s12.69.06,19.15-.36l4.85-.37c1.62-.18,3.26-.29,4.91-.45s3.3-.33,5-.52,3.34-.38,5.06-.49l.34.95a75.34,75.34,0,0,1-39.25,11.92,99.45,99.45,0,0,1-20.49-2c-3.33-.6-6.6-1.21-9.81-2-1.62-.37-3.21-.74-4.81-1.15s-3.19-.76-4.78-1.07a41.29,41.29,0,0,0-9.64-.91,26.75,26.75,0,0,0-9.35,2,27.43,27.43,0,0,0-8,5.22c-.6.51-1.14,1.12-1.71,1.67s-1.12,1.1-1.66,1.71-1.09,1.18-1.64,1.76-1.05,1.19-1.6,1.76c-2.1,2.32-4.17,4.55-6,6.82a28,28,0,0,0-4.35,7.15,14.55,14.55,0,0,0-.91,7.87,20.75,20.75,0,0,0,3.65,8.42Z"/>
  <path class="cls-1" d="M279.84,427.11c-.46-3.92-.66-7.32-.9-10.63l-.37-4.84a30.51,30.51,0,0,1-.22-4.79c.06-.82,0-1.63.11-2.49l.08-1.29c0-.43,0-.85,0-1.29a14.21,14.21,0,0,0-.19-2.61,19.82,19.82,0,0,0-.65-2.52,13.18,13.18,0,0,0-1.17-2.31c-.22-.37-.44-.74-.69-1.1s-.54-.84-.82-1.26a8.3,8.3,0,0,1-.79-1.37,7.16,7.16,0,0,1-.68-1.51,9.68,9.68,0,0,1-.65-3.57,11.84,11.84,0,0,1,2.5-7,20.67,20.67,0,0,1,4.88-4.4,34.62,34.62,0,0,1,10.75-5,38.61,38.61,0,0,1,5.61-1,46.39,46.39,0,0,1,5.65-.29,36.85,36.85,0,0,1,11.36,1.76l.09,1a72.46,72.46,0,0,1-10,5c-3.28,1.4-6.52,2.64-9.68,3.78s-6.37,1.88-9.21,3a36.21,36.21,0,0,0-3.84,1.88,8.08,8.08,0,0,0-2.78,2.23,4.42,4.42,0,0,0-.26,4c.15.36.29.72.47,1.1s.42.83.65,1.24c.42.83,1,1.6,1.44,2.41s1,1.6,1.56,2.39,1.06,1.63,1.65,2.45c.27.42.57.83.83,1.27l.73,1.32a14.62,14.62,0,0,1,1.23,2.78,16.23,16.23,0,0,1,.9,5.93,29.83,29.83,0,0,1-.21,3,26.55,26.55,0,0,1-.56,2.93,23,23,0,0,1-2.16,5.53,16.37,16.37,0,0,1-3.78,4.72Z"/>
  <path class="cls-1" d="M308.83,224.34a18.72,18.72,0,0,1-6.51.52,25.83,25.83,0,0,1-6.32-1.3,26.84,26.84,0,0,1-5.91-2.8,18.06,18.06,0,0,1-5-4.41,23.35,23.35,0,0,1-3.2-5.91c-.82-2.07-1.41-4.14-2.09-6.11-1.33-4-2.67-7.82-3.79-12l-.41-1.58c-.13-.53-.26-.92-.38-1.37s-.24-.88-.38-1.3-.31-.83-.43-1.23c-.23-.84-.62-1.55-.86-2.32a17.16,17.16,0,0,0-1-2,12.82,12.82,0,0,0-6-5,27.73,27.73,0,0,0-4.29-1.57,50.46,50.46,0,0,0-5.11-1.07c-3.61-.57-7.49-.9-11.67-1.39l-.32-1a24.5,24.5,0,0,1,5.46-3.45,29.65,29.65,0,0,1,6.14-2.1,27,27,0,0,1,6.72-.68,21.52,21.52,0,0,1,7.15,1.33,17.54,17.54,0,0,1,6.55,4.35,18.53,18.53,0,0,1,4,6.71,23.82,23.82,0,0,1,1,3.56c.09.59.15,1.18.2,1.77l.07.87,0,.86c0,.58,0,1.15-.08,1.71s-.16,1.11-.24,1.66-.18,1.14-.28,1.59l-.3,1.38a22.12,22.12,0,0,0-.41,2.81,19,19,0,0,0,0,2.82c.07.47.14.93.23,1.39a9.14,9.14,0,0,0,.34,1.37c.14.45.28.9.45,1.33s.4.85.62,1.27a14,14,0,0,0,3.66,4.22c1.46,1.17,3,2.12,4.48,3.08a49,49,0,0,1,4.2,3.06c1.39,1.06,2.83,2.1,4.32,3.15,3,2.12,6.15,4.2,9.55,6.79Z"/>
  <path class="cls-1" d="M380.78,411.79a11.81,11.81,0,0,1-.08,3.14,10.69,10.69,0,0,1-.65,2.45,9.61,9.61,0,0,1-1,2,4.08,4.08,0,0,1-1.63,1.5c-1.43.71-3.61.91-4.74,2a5.18,5.18,0,0,0-1.44,4.34c0,.43.07.86.08,1.27s.07.82.06,1.2a18.91,18.91,0,0,1-.16,2.1,20,20,0,0,1-.37,3.51,22,22,0,0,1-1.32,2.9,16,16,0,0,0-1.39,4.69l-.76.65A7.15,7.15,0,0,1,361.8,440a10.57,10.57,0,0,1-1.56-6.32,9.49,9.49,0,0,1,.74-2.93,18.16,18.16,0,0,1,1.42-2.48,10.83,10.83,0,0,1,1.72-2.15,14.72,14.72,0,0,1,2.33-1.63A7.63,7.63,0,0,0,370,421c.67-1.46.37-3.71.9-5.4a4.61,4.61,0,0,1,1.36-2.07,9.83,9.83,0,0,1,4.6-2.36,9.16,9.16,0,0,1,3.23-.13Z"/>
  <path class="cls-1" d="M359.3,181.08a16.84,16.84,0,0,1-3.1-2.34,18.93,18.93,0,0,1-2.25-2.56,18.61,18.61,0,0,1-1.71-2.71,8,8,0,0,1-1-3c-.28-2.17.24-4.8-.51-6.84a9.8,9.8,0,0,0-4.2-4.89c-1-.61-1.94-1.19-2.81-1.79s-1.63-1.26-2.39-1.88c-1.54-1.25-3.12-2.2-4.34-3.34s-2.32-2.31-3.6-3.45a21.49,21.49,0,0,0-5.29-3.43l-.24-1a9.57,9.57,0,0,1,7.65-3.21,14.91,14.91,0,0,1,7.94,2.54,17.67,17.67,0,0,1,5.06,5.71,17.27,17.27,0,0,1,1.68,3.25,23.1,23.1,0,0,1,.92,3.57,14.5,14.5,0,0,0,2.45,6.38c1.31,1.8,3.74,3.1,5.27,4.9a8.09,8.09,0,0,1,1.62,3,17,17,0,0,1,.75,3.34,15.26,15.26,0,0,1,0,3.58,12.17,12.17,0,0,1-1,3.85Z"/>
  <path class="cls-1" d="M655.11,210c-4.61,3.32-9.17,6.08-13.63,8.88l-6.57,4.16c-2.13,1.43-4.28,2.77-6.49,4s-4.48,2.53-6.62,4a21.72,21.72,0,0,0-5.63,5.35,19.6,19.6,0,0,0-3.12,7c-.12.63-.19,1.27-.3,1.89s-.06,1.28-.08,1.91,0,1.4-.08,2.17l-.06,1.18c0,.39-.13.78-.2,1.17a17.64,17.64,0,0,1-4.28,8.89,23.94,23.94,0,0,1-7.94,5.54,44.34,44.34,0,0,1-17.39,3.95,59.44,59.44,0,0,1-8.57-.41,74.68,74.68,0,0,1-8.35-1.45A62.07,62.07,0,0,1,550,262.49l.21-1c5.62-.56,11-.78,16.37-1s10.56-.52,15.63-.94,10-.74,14.48-2.07a23.67,23.67,0,0,0,6-2.72,13.1,13.1,0,0,0,4.47-4.61c.14-.25.3-.49.42-.76l.32-.83a16.05,16.05,0,0,0,.64-1.84c.22-.7.38-1.41.61-2.1s.5-1.37.72-2a65.21,65.21,0,0,1,3.6-7.76c1.33-2.52,2.78-5,4.38-7.47a39.48,39.48,0,0,1,5.53-6.82,32,32,0,0,1,7-5.06,50.77,50.77,0,0,1,7.77-3.55,49.61,49.61,0,0,1,8.19-2.23,35.75,35.75,0,0,1,8.55-.6Z"/>
  <path class="cls-1" d="M658.87,369.57a20.64,20.64,0,0,0,3.66-8.42,14.55,14.55,0,0,0-.91-7.87,28,28,0,0,0-4.35-7.15c-1.86-2.27-3.93-4.5-6-6.82-.54-.57-1.06-1.17-1.59-1.76s-1.11-1.15-1.65-1.76-1.09-1.16-1.65-1.71-1.11-1.16-1.71-1.67a27.57,27.57,0,0,0-8-5.22,26.75,26.75,0,0,0-9.35-2,41.29,41.29,0,0,0-9.64.91c-1.6.31-3.19.71-4.78,1.07s-3.19.78-4.81,1.15c-3.22.78-6.49,1.39-9.82,2a99.29,99.29,0,0,1-20.48,2c-13.93-.39-27.8-4.35-39.25-11.92l.34-.95c1.72.11,3.4.3,5.06.49s3.33.31,5,.52,3.29.27,4.91.45l4.85.37c6.45.42,12.8.51,19.15.36s12.74-.31,19.31-.73a122.71,122.71,0,0,1,20.25-.3,94.68,94.68,0,0,1,20.37,3.54,81.08,81.08,0,0,1,9.88,3.63c.83.34,1.59.78,2.4,1.17s1.6.82,2.34,1.27,1.5.89,2.26,1.34,1.46,1,2.17,1.52a34.1,34.1,0,0,1,7.59,7.71,26.74,26.74,0,0,1,4.76,10.47,18.81,18.81,0,0,1,.24,6,17.06,17.06,0,0,1-1.82,5.71,16.15,16.15,0,0,1-8.11,7.38Z"/>
  <path class="cls-1" d="M552.79,427.53a16.37,16.37,0,0,1-3.78-4.72,22.61,22.61,0,0,1-2.16-5.53,29.14,29.14,0,0,1-.57-2.93c-.12-1-.17-2-.2-3a16.44,16.44,0,0,1,.89-5.93,15.33,15.33,0,0,1,1.24-2.78l.73-1.32c.26-.44.56-.85.83-1.27.59-.82,1.06-1.66,1.65-2.45s1.09-1.58,1.56-2.39,1-1.58,1.44-2.41c.23-.41.45-.82.65-1.24s.32-.74.47-1.1a4.45,4.45,0,0,0-.27-4,8,8,0,0,0-2.77-2.23,36.21,36.21,0,0,0-3.84-1.88c-2.84-1.15-6.06-1.91-9.21-3s-6.4-2.38-9.68-3.78a72.56,72.56,0,0,1-10-5l.1-1a36.85,36.85,0,0,1,11.36-1.76,46.49,46.49,0,0,1,5.65.29,38.61,38.61,0,0,1,5.61,1,34.62,34.62,0,0,1,10.75,5,20.44,20.44,0,0,1,4.87,4.4,11.78,11.78,0,0,1,2.51,7,9.89,9.89,0,0,1-.65,3.57,8.33,8.33,0,0,1-.68,1.51,9.08,9.08,0,0,1-.79,1.37c-.28.42-.57.85-.83,1.26s-.46.73-.68,1.1a13.18,13.18,0,0,0-1.17,2.31,21.7,21.7,0,0,0-.66,2.52,16.21,16.21,0,0,0-.19,2.61c0,.44,0,.86,0,1.29l.08,1.29c.06.86,0,1.67.11,2.49a30.51,30.51,0,0,1-.22,4.79l-.38,4.84c-.24,3.31-.43,6.71-.89,10.63Z"/>
  <path class="cls-1" d="M524.55,223.36c3.41-2.59,6.57-4.67,9.56-6.79,1.48-1,2.93-2.09,4.31-3.15a50.78,50.78,0,0,1,4.21-3.06c1.46-1,3-1.91,4.47-3.08a14.13,14.13,0,0,0,3.67-4.22c.22-.42.42-.84.61-1.27a12.23,12.23,0,0,0,.45-1.33,8.1,8.1,0,0,0,.35-1.37c.09-.46.16-.92.22-1.39a17.71,17.71,0,0,0,.05-2.82,24.08,24.08,0,0,0-.41-2.81l-.3-1.38c-.1-.45-.19-1.06-.28-1.59s-.19-1.1-.25-1.66-.06-1.13-.07-1.71l0-.86.07-.87c0-.59.11-1.18.2-1.77a22.67,22.67,0,0,1,1-3.56,18.64,18.64,0,0,1,4-6.71,17.65,17.65,0,0,1,6.56-4.35,21.52,21.52,0,0,1,7.15-1.33,27,27,0,0,1,6.72.68,29.85,29.85,0,0,1,6.14,2.1,24.73,24.73,0,0,1,5.46,3.45l-.32,1c-4.18.49-8.07.82-11.68,1.39a50.83,50.83,0,0,0-5.1,1.07,27.36,27.36,0,0,0-4.29,1.57,12.82,12.82,0,0,0-6,5,18.88,18.88,0,0,0-1,2c-.23.77-.62,1.48-.85,2.32-.12.4-.28.81-.43,1.23s-.25.86-.38,1.3-.25.84-.39,1.37l-.4,1.58c-1.12,4.2-2.46,8.07-3.79,12-.68,2-1.27,4-2.09,6.11a23.35,23.35,0,0,1-3.2,5.91,18.06,18.06,0,0,1-5,4.41,26.84,26.84,0,0,1-5.91,2.8,26,26,0,0,1-6.32,1.3,18.72,18.72,0,0,1-6.51-.52Z"/>
  <path class="cls-1" d="M453.44,411.06a9.16,9.16,0,0,1,3.23.13,9.32,9.32,0,0,1,2.54.92,9.19,9.19,0,0,1,2.05,1.44,4.55,4.55,0,0,1,1.37,2.07c.53,1.69.23,3.94.9,5.4a7.58,7.58,0,0,0,3.56,3.49,15.19,15.19,0,0,1,2.33,1.63,10.83,10.83,0,0,1,1.72,2.15,19.27,19.27,0,0,1,1.42,2.48,9.78,9.78,0,0,1,.74,2.93,10.57,10.57,0,0,1-1.56,6.32,7.15,7.15,0,0,1-5.54,3.52l-.76-.65a16,16,0,0,0-1.39-4.69,22,22,0,0,1-1.32-2.9,20,20,0,0,1-.37-3.51c-.05-.66-.18-1.33-.17-2.1,0-.38,0-.78.07-1.2s.05-.84.08-1.27a5.18,5.18,0,0,0-1.44-4.34c-1.13-1.07-3.32-1.27-4.74-2a4.08,4.08,0,0,1-1.63-1.5,9.63,9.63,0,0,1-1-2,11.22,11.22,0,0,1-.65-2.45,12.29,12.29,0,0,1-.07-3.14Z"/>
  <path class="cls-1" d="M467.29,180.78a12.47,12.47,0,0,1-1-3.85,15.82,15.82,0,0,1,0-3.58,17,17,0,0,1,.75-3.34,8.11,8.11,0,0,1,1.63-3c1.53-1.8,4-3.1,5.27-4.9a14.37,14.37,0,0,0,2.44-6.38,24.32,24.32,0,0,1,.93-3.57,22.53,22.53,0,0,1,6.74-9,14.91,14.91,0,0,1,7.94-2.54,9.57,9.57,0,0,1,7.65,3.21l-.24,1a21.29,21.29,0,0,0-5.29,3.43c-1.28,1.14-2.35,2.3-3.6,3.45s-2.8,2.09-4.34,3.34c-.77.62-1.52,1.27-2.39,1.88s-1.85,1.18-2.81,1.79a9.75,9.75,0,0,0-4.2,4.89c-.75,2-.23,4.67-.51,6.84a8,8,0,0,1-1,3,18.61,18.61,0,0,1-1.71,2.71,19.65,19.65,0,0,1-2.25,2.56,16.84,16.84,0,0,1-3.1,2.34Z"/>
</svg>
