<svg id="Calque_1" data-name="Calque 1" xmlns="http://www.w3.org/2000/svg" width="29.7cm" height="21cm" viewBox="0 0 841.89 595.28">
  <defs>
    <style>
      .cls-1 {
        fill: #fff;
        stroke: #fff;
        stroke-miterlimit: 10;
      }
    </style>
  </defs>
  <title>Plan de travail 1</title>
  <metadata><?xpacket begin="﻿" id="W5M0MpCehiHzreSzNTczkc9d"?>
<x:xmpmeta xmlns:x="adobe:ns:meta/" x:xmptk="Adobe XMP Core 5.6-c137 79.159547, 2016/07/07-11:39:24        ">
   <rdf:RDF xmlns:rdf="http://www.w3.org/1999/02/22-rdf-syntax-ns#">
      <rdf:Description rdf:about=""
            xmlns:dc="http://purl.org/dc/elements/1.1/"
            xmlns:xmpMM="http://ns.adobe.com/xap/1.0/mm/"
            xmlns:stEvt="http://ns.adobe.com/xap/1.0/sType/ResourceEvent#"
            xmlns:xmp="http://ns.adobe.com/xap/1.0/">
         <dc:title>
            <rdf:Alt>
               <rdf:li xml:lang="x-default">Plan de travail 1</rdf:li>
            </rdf:Alt>
         </dc:title>
         <xmpMM:PreservedFileName>24.svg</xmpMM:PreservedFileName>
         <xmpMM:InstanceID>xmp.iid:80290950-f245-4967-a4c6-335b0e5af088</xmpMM:InstanceID>
         <xmpMM:DocumentID>xmp.did:80290950-f245-4967-a4c6-335b0e5af088</xmpMM:DocumentID>
         <xmpMM:OriginalDocumentID>xmp.did:80290950-f245-4967-a4c6-335b0e5af088</xmpMM:OriginalDocumentID>
         <xmpMM:History>
            <rdf:Seq>
               <rdf:li>
                  <rdf:Description>
                     <stEvt:action>saved</stEvt:action>
                     <stEvt:instanceID>xmp.iid:80290950-f245-4967-a4c6-335b0e5af088</stEvt:instanceID>
                     <stEvt:when>2018-09-27T10:33:59+02:00</stEvt:when>
                     <stEvt:softwareAgent>Adobe Bridge CC 2017 (Macintosh)</stEvt:softwareAgent>
                     <stEvt:changed>/metadata</stEvt:changed>
                  </rdf:Description>
               </rdf:li>
            </rdf:Seq>
         </xmpMM:History>
         <xmp:MetadataDate>2018-09-27T10:33:59+02:00</xmp:MetadataDate>
      </rdf:Description>
   </rdf:RDF>
</x:xmpmeta>
                                                                                                    
                                                                                                    
                                                                                                    
                                                                                                    
                                                                                                    
                                                                                                    
                                                                                                    
                                                                                                    
                                                                                                    
                                                                                                    
                                                                                                    
                                                                                                    
                                                                                                    
                                                                                                    
                                                                                                    
                                                                                                    
                                                                                                    
                                                                                                    
                                                                                                    
                                                                                                    
                           
<?xpacket end="w"?></metadata>
<circle class="cls-1" cx="414.01" cy="299.88" r="24.15"/>
  <path class="cls-1" d="M414,352.08a52.21,52.21,0,1,1,52.21-52.2A52.27,52.27,0,0,1,414,352.08Zm0-89.41a37.21,37.21,0,1,0,37.21,37.21A37.25,37.25,0,0,0,414,262.67Z"/>
  <path class="cls-1" d="M414,380.17a80.3,80.3,0,1,1,80.3-80.29A80.39,80.39,0,0,1,414,380.17Zm0-145.59a65.3,65.3,0,1,0,65.3,65.3A65.38,65.38,0,0,0,414,234.58Z"/>
  <path class="cls-1" d="M414,407A107.08,107.08,0,1,1,521.08,299.88,107.19,107.19,0,0,1,414,407Zm0-199.15a92.08,92.08,0,1,0,92.07,92.08A92.18,92.18,0,0,0,414,207.8Z"/>
  <path class="cls-1" d="M414,434.33c-74.14,0-134.45-60.32-134.45-134.45S339.87,165.42,414,165.42s134.45,60.32,134.45,134.46S488.15,434.33,414,434.33Zm0-253.91A119.46,119.46,0,1,0,533.46,299.88,119.59,119.59,0,0,0,414,180.42Z"/>
  <path class="cls-1" d="M414,461.29c-89,0-161.42-72.41-161.42-161.41S325,138.46,414,138.46s161.42,72.41,161.42,161.42S503,461.29,414,461.29Zm0-307.83c-80.73,0-146.42,65.68-146.42,146.42S333.28,446.29,414,446.29s146.42-65.68,146.42-146.41S494.74,153.46,414,153.46Z"/>
  <path class="cls-1" d="M414,486.88c-103.12,0-187-83.89-187-187s83.89-187,187-187,187,83.89,187,187S517.12,486.88,414,486.88Zm0-359c-94.84,0-172,77.16-172,172s77.17,172,172,172,172-77.16,172-172S508.85,127.87,414,127.87Z"/>
  <path class="cls-1" d="M414,513.91a214,214,0,1,1,151.34-62.69A212.64,212.64,0,0,1,414,513.91Zm0-413.07c-109.75,0-199,89.29-199,199s89.28,199,199,199,199-89.29,199-199S523.76,100.84,414,100.84Z"/>
</svg>
