<svg id="Calque_1" data-name="Calque 1" xmlns="http://www.w3.org/2000/svg" width="29.7cm" height="21cm" viewBox="0 0 841.89 595.28">
  <defs>
    <style>
      .cls-1 {
        fill: #fff;
      }
    </style>
  </defs>
  <title>Plan de travail 2</title>
  <metadata><?xpacket begin="﻿" id="W5M0MpCehiHzreSzNTczkc9d"?>
<x:xmpmeta xmlns:x="adobe:ns:meta/" x:xmptk="Adobe XMP Core 5.6-c137 79.159547, 2016/07/07-11:39:24        ">
   <rdf:RDF xmlns:rdf="http://www.w3.org/1999/02/22-rdf-syntax-ns#">
      <rdf:Description rdf:about=""
            xmlns:dc="http://purl.org/dc/elements/1.1/"
            xmlns:xmpMM="http://ns.adobe.com/xap/1.0/mm/"
            xmlns:stEvt="http://ns.adobe.com/xap/1.0/sType/ResourceEvent#"
            xmlns:xmp="http://ns.adobe.com/xap/1.0/">
         <dc:title>
            <rdf:Alt>
               <rdf:li xml:lang="x-default">Plan de travail 2</rdf:li>
            </rdf:Alt>
         </dc:title>
         <xmpMM:PreservedFileName>25.svg</xmpMM:PreservedFileName>
         <xmpMM:InstanceID>xmp.iid:7b7351d1-d91d-48f9-97d4-6b6ba0dba5c2</xmpMM:InstanceID>
         <xmpMM:DocumentID>xmp.did:7b7351d1-d91d-48f9-97d4-6b6ba0dba5c2</xmpMM:DocumentID>
         <xmpMM:OriginalDocumentID>xmp.did:7b7351d1-d91d-48f9-97d4-6b6ba0dba5c2</xmpMM:OriginalDocumentID>
         <xmpMM:History>
            <rdf:Seq>
               <rdf:li>
                  <rdf:Description>
                     <stEvt:action>saved</stEvt:action>
                     <stEvt:instanceID>xmp.iid:7b7351d1-d91d-48f9-97d4-6b6ba0dba5c2</stEvt:instanceID>
                     <stEvt:when>2018-09-27T10:33:59+02:00</stEvt:when>
                     <stEvt:softwareAgent>Adobe Bridge CC 2017 (Macintosh)</stEvt:softwareAgent>
                     <stEvt:changed>/metadata</stEvt:changed>
                  </rdf:Description>
               </rdf:li>
            </rdf:Seq>
         </xmpMM:History>
         <xmp:MetadataDate>2018-09-27T10:33:59+02:00</xmp:MetadataDate>
      </rdf:Description>
   </rdf:RDF>
</x:xmpmeta>
                                                                                                    
                                                                                                    
                                                                                                    
                                                                                                    
                                                                                                    
                                                                                                    
                                                                                                    
                                                                                                    
                                                                                                    
                                                                                                    
                                                                                                    
                                                                                                    
                                                                                                    
                                                                                                    
                                                                                                    
                                                                                                    
                                                                                                    
                                                                                                    
                                                                                                    
                                                                                                    
                           
<?xpacket end="w"?></metadata>
<path class="cls-1" d="M164.6,293.33a77.74,77.74,0,0,1,18.54-50.42,78.63,78.63,0,0,1,22.07-18,76.3,76.3,0,0,1,28.35-9.06,77.81,77.81,0,0,1,31,2.74,76.74,76.74,0,0,1,28.2,15.6,78.22,78.22,0,0,1,19.72,26.49c.54,1.29,1.13,2.56,1.62,3.87s1,2.62,1.44,4,.87,2.67,1.24,4,.69,2.72,1,4.1a84,84,0,0,1,1.79,16.72,87,87,0,0,1-1.8,16.72,81.58,81.58,0,0,1-5.3,15.95,78,78,0,0,1-19.74,26.45A77,77,0,0,1,264.5,368a77.8,77.8,0,0,1-30.94,2.75,76.47,76.47,0,0,1-28.33-9,78.82,78.82,0,0,1-22.07-18A77.62,77.62,0,0,1,164.6,293.33Zm2,0a66.53,66.53,0,0,0,113.79,46.83A66.45,66.45,0,1,0,166.6,293.33Z"/>
  <path class="cls-1" d="M215.59,293.33a86.22,86.22,0,0,1,1.48-16.65,91.59,91.59,0,0,1,4.44-16.19,94.86,94.86,0,0,1,44.72-50.62,92.64,92.64,0,0,1,34.57-10.29,93.91,93.91,0,0,1,37.2,4,92.83,92.83,0,0,1,33.46,19.13,94,94,0,0,1,23.25,31.75c.64,1.54,1.33,3.06,1.91,4.62s1.18,3.12,1.69,4.71,1,3.18,1.45,4.8.81,3.24,1.15,4.88a101.7,101.7,0,0,1,2.1,19.89,103.11,103.11,0,0,1-2.12,19.89,96.9,96.9,0,0,1-6.22,19A93,93,0,0,1,300.8,387a92.74,92.74,0,0,1-34.55-10.26,95.12,95.12,0,0,1-27.33-21.52,94.3,94.3,0,0,1-17.4-29A91.62,91.62,0,0,1,217.07,310,86.25,86.25,0,0,1,215.59,293.33Zm2,0a82.76,82.76,0,0,0,159.3,31.52,82.73,82.73,0,1,0-159.3-31.52Z"/>
  <path class="cls-1" d="M281.56,293.33a108.34,108.34,0,0,1,1.9-20.94,113.41,113.41,0,0,1,5.69-20.3,116.68,116.68,0,0,1,56.6-62.5,114.66,114.66,0,0,1,43-12,116.12,116.12,0,0,1,45.59,5.64A115.54,115.54,0,0,1,502.9,246c.77,1.87,1.6,3.72,2.3,5.62s1.42,3.81,2,5.74,1.22,3.87,1.74,5.84,1,3.94,1.38,5.93a116.77,116.77,0,0,1,0,48.35,119,119,0,0,1-7.47,23.11A114.94,114.94,0,0,1,388.72,409a114.76,114.76,0,0,1-43-11.93,117.09,117.09,0,0,1-34.46-26.28,120.38,120.38,0,0,1-12.78-17.14,117.47,117.47,0,0,1-9.37-19,113.2,113.2,0,0,1-5.7-20.3A108.19,108.19,0,0,1,281.56,293.33Zm2,0a104.71,104.71,0,0,0,201.52,39.92,104.64,104.64,0,0,0-170.54-114.1,104.92,104.92,0,0,0-31,74.18Z"/>
  <path class="cls-1" d="M352.46,293.33a146.19,146.19,0,0,1,2.61-28.3,151.4,151.4,0,0,1,7.84-27.38,154.44,154.44,0,0,1,30.33-48.42A160.05,160.05,0,0,1,414.8,169.8a148.54,148.54,0,0,1,25.12-15.08,152.92,152.92,0,0,1,57.42-14.82,153.47,153.47,0,0,1,60,8.53,157.21,157.21,0,0,1,27.91,13.31,148.53,148.53,0,0,1,24.92,18.74,153.65,153.65,0,0,1,36.18,51.11c1,2.45,2.07,4.87,3,7.35s1.83,5,2.61,7.5,1.57,5.05,2.23,7.62,1.27,5.14,1.78,7.74a160.74,160.74,0,0,1,3.25,31.53A163.88,163.88,0,0,1,656,324.87a156.27,156.27,0,0,1-9.62,30.19,154,154,0,0,1-36.2,51.07l-5.86,5.19c-2,1.62-4.07,3.25-6.14,4.83s-4.21,3-6.36,4.51-4.34,2.84-6.55,4.18a157.12,157.12,0,0,1-27.9,13.31,153.63,153.63,0,0,1-89.56,3.9A156.43,156.43,0,0,1,440,431.9a149.23,149.23,0,0,1-25.13-15.07,161.2,161.2,0,0,1-21.56-19.41,158,158,0,0,1-17.48-22.86A155.51,155.51,0,0,1,362.92,349a151.2,151.2,0,0,1-7.85-27.38A146.84,146.84,0,0,1,352.46,293.33Zm2,0a142.47,142.47,0,1,0,11-54.63A143,143,0,0,0,354.46,293.33Z"/>
</svg>
