<svg xmlns="http://www.w3.org/2000/svg" width="29.7cm" height="21cm" viewBox="0 0 841.89 595.28">
  <defs>
    <style>
      .cls-1 {
        fill: #fff;
      }
    </style>
  </defs>
  <title>Plan de travail 3</title>
  <metadata><?xpacket begin="﻿" id="W5M0MpCehiHzreSzNTczkc9d"?>
<x:xmpmeta xmlns:x="adobe:ns:meta/" x:xmptk="Adobe XMP Core 5.6-c137 79.159547, 2016/07/07-11:39:24        ">
   <rdf:RDF xmlns:rdf="http://www.w3.org/1999/02/22-rdf-syntax-ns#">
      <rdf:Description rdf:about=""
            xmlns:dc="http://purl.org/dc/elements/1.1/"
            xmlns:xmpMM="http://ns.adobe.com/xap/1.0/mm/"
            xmlns:stEvt="http://ns.adobe.com/xap/1.0/sType/ResourceEvent#"
            xmlns:xmp="http://ns.adobe.com/xap/1.0/">
         <dc:title>
            <rdf:Alt>
               <rdf:li xml:lang="x-default">Plan de travail 3</rdf:li>
            </rdf:Alt>
         </dc:title>
         <xmpMM:PreservedFileName>35.svg</xmpMM:PreservedFileName>
         <xmpMM:InstanceID>xmp.iid:c49888d5-b8b4-4a38-9524-80761efc37df</xmpMM:InstanceID>
         <xmpMM:DocumentID>xmp.did:c49888d5-b8b4-4a38-9524-80761efc37df</xmpMM:DocumentID>
         <xmpMM:OriginalDocumentID>xmp.did:c49888d5-b8b4-4a38-9524-80761efc37df</xmpMM:OriginalDocumentID>
         <xmpMM:History>
            <rdf:Seq>
               <rdf:li>
                  <rdf:Description>
                     <stEvt:action>saved</stEvt:action>
                     <stEvt:instanceID>xmp.iid:c49888d5-b8b4-4a38-9524-80761efc37df</stEvt:instanceID>
                     <stEvt:when>2018-09-27T10:33:59+02:00</stEvt:when>
                     <stEvt:softwareAgent>Adobe Bridge CC 2017 (Macintosh)</stEvt:softwareAgent>
                     <stEvt:changed>/metadata</stEvt:changed>
                  </rdf:Description>
               </rdf:li>
            </rdf:Seq>
         </xmpMM:History>
         <xmp:MetadataDate>2018-09-27T10:33:59+02:00</xmp:MetadataDate>
      </rdf:Description>
   </rdf:RDF>
</x:xmpmeta>
                                                                                                    
                                                                                                    
                                                                                                    
                                                                                                    
                                                                                                    
                                                                                                    
                                                                                                    
                                                                                                    
                                                                                                    
                                                                                                    
                                                                                                    
                                                                                                    
                                                                                                    
                                                                                                    
                                                                                                    
                                                                                                    
                                                                                                    
                                                                                                    
                                                                                                    
                                                                                                    
                           
<?xpacket end="w"?></metadata>
<g id="Calque_1" data-name="Calque 1">
    <path class="cls-1" d="M668.51,343.23c-5.9-4.38-11.66-8.91-17.49-13.36s-11.54-9-17.26-13.59-11.41-9.16-17.12-13.73l-17-13.87a87.77,87.77,0,0,1-7.69-7.74c-2.49-2.66-5.1-5.18-7.66-7.77l-15.43-15.42L538,226.9,414.62,103.49l14.25-.11L305.36,226.89l-61.73,61.73-17,13.85c-5.71,4.59-11.38,9.2-17.12,13.75q-17.15,13.71-34.67,27.06,13.35-17.52,27-34.66c4.55-5.74,9.16-11.41,13.74-17.12l13.84-17,61.71-61.7L414.51,89.45l7.18-7.18,7.07,7.07L552.17,212.75,583,243.61,598.45,259c2.58,2.56,5.11,5.18,7.77,7.66a87.66,87.66,0,0,1,7.73,7.69l13.87,17c4.58,5.71,9.2,11.37,13.73,17.12s9.09,11.49,13.6,17.26S664.13,337.33,668.51,343.23Z"/>
    <polygon class="cls-1" points="274.71 253.68 264.71 522.11 254.71 253.68 274.71 253.68"/>
    <polygon class="cls-1" points="586.6 253.68 576.6 522.11 566.6 253.68 586.6 253.68"/>
  </g>
</svg>
