<svg id="Calque_1" data-name="Calque 1" xmlns="http://www.w3.org/2000/svg" width="29.7cm" height="21cm" viewBox="0 0 841.89 595.28">
  <defs>
    <style>
      .cls-1 {
        fill: #fff;
      }
    </style>
  </defs>
  <title>Plan de travail 1</title>
  <metadata><?xpacket begin="﻿" id="W5M0MpCehiHzreSzNTczkc9d"?>
<x:xmpmeta xmlns:x="adobe:ns:meta/" x:xmptk="Adobe XMP Core 5.6-c137 79.159547, 2016/07/07-11:39:24        ">
   <rdf:RDF xmlns:rdf="http://www.w3.org/1999/02/22-rdf-syntax-ns#">
      <rdf:Description rdf:about=""
            xmlns:dc="http://purl.org/dc/elements/1.1/"
            xmlns:xmpMM="http://ns.adobe.com/xap/1.0/mm/"
            xmlns:stEvt="http://ns.adobe.com/xap/1.0/sType/ResourceEvent#"
            xmlns:xmp="http://ns.adobe.com/xap/1.0/">
         <dc:title>
            <rdf:Alt>
               <rdf:li xml:lang="x-default">Plan de travail 1</rdf:li>
            </rdf:Alt>
         </dc:title>
         <xmpMM:PreservedFileName>37.svg</xmpMM:PreservedFileName>
         <xmpMM:InstanceID>xmp.iid:3020f006-a7f9-4733-8eda-634d16e385d5</xmpMM:InstanceID>
         <xmpMM:DocumentID>xmp.did:3020f006-a7f9-4733-8eda-634d16e385d5</xmpMM:DocumentID>
         <xmpMM:OriginalDocumentID>xmp.did:3020f006-a7f9-4733-8eda-634d16e385d5</xmpMM:OriginalDocumentID>
         <xmpMM:History>
            <rdf:Seq>
               <rdf:li>
                  <rdf:Description>
                     <stEvt:action>saved</stEvt:action>
                     <stEvt:instanceID>xmp.iid:3020f006-a7f9-4733-8eda-634d16e385d5</stEvt:instanceID>
                     <stEvt:when>2018-09-27T10:33:59+02:00</stEvt:when>
                     <stEvt:softwareAgent>Adobe Bridge CC 2017 (Macintosh)</stEvt:softwareAgent>
                     <stEvt:changed>/metadata</stEvt:changed>
                  </rdf:Description>
               </rdf:li>
            </rdf:Seq>
         </xmpMM:History>
         <xmp:MetadataDate>2018-09-27T10:33:59+02:00</xmp:MetadataDate>
      </rdf:Description>
   </rdf:RDF>
</x:xmpmeta>
                                                                                                    
                                                                                                    
                                                                                                    
                                                                                                    
                                                                                                    
                                                                                                    
                                                                                                    
                                                                                                    
                                                                                                    
                                                                                                    
                                                                                                    
                                                                                                    
                                                                                                    
                                                                                                    
                                                                                                    
                                                                                                    
                                                                                                    
                                                                                                    
                                                                                                    
                                                                                                    
                           
<?xpacket end="w"?></metadata>
<path class="cls-1" d="M228.75,163h8.33l-20.17,53.4h-8.26Z"/>
  <path class="cls-1" d="M247.1,163h8.34l-20.18,53.4H227Z"/>
  <path class="cls-1" d="M265.45,163h8.34l-20.17,53.4h-8.26Z"/>
  <path class="cls-1" d="M283.81,163h8.34L272,216.36h-8.26Z"/>
  <path class="cls-1" d="M302.16,163h8.34l-20.17,53.4h-8.27Z"/>
  <path class="cls-1" d="M320.52,163h8.34l-20.18,53.4h-8.26Z"/>
  <path class="cls-1" d="M338.87,163h8.34L327,216.36h-8.27Z"/>
  <path class="cls-1" d="M357.23,163h8.33l-20.17,53.4h-8.26Z"/>
  <path class="cls-1" d="M375.58,163h8.34l-20.17,53.4h-8.27Z"/>
  <path class="cls-1" d="M393.94,163h8.33l-20.17,53.4h-8.26Z"/>
  <path class="cls-1" d="M412.29,163h8.34l-20.17,53.4h-8.27Z"/>
  <path class="cls-1" d="M430.65,163H439l-20.17,53.4h-8.26Z"/>
  <path class="cls-1" d="M449,163h8.34l-20.18,53.4H428.9Z"/>
  <path class="cls-1" d="M467.36,163h8.33l-20.17,53.4h-8.26Z"/>
  <path class="cls-1" d="M485.71,163h8.34l-20.18,53.4h-8.26Z"/>
  <path class="cls-1" d="M504.06,163h8.34l-20.17,53.4H484Z"/>
  <path class="cls-1" d="M522.42,163h8.34l-20.18,53.4h-8.26Z"/>
  <path class="cls-1" d="M540.77,163h8.34l-20.17,53.4h-8.26Z"/>
  <path class="cls-1" d="M559.13,163h8.34l-20.18,53.4H539Z"/>
  <path class="cls-1" d="M577.48,163h8.34l-20.17,53.4h-8.27Z"/>
  <path class="cls-1" d="M595.84,163h8.34L584,216.36h-8.26Z"/>
  <path class="cls-1" d="M614.19,163h8.34l-20.17,53.4h-8.27Z"/>
  <path class="cls-1" d="M632.55,163h8.33l-20.17,53.4h-8.26Z"/>
  <path class="cls-1" d="M650.9,163h8.34l-20.17,53.4H630.8Z"/>
  <path class="cls-1" d="M669.26,163h8.33l-20.17,53.4h-8.26Z"/>
  <path class="cls-1" d="M687.61,163H696l-20.17,53.4h-8.27Z"/>
  <path class="cls-1" d="M706,163h8.33l-20.17,53.4h-8.26Z"/>
  <path class="cls-1" d="M724.32,163h8.34l-20.18,53.4h-8.26Z"/>
  <path class="cls-1" d="M236.6,216.59h8.34L224.77,270H216.5Z"/>
  <path class="cls-1" d="M255,216.59h8.34L243.12,270h-8.26Z"/>
  <path class="cls-1" d="M273.31,216.59h8.34L261.48,270h-8.27Z"/>
  <path class="cls-1" d="M291.67,216.59H300L279.83,270h-8.26Z"/>
  <path class="cls-1" d="M310,216.59h8.34L298.19,270h-8.27Z"/>
  <path class="cls-1" d="M328.38,216.59h8.33L316.54,270h-8.26Z"/>
  <path class="cls-1" d="M346.73,216.59h8.34L334.9,270h-8.27Z"/>
  <path class="cls-1" d="M365.09,216.59h8.33L353.25,270H345Z"/>
  <path class="cls-1" d="M383.44,216.59h8.34L371.6,270h-8.26Z"/>
  <path class="cls-1" d="M401.8,216.59h8.33L390,270H381.7Z"/>
  <path class="cls-1" d="M420.15,216.59h8.34L408.31,270h-8.26Z"/>
  <path class="cls-1" d="M438.51,216.59h8.33L426.67,270h-8.26Z"/>
  <path class="cls-1" d="M456.86,216.59h8.34L445,270h-8.26Z"/>
  <path class="cls-1" d="M475.21,216.59h8.34L463.38,270h-8.26Z"/>
  <path class="cls-1" d="M493.57,216.59h8.34L481.73,270h-8.26Z"/>
  <path class="cls-1" d="M511.92,216.59h8.34L500.09,270h-8.27Z"/>
  <path class="cls-1" d="M530.28,216.59h8.34L518.44,270h-8.26Z"/>
  <path class="cls-1" d="M548.63,216.59H557L536.8,270h-8.27Z"/>
  <path class="cls-1" d="M567,216.59h8.33L555.15,270h-8.26Z"/>
  <path class="cls-1" d="M585.34,216.59h8.34L573.51,270h-8.27Z"/>
  <path class="cls-1" d="M603.7,216.59H612L591.86,270H583.6Z"/>
  <path class="cls-1" d="M622.05,216.59h8.34L610.22,270H602Z"/>
  <path class="cls-1" d="M640.41,216.59h8.33L628.57,270h-8.26Z"/>
  <path class="cls-1" d="M658.76,216.59h8.34L646.92,270h-8.26Z"/>
  <path class="cls-1" d="M677.12,216.59h8.33L665.28,270H657Z"/>
  <path class="cls-1" d="M695.47,216.59h8.34L683.63,270h-8.26Z"/>
  <path class="cls-1" d="M713.82,216.59h8.34L702,270h-8.26Z"/>
  <path class="cls-1" d="M218.25,216.59h8.34L206.41,270h-8.26Z"/>
  <path class="cls-1" d="M208.65,270H217l-20.17,53.41h-8.26Z"/>
  <path class="cls-1" d="M227,270h8.34l-20.18,53.41H206.9Z"/>
  <path class="cls-1" d="M245.36,270h8.33l-20.17,53.41h-8.26Z"/>
  <path class="cls-1" d="M263.71,270h8.34l-20.18,53.41h-8.26Z"/>
  <path class="cls-1" d="M282.06,270h8.34l-20.17,53.41H262Z"/>
  <path class="cls-1" d="M300.42,270h8.34l-20.18,53.41h-8.26Z"/>
  <path class="cls-1" d="M318.77,270h8.34l-20.17,53.41h-8.27Z"/>
  <path class="cls-1" d="M337.13,270h8.34l-20.18,53.41H317Z"/>
  <path class="cls-1" d="M355.48,270h8.34l-20.17,53.41h-8.27Z"/>
  <path class="cls-1" d="M373.84,270h8.33L362,323.37h-8.26Z"/>
  <path class="cls-1" d="M392.19,270h8.34l-20.17,53.41h-8.27Z"/>
  <path class="cls-1" d="M410.55,270h8.33l-20.17,53.41h-8.26Z"/>
  <path class="cls-1" d="M428.9,270h8.34l-20.17,53.41H408.8Z"/>
  <path class="cls-1" d="M447.26,270h8.33l-20.17,53.41h-8.26Z"/>
  <path class="cls-1" d="M465.61,270H474l-20.18,53.41h-8.26Z"/>
  <path class="cls-1" d="M484,270h8.33l-20.17,53.41h-8.26Z"/>
  <path class="cls-1" d="M502.32,270h8.34l-20.18,53.41h-8.26Z"/>
  <path class="cls-1" d="M520.68,270H529l-20.17,53.41h-8.26Z"/>
  <path class="cls-1" d="M539,270h8.34l-20.18,53.41h-8.26Z"/>
  <path class="cls-1" d="M557.38,270h8.34l-20.17,53.41h-8.26Z"/>
  <path class="cls-1" d="M575.74,270h8.34L563.9,323.37h-8.26Z"/>
  <path class="cls-1" d="M594.09,270h8.34l-20.17,53.41H574Z"/>
  <path class="cls-1" d="M612.45,270h8.34l-20.18,53.41h-8.26Z"/>
  <path class="cls-1" d="M630.8,270h8.34L619,323.37H610.7Z"/>
  <path class="cls-1" d="M649.16,270h8.33l-20.17,53.41h-8.26Z"/>
  <path class="cls-1" d="M667.51,270h8.34l-20.17,53.41h-8.27Z"/>
  <path class="cls-1" d="M685.87,270h8.33L674,323.37h-8.26Z"/>
  <path class="cls-1" d="M704.22,270h8.34l-20.17,53.41h-8.27Z"/>
  <path class="cls-1" d="M216.5,323.59h8.34L204.67,377h-8.26Z"/>
  <path class="cls-1" d="M234.86,323.59h8.34L223,377h-8.26Z"/>
  <path class="cls-1" d="M253.21,323.59h8.34L241.38,377h-8.27Z"/>
  <path class="cls-1" d="M271.57,323.59h8.34L259.73,377h-8.26Z"/>
  <path class="cls-1" d="M289.92,323.59h8.34L278.09,377h-8.27Z"/>
  <path class="cls-1" d="M308.28,323.59h8.33L296.44,377h-8.26Z"/>
  <path class="cls-1" d="M326.63,323.59H335L314.8,377h-8.27Z"/>
  <path class="cls-1" d="M345,323.59h8.33L333.15,377h-8.26Z"/>
  <path class="cls-1" d="M363.34,323.59h8.34L351.51,377h-8.27Z"/>
  <path class="cls-1" d="M381.7,323.59H390L369.86,377H361.6Z"/>
  <path class="cls-1" d="M400.05,323.59h8.34L388.21,377H380Z"/>
  <path class="cls-1" d="M418.41,323.59h8.33L406.57,377h-8.26Z"/>
  <path class="cls-1" d="M436.76,323.59h8.34L424.92,377h-8.26Z"/>
  <path class="cls-1" d="M455.12,323.59h8.33L443.28,377H435Z"/>
  <path class="cls-1" d="M473.47,323.59h8.34L461.63,377h-8.26Z"/>
  <path class="cls-1" d="M491.82,323.59h8.34L480,377h-8.26Z"/>
  <path class="cls-1" d="M510.18,323.59h8.34L498.34,377h-8.26Z"/>
  <path class="cls-1" d="M528.53,323.59h8.34L516.7,377h-8.27Z"/>
  <path class="cls-1" d="M546.89,323.59h8.34L535.05,377h-8.26Z"/>
  <path class="cls-1" d="M565.24,323.59h8.34L553.41,377h-8.27Z"/>
  <path class="cls-1" d="M583.6,323.59h8.33L571.76,377H563.5Z"/>
  <path class="cls-1" d="M602,323.59h8.34L590.12,377h-8.27Z"/>
  <path class="cls-1" d="M620.31,323.59h8.33L608.47,377h-8.26Z"/>
  <path class="cls-1" d="M638.66,323.59H647L626.83,377h-8.27Z"/>
  <path class="cls-1" d="M657,323.59h8.33L645.18,377h-8.26Z"/>
  <path class="cls-1" d="M675.37,323.59h8.34L663.53,377h-8.26Z"/>
  <path class="cls-1" d="M693.73,323.59h8.33L681.89,377h-8.26Z"/>
  <path class="cls-1" d="M198.15,323.59h8.34L186.31,377h-8.26Z"/>
</svg>
