<?xml version="1.0" encoding="utf-8"?>
<!-- Generator: Adobe Illustrator 21.1.0, SVG Export Plug-In . SVG Version: 6.00 Build 0)  -->
<svg version="1.1" id="Calque_1" xmlns="http://www.w3.org/2000/svg" xmlns:xlink="http://www.w3.org/1999/xlink" x="0px" y="0px"
	 viewBox="0 0 1190.6 841.9" style="enable-background:new 0 0 1190.6 841.9;" xml:space="preserve">
<style type="text/css">
	.st0{fill:#FFFFFF;}
</style>
<g id="Calque_1_1_">
</g>
<g id="Calque_3">
</g>
<g id="Calque_2">
	<polygon class="st0" points="305,418.4 357,329.4 356.6,147.2 253.4,147.2 253,329.4 	"/>
	<polygon class="st0" points="419.2,450.9 471.2,361.9 470.8,179.7 367.7,179.7 367.2,361.9 	"/>
	<polygon class="st0" points="532.1,402.8 584.1,313.7 583.7,131.5 480.6,131.5 480.1,313.7 	"/>
	<polygon class="st0" points="642,455.4 694,366.4 693.6,184.2 590.4,184.2 590,366.4 	"/>
	<polygon class="st0" points="753.3,387.7 805.3,298.7 804.9,116.5 701.8,116.5 701.3,298.7 	"/>
	<polygon class="st0" points="872.2,411.8 924.2,322.8 923.8,140.6 820.7,140.6 820.2,322.8 	"/>
	<polygon class="st0" points="301.8,709.8 353.8,620.7 353.4,438.6 250.2,438.6 249.8,620.7 	"/>
	<polygon class="st0" points="416.1,742.3 468.1,653.2 467.6,471 364.5,471 364.1,653.2 	"/>
	<polygon class="st0" points="528.9,694.1 580.9,605.1 580.5,422.9 477.4,422.9 476.9,605.1 	"/>
	<polygon class="st0" points="638.8,746.8 690.8,657.7 690.4,475.6 587.2,475.6 586.8,657.7 	"/>
	<polygon class="st0" points="750.1,679.1 802.1,590 801.7,407.8 698.6,407.8 698.1,590 	"/>
	<polygon class="st0" points="869,703.1 921,614.1 920.6,431.9 817.5,431.9 817,614.1 	"/>
</g>
<g id="Calque_4">
</g>
</svg>
