<?xml version="1.0" encoding="utf-8"?>
<!-- Generator: Adobe Illustrator 21.1.0, SVG Export Plug-In . SVG Version: 6.00 Build 0)  -->
<svg version="1.1" id="Calque_1" xmlns="http://www.w3.org/2000/svg" xmlns:xlink="http://www.w3.org/1999/xlink" x="0px" y="0px"
	 viewBox="0 0 1190.6 841.9" style="enable-background:new 0 0 1190.6 841.9;" xml:space="preserve">
<style type="text/css">
	.st0{fill:#FFFFFF;}
</style>
<g id="Calque_1_1_">
	<polygon class="st0" points="390.8,228.3 422.1,220 462.3,179.6 439.5,156.7 399,197 	"/>
	<polygon class="st0" points="390.7,228.9 398.9,260.1 439.4,300.4 462.3,277.6 422,237.1 	"/>
	<polygon class="st0" points="390.1,228.9 358.9,237.1 318.6,277.6 341.4,300.5 381.9,260.2 	"/>
	<polygon class="st0" points="390.2,228.4 382,197.1 341.5,156.8 318.7,179.7 359,220.1 	"/>
	<polygon class="st0" points="488.1,322.6 504.4,294.7 504.3,237.6 472,237.6 471.8,294.7 	"/>
	<polygon class="st0" points="488.5,323.1 516.4,339.4 573.5,339.3 573.5,307 516.4,306.8 	"/>
	<polygon class="st0" points="488.1,323.6 471.8,351.5 471.9,408.6 504.3,408.6 504.4,351.5 	"/>
	<polygon class="st0" points="487.8,323.1 459.9,306.8 402.8,306.9 402.8,339.3 459.9,339.4 	"/>
	<polygon class="st0" points="488.2,134 504.5,106.1 504.4,49 472.1,49 471.9,106.1 	"/>
	<polygon class="st0" points="488.6,134.5 516.5,150.8 573.6,150.6 573.6,118.3 516.5,118.2 	"/>
	<polygon class="st0" points="488.2,134.9 471.9,162.9 472.1,220 504.4,220 504.5,162.9 	"/>
	<polygon class="st0" points="487.9,134.5 460,118.2 402.9,118.3 402.9,150.6 460,150.8 	"/>
	<g>
		<polygon class="st0" points="584.7,227.5 616,219.3 656.2,178.8 633.4,156 592.9,196.3 		"/>
		<polygon class="st0" points="584.6,228.1 592.8,259.4 633.3,299.7 656.2,276.8 615.9,236.3 		"/>
		<polygon class="st0" points="584,228.2 552.8,236.4 512.5,276.9 535.3,299.7 575.8,259.5 		"/>
		<polygon class="st0" points="584.1,227.6 575.9,196.4 535.4,156.1 512.6,178.9 552.9,219.4 		"/>
	</g>
	<polygon class="st0" points="292.2,134.1 308.5,106.2 308.4,49.1 276.1,49.1 275.9,106.2 	"/>
	<polygon class="st0" points="292.6,134.6 320.5,150.9 377.6,150.7 377.6,118.4 320.5,118.3 	"/>
	<polygon class="st0" points="292.2,135 275.9,162.9 276,220.1 308.4,220.1 308.5,162.9 	"/>
	<polygon class="st0" points="291.9,134.6 264,118.3 206.9,118.4 206.9,150.7 264,150.9 	"/>
	<polygon class="st0" points="291.5,322.3 307.8,294.4 307.7,237.3 275.4,237.3 275.2,294.4 	"/>
	<polygon class="st0" points="291.9,322.8 319.8,339.1 377,338.9 377,306.6 319.8,306.5 	"/>
	<polygon class="st0" points="291.5,323.2 275.2,351.1 275.4,408.3 307.7,408.3 307.8,351.1 	"/>
	<polygon class="st0" points="291.2,322.8 263.3,306.5 206.2,306.6 206.2,338.9 263.3,339.1 	"/>
	<polygon class="st0" points="779.6,228 810.9,219.8 851.2,179.3 828.3,156.5 787.8,196.7 	"/>
	<polygon class="st0" points="779.6,228.6 787.8,259.9 828.2,300.2 851.1,277.3 810.8,236.8 	"/>
	<polygon class="st0" points="779,228.7 747.7,236.9 707.4,277.3 730.3,300.2 770.7,259.9 	"/>
	<polygon class="st0" points="779,228.1 770.8,196.8 730.4,156.5 707.5,179.4 747.8,219.9 	"/>
	<polygon class="st0" points="876.9,322.4 893.2,294.5 893.1,237.4 860.8,237.4 860.6,294.5 	"/>
	<polygon class="st0" points="877.3,322.8 905.2,339.1 962.4,339 962.4,306.7 905.2,306.5 	"/>
	<polygon class="st0" points="876.9,323.3 860.6,351.2 860.8,408.3 893.1,408.3 893.2,351.2 	"/>
	<polygon class="st0" points="876.6,322.8 848.7,306.5 791.6,306.7 791.6,339 848.7,339.1 	"/>
	<polygon class="st0" points="877,134.7 893.3,106.8 893.2,49.7 860.9,49.7 860.7,106.8 	"/>
	<polygon class="st0" points="877.4,135.2 905.3,151.5 962.5,151.4 962.5,119.1 905.3,118.9 	"/>
	<polygon class="st0" points="877.1,135.7 860.8,163.6 860.9,220.7 893.2,220.7 893.4,163.6 	"/>
	<polygon class="st0" points="876.7,135.2 848.8,118.9 791.7,119 791.7,151.4 848.8,151.5 	"/>
	<polygon class="st0" points="681,134.8 697.3,106.9 697.2,49.8 664.9,49.8 664.7,106.9 	"/>
	<polygon class="st0" points="681.4,135.3 709.3,151.6 766.4,151.5 766.4,119.1 709.3,119 	"/>
	<polygon class="st0" points="681,135.8 664.7,163.7 664.9,220.8 697.2,220.8 697.3,163.7 	"/>
	<polygon class="st0" points="680.7,135.3 652.8,119 595.7,119.1 595.7,151.5 652.8,151.6 	"/>
	<polygon class="st0" points="681.4,322 697.7,294.1 697.5,237 665.2,237 665.1,294.1 	"/>
	<polygon class="st0" points="681.8,322.5 709.7,338.8 766.8,338.7 766.8,306.4 709.7,306.2 	"/>
	<polygon class="st0" points="681.4,323 665.1,350.9 665.2,408 697.5,408 697.7,350.9 	"/>
	<polygon class="st0" points="681,322.5 653.1,306.2 596,306.3 596,338.7 653.1,338.8 	"/>
	<polygon class="st0" points="390.1,610.5 421.4,602.3 461.7,561.8 438.8,538.9 398.3,579.2 	"/>
	<polygon class="st0" points="390.1,611.1 398.3,642.4 438.7,682.6 461.6,659.8 421.3,619.3 	"/>
	<polygon class="st0" points="389.4,611.2 358.2,619.4 317.9,659.8 340.8,682.7 381.2,642.4 	"/>
	<polygon class="st0" points="389.5,610.6 381.3,579.3 340.9,539 318,561.9 358.3,602.4 	"/>
	<polygon class="st0" points="487.4,704.9 503.7,677 503.6,619.8 471.3,619.8 471.1,677 	"/>
	<polygon class="st0" points="487.8,705.3 515.7,721.6 572.8,721.5 572.8,689.2 515.7,689 	"/>
	<polygon class="st0" points="487.4,705.8 471.1,733.7 471.3,790.8 503.6,790.8 503.7,733.7 	"/>
	<polygon class="st0" points="487.1,705.3 459.2,689 402.1,689.2 402.1,721.5 459.2,721.6 	"/>
	<polygon class="st0" points="487.5,516.2 503.8,488.3 503.7,431.2 471.4,431.2 471.2,488.3 	"/>
	<polygon class="st0" points="487.9,516.7 515.8,533 572.9,532.9 572.9,500.5 515.8,500.4 	"/>
	<polygon class="st0" points="487.5,517.2 471.2,545.1 471.4,602.2 503.7,602.2 503.8,545.1 	"/>
	<polygon class="st0" points="487.2,516.7 459.3,500.4 402.2,500.5 402.2,532.9 459.3,533 	"/>
	<g>
		<polygon class="st0" points="584,609.7 615.3,601.5 655.6,561.1 632.7,538.2 592.2,578.5 		"/>
		<polygon class="st0" points="584,610.4 592.2,641.6 632.6,681.9 655.5,659.1 615.2,618.6 		"/>
		<polygon class="st0" points="583.3,610.4 552.1,618.6 511.8,659.1 534.6,682 575.1,641.7 		"/>
		<polygon class="st0" points="583.4,609.8 575.2,578.6 534.8,538.3 511.9,561.2 552.2,601.6 		"/>
	</g>
	<polygon class="st0" points="291.5,516.3 307.8,488.4 307.7,431.3 275.4,431.3 275.2,488.4 	"/>
	<polygon class="st0" points="291.9,516.8 319.8,533.1 376.9,533 376.9,500.6 319.8,500.5 	"/>
	<polygon class="st0" points="291.5,517.3 275.2,545.2 275.4,602.3 307.7,602.3 307.8,545.2 	"/>
	<polygon class="st0" points="291.2,516.8 263.3,500.5 206.2,500.6 206.2,532.9 263.3,533.1 	"/>
	<polygon class="st0" points="291.8,704.5 308.1,676.6 308,619.5 275.7,619.5 275.5,676.6 	"/>
	<polygon class="st0" points="292.2,705 320.2,721.3 377.3,721.2 377.3,688.8 320.2,688.7 	"/>
	<polygon class="st0" points="291.9,705.5 275.6,733.4 275.7,790.5 308,790.5 308.2,733.4 	"/>
	<polygon class="st0" points="291.5,705 263.6,688.7 206.5,688.8 206.5,721.1 263.6,721.3 	"/>
	<polygon class="st0" points="778.9,610.2 810.2,602 850.5,561.5 827.6,538.7 787.1,579 	"/>
	<polygon class="st0" points="778.9,610.8 787.1,642.1 827.6,682.4 850.4,659.5 810.1,619 	"/>
	<polygon class="st0" points="778.3,610.9 747,619.1 706.7,659.6 729.6,682.4 770.1,642.1 	"/>
	<polygon class="st0" points="778.4,610.3 770.1,579.1 729.7,538.8 706.8,561.6 747.1,602.1 	"/>
	<polygon class="st0" points="877.2,704.6 893.5,676.7 893.4,619.6 861.1,619.6 860.9,676.7 	"/>
	<polygon class="st0" points="877.6,705.1 905.6,721.4 962.7,721.2 962.7,688.9 905.6,688.8 	"/>
	<polygon class="st0" points="877.3,705.5 861,733.4 861.1,790.6 893.4,790.6 893.6,733.4 	"/>
	<polygon class="st0" points="876.9,705.1 849,688.8 791.9,688.9 791.9,721.2 849,721.4 	"/>
	<polygon class="st0" points="877.4,516 893.7,488 893.5,430.9 861.2,430.9 861.1,488 	"/>
	<polygon class="st0" points="877.8,516.4 905.7,532.7 962.8,532.6 962.8,500.3 905.7,500.1 	"/>
	<polygon class="st0" points="877.4,516.9 861.1,544.8 861.2,601.9 893.5,601.9 893.7,544.8 	"/>
	<polygon class="st0" points="877,516.4 849.1,500.1 792,500.3 792,532.6 849.1,532.7 	"/>
	<polygon class="st0" points="681.3,516 697.6,488.1 697.5,431 665.2,431 665,488.1 	"/>
	<polygon class="st0" points="681.7,516.5 709.7,532.8 766.8,532.7 766.8,500.4 709.7,500.2 	"/>
	<polygon class="st0" points="681.4,517 665.1,544.9 665.2,602 697.5,602 697.7,544.9 	"/>
	<polygon class="st0" points="681,516.5 653.1,500.2 596,500.3 596,532.7 653.1,532.8 	"/>
	<polygon class="st0" points="680.7,704.3 697,676.3 696.8,619.2 664.5,619.2 664.4,676.3 	"/>
	<polygon class="st0" points="681.1,704.7 709,721 766.1,720.9 766.1,688.6 709,688.4 	"/>
	<polygon class="st0" points="680.7,705.2 664.4,733.1 664.5,790.2 696.8,790.2 697,733.1 	"/>
	<polygon class="st0" points="680.3,704.7 652.4,688.4 595.3,688.6 595.3,720.9 652.4,721 	"/>
	<g>
		<polygon class="st0" points="584,419.7 615.3,411.5 655.6,371 632.7,348.1 592.2,388.4 		"/>
		<polygon class="st0" points="584,420.3 592.2,451.6 632.6,491.9 655.5,469 615.2,428.5 		"/>
		<polygon class="st0" points="583.3,420.4 552.1,428.6 511.8,469 534.6,491.9 575.1,451.6 		"/>
		<polygon class="st0" points="583.4,419.8 575.2,388.5 534.8,348.2 511.9,371.1 552.2,411.6 		"/>
	</g>
	<g>
		<polygon class="st0" points="777.9,418.2 809.2,410 849.5,369.6 826.6,346.7 786.2,387 		"/>
		<polygon class="st0" points="777.9,418.9 786.1,450.1 826.6,490.4 849.4,467.6 809.1,427.1 		"/>
		<polygon class="st0" points="777.3,418.9 746,427.1 705.7,467.6 728.6,490.5 769.1,450.2 		"/>
		<polygon class="st0" points="777.4,418.3 769.2,387.1 728.7,346.8 705.8,369.6 746.1,410.1 		"/>
	</g>
	<g>
		<polygon class="st0" points="388.6,419.7 419.9,411.5 460.2,371 437.3,348.1 396.8,388.4 		"/>
		<polygon class="st0" points="388.6,420.3 396.8,451.6 437.3,491.9 460.1,469 419.8,428.5 		"/>
		<polygon class="st0" points="388,420.4 356.7,428.6 316.4,469 339.3,491.9 379.8,451.6 		"/>
		<polygon class="st0" points="388.1,419.8 379.8,388.5 339.4,348.2 316.5,371.1 356.8,411.6 		"/>
	</g>
</g>
<g id="Calque_3">
</g>
<g id="Calque_2">
</g>
<g id="Calque_4">
</g>
</svg>
