<?xml version="1.0" encoding="utf-8"?>
<!-- Generator: Adobe Illustrator 21.1.0, SVG Export Plug-In . SVG Version: 6.00 Build 0)  -->
<svg version="1.1" id="Calque_1" xmlns="http://www.w3.org/2000/svg" xmlns:xlink="http://www.w3.org/1999/xlink" x="0px" y="0px"
	 viewBox="0 0 1190.6 841.9" style="enable-background:new 0 0 1190.6 841.9;" xml:space="preserve">
<style type="text/css">
	.st0{fill:#FFFFFF;}
</style>
<g id="Calque_1_1_">
</g>
<g id="Calque_3">
</g>
<g id="Calque_2">
	<polygon class="st0" points="197.6,451 249.6,362 249.2,179.8 146.1,179.8 145.6,362 	"/>
	<polygon class="st0" points="271,389.6 219,478.7 219.4,660.8 322.5,660.8 323,478.7 	"/>
	<polygon class="st0" points="347.2,451.4 399.2,362.3 398.8,180.2 295.6,180.2 295.2,362.3 	"/>
	<polygon class="st0" points="420.5,388.9 368.5,478 368.9,660.2 472.1,660.2 472.5,478 	"/>
	<polygon class="st0" points="494.8,452.4 546.8,363.3 546.4,181.2 443.3,181.2 442.8,363.3 	"/>
	<polygon class="st0" points="568.2,387.9 516.2,477 516.6,659.2 619.7,659.2 620.2,477 	"/>
	<polygon class="st0" points="644.4,451.7 696.4,362.7 696,180.5 592.8,180.5 592.4,362.7 	"/>
	<polygon class="st0" points="717.7,388.3 665.8,477.3 666.2,659.5 769.3,659.5 769.7,477.3 	"/>
	<polygon class="st0" points="794.7,451 846.7,362 846.3,179.8 743.2,179.8 742.7,362 	"/>
	<polygon class="st0" points="868.1,388.6 816.1,477.6 816.5,659.8 919.6,659.8 920.1,477.6 	"/>
	<polygon class="st0" points="945.3,451.4 997.3,362.3 996.9,180.1 893.7,180.1 893.3,362.3 	"/>
	<polygon class="st0" points="1017.7,388.9 965.7,478 966.1,660.1 1069.2,660.1 1069.7,478 	"/>
</g>
<g id="Calque_4">
</g>
</svg>
