<?xml version="1.0" encoding="utf-8"?>
<!-- Generator: Adobe Illustrator 21.1.0, SVG Export Plug-In . SVG Version: 6.00 Build 0)  -->
<svg version="1.1" id="dessin8_xA0_Image_1_" xmlns="http://www.w3.org/2000/svg" xmlns:xlink="http://www.w3.org/1999/xlink"
	 x="0px" y="0px" viewBox="0 0 1839.9 2624.1" style="enable-background:new 0 0 1839.9 2624.1;" xml:space="preserve">
<g>
	<path d="M956,1457.5c-0.1-2.8-0.3-6.1-0.3-9.3c-0.1-5.2,0-10.3-0.2-15.5c-0.1-2.8,0.1-5.3,1.4-7.9c1.1-2.5,1.3-5.4,0.5-8
		c-0.6-2.2-0.5-4.2-0.3-6.4c0.2-2.1,0.3-4.5-0.3-6.5c-1.1-3.3-0.9-6.5-0.3-9.7c0.2-0.8,0.3-1.6,0.4-2.4c0.5-0.4,1-0.8,1.4-1.1
		c1.3-0.7,2.2-1.7,2.4-3.1c0.8-4.6,1.1-9.3,0.4-13.9c-0.3-2-2-3.7-1.4-6.2c0.4-1.8-0.6-3.8-0.3-5.6c0.4-2.2-0.1-4.4,0-6.6
		c0-0.8,0.2-1.9,0.7-2.2c2-1.5,2.2-3.4,2.2-5.7c0-2.7,0.3-5.7,1.4-8c1.3-2.8,2.2-5.4,2-8.6c-0.2-1.9,0.3-3.8,0.6-5.6
		c0.2-0.8,0.4-1.7,0.9-2.2c3.4-4.4,6-9.2,8.8-13.7c0.7-1.1,1.7-2.1,2.6-3.2c2.9-3.3,5.9-6.5,8.8-9.8c0.7-0.8,1.5-1.6,2.3-2.4
		c1.5-1.5,4.2-1.9,4.7-4.4c0.4-1.8,0.2-3.8,0.3-5.5c0.7-0.7,1.3-1.3,1.7-1.9c2.9-3.8,6.9-6.2,11.4-7.6c1.7-0.6,3.5-1.5,5.2-2.5
		c2.9-1.6,6-2.4,9.2-3.2c8.9-2.3,18.2-3.5,27.1-6.3c1.9-0.6,3.7-0.8,5.6-1c4.4-0.2,8.8-0.5,13-1.5c2.6-0.6,5.5-0.6,8.2-0.6
		c6.9-0.1,13.7-1.3,20.5-0.7c6.5-1.1,13,0.3,19.6,0.7c4.9,0.2,9.7,1.2,14.6,1.1c4.3-0.2,8.6,0.9,13,1.5c2.7,0.4,5.5,0.8,8,1.6
		c2.4,0.8,4.9,0.1,7.2,1.2c1.2,0.5,2.7,0.3,4,0.4c1.6,0.1,3.3-0.1,4.9,0.2c8.7,1.7,17.3,2.4,26,2c2.2,0,4.4-0.2,6.6,0
		c7.9,0.8,15.8-0.8,23.7-0.8c3.4-1.4,7.1-0.7,10.5-1.6c3.2-0.9,6.4-1.1,9.7-1.5c3.1-2.1,6.8-1.8,10.3-2.2c1.1-0.1,2.2-0.5,3.1-0.8
		c11.4-3.7,23.2-6.6,34.3-10.9c4.9-1.8,10-3,14.5-5.6c5.5-0.7,10.1-4,15.5-5.3c2.9-0.6,5.3-2.6,8-4c3.7-1.8,7.2-3.9,11-5.5
		c4.8-2,9-5.2,14-6.6c0.8-0.3,1.5-0.8,2-1.3c1.8-2.1,4.2-3.5,6.5-4.9c1.4-0.9,2.7-1.7,4-2.7c1.1-0.9,2-1.8,3.5-2.1
		c1.8-0.3,3.1-1.2,4-2.6c1.2-1.8,2.9-3.3,4.9-4.2c2.9-1.3,4.5-5.1,8.4-4.5c2.9-1.6,6.1-2.2,9.5-2.5c1.4-1.4,2.7-2.8,4-4.2
		c1-1,1.8-2.1,3-2.8c6.3-3.7,10.1-10,15-15c0.5-0.6,0.9-1.3,1.3-2.1c2-4.4,5.1-7.6,9-10.3c1-0.6,1.5-1.5,2.1-2.4
		c2.7-4.4,5-9,8.5-12.9c2.5-2.8,4.4-6.3,6-9.7c1.1-2.5,2.2-5,4.2-6.9c1.8-1.7,3-3.9,3.6-6.3c0.3-1.1,0.5-2.2,1.1-3
		c3.3-4.4,5.2-9.6,7.2-14.7c0.5-1.3,1.2-2.4,1.8-3.6c1-1.7,1.9-3.3,2.8-5c0.8-1.7,1.4-3.5,2.3-5.2s3-2.4,3.4-4.4
		c2.9-3.5,4.7-7.3,5.7-11.7c0.3-1.5,1.2-2.3,2.9-2c0.4,0.1,1.2-0.1,1.3-0.4c0.7-1.8,1.9-2.4,3.8-2.1c1.8,0.3,2.8-0.6,2.9-2.1
		c0.2-4.8,2.9-8.8,4.4-13.1c0.2-0.7,0.9-1.5,1.6-1.8c1.9-0.8,2.9-2.1,3.7-4.1c1.6-4.3,3.9-8.4,4.4-13.1c0.2-1.6,1.3-3,1.8-4.6
		c0.4-1.5,0-3.3,0.7-4.7c1.5-3.2,3-6.5,4.2-9.8c0.6-1.7,2-3.2,1.7-5.3c0-0.3,0-0.6,0.2-0.8c1.3-2.8,2.8-5.4,3.5-8.3
		c0.6-2.7,2-5.1,2.6-7.7c0.3-1.2,1.2-2.4,1.9-3.5c2.6-3.9,5.3-7.6,5.5-12.5c0.1-1,0.4-2.3,1.2-3c2.8-2.5,3.5-6.1,5.8-8.9
		c0.9-1,1.3-2.3,1.6-3.7c0.4-2.2,0.8-4.3,2.2-6.1c0.3-0.4,0.7-1,0.6-1.4c0.4-5.2,3.2-9.1,6.3-13c1.1-1.4,1.7-3.1,3.3-4.4
		c1.6-1.4,2.8-3.5,3.4-5.6c1.7-5.8,5-10.9,7.9-16c0.6-1.2,1.2-2.4,1.9-3.6c1.5-2.9,2.9-5.9,5.4-8.1c0.4-0.3,0.8-0.8,1-1.3
		c2.3-5.5,6.8-9.2,10.5-13.6c1.2-1.5,2.2-3,2.5-5c0.4-1.8,1.6-3.4,2.1-5.2c0.5-1.6,0.5-3.2,1-4.8c0.3-0.9,1-2.2,1.8-2.6
		c2.3-1.1,4-2.9,5.6-4.8c1.8-2,3.6-4,6.1-5.4c1.4-0.8,2.4-2.1,3.6-3.4c2.4-2.7,4.8-5.3,7.2-8c1.1-1.2,2.1-2.5,3.4-3.6
		c2-1.8,4.2-3.5,6.2-5.3s2.5-4.9,5-6.4c1-0.5,1.4-1.7,1.5-2.8c0.3-4.2,3-7,5.5-9.8c0.7-0.7,1.7-1.6,2.7-1.8
		c4.8-1.3,8.7-4.8,13.7-5.6c2.7-1.9,5.7-3.2,8-5.7c0.9-1,2.2-1.5,3.6-1.9c4.2-1.1,8.2-2.8,12.1-4.9c4.3-2.4,9-3.9,13.7-5.5
		c7-2.4,14.2-4,21.4-5.8c9-2.2,17.9-4.8,26.7-7.7c0.8-0.3,1.6-0.4,2.5-0.3c0.8,0,1.6,0.5,2.2,0.9c1.3,0.8,1.6,2.6,0.5,3.4
		c-0.6,0.5-1.2,1.1-2,1.4c-1,0.5-1.6,1.4-2.1,2.4c-0.4,1.2-0.1,2.2,1.1,2.6c0.7,0.2,1.6,0.3,2.4,0.5c0.9,0.3,1.1,1,0.9,1.9
		c-0.4,1.2-0.5,2.1,1.3,1.7c0.6-0.1,1.1,0.4,0.9,0.9c-0.2,0.5-0.3,1.1-0.6,1.4c-1.1,1.1-2.4,2.1-3.6,3.3c-0.8,0.8-1.2,1.8-0.8,2.9
		c0.3,0.7,0.6,1.5,0.9,2.3s0.2,1.6-0.6,2.2c-1.6,1-3.2,2-3.8,4c-0.3,0.9-1.3,1.9-2.2,2.3c-2.1,0.9-3.6,2.5-5,4.1c-2,2.2-4,4.5-6,6.7
		c-1.1,1.2-2.3,2.5-3.7,3.2c-1.9,1.1-3.6,2.5-4.9,4.3c-3.6,4.6-8.1,8-12.7,11.6c-3.2,2.5-6.5,5.1-9.6,7.7c-0.5,0.5-0.7,1.4-1,2.1
		c-0.2,0.7-0.1,1.7-0.5,2.4c-1.8,2.7-3.8,5.4-5.6,8c-1.9,0.7-1.9,2.4-2.3,4c-0.6,2.7-2,5.1-0.8,7.9c0.2,0.6,0,1.8-0.4,2.3
		c-1.5,1.9-1.9,3.9-1.5,6.2c0.8,4.3-1.1,8.1-2.8,11.8c-2.3,1-2.1,3.7-3.6,5.4c-1.3,1.5-2.2,3.2-2.6,5.1c-0.5,2.2-1.8,3.9-3.2,5.6
		c-2.3,2.7-4.8,5.3-6,8.7c-0.3,0.6-1.2,1.2-1.9,1.4c-2.1,0.4-3.7,1.1-3,3.8c0.1,0.5,0,1.2-0.3,1.6c-2.1,1.7-2.4,5-4.9,6.5
		c-0.6,0.4-1.4,1.1-1.5,1.9c-1,3.8-4.6,6.1-5.9,9.8c-0.4,1.2-1.7,2.1-2.6,3.2c-1.1,1.2-2.5,2.3-3.2,3.7c-2,4.3-5.5,7.4-8,11.3
		c-0.9,1.5-2,2.5-3.6,3.1c-0.9,0.3-1.1,1.1-1.4,1.8c-0.3,1.1-0.9,2-1.8,2.7c-3.3,2.6-5.9,5.6-7.8,9.4c-0.7,1.4-2.1,2.6-3.1,3.8
		c-2.5,2.9-4.5,6.9-5.8,11.3c-0.2,0.7-0.4,1.7-0.9,2.2c-1.1,1.3-1.5,2.8-1.7,4.5c-0.2,1.9-0.6,3.8-0.9,5.6c-0.3,1.4-0.9,2.6-1.3,3.8
		c-0.1,0.2,0,0.5,0,0.8c0.3,1.3,0.7,2.7,1.1,4.1c-0.2,1.4-1.6,2.1-2.5,3.1c-1.5,1.6-2.4,3.5-2.9,5.7c-0.6,3.2-0.9,6.3-0.4,9.7
		c0.4,4,0.8,8.1-0.4,12.2c-0.2,0.8-0.5,1.7-0.2,2.4c1.7,3.1-0.3,5.1-2.1,7.3c-0.5,0.5-0.6,1.6-0.5,2.2c0.1,0.9,0.1,1.6-0.4,2.2
		c-1.6,1.8-3.3,3.6-4.8,5.4c0.6,2.3,1.4,4.4-0.2,6.4c-0.8,0.9-1,1.9-0.7,3c0.4,1.4,0.2,2.8-0.6,3.9c-1.8,2.1-1.7,4.5-0.8,6.9
		c0.3,0.8,0.6,1.5,0.8,2.3c0,0.4-0.3,1.1-0.8,1.3c-0.7,0.5-1.4,0.7-2.3,0.9c-2.2,0.5-3.3,2-3.7,3.9c-0.6,2.9-1.1,5.9-0.9,8.9
		c0.1,2.3-0.3,2.8-2.7,3c-1.6,0.2-2.4,0.6-2.9,2.2c-0.4,1.2-1.1,2.5-1.8,3.6c-1,1.4-1.8,2.8-2.1,4.4c-0.6,3.5-2.7,6.6-2.9,10.2
		c0,0.8-0.5,1.6-1,2.2c-1.9,2.1-2.7,4.5-3.7,7.1c-1,2.7-2.8,5.2-4.5,7.7c-1,1.4-1.7,2.8-2.2,4.4c-0.4,1.4-1.3,2.3-2.4,3.2
		c-1.7,1.3-2,2.9-1.7,5c0.4,2.7-0.5,3.4-3.5,4.5c-0.6,0.2-1,0.5-1.4,0.7c-0.8,1.4,0.1,2.7,0,4c-0.1,1.4-0.4,2.6-0.6,4
		c-0.4,1.7-1.5,1.9-3.1,1.8c-1.4-0.1-1.6,0.1-1.3,1.3c0.4,1.7,0.4,3.2-0.9,4.6c-1.3,1.3-2.5,2.8-3.9,4.3c-0.9,1-1.5,2.3-1.6,3.7
		c0,1.8-1.3,2.9-2.7,3.9c-1.1,0.8-1.1,1.8-0.3,2.8c0.7,0.9,0.4,1.5,0,2.1c-0.6,1-1.6,1.8-1.6,2.7c-0.3,3.5-2.5,5.4-5.3,6.8
		c-1.9,0.9-3.1,2.1-3.8,4c-0.2,0.7-0.6,1.7-1.1,2.1c-1.2,1.1-3,1.8-3.8,3c-0.8,1.4-1.3,3-2.5,4.2c-1.1,1.1-2.2,2.5-3.6,3.6
		c-0.3,0.2-1.3-0.2-2.1-0.4c-0.9-0.2-1.9-0.1-1.9,0.8c-0.1,2.7-1.8,4.6-3.6,6.2c-1.4,1.3-3,2.3-3.8,4.1c-0.2,0.5-0.7,0.9-1.1,1.2
		c-6.8,3.7-12,9.4-18.2,13.8c-2.9,2-5.7,4.2-8.7,5.9c-1,0.5-2,1-2.7,1.7c-3.6,3.4-8.1,5.5-12.5,7.7c-1,0.5-2.2,0.8-2.9,1.4
		c-2.8,2.8-6.4,4.2-9.7,6.1c-0.9,0.5-1.8,1.4-2.8,1.6c-5.4,1.1-9.7,5-15.2,5.7c-1.3,0.2-2.6,0.9-3.7,1.8c-2.5,1.8-4.9,3.4-7.8,4.4
		c-2.6,0.9-4.8,2.5-7.6,3c-1.3,0.2-2.6,0.8-3.8,1.5c-1.4,1-3,1.2-4.6,1.2c-0.8,0-1.8,0.2-2.3,0.8c-3.9,4.5-9.3,5.6-14.4,7.3
		c-5.4,1.8-11.2,2.4-16.4,5.2c-6,0.7-11.6,3-17.5,4.5c-2.6,0.6-5.6,0.5-7.8,2.3c-0.4,0.3-1,0.4-1.6,0.4c-5.8,0.2-11.3,2.1-16.9,3.1
		c-3.5,0.6-6.9,1.1-10.5,1.3c-1.4,0.1-2.8,0.1-4.1,0.4c-2.7,0.6-5.3,1-8.1,0.9c-2.7-0.1-5.4,0.6-8.1,0.8c-1.3,0.1-2.8-0.1-4.1,0.2
		c-11.6,2.5-23.5,1.7-35.2,2.8c-2.5,0.2-5.1-0.7-7.4,0c-2.6,0.6-4.9-0.2-7.3-0.1c-2.5,0.1-4.9-0.1-7.4-0.2c-1.3,0-2.8-0.2-4-0.1
		c-3.2,0.2-6.5-0.2-9.9-0.3c-3-0.1-5.9-1.7-8.8-1c-2.9,0.6-5.4-0.9-8.1-0.8c-4.7,0-9.2-1.1-13.7-2.1c-2.7-0.6-5.4,0.1-8-0.9
		c-2.4-0.9-5.3-0.6-8-1.3c-2.6-0.5-5.4-0.6-8.1-0.8c-1.4-0.1-2.8-0.3-4-0.8c-4.5-1.6-9-1.9-13.7-2.6c-3.5-0.5-7.1-1-10.6-1.6
		c-4.9-0.9-9.7-0.6-14.6-1.9c-2.5-0.6-5.4-0.1-8.1-0.1c-2.2,0-4.3,0.2-6.4,0.1c-2.2,0-4.3-0.1-6.5-0.1c-2.2,0-4.4,0.2-6.6,0.4
		c-1.4,0.1-2.8-0.1-4.1,0.4c-3.4,1.4-7,0.9-10.6,1.3c-1.6,0.9-3.1,2.1-5,2.7c-5.4,1.6-9.3,5.6-14.1,8.2c-1.9,1-3,3.1-4.6,4.6
		c-1.3,4.4-5.1,7-7.6,10.7c-0.4,2.6-0.9,5.4-0.9,8c-0.1,2.2-1,3.5-2.6,4.8c-1,0.8-1,2-0.3,2.9c1.1,1.6,1.8,3.4,1.8,5.4
		c-0.2,6.3,0.4,12.5,3.5,18.2c0.8,1.5,0.8,3.3,0,4.8c-1.2,2.3-0.5,4.3,0.6,6.2c0.8,1.4,1.9,2.7,2.8,4c-0.2,0.4-0.3,0.9-0.7,1.2
		c-2.8,2.3-2.9,5.2-0.9,8c2.8,3.9,1.9,8.4,2.7,12.7c-1.5,3.3-0.7,7-1.5,10.5c-0.5,2.1-0.4,4.3-0.9,6.5c-0.4,1.8-0.2,3.3,0.7,4.8
		c2.8,4.3,3.2,9.2,3.4,14.2c0.1,3.7-0.3,7.7,1.6,11.2c0.3,0.5-0.1,1.5-0.3,2.3c-0.1,0.6-0.3,1.1-0.3,1.6c-0.3,1.9,0.9,3.6,0.2,5.7
		c-0.6,1.5-0.7,3.3-0.6,4.8c0.1,4-1.9,7.3-3.6,10.7c-0.1,0.2-0.4,0.3-0.6,0.5c-1.2,0.7-1.3,1.6-0.6,2.7c1.2,2.1,1,4.6-0.5,6.2
		c-1.7,1.9-1.7,4-1.8,5.9c-0.2,4.8-1.8,9-3.8,13.2c-1.1,2.3-1.9,4.5-2,7c-0.1,3.1-0.8,5.9-2.7,8.5c-0.6,0.8-0.5,2.1-0.9,3.1
		c-0.2,0.5-0.6,1-0.9,1.3c-0.5,0.6-3.3,5.2-3.2,5.7c0.2,1.7,0,3.2-1.2,4.5c-0.5,0.6-1,1.5-0.9,2.2c0.2,3.2-1,5.9-2.6,8.4
		c-1.8,2.9-3,5.8-3.7,9c-0.3,1.6-1,3-2.7,3.9c-1.2,0.6-2.1,1.7-3,2.6c-1,1-1.8,2.1-1.8,3.6c0.1,5.2-3.3,9.2-5.2,13.7
		c-0.4,1-1.5,1.9-2.6,1.7c-1.9-0.1-3.2,0.4-3.8,2.3c-0.5,1.6-1.7,1.7-3.2,1.7c-1.8,0-2.2,0.8-1.8,2.6c0.3,1.3,0.5,2.7,0.6,4.1
		c0.1,0.5,0,1.1,0,1.6c0,0.6-0.9,1.6-1.6,1.5c-2.4-0.5-3.6,0.4-4,2.7c-0.2,1-0.6,2.2-1.8,2.6c-1,0.4-1.9,1-2.4,2
		c-0.6,1-1.5,1.6-2.3,2.5c-1.3-0.4-2.6-0.6-3.9-0.9c-0.9-0.2-2,0.4-2,1c0,0.5-0.1,1.1,0.1,1.6c0.5,1,1.3,1.8,1.6,2.8
		c0.2,0.7,0,2.1-0.4,2.2c-3.4,1.7-4.7,5.3-7.5,7.4c-1.6,1.3-1.5,3.5-3.5,4.4c-1.7,0.7-3.2,2.1-4.8,3.1c-0.7,0.5-1.4,0.9-2,1.4
		c-1,1-1.8,2-2,3.4c-0.4,2.7-0.8,5.4-1.3,8c-1.7,1.3-3.2,2.4-4.7,3.6c-0.9,0.7-2.1,1.1-3.1,0.7c-2.3-0.9-3.9,0.1-4.4,2.2
		c-0.7,2.2-1.8,3.9-3.5,5.4c-1.4,1.3-2.2,3-2.9,4.8c-1.2,2.7-3,5.1-5.2,7c-1.2,1-1.5,2.1-2.1,3.4c-0.9,2-1.5,2.3-3.8,1.7
		c-0.6-0.1-1.1-0.3-1.7-0.5c-2.4,0.8-3.7,3-5.4,4.7c-0.9,0.9-1.1,2.4-1.5,3.8c-0.9,2.5-2.2,4.4-4.8,5.1c-1.3,0.3-2.3,1.4-3.6,1.9
		c-2.1,0.8-3.1,2.1-3.1,4.3c0,1.2-0.5,2.1-1.6,2.6c-0.8,0.4-1.4,1-2.1,1.2c-4.8,0.9-8.1,4.1-11.4,7.3c-2.7,2.7-5.5,5.2-8.5,7.5
		c-1.6,1.1-2.9,2.3-4.8,3.1c-1.2,0.5-2.6,1.1-3.7,1.8c-3.8,2.7-8.5,3.6-12.6,5.8c-2.1,1.2-4.8,0.4-7,2.2c-1.6,1.4-3.9,2-5.9,2.9
		c-2.3,1-4.5,2-6.7,3c-0.7,0.3-1.7,0.4-2.1,1c-2.1,2.5-5,2.9-8,3.5c-5.8,1.2-11.7,3-16.9,5.9c-1.4,0.9-2.9,1.6-4.6,1.5
		c-2.5,0-4.6,1-6.7,2.4c-2,1.3-4.6,1.7-7,2.1c-4.6,0.7-9,2-13.3,3.6c-1,0.4-2,0.7-3.1,0.9c-5.8,1.2-11.8,2.6-17.7,2.9
		c-2.4,0.1-4.9,0.5-7.3,1.1c-2.9,0.8-5.6,2.2-8.8,1.1c-0.6-0.3-1.6,0.2-2.3,0.6c-3.2,2-6.6,2.4-10.2,2.5c-2.7,0-5.4,0.5-8.2,0.9
		c-2.7,0.4-5.4,1.2-8.1,0.6c-2.1-0.5-4,1.9-6.3,0.9c-3.8,0.5-7.6,0.3-11.4,0.4c-0.8,0-1.7-0.1-2.5,0.2c-7.4,1.9-15.2,1.2-22.7,2.8
		c-2.9,0.6-6,1-8.9,1.1c-5.4,0.4-10.9,0.5-16.3-0.1c-6.6-0.8-13-0.8-19.5-0.3c-1.3,0.1-2.8,0.1-4.1-0.1c-1.6-0.1-3.2-0.5-4.8-0.5
		c-3,0-5.9,0-9,0.3c-3,0.2-6,0.5-9,0.8c-2.8,0.2-5.4,0.2-8.1,1.1c-2.3,0.8-5.3-0.3-7.1,1.6c-3.6,3.6-7.8,6.9-9.2,12.3
		c-0.7,2.4-1.6,4.6-2.5,6.9c-0.3,0.8-0.6,1.9-1.1,2.1c-2.8,1.2-2.3,4.1-3.5,6.1c-1,1.9-2.1,3.9-2.8,6c-0.6,1.9-1.2,3.6-2.8,4.9
		c-1.4,1.2-1.7,2.6-1.7,4.4c0.1,2.5-1.4,4.7-2.5,6.9c-1.1,2.5-3.2,4.3-3.1,7.5c0,0.7-0.6,1.4-1.1,2.1c-0.6,1-1.2,1.8-1.9,2.7
		c-2.1,2.9-3.4,6.3-3,9.8c-1.4,1.2-3,1.7-3.4,3.6c-0.6,2.7-1.9,5.1-3.7,7.2c-2.3,2.7-3.5,6-4.8,9.3c-0.4,1-0.7,2.1-1.3,3
		c-1.6,2.6-3.4,4.9-5.1,7.4c-0.3,0.4-0.7,1-1.1,1.2c-3.3,1.7-4.7,5.2-7,7.9c-1.9,2.3-3.9,4.5-6.5,6.1c-2.7,1.7-5.1,4-7,6.7
		c-1.5,2.3-3.8,3.8-5.9,5.6c-2.9,2.6-6.2,4.4-9.7,5.8c-2.8,1.1-5.4,2.5-7.8,4.4c-0.6,0.5-1.6,1.3-2.1,1c-3.2-1-5,1.8-7.4,2.7
		c-3.1,1.1-6.1,2.3-9.3,3.1c-4.5,1.2-8.8,3.2-13.1,4.7c-0.8,0.3-1.4,0.7-2.3,0.9c-1.3,0.3-2.8,0.2-4,0.7c-2.5,1-4.9,2.3-7.4,3.3
		c-2.8,1.1-5.5,2.4-8.4,3.3c-2.1,0.7-4.2,0.9-6.1,2.3c-1.3,0.8-3.1,1.4-4.7,1.3c-2.3-0.1-4.2,0.5-6.3,1.5c-1,0.5-2,0.5-3.2,0.7
		c-2.2,0.3-4.4,0.5-6.5,0.9c-2.9,0.6-5.8,1.5-8.9,0.6c-0.9-0.3-2.2,0-3.2,0.4c-6.9,2.1-14,2.2-21,2.2c-5.2,0.1-10.3-0.7-15.5-0.7
		c-0.3,0-0.6,0-0.8,0c-4.7-1.7-9.8-1.1-14.5-1.8c-1.9-0.3-3.8-0.6-5.6-1.1c-6.3-1.9-12.6-3.7-18.8-5.7c-2.8-0.9-5.7-2-8.8-2.2
		c-1-0.1-2.1-0.7-3.1-1c-7-3-14.2-5.7-21.8-7.4c-1.4-0.3-2.5-0.9-3.8-1.5c-0.4-0.2-0.6-1-0.5-1.4c0.1-0.4,0.6-1.2,0.9-1.2
		c5.4-0.5,10.2-3.7,15.7-4c3.3-0.1,6.2-2.1,9.3-2.9c4-1,8-1.9,12-3c2.1-0.5,4.3-0.8,6.2-2.2c0.5-0.5,1.5-0.6,2.3-0.8
		c6.9-0.3,13.4-2.6,20.2-2.9c1.8,0,3-1.6,4.5-1.7c5.3-0.5,9.7-3.5,14.8-4.5c1.4-0.2,2.6-0.8,3.7-1.5c1.4-0.9,2.9-1.7,4.5-2
		c3.9-0.6,6.8-3.7,10.8-3.9c0.4,0,0.7-0.7,1.1-1.2c0.6-0.5,1.2-1.3,1.8-1.4c2.3-0.2,4.1-1.4,6-2.6c4.4-2.8,9-5.2,12.9-8.5
		c3.5-3,7.7-5.2,10.7-8.8c0.7-0.9,1.5-1.6,2.4-2.2c5-3.2,8.7-7.4,11.4-12.6c0.8-1.7,2.4-3,3.6-4.4c1.4-1.7,3.2-3.2,4.1-5.1
		c1.7-3.7,4.5-6.9,5.6-10.8c1.5-5.1,3.9-9.6,7.9-13.2c1.1-0.9,1.6-2.2,1.7-3.6c0.1-1.1,0.2-2.2,0.3-3.3c0.3-4.5,1.5-8.6,5.1-11.7
		c1.3-1.1,1.9-2.6,1.8-4.4c-0.1-0.5,0-1.2,0.3-1.6c2.9-3.2,3.4-7.5,5.2-11.1c1.7-3.4,3.2-7,4.5-10.6c0.6-1.6,1.1-3,2.3-4.3
		c1.1-1.3,1.9-2.7,2.3-4.3c0.4-1.7,1.3-3,2.4-4.3c2.1-2.3,3-5.1,4-8c0.4-1.4,0.4-2.6-0.3-3.9c-0.2-0.6-0.2-1.7,0.2-2.3
		c1.7-2.5,3.6-4.8,6.4-6.2c1.9-1,3.8-2.1,4.9-4.2c0.3-0.7,1.2-1.1,1.9-1.4c1-0.4,2.3-0.3,3.1-0.9c5.1-3.4,11-4.5,16.6-6.7
		c1.5-0.6,3.1-0.9,4.6-1.7c1.4-0.8,3-1.3,4.6-1.7c5.6-1.3,11.2-2.4,16.8-3.6c2.2-0.5,4.4-0.5,6.2-2c0.4-0.3,1-0.6,1.5-0.5
		c2.8,0.5,5.4-0.4,8-1.1c2.3-0.6,4.9-0.6,7.3-0.7c2.2-0.2,4.4-0.2,6.5-1c1-0.3,2.2-0.5,3.2-0.5c6.2,0.1,12.5-0.6,18.8-1
		c6-0.4,12-0.6,18.1-1c3.8-0.2,7.6,0,11.4,0.2c4.3,0.3,8.7,0.6,13.1,0.4c10.9-0.3,21.8-0.8,32.7-2.1c0.8-0.1,1.8,0.1,2.4-0.3
		c4.1-2,8.5-1.9,12.8-2.2c5.2-0.3,10.2-1.6,15.2-2.7c4.8-1,9.6-2.3,14.3-3.5c1.3-0.3,2.6-0.9,3.9-1.3c2.8-1.1,5.5-2.4,8.5-3
		c2.7-0.5,4.9-2.6,7.7-2.5c1.8,0.1,2.9-1.6,4.4-1.9c5.6-1.4,10.5-4.5,16-6.2c2.4-0.7,4.7-1.4,6.6-3c1-0.8,2.4-1.3,3.7-1.6
		c6-1.3,11.1-4.4,16.3-7.4c0.8-0.4,1.4-1.1,2.1-1.2c6.3-2,11.6-6.1,17.6-8.8c2-0.9,3.8-2.1,5.6-3.3c5.6-3.5,11.2-6.7,16.9-10.1
		c2.5-1.5,5.5-2.6,7.5-5c0.3-0.4,0.8-0.8,1.4-0.9c3.6-1,5.7-4.2,8.7-6c3-1.7,4.8-4.4,7.1-6.8c0.8-0.8,1.4-1.8,2.4-2.3
		c5-2.7,8-7.3,11.9-11.2c1.3-1.3,2.5-2.8,4-4.2c0.8-0.8,1.7-1.7,2.6-1.8c3.7-0.5,6-3.8,9.1-5.3c2.1-1,3.6-3.4,3.8-6
		c0.1-0.7,0.6-1.5,1.2-2c6.6-5.9,6.6-5.9,10.9-12.8c0.6-1,1.2-1.8,2-2.7c3.7-4.1,7.4-8.2,11.1-12.2c2.8-3,5.3-6.1,7.3-9.8
		c1.7-3.1,3.6-6.1,5.5-9c2-3,2.6-6.6,4.2-9.7c1.5-2.9,3.2-5.7,4.3-8.8c0.4-1.2,0.6-2.7,0.8-4c0.3-1.6,0.8-3.2,1.6-4.6
		c1.2-2.2,2.3-4.4,3-6.7c1.9-6.3,4.6-12.3,6-18.7c0.9-4.3,2.2-8.5,3.7-12.6c1.2-3.6,2-7.3,3-10.9c0.7-2.4,1.2-4.8,2.1-7.1
		c0.5-1.3,1.3-2.5,1.1-3.9c-0.5-2.7,1.3-4.6,2.5-6.8C952.3,1459.4,954.7,1459.4,956,1457.5z"/>
	<path d="M694,1592.6c-2.7,1.2-5.3,2.2-7.7,3.6c-6.2,3.7-13.1,5.4-19.9,7.2c-1,0.3-2.3,0.2-3.2,0.7c-4.1,2.4-8.6,3.3-13.1,4.4
		c-2.7,0.7-5.2,1.7-7.9,2.2c-1.9,0.3-3.8,0.9-5.4,1.8c-3.2,1.7-6.6,2.5-10.1,3.2c-3.5,0.6-6.9,1.4-10.3,2.9
		c-1.2,0.5-2.6,0.8-3.9,1.1c-0.8,0.2-1.6,0.2-2.5,0.3c-3.9,1.2-7.5,3.4-11.8,3.4c-3.8-0.1-7.2,2.4-11.2,2c-2.7,1.5-5.6,1.8-8.7,2
		c-3,0.2-6,1-8.8,1.5c-1.3,0.3-2.7,0.4-4,0.8c-3.4,1.4-6.8,1.8-10.5,1.8c-5,0-9.7,1.6-14.5,2.3c-8.4,1-16.6,3.2-24.9,5.1
		c-6.1,1.4-12.3,2.4-18.2,4.5c-5.7,2-11.5,3.6-15.9,8.1c-0.3,0.4-0.9,0.7-1.4,0.9c-4,1.1-6.4,4.1-9,7c-1.7,1.9-3.3,3.6-5,5.5
		c-0.7,0.8-1.5,1.6-2.3,2.4c-1.5,1.6-4.2,1.8-5.1,3.9c-0.8,1.7-1.2,3.6-2,5.3c-0.4,0.9-1.2,1.8-1.9,2.7c-2.9,3.3-5.9,6.4-7.9,10.4
		c-1.2,2.4-3.4,4.4-5.3,6.2c-3.8,3.7-6.1,8.4-9.3,12.5c-0.8,1-1.2,2.4-1.7,3.7c-1.9,4.8-4.2,9.5-5.7,14.5c-0.4,1.3-1.1,2.5-1.8,3.6
		c-0.5,1-1.2,1.8-1.6,2.8c-1.7,4.8-8.3,21.5-10.2,24c-2.2,2.9-3.5,6.1-5.7,9c-1,1.3-1.8,2.7-2.6,4.1c-0.7,1.2-1.4,2.3-2.7,3
		c-3.3,1.7-5.5,4.5-7.2,7.7c-0.8,1.5-1.7,2.8-2.7,4c-1.6,1.9-3.3,3.6-5,5.5c-8.5,9.4-8.4,9.5-18.3,16c-2.1,1.4-4.3,2.5-5.9,4.4
		c-0.5,0.6-1.2,1.2-1.9,1.5c-7.2,3.8-14.5,7.7-22.6,9.7c-2.7,0.7-5.4,1.1-7.9,1.9c-2.5,0.8-4.9,2.2-7.5,3.2c-1,0.4-2.1,0.9-3.1,0.8
		c-6.9-0.6-13.5,1.3-20.3,2.3c-3,0.4-6.1,0.7-8.8,1.7c-2.6,1-5.3,0.8-8,1.6c-2.9,0.8-5.9,0.3-8.8,1.5c-2.6,1-5.5-0.2-8.1-0.1
		s-5.3,1.4-8,1c-1.9-0.3-3.8-0.4-5.7-0.8c-2.4-0.6-4.9-0.5-7.4-0.3c-4.4,0.4-8.7,1-13,1.2c-4.7,0.2-9.3,0.3-13.9,0.3
		c-1.6,0-3.2,0.2-4.8,1.1c-4.4,2.5-9.5,1.8-14.3,2.6c-2.5-0.9-4.8-0.5-7.2,0.5c-1.2,0.6-2.7,0.6-4,0.4c-2.8-0.2-5.4-0.1-8.1,0.9
		c-1.5,0.6-3.3,0.7-4.9,0.5c-4.8-0.8-9.9-0.7-14.3-3.3c-1.8-1-3.5-1.4-5.5-0.9c-0.7,0.2-1.7-0.1-2.2-0.5c-2.8-2.3-6-3.7-9.3-5.2
		c-3.4-1.7-6.5-4-7.6-8.2c-0.3-1-0.9-2-1.6-2.8c-1.1-1.3-1.9-2.5-1.7-4.4c0.2-2.3,0.4-4.3,2.2-5.9c0.6-0.5,1.1-1.2,1.7-1.9
		c1.8-2.3,4.3-3.5,7.2-3.6c6-0.2,12-1.5,18,0c4.1-0.1,8.1,0.8,12.2-0.6c1.7-0.6,3.8-0.5,5.7-0.7c4.7-0.2,9.3-0.4,14-0.7
		c6.6-0.4,13-1,19.6-1.5c0.6,0,1.2,0,1.6-0.2c3.2-2.1,6.9-1.5,10.4-1.8c1.6-0.2,3.2-0.5,4.8-0.7c1.9-0.3,3.8-0.8,5.7-0.8
		c2.2,0,4.3-0.6,6.4-1.3c2.9-0.9,5.8-1.8,8.7-2.2c6.3-0.8,12.2-3,18-5.5c1.5-0.6,2.9-1.3,4.6-1.5c4.4-0.7,8.5-1.8,12.3-4.1
		c1.4-0.9,3-1.3,4.5-1.9c2.8-1.1,5.3-2.8,7.8-4.4c3-1.9,5.8-4.1,9.1-5.6c2.4-1.2,4.4-3.2,6.8-4.7c2.8-1.8,3.9-5.4,7.1-6.7
		c2.9-1.1,4.5-3.9,6.5-6.1c2.4-2.3,4.2-5.1,6.9-6.9c0.6-0.4,1-1.3,1.5-1.9c3.1-3.6,5.9-7.2,9.1-10.6c1.9-1.9,4.3-3.3,6.2-5.1
		c1.8-1.7,1.9-4.5,3.8-6.3c2-1.9,3.7-4.1,5.5-6.1c1.7-1.9,3.4-3.6,4-6.1c6.5-10.2,10.3-21.7,15.3-32.7c2.3-4.9,3.9-10.2,6.6-15
		c1.2-2.1,3-3.9,3.8-6.3c0.7-2.3,3.1-3.8,3.6-6.3c4.4-5.2,7.1-11.6,12.3-16.2c2.4-2.2,4.1-5,7-6.9c6.2-4,11.7-9,18.9-11.4
		c2.4-0.8,3.8-3.2,6.4-3.4c2.2-0.2,4-1.5,6.1-2.3c3.3-1.4,6.8-2.1,10.1-3.3c1.5-0.5,3.1-0.9,4.6-1.8c2.7-1.6,5.4-2.7,8.6-2.6
		c0.5,0,1.1-0.1,1.5-0.4c5.8-3.4,12.5-4,18.8-5.4c2.4-0.5,4.6-1.7,7-2.2c2.4-0.5,4.8-0.8,7.3-1.2c5.9-1.3,11.8-2.6,17.6-3.9
		c1.3-0.3,2.7-0.7,3.9-1.1c1-0.3,2-0.9,3.1-1.1c5.6-1,11.2-2.4,16.7-3.8c10.3-2.6,22.6-5.7,31.5-8.9c2-0.7,4-1.5,6.3-1.9
		c1.9-0.3,3.4-1.5,5.4-1.7c1.3-0.1,2.6-0.8,3.7-1.5c8-4.2,16.4-7.6,24.6-11.1c4-1.6,8-3.5,11.8-5.8c2.3-1.4,4.3-3.4,6.9-4.3
		c2.6-0.9,4.3-3.4,7.2-3.7c3.7-3.8,9-4.9,12.9-8.4c3-2.7,6.6-4.8,10.1-6.9c3.2-1.9,6.4-4.1,9-7c2.3-2.6,5.4-4.5,8.2-6.7
		c1-0.8,2.4-1.5,3.3-2.4c3.8-4.4,8.4-7.7,13-11.2c1.3-1,2.5-2.2,3.6-3.4c2.4-2.5,4.6-5.4,7.9-7c1.2-0.6,2-1.9,3-2.8
		c2.7-3,5.5-6.1,8.2-9.1c1.5-1.6,2.9-3.3,4.9-4.4c0.7-0.3,1.4-1,1.6-1.6c1-3,3.4-5,5.4-7.2c3.6-4.2,7.4-8.2,11-12.3
		c2.2-2.5,4.6-4.8,5.9-7.7c5.9-7,7.3-9,10.5-15.3c0.8-1.5,1.7-2.8,2.7-4c1.6-1.9,3.3-3.6,5-5.5s3.3-3.6,4.2-6c0.6-1.4,1.8-3,3.1-3.7
		c2.5-1.3,3.4-3.4,3.4-6c-0.1-1.1,0.1-2.1,0.8-3.1c2.8-4.3,5.5-8.8,7.5-13.6c1.3-3,3.3-5.6,4.9-8.5c0.6-1.2,1.6-2.3,1.8-3.6
		c0.6-3.1,2.4-5.5,4-8c1.3-2.1,2.8-4.1,3.6-6.4c1-2.6,2.2-4.7,5.1-6.1c1.6-0.7,2.7-2.7,4-4.1c1.1-1.3,1.8-2.7,1.6-4.5
		c-0.1-1.1-0.3-2.4,0.2-3.2c1.8-3,1.4-6.4,2.6-9.4c0.7-1.8,1.3-3.4,0.8-5.4c-0.2-0.8,0.3-1.6,1-2.1c0.9-0.7,1.7-1.3,2.1-2.4
		c0.5-1.8,1.4-3.6,2.1-5.4c0.3-0.7,0.7-1.7,1.3-1.9c3.3-1.4,3.3-4,2.8-6.9c0-0.3,0-0.5,0.2-0.8c0.3-0.4,0.6-1,0.9-1.3
		c3-3,5.3-6.2,5.5-10.7c2.1-4.1,2.1-9,4.5-13.1c0.3-0.4,0.5-1,0.6-1.5c-0.1-3.7,2.3-6.8,2.6-10.3c0.1-1.9,0.8-3.7,1.4-5.5
		c1.7-5.2,3.3-10.5,4.6-15.8c0.6-2.7,1-5.3,2-7.9c0.9-2.3,0.9-4.9,1.6-7.2c1.3-4.1,1-8.1-0.8-12c-1-2.4-1.3-4.7,0.1-7
		c1.4-2.3,0.8-5.4,2.6-7.6c0.3-0.4,0.4-1,0.3-1.6c-0.6-4,0.8-8.1-0.4-12.2c-0.8-2.3-0.5-4.9-0.6-7.4c0-0.8,0-1.8,0.4-2.4
		c2.4-3.7,1.2-7.5,0.5-11.1c-1-4.7-1-9.2-0.4-13.8c0.3-2.1,0.8-4.4,0.6-6.5c-0.3-4,0.9-7.6,2.5-11c2-4.1,4.5-8.1,6-12.5
		c0.4-1,1.1-1.8,1.8-2.7c1.2-1.5,2.6-2.8,3.8-4.4c5.9-7.5,13.9-12.1,22.2-16.3c2.2-1.1,5-1,6.5-3.3c5.2-0.8,9.6-4,14.6-5
		c2.7-0.6,5.3-1.1,8-2.1c0.6-0.2,1-0.4,1.6-0.4c5.8,0.1,11.3-1.8,17.1-2c5.2-0.2,10.5-0.5,15.6-0.7c2.7-0.1,5.4-0.6,8.2,0.2
		c1.5,0.4,3.3,0.1,5,0c3.5-0.2,7-0.2,10.6,0.5c2.6,0.6,5.4-0.3,8.1-0.4c1.1-0.1,2.3-0.3,3.2,0.2c2,1.2,4.2,0.8,6.4,1.3
		c2.9,0.6,5.9,0,8.9,1c2.8,1.1,6,0.5,8.8,1.7c0.5,0.2,1.1,0.4,1.6,0.3c6.1-0.2,11.9,1.7,17.7,2.9c2.1,0.5,4.3,0.6,6.5,0.9
		c1.9,0.3,3.8,0.4,5.5,1.6c0.4,0.3,1,0.6,1.4,0.6c2.4,0.3,4.9,0.4,7.3,0.8c2.1,0.3,4.2,1.3,6.3,1.5c3.8,0.4,7.6,1,11.3,1.6
		c2.1,0.4,4.6-0.2,6.4,0.8c2.6,1.3,5.2,1.2,8,1.3c1.3,0,2.7,0.6,3.9,0.9c5.9,0.9,11.9,0.9,17.9,2.1c2.4,0.4,4.9,0.2,7.3,0.1
		c4.1-0.2,8.2,0,12.3,0.2c3.3,0.1,6.5,0.6,9.8-0.4c1.8-0.5,3.8-0.2,5.7-0.2c2.4-0.1,4.8-0.1,7.2-1c1.7-0.7,3.7-0.7,5.7-0.8
		c8.2-0.4,16.1-2.9,24.1-4c0.3,0,0.5-0.1,0.8-0.2c11.7-4.5,24.1-7.4,35.6-12.5c5.5-2.5,11.2-4.3,16.6-7.1c3.4-1.8,6.8-3.4,10.2-5.2
		c4.3-2.3,8.5-4.8,13.1-6.8c1-0.4,1.9-1.1,2.8-1.6c3-1.9,5.3-4.8,8.9-5.7c2.4-2.3,5.4-3.8,8-5.7c3.3-2.4,7.2-4.1,10.7-6
		c1-0.5,2.2-0.8,2.7-1.7c2.9-4.1,7.9-5.9,10.9-9.8c1.5-1.9,3.8-2,5.8-3c2-1,2.1-3.9,4.5-4.6c2.8-0.7,4.1-3.5,6.2-5.1
		c2.4-1.8,3.9-4.6,6.8-5.9c0.5-0.2,0.9-0.7,1.1-1.2c3.2-6.5,9.1-11,13.6-16.4c2.9-3.6,6.5-6.6,8.4-11.1c0.2-0.7,0.9-1.3,1.5-1.9
		c3.7-4.1,6.3-8.8,9.2-13.5c1.9-3,3.6-6.1,5.8-8.9c1.5-2,1.3-4.7,3.5-6.4c1.8-1.4,1.9-3.9,2.7-5.9c1.3-3,2.5-6.1,5.1-8.3
		c0.8-0.8,1.5-1.6,2-2.7c0.9-2,1.1-4.4,2.4-6.1c1.3-1.6,3.7-2.2,5.1-4c1.5-2,3.1-3.7,4.1-6.1c1.4-3.5,3.4-6.9,5.1-10.2
		c0.3-0.4,0.3-1.1,0.6-1.4c3.4-4.5,5.2-9.6,6.5-14.9c0.4-1.3,1.1-2.5,1.8-3.6c2.4-3.1,3.8-6.6,5.1-10.2c0.9-2.6,2.3-5.1,3-7.5
		c0.8-2.9,2-5.6,3-8.4c0.9-2.5,1.3-5.3,2.4-7.8c0.8-1.7,1.5-3.5,2.2-5.3c0.4-1,0.7-2,1-3.1c0.2-0.8,0.1-1.7,0.4-2.4
		c2.3-5.3,2.8-11.1,4.2-16.6c1.3-5.3,1.6-10.8,2.5-16.2c0.6-4,1.3-8.1,2.1-12.1c0.1-0.2,0.2-0.5,0.2-0.8c0.1-5.7,1.2-11.4,1.5-17.1
		c0.2-4.9,0.3-9.9,1.1-14.6c0.1-0.2,0.1-0.6,0.1-0.9c-0.4-9.9,1.9-19.5,1.9-29.4c1.1-4.8,0.6-9.8,2.1-14.6c0.5-1.6,0.3-3.3-0.7-4.7
		c-0.8-1.1-0.5-2.1,0.1-3c2.3-3.7,4-7.7,5.2-11.9c0.5-1.6,1-3.1,1.8-4.6c1-2,2.4-3.7,3.2-5.7c0.7-2,0.9-4.3,1.4-6.4
		c0.2-0.8,0.8-1.4,1.2-2.2c1.3-3.5,3.2-7,1.8-11c-0.3-1-0.2-2.2-0.2-3.2c0.1-1.1,0.3-2.4,1.4-2.8c2.7-0.8,2.8-4,5-5.1
		c0.8-4.1,4.1-6.2,6.8-8.8c2.6-2.4,4.8-5.2,7.2-8c1.4-1.7,2.4-3.7,4.1-5.1c1.4-1.2,3.4-1.8,5-2.8c3.5-2.1,6.8-4.7,10.4-6.4
		c5.2-2.5,10.4-4.9,15.5-7.5c3.7-1.8,7.8-2.7,11.6-3.9c2.1-0.7,4.2-1.2,6.3-2c1.8-0.7,3.5-1.4,5.5-1.5c1.1-0.1,2.3-0.1,3.2-0.7
		c2.8-1.6,5.8-1.6,8.7-2.3c3.4-0.8,7-0.9,10.3-2.5c2.7-1.3,6.1-0.2,8.8-1.6c6.1-0.2,11.8-2.3,17.9-2.1c1.6,0,3.3,0,4.9-0.4
		c5.7-1.5,11.4-1.3,17.2-1.8c4.1-0.4,8.3-0.6,12.3-0.6c4.9,0,9.8,0.1,14.7,0.4c5.1,0.4,10.3,0.8,15.5,0.9c2.8,0.1,5.6,0.1,8.2,0.8
		c4.5,1.2,9.3,1.1,13.6,2.8c0.5,0.2,1,0.4,1.7,0.4c6.3,0.5,12.1,3,18.4,3.3c3,0.1,5.7,4.2,5.2,7.2c-0.1,1.4-0.4,2.7-0.7,4.1
		c-0.3,1.4-1.1,2.5-2.5,3c-4.1,1.6-8.2,3-12.2,4.5c-3.1,1.2-6.2,2.2-8.3,5c-0.4,0.6-1.4,1-2.1,1c-2.3,0-4.3,0.7-6.2,2
		c-0.7,0.5-1.4,0.9-2.2,1.1c-3.6,1.3-7.3,2.3-11.1,2.6c-3.4,1.9-7.1,2.5-10.9,3.2c-5.8,1.1-11.9,1.4-17.6,3.4
		c-3,1.1-6.4,1.3-9.7,1.6c-4.4,0.5-8.6,1.5-12.6,3.3c-4.1,1.7-8.6,1.7-12.6,3.6c-15.1,4.2-26.4,11.8-36.1,18.8
		c-3.3,2.4-6.5,4.9-9.2,8.1c-0.7,0.8-1.5,1.6-2.5,2c-1.9,1.1-3.4,2.7-4.9,4.4c-3,3.5-5.9,7-8,11.3c-1.4,2.9-3.1,5.8-4.9,8.5
		c-1.3,1.9-2.3,3.7-2.3,6c0,0.5-0.3,1.1-0.5,1.6c-0.5,1.8-2.6,2.8-2.8,4.9c-0.1,1.9-1,3.7-1.4,5.5c-0.7,2.9-2.7,5.5-1.7,8.7
		c-0.5,2.4-1.7,4.5-1.9,7c-0.3,2.7-1.3,5.3-1.2,8.1c0.1,1.8-0.6,2.5-2.9,4.4c-1.2,4.6-0.3,9.4-2.4,13.7c-0.2,3.6-0.4,7-0.6,10.7
		c-0.3,5.4-0.4,10.9-1.5,16.3c-0.5,2.5-0.5,4.8-0.3,7.3c0.2,3.3,0.4,6.6,0.4,9.9c0,1.6,0,3.4-0.7,4.8c-1.4,2.9-1.5,5.7-1.3,8.8
		c0.2,2.2,0.1,4.4-0.1,6.5c0,0.8-0.3,1.7-0.8,2.2c-1.4,1.6-1.8,3.1-1.4,5.2c0.7,3.2-0.5,6.5,0.4,9.8c0.1,0.6-0.3,1.6-0.9,2.2
		c-0.7,0.9-1.5,1.8-1.3,2.8c0.3,2.4-1.2,4.9,0.4,7.2c0.3,0.4,0.3,1,0.2,1.6c-1.2,3.7-1,7.6-2.4,11.2c-1.6,4.3-2.7,8.9-3.9,13.3
		c-0.5,2.1-1.2,4.2-1.5,6.3c-0.3,1.8-1,3-2,4.4c-0.9,1.1-1.8,2.1-2.2,3.4c-0.5,1.8-0.3,3.8-0.8,5.6c-0.5,1.8-2.3,2.9-2.2,5.1
		c0.1,1.3-0.6,2.7-1.2,3.9c-1,1.9-2.3,3.6-1.7,6c0.4,1.7-0.5,3.3-1.6,4.5c-1.8,2.1-3,4.5-3.2,7.4c-0.1,1.5-1.5,2.3-1.9,3.5
		c-0.4,0.9,0,2.1-0.3,3.2c-0.2,0.8-0.8,1.4-1.3,2.1c-0.7,1.1-1.8,2.1-2.2,3.4c-0.9,3-2.3,5.5-4.2,7.9c-2.1,2.6-3.2,5.7-2.7,9.1
		c0.3,2.3-0.5,4.3-2.2,6c-1,1-1.8,2-2.7,3.1c-1.1,1.3-1.8,2.6-1,4.5c0.8,1.7,0.1,3.3-0.6,4.7c-2,3.6-3.6,7.4-5.2,11.2
		c-1.6,3.8-3.2,7.5-5,11.2c-0.7,1.5-1.6,2.8-2.5,4.2c-1.3,1.8-2.9,3.3-4.3,5c-0.9,1-1.8,2.1-1.9,3.6c-0.5,3.5-2.5,5.9-5,8.2
		c-1.8,1.7-3.6,3.4-4.4,5.9c-0.4,1.2-1.4,2.3-2.3,3.3c-3.4,3.9-7,7.7-10.4,11.6c-1.3,1.4-2.8,2.5-4.4,3.6c-2.2,1.5-3.9,3.7-5.8,5.7
		c-1.7,1.8-3.2,3.9-5.6,4.6c-4.2,3.9-9.3,6.7-13.3,10.8c-0.9,0.9-2.3,1.5-3.4,2.2c-2.7,1.8-5.8,3.1-7.8,5.9
		c-0.6,0.8-1.6,1.4-2.7,1.9c-3.4,1.8-6.7,3.6-10.1,5.4c-1,0.5-1.9,1.1-2.6,2c-1.9,2.4-4.5,4.1-7,5.5c-3.3,1.9-6.4,4-9.9,5.8
		c-3.1,1.6-6.5,2.9-9.7,4.5c-1.4,0.7-3,1.4-4.1,2.6c-2.1,2.3-4.7,3.7-7.6,4.7c-5.4,1.8-10.6,4.3-15.6,7.1c-2.6,1.4-5.5,2.3-8.3,3.3
		c-1,0.4-2.3,0.5-3.1,1.2c-3,3.2-7,3.9-10.8,5.3c-2.3,0.9-4.7,1.6-6.8,2.8c-2.5,1.3-4.8,2.5-7.6,2.8c-1.1,0.1-2.1,0.7-3.1,0.9
		c-2.9,0.8-4.9,3.7-8.3,3.3c-2.8-0.3-5.2,1.7-7.9,2.2c-2.9,0.6-6,1-8.8,1.6c-4,0.8-8,1.8-12,2.6c-6.7,1.3-13.6,1.5-20.4,1.8
		c-5.5,0.3-10.9,0.5-16.5,0.8c-3.5,0.2-7,0.7-10.6-0.1c-1.3-0.4-2.7-0.1-4,0c-1.9,0.2-3.9,1.1-5.6,0.7c-3.3-0.7-6.5-0.4-9.8-1.1
		c-4.8-1.1-9.8-1.4-14.6-1.6c-3.8-0.2-7.6-0.7-11.4-1.4c-6.5-1.1-12.9-2.6-19.4-3.6c-2-0.3-3.5-1.4-5.4-1.8c-1.6-0.3-3.3-0.3-5-0.3
		c-2.5-0.1-4.4-2-7-2.1c-2.1,0-4.5-0.4-6.4-1.2c-2.6-1.1-5.3-1.1-8-1.7c-7.7-1.7-15.4-4-23.2-5.3c-3.8-0.6-7.3-2.4-11.2-2.5
		c-3.8-0.2-7.3-2.2-11.2-2c-5.9-2.5-12.4-2.1-18.3-4c-2.8-0.9-5.9-1-8.8-1.2c-4.6-0.3-9.3-0.3-13.8-1.5c-5.7,0.4-11.4-0.7-17.1-0.2
		c-7.6,0.7-15.1,1.9-22.7,3c-0.5,0.1-1.1,0.1-1.5,0.4c-2.6,1.6-5.6,2.2-8.2,3.5c-2.6,1.4-4.9,3.4-7.1,5.5c-3.8,3.7-6,8.5-9.3,12.5
		c-0.3,0.4-0.7,1-0.8,1.5c-0.6,5-4,9.1-4.2,14.1c-0.1,1.4-1,2.5-1.6,3.7c-2.3,4.7-3.8,9.5-3.8,14.9c0,3.8-0.9,7.6-0.9,11.4
		c0,3.3,0.5,6.4-0.1,9.7c-0.6,2.9-0.8,6-1.2,8.9c-0.2,1.9-0.2,3.8-0.3,5.8c-0.1,1.4,0.1,2.8-0.4,4.1c-1.4,3.5-1.3,6.9-1.2,10.5
		c0,3.5,0.2,7.1,0.4,10.7c0.1,2-0.2,3.7-0.7,5.6c-1.2,4.7-2,9.6-2.1,14.6c0,1.1-0.1,2.2-1,3c-1.2,1-1.5,2.3-1.1,3.7
		c0.9,2.7,0.8,5.2-0.4,8c-0.8,1.7-0.8,3.7-1.1,5.6c-0.3,1.6-0.6,3.4-1.4,4.7c-1.2,1.9-1.7,4-2.2,6.1c-0.4,1.9-0.9,3.7-2.3,5.2
		c-1.3,1.3-1.6,2.8-1.2,4.6c0.2,0.7,0.2,1.6-0.1,2.3c-0.7,2.4-1.3,4.7-2.2,7.1c-1.7,4.3-3.4,8.6-4.8,13.1c-0.4,1.3-1.1,2.5-1.6,3.8
		c-0.4,0.9-1.1,2-1.3,2.9c-1.1,6.3-3.5,12-6.1,17.7c-1.1,2.5-2.3,5.2-1.9,7.9c0.5,3.3-0.6,6.1-2.5,8.4c-2.1,2.7-3.3,5.6-4.1,8.8
		c-0.4,1.3-0.8,2.7-1.8,3.6c-2.8,2.8-3.4,6.9-6.4,9.5c-0.9,2.5-2.7,4.8-2.6,7.6c0.1,1.7-0.5,3.1-1.5,4.5c-0.8,1-1.3,2.3-2,3.6
		c-3.2,6-7.3,11.4-10,17.8c-2.9,3.7-5.5,7.4-7.4,11.8c-0.4,0.9-1.4,1.7-2.1,2.6c-2.5,2.9-5.4,5.5-6.7,9.2c-0.3,0.9-1.3,1.8-2.1,2.6
		c-1.7,2.1-3.5,4.1-4.7,6.7c-0.8,2-2.4,3.6-4.1,5.1c-3.8,3.6-6.1,8.3-10.1,11.8c-2.2,5.1-6.6,8.7-10.2,12.8c-3.2,3.7-6.6,7.4-9.9,11
		c-1.3,1.4-2.5,2.9-4.3,3.8c-1,0.5-1.6,1.2-2.2,2.3c-1,1.7-2.1,3.2-3.3,4.7c-3.5,4.3-7.7,7.8-10.5,12.6c-3.5,2.6-5.7,6.5-9.8,8.7
		c-2.2,1.1-3.9,3.1-4.8,5.5c-1.4,3.5-3.9,6.1-6.6,8.2c-1.8,1.4-3.3,2.7-4.3,4.8c-0.5,1.2-1.9,1.9-2.8,2.8c-0.2,0.2-0.5,0.2-0.8,0.4
		c-4.2,2.1-7.7,5-10.7,8.8c-2.1,2.8-4.6,5.3-7.9,7c-3.1,1.7-6,3.9-8.7,6.2c-2.2,1.8-4.4,3.3-7.2,3.6c-2.9,0.4-4.3,2.1-5.2,4.6
		C694.2,1592.5,694,1592.7,694,1592.6z"/>
</g>
</svg>
