<?xml version="1.0" encoding="utf-8"?>
<!-- Generator: Adobe Illustrator 21.1.0, SVG Export Plug-In . SVG Version: 6.00 Build 0)  -->
<svg version="1.1" id="Calque_1" xmlns="http://www.w3.org/2000/svg" xmlns:xlink="http://www.w3.org/1999/xlink" x="0px" y="0px"
	 viewBox="0 0 841.9 595.3" style="enable-background:new 0 0 841.9 595.3;" xml:space="preserve">
<style type="text/css">
	.st0{fill:#FFFFFF;}
</style>
<g>
	<g>
		<path d="M496.6,428c-2.8-1.9-5.6-3.5-9.2-4c-2.4-0.3-4.7-1.9-7-2.8c-1.3-0.5-2.6-0.9-3.1,1.1c-0.1,0.3-0.7,0.7-0.9,0.7
			c-0.4-0.2-1-0.7-1.1-1c-0.1-3.3-2.6-3.8-5.1-4.3c-1.7-0.4-3.4-0.9-5.6-1.5c0.5,1.4,0.7,2.1,1.1,3.1c-0.4-0.2-1.1-0.3-1.3-0.6
			c-2.6-5.3-7.8-5.2-12.5-6.3c-1.4-0.3-2.7-1.2-4.1-1.8c-0.8-0.4-1.5-0.9-2.3-1c-0.2,0-0.5,1.4-1,1.7c-1.1,0.8-2.4,1.3-3.7,1.9
			c-1,0.5-2.1,0.9-3.1,1.4c-1.3,0.7-2.4,1.5-4,2.4c1.3,1,2.4,1.9,3.7,2.8c-4.3,3.1-8.3,6.9-14.5,6c0,1.9,0,3.3,0,5
			c-1.3-0.7-2.2-1.1-3.1-1.5c-1,3.6-3.9,5.1-6.4,3.5c-0.4,1.9,0.4,4.5-2.2,5.2c-0.8,0.2-1.8-0.4-3.2-0.7c-1.6,0.9-3.6,2.2-5.2,3.2
			c0.7,2.2,1.2,3.7,1.5,4.8c-1.5,1.2-2.6,2-3.5,2.8c-1.4-0.8-2.7-1.7-4.1-2.5c-0.2,0.2-0.5,0.4-0.7,0.6c0.6,1.9,1.2,3.9,1.6,5.2
			c-2.2,0.2-3.8,0.4-5.6,0.6c-0.1-0.9-0.2-2-0.4-3.9c-1.4,2.2-2.5,3.7-3.5,5.2c-0.2,0.1-0.5,0.1-0.7,0.2c-0.1-5-4.4-1.6-5.9-3.4
			c-0.7,0.7-1.3,1.4-2,2.2c-0.2-0.9-0.3-1.7-0.5-3c-0.3,0.7-0.6,1.3-0.9,1.9c-2.9-0.9-5.9-1.8-8.4,1.2c-0.7-0.6-1.5-1.2-2.7-2.3
			c0,1.9,0,3.2,0,4.8c-0.8-0.2-1.5-0.1-1.8-0.4c-2.1-2.6-4.4-3.9-8-3.4c-1.8,0.2-3.7-1-5.6-1.5c-2.6-0.6-5.2-1.1-7.8-1.7
			c-0.2-0.9-0.5-1.7-0.5-2c-2.7-0.7-5.2-1.1-7.6-2c-2.7-0.9-5.3-2.1-7.8-3.4c-1.6-0.9-3.7-2-4.3-3.5c-0.9-2.6-2.6-2.9-4.3-3
			c-0.6-1.3-0.9-2.8-1.7-3.1c-1.3-0.6-3.1-2.7-4.5,1.1c-0.3-2.1-0.5-3.2-0.7-4.5c-5.8,1.5-9.2-1.7-12.3-5.5
			c-0.4-0.5-0.4-1.6-0.3-2.4c0.5-3.9-2.1-9.2-5.4-10.6c0.3-1,0.6-2,0.7-3s0-2.1,0-3.3c-0.9,0-1.7,0-2.7,0c-0.3-3.7-0.5-7.2-0.9-10.7
			c-0.1-0.8-0.9-1.5-1.7-1.9c-0.6-3.8-1.2-7.5-1.9-11.8c-0.3-0.2-1.1-0.9-1.9-1.5c2.5-1.7,2.3-2.9-0.4-4.2c0.2-1.1,0.4-2.2,0.8-4
			c0.8,1.3,1.3,2.1,2.1,3.5c0.3-2.5,0.7-3.9-1.1-5.9c-2-2.2-2.4-5.8-2.2-9c0.2-3.5,0.6-7,0.9-10.4c0.1-1.5,0-3,0-5.2
			c-1,1.7-1.6,2.8-2.6,4.3c-0.6-2.2-1-3.6-1.4-5.1c0.8-0.8,1.1-7,0.6-8.5c-0.8-2.2-1.3-4.6-2-6.8c-0.3-0.8-0.7-1.8-1.4-2.2
			c-2-1.3-2-1.2-0.5-3c-0.6-1-1.5-1.8-1.6-2.7c-0.3-3-1.4-6-0.8-9.1c0.3-1.3,1-3.1-1.2-3.8c-0.2-0.1-0.3-0.5-0.3-0.8
			c-0.3-3.8-0.3-7.6-0.9-11.3c-0.3-2.1-1.5-4-2.1-6.1c-0.4-1.6-1-3.6-0.4-4.9c1.7-3.5-0.6-6.4-0.7-9.6c-0.1-2.6-0.9-5-2.9-6.9
			c-0.3-0.3-0.6-1.1-0.6-1.2c2.5-1.8,0.2-3.3-0.1-5c-0.5-2.5-0.5-5.2-0.6-7.8c-0.1-2.9-0.9-5.8-0.1-8.7c0.1-0.3,0-0.6-0.1-0.9
			c-0.4-0.9-0.9-1.8-1.4-2.9c-0.2,0.1-0.9,0.6-1.7,1.1c0.9-4.2,1.5-8.1-0.3-12.1c-0.5-1.1-0.7-2.6-0.3-3.7c1.3-3.9,1.5-7.8,0.6-11.8
			c0-0.2-0.1-0.5,0-0.5c2.7-1.6,1.9-4.6,2.9-6.9c0.7-1.7,0.4-3.8,1-5.6c1.5-4.6,3.5-9.2,5-13.8c1.2-3.5,1.9-7.1,3-10.7
			c0.8-2.5,1.6-5,2.8-7.3c0.4-0.8,1.8-1.2,2.4-2c1-1,2.1-1.9,3-2.9c1.3-1.4,2.5-3,3.9-4.3c0.7-0.7,1.8-1.1,2.8-1.4
			c1.8-0.6,3.6-1.1,5.4-1.5c3.6-0.7,4.7-3.9,6.6-6.2c0.2-0.3,0.6-0.5,0.9-0.7c0.9,3,4.9,3.7,7.7,1.8c0.9-0.6,2.1-0.7,3.6-1.2
			c0-0.1,0-1.1,0-2.3c2.9,1.4,5.6,2.7,8.3,4.1c0.6,0.3,1.5,1,1.5,1.5c-0.2,3.3,1.8,2.5,3.6,2c2.5,4.5,3.2,4.9,7.8,4.7
			c-0.1-1.4-0.2-2.8-0.4-5.1c2.2,1.5,4.2,2.4,5.7,3.8c3.4,3.6,7.7,4.6,12.3,4.3c2.1-0.1,3.6-0.2,5.3,2c2.1,2.7,5.8,3.4,9.4,3.7
			c2.4,0.2,4.8,0.9,7.2,1.2c1.5,0.2,3.3,1.2,4-1.4c0.1-0.4,1.3-0.6,2-0.6c4.9,0.2,10.1-0.5,14.6,0.9c6.4,2,13.4,0.7,19.3,3.8
			c3.5,1.8,6.4,4.6,9.4,7.2c4.2,3.6,8.4,7.3,12.1,11.4c1.8,2,4.7,3.4,4.8,6.9c0,1.2,0.9,3.3,3.3,3.7c1,0.2,2.3,1.8,2.4,2.9
			c0.4,4.7,3.6,8.2,5.4,12.2c1.7,3.8,2,7.5,2.2,11.4c0.1,2.9,0.5,5.8,0.6,8.7c0,0.8-0.9,1.6-0.9,2.4c-0.1,4.1,0.1,8.3-0.1,12.4
			c-0.2,3.7-0.5,7.5-1.1,11.1c-0.8,4.4-0.7,8.6,1.1,12.8c0.8,1.8,0.3,3.8,1.2,5.9c2.3,5.2,6,6.9,11.3,6.9c-1.6,5-0.5,9.3,3.9,12
			c2.4,1.5,5.4,2,7.2,2.6c2.8,2.4,5,4.2,7.1,6c2.5-1.9,4.4-1.7,6.5,0.2c1.8,1.6,3.6,3.5,6.4,2.5c0.3-0.1,0.6-0.1,0.8,0
			c3.1,2,6.1,3.9,9.1,6c1.1,0.8,1.9,1.2,3.5,1.1c1.6-0.2,3.5,1.7,5.2,2.8c1.1,0.7,2.2,1.4,3.3,2.1c0.6,0.3,1.7,0.4,1.8,0.7
			c0.7,3,3.3,4,5.4,5.5c1,0.7,2,1.7,3.1,2c4,1.1,5.3,4.7,7.3,7.6c2.7,3.8,5.1,7.8,7.5,11.8c0.3,0.5,0.4,1.2,0.6,1.9
			c0.1,0.6-0.1,1.5,0.2,1.7c3,1.8,0.8,4.8,1.8,7c1,2.4,2.1,4.8,2.8,6.5c0,3.7-0.1,6.9,0.1,10.1c0.1,1.5-1.1,3.4,1.2,4.6
			c0.5,0.3,0.5,2.5,0,3.3c-2,2.8,0.9,4.8,0.4,7.3c1.9,0.2,4.1-2.1,4.4,1.2c-0.7,0.2-1.5,0.5-2.3,0.8c0.4,0.7,0.7,1.4,1.2,2
			c0.9,1.2,0.3,3-1.3,3.3c-1.4,0.2-2.9,0.2-4.5,0.3c-0.1,1.2-0.2,2.4-0.2,3.6c1.1,0.3,2.1,0.6,3.1,1c2,0.8,1.9,2,0.9,3.7
			c-1.3,2.3-2.1,4.9-3.1,7.4c-0.5,1.2-1,2.6-1.9,3.6c-1,1.2-3.1,1.3-3.2,3.5c0,0.2-1.7,0.4-2.6,0.4c-1.6-0.1-3-0.1-3,2.4
			c-0.9-0.6-1.6-1.1-2.9-2.1c-0.6,2.6-2.2,5.9-1.3,7c2.4,2.6-2.7,4.6,1,6.6c-0.4,0.1-0.8,0.3-1.2,0.4c-0.5-0.4-0.9-0.9-1.4-1.2
			c-0.5-0.3-1.5-0.8-1.6-0.7c-1.7,2.2-4.3,0.9-5.3,0.2c-2.5-1.5-4.6-0.2-6.8-0.3c-2.5-0.1-5.1,0-7.6,0.1c-1.3,0.1-2.6,0.4-4,0.7
			c-0.1,0.3-0.1,0.6-0.2,0.9c-1.8-1.5-3.8-2.8-5.4-4.5c-0.6-0.6,0-2.3-0.6-3C500.8,428.3,498.8,427.6,496.6,428L496.6,428z
			 M283.8,285.6c-0.2,0.5-0.7,1.1-0.6,1.6c0.7,5.1,1.2,10.2,2.2,15.3c0.8,3.9,2.5,7.6,3.4,11.5c0.7,3,0.6,6.1,1,9.1
			c0.1,0.9,0.5,2.4,0.9,2.4c2.1,0.1,1.5,1.6,1.7,2.7c0.2,0.8,0.1,1.7,0.3,2.6c1,3.4,2.1,6.8,3.2,10.3c0.2,0.6,0.2,1.4,0.6,1.9
			c2,2.9,1.8,6.4,1.5,9.5c-0.3,3.2,0.3,5.7,2,8.2c-1.6,2-2.3,4-0.8,6.4c0.3,0.4,0.1,1.1,0.2,1.7c0.3,2.4,0,5.2,1.2,7
			c1.8,2.6,2.3,5.2,2.4,8.2c0,1.3,1.5,2.5,2.3,3.8c0.2-0.2,0.4-0.3,0.6-0.5c-0.1-2.6-0.3-5.1-0.4-7.7c0.3,0,0.5,0,0.8,0
			c0.5,0.8,0.9,1.6,1.4,2.4c0.6-0.7,1.1-1.4,1.6-1.9c1.4,1.3,3.2,2.3,4.1,3.8c0.9,1.6,0.8,3.7,1.1,5.1c-1-0.5-2-0.9-3.4-1.6
			c0.5,2.3,0.8,4,1.3,5.5c0.2,0.4,1.4,0.7,2,0.6c0.4-0.1,0.8-0.8,1.6-1.8c0,1.1,0.2,1.7,0,2c-1.4,1.8-1,3,0.6,4.7
			c2,2.1,3.3,4.8,4.9,7.3c1.5,2.4,2.6,5.4,4.7,7c4.9,3.7,10.3,6.9,15.7,9.8c5.3,2.8,11.1,4.2,17.1,4.5c3.4,0.1,6.9-1,10.3-1.5
			c1.5-0.2,3.1-0.1,4.6-0.4c7.6-1.8,15.3-3.7,22.9-5.8c3-0.8,6.1-1.8,8.8-3.4c2.7-1.5,5.1-3.8,7.5-5.8c1.6-1.4,4.1-2,4.1-4.8
			c0-0.1,1.5-0.5,1.9-0.2c1.8,1.2,1.6,2.5-0.3,3.6c-0.6,0.4-1.2,0.8-1.7,1.2c0.6,0.7,1.1,1.3,1.6,1.8c-0.2,0.2-0.3,0.4-0.5,0.5
			c-0.7-0.3-1.5-0.5-2.3-0.8c-1.9,2.9-3.7,5.7-5.6,8.5c0.3,0.2,0.6,0.4,0.8,0.6c2-1.7,4.1-3.3,6.1-5c1.5-1.3,3-2.7,4.4-4.1
			c1.9-1.9,3.7-3.9,5.4-6c1-1.2,1.8-2.4,2.8-3.7c1.5-1.9,2.4-4.4,5.1-5.4c1.5-0.6,3.2-1.6,3.9-2.9c1.3-2.5,3.2-2.2,5.4-2.2
			c1.3,0,3.5-0.3,3.8-1.1c1.1-2.8,3.6-2.4,4.8-1.6c4.1,2.7,8.1,0.5,12.8,1.1c-0.9-1.5-1.4-2.4-2.4-4.1c2.3,0.4,3.8,0.6,5.2,1.1
			c0.9,0.3,1.6,1.1,2.5,1.5c0.7,0.3,2,0.2,2.1,0.6c0.9,2.5,3.3,2.3,5.2,2.9c3,0.9,6,1.7,9.2,2.7c4.4,4,10.8,3.6,16.3,6.4
			c0.1-1.3,0.2-2.2,0.3-2.8c2.2,0.3,4.4,0.8,6.6,0.7c5.2-0.3,6.4-1.8,6-6.8c0-0.1,0.1-0.3,0.3-0.6c1.3,0.3,2.7,0.7,4.1,0.8
			c3.8,0.2,6.9-1.3,10-3.5c2.9-2.1,4.7-4.5,4.9-8.1c0.4-5.7-1.1-11-3.1-16.1c-1.3-3.5-2.7-7.1-4.7-10.2c-2.8-4.3-6.2-8.1-9.4-12.1
			c-1-1.3-2.4-3.4-3.5-3.3c-4.2,0.3-4.4-4.2-7.3-5.4c-2-0.8-3.4-3-5.4-3.4c-2.9-0.7-5.4-1.6-7.1-4.3c-1.4,1-2.8,1.9-4-0.2
			c-0.2-0.4-1.4-0.3-2.1-0.5c-1.1-0.3-2.2-0.6-3.3-0.9c-1.9-0.4-3.9-0.8-6-1.3c0.1-2.4-1.8-3-4.2-3.2c-1.7-0.2-3.8-0.1-4.9-1.1
			c-2.1-2-4.2-2.2-6.8-1.6c-0.8,0.2-2.3,0-2.5-0.4c-0.7-1.6-0.9-3.4-1.3-5.1c-0.1,0.2-0.3,0.4-0.4,0.6c-2-1.3-4.2-2.3-5.8-4
			c-1.8-1.8-2.8-4.3-4.3-6.5c-1.1-1.6-2.2-3.3-3.5-4.8c-1.9-2.1-2.1-5.1-3.6-7.1c-3.4-4.3-3.7-9.6-5.2-14.3c-3.1-10-4-20.4-3.5-30.9
			c0.3-6.6,1-13.3,1.3-19.9c0.2-4.5,1-9.4-0.2-13.6c-1.8-6.3-5-12.2-10.7-16.1c-2.5-1.7-4.9-3.7-7.6-5c-3.1-1.5-6.5-2.5-9.8-3.5
			c-2.6-0.8-5.4-1.5-8.1-1.6c-2.4-0.1-4.8,0.8-7.2,0.9c-4.3,0.2-8.7,0.1-13.1,0c-2,0-4.1,0.5-5.3-1.8c-0.1-0.3-0.8-0.4-1.3-0.4
			c-3.3-0.1-6.6,0-9.8-0.3c-1.8-0.2-3.5-0.9-5.2-1.5c-1.1-0.4-2.1-1.1-3.1-1.7c-3.9-2.3-8-4.4-11.7-7.1c-2.6-1.9-3.8-2.2-5.8,0
			c-2-2.2-9.3-2.7-11.7-0.9c-0.4,0.3-1.1,0.2-1.6,0.1c-1.5-0.3-3-1.3-4.4-1c-2,0.4-3.8,1.7-5.7,2.6c-0.7-2.3-2.4-3.4-5.9-4
			c-1.8-0.4-3.4-0.2-4.1,1.5c-0.4,1.1,0.1,2.4,0.2,3.9c-2.3,1.4-3.4,3.9-3.5,6.9c0,1.1-0.3,2.2-0.5,3.3l0.1,0.1
			c0.2-4.1,0.3-8.3,0.5-12.8c-4.1-0.8-1.1-4.7-2-7.8c-0.7,0.4-1.4,0.5-1.8,1c-0.4,0.4-0.6,1.1-1,2c-1.9-3-3.1-3.6-4.8-1.7
			c-2,2.3-4.9,4.1-5.2,7.6c0,0.5-0.1,1-0.3,1.4c-3,5.9-5.2,12.1-6,18.7c-0.3,2.4-0.7,5.1-2.1,6.8c-1.1,1.5-1.2,2.2-0.6,3.7
			c0.3,0.8,0.5,1.7,0.4,2.5c-0.9,4.9-1.9,9.9-2.7,14.8c-0.3,2.1-0.1,4.4,0.1,6.6c0.2,1.6,0.7,3.2,1.1,4.7c1.1,4.9-0.5,9.9,1.3,15
			c1.6,4.4,1.2,9.4,2.5,14.2c1.7,6.2,1.7,12.8,2.7,19.2C281.7,282.9,283,284.2,283.8,285.6z M456.7,400.5c-0.1,0.5-0.2,1-0.3,1.5
			c3.8,1.8,7.5,3.5,11.3,5.2c0.5,0.2,1.2,0.3,1.7,0.1c3.4-1.2,5.3,1.6,7.7,2.9c2.9,1.5,5.7,3.2,9.2,2.3c0-0.5,0.1-0.8,0-0.9
			c-2.5-2.7-6.8-2.5-9.1-5.7c-0.2-0.2-1.1,0.1-1.6,0.2c-2.4,0.2-3.5-1.2-3.9-3.3c-0.1-0.6-0.3-1.2-0.7-2.4c-0.5,1.6-0.8,2.6-1.3,4.2
			c-0.7-1.6-1.1-2.6-1.6-3.9c-2.5,2.6-4.7,3.8-7.4,0.5C460.1,400.3,458.1,400.7,456.7,400.5z M524.3,429.9c-0.9-0.7-1.9-1.9-2.3-1.7
			c-1.2,0.5-2.1,1.5-3.1,2.3c1,0.5,2,1,3.1,1.5c0.4,0.2,0.9,0.2,1.4,0.3c2.4,0.1,4.6-1.7,5.2-4.7
			C526.8,428.5,525.5,429.3,524.3,429.9z M274,235.6c-0.3,0.1-0.6,0.2-0.9,0.3c-1.5,2.8-3,5.5-4.5,8.5c0.8,0.3,1.6,0.5,2.5,0.8
			c0.2-1,0.3-1.8,0.4-2.1c1.2-0.7,2.6-1.1,2.7-1.7C274.4,239.5,274.1,237.5,274,235.6z M317.4,162.2c-1.3-1.1-2.4-2.6-3.8-3.2
			c-0.6-0.3-1.9,1.2-2.9,1.8c0.7,0.7,1.4,1.4,2.2,2c0.5,0.4,1.2,0.4,1.7,0.7s0.9,0.7,1.4,1C316.3,163.9,316.7,163.3,317.4,162.2z
			 M274.6,258.5c0.3,0.1,0.6,0.1,0.9,0.2c0-1.9,0.2-3.8-0.1-5.7c-0.3-2.1-1-4.1-1.6-6.1C271.9,251,274.1,254.7,274.6,258.5z
			 M276.4,259.6c-2.4,3.1-1.7,7.1,1.1,8.4C277.1,265,276.8,262.3,276.4,259.6z M291.2,344c0.5-0.1,1-0.1,1.5-0.2
			c-0.6-3-1.2-6-1.7-9.1c-0.4,0.1-0.7,0.1-1.1,0.2C290.3,337.9,290.8,340.9,291.2,344z M271,253.2c-2.1,2.5-2.2,3.6-0.6,5.8
			c0.3,0.4,1.3,0.3,2.2,0.5C272,257.1,271.5,255.1,271,253.2z M545.4,415.5c-3.6,3.1-3.6,3.1-1.2,5.1
			C544.1,418.8,547.3,417.9,545.4,415.5z M448.8,400.7c0.2,0.4,0.3,0.8,0.5,1.1c2.2,0.7,3.7-0.2,4.8-2.1c-0.1-0.3-0.3-0.7-0.4-1
			C452.1,399.4,450.5,400.1,448.8,400.7z M514.3,434.7c1-2.9-0.6-3.4-2-3.6c-0.4-0.1-1.1,0.9-1.7,1.4
			C511.9,433.2,513,433.9,514.3,434.7z M305.5,392.1c-0.2,0.1-0.5,0.2-0.7,0.3c0,0.8-0.3,1.9,0.1,2.4c0.5,0.7,1.6,0.9,2.5,1.2
			c0.1,0,0.7-1,0.6-1.2C307.2,393.9,306.3,393,305.5,392.1z"/>
		<path d="M496.5,428c0.3,0.5,0.6,1.3,1,1.4c2.6,0.9,3,3,3.4,5.2c-2.8-0.8-5.5-1.5-8.1-2.2c0.1-0.3,0.2-0.6,0.2-0.9
			c0.9,0.1,1.8,0.2,2.7,0.3C496.1,430.5,496.3,429.3,496.5,428C496.6,428,496.5,428,496.5,428z"/>
		<path d="M438.9,416.7c0.6-0.3,1.2-0.5,1.8-0.8c1.2-0.5,2.5-0.9,3.5-1.7c2.1-1.5,4.5-1.2,5.6,0.5c-3.4,1-6.9,2-10.3,3.1
			C439.2,417.5,439.1,417.1,438.9,416.7z"/>
		<path class="st0" d="M300,360.7c-1.8-2.5-2.3-5-2-8.2c0.3-3.1,0.5-6.6-1.5-9.5c-0.4-0.5-0.4-1.2-0.6-1.9
			c-1.1-3.4-2.2-6.8-3.2-10.3c-0.2-0.8-0.2-1.7-0.3-2.6c-0.2-1.1,0.4-2.6-1.7-2.7c-0.3,0-0.8-1.6-0.9-2.4c-0.4-3-0.4-6.2-1-9.1
			c-0.9-3.9-2.6-7.6-3.4-11.5c-1-5-1.5-10.2-2.2-15.3c-0.1-0.5,0.4-1,0.6-1.6l-0.1,0.1c3.1,1.1,1.9,3.9,2.4,5.8c0.8,0.6,1.8,1,2,1.6
			c1.9,6.4,2.9,13,5.7,19.1c0.3,0.6,0.2,1.9-0.3,2.4c-2,2.2-0.3,2.4,1.3,3.2c1.1,0.6,2.2,1.6,2.9,2.6c1.5,2.3,2.8,4.7,4.1,7.1
			c0.2,0.4,0.4,0.9,0.5,1.3c0.1,1.7,0,3.4,0,5.1c0.2-0.1,0.5-0.2,0.7-0.3c0.9,1,1.8,2.1,2.7,3.1c-1.2,0-2.4,0-3.4,0
			c0,2.1,0,4.6,0,7.2c0.8-0.9,1.3-1.5,1.9-2.1c0.3,0.1,0.6,0.2,0.9,0.3c-0.1,2-0.3,4-0.4,6c-0.8-0.1-1.5-0.3-1.8-0.3
			c0.3,2.4,0.6,4.7,0.7,7c0.1,0.7-0.7,2-0.4,2.2c3.2,2.6,0.9,5.2,0.7,7.8c-0.3,0.1-0.6,0.1-0.8,0.2c-0.8-3-1.6-6.1-2.5-9.1
			c-0.2,0-0.4,0-0.5,0C299.9,357.6,299.9,359.1,300,360.7L300,360.7z"/>
		<path class="st0" d="M456.7,400.5c1.4,0.2,3.4-0.2,4.1,0.6c2.6,3.3,4.9,2.1,7.4-0.5c0.5,1.3,0.9,2.3,1.6,3.9
			c0.5-1.6,0.8-2.5,1.3-4.2c0.3,1.2,0.6,1.8,0.7,2.4c0.4,2.1,1.5,3.5,3.9,3.3c0.6,0,1.5-0.4,1.6-0.2c2.2,3.2,6.6,3,9.1,5.7
			c0.1,0.1,0,0.4,0,0.9c-3.5,1-6.3-0.7-9.2-2.3c-2.4-1.3-4.3-4.1-7.7-2.9c-0.5,0.2-1.2,0.1-1.7-0.1c-3.8-1.7-7.5-3.5-11.3-5.2
			C456.5,401.5,456.6,401,456.7,400.5z"/>
		<path class="st0" d="M524.3,429.9c1.1-0.7,2.5-1.5,4.3-2.5c-0.6,3.1-2.8,4.9-5.2,4.7c-0.5,0-1-0.1-1.4-0.3c-1-0.4-2-1-3.1-1.5
			c1-0.8,2-1.8,3.1-2.3C522.4,428.1,523.4,429.2,524.3,429.9z"/>
		<path class="st0" d="M274,235.6c0.1,1.9,0.4,3.9,0.2,5.8c-0.1,0.6-1.5,1-2.7,1.7c0,0.3-0.2,1.1-0.4,2.1c-1-0.3-1.7-0.6-2.5-0.8
			c1.6-2.9,3-5.7,4.5-8.5C273.4,235.8,273.7,235.7,274,235.6z"/>
		<path class="st0" d="M317.4,162.2c-0.7,1.2-1.1,1.8-1.5,2.4c-0.5-0.4-0.9-0.8-1.4-1c-0.5-0.3-1.3-0.3-1.7-0.7
			c-0.8-0.6-1.5-1.3-2.2-2c1-0.7,2.3-2.1,2.9-1.8C315,159.6,316.1,161,317.4,162.2z"/>
		<path class="st0" d="M274.6,258.5c-0.5-3.9-2.6-7.6-0.7-11.7c0.5,2,1.3,4,1.6,6.1c0.3,1.9,0.1,3.8,0.1,5.7
			C275.2,258.6,274.9,258.6,274.6,258.5z"/>
		<path class="st0" d="M276.4,259.6c0.4,2.7,0.7,5.4,1.1,8.4C274.7,266.7,274,262.7,276.4,259.6z"/>
		<path class="st0" d="M291.2,344c-0.4-3-0.9-6.1-1.3-9.1c0.4-0.1,0.7-0.1,1.1-0.2c0.6,3,1.2,6,1.7,9.1
			C292.2,343.8,291.7,343.9,291.2,344z"/>
		<path class="st0" d="M271,253.2c0.5,1.9,1,3.9,1.6,6.3c-0.9-0.2-1.9-0.1-2.2-0.5C268.8,256.8,269,255.7,271,253.2z"/>
		<path class="st0" d="M545.4,415.5c1.9,2.3-1.3,3.2-1.2,5.1C541.8,418.6,541.8,418.6,545.4,415.5z"/>
		<path class="st0" d="M448.8,400.7c1.6-0.7,3.3-1.3,4.9-2c0.1,0.3,0.3,0.7,0.4,1c-1.1,1.9-2.6,2.8-4.8,2.1
			C449.2,401.5,449,401.1,448.8,400.7z"/>
		<path class="st0" d="M514.3,434.7c-1.3-0.8-2.5-1.5-3.6-2.2c0.6-0.5,1.2-1.5,1.7-1.4C513.7,431.4,515.3,431.8,514.3,434.7z"/>
		<path class="st0" d="M305.5,392.1c0.8,0.9,1.7,1.7,2.5,2.7c0.1,0.2-0.5,1.2-0.6,1.2c-0.9-0.3-2-0.5-2.5-1.2
			c-0.4-0.5-0.1-1.6-0.1-2.4C305,392.4,305.3,392.2,305.5,392.1z"/>
		<path d="M362,206.3c2.1-1.6,3.1,0.4,4.9,1.4c2.5,1.5,5.9,2,9,1.9c5.8-0.1,11.7-1.1,17.5-1.4c2.3-0.1,4.6,0.3,6.8,0.8
			c2.7,0.6,4.3,3.3,4.1,6.4c-0.1,1.6-0.3,3.2-0.3,4.8c0,0.6,0.5,1.1,0.8,1.6c0.2-0.1,0.5-0.1,0.7-0.2c0.1-1.3,0.2-2.5,0.4-4.4
			c0.9,1.2,1.4,2,2.1,2.7c0.5,0.6,1.2,1,2.1,1.7c-0.5,0.9-0.9,2.7-2,3.6c-2.8,2.2-2,4.6-1.1,7.2c0.3,1,0.4,2.1,0.4,3.2
			c-0.3,5.1-0.9,10.3-1,15.4c-0.1,3.3,0.4,6.7,0.8,10c0.1,0.9,0.5,1.8,0.8,2.6c1.7,4.1,3.2,8.3,5.3,12.2c3.5,6.3,7.2,12.5,11.4,18.4
			c2.7,3.8,6.5,6.9,9.8,10.2c3.8,3.8,7.4,7.6,11.4,11.1c3.4,3,7.1,5.9,10.9,8.4c4.1,2.6,8.4,4.8,12.8,6.9c2.5,1.3,5.2,2.1,7.8,3.2
			c1,0.4,2.2,0.8,2.9,1.6c2.2,2.4,6.4,1.8,7.9,5.5c0.4,0.9,2.3,1.1,3.6,1.5c2.2,0.8,3.7,2.2,4.5,4.5c0.6,1.5,1.6,2.8,3.1,3.9
			c0.7,3.6,1.5,7.1,2.2,10.7c0.2,1.1,0.8,2.2-1.1,3.1c-0.9,0.4-0.9,2.7-1.8,3.8c-1.2,1.6-2.3,3.3-3.8,5.2c-2.4,0.7-5.3,1.6-8.6,2.5
			c0-0.1-0.2-0.8-0.4-1.4c-3.5-1.7-9.2,1.2-10.7-5.2c-0.9-0.2-1.8-0.4-3.1-0.7c0.1,1,0.1,1.8,0.2,3.5c-1.5-2.4-2.6-2.7-4.4-1.7
			c-0.6,0.4-2.3-0.5-3.2-1.1c-3.1-2.3-6.3-3.2-10.1-1.8c-1.5,0.5-3.4-0.6-5.1-0.3c-3.8,0.6-7.8,1.1-11.2,2.6c-2.6,1.2-4.5,4-6.8,6
			c-3.2,3-6.8,5.5-10.8,7.4c-1.2,0.5-2.2,1.4-3.2,2.2c-2.1,1.9-4.6,1-6.7,0.8c-2.5,4.2-5.7,7.2-10.7,7.9c-2.8,0.4-5.6,1.2-8.4,2
			c-0.5,0.1-0.8,1.1-0.9,1.2c-1.9-0.3-3.4-0.5-4.8-0.8c-0.4-0.1-0.8-0.1-1.1-0.3c-2-1.6-4-3.3-6-5c-0.9-0.8-1.9-1.5-3.4-2.7
			c-0.2,1.6-0.3,2.2-0.4,3.3c-1.3-0.4-2.4-0.7-3.5-1.1c1.9-3.4,1.3-4.5-2.5-6.4c-3.2-1.6-6.2-3.5-9.3-5.4c-1.3-0.8-2.5-1.6-4.2-2.7
			c0.1,1.3,0.1,2,0.1,2.7c-0.3,0.1-0.5,0.2-0.8,0.4c-0.7-1.3-1.5-2.6-1.8-3.2c-2.5-1-4.4-2.4-6.5-2.6c-4.3-0.5-7.7-2.8-11.3-4.6
			c-2.2-1.1-4.9-2.5-5.9-4.5c-1.3-2.8-4.7-3.3-5.5-6.3c0,0-0.2,0-0.3-0.1c-1.9-1.4-1.7-8.4,0-10c1-0.9,1.7-2.1,2.8-3.4
			c-1-0.4-1.8-0.8-2.8-1.3c0.8-1.7,1.5-3.1,2.4-5.1c-0.9-0.4-1.9-0.9-3.4-1.6c-0.1-1.6-0.2-3.5-0.3-5.6c-2.6-0.8-3.5-3.1-4.1-6.7
			s-2.3-7-3.2-10.6c-0.6-2.1-0.8-4.4-1.1-6.6c-0.2-1.3,0-2.7-2-3c-0.5-0.1-1.3-1.9-1-2.6c1.6-3.6-0.7-6.4-1.8-9.4
			c-0.5-1.4-1.5-2.6-2.4-4c2.3-2,0.5-2.7-1.2-3.3c0.8-3.8,0.4-4.4-2.9-5c-0.3-0.1-0.9-0.3-0.9-0.5c0-3.6-4.1-6-2.7-10.1
			c0.7-2.3,0.7-4.8-1.2-6.9c-0.5-0.6-0.4-1.9-0.4-2.8c0-2.6,0.2-5.1,0.3-7.9c0.6,0,1.3,0.1,2.4,0.1c0.8-4.5,1.1-9.3,2.7-13.6
			c1.1-2.9,1.1-5.6,1-8.4c0-1.6-0.3-3.2-0.1-4.8c0.1-1,0.7-2,1.2-3.3c-1.6-3.4-5.8-5.4-11.2-4.6c-0.1-1.9-0.3-3.8-0.3-5.7
			c0-3-0.5-6.1,0.1-8.9c0.7-3.2,1.6-6.3,1.6-9.6c0-0.3,1.4-0.6,2.4-1c-1.1,8.1-2,15.7-3,23.3c0.5,0.2,0.9,0.4,1.4,0.6
			c0.7-0.9,1.5-1.8,2.5-3c4-0.4,5.2-1.9,5.6-7.9c1.3-0.3,2.6-0.7,4.1-1c0.2,1.1,0.4,1.9,0.6,2.9c2.1,0,4,0.7,5.9-1.5
			c1.2-1.5,3.8-2.1,5.8-2.5c7.1-1.4,14.2-3.1,21.4-3.6c5.1-0.3,10.4,0.8,15.5,2C359.3,201.8,360.5,204.5,362,206.3z M427.2,327.9
			c-0.4-1.8-0.3-3.2-1-4.3c-0.8-1.4-0.5-3.7-3-4.2c-1-0.2-1.7-1.6-2.5-2.5c-0.4-0.5-0.6-1.1-1-1.5c-2.9-2.9-5.8-5.8-8.7-8.8
			c-1.2-1.2-2.2-2.6-3.3-3.9c-0.7-0.9-1.3-1.8-1.9-2.7c-1.4-2-2.9-4.1-4.3-6.1c-1.2-1.6-2.2-3.4-3.3-5.1c-0.7-1.1-1.7-2.1-2.2-3.4
			c-2.5-5.8-4.1-11.9-4.8-18.2c-0.2-1.6-1.1-3.1-1-4.6c0.1-2.6,0.7-5.2,1.2-7.8c0.3-1.7,1.3-3.4,1.2-5c-0.3-5-0.8-10-1.4-14.9
			c-0.3-2.4-1.6-3-3.7-2c-1.6-1.2-1.9-2.3-0.6-4.1c0.5-0.7,0.2-2.6-0.4-3.5c-0.9-1.5-1.9-0.9-3.2,0.1c-0.8,0.6-3.4,0.3-3.8-0.3
			c-1-1.8-2.2-1-3.4-1.1c-2.7-0.3-5.5-0.6-8.1-1.4c-2.4-0.7-4.7-3.1-7-2.9c-3.4,0.2-5-2-7.3-3.3c-3-1.7-5.8-4-9-5.1
			c-3.8-1.2-7.4-3.5-11.7-2.8c-0.3,0.1-0.7-0.3-1.1-0.3c-0.7,0-1.5-0.2-2,0.1c-2.7,1.6-5.3,3.3-8.4,5.2c0.5,0.8,1,1.6,1.4,2.3
			c-0.3,0.2-1.5,0.6-1.4,0.8c0.2,0.8,0.5,1.9,1.2,2.3c1.3,0.9,1.8,1.8,2,3.4c1.2,8.7,0.2,17.3,0.2,26c0,0.6-0.1,1.2-0.2,1.7
			c-0.5,3.9-1.4,7.7-1.6,11.6c-0.2,3.7-0.4,7.7,0.5,11.3c1.2,4.9,3.4,9.5,5.1,14.2c1.6,4.5,3.1,9.1,4.8,13.6c1.9,5,4,10,5.9,15
			c1,2.5,2,5,3,7.5c1.9,4.8,0.2,10.7,4.5,14.8c0.2,0.2,0,0.6,0.1,0.8c1.3,4.9,2.4,9.9,4,14.8c0.9,2.7,1.8,5.9,5.8,5.8
			c0.5,0,1.1,0.2,1.7,0.5c4.5,2.2,9.2,3.4,14.3,3.2c9-0.3,16.7,3.5,24.2,8c3,1.8,6.1,4,9.9,2.9c1.6-0.5,3-1.8,4.6-2.1
			c5.1-1.1,8.4-4.9,12.5-7.5c0.9-0.6,1.2-1.8,1.9-2.6c0.7-0.8,1.5-1.8,2.4-2.1c3.5-1.1,7.2-2,10.8-2.9c0.2,0,0.3-0.2,0.5-0.3
			c2-1.5,4.1-3,6-4.6c1.4-1.1,2.3-2.4-0.8-3.7c2.6-1.5,4.8-2.7,7-4c-2.9-2.6-5.4-6-9.9-6.5c-0.4,0-1.1-0.6-1.2-1
			c-0.8-3-3.6-3.8-6-5.2c0.2-0.8,0.4-1.7,0.8-3.6C432,330.2,430.7,324.7,427.2,327.9z M397,269.2c-2,3.7-0.7,6.1,2.6,5.8
			C398.6,273,397.8,271.1,397,269.2z M329.4,342.9c-0.2,0-0.4,0-0.6,0c0,3,0,6.1,0,9.1c0.2,0,0.4,0,0.6,0
			C329.4,349,329.4,345.9,329.4,342.9z M337,346.6c-0.3-0.2-0.6-0.3-1-0.5c-0.4,0.8-1,1.7-1,2.5c0,0.7,0.8,1.4,1.2,2.2
			c0.2-0.1,0.5-0.2,0.7-0.3C337,349.2,337,347.9,337,346.6z"/>
		<path d="M299.9,360.7c0-1.6,0-3.2,0-4.8c0.2,0,0.4,0,0.5,0c0.8,3,1.6,6.1,2.5,9.1c0.3-0.1,0.6-0.1,0.8-0.2
			c0.2-2.6,2.5-5.2-0.7-7.8c-0.3-0.2,0.4-1.5,0.4-2.2c-0.2-2.3-0.5-4.6-0.7-7c0.3,0.1,1,0.2,1.8,0.3c0.2-2.1,0.3-4,0.4-6
			c-0.3-0.1-0.6-0.2-0.9-0.3c-0.5,0.6-1.1,1.2-1.9,2.1c0-2.6,0-5.1,0-7.2c1,0,2.2,0,3.4,0c-0.9-1-1.8-2.1-2.7-3.1
			c-0.2,0.1-0.5,0.2-0.7,0.3c0-1.7,0-3.4,0-5.1c0-0.4-0.2-0.9-0.5-1.3c-1.3-2.4-2.6-4.8-4.1-7.1c-0.7-1.1-1.8-2.1-2.9-2.6
			c-1.6-0.8-3.3-1-1.3-3.2c0.5-0.5,0.6-1.8,0.3-2.4c-2.8-6.1-3.8-12.7-5.7-19.1c-0.2-0.6-1.2-1-2-1.6c-0.5-1.9,0.8-4.7-2.4-5.8
			c-0.1-2.5-0.2-4.9-0.4-8.2c2.9,2.2,1.7,6,4.8,7.6c-0.6-2.6-1.3-5.2-1.9-7.8c-0.3-1.6-0.5-3.2-0.6-4.8c0-0.3,0.6-0.7,1-1.1
			c0.3,0.4,0.9,0.7,1,1.2c0.7,3.3,1.3,6.7,1.8,10c0.4,2.5,0.2,5.1,0.7,7.6c1,4.9,2.1,9.7,3.3,14.6c0.7,2.9,1,6.3,2.6,8.5
			c1.4,1.9,2.2,3.7,2.9,5.8c0.1,0.4,1,0.9,1.4,0.8c0.5-0.2,1.1-0.8,1.3-1.4c0.3-0.9,0.2-1.9,0.8-2.9c0.2,0.9,0.4,1.8,0.5,2.7
			c0.1,3.2-0.1,6.4,0.3,9.5c0.2,1.5,1.4,2.8,2.9,4.4c0.5-2.4,1-4.8,1.5-7.2c0.5,0.1,1,0.3,1.5,0.4c-0.6,2-1.4,4.1-1.7,6.1
			c-0.2,1.2,0,2.7,0.5,3.8c0.8,1.8,1.9,3.2-0.2,5c-0.9,0.8-1,2.7-1,4.1c0,3,0.5,6,0.3,8.9c-0.4,4,0.3,8.1-2,12c-1.1,2-0.6,5-0.7,7.5
			c-0.1,1.1,0,2.2,0,3.2c-0.5,0-1,0.1-1.4,0.1c-0.3-2.3-0.9-4.5-0.9-6.8C301.7,366.4,301.6,363.4,299.9,360.7z"/>
		<path d="M422.3,399.8c1.6,1.1,3,2.1,4.6,3.2c-1.6,1.2-2.9,2.3-4.4,3.2c-0.3,0.2-1.3,0-1.5-0.3c-0.4-0.8-0.7-1.8-0.6-2.7
			C420.7,402.3,421.4,401.4,422.3,399.8z"/>
		<path d="M299.3,185.4c-0.4,1.7-0.7,3.4-1.3,6.1c-0.8-1.3-1.4-1.8-1.5-2.5C296.3,187,297.5,185.9,299.3,185.4
			C299.4,185.5,299.3,185.4,299.3,185.4z"/>
		<path d="M295.7,172.5c-1.7,0.9-3.4,2.3-5.8-0.3c2.3-0.3,4-0.5,5.8-0.7C295.6,171.8,295.6,172.1,295.7,172.5z"/>
		<path d="M313,345.9c0-1.1,0-2.2,0-3.9c0.9,0.6,2,1,2,1.4c-0.1,1-0.7,1.9-1.1,2.8C313.6,346.1,313.3,346,313,345.9z"/>
		<path class="st0" d="M322.2,218.6c-0.6-0.5-1-1.5-1.2-2.3c0-0.2,1.1-0.7,1.4-0.8c-0.4-0.6-0.9-1.5-1.4-2.3
			c3.1-1.9,5.7-3.7,8.4-5.2c0.5-0.3,1.3-0.2,2-0.1c0.4,0,0.7,0.4,1.1,0.3c4.3-0.8,8,1.6,11.7,2.8c3.2,1,6,3.4,9,5.1
			c2.3,1.3,3.9,3.6,7.3,3.3c2.2-0.2,4.5,2.2,7,2.9c2.6,0.8,5.4,1.1,8.1,1.4c1.3,0.1,2.5-0.6,3.4,1.1c0.4,0.7,3,0.9,3.8,0.3
			c1.3-1,2.4-1.6,3.2-0.1c0.6,1,0.9,2.8,0.4,3.5c-1.3,1.8-0.9,2.9,0.6,4.1c2.2-1,3.5-0.4,3.7,2c0.5,5,1.1,9.9,1.4,14.9
			c0.1,1.7-0.9,3.3-1.2,5c-0.5,2.6-1.1,5.2-1.2,7.8c-0.1,1.5,0.9,3.1,1,4.6c0.7,6.3,2.3,12.4,4.8,18.2c0.5,1.2,1.5,2.2,2.2,3.4
			c1.1,1.7,2.1,3.5,3.3,5.1c1.4,2,2.9,4.1,4.3,6.1c0.6,0.9,1.3,1.9,1.9,2.7c1.1,1.3,2.1,2.7,3.3,3.9c2.9,3,5.8,5.8,8.7,8.8
			c0.4,0.4,0.6,1.1,1,1.5c0.8,0.9,1.5,2.3,2.5,2.5c2.5,0.5,2.1,2.8,3,4.2c1.2,1.3,1.2,2.8,1.5,4.6c3.5-3.2,4.8,2.4,7.8-0.3
			c-0.4,1.9-0.6,2.8-0.8,3.6c2.4,1.5,5.2,2.2,6,5.2c0.1,0.4,0.8,1,1.2,1c4.5,0.5,7,3.9,9.9,6.5c-2.2,1.3-4.4,2.5-7,4
			c3.2,1.2,2.2,2.5,0.8,3.7c-1.9,1.6-4,3-6,4.6c-0.2,0.1-0.3,0.2-0.5,0.3c-3.6,1-7.2,1.8-10.8,2.9c-0.9,0.3-1.7,1.3-2.4,2.1
			c-0.7,0.8-1.1,2.1-1.9,2.6c-4.1,2.7-7.4,6.5-12.5,7.5c-1.6,0.3-3,1.6-4.6,2.1c-3.8,1.1-6.9-1.1-9.9-2.9c-7.5-4.5-15.2-8.3-24.2-8
			c-5.1,0.2-9.8-1-14.3-3.2c-0.5-0.3-1.1-0.5-1.7-0.5c-4,0.1-4.9-3.1-5.8-5.8c-1.6-4.9-2.7-9.9-4-14.8c-0.1-0.3,0.1-0.7-0.1-0.8
			c-4.3-4.1-2.6-10-4.5-14.8c-1-2.5-2-5-3-7.5c-2-5-4.1-10-5.9-15c-1.7-4.5-3.1-9.1-4.8-13.6c-1.7-4.7-3.9-9.4-5.1-14.2
			c-0.9-3.6-0.7-7.5-0.5-11.3c0.2-3.9,1-7.7,1.6-11.6c0.1-0.6,0.2-1.2,0.2-1.7 M340,229.9c1.1,1.7,1.9,3,2.9,4.2
			c1.7,2.2,1.5,3.1-0.8,4.7c-2.2,1.6-6.4,0.9-6,5.4c0,0.1-0.1,0.2-0.2,0.2c-3.9,1.7-1.8,5-1.7,7.5c0.2,3.3,1.2,6.6,1.7,9.9
			c0.5,3.6,0.8,7.2,1.1,10.8c0.1,1.5,0.2,3,0.1,4.5c-0.2,3.9-1.1,7.8-0.7,11.5c0.5,4.5,2.1,9,3,13.5c0.9,4.7,1.9,9.3,4.3,13.5
			c1.5,2.6,3.6,5.1,4.5,8c1.6,4.9,5.8,6.5,9.8,8.1c3.3,1.4,6,3.3,8.4,5.9c2,2.1,3.6,4.5,6.5,6.1c4.2,2.3,7.8,5.6,12.3,7.7
			c3,1.5,5.9,2.7,9.3,1.8c1.8-0.5,3.6-0.7,5.4-1c0.5-0.1,1.3,0,1.6-0.3c3.3-3,7.8-3.3,11.6-5c1.8-0.8,5.4-5.5,4.7-7.3
			c-0.9-2.4-2.1-4.6-2.9-7c-1.3-4.1-4.4-6.7-7.3-9.4c-1.8-1.7-4.1-3-6-4.6c-1.3-1.1-2.3-3.3-3.7-3.6c-2.8-0.5-4.5-2.3-6.3-4.1
			c-0.9-0.9-2-1.7-3.1-2.5c-3.9-2.8-8.2-5.1-11.5-8.4c-3.7-3.7-6.6-8.2-5.7-14c0.4-2.8,0.8-5.5,1.5-8.2c0.8-3.4,1.8-6.7,2.8-10
			c0.9-2.9,2.1-5.7,3-8.5c2.2-6.4-0.5-11.9-4.7-15.8c-3.8-3.5-9.2-5.2-14-7.6c-2.5-1.2-5.1-2.2-8.5-3.7
			C348.4,232.6,344.3,232,340,229.9z"/>
		<path class="st0" d="M397,269.2c0.8,1.9,1.7,3.8,2.6,5.8C396.3,275.4,395,272.9,397,269.2z"/>
		<path class="st0" d="M329.4,342.9c0,3,0,6.1,0,9.1c-0.2,0-0.4,0-0.6,0c0-3,0-6.1,0-9.1C329,342.9,329.2,342.9,329.4,342.9z"/>
		<path class="st0" d="M337,346.6c0,1.3,0,2.6,0,3.8c-0.2,0.1-0.5,0.2-0.7,0.3c-0.4-0.7-1.2-1.4-1.2-2.2c0-0.8,0.6-1.7,1-2.5
			C336.4,346.3,336.7,346.4,337,346.6z"/>
		<path d="M340,229.9c4.3,2.1,8.4,2.8,11.5,2.4c3.4,1.5,6,2.5,8.5,3.7c4.8,2.4,10.2,4.1,14,7.6c4.2,3.9,6.9,9.4,4.7,15.8
			c-1,2.9-2.1,5.6-3,8.5c-1,3.3-2,6.6-2.8,10c-0.7,2.7-1.1,5.5-1.5,8.2c-0.9,5.8,2,10.3,5.7,14c3.3,3.3,7.6,5.6,11.5,8.4
			c1.1,0.8,2.2,1.5,3.1,2.5c1.8,1.8,3.5,3.5,6.3,4.1c1.4,0.3,2.3,2.5,3.7,3.6c1.9,1.6,4.2,2.9,6,4.6c2.9,2.8,6,5.4,7.3,9.4
			c0.8,2.4,2,4.7,2.9,7c0.7,1.8-2.9,6.5-4.7,7.3c-3.8,1.7-8.3,2.1-11.6,5c-0.3,0.3-1.1,0.2-1.6,0.3c-1.8,0.3-3.6,0.5-5.4,1
			c-3.4,0.9-6.3-0.3-9.3-1.8c-4.4-2.1-8.1-5.4-12.3-7.7c-3-1.6-4.5-4-6.5-6.1c-2.4-2.6-5.1-4.5-8.4-5.9c-4-1.7-8.1-3.2-9.8-8.1
			c-0.9-2.8-3-5.3-4.5-8c-2.4-4.2-3.4-8.8-4.3-13.5c-0.9-4.5-2.5-8.9-3-13.5c-0.4-3.8,0.5-7.7,0.7-11.5c0.1-1.5,0-3-0.1-4.5
			c-0.3-3.6-0.6-7.2-1.1-10.8c-0.5-3.3-1.5-6.6-1.7-9.9c-0.2-2.5-2.2-5.8,1.7-7.5c0.1,0,0.2-0.1,0.2-0.2c-0.3-4.4,3.8-3.8,6-5.4
			c2.3-1.6,2.5-2.6,0.8-4.7C341.9,232.9,341.1,231.5,340,229.9z M399.8,326.1c-2.5-2.4-4.5-4.8-7.1-6.6c-3.8-2.7-8.2-4.6-12-7.4
			s-7.2-6.2-10.8-9.2c-7-5.9-10.4-13.7-11.6-22.6c-0.4-2.6-1.3-5.2-0.9-7.7c0.7-4.5,2.1-9,3.2-13.5c0.3-1.1,0.3-2.4,0.9-3.3
			c2.1-3.4,2.9-7,2.5-10.9c-0.1-1-0.9-2.4-1.7-2.7c-3.1-1.1-6.4-2-9.6-2.6c-0.7-0.1-2.4,1.1-2.4,1.7c0,3.6,0,7.2,0.5,10.7
			s2,6.9,2.4,10.4c0.5,4.7,0.4,9.5,0.6,14.2c0.2,5.8,0,11.7,0.9,17.4c1.2,7.1,2.3,14.3,5.6,20.8c0.9,1.7,2.1,3.3,3.3,4.8
			c2,2.5,5.5,2.6,8.1,4.2c4.6,2.8,10.1,4.4,15.8,4.4C391.5,328.2,395.6,328.8,399.8,326.1z M345.7,241c-0.3-0.2-0.6-0.4-0.9-0.6
			c-0.4,0.9-1.2,1.8-1.1,2.6c0.7,5.8,1.5,11.6,2.4,17.3c0.4,2.6,1.7,5.5,1,7.7c-0.9,2.6,2.1,5.2-0.5,7.4c-0.1,0.1,1,1.4,1.5,2.1
			c0.6-0.7,1.3-1.3,1.6-2.1c1.4-3.6-2.8-7-0.5-10.7c0-0.1-0.1-0.2-0.1-0.3c-0.9-5-2-10-2.8-15C346,246.8,345.9,243.9,345.7,241z
			 M348.4,279.6c-1.6,2.6-2.8,4.7-0.3,7c0.3,0.2,0,0.9,0.1,1.4c0.4,3.9-0.5,7.9,1.5,11.8c1,2,0.8,4.8,1.1,7.1c2.9,0,3.2-0.5,2.1-2.6
			c-0.4-0.9-0.4-1.9-0.6-2.9s-0.4-2-0.7-3c-0.3-1.1-0.7-2.2-0.9-3.3c-0.1-0.8,0.2-1.6,0.1-2.3C350.1,288.5,349.3,284.2,348.4,279.6z
			 M344.1,279.4c-2.1,2.1-2,4.3,0.7,6.7C344.5,283.5,344.3,281.7,344.1,279.4z"/>
		<path class="st0" d="M344.1,279.4c0.2,2.3,0.4,4.1,0.7,6.7C342.1,283.7,342,281.5,344.1,279.4z"/>
	</g>
</g>
</svg>
