<?xml version="1.0" encoding="utf-8"?>
<!-- Generator: Adobe Illustrator 21.1.0, SVG Export Plug-In . SVG Version: 6.00 Build 0)  -->
<svg version="1.1" id="Calque_1" xmlns="http://www.w3.org/2000/svg" xmlns:xlink="http://www.w3.org/1999/xlink" x="0px" y="0px"
	 viewBox="0 0 841.9 595.3" style="enable-background:new 0 0 841.9 595.3;" xml:space="preserve">
<g>
	<g>
		<path d="M335.7,528.5c0-0.6,0-1.1,0.2-1.6c0.4-2.7-1-4.4-3.3-4.3c-1,0.1-2.2,0.4-3.4,0.6c-2-1.8-4-3.7-5.7-5.5
			c-6.1-1.1-6.1-1.1-10-5.2c-1.7-1.8-3.4-3.6-5.3-5.3c-1.9-0.3-3.8-0.4-5.7-0.7s-3.8-0.7-5.1-2.4c-1.4-1.8-3.4-2.4-5.6-2.7
			c-3.2-0.4-6.4-1.1-9.9-1.8c-2.7-3.8-6.7-5.9-11.4-7.3c-1.3-0.5-2.6-1.3-3.8-1.5c-1.4-0.3-2.6-1-3.4-1.9c-2.9-3.6-7.1-5-10.7-6.9
			c-3.3-1.7-5.7-3.9-7-7.7c-0.4-1-0.9-2.1-1.7-2.7c-0.7-0.7-1.9-1.4-2.9-1.6c-1.3-0.2-2.7-0.1-4.1-0.1c-3.3,0.2-5.1-1.2-6.1-4.3
			c-0.1-0.4-0.5-0.9-0.7-1.4c-1.6-0.2-3.2-0.4-4.8-0.9c-1.5-0.7-2.7-1.7-4.2-2.7s-2.6-1.8-4-2.8c-1.5-1-3.1-0.8-4.5-2.1
			c-1.6-1.1-3.5-1.5-5.1-2.4c-1.5-1-2.4-2-4.2-2.3c-1.1-0.3-1.7-1.3-2-2.4c-0.6-2.4-1.6-3.9-4.1-4.7c-1-0.5-2.2-0.8-2.9-1.6
			c-2.7-3.1-6-5.5-8.5-8.8c-3.3-4.1-7-7.7-10.5-11.5c-0.7-0.7-1.6-1.7-2.4-2c-3.1-0.8-5.1-3.2-7-5.3c-8.4-8.9-16.9-18-25.3-26.9
			c-1.2-1.2-2.3-2.4-3.4-3.6c-2.1-2-4.7-2.2-7.5-0.4c-0.9,0.5-1.7,1.6-2.7,2c-0.6,0.3-1.7-0.1-2.2-0.6c-0.8-0.6-1.7-1.5-1.8-2.5
			c-0.7-3.6-2.9-5.8-6.4-6.8c-1.6-0.5-2.7-1.7-3.9-3c-4.7-5-9.4-10-14-14.9c-5.8-6.2-11.6-12.4-17.5-18.6c-2-2.1-4.3-4.2-4.9-7.4
			c-0.2-1.1-1.6-2.2-2.2-3.3c-1.3-1.4-2.4-2.8-3-4.9c-0.2-1.1-1.4-2.4-2.1-3.4c-2.1-2.5-4.7-4.7-6.6-7.3c-1.3-1.7-1.9-3.8-4.2-4.5
			c-2.8-3-5.7-6-8.4-8.9c-0.7-0.7-0.4-2.2,0.4-3c0.9-0.8,1.8-1.4,2.8-1.5c7.2-0.2,14.3,0,21.2,0.8c2.3,0.2,4.2,1.1,6.2,1.8
			c2,2.4,5.4,2.6,7.6,4.5c2.7,2.3,5.4,4.3,8.8,5.7c1.3,0.5,2.3,1.3,3.4,2.2c1.4,1.2,2.7,2.6,4.9,2.8c0.7,0.2,1.5,0.7,2,1.3
			c1.6,1.7,3.2,2.6,5.5,3.4c1.7,0.7,2.8,2.7,4.6,3.4c2.9,0.9,5,2.2,5.6,5.3c0.1,0.4,0.7,1,1.2,1.2c3.6,1.1,5.4,4.6,7.8,6.9
			c1,1.1,1.6,2.2,2.1,3.4c0.7,1.6,3.7,3.1,5.5,2.5c0.7-0.1,1.5-0.6,2.4-0.8c1.4-0.2,3,0.1,3.5,1.5c0.7,1.6,1.7,2.7,3.4,3.1
			c3.4,1.1,6.5,3,9.9,3.8c3.5,1,6,3.4,9.4,4.6c1.1,0.3,2.1,1.7,3,2.6c1.3,1.4,2.7,2.6,4.7,3.3c2.6,1,4.3,3.4,5.8,5.6
			c0.2,3.3,2.5,4.5,5.3,5.3c2.7,2.6,7,3.2,9.5,6.2c0.4,0.4,1.6,0.5,2.3,0.7c1.3,0.5,2.4,1.4,2.8,2.7c0.3,0.9,0.1,2.3,0,3.4
			c0.5,0.9,1.1,0.3,1.9,0.3c1.6-0.4,3.3-0.5,4.7,0.4c1,0.5,2,1,3,1.4c1,0.5,1.7,1.3,2,2.4c0.4,1.9,1.7,3.5,3.5,4.4
			c3.6,1.4,5.7,3.9,6.8,7.6c0,0.3,0.4,0.4,0.5,0.6c0.4,0.7,2.4,0.9,2.8-0.1c0.6-1.1,1.1-2.4,1.9-3.4c0.3-0.3,1-0.4,1.4-0.2
			c2.3,1.3,4.3,2.8,4.1,5.5c-0.1,2.7,0.3,4.8,2.3,6.7c0.7,0.7,1.4,1.8,1.5,2.8c0.5,3,2.8,4.5,4.8,6.3c2.7-1.1,5.1-1,6.8,1.3
			c0.1,0.1,0.4,0.4,0.5,0.6c1.2,1.2,2.4,0.9,3.8,0.4c1.1-0.2,2.3,0.2,2.4,1.4c0.4,1,0.9,2.1,0.9,3.1c0.9,4,2.9,7,6.6,9.2
			c0.6-0.8,1.3-1.7,2-2.4c0.6-0.5,1.2-1.2,2.2-1c0.8,0,1.8,0.4,1.7,1.3c0,0.6,0,1.1,0.1,1.6c0.3,2.8,2.2,4.5,4.7,4.4
			c1.7,0.1,3.5-1.9,5.4-0.3c1.3,1.4,0.8,3,1,4.7c0,0.6,0.4,1,0.6,1.5c0.4,0.7,1.2,1.5,2,1.3c1.9-0.7,3.7-0.6,5.1,1.2
			c0.3,0.3,1,0.5,1.5,0.7c1.5,0.7,2.8-0.1,4-1.7c0.3-0.6,0.6-0.8,1-1.5c0.6-0.5,1.6-0.7,2.3-0.1c1.2,1,2,1.8,2.2,3.3
			c0.6,3.1,2.7,5.4,5.8,6.2c1.9,0.6,3.3,2,5.4,1.8c2.1-0.3,3.7,0.5,5.2,1.9c1.3,1.1,3,1.7,4.6,1c2.1-0.9,3.6-0.7,5.1,0.9
			c1.2,1.2,2.3,2.4,2.7,2.8c2.1,1.4,3.5,1,4.8,1.1c0.6,0,1.1,0,1.6,0.2c2.3,1.6,4.9,2.5,7.1,3.9c0.8,0.6,1.6,1.4,2.4,2.3
			c1.2,1.2,2.3,2.4,3.4,3.4c2.7,0.1,5-0.1,7.1-0.1c0.6,0.3,0.7,0.4,1,0.7c2.5,3.3,6.3,5.2,10.2,6.3c2.7,0.6,4.4,2.2,4.7,5
			c0.2,1.4,1.4,2.4,2.8,2.4c1.3,0.2,2.7,0.1,4.1,0.1c1.1,0,1.8-1.1,1.1-2.4c-0.5-0.9-1.1-1.8-1.5-2.5c0.3-1.4,1.4-0.7,1.9-0.7
			s1.1,0,1.6,0.2c1.6,0.8,3.3,1.7,4.9,2.5c1.1,1.8,1,3.9,2.7,5.1c0.7,0.4,1.5,0.7,2.1-0.3c0.1-0.1,0.3-0.6,0.4-0.7
			c1.2-1.4,2.5-1.8,3.4-1.2c1.6,1.7,3.9,1.7,5.8,3.1c1.4,1.2,2.7,2.6,4.1,4.1c0.4,0.4,0.7,0.7,1.2,1.2c0.8,0.9,2,1,3,0.4
			c0.7-0.4,1.4-1,2-1.6c1.8-1.7,3.8-1.9,6-1.2c1.5,0.7,2.9,1.3,4.6,1.3c2.5-0.1,4.9,0.2,7.4-0.1c2.7-0.2,4.8,1.5,7.2,1.2
			c1.8-0.3,3.3-0.2,4.5,1.1c0.7,0.7,1.9,1.1,2.9,1.3c1.6,0.2,3.5,0.4,4.8-0.3c2.4-1.1,4.1-0.4,6.1,0.5c2.2,1.1,4.8,1.8,6.6,3.1
			c2,1.5,3.5,1.2,5-0.1c1.2-0.9,2.5-1,3.7,0c1.3,1.1,2.6,1.8,4.4,1.9c2.7,0.1,5.4-0.3,8,1c0.1,0.1,0.6,0,0.8,0
			c4-2.1,7.3,0.8,10.9,1.7c1,0.2,2,0.7,3.1,0c1.7-1.3,3.2-1.7,5.3-1c2,0.7,4.2,0.6,6.4,0.8c1.9,0.3,3.8,0.1,5.6,1.1
			c1.7,1,3.7,0.8,5.5,0.2c1.3-0.4,2.6-0.8,4-0.9c1.6-0.1,3.3,0.1,4.6,1.3c0.8,0.6,1.7,1.5,2.7,1.1c0.6-0.3,1.2-1.2,1.8-1.4
			c0.6-0.3,1.8-0.6,2.4-0.2c2.8,1.9,6.4,0.8,9.5,2.2c0.6,0.3,1.4,0,2.4,0.1c1-0.1,2.2-0.4,3.3-0.7c1.6-0.7,2.9-1.1,4.5,0
			c0.4,0.2,1,0.5,1.6,0.5c2.8-0.1,5.3,1.4,7.4,2.8c1.6-0.7,3-1.7,4.7-2c1.3-0.4,2.8-0.1,4.1-0.2s2.7-1.4,2.7-2.5
			c0.2-2.3,0.1-4.4,0.3-6.6c0.3-1.9,1.5-3.5,0.5-5.5c-0.1-0.4,0.2-1,0.3-1.4c0.2-1,0.8-2.2,0.7-3.2c-0.1-1.3-0.8-2.6-0.6-4
			c-0.1-1.3,0.4-2.7,0.7-3.8c-1.6-2.2-0.7-4.7-0.6-7.1c0-5.1,0.2-10.5,0.2-15.6c-0.1-2.3,0.1-4.4-0.7-6.5c-0.4-1.3-0.3-2.8-0.4-4.1
			c-0.1-1-0.1-2.3,0-3.4c-0.2-1.9-1.7-3.5-1.3-5.6c0.3-1.9,0.4-3.8,0.7-5.7c0.1-2.4,0.2-4.9-1.1-7.2c-0.4-0.7-0.4-1.6-0.3-2.6
			c0.4-3.5-0.5-6.9-0.9-10.6c-0.4-4.7-1.8-9.2-3.8-13.1c-1.7-3.2-3-6.2-2.9-10.1c0-1.1-0.1-2.3-0.9-3.1c-1.8-2-1.5-4.6-1.8-7.6
			c-1.4-1.8-3.3-3.8-5-5.9c-0.1-1-0.4-1.9-0.5-3.3c0-1.3,1.6-2.6,2.7-2c3,2,6.2,3.2,9.6,4.5c0.8,0.3,1.9,1.1,2.6,1.8
			c2.1,2.8,5.1,4,8.3,4.9c2.7,0.6,5,2.2,7.8,2.4c1.9-0.2,2.9,0.9,3.3,2.9c0.4,1.9,1.7,2.7,3.4,2.8c4.1,0.1,6.4,2.5,7.7,6.5
			c1.7,5.2,4.1,10.1,3.9,15.7c-0.1,1.7,1,3.6,1.9,5.4c0.1,0.1,1,0.2,1.4,0c1.4-0.7,1.3-2.3,1.4-3.6c0.2-0.7,0.5-1.6,0.8-2.2
			c0.3,0,0.7,0.2,0.7,0.2c1,2.8,2.6,5.2,4.6,7.6c0,3.4,3.3,5.7,3.4,9c1.8,3.7,1.4,8,4.3,11.3c0.1,1.6,0.5,3.3,0.6,4.8
			c0.3,2.1,0.4,4.1,1.6,6.2c1.5,2.8,2.7,6,2.2,9.3c-0.2,1-0.4,2.4-0.1,3.3c2.5,5.1-0.8,9.5-1,14.4c-1,1.5-1.1,3.1-1.1,4.8
			c0.3,4.8-1.4,9.8,0.9,14.5c-0.1,4.7,0.8,9.3-1.4,13.8c-0.5,1-0.5,2.8,0,4c1,2.2,0.9,4.3,0.7,6.5c-0.1,4.1-0.3,8.2,0.7,12.3
			c-0.6,0.8-1.4,1.9-2.1,2.6c-3.6,2.9-5.6,6.4-6.5,10.9c-0.4,2-1.7,3.6-3.8,3.8c-2.7,0.2-4,2.7-6.7,2.8c-2.4,0.2-3.7,2.1-5.3,3.7
			c-2.3,2.1-5.4,2.4-7.9,4c-2.1,1.4-5,2.3-7.8,2c-3.9,1.3-8.1,1-12.1,2.3c-2.4,0.8-4.8,1.3-7.2,1.4c-1.7-0.1-3.6,1-5.6,1.3
			c-1.6,0.1-3.1,0.3-4.8,0.8c-1.3,0.4-2.8,0.6-4,0c-5-1.6-9.9-2.6-15-2.9c-0.6,0-1.1,0-1.6-0.2c-3.4-2.2-7.2-1.7-11.3-1.6
			c-2.8,0.1-5.4,0-8.2-0.3c-4.4-0.4-8.7-0.8-13.1-0.4c-1.9,0.2-3.3-2-5.4-0.9s-4.4,0.1-6.5,0.4c-1.9,0.2-3.8-0.1-5.8-0.2
			c-1.9,0.2-3.8,0.2-5.7,0.3c-1.9,0.2-3.7-0.5-5.6-1.1c-4.3-1.3-8.9-3-13.4-2.5c-0.7,0.1-1.7-0.1-2.4-0.1c-3.4,0-6.6-0.3-9.5-2.2
			c-1.5-1-2.9-0.9-4.7-0.4c-1.5,0.6-3.3,0.5-4.8-0.3c-1-0.5-2.2-0.8-3.1-0.8c-3.1-0.2-6.2,0.2-9-0.6c-2.7-0.6-5.3-1.4-8-1.5
			c-3.5-0.4-6.8-1.8-10.3-2c-1.5-1-3.1-0.8-4.6-1c-3.2-0.4-6.6-0.1-9.6-1.8c-0.4-0.2-1-0.2-1.6-0.2c-2.7-0.1-5.4,0-8-1
			c-2.4-1.1-5.2-0.4-7.9-1.9c-1.1-0.6-2.7-0.6-3.9-0.5c-2.4,0.2-4.4-0.1-6.1-2c-0.3-0.3-0.8-0.6-1.3-0.8c-1.6-0.2-3.2-0.4-4.8-0.9
			c-1.6-0.5-2.4-2-4.2-2.3c-2.8-0.8-5.7-1.8-8.8-2c-1.4,0-3-0.1-3.9-1.1c-1.4-1.5-3.1-1.9-5.2-1.9
			C339.3,530.9,339.2,530.8,335.7,528.5z"/>
		<path d="M180.6,302.2c-2.4,2.3-4.5,4-6.3,6c-2.7,2.8-6.6,3.9-9.6,5.9c-1,0.7-3-0.7-3.1-1.9c-0.4-1.9-0.6-3.7,0.2-5.5
			c2.7-6.5,5-13.2,7.6-19.9c1.1-2.7,1.8-5.7,3-8.4c1.1-2.7,1.7-5.8,3.8-8.1c0.6-0.5,1-1.5,0.8-2.2c-0.1-2.3,1.4-3.4,2.5-4.9
			c1.4-2.1,3.9-4,4-6.9c0-0.8,1.1-1.9,1.8-2.6c1.4-1.3,2.7-2.5,4.2-4c0.7-0.7,1.8-1.7,2-2.4c1-3.8,3.8-5.9,6.4-8.4
			c2-1.8,3.9-3.7,6-5.7c2.6-2.4,4.8-5.3,8.7-5.9c0.4-0.1,0.9-0.5,1.4-1c1.2-0.9,2.1-2,3.3-2.2c3.7-0.9,6.9-3.3,10.4-4.4
			c2.6-0.8,5.2-1.5,7.9-2.3c0.4-0.1,1.1-0.2,1.6-0.1c2.1,1.7,4.2,0.6,6.3-0.3c2.9-1.1,5.8-1.4,8.7-1.4c2.7,0.1,5.4,0.6,8-0.9
			c6.6,0.6,13.1-0.9,19.5,1.6c0.4,0.2,1.1,0,1.6-0.1c1-0.4,1.9-0.7,3.1,0c3.4,1.4,6.5,2.7,10.2,2.7c1.7,0.1,3.3,1.7,5.4,1.8
			c1.7,0.1,3.3,0.1,5.1,0.3c3,3.5,7.8,4.6,11.4,7.3c0.7,0.4,1.8,0.4,2.2,1.1c2.4,2.8,5.7,3.9,9.3,5c1.6,0.5,3.2,1.2,4,2.5
			c2.7,3.8,6.9,5.2,10.4,8c3,0.4,4.8,2.6,6.6,4.6c3.1,3.4,6.4,6.8,9.5,10.1c1.6,1.7,3,3.2,3.2,5.5c0.1,0.7,0.6,1.5,1.1,2.1
			c2.3,2.4,3.3,5.7,4.3,8.8c0.4,1,0.7,2.2,1.4,2.9c2.1,2,2.7,4.6,3.6,7.2c0.6,1.5,0.5,3.3,1.9,4.5c2.3,1.8,2.7,4.6,3.4,7.3
			c0.6,1.8,0.6,3.7,2,5.2c0.8,0.9,0.7,1.9,0.5,3c-0.2,0.7-0.3,1.9,0.1,2.3c2.3,2.4,2.3,5.5,3.1,8.4c0.4,1.3,1,2.5,1.9,3.5
			c2.1,2.3,4.1,4.4,6.2,6.6c1.6,1.7,3,3.2,3.4,5.3c0.1,1,1,1.9,1.7,2.7c0.5,0.9,1.9,1.7,2,2.7c0.5,3,2.2,5.1,4.2,6.9
			c2.1,2,3.1,4.5,3.6,7.2c0.3,2.8,1.5,5.2,3.7,7.1c0.7,0.7,1.6,1.7,2.3,2.4c0.4,0.4,0.5,0.9,1,1.4c0.7,1.4-0.4,2.7-0.5,3.9
			c0,0.8-0.2,1.6-0.1,2.4c0.4,1.6,0.7,3.3,1.3,4.8c0.3,0.6,0.9,1.5,1.4,1.8c1.6,0.8,2.4,2,3.3,3.5c0.9,1.8,2,3.2,2.3,5.2
			c0.6,1.8,2.2,3,2.6,5c0.4,2.2,1.9,3.8,4.2,4.5c1.9,0.6,3.3,2,4.6,3.4c2.4,2.3,4.2,5.1,7,6.9c4.5-1.6,9.2-2,13.1-4.6
			c2.8-0.1,4.5-1.9,6.3-3.6c1.2-1.2,2.4-2.3,3.6-3.4c1.8-1.7,3.4-3.4,4-6.1c0.2-1,2-1.3,2.7-0.5c0.8,0.8,1.6,1.7,1.8,2.5
			c0.4,2.2,0.3,4.3,1,6.5s0,4.2-1.7,6.1c-0.9,0.8-2.1,2-2.3,3.3c-0.7,3-3,4.4-4.9,6.3c-0.6,0.5-1.4,1-2.1,1.1
			c-2.5,1-5.5,0.9-7.2,3.3c-0.3,0.3-1,0.7-1.5,0.6c-3.4-0.2-6.5,0.7-9.7,1.2c-2.1,0.3-4.2,0-6.4-0.8c-2.7-1.1-5.7-1.5-8.8-2
			c-1.4-0.3-2.6-1-3.4-1.9c-1.8-2-3.7-3.9-5.7-6c-0.7-0.7-1.6-2-2.4-2c-3.5-1-5.3-3.5-7.6-5.9c-1-1.1-1.8-2-3-2.9
			c-1-0.7-2.7-1.1-3.4-2.2c-1.6-2-2.6-4.2-3.5-6.5c-0.1-0.4,0.2-1,0.2-1.6c0.2-0.7,0.7-1.7,0.4-2.4c-1.7-3-2-6.6-4.9-9.4
			c-1-1.1-1.4-2.9-2.3-4.2c-2-2.7-4.1-4.9-6.3-7.6c-1.6-2-3.6-3.5-4.3-6c-0.3-0.6-1.2-1-1.9-1.4c-0.5-0.6-1.6-1.1-1.7-1.5
			c-0.5-3.6-3.2-5.5-5.4-8c-1.4-1.5-3-3.2-3.2-5.5c-0.2-1.1-1.1-2.4-2.1-3.4c-2.1-2.5-4.5-4.8-6.8-7.3c-10.5-11.2-21-22.4-31.6-33.6
			c-1.6-1.7-3-3.2-5.3-3.5c-1-0.2-1.9-1.1-2.7-1.7c-0.8-0.6-1.7-1.8-2.4-2c-3.4-0.5-5.2-3.1-7.2-5.2c-2.5-2.7-5.3-5.6-7.8-8.3
			c-1.7-1.8-3.3-4.1-5.3-5c-2.7-1.4-5.1-3.2-7.8-4.3c-0.8-0.3-1.6-0.5-2.2-1.1c-2.1-1.7-3.5-4.4-6.5-4.7c-2.7-0.4-3.7-3.4-6.5-3.2
			c-0.6,0-1.5-0.7-2-1.3c-2.3-2.4-5.3-3.5-8.5-4.8c-2.7-1.1-5.8-1.4-8.1-3.5c-0.4-0.4-1.5-0.7-2.3-0.7c-6-0.4-12-0.4-18.1-0.7
			c-4.1,1.3-8.7,1.1-12.7,2.9c-1,0.4-1.9,1-2.7,1.7c-4.5,4.2-9.3,8.7-13.8,12.9c-0.7,0.7-1.7,1.6-1.8,2.6c-0.5,2.8-2.3,4.2-4.1,6
			c-2.4,2.3-4.9,4.4-5.9,7.6c-0.2,0.4-0.9,0.5-1.4,1c-0.7,0.4-1.6,0.7-2,1.3c-0.6,2.7-3.8,4.1-3.9,7.1c0,0.3-0.2,0.4-0.4,0.7
			C182.5,291.5,181.7,296.8,180.6,302.2z"/>
		<path d="M405.2,139.8c0.7-0.7,1.4-1.6,2.1-2.3c1.4-1.3,1.8-2.6,1.1-4.5c-0.4-1.3,0.2-2.5,1.3-2.6c2.4-0.6,4-1.7,5.5-3.2
			c2.6-2.4,4.8-5.3,8.7-5.9c3.6-2.9,7.6-5.5,9.4-10c0.5-1,1.1-1.9,2.3-2.1c1.4-0.2,2.6-0.8,3.7-1.8c2-1.8,3.9-3.7,7.1-4
			c1-0.1,1.8-1.1,2.5-1.8c2.1-2,4.4-4.1,6.6-6.2c1.4-1.3,2.8-2.4,4.9-3c1-0.1,2.1-0.9,2.8-1.5c2.3-2.4,5.9-2.4,8.5-4.5
			c0.3-0.3,1-0.4,1.4-0.2c1.9,0.3,3.7-0.3,5.6-0.7c0.7-0.1,1.6,0.2,2.3,0.7c1,0.7,2.3,1.8,2.5,3c0.6,3.1,2.4,5.4,4.3,7.9
			c-0.7,1-1.3,2-2,2.7c-2.7,2.5-5.7,5.1-8.2,8c-2,2.1-4.9,2-7.2,3.9c-1.8,1.7-3.5,3.6-5.9,4.4c-1.3,0.4-2.4,1.4-3.4,2.1
			c-2.1,1.7-3.2,3.9-2.3,6.4c0.6,1.8,0.3,3.1-0.7,4.6c-0.6,0.5-1,1.5-1.1,2.2c-0.1,2.1-1.4,2.7-3.2,3.3c-0.4,0.1-0.6,0.8-0.8,1.3
			c-0.3,0.6,0.6,1.5,1.6,1.7c3,0.7,6.2-0.4,8.7,1.1s4.8,3.7,7.5,4.9c2.4,1.1,4.8,2.3,6.6,4.6c0.4,0.4,0.7,0.7,1,1.4
			c0.4,0.7,0.4,1.6-0.2,2.3c-1.4,1.3-2.6,2.7-4.1,3.8c-0.4,0.4-1.6,0.4-2.2,0.4c-3.8-0.4-5.6,1-5.7,4.8c0,1.1,0.1,2.3,0.2,3.3
			c-2-0.4-4-0.3-4.7,2c-0.2,0.4-0.2,1-0.5,1.6c-0.2,0.4-0.6,1.1-1.1,1.3c-2.2,0.4-3.1,1.8-3.5,3.9c-0.2,1.3-1.1,1.9-2.4,2
			c-1.9,0.2-3.8,0.2-5.7,0c-2.5-0.2-4.5,1.9-7.1,1.5c-2-0.4-4.4-0.4-6.6-0.3c-2.4,0.2-4.8,0.8-7.1,1.5c-1.3,0.4-2.5,1-4,0.9
			c-1.1,0-2-0.4-2.9-1.3c-0.8-0.9-1.1-1.8-0.8-3c0.2-0.4,0.5-1,0.3-1.4c-0.1-0.4-0.4-1-0.9-1.2c-1.3-0.5-2.8,0.1-3,0.8
			s-0.2,1.6-0.4,2.4c0,1.1-0.2,2.3-0.9,2.9c-1.7,1.9-3.2,3.6-4,6.1c-0.8,2.8-4.1,4.4-4.8,7.4c-1.1,0.5-2.5,1-3.5,1.9
			c-2.1,1.7-4.4,2.1-6.7,2.3c-3.3,0.2-6.3,1.4-9.5,2c-0.7,0.1-1.7-1-1.7-1.5c0-0.3,0-0.6,0.2-0.7c0.2-1,0.2-2.3,0.7-3.2
			c4.2-8.5,6.6-17.8,10.1-26.5c1.4-3.9,2.8-7.7,5.6-10.6c1.8-2,2.6-4.8,2.9-7.5C404.7,144.3,405,142.1,405.2,139.8z"/>
		<path d="M395.3,78.7c-1.2,3.2-0.8,6.4-3.2,8.7c-0.4,0.4-0.3,1.4-0.4,2.4c-0.2,0.7-0.1,1.7-0.4,2.4c-0.8,1.6-2.1,3.1-2.8,4.9
			c-0.7,1.5-0.4,3.2-0.7,4.9c-0.2,0.4-0.5,1-1,1.5c-1.8,1.7-3.2,3.6-3.2,6.5c0,0.8-0.3,1.9-0.7,2.3c-2.7,2.3-1.9,5.5-3.1,8.5
			c-1.1,1-2.1,2.3-3.4,3.4s-2,2.4-2.3,4.2c-0.6,1.9-1.1,3.6-1.8,5.4c-1.1,2.4-1.7,5.3-4,6.9c-0.6,0.5-1.1,1.3-1.3,2
			c-0.2,2.5-1.6,3.1-3.8,3.3c-1.1,0-2.2,1-2.3,2.1c-0.1,2.4-2.2,3.7-2.9,5.6c-0.8,2.2-1.8,3.8-3.4,5.5c-0.9,0.8-1.3,2.3-2,3.5
			c-1.6,2.3-3.5,4.1-6.6,4.2c-1,0.1-2.5,0.1-3.1,0.6c-3.5,2.7-7.7,2.7-11.4,4.2c-1,0.4-2-0.4-2.9-1.3c-1.7-2.1-1.9-4.8-0.1-6.8
			c3.2-3.3,5-7.1,5.3-11.6c1.6-3.1,0.5-7.1,2.5-10.3c0.7-1,0.4-2.7,0.4-4.1c0.1-2.4,0.7-4.1,2-6.1c2.1-3.1,2.8-6.9,4.3-10.6
			c0.5-1.3,0.8-2.8,1.9-3.4c2.1-1.7,2.7-3.9,2.7-6.5c0-0.8,0.6-2.2,1.3-2.9c1.4-1.6,2.7-3.1,3.5-5.3c0.7-2,1.5-4.1,1.8-6.2
			c0.2-1,0.7-2,1.4-2.7c3-3.9,3-3.9,3.5-10.1c0.2-0.7,0.2-1.6,0.8-2.2c0.7-1,1.7-2.1,1.9-3.4c0.2-0.7,0.4-1.8,1.1-2.2
			c3.1-2.1,3.2-6.2,5.9-8.7c9.7-8.8,19.2-18,28.7-27c0.9-0.8,2.1-2,3.3-2.2c2.7-0.5,4.5-2.2,6.2-3.8c1.8-1.7,3.6-3.4,5.5-5.1
			c1.4-1.3,2.7-2.5,3.1-4.6c0-0.6,0.5-1,0.7-1.5c1.5-2,3.2-3.6,4.3-6.1c1-2,3-3.9,3.5-6.2c0.2-0.4,0.7-0.7,1.2-1.2
			c0.7-0.7,2.6-0.3,2.7,0.6c0.6,2.4,0.7,4.7,1.7,7.2c1,2.2-0.2,4.9,1.1,7.2c-1.1,2.7,0.5,5.9-1.3,8.6c-0.8,1.3-1.4,3-1.6,4.7
			c-0.4,2-1.7,3.3-2.8,4.9c-0.8,1.3-0.7,3.2-1.9,4.4s-1.6,2.9-2.2,4.4c-0.6,1.1-1.7,2.1-2.7,3.1c-3.4,3.1-6.8,6.4-10.1,9.5
			c-1.4,1.3-2.6,2.7-3.3,4.7c-0.3,1.1-1.6,2.3-2.3,3.3C400.3,74,397.7,76.4,395.3,78.7z"/>
		<path d="M472.4,433.5c0.7-1.5,1.3-2,1.3-2.9c1.4-6.7,6.2-10.6,11.2-14.8c0.1-0.1,0.4-0.4,0.7-0.4c0.4-0.1,1-0.4,1.5-0.6
			c3,0.1,5.8-2,8.8-1.6c0.6,0,1,0.2,1.6,0.5c0.4,0.2,1,0.5,1.5,1c3.3,4.6,8.4,5.9,13.1,7.6c0.4,0.2,1.9-0.4,1.9-1
			c0.2-0.7,0.4-1.8-0.1-2.3c-1-1.4-2.1-2.5-3.3-3.8c-1.7-1.8-3-3.8-2.7-6.5c0.2-2.5-1.3-4.1-3.2-5.2c-0.7-0.4-1.5-0.7-2.3-1
			c-0.6-0.3-1-1.7-0.6-2.1c1-1.2,1.8-2,2.7-3.1c2-1.8,4.4-3.5,5.8-5.7c2.2-3.4,4.8-4.2,8.2-2.9c1.9,0.8,3.3,0.1,4.4-1
			c1.5-1.7,3.5-2.7,5.8-2.3c2.5,0.2,4.8-0.8,7.1-1.5c1.6-0.4,3.1-0.9,4.8-0.8c2.3,0.2,4.2,0.3,6.1,2c0.8,0.9,2.4,1.1,3.6,1.7
			c0.6,0.3,1,1.7,0.7,2.2c-0.4,0.7-1,1.5-1.3,2c-1.3,1.7-1.4,3.6-0.8,5.6c1,2.5,1.9,5.1,3.3,7.5s-1,6-3.5,6.2
			c-1,0.1-2.3,0.1-3.3,0.2c-3.5-0.1-7.1-0.2-10.6-0.3c-1.4,0-2.8,0.1-4,0c-0.8,0-2.4,1.1-2.4,2c0.1,0.7,0.4,1.6,0.9,2.1
			c0.4,0.7,1.2,1.5,1.7,1.5c3,0.4,4.8,2.6,7.2,3.5c2.3,0.7,4.2,2.3,6.2,3.5c0.3,0.3,0.4,1,0.2,1.4c-1.2,6-5.1,10.1-9.8,13.5
			c-3.1,0.6-6,2.7-9.5,2.3c-3.2-0.4-6.6-0.3-9.8-0.5c-2.7-0.1-5.4-0.3-8.1,1c-1.4,0.7-3.1,0.3-4.8,0.6c-0.7,0.1-1.7,1.9-1.1,2.7
			c0.4,0.7,0.9,1.5,1.3,2c1.3,1.4,2.4,2.8,4,4.2c2.5,2.4,3.2,5.5,3.4,9c0.1,1-0.4,2.4-0.9,2.9c-2.4,2.5-4.6,5.4-8.4,6.2
			c-2.5,0.7-4.6,3-7.3,3.4c-1,0.1-2.2,0.4-3.3,0.5c-1.6,0.1-2.6-1.3-2.1-2.5c1-2.3,1.3-4.6-0.1-7.1c-0.1-4.7-1.6-9-2.6-13.5
			c-0.4-1.3-1-2.5-1.9-3.5c-2.5-2.7-5.3-5.6-7.8-8.3C474.3,435.9,473.3,434.8,472.4,433.5z M519.3,406.7c-1-1.1-2.1-1.7-3.6-1.7
			c-2.4-0.1-3.6,0.7-3.6,3.1c-0.2,2.3,0.3,3.1,2.2,3.5c1.3,0.5,2.4,0.9,3.8,1.3c0.4,0.2,1.6-0.7,2-1.3
			C520.5,410.2,520.7,408.3,519.3,406.7z"/>
		<path d="M259,350.3c-0.4,0.1-0.7,0.1-0.9,0.3c-2.8,0.6-5.3-1.4-8-1.5s-5.4,0.3-8-1.2c-0.8-0.6-2.2-0.6-3.2-0.4
			c-1.8,0.3-3.1-0.5-4.6-1.3c-1.5-0.7-3.1-0.8-4.1,1c-0.8,1.3-2.7,1.7-3.2,3.6c-0.2,0.7-1.1,1.6-1.7,1.6c-2.4,0.2-4,1.7-5.5,3.2
			c-3,2.8-6,5.7-8.9,8.4c-1.1,1-2.5,1-4,0.9c-0.6,0-1.5-1-1.3-1.7c0-0.8,0.1-1.7,0.4-2.4c1.3-2.3,2.5-4.9,4.5-6.8
			c2-2.1,3.3-4.4,3.9-7.1c0.5-2.5,2.7-4.2,3.2-6.5c0.7-2.3,1.7-3.9,3.4-5.5c1.1-1,1.3-2.3,1.3-3.8c0.1-2.4,1.3-4.1,2.9-5.6
			c6-5.7,12-11.2,18-16.9c1.8-1.7,3.9-3.1,4.9-5.4c0.2-0.4,0.5-1,1-1.2c2.8-1.3,4.9-3.5,7-5.5c1.1-1,2.2-1.6,3.5-1.9
			c1-0.4,2.2-0.7,2.8-1.5c2.3-2.4,5.2-2.6,8-3.6c0.9-0.3,2.1,0.1,3.2,0.4c1.3,0.5,2.3,1.6,2.5,3c0.3,2.1,0.1,4.4,0.1,6.5
			c0,3.4-1.8,6-4.9,6.6c-3.4,0.6-5.1,4.2-8.4,4.7c-1.3,2-3,3.9-3.9,6.2c-0.7,1.7-0.7,3.8,1,5.3c1.3,1.4,2.7,2.6,4.6,3.1
			c2.7,0.6,5.1,2.1,7.5,2.9c3.6,1.4,3.7,3.1,0.6,5.5c-0.9,0.5-1.8,1.1-2.8,1.5s-2.2,0.4-2.4,1.7c-0.2,0.7,0.1,1.6,0.2,2.4
			c0.2,1.1,0.1,2.3-0.8,3.1C264.2,344.9,261.6,347.6,259,350.3z"/>
		<path d="M524.6,286.7c-0.2,2.5-0.6,4.8-2.8,6.3c-1.5,1.2-2.7,2.5-4.2,4c-1.1,1-2.1,1.7-3.5,1.9s-2.5,1-3.5,1.9
			c-1.7,1.6-3.4,2.4-5.8,2.3c-3.8-0.1-6.8,1.6-9.5,3.8c-5.6,5-5.6,5-10,13.6c-0.4,0.7-1,1.5-1.3,2c-1.1,1.3-1.7,2.7-1.4,4.5
			c0.1,1.6-0.1,3.3,0,5.1c-1.1,1.3-2.3,2.7-3.8,4.1c-4.4,4.1-8.7,8.2-13.3,12.2c-0.4,0.4-1.5,0.6-2.2,0.7s-1.7-1.3-1.3-1.7
			c1.4-1.9,1.7-3.9,2-6.1c0-1.4,0.6-2.7,1.4-3.6c0.6-0.8,1.7-1.9,1.4-2.7c-0.2-3,1.4-5.3,2.1-7.6c0.7-1.7,1.2-3.5,1.4-5.5
			c-0.1-2.8,0-5.4,2.3-7.5c0.7-2,0.8-4.2,1.8-6.2c0.8-1.6,2.3-3,3.4-4.6c0.3-4,4.6-5.4,5.6-9c3.9-1,5.7-4.8,9-6.8
			c1.7-1,3.7-0.9,5.2-2c1.5-1.2,3.4-1.5,5-2.6c1.7-1.3,3.6-1.3,5.2-2c1.8-0.9,3.6-1.3,5.4-1.9c0.7-0.1,1.6-0.4,2.5-0.1
			c2.4,0.9,5.1,1.5,6.2,4.4C522.4,285.1,523.8,285.8,524.6,286.7z"/>
		<path d="M519.3,406.7c1.4,1.5,1.4,3.2,0.5,5.1c-0.3,0.6-1.4,1.3-2,1.3c-1.3-0.5-2.4-0.9-3.8-1.3c-1.7-0.7-2.3-1.6-2.2-3.5
			c0.1-2.4,1.4-3.4,3.6-3.1C517,405.2,518.3,405.7,519.3,406.7z"/>
	</g>
</g>
</svg>
