<?xml version="1.0" encoding="utf-8"?>
<!-- Generator: Adobe Illustrator 21.1.0, SVG Export Plug-In . SVG Version: 6.00 Build 0)  -->
<svg version="1.1" id="dessin9_xA0_Image_1_" xmlns="http://www.w3.org/2000/svg" xmlns:xlink="http://www.w3.org/1999/xlink"
	 x="0px" y="0px" viewBox="0 0 1839.9 2624.1" style="enable-background:new 0 0 1839.9 2624.1;" xml:space="preserve">
<style type="text/css">
	.st0{fill:#020200;}
</style>
<g>
	<path class="st0" d="M1319.3,50c1.2-1.5,2.9-2.7,3.6-4.4c0.9-2.3,2.5-2.6,4.5-2.6c2.3,0,4.7,1.5,7.2,0c0.3-0.2,1.5,0.4,2.2,0.9
		c2.1,1.6,4.5,1.6,6.9,2.1c1.7-1.2,3.1-0.5,4.5,0.5c0.2,0.2,0.5,0.3,0.8,0.3c4.9-0.2,8.2,2.7,11.2,5.8c0.6,0.5,1.3,1.1,2,1.3
		c0.8,0.3,1.6,0.4,2-0.6c0.1-0.2,0.2-0.5,0.4-0.7c1.2-1.5,2.4-1.5,3.1-0.1c0.7,1.2,1.1,2.4,2,3.5c0.6,0.8,1.7,1.6,2.9,1
		c2.4-1.1,4.8,0.4,7.3,0.1c2.2-0.3,4.3-0.1,6.3,1c0.4,0.3,1.1,0.3,1.6,0.3c4.7-0.1,7.5,2.5,9.2,6.7c0.9,2.4,2.9,2.9,5.4,2.1
		c1.3-0.4,2.5-1.1,3.8-1.3c0.7-0.2,1.6,0.2,2.3,0.4c0.2,0.1,0.4,0.3,0.7,0.5c2.5,2.6,5.5,4.5,9.2,5.1c2.3,0.4,3.8,2.1,5.6,3.4
		c0.9,0.6,2,0.6,3-0.1c0.8-0.7,1.6-1.5,2.5-2.2c1-0.7,2.2-0.7,3-0.2c2.7,1.8,4.6,4.8,7.8,5.9c1.5,1.9,2.9,3.9,4.5,6
		c-0.2,1.4-0.6,3-0.7,4.7c0,0.7,0.4,2,0.9,2.1c3.7,0.4,4.2,3.8,5.9,6.2c0.1,0.1,0.5,0.3,0.7,0.3c0.2-0.1,0.5-0.4,0.5-0.6
		c0.3-0.7,0.7-1.6,0.6-2.4c0-1.3-1.5-2.6-0.6-3.8c0.5-0.7,1.9-0.8,2.9-1.3c0.5-0.2,0.9-0.7,1.3-1c0.2-0.2,0.3-0.4,0.5-0.6
		c0.7-0.7,0.6-2.4-0.1-3c-1.1-0.7-2.3-1.3-3.4-2.2c-0.2-0.2-0.2-1-0.1-1.4c0.2-0.6,0.8-0.9,1.4-0.5c2.5,2.2,6.5,1.5,8.6,4.4
		c1.3,1.6,4.1,0.5,4.8,2.7c0.5,1.5,0.5,3.2,0.9,4.8c0.2,1,1.7,2,2.5,1.5c2-1.1,4.1-1.5,6.3-1.4c1.2,0,2.4,0.5,2.7,1.5
		c0.7,2.7,2.6,4.2,4.3,5.9c2.2,2,4.5,3.9,5.3,7.2c0.2,0.8,1.5,1.4,2.4,2.1c0.4,0.4,1.9-0.1,2.2-0.7c0.3-1.1,0.6-2.1,0.9-3.1
		c0.6-2.1,2.8-2.9,4.6-1.4c1,0.8,2.3,1.8,2.6,3.1c0.6,2.3,1.9,3.8,3.6,5.4c2.2,2,4.4,4.1,6.6,6.1c1.6,1.5,3,3.1,3.4,5.5
		c0.4,2,2,2.4,3.6,2.9c1.2,0.5,2.6,0.1,2.7-0.9c0.3-4.5,4.3-5.3,7-7.3c0.8-0.5,2.1,0.3,2.9,1.5c-0.4,0.9-1,1.8-1,2.9
		c-0.1,2.2,1.1,4.1,2.1,6c0.2,0.3,0.9,0.6,1.4,0.7c1.4,0.2,2.4,0.9,3,2.4c1.2,2.9,1.3,2.9,4.8,2c0.6-0.2,1.1-0.2,1.6-0.3
		c0.3,0,0.6,0,0.8,0c1.5,0,2.7,0.6,3.4,1.9c0.8,1.4,0.7,3.2,2.1,4.4c0.9,0.7,1.7,1.4,2.9,1c1.3-0.4,2.6-1,3.6-1.4
		c0.4-1,0.6-1.8,1-2.5c0.3-0.6,1.5-0.9,2.1-0.5c0.2,0.2,0.4,0.3,0.7,0.5c1.7,0.9,1.3,3.6,3.6,4.2c1.6,0.4,2.9,1.5,4.3,2.3
		c1.2-0.5,2.4-1.2,3.7-1.9c0.6,0.5,1.1,1.2,1.8,1.6c0.7,0.5,1.5,1,2.2,0.9c3.6-1,7-1,10.4,0.3c1.2,0.5,2.8,0.1,4,0.1
		c3.8-0.1,7.6-0.3,11.4-0.4c2.4-0.1,5,0,7.4-0.3c2.2-0.3,4.3-0.9,6.2-1.6c3.4-1,6.8-1.9,10.4-1.9c1.6-0.1,3.2-0.9,4.7-1.2
		c1.6-0.4,3.2-0.6,4.8-1.2c1.6-0.6,3.2-0.7,4.8-0.2c0.9,0.3,1.6-0.1,2-0.9c0.5-0.8,1.2-1.2,2-1.1c3.6-0.1,6.9-1.2,10.5-1.7
		c0.8-0.1,2-0.1,2.4-0.5c2.3-3.1,6.1-2.3,9-3.6c2.7-1.3,5.7-2.1,8.5-3.1c3.2-1.1,6.5-0.7,9.7-0.1c2.6,0.5,3.2,2.3,1.6,4
		c-3.3,3.6-6.7,7.3-10.1,10.8c-0.7,0.7-1.7,1.5-2.7,1.7c-2.7,0.7-4.4,2.3-5.6,4.5c-1.3,2.5-4.3,3.3-5,6.3c-0.1,0.4-0.9,0.7-1.3,0.7
		c-3.1,0.3-5,2.2-6.4,4.5c-1.1,1.9-2.3,2.6-4.4,3c-3.5,0.7-6.6,2.2-9,5.1c-2,2.3-5.3,2.7-7.6,4.7c-0.6,0.4-1.6,0.3-2.4,0.4
		c-1.6,0.1-3.3-0.4-4.9,0.5c-0.6,1.9-1.4,3.7-4,3.1c-0.7-0.1-1.8,0-2.3,0.4c-1.8,1.8-3.7,2.1-6,1.9c-3.2-0.4-5.7,1.5-8.6,2.4
		c-1.5,0.4-2.6,0.3-3.9-0.2c-1.8-0.6-3,0.2-4,1.9c-0.9,1.9-2.1,1.9-3.3,1c-2.3-1.6-4.4-1.7-7-0.6c-1.2,0.5-2.6,0.9-3.8,1.2
		c-0.7,0.2-1.6,0.1-2.4-0.1c-2-0.6-3.8-0.4-5.5,0.6c-1.5,0.9-3.1,1-4.7,0.4c-1.8-0.9-3.7-0.9-5.6-0.7c-3.9,0.4-7.7-0.2-11.2-1.6
		c-2.2-0.8-4.2-0.6-6.3,0.4c-1.5,0.8-3.1,0.5-4.8,0.2c-3.7-0.7-7.3-2-11.2-1.9c-2.1,0.1-3.3-1.9-5.5-2.3c-2,0.8-4.3,1.6-6.7,2.6
		c-2.2-1.3-4.5-2.7-7.4-2.8c-0.9,0-1.9-0.9-2.8-1.4c-0.9-0.6-1.7-1.4-2.4-1.8c-0.8,0-1.4-0.2-1.9-0.1c-3.6,0.1-7.2,0.5-10.7,0
		c-3.2-0.4-6.3-1.6-9.4-2.7c-3.1-1.1-6.3-1.9-9.6-2.1c-1.1,0-2.1-0.7-3-1.2c-0.8-0.3-1.5-1-2.2-1c-3.4,0.3-6.4-1.2-9.5-2.1
		c-0.7-0.3-1.6-0.4-2.4-0.3c-4.3,0.2-7.8-1.8-11.5-3.7c-3.9,0.1-7.5-0.7-10.9-2.7c-2-1.2-4.8-1.3-6.9-2.4c-2.5-1.3-4.9-2.1-7.7-2.5
		c-2.6-0.3-5.4-0.9-7.5-3c-1-1-2.3-1.3-3.7-1.8c-2.3-0.8-4.8-0.8-6.9-2.4c-1.7-1.4-4.2-1.1-5.9-2.8c-0.6-0.5-1.4-0.8-2.2-1
		c-3.7-0.9-6.8-3.4-10.6-4c-3.5-0.7-6.4-3-9.8-3.8c-0.8-0.2-1.4-0.8-2.1-1.3c-1.1-0.9-2.1-1.7-3.5-2c-3.4-0.9-6.9-1.9-9.4-4.5
		c-5.2-2.4-10.2-5.2-15.7-6.6c-1.9-0.4-3.6-1.1-5-2.5c-1.6-1.6-4-1.7-6-2.5c-1.9-0.6-3.6-1.3-5-2.7c-0.6-0.5-1.2-1.2-2-1.3
		c-5.3-1.2-10.2-4-15.8-4c-0.6,0-1.3,0-1.6-0.2c-2.8-2.4-6.1-1.6-9.4-1.9c-1.9-0.1-3.7-1.1-5.6-1.2c-2.7,0-5.3-0.2-8.1-0.7
		c-3.4-0.6-7.1-0.7-10.4,1.3c-3.4,0-6.3,1.6-9.3,2.7c-2.6,0.9-5.1,2-6.9,4.1c-0.3,0.4-0.7,0.9-1.2,1.1c-4.1,1-6.3,4.3-9,6.9
		c-0.2,0.2-0.4,0.3-0.6,0.5c-1.1,0.7-2.7,0.9-3,2.5c-0.5,2.1-2.7,3.5-2.8,5.9c0,0.8-0.5,1.6-0.6,2.4c-0.2,2.3-1.3,4.1-2.8,5.8
		c-0.5,0.5-1.1,1.6-0.9,2.2c1.1,4-1.6,7.4-2,11.1c-2.1,2.1-2,4.8-2.4,7.6c-0.4,3.2-1.3,6.5-4,8.7c-0.6,0.5-0.9,1.3-1.6,2.2
		c0.3,2.5,1.2,5,0.3,7.8c-0.7,1.9-0.2,4.3-0.1,6.4c0.2,3.6-0.7,7-2.5,10.1c-1.3,2.3-2.4,4.8-3.5,7c0.2,1.3,0.9,2.6,0.5,3.4
		c-1.2,2.3-1.3,4.5-0.5,7c0.5,1.5,0.3,3.3,0.1,4.9c-0.3,2.1-2.9,3.4-1.6,6c-0.3,1.9-0.5,3.8-0.9,5.6c-0.1,0.5-0.5,1-0.6,1.5
		c-0.1,0.9-0.4,1.8-0.1,2.4c1.4,2.8,0.1,5-1.1,7.6c-1,2.2-1.2,4.7-0.2,7.2c0.5,1.2,0.4,2.8-0.6,3.9c-1.6,1.8-1.9,3.8-1.7,6.1
		c0.1,1.6,0.3,3.2,0.5,4.9c0.7,5.4-0.4,10.3-3.9,14.5c-0.5,0.5-0.7,1.7-0.5,2.3c1.5,3.7,1.4,7.5,0,11.2c-0.2,0.5-0.1,1.1-0.2,1.6
		c0,3.3,0.6,6.6-0.6,9.8c1.9,2.4,0.2,4.8-0.3,7.1c-0.6,2.4-1,4.8-2.7,6.8c-0.7,0.9-0.3,2.1,0.4,3c1.2,1.5,1.2,3-0.1,4.5
		c-0.9,1.1-1.8,2.1-2.6,3.2c-0.4,0.6-0.7,1.6-0.4,2.2c0.5,1.4,0.4,2.6,0,4c-0.8,2.3-1.4,4.7-2.1,7.1c-0.2,0.8-0.8,1.6-0.8,2.3
		c0.4,3.9-0.9,7.5-1,11.4c-0.1,3.3-0.5,6.5-1.5,9.7c-0.5,1.6-0.7,3.2-0.9,4.8c-0.2,1.1-0.6,2.2-1.2,3c-1.7,2-2.6,4-2.7,6.7
		c-0.1,1.8-0.7,3.7-1.3,5.5c-1.1,3.4-2.3,6.7-2.1,10.3c0.1,0.9-0.6,2.1-1.4,2.8c-1.6,1.7-2.6,3.5-3.1,5.7c-0.7,3.2-3,5.8-3.6,9.1
		c-0.5,2.9-2.1,5.5-3.1,8.3c-0.2,0.5-0.2,1.2-0.5,1.6c-2,2.6-4.1,5.2-3.6,8.8c0,0.3,0,0.6-0.2,0.8c-2.7,2.9-3.5,6.7-6.2,9.6
		c-1.7,1.8-3.3,3.7-5,5.4c-1.8,1.8-3,3.9-2.8,6.5c0,1.8-0.9,3.1-2,4.4c-8.4,9-16.8,18.1-25.2,27.1c-0.3,0.4-0.7,0.8-1.2,1.1
		c-1.8,1.8-4.6,1.6-6.2,3.8c-1.2,1.7-2.9,3.2-5.2,3.8c-0.7,0.2-1.5,1-1.6,1.7c-0.4,2.1-1.5,3.5-3.7,3.8c-3.5,2.6-7.6,4.2-10.3,7.9
		c-1.5,2-3.5,3.3-6,4.1c-2.9,0.9-5.7,2.1-7.5,4.8c-1.2,1.7-3.6,1.5-4.9,2.7c-2,1.7-4.6,1.7-6.4,3.5s-4.5,1.9-6.6,3
		c-1.4,0.8-2.8,2-4.3,2.1c-2,0.1-4.3-0.6-6.6-1c-1.4,1.5-2.6,3.8-5.4,4c-1.6,0.1-3.2,0.5-4.8,1c-1.6,0.4-3.1,1-4.6,1.4
		c-1.3,0.4-2.7,0.5-3.9,1.1c-1.5,0.8-3.2,0.9-4.8,0.9c-2.5,0-4.9,0-7.4,0c-1.1,0-2.3-0.1-3.2,0.3c-7.4,2.5-15.2,1.5-22.8,2
		c-3,0.2-6-0.1-8.9,1.2c-0.6,0.3-1.6,0-2.2-0.4c-1.2-0.7-2.3-1.7-3.7-1.6c-4.1,0.3-8.2-0.9-12.2-1c-1.1,0-2.4,0.2-3.3-0.3
		c-2.5-1.5-5.4-0.5-8-1.3c-2.4-0.6-4.5-2.1-6.7-2.9c-2-0.8-4.3,0.2-6.5-0.8c-2.9-1.5-6.4-1.5-9-3.6c-0.8-0.6-2.1-0.6-3-1
		c-2.4-1-5.1-1.5-7.3-3.5c-1.8-1.7-4.5-2-6.8-2.4c-6-1-11-4.5-16.4-6.9c-1.9-0.9-3.6-2.6-5-4.2c-2.2-2.3-5-3.1-8-3.9
		c-1-0.2-2.2-0.1-3.3-0.2c-1.5,0-2.6-0.6-3.7-1.6c-1.4-1.3-2.8-2.6-4.2-4c-5.4-5-5.3-5.1-12.2-7.9c-2.4-1-4.3-2.1-6.2-3.8
		c-2.2-2-4.3-4.2-7.4-5c-1.2-0.3-2.2-1.5-3.2-2.4c-3.4-3.2-6.8-6.3-10.2-9.5c-1.6-1.5-3.1-3-3.9-5.2c-0.4-1.2-1.5-2.2-2.5-3.2
		c-1.5-1.6-3.2-3-4.8-4.5s-3.3-2.9-3.7-5.2c-0.1-0.5-0.4-1.2-0.8-1.4c-3.1-2.1-3.6-6-5.9-8.8c-2-2.4-3.1-5.6-4.7-8.5
		c-0.5-0.9-0.9-2.1-1.7-2.7c-2.9-2-3.8-5.3-5.2-8.2c-1.3-2.7-1.9-5.7-4-8.1c-0.2-0.2-0.3-0.4-0.4-0.8c-0.7-2.3,0-5-1.9-7
		c-1.7-1.9-1.9-4.5-2.7-6.8c-0.9-2.2-1.9-4.5-2.8-6.8c-0.9-2.3-1.8-4.5-2.6-6.9c-0.5-1.3-0.5-2.7-0.8-4c-0.2-0.8-0.1-1.8-0.6-2.3
		c-3.2-3.9-3.7-9.1-5.8-13.4c-0.9-1.9-1.1-4.3-2.7-5.9c-0.6-0.5-0.9-1.4-1.1-2.2c-1.6-7.5-5-14.4-7.3-21.6c-0.2-0.8-0.3-1.8-0.7-2.3
		c-2.8-3.2-3.2-7.5-5.8-10.7c-0.9-1.1-1.1-2.4-1.6-3.7c-0.9-2.5-1.7-5.2-4-7c-0.7-0.5-1.1-1.3-1.2-2.1c-0.3-1.8-1.4-2.9-2.6-4.2
		c-1-1-2.3-1.9-2.6-3.1c-1-3.8-4-5.8-6.5-8.3c-5.8-5.4-11.6-10.8-17.5-16.3c-2.6-0.7-5.6-0.9-7.9-2.1c-2.5-1.4-4.9-1.9-7.8-1.9
		c-3.3-0.2-6.5-0.8-9.7-1.4c-0.9-0.1-1.9-0.8-2.3-0.5c-3.7,2.3-8.2,0.3-11.9,2.3c-0.8,0.5-2.1,0.4-3.2,0.3c-3.7-0.2-6.2,0.1-8.2,2.2
		c-1.9,1.9-3.9,2.8-6.6,2.7c-1.3,0-2.7,0.1-4.1,0.1c-0.9,0.8-1.7,1.4-2.5,2.2c-1.6,1.8-3.5,2.5-5.9,2.5c-1.6,0-3.4-0.3-4.6,1.1
		c-2.1,2.6-4.6,3.8-7.9,3.4c-3.7,1.5-8.1,0.9-11.5,3.7c-0.2,0.5-0.3,1.1-0.5,1.6c-0.3,0.8-0.8,1.6-1.7,1.4c-1.7-0.4-3.3-0.4-4.5,1.2
		c-1.5,1.9-3.5,2.5-5.6,3.1c-2.9,1-5.9,1.6-8.4,3.1c-2.6,1.7-5.3,2.7-8.1,3.8c-0.5,0.2-1.2,0.4-1.4,0.8c-2.2,3-6.3,3.1-8.6,6
		c-0.7,0.9-2.3,1.4-3.5,2c-2,0.9-4,1.7-6.1,2.3c-1.7,0.5-3.1,1.1-4.2,2.4c-2.8,3.4-6.6,4.6-10.8,5.3c-0.8,0.1-1.6,0.3-2.3,0.7
		c-1.5,1-1.6,3.6-4.1,3.4c-1.8-0.1-3.2,0.7-4.2,2.1c-1.3,1.5-3.3,2-4.7,3.3c-2.3,2-4.5,4-6.4,6.4c-2.4,3.2-6.3,4.1-9.3,6.5
		c-0.2,0.2-0.5,0.2-0.8,0.2c-4.5-0.3-6.9,2.9-9.5,5.6c-1,1-2,2-2.8,3c-2.2,3-5.2,4.9-8.8,5.6c-1.7,0.3-3.1,1.1-4.2,2.4
		c-2.2,2.4-4.4,4.8-7.7,5.8c-1,0.3-1.6,1.5-2.5,2c-0.8,0.6-1.9,1.5-2.8,1.4c-3.5,0-5.4,2.3-7.5,4.5c-1.5,1.8-3.2,2.9-5.6,3
		c-1.8,0-3.2,0.9-4.3,2.1c-1.8,2-3.7,4-5.6,6c-2,0.1-4,0.5-5.9,0.4c-3-0.1-5.2,0.8-6.6,3.7c-0.7,1.3-1.9,1.8-3.5,1.5
		c-3.8-0.4-7.5-1.2-11.2-1.9c-3.1-0.6-6.5-1.3-8.9-3.8c-0.8-0.9-2-0.9-3.1-0.5c-2.9,1.3-5.8,1.1-8.8,0.7c0-1.1,0.1-1.8,0-2.6
		c-0.4-4.3-2.8-6.8-7.1-7.5c-0.9-0.1-1.6-0.2-2.5-0.3c-1.5-0.3-2.8-1.8-3.1-3.4c-0.3-1.8,0.2-3.3,1.6-4.4c0.7-0.4,1.5-0.7,2.3-0.9
		c0.6-0.2,1.2-0.3,1.6-0.1c3.1,1.7,6.5,0.5,9.7,1.2c2,0.4,3.7,1,5.1-1c1.4-2,3.5-2.6,5.6-3.1c2.7-0.7,4.9-2,6.9-4.1
		c3.8-4.4,7.8-8.5,11.8-12.7c2-2.2,3.9-4.5,7-5.5c1.2-0.4,2.1-1.6,3.1-2.6c2.9-2.9,5.4-6.2,9.2-8c1.4-0.6,2.3-2.2,3.6-3.4
		c0.8-0.7,1.5-1.9,2.4-2.1c3.7-1.1,5.8-4,8.3-6.5c1.2-1.2,2.3-2.3,4-2.7c0.5-0.1,1-0.4,1.5-0.7c2-1.8,4.2-3.3,6.7-4.6
		c2.2-1,3.6-3.4,6.2-3.8c0.7-0.2,1.5-0.8,1.9-1.5c2.4-3.3,6-4.7,9.1-6.7c1.8-1.2,4.3-1.4,5.6-3.2c1.3-1.9,3.9-2.1,5.4-3.6
		c1.9-2,4.6-3,6.8-4.5c2.4-1.7,5.7-2,7.5-4.8c1.7-0.7,3.5-1.5,5.3-2c1.9-0.6,3.6-1.3,4.9-2.9c1.1-1.3,2.7-1.7,4.2-2.3
		c2.5-1.1,5.2-1.7,6.9-4.1c0.3-0.4,0.9-0.8,1.3-1c4.4-1,7.7-4,11.8-5.5c2.5-0.9,5.2-1.6,7.1-3.9c0.6-0.8,1.9-1.1,2.8-1.4
		c2.6-1,5.1-1.8,7.7-2.8c2.8-1.1,5.7-2,8.1-3.8c1.3-1,3-1.5,4.5-2c5.9-2.2,11.8-4.2,17.7-6.4c6.4-2.4,12.7-4.8,19.1-7.4
		c1.3-0.5,2.4-1.4,3.5-1.9c0.7-0.3,1.5-0.2,2.3-0.3c0.6,0,1.2,0.5,1.6,0.4c2.3-0.7,4.5-1.8,6.9-2.4c2.3-0.6,4.9-0.5,6.7-2.5
		c0.5-0.6,1.5-0.5,2.3-0.2c0.7,0.3,1.6,0.6,2.3,0c1.9-1.8,4.2-2.1,6.8-2.3c2.9-0.3,5.7-1.6,8.5-2.4c0.8-0.2,1.6-0.8,2.3-0.7
		c5,0.4,9.6-1.8,14.6-1.7c1.9,0,3.8,0,5.5-1.1c0.6-0.4,1.5-0.5,2.4-0.5c4.9-0.2,9.9-0.4,14.8-0.5c1.3,0,2.8,0.1,4.1,0.5
		c1.9,0.6,3.8,0.6,5.7,0.5c4.2-0.4,8.2,0.5,11.7,2.7c1.3,0.8,2.7,0.9,3.9,0.5c2.1-0.6,4.2-1.3,6.4-1.1c1.7,0.1,3.3,0.3,4.5,1.6
		c1.2,1.2,2.6,1.7,4.3,2.2c3.4,1,6.7,2.2,10.3,2.2c2.7-0.1,5.3,1.2,7.4,3.1c2,1.8,4,3.7,6.1,5.5c1.6,1.5,3.1,3,5.6,3.3
		c0.9,0.2,2,1.1,2.5,2c1,1.9,2.2,3,4.4,3c1.4-0.1,2.6,0.7,3.7,1.6c2.7,2.7,5.9,4.8,7.2,8.7c0.4,1.2,1.8,2.1,2.7,3
		c3.4,3.2,6.8,6.3,10.2,9.5c1.6,1.5,2.9,3.2,3.6,5.4c1,3.2,2.9,5.8,5.6,7.9c1.1,0.9,1.9,1.9,3,2.8c2.4,2,3.7,4.5,5.2,7.2
		c1.6,2.7,1.5,4.4-0.5,6.5c-0.3,0.4-0.6,0.9-0.9,1.4c-0.3,0.6,0,1.9,0.6,2.2c0.8,0.3,1.5,0.6,2.2,0.8c1.4,0.4,2.5,1.3,3,2.7
		c0.9,2.2,1.7,4.6,2.6,6.9c0.8,2.1,1.8,4,3.5,5.5c2.3,2,2.8,4.8,2.5,7.4c-0.2,1.8,0.2,3,1.2,4.4c1.3,1.7,1.5,4.1,3.2,5.7
		c0.9,0.8,0.4,2,0.2,3c-0.1,0.7-0.1,1.7,0.3,2.3c1,1.6,2.2,3,3.4,4.5c2,2.7,3.5,5.5,2.9,9c-0.1,1,0.3,2.2,0.7,3.2
		c2,5.4,3.7,10.8,6.1,16.1c1.2,2.6,0.8,5.4,2.1,7.9c1.2,2.4,2,5,2,7.9c0,1,0.6,2.2,1.2,2.9c1.1,1.3,1.7,2.8,1.7,4.5
		c0.1,1.7,0.7,3.2,2,4.3c1,1,2,1.9,2.2,3.4c0.2,2.9,1.7,5.1,3.7,7c0.7,3,2.8,5.2,5,8c0.1,2,0.2,4.5,0.3,7c0.4,0.6,0.8,1.3,1.4,1.9
		c1.5,1.6,3.2,3.1,4.8,4.6c1.2,1.2,2.1,2.5,2.2,4.2s1,3.1,1.9,4.4c1.3,1.7,2,3.9,3.3,5.5c1.2,1.5,2.7,2.7,4,4
		c0.8,0.7,1.8,1.6,2.1,2.5c0.8,3.6,3.2,5.5,6.2,7.1c0.8,0.5,1.2,1.8,1.9,2.5c4,3.8,8,7.6,11.9,11.2c0.7,0.7,1.9,1,2.9,1.5
		c1.2,0.6,2.4,1.2,3.7,1.6c2.6,0.8,5.1,1.9,6.9,4c1.3,1.5,3.1,2.2,5.1,2c0.3,0,0.6,0,0.8,0c2.5,0.3,4,2.8,6.8,2.5
		c2-0.1,4.3,0.8,6.3,1.3c1.9,0.4,3.1,2.1,5.2,2c4.6-0.2,9.3-0.2,13.9-0.3c4-1.9,8.5-1.8,12.5-3.5c1.5-0.6,3.1-1.1,4.7-1.2
		c0.8-0.1,1.8-0.1,2.3-0.6c4.2-3.3,9.4-4.2,14.1-6.4c1.9-0.9,4-1.6,5.7-3.2c0.7-0.7,1.8-1.2,2.8-1.5c5.5-1.7,10.1-5.4,15.2-7.7
		c1.2-0.5,2.3-1.6,3.2-2.5c7.1-7.6,14.2-15.2,21.3-22.9c0.7-0.8,1.8-1.6,1.9-2.6c0.7-3.5,3.3-5.5,5.4-8.1c2-2.5,2.8-5.8,4.3-8.7
		c1.1-2.2,0.8-5,2.5-6.8c1.6-1.7,2.2-3.7,2.8-5.8c0.3-0.9,1.3-1.8,2-2.5c1.4-1.7,3-3.2,4.4-4.9c0.7-0.8,1.6-1.7,1.8-2.7
		c1.2-4.8,4.3-8.9,5.3-13.6c0.4-1.7,1.2-3,2-4.4c0.4-0.7,0.8-1.6,0.6-2.3c-0.7-2.8,1.2-5.3,0.9-8c-0.3-2.6,1.3-4.6,1.9-7.1
		c0.8-2.9,0.3-6,1.5-8.8c-0.2-6.3,1.6-12.4,1-18.8c-0.1-1.6,0-3.2,0.7-4.8c0.5-0.9,0.2-2.1,0.2-3.3c0-1.1-0.4-2.3,0-3.3
		c2-6.4,0.9-13,0.7-19.6c0-0.6,0-1.1,0-1.6c0-0.9,0.7-1.4,1.4-1.7c1.1-0.2,2,0.6,2.1,2c0.1,3.3,0.3,6.6,0.4,9.8
		c0.1,1.9,0.2,3.9,0.3,5.7c0.1,1.4,0.7,2.6,1.7,3.6c1.2,1.2,0.9,2.5,0,3.7c-1.8,2.3-1.3,4.5-0.5,7c1,2.7,2.6,4.8,5,6.2
		c0.8,0.5,2.4-0.4,2.5-1.4c0.3-2.5,0.5-5-0.5-7.2c-0.8-1.5,0-2.6,0.7-3.7c0.7-0.9,0.8-2.2,0.1-3c-1.3-1.6-1.6-3.4-1.9-5.3
		c-0.3-2,0.2-3.6,1.4-5.4c1.5-2.2,1.1-4.3-0.4-6c-1.3-1.4-2.6-2.7-3.7-3.9c0-0.9-0.1-1.5,0.1-2c1.8-4.7,2.3-9.5,0.4-14.4
		c-0.7-1.7-0.4-3.7-1-5.6c-0.5-1.7,0.2-3.8,0.2-5.6c-0.1-1.7,0.4-3.2,1.5-4.5c0.9-1.2,1-2.5,1.1-3.9c0.4-2.9-0.8-6,0.5-8.9
		c-0.2-2.5-0.9-4.8-2.2-6.9c-0.4-0.6-1.3-1.1-2-1.3c-1-0.4-2.1-0.6-3.2-0.8c-0.5-3.2-1.3-6,0.3-9c0-4.9,2.1-9.6,1.2-14.7
		c-0.2-1.3,0.4-2.6,0.6-4c0.1-0.2,0.3-0.6,0.2-0.8c-1-8.3,3.7-15.8,3.5-24.1c0-0.7,0.7-1.6,0.7-2.4c0.2-2.6,2.2-4.4,2.7-6.8
		c0.4-2.1,0.1-4.3,0.9-6.4c0.7-1.4,0.5-3.2,0.5-4.8c-0.1-1.7,0.2-3.2,1.4-4.6c1.5-1.9,0.4-4.3,1.1-6.3c0.6-1.8,2.4-3.1,2.1-5.2
		c-0.4-2.4,0.5-4.3,2.2-5.9c2.8-2.7,3.9-6.5,5.7-9.8c0.3-0.4,0.2-1.2,0.5-1.6c3.2-2.9,3.4-6.6,3.1-10.5c-0.1-2.2,1.3-4.2,0.7-6.5
		c-0.6-1.6-0.7-3-0.1-4.7c0.6-1.9,1.3-3.6,2.6-5c5.5-5.9,10.8-11.6,16.3-17.5c1.1-1.2,2.2-2.4,3.9-2.8c1.3-2,2.7-4.1,5.3-4.6
		c2.6-2.9,5.8-4.8,8.9-7.1c1.8-1.3,3.4-2.5,5.9-2.6c1,0,2.2-0.5,2.9-1.2c1.9-2.2,4.6-3,7.2-3.9c2.2-0.7,4.1-1.5,5.5-3.4
		c2.9-3.9,6.7-6.2,11.4-7.6c2.4-0.7,4.5-1.8,6.8-2.9c0.7-0.3,1.7-0.5,2.2-1.1c3.6-4.2,8.5-4.5,13.4-4.9c0.6,0,1.1-0.1,1.6-0.3
		s1-0.5,1.5-0.8c5.6-5.6,5.6-5.6,12.8-8.5c1.3-0.5,2.6-0.7,3.9-1c0.8-0.2,1.9,0,2.3-0.4c2.5-2.1,5.4-2.3,8.5-2.5
		c1.1-0.1,2.2-0.4,3.1-0.8c2.8-1.1,5.6-1.8,8.7-1.1c2.1,0.4,4.3-0.1,6.6-0.3c0.8-0.1,1.7-0.3,2.2-0.8c2.1-1.9,4.3-2.3,6.8-1
		c1.6,0.8,3.2,0.2,4.9,0.3c1.6,0,3.2,1.2,3.7,2.8c0.4,1.3,0.5,2.7,0.7,4.1L1319.3,50L1319.3,50z"/>
	<path class="st0" d="M576.9,963.6c-1-1.2-1.8-2.2-2.7-3.2c-0.3,0.2-0.6,0.1-0.8,0.2c-2.5,2.8-5.8,4-9.6,3.7
		c-2.7-0.2-5.5,0.6-7.9-1.1c-1,0.9-1.7,1.7-2.5,2.4c-1.9,0.1-3.8,0.3-5.7,0.4s-3.6,0.9-5.2,1.8c-3.1,1.7-6.5,3.3-9.8,3.8
		c-3.5,0.5-6.7,2.4-10.4,2.2c-0.9,0-1.9,0.9-2.8,1.4c-0.5,0.2-1,0.7-1.5,0.5c-3.2-0.7-5.8,0.9-8.5,2.1c-1.9,0.7-3.7,0.6-5.5-0.6
		c-1.4-1-2.3-0.5-3.4,0.7c-2,2.2-5.1,2.9-7.4,4.7c-1.6,0-3.3,0.3-4.9,0c-1.6-0.4-3.1-1-4.8-0.9c-2.9,0-5.4,0.1-5.9,4
		c-0.3,1.9-2,3.2-4.2,3.2c-1.1,0-2.2,0-3.3,0.1c-0.8,0.1-1.9,0.1-2.4,0.7c-2.3,2.5-5.3,2.5-8.2,3.1c-1.8,0.4-3.8,0.6-5.2,2.1
		c-1.2,1.3-2.8,1.8-4.5,1.7c-4.8-0.3-8.4,2.1-11.6,5c-2.1,1.8-3.9,2.6-6.5,2.7c-2,0.1-2.8,1.4-3,3.2c-0.1,0.5-0.4,1-0.7,1.5
		c-1.7,0.6-3.5,1.3-5.2,2c-1,0.4-2.2,0.6-2.9,1.4c-2.7,2.8-6.4,4-9.6,5.9c-1.5,0.9-2.4,1.7-3.1,3.4c-1.3,3.4-3.7,6.1-7,7.7
		c-3.7,1.8-6.2,4.3-7.4,8.2c-0.3,1.2-1.4,1.5-2.5,1.9c-1,0.4-2,1-2.2,2.2c-0.4,2-1.6,3.5-2.9,4.8c-2.5,2.6-4.8,5.2-7.3,7.8
		c-1.2,1.2-1.9,2.6-1.8,4.4c0.1,2-0.4,3.8-1.9,5.2c-2.1,2-3.3,4.3-2.9,7.3c0.2,1.1-0.3,2.2-1,3c-1.4,1.5-1.9,3.3-1.7,5.3
		s0.2,3.7-0.6,5.6c-0.5,1.2-0.2,2.7-0.3,4.1c-0.1,2.1,1.2,3.6,1.5,5.5s0.1,3.9,0.5,5.6c0.3,1.5,1.5,2.9,1.4,4.6
		c-0.1,2.3,0.9,4.2,2.5,5.8c0.5,0.5,1.1,1.4,1,2.2c-0.6,3.8,0.9,6.8,3.1,9.7c0.8,1,0.9,2.5,1.5,3.8c0.5,1.2,0.9,2.9,1.9,3.5
		c2.5,2,3.1,5.1,4.7,7.6c1.9,3,2.8,6.4,3,10.1c0.3,3.8,1.3,7.5,4.3,10.4c0.5,0.5,1,1.5,1,2.2c-0.6,3.6,1.8,6.9,1.2,10.5
		c-0.2,1.1,0.5,2.1,1.2,2.9c1,1.1,1.4,2.3,0.9,3.7c-0.5,1.3-0.7,2.8-0.1,4c1.8,4.3,1.7,8.4,0.5,12.8c-0.6,2.4-0.5,4.9,0.2,7.3
		c0.2,0.8,0.6,1.5,0.6,2.3c-0.4,3.6,1.2,7,0.9,10.5c-0.2,2-0.4,3.8-1.9,5.2c-1.3,1.2-1.7,2.8-1.7,4.4c0,0.8,0,1.6,0,2.5
		c0.3,3.3,0.3,6.6-2.7,9c-1,3.1-3,5.7-3.9,8.9c-0.5,1.9-1.6,3.5-3.2,4.6c-1.1,0.7-2,1.8-3,2.8c-1.4,1.3-2.5,2.8-2.9,4.8
		c-0.3,1.8-1.5,3.1-2.9,3.9c-3.3,1.9-5.9,4.7-9.1,6.6c-2-0.6-3.9-0.9-5.3,0.9c-1.1,1.3-2,2.5-2.4,4.2c-0.6,2.2-2,3.8-4.2,4.7
		c-1.2,0.5-2.7,1.1-3.5,2.1c-3.7,4.1-8.4,6.9-12.8,9.9c-1,0.7-1.4,1.5-1.8,2.5c-0.4,0.9-1.2,1.1-1.9,1.1c-0.9-0.1-1.6-0.4-2.4-0.7
		c-2.6-1-5.2-1.7-8-1.4c-1.6,0.1-3.3-0.3-4.8-0.5c-0.9-0.2-1.7,0.1-2.2,0.6c-3.5,3.9-8.5,4.5-13.1,6.1c-1.5,0.5-2.7-0.2-3.4-1.5
		c-0.4-0.8-0.6-1.5-0.9-2.2c-0.4-0.8-1.5-1.1-2.1-0.7c-3.4,2.2-7.1,3.8-10.5,6c-0.4,0.3-0.7,0.8-1.1,1.2c-2.2-0.1-4.5,0.2-6.5-0.6
		c-3.3-1.3-6-0.2-8.3,1.7c-1.6,1.4-3.8,1.8-5.2,3.7c-1.3,1.7-3.6,2.3-6,1.3c-1.2-0.5-2.6-0.1-4-0.1c-0.2,1.4-0.1,2.5-0.4,3.6
		c-0.2,0.6-0.9,1.4-1.6,1.6c-3.9,0.8-7.7,0.3-11.3-0.9c-3.6-1.3-6.8-1.1-10.2,0.4c-5.4,2.3-11.2,2.3-16.9,1.9
		c-0.3,0-0.6-0.3-0.7-0.5s0-0.6,0.3-0.7c2.3-0.9,4.2-2.4,6-4.1c1.6-1.4,4.1-1.3,5.6-3.2c1.4-1.7,2.9-3.3,4.5-4.8
		c1-0.9,2-2.1,3.2-2.5c2.7-0.7,4.2-2.5,5.9-4.2c12-12.9,23.9-25.7,35.9-38.6c1.8-2,3.8-3.8,4.3-6.8c0.1-1,1.1-1.9,1.7-2.8
		c1.4-1.7,3-3.2,4.4-4.9c0.8-1,2-2.1,2.2-3.4c0.5-2.3,1.8-3.9,3.3-5.5c0.5-0.6,1.3-1.2,1.4-2c0.5-3.2,2.9-5.3,4.9-7.5
		c1.2-1.2,1.8-2.7,2.3-4.3c0.6-1.5,1.8-2.7,2.6-4.1c0.8-1.4,1-3.1,2-4.5c2-2.7,1.7-6.5,4.6-8.5c1.5-2.6,2.9-5.2,4.5-7.9
		c0.1-2.3,0.2-4.7,0.2-7.3c0.8-1,1.6-2.2,2.4-3.2c0.7-0.9,1-1.9,0.5-3c-0.5-1-0.6-2.2,0.1-3c1-1.4,1.6-2.9,1-4.6
		c-0.4-1.2,0.3-2.1,0.8-3.1c0.3-0.6,0.8-1.7,0.5-2.3c-1-1.7-0.3-3.1,0.1-4.7c0.3-1.4,0-2.7-0.5-4c-0.9-2-1.8-4.1-2-6.2
		c-0.3-2.9-1.5-5.2-3.7-7c-1.5-1.3-2.3-2.8-3-4.7c-0.8-2.2-1.2-4.8-3.3-6.5c-1.8-5.9-5-11.4-7.9-16.9c-0.6-1.3-1.2-2.5-1.5-3.8
		c-0.7-2.7-1.2-5.3-1.8-7.9c-0.1-0.5,0.1-1.1-0.1-1.6c-2.7-5.6-2.9-11.6-3.4-17.6c-0.1-1.1-0.2-2.3-0.7-3.2
		c-1.4-1.9,0.9-3.6-0.1-5.6c-1-1.7-0.1-3.7-0.1-5.5c0.3-2.9-0.3-5.9,0-8.8c0.3-3.3-0.2-6.6,1.2-9.7c-0.9-5.6,2.5-10.6,2.6-16
		c0.1-2.6,1.7-5.2,3.8-7c1.7-1.5,2.7-3.4,2.3-5.9c-0.1-0.8,0-1.6,0.3-2.4c1-2.2,1.7-4.7,3.2-6.6c1.8-2.3,2.8-4.6,3.4-7.3
		c0.4-1.9,1.3-3.6,2.6-5c2-2.2,4.2-4.3,4.9-7.5c0.2-1.1,1.5-2.2,2.4-3.3c2.5-2.8,5.4-5.4,6.7-9.2c0.3-0.9,1.4-1.7,2.3-2.2
		c1.9-1.1,4-1.9,5.8-2.8c0.8-2.2,1.8-3.7,4.1-4.8c4-2,8.5-3.8,11.3-7.8c0.5-0.7,1.2-1.4,1.9-1.6c3.4-1,5.5-3.5,7.6-6
		c1.7-1.8,3.5-3.3,6.1-3.9c2.7-0.7,4.9-2.2,7.1-3.8c2.3-1.8,5.2-2.7,7.2-5.1c1.7-2.1,4.9-2.4,6.6-4.8c0.5-0.7,1.3-1.1,2-1.3
		c2-0.5,3.4-1.7,4.6-3.2c1.4-1.5,2.8-2.4,4.7-3c2-0.6,4-1.8,6.1-2.4c1.9-0.6,3.6-1.3,4.9-2.8c1.6-2,4.7-1.7,6.2-3.8
		c1-1.4,2.7-1.7,4-2.7c5.5-3.7,11.9-5.3,17.2-9.2c0.8-0.6,2-0.7,3-1.2c3.6-1.8,8-2,11.2-4.9c0.9-0.8,2.8-0.4,3.9-1
		c3.7-2.4,8-3.3,11.8-5.6c1.2-0.7,2.3-1.3,3.6-1.8c6.9-2.4,13.8-5.1,20.7-7.8c3.1-1.2,6.1-2.4,9.4-2.7c1.1-0.1,1.9-0.9,3-1.3
		c1-0.5,1.9-1.3,2.9-1.2c2.6,0,4.8-1.2,7-2.1c4.8-1.8,9.6-3.9,14.5-5.5c2.3-0.7,4.9-0.4,7.7-0.6c0.8-0.7,1.8-1.5,2.8-2.4
		c1-1,2.3-1.6,3.6-1.7c0.6,0,1.1-0.2,1.7-0.2c4.5-0.1,8.6-1.3,12.7-2.9c2.8-1.1,5.6-2.2,8.8-1.9c1,0.1,2.3-0.2,3.1-0.8
		c2.5-2.3,5.8-3,8.8-4.1c3.1-1.1,6.1-2.3,9.5-2.7c2.7-0.4,5.1-1.7,7.5-3c2.8-1.7,5.8-2.9,8.9-4c1.7-0.7,3.7-0.6,5.6-0.8
		c2.7-1.9,4.3-5.1,7.9-5.8c0.7-0.2,1.4-0.9,1.9-1.5c2.5-2.6,5-5.1,7-7.8c-0.8-5.3-2.6-10.2-2.9-15.4c0-0.8-0.1-1.8-0.6-2.3
		c-2.4-2.2-2.6-6.1-5.4-8.2c-1.6-1.1-2.4-2.9-3.1-4.7c-0.8-2.1-2.6-3.5-4.7-4.2c-1.4-0.4-2.6-0.7-3.7-1.8c-3.6-3.6-8.3-5.2-12.9-6.7
		c-3.1-1-5.8-2.9-8.9-4.1c-0.5-0.2-0.9-0.7-1.1-1.2c-0.7-1.3-1.8-1.8-3.3-2c-3.3-0.3-6.3-1.3-9.2-2.9c-1.9-1-3.9-1.7-5.8-2.7
		c-1.6-0.8-3.8-0.4-5.6-0.9c-2.6-0.8-5.3-1.2-7.3-3.4c-0.5-0.6-1.5-1.1-2.2-1.1c-3.3,0.2-5.1-2.7-7.9-3.8c-1.9-0.7-3.3-2.6-5.6-3.1
		c-1.2-0.3-2.3-1.5-3.3-2.4c-8.2-7.6-16.5-15.3-24.7-23c-1.4-1.3-2.7-2.7-3.3-4.6c-0.3-1-1.1-1.9-1.7-2.7c-1.6-1.8-3.8-3.3-4-6.1
		c-3.2-3.2-4.6-7.3-6.5-11.2c-2.2-4.7-4.6-9.2-5.3-14.5c-0.1-0.8-0.5-1.5-0.7-2.3c-2-4.7-2.8-9.9-4.7-14.8c-1-2.4-1.3-5.3-1.9-7.9
		c1.5-3.2-0.8-6.3-0.7-9.5c0.1-1.3-0.5-2.7-1-3.9c-0.5-1.3-0.7-2.7-0.6-4c0-2.5,0.1-5-0.1-7.4c-0.2-3-1-6,0.7-8.8
		c0.2-3.5,0.4-7,1-10.5c0.5-2.4-0.6-4.9,0.6-7.2c1.2-2.3,0-5,1.2-7.2c0.3-0.4,0.5-1.1,0.4-1.6c-0.7-7.9,3.3-14.8,4.7-22.2
		c0.4-1.7,1.7-2.8,2.5-4.2c0.5-0.9,1.2-2,1.1-2.9c-0.2-2.7,0.4-4.8,2.5-6.6c3.6-3.1,4.9-7.9,7.8-11.5c0.1-2.8,2.8-4.1,3.5-6.3
		c0.8-2.2,1.6-4,3.2-5.6c1.5-1.5,1.5-3.5,1.9-5.3c0.7-2.8,2-5,3.9-7c10.6-11.2,20.9-22.5,31.4-33.7c7.8-8.4,15.7-16.8,23.6-25.3
		c1.8-2,3.6-4,6.5-4.8c1.2-0.3,2.2-1.5,3.2-2.5c1.8-1.8,3.3-3.6,5.1-5.3c1.3-1.4,2.7-2.6,4.6-3.3c1.2-0.4,2.2-1.5,3.2-2.3
		c0.9-0.7,1.5-1.9,2.4-2.1c3.9-1.3,6.2-4.3,8.8-7.1c0.3-0.4,0.7-0.8,1.2-1.1c1.6-1.5,4.1-1.3,5.5-3.3c1.4-1.7,3-3.2,5.2-3.9
		c0.8-0.2,1.5-0.8,1.9-1.5c2.6-3.5,6.5-4.8,10.2-6.7c1.4-0.8,2.9-1.4,4.2-2.6c1.5-1.6,3.1-3,5.3-3.7c1.2-0.4,2.1-1.6,3.2-2.5
		c1.6-1.5,3.1-3.1,4.7-4.6c0.8-0.7,2.1-0.5,3,0.2c0.2,0.2,0.4,0.3,0.6,0.5c1.2,1.2,2.4,2.2,1.7,4.2c-0.8,2.2-0.3,4.2,1.3,6.1
		s1.5,4,0.2,6.1c-0.6,0.9-1.6,1.8-1.2,2.9c0.9,2,0.5,3.6-0.6,5.3c-0.7,1.2-1,2.7-0.9,3.9c0.4,4.5-1.7,8.5-2.7,12.8
		c-0.2,0.8-0.9,1.4-1.3,2c-1.2,1.2-1.9,2.6-2.1,4.3c-0.4,1.9-1.1,3.6-2.4,5.1c-1.1,1.2-1.8,2.8-2,4.4c-0.3,2.8-1.8,5.2-3.2,7.4
		c-2,3-2.6,6.6-4.5,9.6c-1.7,0.8-3.7,0.3-5.4,1.7c-2.3,1.8-5.4,2.3-7.4,5c-1.2,1.7-3,3.1-5,4.1c-1.5,0.7-2.5,2-3.7,3.1
		c-2.1,2.1-4.1,4.4-6.2,6.5c-0.9,1-2,2.1-3.2,2.5c-3.2,0.9-5,3.3-7,5.5c-0.5,0.6-1.3,1.2-1.3,2c-0.5,3.3-2.4,5.3-5.7,6.2
		c-1.7,0.6-1.7,3.2-3.9,4c-1.7,0.7-2.7,2.6-3.2,4.6c-0.3,1.2-1.3,2.4-2.1,3.4c-1.2,1.5-2.6,2.8-3.9,4.3c-1,1-2.1,2-2.4,3.2
		c-1,3-3.2,5.1-5.2,7.3c-2,2.2-4.1,4.2-5,7.4c-0.5,1.7-2.2,3-3.5,4.4c-1.4,1.5-2.2,3-2.7,5c-0.6,2.4-0.9,4.9-2.7,6.7
		c-0.4,2.5-1.7,4.5-3.2,6.6c-1.1,1.5-1.2,3.7-2.3,5.1c-2,2.8-0.5,6.7-3.3,9.1c-1.1,2.8-1.9,5.7-1.7,8.8c-1.4,3.2-0.9,6.4-0.9,9.7
		c0,1.3,0,2.8-0.4,4c-1.1,3.4-1.3,7-1.8,10.4c-0.4,3.2,0.1,6.5,1.5,9.6c-0.3,2.8,1,5.3,2,7.9c0.6,1.8,1.2,3.6,1.3,5.5
		c0.1,1.1,0.4,2.2,1,3c1.3,1.6,2,3.3,2,5.2c-0.1,4,2,7.4,3.2,11c0.6,2,1.9,3.8,3.1,5.6c0.4,0.6,1.3,0.9,2,1.4s1.7,1,1.8,1.5
		c0.4,2.4,2,3.9,3.6,5.4c4.4,4.1,8.9,8.2,13.2,12.3c1.6,1.5,3.2,2.9,5.5,3.3c1.3,0.2,2.4,1.3,3.4,2.1c2,1.8,3.9,3.9,6.9,4.2
		c3.5,3,8.5,3.8,11.6,7.5c1,1.2,2.6,2.1,4.2,2.4c0.5,0.1,1.1,0.3,1.4,0.7c2.1,1.8,4.4,3.2,7.1,3.9c3.2,3.5,8,4.6,11.3,7.9
		c0.6,0.5,1.3,1.2,2.1,1.3c3.3,0.4,5.3,2.7,7.5,4.8c1.4,1.3,2.8,2.6,4.3,3.9c0.9,0.7,1.7,1.4,2.8,1.7c4.8,1.5,7.7,5,10.4,8.8
		c0.4,0.7,0.7,1.5,1.5,1.7c2.5,0.7,4.1,2.6,6,4.3c0.4,0.3,0.9,0.7,1.1,1.2c1.5,4,4.4,6.8,7.2,9.7c0.7,0.7,0.8,2,1.2,3
		c1.3,2.7,2.4,5.5,4.9,7.5c1.1,0.9,1.8,2,2.2,3.3c0.2,0.6,0.3,1.2,0.6,1.5c3.4,3.1,4.4,7.4,6.1,11.4c0.7,1.7,1,3.6,2.4,5.1
		c0.7,0.8,0.9,1.9,1,3c0.7,4.6,2,9,3.5,13.4c0.5,1.3,1.2,2.6,1.3,3.8c0.3,2.2-0.3,4.5,0.5,6.5c0.9,2.2,0.8,4.3,1.1,6.4
		c0.4,2.1,0.8,4.3,1.1,6.4c0.2,1.1-0.3,2.1-0.5,3.2c-0.6,3-0.8,6,1.6,8.5c1.9,2.1,1.7,4.8,1.1,7c-0.6,2.1-0.8,4.3-2.3,6.1
		c-0.9,1.2-1.3,2.4-1.2,3.8c0.1,1.9,0.3,3.8,0.3,5.8c0.1,1.7-0.2,3.3-1.4,4.6c-0.5,0.6-0.9,1.4-0.9,2.2c0.1,2.5-1,4.8-1.4,7.3
		s-3,4.1-2.7,6.7c-1.6,1.9-2.2,4.4-3.2,6.6c-2.6,5.8-2.6,5.8-6.6,10.1c-2,2.2-4.2,4.3-6.4,6.4c-2.9,0.6-4.6,2.6-6.6,4.6
		c-1,1.1-2.4,1.4-3.7,0.9c-1.1-0.4-2.2,0-3,0.7c-1.6,1.7-3.4,2.5-5.5,3.3c-3.4,1.5-7.3,2.2-10.3,4.9c-1.1,1-2.7,0.7-4,0.8
		c-1.5,0.1-2.7,0.9-3.1,2.3c-0.3,0.9-0.8,1.4-1.6,1.6c-1.3,0.3-2.7,0.2-4.1,0.4c-1.1,0.1-2.4,0.2-3.1,0.8c-2.3,2.3-5.8,1.4-8.4,3.1
		c-1.4-0.2-2.6-0.4-4-0.4c-1.7-0.1-3.3,0.1-4.5,1.5c-1,1-1.9,1.9-2.9,2.9c-1.1,1-2.5,1.1-3.9,0.9c-1.1-0.2-2-0.6-3.1-0.9
		c-1.4-0.3-2.7-0.9-4-0.7c-1.3,0.2-2.3,1.4-3.5,1.9C583,961.6,579.9,962.6,576.9,963.6z M290,1292.6c0.5,0.2,0.9,0.3,1.4,0.5
		c0.1-0.6,0.2-1,0.4-1.6c0.2-0.6-0.1-1.1-0.8-1.2c-0.2-0.1-0.6,0-0.8,0.1c-0.3,0.4-0.5,0.9-0.6,1.4
		C289.6,1292.1,289.8,1292.3,290,1292.6z"/>
	<path class="st0" d="M747.4,780.3c0.2,1.3,0.4,2.1,0.4,3c0,1-0.8,1.7-1.5,1.6c-0.2-0.1-0.6,0-0.8,0c-4.9-1.9-10.1-2.3-15.3-1.8
		c-2.3,0.2-4.2-0.5-6.1-1.6c-2.1-1.1-4.6-1.7-6.4-3.6c-1.7-1.9-3.5-3.4-4.2-5.9c-0.3-1.1-1.5-1.6-2.6-1.6c-1.9-0.1-3.8,0-5.7-0.1
		c-1.4-0.1-3.3-2.1-2.9-3.4c0.6-2.1,0.5-4.3,0.3-6.5c-0.2-2.4-0.9-4.8-2.3-6.9c-2.3-3.4-3.9-7.1-5.7-10.8c-0.6-1.3-1-2.6-1.9-3.5
		c-1.8-1.9-2.6-4.3-2.8-6.7c-0.2-2.8-1.5-5.3-1.8-7.9c-0.2-2.6-1.2-4.7-2-7.1c-1.1-3.2-1.3-6.4-1.5-9.7c-0.2-2.5-0.2-4.8-1.2-7.2
		c-0.7-1.6-0.6-3.8-0.2-5.7c0.8-5.1,1.5-10.2,2.5-15.3c0.2-1.3,0.5-2.6,0.5-4.1c0-2.2-0.2-4.4,0.9-6.4c0.5-0.9,0.3-2.1,0.3-3.3
		c0.3-7.5,0.9-11.6,3.2-20c0.8-3.2,1.4-6.3,3.1-9.2c1-1.5,1.3-3.6,1.6-5.4c0.4-2.3,0.3-4.8,1.9-6.9c1.2-1.7,1.7-4,3.3-5.5
		c1.3-1.2,1.5-2.9,1.8-4.5c0.7-2.6,1.5-5.1,3.6-7.1c1.2-1.1,2-2.5,2.3-4.3c0.2-1.1,0.8-2,1.5-2.9c1.6-1.9,3.3-3.6,3.7-6.2
		c0.1-0.7,0.8-1.4,1.3-2.1c2.1-2.6,4.6-4.6,5.4-8c0.4-1.4,2-2.5,3-3.9c1.8-2,3.8-3.9,4.5-6.7c0.3-1.2,1.5-2.3,2.3-3.3
		c3.1-3.5,6.3-6.9,9.5-10.2c2-2.2,3.9-4.6,7-5.5c1.2-0.4,2.1-1.7,3-2.7c1.7-1.7,3.2-3.7,5.9-4.2c0.7-0.2,1.5-0.8,2-1.4
		c3.1-3.7,7.5-5.4,11.7-7.1c2.7-1.2,5.7-2,7.8-4.4c0.5-0.5,1.5-0.7,2.2-0.9c2.3-0.7,4.7-1.8,7-1.9c2.5-0.2,4.7-1.5,7.1-2
		c1.7-0.3,3.1-0.5,4.8,0c1.1,0.4,2.8,0.3,4-0.3c3.5-2,7.6-0.8,11.2-2.3c3.3,1.7,7,0.4,10.5,1c1.6,0.4,3.2,0.5,4.9,0.6
		c1.4,0.1,2.6,0.6,3.7,1.4c0.7,0.5,1.4,1,2.2,1.1c5.7,0.2,9.9,4.2,15.1,5.8c1,0.2,1.8,1.1,2.6,1.9c2,1.8,3.9,3.9,6.9,4.2
		c1,0.1,1.9,1,2.8,1.7c5.4,5,10.8,10.2,16.3,15.1c1.8,1.6,2,3.8,3.2,5.6c1.2,1.8,2.8,3.3,4.2,5c0.3,0.4,0.4,1,0.5,1.5
		c1.1,4.1,3.6,7.3,6.8,10c1.1,0.9,1.9,1.9,3,2.8c2.4,2,4.2,4.3,5,7.3c0.7,2.7,3,4.6,4,7.1c1.1,2.8,3,5.1,3.7,8.1
		c0.4,1.9,1.2,3.6,2.5,5.1c0.7,0.8,0.8,2,0.9,3c0.1,1.4,0.2,2.8,1.3,3.8c1.7,1.6,1.7,4,2.9,5.8c0.4,3.9,2.3,7.2,3.9,10.6
		c2.1,4.2,2,9,3.9,13.2c0.1,3.3,1.2,6.5-0.4,9.7c0.3,4.4-1.9,8.5-1.4,12.9c0.3,2.5-1.5,4.7-1.1,7.2c0.4,2.4,0.2,4.9,0.3,7.4
		c0.2,2.8-0.2,5.2-1.8,7.7c-1.3,2-1.1,4.9-2.2,6.9c-1.3,2.2-1.7,4.4-2,7c-0.4,3.6-1.6,6.8-4.4,9.4c-2.6,2.4-4.9,5.1-7.3,7.8
		c-1.7,1.8-3.2,3.6-4.1,6c-0.8,2.4-2.8,4-5.3,4.9c-1,0.4-1.8,1.2-2.1,2.3c-0.8,2.8-2.7,4.6-5.2,5.9c-1.2,0.5-2.3,1.4-3.3,2.4
		c-1.4,1.3-2.6,2.8-4.5,3.4c-1.7,0.6-1.4,2.8-2.6,4c-0.8,0.7-1.6,1.5-2.9,1.2c-0.8-0.2-1.5-0.6-2.4-0.7c-1.4-0.3-2.8-0.2-3.9,0.9
		c-1.5,1.5-3.3,1.9-5.2,2c-0.8,0.1-1.6,0.1-2.1,0.9c-1.3,2-3.4,2.9-5.6,3c-2.5,0.2-4.8,1.3-6.9,2.3c-2.5,1.2-4.8,2.5-7.5,2.7
		c-1,0-1.9,0.9-2.8,1.4c-0.8,0.4-1.4,1-2.2,1.1c-3.6,0.3-6.8,1.9-10.2,2.9c-2.9,0.8-5.6,1.9-8.2,3.3c-3.3,1.7-6.7,3.8-10.7,3.3
		c-3.6,1.4-7.4,1.7-11.3,1.7c-1.9,0-3.8-0.1-5.6-0.6c-2-0.5-4.3-0.2-6.5-0.2c-4.1,2.1-8.6,1.3-13,1.7c-2.1,0.2-4.4-0.1-6.5,0.9
		c-0.6,0.2-1.6,0.1-2.3-0.1c-2.4-0.6-4.9-1.1-7.1-1.9C751.5,778.1,749.7,779,747.4,780.3z M785.7,597.5
		C785.6,597.4,785.6,597.4,785.7,597.5c-1.6,1.5-3.2,3.1-4.6,4.7c-0.8,1-2,2.1-2.2,3.4c-0.6,2.3-2,3.9-3.5,5.5
		c-2.6,2.8-5.2,5.6-7.8,8.4c-2,2.2-4.3,4.2-5,7.4c-0.1,0.5-0.5,0.9-0.8,1.4c-0.2,0.2-0.3,0.4-0.5,0.7c-2.6,3.1-6.1,5.7-6.7,10
		c-2.6,2.5-3.8,5.9-5.4,9c-2.3,4.3-4.4,8.7-5.5,13.6c-0.5,2.1-1.5,4.1-2,6.2c-0.4,1.9-1.3,3.6-2.5,5c-0.5,0.6-1,1.4-1.1,2.1
		c-0.2,2.4,0,5-1.3,7.1c0.4,4.5-1.2,9.4,2.5,13.4c0.8,0.9,0.7,2,0.7,3.2c0,1.1,0.2,2.1,0.5,3.2c0.7,3.2,3.2,5.7,4.3,8.7
		c0.5,1.3,1.7,2.1,2.5,3.2c0.8,1,2,2,2.5,3.2c1.2,3.1,4.6,4.8,5.2,8.2c0.1,0.5,0.7,1,1.2,1.1c1.8,0.4,3.6,1.9,5.4,1.2
		c2.9-1,6-0.4,9-1c1.3-0.3,2.9-0.5,3.8-1.3c2.7-2.3,6.5-2.9,8.6-6c0.4-0.6,1.2-1.2,2-1.3c2-0.5,3.3-1.8,4.6-3.2
		c0.7-0.8,1.5-1.8,2.4-2.1c2-0.9,4.1-1.5,6.1-2.2c2.4-0.8,3.5-3.6,6.1-4c0.3,0,0.6-0.1,0.8-0.2c3.3-2.4,7.4-3.4,10-6.9
		c0.8-1.2,2.2-1.5,3.6-1.7c1.3-0.1,2.7-0.4,3.8-1.4c1.6-1.4,2.5-3.7,5-3.8c0.1,0,0.3-0.4,0.4-0.6c0.4-1.4,1-2.6,2.6-2.9
		c1.4-0.3,2.4-1.2,3.5-2c1.5-1,4.5-3.9,5.3-5.4c0.4-0.7,0.9-1.4,1.4-2c1.6-1.8,3.4-3.5,3.7-6.2c0.1-1,1.1-1.9,1.8-2.7
		c2.9-2.9,3.9-6.5,4.4-10.3c0.3-2.6,1.3-5.4-1.4-7.5c-1.1-2.8-2.5-5.4-1.9-8.6c0.2-1.6-0.3-3.2-0.9-4.8c-1.7-4.7-3.9-9.1-8-12.1
		c-0.4-0.3-0.8-0.7-1.2-1.1c-2-1.6-3.2-3.6-3.9-6.1c-1.5-5-4.9-8.4-9.7-10.3c-1.1-0.5-1.9-1.1-2.2-2.2c-0.5-1.4-1.2-2.6-2.7-2.8
		c-2-0.4-3.5-1.6-4.8-2.9c-1.2-1.2-2.5-2-4.1-2.5c-1-0.2-2-0.9-2.8-1.5c-3.1-2.6-7.3-3.8-10.1-6.9c-1.2-1.2-4-0.8-5.3,0.4
		C789.3,593.4,787.5,595.5,785.7,597.5z"/>
	<path class="st0" d="M1319.3,50l0.4,0.6c0,0-0.3-0.3-0.4-0.3C1319.1,50.3,1319.3,50,1319.3,50z"/>
	<path class="st0" d="M290,1292.6c-0.1-0.2-0.4-0.5-0.3-0.7c0.1-0.4,0.3-0.9,0.6-1.4c0.1-0.1,0.5-0.2,0.8-0.1
		c0.6,0.1,0.9,0.5,0.8,1.2c-0.1,0.5-0.2,1-0.4,1.6C290.9,1292.9,290.5,1292.8,290,1292.6z"/>
</g>
</svg>
