<?xml version="1.0" encoding="utf-8"?>
<!-- Generator: Adobe Illustrator 21.1.0, SVG Export Plug-In . SVG Version: 6.00 Build 0)  -->
<svg version="1.1" id="Calque_1" xmlns="http://www.w3.org/2000/svg" xmlns:xlink="http://www.w3.org/1999/xlink" x="0px" y="0px"
	 viewBox="0 0 841.9 595.3" style="enable-background:new 0 0 841.9 595.3;" xml:space="preserve">
<g>
	<g>
		<path d="M475.7,157.4c0-1.3,0-2.7,0-4c0-0.4,0-1,0.2-1.3c1-0.9,0.9-2,0.9-3.1c0-0.7,0.2-1.3,0.6-1.8c0.3-0.4,0.3-1,0.4-1.6
			c0-1.9,0-3.8,0-5.7c0-0.5,0.1-1.2,0.3-1.6c0.5-0.7,0.6-1.4,0.6-2.2c0-2.9,0-5.8,0-8.7c0-0.7,0.1-1.4-0.3-1.9
			c-0.6-0.8-0.6-1.9-1.5-2.6c-0.6-0.5-1.4-1.2-1.4-2.2c0-0.3-0.3-0.5-0.6-0.8c-0.6-0.7-1.3-1.2-1.5-2.1c-0.1-0.5-0.6-0.9-1-1.3
			c-1.2-1.3-2.4-2.6-3.6-3.9c-0.3-0.4-0.4-0.8-0.5-1.2c0-0.4-0.3-0.7-0.6-0.7c-1,0-1.5-0.8-2.2-1.3c-1-0.7-1.7-1.8-3-2.1
			c-0.2,0-0.3-0.3-0.4-0.5c-0.1-0.9-0.5-1.4-1.5-1.5c-0.4,0-0.7-0.4-1.1-0.7c-0.7-0.6-1.1-1.4-2.2-1.4c-0.4,0-0.7-0.5-1-0.8
			c-0.6-0.4-1.1-1.1-2-1.2c-0.2,0-0.4-0.1-0.6-0.3c-0.8-0.7-1.4-1.6-2.6-1.9c-0.9-0.2-1.6-1.2-2.6-1.3c-0.5-0.6-1.4-0.7-2-1.1
			c-0.5-0.4-1.1-0.7-1.8-0.8c-0.3-0.1-0.5-0.4-0.8-0.6c-0.7-0.7-1.5-1.3-2.6-1.4c-0.8-0.7-1.7-0.9-2.7-1.1c-0.9-0.2-1.7-1-2.7-1.2
			c-0.6-0.8-1.5-0.8-2.3-1.2c-0.8-0.4-1.6-0.8-2.2-1.4c-0.7-0.6-1.8-0.2-2.3-1.2c-1.3-0.4-2.3-1.2-3.7-1.2c-0.4,0-0.9-0.2-1.2-0.4
			c-0.5-0.4-0.9-0.6-1.5-0.6c-0.7,0-1.3-0.1-1.9-0.6c-0.2-0.2-0.6-0.3-0.9-0.4c-2.1-0.3-2.5-0.5-5.5-1.9c-0.5-0.3-1.1-0.3-1.6-0.3
			c-1,0-2,0.1-2.8-0.8c-0.2-0.3-0.8-0.2-1.2-0.3c-0.4-0.1-1-0.1-1.2-0.4c-0.6-0.6-1.3-0.7-2.1-0.8c-1,0-2,0.1-2.8-0.8
			c-0.7-0.1-1.3-0.2-2-0.2c-1.1-0.1-2.2,0.1-3.2-0.7c-0.3-0.2-0.8-0.2-1.3-0.2c-1.2,0-2.4,0-3.7,0c-0.8,0-1.5-0.1-2.2-0.7
			c-0.4-0.4-1-0.4-1.6-0.4c-1.7,0-3.3,0-5,0c-2.7,0-5.3,0-8,0c-0.9,0-1.8,0.1-2.5,0.7c-0.4,0.3-0.8,0.3-1.2,0
			c-1.2-0.9-2.5-0.9-3.7-0.1c-0.6,0.4-1.2,0.5-1.9,0.5c-1.8,0-3.6,0-5.3,0c-3.1,0-6.2,0-9.4,0c-0.6,0-1.2-0.1-1.6,0.2
			c-1.3,0.9-2.8,0.7-4.2,0.8c-0.4,0-1,0-1.3,0.3c-0.8,0.6-1.6,0.7-2.5,0.7c-0.8,0-1.5,0.2-2.1,0.7c-0.3,0.3-0.8,0.3-1.2,0.4
			c-0.8,0.1-1.6,0-2.3,0c-0.7,0-1.3,0.2-1.8,0.7c-0.4,0.4-1,0.4-1.6,0.4c-1.3,0.1-2.7-0.1-4.1,0.2c-0.6,0.5-1.3,1.1-2,1.8
			c-0.3,0-0.6,0.1-0.9,0.2c-0.8,0-1.6,0-2.3,0c-0.3,0-0.8,0-1,0.2c-0.9,0.9-2,0.8-3.1,0.8c-0.6,0-1,0.4-1.5,0.6
			c-1.5,0.7-3,1.5-4.7,1.3c-0.8-0.1-1.5,0.3-2,0.9c-1.2,0.2-2,1.4-3.3,1.5c-0.7,0.6-1.5,0.9-2.4,0.9c-0.6,0-1,0.3-1.5,0.7
			c-0.4,0.3-1,0.4-1.5,0.7c-0.5,0.3-0.8,0.8-1.4,0.8s-0.9,0.6-1.4,0.8c-0.5,0.2-1.1,0.2-1.6,0.3c-0.4,0.1-0.9,0.1-1.2,0.4
			c-0.8,0.7-1.5,1.6-2.7,1.7c-0.7,0.9-2.1,0.8-2.9,1.6c-0.2,0.2-0.6,0.2-0.9,0.2c-0.8,0-1.5,0.2-2,0.9c-0.8,1.2-2.4,1.1-3.3,2.1
			c-1.3,0.2-2.4,1.2-3.8,1.1c-0.4,0-0.9,0.2-1.1,0.6c-0.8,1.3-2.4,1.5-3.5,2.4c-1,0.2-1.8,0.8-2.6,1.3c-0.6,0.3-1.2,0.6-1.6,1.1
			c-0.5,0.6-1,1.2-1.9,1.2c-0.3,0-0.6,0.2-0.9,0.4c-0.5,0.4-0.9,1-1.5,1.3s-1.2,0.4-1.8,0.8c-1,0.6-2.1,1.2-2.9,2.1
			c-0.2,0.2-0.5,0.5-0.8,0.5c-0.9,0-1.4,0.7-1.9,1.2c-0.5,0.4-0.9,1-1.6,1.1c-0.5,0.1-0.7,0.5-0.8,0.9c-0.1,0.3-0.2,0.7-0.5,0.8
			c-0.8,0.2-1.5,0.5-2,1c-1.2,0.1-1.9,1-2.7,1.7c-1,0.9-1.8,1.9-2.7,2.9c-0.6,0.6-1.2,0.9-2.1,0.9c-0.3,0-0.7,0.1-1.2,0.1
			c-0.8,0.8-1.7,1.6-2.5,2.4c-0.7,0.7-1.3,1.5-2.4,1.7c-0.5,0.1-0.9,0.6-1.3,1c-0.3,0.3-0.6,0.8-1,0.8c-1.4,0.2-2.1,1.2-2.9,2
			c-0.6,0.5-1.1,1.1-1.9,1.2c-0.5,0-0.7,0.5-1,0.8c-1.1,1.1-2.2,2.2-3.3,3.3c-0.6,0.5-1.1,1.1-1.9,1.3c-0.3,0.1-0.5,0.4-0.7,0.6
			c-1.4,2.2-1.4,2.2-3.7,3.5c-0.3,0.2-0.6,0.3-0.8,0.6c-1.3,1.2-2.5,2.5-3.8,3.8c-0.1,0.1-0.2,0.4-0.3,0.6c-0.1,0.8-0.5,1.2-1.3,1.3
			c-0.5,0.1-0.8,0.4-0.9,0.9c-0.1,0.8-0.6,1.1-1.3,1.3c-0.3,0.1-0.6,0.3-0.7,0.6c-0.2,0.8-0.5,1.4-1.4,1.6c-0.2,0-0.4,0.2-0.5,0.4
			c-0.3,1.3-1.3,2-2.2,2.9c-0.4,0.4-0.9,0.7-1.4,0.8c-0.6,0.1-0.9,0.6-1,1.2c-0.1,0.6-0.6,0.9-1.2,1c-0.5,0.1-0.8,0.3-0.9,0.8
			c-0.1,0.7-0.4,1.2-0.9,1.7c-1.7,1.6-3.3,3.2-5,4.9c-0.7,0.7-1.6,1.3-1.6,2.4c-0.4,0.5-0.8,1.1-1.2,1.6c-0.5,0.6-1,1.2-1.6,1.7
			s-1.1,1.1-1.2,1.9c0,0.3-0.3,0.5-0.7,0.6c-1.2,0.2-1.9,1.1-2.4,2.1c-0.8,1.7-2.2,2.8-3.4,4c-0.1,0.1-0.4,0.2-0.6,0.2
			c-0.4,0.1-0.8,0.3-1.2,0.6c-1.6,1.4-3.1,2.8-4.5,4.4c-0.2,0.2-0.5,0.5-0.5,0.8c-0.1,1.1-0.9,1.7-1.6,2.4c-1.2,1.2-2.4,2.3-3.6,3.4
			c-0.4,0.4-0.8,0.7-1.4,0.8c-0.3,0.1-0.7,0.3-0.7,0.6c-0.1,1-0.7,1.6-1.4,2.2c-1,0.9-1.9,1.9-2.9,2.8c-0.7,0.6-1.3,1.2-1.4,2.2
			c0,0.4-0.4,0.7-0.7,1.1c-0.5,0.6-1.1,1.1-1.6,1.7c-0.2,0.2-0.5,0.5-0.5,0.8c-0.1,0.9-0.7,1.4-1.2,1.9c-1,0.9-2,1.8-2.9,2.8
			c-0.7,0.7-1.2,1.6-1.1,2.7c0.1,0.7,0,1.3,0,2c0,0.3-0.1,0.8-0.3,0.9c-0.8,0.7-0.8,1.6-0.8,2.4c0,0.4-0.2,0.8-0.5,1.2
			c-0.7,0.7-1.5,1.3-1.7,2.4c-0.1,0.2-0.5,0.5-0.7,0.6c-0.7,0.2-1.2,0.5-1.3,1.3c-0.1,0.5-0.4,0.8-0.7,1.1c-0.8,0.9-1.6,1.8-2.5,2.7
			c-0.4,0.4-0.8,1-1.2,1.1c-1.4,0.3-2,1.1-2,2.6c0,0.2-0.3,0.6-0.6,0.7c-0.4,0.2-0.9,0.2-1.2,0.5c-1.2,1-2.5,0.7-3.8,0.4
			c-0.7-0.7-1.3-0.5-2,0.1c-0.2,0.2-0.7,0.1-0.9,0.3c-1,0.8-2.1,1.1-3.4,1c-2.2-0.1-4.5,0-6.7,0c-0.9,0-1.7-0.2-2.4-0.8
			c-0.6-0.5-1.4-0.5-2.1-1c-0.3-0.2-0.8-0.2-1.3-0.3c-0.7-0.1-1.3,0.1-2.1-0.3c-0.1-0.2-0.3-0.5-0.4-0.8c-0.2-0.6-0.6-0.9-1.3-0.9
			c-0.4,0-0.9-0.1-1.3-0.1c-0.2-0.1-0.4-0.2-0.6-0.4c-0.7-0.7-1.5-1.4-2-2.2c-0.4-0.7-0.8-1.6-1-2.4c-0.3-0.9-0.7-1.6-1.4-2.2
			c-0.4-0.4-0.8-0.8-1.2-1.1c-0.5-0.4-0.7-0.9-0.7-1.4c0-0.6,0-1.1-0.4-1.6c-0.6-0.6-0.7-1.3-0.7-2.2c0-1,0-2,0-3
			c0-0.6-0.1-1.1-0.6-1.5c-0.2-0.2-0.2-0.3,0-0.6c0.4-0.4,0.6-0.9,0.6-1.5c0-0.8,0-1.6,0-2.3c0-0.4,0-1,0.3-1.3
			c0.7-0.7,0.7-1.6,0.7-2.5s0.1-1.8,0-2.7c-0.2-1.5,0.6-2.5,1.5-3.5c0.3-0.3,0.6-0.6,1-0.9c0.3-0.3,0.6-0.6,0.7-1.1
			c0.1-1,0.7-1.6,1.4-2.2c1.9-1.5,3.5-3.4,5.5-5.2c0.3,0,0.9-0.1,1.4-0.2c0.5,0,0.8-0.3,1.2-0.6c0.6-0.5,1-1.3,1.8-1.4
			c0.7-0.1,1.2-0.4,1.7-0.9c0.2-0.2,0.6-0.2,0.9-0.3c1.1-0.1,2.2,0.1,3.2-0.7c0.3-0.2,0.9-0.2,1.3-0.2c0.7,0,1.3,0,2,0
			c0.7-0.7,1.3-1.3,1.9-1.9c1.6-0.3,2.4-1.6,3.4-2.5c0.7-0.7,1.6-1.2,1.6-2.4c0.6-0.6,1.2-1.3,1.8-1.9c0.5-0.6,1-1.1,1.2-2
			c0.1-0.4,0.4-0.8,0.7-1.1c0.5-0.6,1.1-1.1,1.6-1.7c0.5-0.5,0.8-1,0.8-1.8c0-0.7,0.3-1.2,0.8-1.7c0.7-0.7,1.5-1.4,1.6-2.5
			c1-1.1,1.7-2.3,2.4-3.6c0.4-0.8,1.5-1.1,1.6-2.1c0.1-0.9,1-1.4,1.1-2.4c0-0.5,0.4-0.8,0.7-1.1c0.6-0.5,1.2-1,1.7-1.6
			c0.2-0.2,0.6-0.5,0.6-0.8c0.1-1.4,1.3-2,2-3c0.4-0.7,1.3-1,1.3-1.9s1-1.2,1-2c0.1-0.6,0.5-0.9,1.1-1c0.5-0.1,0.9-0.3,0.9-0.8
			c0.1-0.9,0.7-1.4,1.2-1.9c0.8-0.9,1.8-1.6,2-2.9c0.1-0.4,0.6-0.6,0.8-1c0.5-0.9,1.9-0.3,2.1-1.3c0.2-1,0.8-1.6,1.4-2.2
			c0.6-0.7,1.3-1.2,1.9-1.9c0.3-0.3,0.7-0.7,0.8-1.1c0.1-1.3,1.2-1.8,1.9-2.6s1.5-1.6,2.3-2.4c0.6-0.6,1.4-1.2,1.4-2.1
			c0.9-1,1.7-2,2.6-3c1.6-1.7,3.3-3.3,5-4.9c1.4-1.3,2.6-2.7,3.9-4.1c0.1-0.1,0.2-0.1,0.4-0.2c0.3,0,0.7-0.1,1.2-0.1
			c0.9,0,1.4-0.4,1.5-1.3c0-0.3,0.3-0.6,0.5-0.8c1.4-1.4,2.9-2.8,4.3-4.2c0.5-0.5,0.9-1,1.6-1c0.3,0,0.6-0.3,0.8-0.5
			c1.3-1.2,2.5-2.5,3.8-3.8c0.2-0.2,0.2-0.6,0.3-0.9c0.1-0.5,0.3-0.8,0.8-0.9c0.6-0.1,1-0.3,1.4-0.7c1.1-1.2,2.3-2.4,3.5-3.6
			c0.4-0.4,0.8-0.9,1.3-0.9c0.9-0.1,1.4-0.6,2-1.2c0.3-0.3,0.6-0.8,1-0.8c1.5-0.2,2.2-1.4,3.1-2.3c0.5-0.6,1.1-1.1,1.9-1.2
			c0.4-0.1,0.7-0.5,1.1-0.7c0.8-0.6,1.5-1.3,2.3-1.9c1.3,0,1.9-1.1,2.6-1.9c0.8-0.8,1.5-1.6,2.7-1.7c1-1.2,2.9-1.1,3.7-2.6
			c0.1-0.2,0.6-0.3,0.8-0.5c0.4-0.2,0.8-0.4,1.2-0.6c0.7-0.3,1-1.3,1.8-1.4c0.7-0.1,1.2-0.7,1.7-0.9c1.3-0.3,2.1-1.2,2.9-2.1
			c0.6-0.7,1.1-1.4,2.1-1.4c0.9-0.8,1.9-1.5,2.8-2.4c0.4-0.4,0.9-0.7,1.5-0.6c1,0.1,1.7-0.4,2.3-1.1c0.3-0.3,0.7-0.8,1-0.8
			c1.1-0.1,1.7-0.9,2.5-1.6c0.3-0.3,0.7-0.6,1.1-0.7c1-0.1,1.4-1.1,2.3-1.2c0.9-0.2,1.5-0.9,2.1-1.5c0.7-0.6,1.9-0.6,2.6-1.3
			c0.2-0.2,0.7-0.1,0.9-0.3c0.9-0.8,2-1,3-1c0.6-0.6,1.2-1.1,1.8-1.6c0.2-0.2,0.6-0.4,0.9-0.4c1.2,0.1,2.1-0.6,3-1.1
			c0.8-0.4,1.6-0.7,2.5-0.9c0.8-0.2,1.1-1.1,2-1.1s1.4-1.1,2.4-1.1c1-0.8,2.1-1.2,3.3-1.1c0.4-0.4,0.7-0.7,1-1
			c0.5-0.6,1.1-1.1,2-1.1c0.9-0.7,1.8-1.2,3-1.1c1.2-0.7,2.5-0.8,3.8-0.8c0.3,0,0.8-0.1,0.9-0.3c0.6-0.9,1.8-0.7,2.5-1.6
			c0.8-1,1.8-1.6,3.2-1.4c0.2,0,0.5-0.1,0.6-0.2c0.8-1,2-0.8,3.1-0.9c0.6,0,1.1-0.1,1.7,0c1.9,0.2,3.4-0.7,4.9-1.5
			c0.5-0.3,0.9-0.6,1.5-0.6c1.1-0.1,2.3,0.2,3.1-0.8c0.1-0.1,0.2-0.1,0.3-0.1c1.5,0,2.8-0.6,3.9-1.7c0.2-0.2,0.6-0.3,0.9-0.3
			c0.8-0.1,1.6-0.1,2.3-0.1c0.7,0,1.3-0.2,1.8-0.7c0.4-0.4,1-0.4,1.6-0.4c1.4,0,2.9,0,4.3,0c1,0,2,0.1,2.8-0.8
			c0.3-0.3,0.8-0.2,1.3-0.3c0.7-0.1,1.3-0.1,2-0.2c1-1.1,2.2-0.7,3.4-0.9c0.3,0,0.8,0,0.9-0.2c0.8-1.1,2-0.8,3.1-0.9
			c0.3,0,0.7,0,1-0.2c1-0.9,2.3-0.6,3.5-0.8c1.2-0.3,2.1,1.4,3.4,0.5c1.1-0.7,2.4-0.3,3.6-0.4c1.2-0.1,2.4,0,3.7,0
			c0.8,0,1.5,0,2.2-0.6c0.4-0.4,1-0.4,1.6-0.4c5.8,0,11.6,0,17.4,0c0.6,0,1.1,0,1.6,0.4c0.5,0.5,1.2,0.5,1.9,0.5c0.7,0,1.3,0,2,0.1
			c0.4,0,0.9,0.2,1.2,0.4c0.8,0.6,1.6,0.7,2.4,0.1c0.5-0.4,1-0.5,1.6-0.5c1,0,2,0,3,0c0.3,0,0.8,0,1,0.2c0.8,0.8,2.1,0.7,2.9,1.5
			c0.2,0.2,0.6,0.4,0.9,0.4c1.8,0,3.6,0,5.3,0c0.6,0,1-0.4,1.5-0.7c0.2,0.3,0.3,0.6,0.5,0.9c0.2,0.4,0.5,0.8,1,0.8
			c0.7,0,1.3,0.1,2,0.1c0.9,0,1.8,0,2.5,0.8c0.2,0.3,0.8,0.3,1.3,0.3c0.9,0,1.8,0,2.7,0c0.9,0,1.7,0.1,2.4,0.8
			c0.4,0.4,1,0.3,1.6,0.3c1,0,2-0.1,2.8,0.8c1.1,0.1,1.9,0.6,2.5,1.5c0.4,0.5,0.9,0.6,1.5,0.6c0.9,0,1.8,0,2.7,0.1
			c0.3,0,0.8,0,1,0.2c1,1.2,2.4,0.9,3.7,0.9c1.2,0,2.4,0,3.7,0c1,0,2.1-0.3,3,0.2c0.7,0.4,1.3,1.1,2,1.7c0.3,0.1,0.5,0.1,0.7,0.1
			c0.9,0.1,1.8,0,2.6,0.2c0.7,0.2,1.3,0.7,2,1.1c0.8,0.5,1.5,0.8,2.5,0.8c0.3,0,0.7,0.1,0.9,0.3c0.7,0.9,1.8,0.8,2.8,0.8
			s1.8,0.3,2.4,1c0.5,0.6,1.2,1,2,1.1c0.8,0.9,2.1,0.7,2.9,1.6c0.2,0.3,0.8,0.3,1.2,0.4c0.3,0.1,0.7,0,1,0.1c0.7,0.3,1.2,1,2.1,1
			c0.8,0,1.6,0.1,2.4,0.1c0.5,0.4,1,0.9,1.5,1.3c0.3,0.3,0.6,0.6,1.1,0.7c0.9,0.2,1.6,0.8,2.2,1.5c0.7,0.7,1.4,1.4,2.5,1.6
			c0.3,0,0.5,0.4,0.8,0.6c0.7,0.6,1.2,1.3,2.1,1.6c0.7,0.2,1.2,1,2,1c0.5,0,0.8,0.4,1.1,0.7c0.6,0.6,1.3,1.2,2.3,1.3
			c0.3,0,0.6,0.3,0.8,0.5c0.7,0.7,1.4,1.3,2.4,1.7c1.1,0.5,1.7,1.6,2,2.9c0.5,0.1,0.9,0.1,1.3,0.2c0.8,0.1,1.5,0.2,2.3,0.2
			c1.2,1.1,3,1.4,3.9,2.9c0.3,0.4,0.4,0.8,0.5,1.2c0.1,0.3,0.3,0.7,0.6,0.7c1.2,0.2,2,1,2.7,1.8c0.2,0.3,0.5,0.5,0.7,0.8
			c0.3,0.5,0.8,0.7,1.4,0.9c0.5,0.1,1,0.5,1.5,0.6c0.9,0.2,1.7,0.5,1.7,1.6c0.5,0.7,0.9,1.5,1.9,1.8c0.5,0.1,0.8,0.3,1.1,0.7
			c0.6,0.5,1,1.1,1,2c0,0.3,0,0.7,0.1,1c0.1,0.2,0.3,0.4,0.4,0.5c0.5,0.1,1.1,0.1,1.6,0.2c0.3,0.1,0.7,0.3,0.8,0.5
			c1,2.2,2.9,3.6,4.4,5.3c0.3,0.4,0.8,0.4,1.2,0.5c0.3,0.1,0.7,0.4,0.7,0.6c0.1,1.1,1.2,1.6,1.3,2.6c0,0.4,0.4,0.7,0.7,1.1
			c0.6,0.7,1.2,1.3,1.9,1.9c0.6,0.6,1.3,1.2,1.5,2.2c0.1,0.3,0.3,0.6,0.5,0.8c0.4,0.4,0.9,0.7,1.2,1.2c0.3,0.6,0.4,1.3,0.8,1.8
			c0.3,0.5,0.6,0.9,0.8,1.4s0.5,1,0.8,1.4c0.1,0.1,0.1,0.2,0.1,0.3c-0.3,1.7,1,2.6,2,3.6c0.7,0.7,1.2,1.5,1.2,2.6
			c0,0.6,0.2,1.1,0.6,1.5c0.5,0.5,1,0.9,1.3,1.5s0.4,1.2,0.9,1.7c0.4,0.4,0.3,1,0.4,1.6c0,0.8,0.4,1.2,1.2,1.4
			c0.3,0.1,0.6,0.3,0.8,0.5c0.3,1.7,0.1,3.4,0.1,5c0,0.8,0.2,1.5,0.8,2.1c0.4,0.4,0.7,0.8,1,1.3c0,0.7,0.1,1.4,0.1,2.1
			c0,0.3,0,0.8,0.2,1c1,1,0.8,2.3,0.8,3.5c0,0.5,0.1,0.9,0.4,1.2c0.8,0.7,0.7,1.8,1.5,2.5c0.3,0.3,0.3,0.9,0,1.2
			c-1.1,1.4-0.9,2.9-0.4,4.4c0.7,0.5,0.7,1.3,0.7,2.1c0,0.7,0,1.3,0,2c0.1,1.2-0.2,2.4,0.4,3.6c0.1,0.2-0.1,0.6-0.1,0.9
			c-0.3,1.1-0.3,1.1,0.5,2.5c-0.7,0.8-0.6,2.1-1.5,2.9c-0.3,0.2-0.3,0.8-0.3,1.3c0,1.2,0,2.4,0,3.7c0,0.9-0.1,1.7-0.8,2.5
			c-0.3,0.3-0.3,0.8-0.3,1.2c-0.1,1,0,2-0.1,3c0,0.4,0,1-0.2,1.3c-0.8,0.9-0.7,2.1-0.7,3.2c0,1,0,2-0.7,2.8c-0.4,0.4-0.2,1.1,0,1.6
			c0.2,0.3,0.4,0.5,0.5,0.9c0.2,0.6,0.3,1.4-0.1,1.9c-0.5,0.7-0.7,1.4-0.7,2.2c0.1,1.1-0.1,2.2-0.9,3.1c-0.3,0.4-0.2,1.1-0.6,1.5
			c-0.5,0.4-0.6,0.9-0.6,1.5c0,1.1,0,2.2,0,3.3c0,0.9-0.3,1.4-1.3,1.6c-0.8,0.1-1.1,1-1.6,1.5c-0.1,0.1,0,0.4,0.1,0.6
			c0,0.2,0.2,0.5,0.1,0.6c-0.8,1.2-0.3,2.6-0.6,4c-0.6,0.7-1.3,1.6-2.1,2.4c-0.5,0.5-0.7,1.1-0.7,1.8s-0.3,1.3-0.9,1.7
			c-1.1,0.8-1.4,1.9-1.4,3.2c0,0.1-0.1,0.2-0.1,0.4c-0.6,0.5-1.2,1.2-1.9,1.7c-0.7,0.6-1.2,1.3-1.1,2.3c0,0.2,0,0.4,0,0.7
			c-0.1,0.8-0.9,1.3-0.8,2.1c0,0.8-0.1,1.5-0.1,2.2c-0.4,0.6-0.8,0.6-1.2,0.8c-0.3,0.1-0.5,0.4-0.7,0.6c-0.2,0.3-0.1,0.7-0.3,0.9
			c-0.4,0.7-0.7,1.4-1,2.1c-0.3,0.7-1,1.2-1.5,1.7c-0.6,0.7-0.8,1.8-1.6,2.5c-0.8,0.6-1.3,1.5-2,2.2c-0.7,0.6-1.2,1.3-1.1,2.3
			c0.1,1.2-1,1.9-1.3,3c-0.2,0.6-0.9,1-0.9,1.7c0,0.2-0.1,0.4-0.3,0.6c-0.6,0.7-1.7,1.2-1.8,2.3c-0.1,1-1.1,1.3-1.3,2.3
			c-0.1,0.6-0.6,1.2-1.1,1.6c-0.4,0.4-0.7,0.8-0.8,1.4c-0.1,0.4-0.4,0.8-0.6,1.1c-0.6,0.8-1.6,1.3-1.6,2.4c-0.5,0.6-1,1.3-1.7,1.5
			c-0.8,0.2-1.4,0.7-1.9,1.2c-1.3,1.4-2.6,2.7-3.9,4.1c-0.5,0.5-1,0.9-1.7,1c-0.6,0.1-1.1,0.4-1.1,1c-0.1,0.9-0.8,1.5-0.9,2.5
			c-0.1,0.8-1.1,1.4-1.2,2.3c0,0.3-0.3,0.6-0.5,0.8c-0.9,0.8-1.8,1.7-2.7,2.5c-0.3,0.3-0.8,0.3-1.2,0.5c-0.4,0.1-0.6,0.3-0.7,0.7
			c-0.2,1.2-0.9,2-1.7,2.7c-0.7,0.6-1.2,1.3-1.9,1.9c-0.3,0.3-0.5,0.7-0.6,1.1s-0.3,0.7-0.6,0.7c-0.8,0.1-1.4,0.6-1.9,1.2
			c-0.6,0.8-1.3,1.5-2,2.2c-0.6,0.5-0.4,1.3-0.9,1.7c-0.5,0.4-1.2,0.5-1.8,0.8c-0.4,0.3-0.9,0.8-1,1.3c-0.2,0.8-0.7,1.4-1.2,1.9
			c-1.6,1.5-2.9,3.4-4.7,4.7c-0.2,0.1-0.4,0.3-0.4,0.5c-0.1,1.5-1.4,2.2-2.3,3.2c-1,1.1-2,2.1-3,3.1c-0.2,0.2-0.5,0.5-0.8,0.6
			c-0.9,0.1-1.3,0.6-1.6,1.4c-0.3,0.8-1,1.5-2,1.6c-0.1,0-0.2,0-0.3,0.1c-0.9,0.6-1.9,1.2-1.8,2.6c0.1,1-0.3,1.7-1.1,2.3
			c-0.3,0.2-0.6,0.4-0.7,0.7c-0.3,0.7-0.2,1.6-1.3,1.7c-0.8,0-1,0.9-1.7,1c-1.1,0.2-1.8,0.8-2.5,1.6c-0.4,0.4-0.7,0.9-1.1,1.3
			c-0.2,0.2-0.5,0.5-0.8,0.5c-1.1,0.2-1.8,0.8-2.5,1.6c-0.7,0.7-1.3,1.5-2.5,1.6c-0.2,0-0.5,0.4-0.6,0.7c-0.1,0.6-0.3,1.1-0.9,1.2
			c-1,0.2-1.5,1.4-2.7,1.3c-0.2,0-0.4,0.2-0.5,0.4c-1.3,1-2.3,2.4-4,2.8c-0.3,0.1-0.5,0.4-0.7,0.7c-1.7,1.9-3.4,3.8-5.4,5.4
			c-0.6,0.5-1.1,1.1-1.6,1.7c-0.5,0.5-0.8,1.1-1.4,1.4c-0.7,0.3-1.4,0.6-2.1,1c-0.6,0.3-1.3,0.2-2,0.3c-0.9,0.6-1.7,1.4-2.4,2.2
			c-0.3,0.3-0.6,0.6-0.9,1c-0.6,0.7-1.6,0.7-2.3,1.2c-0.7,0.5-1.3,1.2-2,1.7c-0.1,0.1-0.2,0.1-0.3,0.1c-1.2,0.1-1.8,0.9-2,1.9
			c-0.2,0.7-0.4,1.2-1.2,1.3c-0.9,0.2-1.6,0.9-1.9,1.7c-0.3,0.8-0.8,1.2-1.6,1.4c-0.3,0-0.5,0.4-0.8,0.6c-0.6,0.6-1.3,1.2-2.1,1.5
			c-0.8,0.4-1.3,1.1-2,1.7c-0.7,0.7-1.4,1.5-2.5,1.5c-1.1,0.8-2.5,1.5-2.8,3.1c-0.1,0.3-0.3,0.7-0.5,0.7c-0.8,0.2-1.3,0.8-1.9,1.3
			c-1.8,1.7-3.5,3.3-5.4,5.1c-0.5,0.1-1,0.1-1.6,0.2c-0.3,0.1-0.7,0.3-0.8,0.5c-0.3,1.2-1,1.9-1.9,2.7c-0.7,0.6-1.4,1.1-2,1.8
			c-0.5,0.6-1.1,1.2-1.3,1.9c-0.2,0.8-0.7,1.4-1.2,1.9s-0.9,0.9-1.4,1.4c-0.3,0.3-0.7,0.7-0.7,1.1c-0.1,0.9-0.7,1.4-1.3,1.8
			c-0.5,0.4-1,0.9-0.9,1.7c0,1-0.3,1.7-1,2.3c-0.4,0.4-0.7,0.9-0.9,1.4c-0.2,0.7-0.4,1.3-1,1.7c-0.1,1.1-1.1,1.7-1.3,2.7
			c-0.1,0.9-0.1,1.8-0.2,2.7c-0.5,0.6-1,1.2-1.5,1.7c-0.6,0.8-0.9,2-0.2,2.7c0.5,0.6,0.6,1.4,1,2c0.5,0.8,0.7,1.6,1.2,2.3
			c0.4,0.6,1.2,1,1.7,1.6c1.5,1.9,3.3,3.5,5.1,5.3c0.2,0.2,0.5,0.6,0.7,0.7c1.7,0.1,2.4,1.5,3.4,2.5c0.4,0.4,0.9,0.6,1.5,0.7
			c0.4,0,0.9,0.1,1.3,0.1c0.6,0.6,1.2,1.1,1.8,1.6c0.2,0.2,0.6,0.4,0.9,0.4c0.9,0.1,1.7,0.3,2.4,0.9c0.6,0.5,1.5,0.3,2,1
			c0.2,0.2,0.6,0.3,0.9,0.3c0.9,0,1.8,0.1,2.5,0.8c0.2,0.2,0.6,0.2,0.9,0.2c0.4,0.1,1,0,1.3,0.3c0.8,0.6,1.6,0.7,2.5,0.7
			s1.7,0.1,2.5,0.7c0.3,0.2,0.8,0.3,1.3,0.3c0.8,0.1,1.6,0,2.3,0.1c0.3,0,0.8,0.1,0.9,0.3c0.7,0.9,1.8,0.8,2.8,0.8c2.3,0,4.7,0,7,0
			c0.8,0,1.5,0.1,2.2,0.6c0.5,0.4,1.3,0.4,1.9,0.4c2.6,0,5.1,0,7.7,0c0.9,0,1.8,0,2.7,0c0.4,0,0.8,0.1,1.2,0.4
			c1.1,0.9,2.2,0.8,3.4,0.1c1.3-0.8,2.7-0.9,4,0c0.4,0.3,0.8,0.5,1.2,0.5c0.9,0,1.8,0,2.7,0c3.5,0,6.9,0,10.4,0c0.6,0,1.1,0,1.5,0.5
			c0.6,0.7,1.3,0.7,2.1,0.2c0.3-0.2,0.6-0.4,0.9-0.2c0.5,0.5,1.2,0.6,1.8,0.6c0.8,0,1.6,0,2.3,0.1c0.4,0,0.9,0.2,1.2,0.5
			c0.5,0.3,0.8,0.2,1.2-0.1c0.5-0.3,1.1-0.6,1.5-0.2c0.9,0.7,1.8,0.7,2.8,0.7c1.1,0,2.2-0.1,3.2,0.7c0.7,0.1,1.3,0.2,2,0.2
			c0.8,0,1.5,0.1,2.2,0.7c0.4,0.3,1,0.3,1.6,0.3c1.7,0,3.3,0,5,0c0.7,0,1.3,0,2,0.1c0.2,0.2,0.5,0.4,0.7,0.7c0.7,1,1.6,1.5,2.8,1.4
			c0.9-0.1,1.8-0.1,2.5,0.7c0.2,0.2,0.6,0.3,0.9,0.3c0.8,0.1,1.6,0,2.1,0.8c0.1,0.1,0.2,0.2,0.3,0.2c0.7,0.1,1.3,0.1,2,0.3
			c0.6,0.2,1.2,0.6,1.8,0.8c1.3-0.2,2.4,0.4,3.4,1.1s2.3,0.7,3.1,1.7c1,0.3,2,0.9,3,1.4c0.6,0.3,1.1,0.8,1.7,1s1.2,0.5,1.8,0.9
			c0.3,0.2,0.8,0.3,1.2,0.3c1.3,0.1,2.7,0.1,3.9,0.1c0.9,0.6,1.7,1.4,2.6,1.7c1,0.3,1.6,1.1,2.7,1.3c1,0.1,1.5,1.3,2.6,1.4
			c0.4,0.4,0.8,0.8,1.2,1.2c1.4,1.3,2.8,2.5,4.1,3.9c1,1,2.3,1.8,2.4,3.4c0,0.4,0.4,0.6,0.7,0.6c0.7,0.1,1.1,0.4,1.4,1.2
			c0.5,1.3,1.1,2.7,2.2,3.6c1.4,1.2,2.1,2.8,2.9,4.4c0,1,0.8,1.5,1.1,2.4c0.2,0.9,1.1,1.4,1.6,2.1c0.7,1,1.1,2.1,1.7,3.2
			c0.2,0.4,0.3,0.9,0.6,1.1c0.4,0.4,0.6,0.9,0.6,1.5c0,1.7,0,3.3,0,5c0,0.7,0.2,1.3,0.6,1.9c0.4,0.5,0.4,1.3,0.8,1.8
			c0.4,0.6,0.5,1.2,0.5,1.9c0,1,0,2,0,3c0,0.6,0.1,1.1,0.5,1.5c0.3,0.4,0.5,0.8,0.5,1.2c-0.1,0.9,0.2,1.7,0.9,2.4
			c0.3,0.3,0.2,1,0,1.2c-0.5,0.6-1,1.1-1.7,1.8c-0.4,1.2-0.2,2.6-0.2,3.9c0,0.3,0,0.7-0.1,1s-0.3,0.6-0.5,0.8
			c-0.4,0.3-1.1,0.3-1.3,1c-0.2,1.1-1.5,1.7-1.3,3c0.2,1.2-1.1,1.9-1.1,3c-0.6,0.7-0.8,1.6-1.3,2.3c-0.5,0.6-0.6,1.4-1,2
			c-0.5,0.9-1.2,1.5-2.4,1.5c-2.7-0.1-5.3,0-8,0c-0.8,0-1.5,0.2-2.1,0.8c-0.5,0.5-1.2,0.4-1.9,0.3c-0.4,0-0.6-0.3-0.7-0.6
			c-0.2-0.7-0.2-1.5-0.3-2.2c-0.8-0.5-2-0.5-1.9-1.8c-1-0.8-1-1.9-1.1-3c0-0.2-0.2-0.4-0.3-0.6c-1,0.4-1.6,1.2-2.3,1.9
			c-0.4,0.4-0.7,0.9-0.6,1.5c0.3,1.7-0.8,2.9-1.3,4.4c-0.2,0.7-0.9,1.3-1.7,1.5c-1.1,0.3-1.6,1.1-2.1,2c-0.2,0.4-0.4,0.8-0.6,1.1
			c-0.3,0.4-0.5,0.7-0.5,1.2c0,0.9,0,1.8,0,2.7c0,0.6-0.1,1.1-0.5,1.5c-0.4,0.4-0.5,0.9-0.6,1.5c0,1,0,2,0,3c0,0.4,0,0.9,0,1.3
			c0,0.3,0,0.8-0.2,1c-1,0.8-0.6,2.1-1,3.1c-0.2,0.5-0.7,0.8-1.2,1.2c-0.2,0.2-0.6,0.2-0.9,0.2c-0.3-0.1-0.6-0.7-0.4-1.1
			c0-0.1,0.1-0.2,0.1-0.3c0.3-0.4,0.7-0.9,0.3-1.5c-0.2-0.3,0-0.6,0.1-0.9c0.5-1.8,0.5-1.9-0.2-3.4c-0.2-0.4-0.4-0.8-0.4-1.2
			c0-1.8,0-3.6,0-5.3c0-0.6,0.2-1.1,0.5-1.5c0.4-0.5,0.5-1,0.5-1.6c0-4.2,0-8.5,0-12.6c-0.5-0.6-1-1.1-1.4-1.5s-0.7-0.9-0.6-1.5
			c0.1-1-0.5-1.7-1.1-2.3c-0.5-0.4-1-0.9-1-1.7c0-1.1-0.3-1.9-1.1-2.6c-0.7-0.6-1.1-1.3-1.2-2.3c-0.1-1.2-0.7-2.3-1.3-3.3
			c-0.5-0.8-0.5-1.7-1.2-2.4c-0.6-0.6-0.5-1.7-1.3-2.2c-0.2-1.1-0.8-2-1.7-2.7c-0.4-0.3-0.5-0.7-0.7-1.1c-0.1-0.4-0.3-0.9-0.6-1.2
			c-1.2-0.9-1.4-2.5-2.3-3.6c-0.1-0.8-0.6-1.4-1.1-2c-0.3-0.3-0.8-0.6-0.9-1c-0.3-1.7-1.7-2.5-2.8-3.6c-0.5-0.5-0.7-1.1-0.7-1.8
			c0-0.8-0.3-1.5-0.9-2.1c-1.5-1.5-3-3-4.5-4.4c-0.2-0.2-0.6-0.3-0.9-0.4c-0.6-0.1-0.9-0.5-1-1.1c-0.1-0.5-0.3-0.9-0.8-1
			c-0.9-0.1-1.3-0.8-1.9-1.3c-0.4-0.4-0.8-0.8-1.4-0.9c-1-0.1-1.7-1-2.8-0.9c-0.7,0.1-1.3,0-2,0c-0.4,0-1-0.1-1.2-0.4
			c-0.6-0.6-1.4-0.7-2.1-0.7c-4.7,0-9.4,0-14,0c-0.9,0-1.7,0-2.5,0.7c-0.3,0.3-0.8,0.3-1.3,0.3c-0.7,0.1-1.3,0-2,0
			c-10.8,0-21.6,0-32.4,0c-0.8,0-1.6,0-2.3,0c-0.3,0-0.8,0-0.9-0.2c-0.9-0.9-2-0.8-3.1-0.8c-1,0-2,0-3,0c-0.7,0-1.3-0.2-1.8-0.7
			c-0.3-0.3-0.8-0.4-1.2-0.4c-0.8-0.1-1.6-0.1-2.3-0.1c-0.6,0-1.1-0.2-1.5-0.5c-0.3-0.2-0.6-0.3-0.9-0.4c-1.6-0.2-3.3-0.8-5.4-1.9
			c-0.6-0.3-1.3-0.4-1.9-0.4c-0.9,0-1.7-0.1-2.5-0.8c-0.3-0.3-0.8-0.3-1.3-0.3c-0.6-0.1-1.1-0.2-1.5-0.6c-0.2-0.2-0.5-0.5-0.8-0.5
			c-1-0.1-1.7-0.6-2.3-1.3c-0.6-0.8-1.6-0.6-2.3-1.3c-0.3-0.3-1-0.3-1.6-0.4c-0.9,0-1.4-0.5-1.5-1.4c0-0.3-0.4-0.6-0.6-0.7
			c-1-0.1-1.6-1.2-2.7-1.3c-0.5-0.1-0.6-0.6-0.7-1c-0.1-0.5-0.4-0.7-0.9-0.8c-0.3,0-0.7-0.1-1-0.1c-0.6,0-1-0.2-1.4-0.7
			c-0.6-0.8-1.4-1.4-2.5-1.6c-0.3,0-0.5-0.4-0.7-0.6c-0.6-0.7-1.1-1.4-2.1-1.5c-0.3,0-0.5-0.3-0.8-0.5c-0.6-0.5-1.1-1.2-1.8-1.4
			c-0.7-0.3-1.4-0.7-2.1-0.9c-0.7-0.2-1.2-0.5-1.6-1c-0.5-0.6-1.1-1.1-1.7-1.6c-0.2-0.2-0.5-0.5-0.8-0.6c-1.2-0.2-1.9-1-2.7-1.8
			c-2.3-2.3-4.6-4.5-6.8-6.8c-1-1.1-2.5-1.9-2.8-3.6c-0.7-0.8-1.5-1.7-2.2-2.5c-0.3-0.3-0.6-0.7-0.6-1.1c-0.1-0.5-0.3-0.8-0.6-1.1
			c-0.5-0.4-0.9-1-1.4-1.4c-1.1-0.8-1.3-2.3-2.1-3.3c0-1-0.8-1.6-1-2.4c-0.1-0.6-0.4-1-0.8-1.4c-0.8-0.8-1.6-1.6-1.4-2.8
			c0-0.2,0-0.5-0.2-0.6c-0.9-0.9-0.8-2-0.8-3.1c0-2.7,0-5.3,0-8c0-0.7-0.2-1.3-0.6-1.8c-0.3-0.3-0.4-0.8-0.4-1.2c-0.1-1,0-2,0-3
			c0-0.9,0-1.8-0.7-2.5c-0.3-0.2-0.3-0.8-0.3-1.3c-0.1-0.9,0-1.8,0-2.7c0-0.8-0.1-1.5-0.6-2.2c-0.6-0.8-0.6-1.7,0-2.5
			c0.5-0.7,0.6-1.4,0.6-2.2c0-1.2,0-2.4,0-3.7c0.7-0.7,1.4-1.4,2.2-2.3c0-1.3,0.5-2.8-0.7-4c-0.1-0.1-0.1-0.2-0.2-0.3
			c-0.2-0.3-0.1-1,0.1-1.3c0.2-0.2,0.5-0.4,0.8-0.7c0.6-0.5,1.1-1.1,1.2-1.9c0.7-0.9,1.2-1.8,1.1-3c0-0.1,0-0.2,0.1-0.3
			c1-1.1,0.9-2.5,1-3.8c0-0.5,0.3-0.8,0.8-1c0.6-0.2,1-0.5,1-1.1c0.1-1,1.4-1.5,1.2-2.6c0-0.1,0.1-0.2,0.2-0.3
			c0.5-0.5,1.2-1,1.6-1.6c0.4-0.5,0.2-1.3,0.8-1.8c0.6-0.4,0.3-1.3,0.8-1.8c1.3-1.2,1.9-2.7,1.7-4.4c0-0.6,0.4-0.9,1-1.1
			c1.2-0.3,2-1.1,2-2.3c0-1.3,0.6-2.1,1.5-2.8c0.9-0.8,1.8-1.6,2.6-2.5c0.7-0.8,1.2-1.6,1.1-2.7c0-0.2,0.1-0.4,0.2-0.7
			c0.5-0.8,1.6-0.4,2.2-1.3c0.6-0.8,1.5-1.3,2.2-2c0.6-0.6,1.3-1.2,1.9-1.9c0.7-0.7,1.3-1.5,2-2.2c0.6-0.6,1-1.2,1.3-1.9
			c0.1-0.2,0.3-0.4,0.5-0.4c1.1-0.1,1.6-0.7,1.6-1.7c0-0.1,0.1-0.2,0.2-0.3c1.5-1.6,2.9-3.3,4.6-4.8c1.9-1.7,3.8-3.4,5.4-5.4
			c0.6-0.7,1.2-1.3,1.9-1.9c0.2-0.2,0.5-0.6,0.8-0.6c2.1-0.5,3.3-2.2,4.6-3.6c0.3-0.3,0.6-0.6,1.1-0.7c0.6-0.1,1-0.5,1.4-0.8
			c1.2-1.1,2.4-2.3,3.6-3.4c0.4-0.3,0.5-0.7,0.5-1.2c0.1-0.5,0.4-0.8,0.8-0.9s0.8-0.4,1.1-0.6c0.7-0.6,1.3-1.2,1.9-1.9
			c0.4-0.4,0.9-0.6,1.4-0.8c1.1-0.4,1.8-1.2,2.6-2c0.3-0.3,0.6-0.6,1-0.8c1.8-0.8,2.9-1.7,3.5-3.2c0.4-0.9,0.8-1.2,1.7-1.2
			c0.3,0,0.7-0.1,1.1-0.1c0.7-0.7,1.5-1.5,2.3-2.3c0.3-0.3,0.7-0.5,1.2-0.6c1.2-0.3,1.9-1,2.1-2.3c0.1-0.5,0.3-0.8,0.8-0.9
			c0.6-0.1,1-0.3,1.4-0.7c0.6-0.8,1.3-1.5,2-2.2c0.5-0.4,1-1,1.6-1.1c0.8-0.2,1.4-0.6,1.9-1.2c1.5-1.6,3.1-3.1,4.6-4.8
			c0.7-0.8,1.4-1.4,2.5-1.6c0.3,0,0.6-0.3,0.8-0.5c0.9-1,1.8-2,2.7-3c0.2-0.2,0.2-0.6,0.3-0.9c0.1-0.3,0.3-0.6,0.5-0.8
			c2.4-1.3,4-2.6,5.3-4.4c0.3-0.3,0.4-0.8,0.5-1.2s0.3-0.6,0.6-0.7c0.8-0.2,1.4-0.6,1.9-1.2c0.7-0.7,1.5-1.3,2.2-2
			c0.2-0.2,0.5-0.5,0.5-0.8c0.1-0.7,0.5-1.2,1-1.7c0.7-0.8,1.4-1.7,2.2-2.5c0.5-0.5,1-0.9,1.1-1.6c0-0.3,0.3-0.6,0.5-0.8
			c0.7-0.7,1.4-1.4,2.1-2.1c0.7-0.7,1.5-1.3,1.6-2.4c0-0.4,0.5-0.7,0.8-1c0.5-0.6,0.9-1.3,1.5-1.8c0.7-0.5,0.5-1.5,1.1-2
			c0.8-0.6,0.3-1.7,1.2-2.3c0.6-0.4,1.1-1.1,1.6-1.6s0.9-1,1.4-1.4c0.4-0.3,0.5-0.7,0.7-1.1c0.6-1.3,0.9-2.7,1.8-3.8
			c0.3-1.3,1.1-2.4,1.8-3.5c0.2-0.3,0.4-0.6,0.4-0.9c-0.2-1.7,1-2.9,1.6-4.2c0.5-1,1-1.9,1.6-2.9c0.5-0.8,0.7-1.8,1-2.8
			c0.1-0.2,0.1-0.5,0.3-0.6c0.7-0.5,0.7-1.3,0.7-2.1c0-0.4,0-0.9,0-1.3c0-0.8,0.2-1.5,0.7-2.2s0.5-1.7,1.2-2.3
			c0.2-0.2,0.2-0.6,0.2-0.9c0.1-0.8,0.1-1.5,0.1-2.2c0.7-0.8,1.3-1.4,1.9-2c0.1-0.4,0.1-0.7,0.1-1c0-0.9,0-1.8,0-2.7
			c0-0.5,0.2-0.9,0.5-1.2s0.6-0.7,0.6-1.1c0-0.8,0.3-1.5,0.6-2.2c0.3-0.7,0.2-1.5,0.3-2.3c0-0.7,0.1-1.3,0.6-1.9
			c0.3-0.3,0.4-0.8,0.5-1.2c0.1-0.7,0.2-1.3,0.7-1.8c0.4-0.4,0.3-1,0.4-1.6c0.1-0.4,0.1-1,0.4-1.2c0.7-0.6,0.8-1.3,0.8-2.1
			c0-0.6,0-1.1,0-1.7c0-0.8,0.2-1.5,0.9-2.1C474.9,158.3,475.2,157.9,475.7,157.4z"/>
		<path d="M635.9,218.3c0.4,0.4,0.8,1,1.3,1.4s0.6,0.9,0.7,1.5c0,0.4,0,1,0.3,1.3c0.8,0.9,0.7,2,0.7,3.1c0,1.6,0,3.1,0,4.8
			c-0.5,0.6-0.9,1.2-1.5,1.7c-0.4,0.4-0.6,0.9-0.7,1.5c0,0.4-0.1,0.9-0.1,1.3c-0.7,0.9-1.4,1.7-2.2,2.5c-0.4,0.4-0.9,0.8-1.4,0.9
			c-0.8,0.2-1.4,0.6-1.9,1.2c-1.1,1.2-2.4,2.3-3.4,3.6c-1.1,1.3-2.4,2.3-3.6,3.4c-0.3,0.3-0.8,0.3-1.2,0.5c-0.3,0.2-0.6,0.4-0.7,0.6
			c-0.2,0.7-0.4,1.2-0.9,1.7c-1.2,1.3-2.4,2.6-3.7,3.8c-2.2,2.1-4.4,4.4-6.5,6.6c-0.1,0.2-0.3,0.4-0.3,0.6c-0.1,0.7-0.6,1.2-1,1.6
			c-1.5,1.5-2.9,3.1-4.4,4.6c-0.5,0.6-1.1,1-1.7,1.6c-1.7,1.7-3.5,3.4-5.2,5.2c-0.7,0.7-1.4,1.4-2.1,2.1c-0.6,0.6-1.2,1.2-1.5,2.1
			c-0.2,0.6-0.7,1.1-1.2,1.6c-3.2,3.2-6.4,6.4-9.6,9.6c-2.1,2.1-4.2,4.3-6.4,6.3c-1.4,1.4-2.6,3-4.2,4.3c-1.5,1.3-2.8,2.8-4.2,4.2
			c-0.6,0.6-1.3,1.2-1.4,2.2c-0.1,0.5-0.5,0.7-0.8,1c-1.6,1.7-3.2,3.3-4.9,5c-0.3,0.3-0.7,0.5-0.8,1c-0.1,0.9-0.8,1.6-1.4,2.2
			c-0.9,0.9-1.8,1.7-2.6,2.6c-0.4,0.4-0.9,0.8-1,1.3c-0.2,1.1-0.9,1.8-1.7,2.3c-1.5,0.9-1.7,2.6-2.4,3.9c-0.4,0.8-0.3,1.7,0.1,2.6
			c0.2,0.5,0.5,1,0.8,1.5c0.2,0.3,0.4,0.6,0.7,0.6c0.7,0.1,1.2,0.4,1.7,1c1.3,1.4,2.6,2.7,4,4c0.7,0.7,1.4,1.4,2.4,1.7
			c0.6,0.2,1.1,0.7,1.6,1.2c1.2,1.2,2.3,2.4,3.5,3.5c0.5,0.5,1,0.9,1.5,1.3c1,0,1.4,1,2.4,1.1c0.6,0.1,1,0.4,1.4,0.8
			c1,1,2.1,2,3.1,3c0.6,0.6,1,1.4,2.1,1.5c0.4,0,0.7,0.5,1,0.8c1.1,0.9,1.9,2.2,3.5,2.4c0.4,0.1,0.7,0.5,1,0.8
			c0.6,0.6,1.2,1.3,1.9,1.9c2.5,0.7,3.8,2.9,5.6,4.5c2.5,2.2,4.8,4.6,7.1,7s4.7,4.7,7,7.1c0.4,0.4,0.8,0.8,1.2,1.2
			c0.4,0.4,0.7,0.8,0.8,1.4c0.2,1,1.2,1.6,1.2,2.7c0,0.1,0.3,0.4,0.5,0.4c1.1,0.1,1.4,0.8,1.7,1.8c0.2,0.6,0.9,1,1,1.7
			c0,0.3,0.4,0.6,0.6,0.7c1.2,0.1,1.4,0.8,1.4,1.8c0,0.6,0.1,1.1,0.5,1.5c0.8,0.9,1.8,1.7,2.4,2.7c0.6,1,1.2,2.1,1.5,3.3
			c0.7,0.4,0.6,1.1,0.9,1.7c0.2,0.5,0.7,0.9,0.9,1.3c0.4,1.1,1.5,2,1.1,3.4c0.4,1,0.7,2.1,1.3,3c0.4,0.6,0.6,1.1,0.6,1.8
			c0,0.6,0.1,1.1,0.6,1.5c0.8,0.7,0.4,2,1.4,2.6c0.2,0.1,0.1,0.6,0.2,1c0.1,0.4,0,1,0.3,1.3c0.9,0.9,0.8,2,0.8,3.1
			c0,0.8,0,1.6,0,2.3c0,0.3,0,0.8,0.2,0.9c1,0.9,0.8,2,0.8,3.1c0,1.2,0,2.4,0,3.7c0,0.8,0.1,1.5,0.6,2.2c0.4,0.4,0.3,1,0.3,1.6
			c0,3.2,0,6.5,0,9.7c0,0.8-0.1,1.5-0.6,2.2c-0.4,0.5-0.3,1-0.3,1.6c0,1.3,0,2.7-0.1,4c0,0.4-0.1,1-0.4,1.2
			c-0.6,0.6-0.7,1.3-0.7,2.1c0,0.7,0,1.3,0,2c-0.1,0.4-0.2,0.9-0.5,1.2c-0.3,0.5-0.6,0.9-0.6,1.5c0.2,1.8-0.7,3.2-1.5,4.7
			c-0.5,0-1,0-1.6,0c-0.4,0-0.8-0.6-0.7-1c0.1-0.2,0.1-0.4,0.2-0.6c0.2-0.4,0.4-0.8,0.5-1.2c0.2-1,0-9.9-0.1-11.3
			c-0.4-0.3-0.9-0.6-1.3-0.9c0.8-1.6,0.6-3.3,0.4-4.9c0-0.3-0.4-0.6-0.6-0.7c-0.6-0.2-1.3-0.3-1.9,0.1c-0.2,0.1-0.4,0.3-0.4,0.4
			c-0.2,1.6-0.7,3.3,0.5,4.8c0.2,0.3,0.4,0.8,0.4,1.2c0,1.4,0,2.9,0,4.3c0,0.7-0.2,1.3-0.6,1.8c-0.3,0.3-0.3,0.8-0.4,1.2
			c-0.1,0.4-0.1,1-0.3,1.3c-0.8,0.9-0.8,1.7-0.3,2.7c0.1,0.2,0.1,0.4,0.1,0.6c-0.3,0.7-0.5,1.5-1,2.1s-0.6,1.1-0.7,1.8
			c0,0.4-0.2,0.9-0.3,1.2c0,0.1-0.4,0.1-0.6,0.1c-0.1,0-0.2-0.2-0.2-0.2c0.5-2,0.2-4,0.3-5.9c0-0.8,0-1.5-0.6-2.2
			c-0.2-0.2-0.2-0.6-0.3-0.9c-0.1-1.2,0.1-2.5-0.9-3.4c-0.3-0.2-0.1-0.8-0.2-1.3c-0.1-0.4-0.1-1-0.4-1.2c-0.7-0.6-0.8-1.3-0.8-2.1
			c0-0.6,0-1.1,0-1.7c0-0.8-0.2-1.5-0.9-2.1c-0.1-0.1-0.1-0.2-0.2-0.2c-0.7-0.5-1-1.1-1-2c0-0.7-0.1-1.3-0.7-1.8
			c-0.2-0.1-0.3-0.4-0.3-0.6c0.1-1.5-0.9-2.4-1.7-3.5c-0.5-0.7-0.4-1.7-1.2-2.3c-0.1-1.3-1.2-2.1-1.5-3.3c-0.9-0.9-0.8-2.3-1.8-3.1
			c-0.1-1.3-1-2.1-2-2.9c-0.7-0.6-1.3-1.2-1.3-2.2c-0.6-0.7-0.9-1.5-1.2-2.3s-1.1-1.3-1.8-1.9c-2.6-2.3-4.8-4.9-7.3-7.3
			c-0.5-0.5-1.1-1.1-1.6-1.7c-0.6-0.5-1.2-1-2-1.1c-0.5-0.1-0.8-0.4-0.9-0.9c-0.1-0.8-0.6-1.4-1.1-2c-0.8-0.8-1.6-1.5-2.4-2.3
			c-0.8-0.1-1.6-0.2-2.2-0.3c-1.1-0.7-1.7-1.6-2.1-2.7c-0.9-0.1-1.8-0.1-2.7-0.2c-0.5,0-0.9-0.2-1-0.8c-0.1-0.6-0.3-1-0.7-1.5
			c-0.5-0.6-1.1-1-2-1c-0.3,0-0.7-0.1-1-0.1c-0.7-0.6-1.3-1.2-2-1.8c-0.4,0-0.7-0.1-1-0.1c-0.9,0-1.8,0-2.7,0
			c-0.6,0-1.1-0.2-1.5-0.6c-0.5-0.5-0.9-1.2-1.8-1.4c-0.7-0.1-1.3-0.7-2-1c-1.1-0.4-2.1-1.3-3.4-1.1c-0.3,0-0.6-0.1-0.9-0.4
			c-0.4-0.5-0.9-1-1.4-1.4c-1.1-0.1-1.8-1.2-3-1.4c-1-0.2-1.7-1-2.8-0.8c-0.2,0-0.5,0-0.6-0.2c-0.6-0.6-1.2-0.9-2-1.1
			c-0.4-0.1-0.7-0.5-1-0.8c-0.7-0.9-1.5-1.2-2.6-1.2c-0.6,0-1-0.2-1.4-0.7c-0.2-0.2-0.6-0.4-0.9-0.4c-0.6-0.2-0.9-0.6-1-1.2
			c-0.1-0.3-0.3-0.7-0.5-0.8c-1.4-0.3-2.6-1.3-4.2-1c-0.4-0.4-0.8-0.8-1.2-1.2c-0.5-0.5-0.9-0.9-1.6-1.1c-0.9-0.2-1.4-1-2.4-1.1
			c-0.3,0-0.5-0.4-0.8-0.6c-0.6-0.6-1.2-1.3-2.1-1.5c-0.4-0.1-0.7-0.5-0.7-1c-0.1-0.8-0.7-1.2-1.4-1.1c-1.1,0.1-1.9-0.5-2.7-1.1
			c-0.8-0.7-1.6-1.5-2.4-2.3c-0.7-0.7-1.3-1.4-2.3-1.8c-0.4-0.1-0.7-0.5-1-0.8c-1.3-1.2-2.6-2.4-3.9-3.6c-0.2-0.1-0.3-0.4-0.5-0.4
			c-1.9-0.5-2.7-2.2-4-3.3c-0.6-0.5-0.8-1-0.8-1.7c0-0.6-0.2-1-0.6-1.5c-0.5-0.6-1.3-0.9-1.5-1.8c-0.1-0.7-0.4-1.3-0.9-1.7
			c-0.3-1.4-1.2-2.4-2.1-3.3c0-1.1,0-2.1-0.1-3.1c0-0.4,0-1-0.2-1.3c-1.1-1-0.8-2.2-0.8-3.4c0-0.5-0.2-0.9-0.5-1.2
			c-0.2-0.2-0.2-0.4-0.1-0.6c0.5-0.6,0.6-1.4,0.6-2.2c0-1.9,0-3.8,0-5.7c0-0.9-0.1-1.7-0.8-2.4c-0.5-0.5-0.4-1.5-1-2.1
			c-0.3-0.3-0.3-0.8-0.3-1.3c0-1.3,0-2.7,0-4c0-0.4,0-1,0.3-1.3c0.8-1,0.7-2.1,0.7-3.2c0-1,0.1-1.9,0.9-2.7c0.5-0.5,0.3-1.2,0.7-1.8
			c1-1.5,1.9-2.9,3.2-4.2c0.7-0.7,1.5-1.3,1.6-2.4c0-0.3,0.3-0.6,0.6-0.8c0.7-0.7,1.5-1.4,2.2-2c0.2-0.2,0.5-0.5,0.8-0.6
			c1.4-0.3,2.1-1.5,3.1-2.4c0.4-0.4,0.8-0.9,1.3-1c0.9-0.1,1.4-0.6,1.9-1.2c2-2.1,4-4.1,6.1-6.1c0.4-0.4,0.7-0.8,0.8-1.4
			c0.1-0.5,0.4-0.8,0.7-1.1c1.3-1.1,2.4-2.3,3.5-3.6c0.4-0.5,0.8-1,1-1.7c0.1-0.5,0.6-1,0.9-1.3c0.5-0.6,1.1-1,1.3-1.9
			c0.1-0.3,0.4-0.5,0.7-0.6c0.6-0.1,1.1-0.3,1.2-0.9c0.1-0.6,0.4-1,0.7-1.4c0.9-1.1,2.1-2,2.5-3.5c0.7-0.8,1.5-1.6,2.2-2.4
			c0.4-0.4,0.8-0.8,1.2-1.1c0.4-0.3,0.6-0.7,0.6-1.1c0.1-1.2,1-1.7,1.9-2.2c0.5-0.3,0.9-0.5,1.2-1c0.9-1.7,1.7-2.4,3.5-3.2
			c0.3-0.1,0.6-0.3,0.7-0.7c0.2-1.6,1.7-2.3,2.4-3.5c1.1-0.6,1.8-1.9,3.2-2.2c0.6-0.1,1.1-0.7,1.6-1.2c1.3-1.4,2.6-2.7,3.8-4.2
			c0.3-0.3,0.4-0.8,0.6-1.2c0.1-0.2,0.3-0.4,0.4-0.5c0.9-0.2,1.5-0.9,2.4-1.1c0.8-0.2,1.4-0.6,1.9-1.2c0.8-0.8,1.5-1.6,2.2-2.4
			c0.2-0.2,0.3-0.6,0.4-0.9c0.1-0.4,0.3-0.6,0.6-0.7c0.8-0.1,1.4-0.6,1.9-1.1c1.1-1.1,2.2-2.2,3.2-3.4c0.9-1,1.7-2,3.1-2.3
			c0.6-0.1,1.1-0.7,1.6-1.2c0.3-0.3,0.7-0.5,1.2-0.6c0.7-0.1,0.9-0.6,1-1.2c0.1-0.5,0.3-0.9,0.8-0.9c0.9-0.1,1.3-0.8,1.9-1.3
			c2.1-2.2,4.5-4.2,6.6-6.6c0.7-0.8,1.4-1.7,2.7-1.8c0.2,0,0.4-0.3,0.4-0.4c0-1.2,0.9-1.7,1.7-2.4c0.5-0.4,0.9-1,1.4-1.5
			c0.2-0.2,0.5-0.6,0.7-0.6c1.1,0,1.7-1.1,2.7-1.2c0.5-0.1,0.8-0.3,0.9-0.8c0.3-1.6,1.6-2.3,2.8-3.1c1-0.1,1.5-0.9,2.2-1.4
			c0.5-0.4,1-0.8,1.7-1c0.3-0.1,0.7-0.4,0.7-0.6c0.3-1.6,1.7-2.3,2.6-3.3c2.6-0.6,3.7-3.1,5.6-4.6c0.3-2.4,0.2-4.9,0.1-7.3
			c0-0.3-0.2-0.6-0.3-0.9c-0.7-1.6-0.7-2.3-0.2-4.4c0.6,0.2,1.4,0.2,1.9,0.5c1.4,0.9,3,0.7,4.5,0.7c0.6,0,1.1-0.2,1.6-0.4
			s1.1-0.4,1.6-0.4c1.1,0,1.6-0.7,2.1-1.4c0.2-0.3,0.3-0.6,0.3-0.9c0.1-0.7,0.8-1,1.3-1.5c0.5-0.2,0.9,0.2,1.1,0.5
			c0.7,0.8,1.8,1.3,1.9,2.6c0,0.3,0.3,0.6,0.5,0.8c0.4,0.5,0.9,1,1.4,1.4c0.3,0.3,0.5,0.3,1.1-0.1c0.2-0.1,0.3-0.3,0.5-0.4
			c0.3-0.1,0.8-0.1,0.9,0c0.9,0.8,1.8,1.7,2.7,2.6c0,0.7,0,1.3,0,2c0,0.6-0.1,1.1-0.5,1.5c-0.5,0.4-0.5,0.9-0.5,1.5
			c0,0.9,0,1.8,0,2.7s-0.2,1.7-0.8,2.4c-0.6,0.8-0.6,1.9,0.2,2.8c0.3,0.4,0.5,0.7,0.5,1.2c0,0.9,0,1.8,0,2.7c0,0.7,0.1,1.3,0.7,1.8
			c0.3,0.3,0.3,0.8,0.4,1.2c0.1,0.3,0,0.8,0.2,1c1,1.1,0.9,2.5,0.9,3.8c0,0.9,0.2,1.7,0.6,2.6C635.7,215.9,635.7,216.9,635.9,218.3z
			"/>
	</g>
</g>
</svg>
