<svg xmlns="http://www.w3.org/2000/svg" xmlns:xlink="http://www.w3.org/1999/xlink" width="148mm" height="210mm" viewBox="0 0 419.53 595.28">
  <defs>
    <style>
      .cls-1, .cls-5, .cls-8 {
        fill: none;
      }

      .cls-2 {
        clip-path: url(#clip-path);
      }

      .cls-3, .cls-6 {
        fill: #fff;
      }

      .cls-3, .cls-5, .cls-6, .cls-8 {
        stroke: #141412;
        stroke-miterlimit: 10;
      }

      .cls-4 {
        clip-path: url(#clip-path-2);
      }

      .cls-5 {
        stroke-width: 2.47px;
      }

      .cls-6 {
        stroke-width: 0.35px;
      }

      .cls-7 {
        clip-path: url(#clip-path-3);
      }
    </style>
    <clipPath id="clip-path">
      <rect class="cls-1" y="-615.28" width="420.63" height="595.28"/>
    </clipPath>
    <clipPath id="clip-path-2">
      <rect class="cls-1" y="1.06" width="419.53" height="594.22"/>
    </clipPath>
    <clipPath id="clip-path-3">
      <rect class="cls-1" y="615.28" width="419.53" height="595.28"/>
    </clipPath>
  </defs>
  <title>Plan de travail 17</title>
  <g id="Calque_2" data-name="Calque 2">
    <g class="cls-2">
      <path class="cls-3" d="M558.66-90.4a46.37,46.37,0,0,0-54-37.26,46.19,46.19,0,0,0-28.26,17.16,46.17,46.17,0,0,0-30.76-5,46.32,46.32,0,0,0-34.25,27.3,46.32,46.32,0,0,0-41.7-13.4A46.25,46.25,0,0,0,338.43-80a46.24,46.24,0,0,0-36.92-9.1A46.22,46.22,0,0,0,271.79-70a46.22,46.22,0,0,0-34.57-7.37,46.26,46.26,0,0,0-31.9,22.61,46.26,46.26,0,0,0-37.84-9.84,46.32,46.32,0,0,0-34.19,27.16A46.33,46.33,0,0,0,90.62-51.89,46.3,46.3,0,0,0,57-25.9,46.34,46.34,0,0,0-5.68-16a46.17,46.17,0,0,0-30.76-5A46.32,46.32,0,0,0-70.69,6.28a46.32,46.32,0,0,0-41.7-13.4,46.25,46.25,0,0,0-31.3,21.59,46.24,46.24,0,0,0-36.92-9.1A46.22,46.22,0,0,0-210.34,24.5a46.22,46.22,0,0,0-34.57-7.37,46.26,46.26,0,0,0-31.9,22.61,46.26,46.26,0,0,0-37.84-9.84A46.32,46.32,0,0,0-348.85,57a46.33,46.33,0,0,0-42.66-14.43,46.37,46.37,0,0,0-37.26,54,46.37,46.37,0,0,0,54,37.26,46.32,46.32,0,0,0,34.19-27.16A46.33,46.33,0,0,0-298,121.11a46.26,46.26,0,0,0,31.9-22.61,46.26,46.26,0,0,0,37.84,9.84A46.22,46.22,0,0,0-198.5,89.21a46.22,46.22,0,0,0,34.57,7.37A46.24,46.24,0,0,0-132.62,75,46.25,46.25,0,0,0-95.7,84.1,46.32,46.32,0,0,0-61.45,56.8a46.32,46.32,0,0,0,41.7,13.4A46.19,46.19,0,0,0,8.51,53a46.17,46.17,0,0,0,30.76,5,46.3,46.3,0,0,0,33.65-26,46.21,46.21,0,0,0,34.38,7.25,46.32,46.32,0,0,0,34.19-27.16A46.33,46.33,0,0,0,184.16,26.6,46.26,46.26,0,0,0,216.07,4a46.26,46.26,0,0,0,37.84,9.84A46.22,46.22,0,0,0,283.63-5.3,46.22,46.22,0,0,0,318.2,2.08a46.24,46.24,0,0,0,31.3-21.59,46.25,46.25,0,0,0,36.92,9.1,46.32,46.32,0,0,0,34.25-27.3,46.32,46.32,0,0,0,41.7,13.4,46.19,46.19,0,0,0,28.26-17.16,46.17,46.17,0,0,0,30.76,5A46.37,46.37,0,0,0,558.66-90.4Z"/>
    </g>
    <g class="cls-4">
      <line class="cls-5" x1="169.9" y1="116.92" x2="186.82" y2="204.27"/>
      <line class="cls-5" x1="134.8" y1="194.46" x2="186.82" y2="204.27"/>
      <line class="cls-5" x1="185.14" y1="202.08" x2="251.98" y2="244.85"/>
      <line class="cls-5" x1="104.71" y1="293.29" x2="168.16" y2="390.84"/>
      <line class="cls-5" x1="168.16" y1="390.84" x2="159.52" y2="481.38"/>
      <line class="cls-5" x1="168.16" y1="390.84" x2="212.42" y2="437.71"/>
      <line class="cls-5" x1="159.52" y1="481.38" x2="127.64" y2="589.67"/>
      <line class="cls-5" x1="161.26" y1="480.5" x2="277.58" y2="562.09"/>
      <line class="cls-5" x1="322.18" y1="139.41" x2="359.54" y2="308.04"/>
      <line class="cls-5" x1="390.13" y1="226.06" x2="359.54" y2="308.04"/>
      <line class="cls-5" x1="320.44" y1="458.1" x2="355.59" y2="512.13"/>
      <line class="cls-5" x1="386.1" y1="450.3" x2="363.57" y2="510.7"/>
      <line class="cls-5" x1="390.13" y1="447.9" x2="419.09" y2="589.67"/>
      <line class="cls-5" x1="310.24" y1="23.45" x2="5.32" y2="1.06"/>
      <line class="cls-5" x1="67.78" y1="62.34" x2="5.32" y2="1.06"/>
      <line class="cls-5" x1="353.37" y1="97.07" x2="250.26" y2="22.45"/>
      <line class="cls-5" x1="228.76" y1="107.27" x2="250.26" y2="22.45"/>
      <line class="cls-5" x1="62.42" y1="383.45" x2="33.6" y2="389.46"/>
      <line class="cls-5" x1="54.85" y1="414.27" x2="37.69" y2="389.46"/>
      <line class="cls-5" x1="40.24" y1="388.4" x2="-18.24" y2="442.03"/>
      <circle class="cls-6" cx="131.83" cy="193.28" r="10.2"/>
      <circle class="cls-6" cx="185.59" cy="203.48" r="10.2"/>
      <circle class="cls-6" cx="168.16" cy="116.92" r="10.2"/>
      <circle class="cls-6" cx="100.21" cy="290.69" r="10.2"/>
      <circle class="cls-6" cx="251.98" cy="246.45" r="10.2"/>
      <circle class="cls-6" cx="168.16" cy="390.84" r="10.2"/>
      <circle class="cls-6" cx="212.42" cy="437.71" r="10.2"/>
      <circle class="cls-6" cx="161.26" cy="480.5" r="10.2"/>
      <circle class="cls-6" cx="281.03" cy="562.09" r="10.2"/>
      <circle class="cls-6" cx="320.44" cy="458.1" r="10.2"/>
      <circle class="cls-6" cx="359.54" cy="508.72" r="10.2"/>
      <circle class="cls-6" cx="390.13" cy="447.9" r="10.2"/>
      <circle class="cls-6" cx="414.98" cy="589.67" r="10.2"/>
      <circle class="cls-6" cx="320.44" cy="140.04" r="10.2"/>
      <circle class="cls-6" cx="390.13" cy="226.06" r="10.2"/>
      <circle class="cls-6" cx="359.54" cy="308.04" r="10.2"/>
      <circle class="cls-6" cx="131.83" cy="589.67" r="10.2"/>
      <circle class="cls-6" cx="310.24" cy="23.45" r="10.2" transform="translate(162.67 297.35) rotate(-66.01)"/>
      <circle class="cls-6" cx="67.78" cy="62.34" r="10.2" transform="translate(-16.73 98.92) rotate(-66.01)"/>
      <circle class="cls-6" cx="5.32" cy="1.06" r="10.2" transform="translate(2.19 5.49) rotate(-66.01)"/>
      <circle class="cls-6" cx="359.54" cy="101.54" r="10.2" transform="translate(-8.9 39.64) rotate(-6.23)"/>
      <circle class="cls-6" cx="228.76" cy="107.27" r="10.2" transform="translate(-10.3 25.48) rotate(-6.23)"/>
      <circle class="cls-6" cx="250.26" cy="22.45" r="10.2" transform="translate(-0.96 27.31) rotate(-6.23)"/>
      <circle class="cls-6" cx="68.46" cy="382.19" r="10.2" transform="matrix(0.26, -0.97, 0.97, 0.26, -318.5, 350.34)"/>
      <circle class="cls-6" cx="38.77" cy="388.47" r="10.2" transform="matrix(0.26, -0.97, 0.97, 0.26, -346.65, 326.32)"/>
      <circle class="cls-6" cx="57.58" cy="415.21" r="10.2" transform="translate(-358.51 364.38) rotate(-75.14)"/>
    </g>
    <g class="cls-7">
      <rect class="cls-8" x="-7.34" y="585.55" width="136.54" height="246.79" transform="translate(-315.65 105.21) rotate(-27.04)"/>
      <rect class="cls-8" x="251" y="612.83" width="136.54" height="246.79" transform="translate(-299.81 225.64) rotate(-27.04)"/>
    </g>
  </g>
</svg>
