<svg xmlns="http://www.w3.org/2000/svg" xmlns:xlink="http://www.w3.org/1999/xlink" width="148mm" height="210mm" viewBox="0 0 419.53 595.28">
  <defs>
    <style>
      .cls-1 {
        fill: #141412;
      }

      .cls-2, .cls-6 {
        fill: none;
      }

      .cls-3, .cls-8 {
        fill: #fff;
      }

      .cls-3, .cls-6 {
        stroke: #141412;
        stroke-miterlimit: 10;
      }

      .cls-4 {
        clip-path: url(#clip-path);
      }

      .cls-5 {
        clip-path: url(#clip-path-2);
      }

      .cls-7 {
        clip-path: url(#clip-path-3);
      }

      .cls-9 {
        clip-path: url(#clip-path-4);
      }

      .cls-10 {
        clip-path: url(#clip-path-5);
      }
    </style>
    <clipPath id="clip-path">
      <rect class="cls-1" x="-439.53" y="-615.28" width="419.53" height="595.28"/>
    </clipPath>
    <clipPath id="clip-path-2">
      <rect class="cls-2" y="-615.28" width="419.53" height="595.28"/>
    </clipPath>
    <clipPath id="clip-path-3">
      <rect class="cls-2" width="419.53" height="593.88"/>
    </clipPath>
    <clipPath id="clip-path-4">
      <rect class="cls-3" x="-439.53" y="-0.59" width="419.53" height="595.95"/>
    </clipPath>
    <clipPath id="clip-path-5">
      <rect class="cls-2" y="616.24" width="419.16" height="594.2"/>
    </clipPath>
  </defs>
  <title>Plan de travail 11</title>
  <g id="Calque_1" data-name="Calque 1">
    <g>
      <rect class="cls-1" x="-439.53" y="-615.28" width="419.53" height="595.28"/>
      <g class="cls-4">
        <polygon class="cls-3" points="-17.93 -76.97 -47.69 -26.96 -17.93 23.04 11.91 -26.76 -17.93 -76.97"/>
        <polygon class="cls-3" points="-17.96 23.19 -47.71 73.19 -17.96 123.19 11.89 73.4 -17.96 23.19"/>
      </g>
    </g>
  </g>
  <g id="Calque_2" data-name="Calque 2">
    <g class="cls-5">
      <polygon class="cls-6" points="419.43 22.62 369.29 -11.68 312.6 10.18 329.73 -48.11 291.42 -95.26 352.15 -96.98 385.16 -147.98 405.56 -90.76 464.27 -75.13 416.15 -38.04 419.43 22.62"/>
    </g>
    <g class="cls-7">
      <circle class="cls-3" cx="306.63" cy="387.21" r="5.56"/>
      <circle class="cls-3" cx="263.83" cy="382.75" r="5.56"/>
      <circle class="cls-3" cx="105.1" cy="436.95" r="11.9"/>
      <ellipse class="cls-3" cx="289.02" cy="419.78" rx="8.34" ry="10.87"/>
      <circle class="cls-3" cx="77.26" cy="470.16" r="5.56"/>
      <g>
        <ellipse class="cls-3" cx="313.72" cy="437.06" rx="13.51" ry="11.96" transform="translate(-70.11 60.08) rotate(-9.85)"/>
        <ellipse class="cls-3" cx="82.82" cy="509.28" rx="2.93" ry="2.6" transform="translate(-85.86 21.66) rotate(-9.85)"/>
        <ellipse class="cls-3" cx="51.52" cy="492.07" rx="2.93" ry="2.6" transform="translate(-83.38 16.05) rotate(-9.85)"/>
        <ellipse class="cls-3" cx="43.33" cy="503.78" rx="2.93" ry="2.6" transform="translate(-85.5 14.83) rotate(-9.85)"/>
        <path class="cls-3" d="M34,593.79a4.09,4.09,0,0,0,.52,6.25,5.46,5.46,0,0,0,7-.72,4.09,4.09,0,0,0-.52-6.25A5.46,5.46,0,0,0,34,593.79Z"/>
        <path class="cls-3" d="M250.57,498.52a1.7,1.7,0,0,0,0,2.59,2.24,2.24,0,0,0,2.91-.1,1.7,1.7,0,0,0,0-2.59A2.24,2.24,0,0,0,250.57,498.52Z"/>
        <path class="cls-3" d="M252.82,488.93a2.24,2.24,0,0,0-2.91.1,1.7,1.7,0,0,0,0,2.59,2.24,2.24,0,0,0,2.91-.1A1.7,1.7,0,0,0,252.82,488.93Z"/>
        <ellipse class="cls-3" cx="325.74" cy="523.51" rx="2.93" ry="2.6" transform="translate(-84.71 63.41) rotate(-9.85)"/>
        <ellipse class="cls-3" cx="294.43" cy="506.3" rx="2.93" ry="2.6" transform="translate(-82.23 57.8) rotate(-9.85)"/>
        <ellipse class="cls-3" cx="286.25" cy="518.01" rx="2.93" ry="2.6" transform="translate(-84.36 56.57) rotate(-9.85)"/>
        <path class="cls-3" d="M523.69,474.78c-1.24-1.07-3.45-.92-5.52.21a26.73,26.73,0,0,0-3.88-4.11c-.62-.54-1.27-1-1.92-1.51a2.22,2.22,0,0,0,.9-.5,1.7,1.7,0,0,0,0-2.59,2.24,2.24,0,0,0-2.91.1,1.8,1.8,0,0,0-.61,1.31,27.14,27.14,0,0,0-4.12-1.91c.17-.14.34-.28.5-.43,2.33-2.15,2.93-5,1.35-6.38,6.33-7.52,5.77-18-1.72-24.45-8.14-7-21.38-6.54-29.56,1a18.14,18.14,0,0,0-6.11,14.64,22.28,22.28,0,0,0-7.13,4.4,18.47,18.47,0,0,0-6.12,12.23c-8.85,1.51-19.66,7.15-29.13,15.88-.5.46-1,.92-1.45,1.38-1.75-.06-3.52-.07-5.3,0a2.32,2.32,0,0,0,0-.76,3,3,0,0,0-5.78,1c0,.06,0,.11,0,.17q-2.56.28-5.15.72A79.84,79.84,0,0,0,400,487.63a6,6,0,0,0-1.55-1.76,2.58,2.58,0,0,0,1.16-2.54,3,3,0,0,0-5.78,1l0,.09a7.94,7.94,0,0,0-1.17.11c-3.83.66-6.45,4-5.87,7.34a5.56,5.56,0,0,0,.31,1.08,74.88,74.88,0,0,0-7.4,4.43l-.53-.44a6.57,6.57,0,0,0,3.2-6.59c-.62-3.58-4.4-5.91-8.44-5.21a7.34,7.34,0,0,0-6.22,5.94,32.09,32.09,0,0,0-5.71-.94,10.7,10.7,0,0,0-.14-2.49c-1.54-8.87-14-14.12-27.81-11.72s-23.77,11.53-22.23,20.41c1.12,6.43,8,11,16.91,12a8.23,8.23,0,0,0,1.46.67A23.88,23.88,0,0,0,329,521.62a23.55,23.55,0,0,0,2.64,7.46l-.18,0c-3.53.61-6,3.65-5.42,6.78a5.12,5.12,0,0,0,.38,1.24,6.63,6.63,0,0,0-.89.09,6.44,6.44,0,0,0-2.69,1.12,25.82,25.82,0,0,0-9.37-10.08,4.94,4.94,0,0,0,1.28-4.15,5.46,5.46,0,0,0-6-4.2,7.07,7.07,0,0,0,2.46-6.49c-.69-4-4.87-6.54-9.34-5.77s-7.54,4.62-6.85,8.58,4.87,6.54,9.34,5.77h0a5.24,5.24,0,0,0-1.19,2.26,33.36,33.36,0,0,0-23,3.87,7.27,7.27,0,0,0-.1-1c-.77-4.43-5.45-7.32-10.46-6.45a10.12,10.12,0,0,0-3.94,1.58,27.07,27.07,0,0,0-2.25-2.68c4.48-1.56,7.35-5.73,6.6-10-.84-4.85-6-8-11.44-7.06s-9.23,5.65-8.39,10.5c0,.09,0,.18.06.27a14.83,14.83,0,0,0-4.79.68,56,56,0,0,0-4.42-10.65A6.41,6.41,0,0,0,247,501.8a4.75,4.75,0,0,0,0-7.27,6.29,6.29,0,0,0-8.16.28l0,0a3.27,3.27,0,0,0-.35-1.69,22.27,22.27,0,0,0,7.1-4.39,19.54,19.54,0,0,0,4.58-6.26,5.71,5.71,0,0,0,.54.53,7,7,0,0,0,9.13-.31,6,6,0,0,0,1.57-2.33A23.54,23.54,0,0,0,264,481a5.74,5.74,0,0,0,.8,8,7.7,7.7,0,0,0,10-.34,5.82,5.82,0,0,0,0-8.9l-.16-.13a9.87,9.87,0,0,0,1.59-1.19c2.88-2.65,3.63-6.62,2.51-10.8.19-.15.37-.3.55-.47,2.45-2.26,3.11-5.23,1.48-6.63-1.24-1.07-3.45-.92-5.52.21a26.73,26.73,0,0,0-3.88-4.11c-.62-.54-1.27-1-1.92-1.51a2.22,2.22,0,0,0,.9-.5,1.7,1.7,0,0,0,0-2.59,2.24,2.24,0,0,0-2.91.1,1.8,1.8,0,0,0-.61,1.31,27.14,27.14,0,0,0-4.12-1.91c.17-.14.34-.28.5-.43,2.33-2.15,2.93-5,1.35-6.38,6.33-7.52,5.77-18-1.72-24.45-8.14-7-21.38-6.54-29.56,1A18.14,18.14,0,0,0,227.17,436a22.28,22.28,0,0,0-7.13,4.4,18.47,18.47,0,0,0-6.12,12.23c-8.85,1.51-19.66,7.15-29.13,15.88-.5.46-1,.92-1.45,1.38-1.75-.06-3.52-.07-5.3,0a2.32,2.32,0,0,0,0-.76,3,3,0,0,0-5.78,1c0,.06,0,.11,0,.17q-2.56.28-5.15.72a79.84,79.84,0,0,0-10.08,2.43,6,6,0,0,0-1.55-1.76,2.58,2.58,0,0,0,1.16-2.54,3,3,0,0,0-5.78,1l0,.09a7.94,7.94,0,0,0-1.17.11c-3.83.66-6.45,4-5.87,7.34a5.56,5.56,0,0,0,.31,1.08,74.88,74.88,0,0,0-7.4,4.43l-.53-.44a6.57,6.57,0,0,0,3.2-6.59c-.62-3.58-4.4-5.91-8.44-5.21a7.34,7.34,0,0,0-6.22,5.94,32.76,32.76,0,0,0-13.9-.55,33.53,33.53,0,0,0-6.92,2v0c-.78-4.52-4-7.74-7.1-7.2s-5,4.65-4.26,9.17c0,.23.09.45.14.68a9.07,9.07,0,0,0-3.54-.09c-4.47.78-7.54,4.62-6.85,8.58a7.14,7.14,0,0,0,4.94,5.44,23.88,23.88,0,0,0-1.23,12.57,23.55,23.55,0,0,0,2.64,7.46l-.18,0c-3.53.61-6,3.65-5.42,6.78a5.12,5.12,0,0,0,.38,1.24,6.63,6.63,0,0,0-.89.09,6.44,6.44,0,0,0-2.69,1.12A25.82,25.82,0,0,0,70.55,514a4.94,4.94,0,0,0,1.28-4.15,5.46,5.46,0,0,0-6-4.2,7.07,7.07,0,0,0,2.46-6.49c-.69-4-4.87-6.54-9.34-5.77S51.44,498,52.13,502s4.87,6.54,9.34,5.77h0A5.24,5.24,0,0,0,60.33,510a33.36,33.36,0,0,0-23,3.87,7.27,7.27,0,0,0-.1-1c-.77-4.43-5.45-7.32-10.46-6.45A10.12,10.12,0,0,0,22.82,508a27.07,27.07,0,0,0-2.25-2.68c4.48-1.56,7.35-5.73,6.6-10-.84-4.85-6-8-11.44-7.06s-9.23,5.65-8.39,10.5c0,.09,0,.18.06.27a15.17,15.17,0,0,0-2.88.22c-5.69,1-10.26,5.11-12.94,10.89-.35,0-.7.08-1.05.14-4.85.84-8.38,3.86-7.88,6.73.38,2.19,3,3.66,6.35,3.87a34.45,34.45,0,0,0,.47,7.76c.19,1.1.44,2.17.72,3.22a3.22,3.22,0,0,0-1.46-.08,2.78,2.78,0,0,0-2.45,3.06,2.78,2.78,0,0,0,3.34,2.06,3.13,3.13,0,0,0,1.91-1.1,31.36,31.36,0,0,0,2.79,5.33c-.32,0-.64.07-1,.13-4.61.8-8,3.72-7.49,6.53-14.12,4.16-23.35,17-21.06,30.2,2.49,14.36,17.65,23.71,33.87,20.9a31.47,31.47,0,0,0,20.57-12.74,33,33,0,0,0,12.07.12,32,32,0,0,0,18.3-9.89A55,55,0,0,0,61,579.65a9.21,9.21,0,0,0-1.75,1.44,7.36,7.36,0,0,0,.93,11.25,9.84,9.84,0,0,0,12.67-1.29A7.36,7.36,0,0,0,73.19,581a110.4,110.4,0,0,0,17.44-.75,5.09,5.09,0,0,0-1,.81,4.09,4.09,0,0,0,.52,6.25,5.46,5.46,0,0,0,7-.72,4.09,4.09,0,0,0-.52-6.25,4.9,4.9,0,0,0-1.51-.73l1.81-.29c1.56-.27,3.1-.58,4.62-.9a17.29,17.29,0,0,0,18.81,10.66,16.88,16.88,0,0,0,11.56-7.95c15,11,35.36,16.11,56.49,12.45a78.74,78.74,0,0,0,18.94-5.81,23.58,23.58,0,0,0,.34,4.4c2.49,14.36,17.65,23.71,33.87,20.9a31.47,31.47,0,0,0,20.57-12.74,33,33,0,0,0,12.07.12,32,32,0,0,0,18.3-9.89,55,55,0,0,0,11.39,3.33,9.21,9.21,0,0,0-1.75,1.44,7.36,7.36,0,0,0,.93,11.25,9.84,9.84,0,0,0,12.67-1.29,7.36,7.36,0,0,0,.37-10.07,110.4,110.4,0,0,0,17.44-.75,5.09,5.09,0,0,0-1,.81,4.09,4.09,0,0,0,.52,6.25,5.46,5.46,0,0,0,7-.72,4.09,4.09,0,0,0-.52-6.25,4.9,4.9,0,0,0-1.51-.73l1.81-.29c1.56-.27,3.1-.58,4.62-.9a17.29,17.29,0,0,0,18.81,10.66,16.88,16.88,0,0,0,11.56-7.95c15,11,35.36,16.11,56.49,12.45,38.24-6.64,64.47-39.46,58.6-73.32a55.62,55.62,0,0,0-5.93-17,6.41,6.41,0,0,0,5.92-1.43,4.75,4.75,0,0,0,0-7.27,6.29,6.29,0,0,0-8.16.28l0,0a3.27,3.27,0,0,0-.35-1.69,22.27,22.27,0,0,0,7.1-4.39,19.54,19.54,0,0,0,4.58-6.26,5.71,5.71,0,0,0,.54.53,7,7,0,0,0,9.13-.31,6,6,0,0,0,1.57-2.33,23.54,23.54,0,0,0,2.56.64,5.74,5.74,0,0,0,.8,8,7.7,7.7,0,0,0,10-.34,5.82,5.82,0,0,0,0-8.9l-.16-.13a9.87,9.87,0,0,0,1.59-1.19c2.88-2.65,3.63-6.62,2.51-10.8.19-.15.37-.3.55-.47C524.66,479.15,525.32,476.19,523.69,474.78Z"/>
      </g>
      <circle class="cls-3" cx="167.24" cy="465.34" r="5.56" transform="translate(-241.27 186.72) rotate(-35.94)"/>
      <circle class="cls-3" cx="135.33" cy="434.12" r="9.07" transform="translate(-229.02 162.05) rotate(-35.94)"/>
      <circle class="cls-3" cx="162.29" cy="420.03" r="5.56" transform="translate(-215.62 175.19) rotate(-35.94)"/>
      <circle class="cls-3" cx="114.31" cy="427.9" r="5.56"/>
      <circle class="cls-3" cx="103.43" cy="346.51" r="5.56"/>
      <circle class="cls-3" cx="136.89" cy="388.31" r="5.56"/>
      <circle class="cls-3" cx="367.33" cy="485.43" r="2.75"/>
      <circle class="cls-3" cx="387.21" cy="430.65" r="2.75"/>
      <circle class="cls-3" cx="378.47" cy="465.89" r="2.75"/>
      <circle class="cls-3" cx="330.89" cy="136.06" r="11.9" transform="translate(84.74 395.7) rotate(-68.88)"/>
      <circle class="cls-3" cx="351.84" cy="173.99" r="5.56" transform="translate(62.76 439.51) rotate(-68.88)"/>
      <ellipse class="cls-3" cx="313.72" cy="22.25" rx="13.51" ry="11.96" transform="translate(230.56 325.56) rotate(-78.73)"/>
      <ellipse class="cls-3" cx="390.34" cy="184.25" rx="2.93" ry="2.6" transform="translate(133.32 531.03) rotate(-78.73)"/>
      <ellipse class="cls-3" cx="363" cy="207.26" rx="2.93" ry="2.6" transform="translate(88.77 522.73) rotate(-78.73)"/>
      <ellipse class="cls-3" cx="370.98" cy="219.11" rx="2.93" ry="2.6" transform="translate(83.57 540.09) rotate(-78.73)"/>
      <path class="cls-3" d="M326.13,280.1a4.09,4.09,0,0,0,6,1.77,5.46,5.46,0,0,0,1.87-6.82,4.09,4.09,0,0,0-6-1.77A5.46,5.46,0,0,0,326.13,280.1Z"/>
      <path class="cls-3" d="M225,176.52a4.09,4.09,0,0,0,6,1.77,5.46,5.46,0,0,0,1.87-6.82,4.09,4.09,0,0,0-6-1.77A5.46,5.46,0,0,0,225,176.52Z"/>
      <path class="cls-3" d="M517-239.43c-1.44.77-2.1,2.89-1.79,5.23a26.73,26.73,0,0,0-5.23,2.14c-.73.39-1.42.81-2.1,1.25a2.22,2.22,0,0,0-.14-1,1.7,1.7,0,0,0-2.42-.94,2.24,2.24,0,0,0-1,2.75,1.8,1.8,0,0,0,1,1,27.14,27.14,0,0,0-3.26,3.15c-.07-.21-.14-.42-.22-.62-1.17-2.95-3.61-4.54-5.46-3.56-4.73-8.62-14.73-11.87-23.43-7.21-9.46,5.07-13.81,17.58-9.71,27.94a18.14,18.14,0,0,0,11.45,11,22.28,22.28,0,0,0,1.54,8.24,18.47,18.47,0,0,0,9.2,10.11c-1.78,8.8-.42,20.92,4.32,32.89.25.63.5,1.24.76,1.85-.69,1.62-1.34,3.26-1.92,4.94a2.32,2.32,0,0,0-.71-.27,2.78,2.78,0,0,0-3.12,2.37,2.78,2.78,0,0,0,2,3.39l.17,0q-.67,2.49-1.18,5.06a79.84,79.84,0,0,0-1.36,10.28,6,6,0,0,0-2.2.81,2.58,2.58,0,0,0-1.95-2,2.78,2.78,0,0,0-3.12,2.37,2.78,2.78,0,0,0,2,3.39h.09a7.94,7.94,0,0,0-.32,1.13c-.76,3.81,1.36,7.44,4.73,8.12a5.56,5.56,0,0,0,1.12.1,74.88,74.88,0,0,0,1.46,8.5l-.6.33a6.57,6.57,0,0,0-5-5.36c-3.56-.71-7.1,2-7.9,6a7.34,7.34,0,0,0,3.3,7.94,32.09,32.09,0,0,0-2.93,5,10.7,10.7,0,0,0-2.37-.77c-8.83-1.76-18.21,8-21,21.72s2.19,26.33,11,28.09c6.4,1.28,13.09-3.48,17.33-11.44a8.23,8.23,0,0,0,1.15-1.12,23.88,23.88,0,0,0,11.28,5.68,23.55,23.55,0,0,0,7.91.22c0,.06,0,.11,0,.17-.7,3.52,1.25,6.87,4.37,7.49a5.12,5.12,0,0,0,1.29.09,6.63,6.63,0,0,0-.24.86,6.44,6.44,0,0,0,.08,2.91,25.82,25.82,0,0,0-12.78,5.11,4.94,4.94,0,0,0-3.41-2.69,5.46,5.46,0,0,0-6.06,4,7.07,7.07,0,0,0-5.17-4.64c-3.94-.79-7.86,2.19-8.74,6.64s1.59,8.7,5.53,9.48,7.86-2.19,8.74-6.64v0A5.24,5.24,0,0,0,483.71-16a33,33,0,0,0-4.44,11.19A33,33,0,0,0,479,6.9a7.27,7.27,0,0,0-1-.28c-4.41-.88-8.8,2.45-9.79,7.43a10.12,10.12,0,0,0,.05,4.24A27.07,27.07,0,0,0,465,19.42c.16-4.74-2.7-8.92-7-9.77-4.83-1-9.62,2.68-10.71,8.13s1.95,10.65,6.77,11.61l.28,0a14.83,14.83,0,0,0-1.09,4.72,56,56,0,0,0-11.53.29,6.41,6.41,0,0,0,.8-6,4.75,4.75,0,0,0-6.77-2.64,6.29,6.29,0,0,0-2.68,7.71v0a3.27,3.27,0,0,0-1.7-.28A22.27,22.27,0,0,0,429.84,25a19.54,19.54,0,0,0-4.19-6.53,5.71,5.71,0,0,0,.69-.31,7,7,0,0,0,3-8.63,6,6,0,0,0-1.6-2.3,23.54,23.54,0,0,0,1.52-2.16A5.74,5.74,0,0,0,437,7.2a7.7,7.7,0,0,0,3.28-9.44A5.82,5.82,0,0,0,432-5.47l-.18.11a9.87,9.87,0,0,0-.54-1.91c-1.44-3.64-4.86-5.77-9.17-6.23-.07-.23-.15-.46-.24-.68-1.23-3.1-3.76-4.79-5.65-3.77-1.44.77-2.1,2.89-1.79,5.23a26.73,26.73,0,0,0-5.23,2.14c-.73.39-1.42.81-2.1,1.25a2.22,2.22,0,0,0-.14-1,1.7,1.7,0,0,0-2.42-.94,2.24,2.24,0,0,0-1,2.75,1.8,1.8,0,0,0,1,1,27.14,27.14,0,0,0-3.26,3.15c-.07-.21-.14-.42-.22-.62-1.17-2.95-3.61-4.54-5.46-3.56-4.73-8.62-14.73-11.87-23.43-7.21-9.46,5.07-13.81,17.58-9.71,27.94a18.14,18.14,0,0,0,11.45,11,22.28,22.28,0,0,0,1.54,8.24,18.47,18.47,0,0,0,9.2,10.11c-1.78,8.8-.42,20.92,4.32,32.89.25.63.5,1.24.76,1.85-.69,1.62-1.34,3.26-1.92,4.94a2.32,2.32,0,0,0-.71-.27A3,3,0,0,0,386,86.7l.17,0q-.67,2.49-1.18,5.06a79.84,79.84,0,0,0-1.36,10.28,6,6,0,0,0-2.2.81,2.58,2.58,0,0,0-1.95-2,3,3,0,0,0-1.15,5.76h.09a7.94,7.94,0,0,0-.32,1.13c-.76,3.81,1.36,7.44,4.73,8.12a5.56,5.56,0,0,0,1.12.1,74.88,74.88,0,0,0,1.46,8.5l-.6.33a6.57,6.57,0,0,0-5-5.36c-3.56-.71-7.1,2-7.9,6a7.34,7.34,0,0,0,3.3,7.94,32.76,32.76,0,0,0-5.52,12.77,33.53,33.53,0,0,0-.64,7.17h0c-4.5-.9-8.65.91-9.27,4s2.52,6.38,7,7.28l.68.11a9.07,9.07,0,0,0-1.36,3.28c-.89,4.45,1.59,8.7,5.53,9.48a7.14,7.14,0,0,0,6.85-2.65,23.88,23.88,0,0,0,11.28,5.68,23.55,23.55,0,0,0,7.91.22c0,.06,0,.11,0,.17-.7,3.52,1.25,6.87,4.37,7.49a5.12,5.12,0,0,0,1.29.09,6.63,6.63,0,0,0-.24.86,6.44,6.44,0,0,0,.08,2.91,25.82,25.82,0,0,0-12.78,5.11,4.94,4.94,0,0,0-3.41-2.69,5.46,5.46,0,0,0-6.06,4,7.07,7.07,0,0,0-5.17-4.64c-3.94-.79-7.86,2.19-8.74,6.64s1.59,8.7,5.53,9.48,7.86-2.19,8.74-6.64v0a5.24,5.24,0,0,0,1.68,1.93,33.36,33.36,0,0,0-4.68,22.86,7.27,7.27,0,0,0-1-.28c-4.41-.88-8.8,2.45-9.79,7.43a10.12,10.12,0,0,0,.05,4.24,27.07,27.07,0,0,0-3.31,1.14c.16-4.74-2.7-8.92-7-9.77-4.83-1-9.62,2.68-10.71,8.13s1.95,10.65,6.77,11.61l.28,0a15.17,15.17,0,0,0-.84,2.77c-1.13,5.67,1.07,11.41,5.49,16-.09.34-.18.68-.25,1-1,4.83.58,9.2,3.44,9.77,2.18.43,4.49-1.47,5.9-4.52a34.45,34.45,0,0,0,7.4,2.36c1.1.22,2.19.38,3.27.49a3.22,3.22,0,0,0-.6,1.34,2.62,2.62,0,1,0,5.1,1,3.13,3.13,0,0,0-.34-2.18,31.36,31.36,0,0,0,6-.68c-.08.31-.16.62-.23.95-.92,4.59.6,8.77,3.39,9.34-1.21,14.67,7.43,27.91,20.58,30.53,14.29,2.85,28.48-7.92,31.7-24.06a31.47,31.47,0,0,0-4.48-23.78A33,33,0,0,0,443.53,260a32,32,0,0,0-2.63-20.63,55,55,0,0,0,7.21-9.42,9.21,9.21,0,0,0,.72,2.15,7.36,7.36,0,0,0,10.83,3.19A9.84,9.84,0,0,0,463,223a7.36,7.36,0,0,0-9.26-4,110.4,110.4,0,0,0,5.58-16.54,5.09,5.09,0,0,0,.39,1.24,4.09,4.09,0,0,0,6,1.77,5.46,5.46,0,0,0,1.87-6.82,4.09,4.09,0,0,0-6-1.77,4.9,4.9,0,0,0-1.22,1.15c.13-.6.26-1.19.38-1.79.31-1.56.58-3.1.82-4.63A17.29,17.29,0,0,0,478.3,178,16.88,16.88,0,0,0,475,164.33c15.67-10,27.77-27.18,32-48.21a78.74,78.74,0,0,0,1.41-19.76,23.58,23.58,0,0,0,4.23,1.27c14.29,2.85,28.48-7.92,31.7-24.06a31.47,31.47,0,0,0-4.48-23.78,33,33,0,0,0,4.46-11.22,32,32,0,0,0-2.63-20.63,55,55,0,0,0,7.21-9.42,9.21,9.21,0,0,0,.72,2.15,7.36,7.36,0,0,0,10.83,3.19,9.84,9.84,0,0,0,3.36-12.28,7.36,7.36,0,0,0-9.26-4,110.4,110.4,0,0,0,5.58-16.54,5.09,5.09,0,0,0,.39,1.24,4.09,4.09,0,0,0,6,1.77,5.46,5.46,0,0,0,1.87-6.82,4.09,4.09,0,0,0-6-1.77,4.9,4.9,0,0,0-1.22,1.15c.13-.6.26-1.19.38-1.79.31-1.56.58-3.1.82-4.63A17.29,17.29,0,0,0,579.1-43.5a16.88,16.88,0,0,0-3.25-13.64c15.67-10,27.77-27.18,32-48.21,7.59-38.06-13.58-74.36-47.28-81.08a55.62,55.62,0,0,0-18-.6,6.41,6.41,0,0,0,.8-6,4.75,4.75,0,0,0-6.77-2.64,6.29,6.29,0,0,0-2.68,7.71v0a3.27,3.27,0,0,0-1.7-.28,22.27,22.27,0,0,0-1.54-8.21,19.54,19.54,0,0,0-4.19-6.53,5.71,5.71,0,0,0,.69-.31,7,7,0,0,0,3-8.63,6,6,0,0,0-1.6-2.3,23.54,23.54,0,0,0,1.52-2.16,5.74,5.74,0,0,0,7.73,2.13,7.7,7.7,0,0,0,3.28-9.44,5.82,5.82,0,0,0-8.29-3.23l-.18.11a9.87,9.87,0,0,0-.54-1.91c-1.44-3.64-4.86-5.77-9.17-6.23-.07-.23-.15-.46-.24-.68C521.44-238.75,518.91-240.44,517-239.43Z"/>
      <circle class="cls-3" cx="339.15" cy="106.84" r="9.07" transform="translate(-16.04 90.28) rotate(-14.82)"/>
      <circle class="cls-3" cx="335.72" cy="76.62" r="5.56" transform="translate(-8.43 88.4) rotate(-14.82)"/>
      <circle class="cls-3" cx="325.78" cy="124.2" r="5.56" transform="translate(92.53 383.35) rotate(-68.88)"/>
      <circle class="cls-3" cx="296.98" cy="88.88" r="5.56" transform="translate(107.06 333.88) rotate(-68.88)"/>
      <circle class="cls-3" cx="175.81" cy="30.76" r="11.9"/>
      <circle class="cls-3" cx="206.04" cy="27.93" r="9.07" transform="translate(22.82 126.24) rotate(-35.94)"/>
      <circle class="cls-3" cx="233" cy="13.85" r="5.56" transform="translate(36.22 139.38) rotate(-35.94)"/>
      <circle class="cls-3" cx="142.45" cy="45.48" r="5.56"/>
      <circle class="cls-3" cx="351.84" cy="30.76" r="5.56"/>
      <circle class="cls-3" cx="381.22" cy="69.49" r="5.56"/>
      <circle class="cls-3" cx="115.86" cy="19.6" r="18.45" transform="translate(69.07 127.39) rotate(-76.14)"/>
      <circle class="cls-3" cx="5.72" cy="436.95" r="14.06" transform="translate(-163.79 34.18) rotate(-22.07)"/>
      <circle class="cls-3" cx="181.43" cy="63.93" r="8.62" transform="translate(-10.73 72.87) rotate(-22.07)"/>
      <circle class="cls-3" cx="105.67" cy="2.37" r="8.62" transform="translate(78.05 104.4) rotate(-76.14)"/>
      <circle class="cls-3" cx="48.59" cy="136.06" r="8.62" transform="translate(-95.15 150.64) rotate(-76.14)"/>
      <circle class="cls-3" cx="51.52" cy="75.06" r="8.62" transform="translate(-33.7 107.09) rotate(-76.14)"/>
    </g>
    <g>
      <rect class="cls-8" x="-439.53" y="-0.59" width="419.53" height="595.95"/>
      <g class="cls-9">
        <g>
          <path class="cls-3" d="M50.57,14.27,50.22,14l.28.77Z"/>
          <path class="cls-3" d="M-355-101.84c13.43,6.83,32.88.79,41.63,13.55,7.93,11.56-1.22,28.14-12.7,35.67s-25.59,11-34.86,21.4c-3.92,4.4-7.11,10.11-12.53,12.06-8.56,3.08-16.86-4.83-22.84-12-10.47,17.92-25.91,32-42.1,44.23A341.58,341.58,0,0,1-496,48.35c13.8,7.11,30.15-1.21,42.49-10.87s24.94-21.42,40.28-21.75c5.2-.11,10.91,1,15.22-2.07,2.22-1.6,3.69-4.09,5.42-6.27,8.77-11,23.69-13.32,37.22-14.87,7.09-.81,15.09-1.34,20.47,3.6s3.46,17.17-3.66,16.84a22,22,0,0,1,6.87,16.71c-11.38-.75-22.94,5.55-29,15.8-6.16,10.48-6.4,23.54-6.46,35.88,4.23.54,7.13-4.64,7.42-9.14s-.78-9.22.83-13.39c4.5-11.71,21.66-6.31,32.37-11.91,4.57-2.39,8-6.95,12.87-8.59,3.08-1,6.4-.79,9.62-.52l23.86,2c-7.41,5.7-8.9,18.29-3,25.74,8.89-18.54,28-29.05,46.93-34.63s38.81-7.45,57.19-14.8c6.26-2.51,13.66-5.54,19.2-1.56.36-12.21,9.36-23.53,20.66-26a20.43,20.43,0,0,1,3.08,18.21l7.22-2.59,7,8.6a102,102,0,0,0-24.15,40.42c1.27,3.1,5.87,3.83,7.94,1.25A139.62,139.62,0,0,1-81,11.64a7.36,7.36,0,0,1,4.51-.74c2.12.56,3.39,2.79,4.36,4.85a126.59,126.59,0,0,1,4.82,94.91c-2,5.63-4.38,12-1.81,17.36l12.49-6.81c-12.1,20.81,2.9,49.54-6.63,71.79-3.15,7.36-8.92,13.8-9.43,21.86-.37,5.8,2,12.07-.57,17.18-1.46,2.86-4.23,4.7-6.07,7.31-5.42,7.72-1.1,18.49,2.53,27.31s5.4,21.29-2.43,26.17a7.51,7.51,0,0,0,8.48,2.69,9.45,9.45,0,0,1-.36,10.55A11.07,11.07,0,0,0-63.93,311a309.42,309.42,0,0,0-6-65.75c5.27-9.24,14.39-15.08,22-22.21s14.42-17.43,12.26-28c-1.35-6.6-3.92-16.83,2.44-17.35,1.93-.16,3.7,1.06,5.25,2.29A89.49,89.49,0,0,1-.25,217.77c5.8,14.94,9.62,33.75,23.9,39.45A353.49,353.49,0,0,0,3.3,167.77c7.5-3.11,6.21-15.18,1.33-22S-7.55,133.32-8.61,124.88a7.84,7.84,0,0,1,.52-4.44c1.83-3.69,7.14-3.37,10.42-1s5.6,6,9,8c4.89,2.9,11.16,2,16.12,4.82,4.09,2.3,6.66,6.72,9,10.93l24.86,44.13c4.57.87,6.4-6.68,4-10.88s-6.83-7.06-8.28-11.73c-1.22-3.93,0-8.24-.63-12.33-.9-6.1-5.54-10.7-9.91-14.8l-36.2-33.89C5.88,99.46,1.25,95.06-1.1,89.24s-1.73-13.51,3-17.33c4.37,12,21.18,7.16,32.95,10.2C45.63,84.88,52.79,95.27,59,104.93c6.23-2.9,6.24-13,1.9-18.53s-11.19-8-17.37-11C26,66.82,11.66,51.22,4,32.45c-1.22-3-2.28-6.3-1.52-9.45,1.76-7.26,11.72-8.28,17.8-4.43S30.41,29.13,36.25,33.37a7.24,7.24,0,0,0,4.09,1.69c4.59,0,5.92-7.34,3.25-11.3s-7.28-5.84-10.7-9.08S27.61,5,31.24,2l19,12L28.79-44.54c-4.62-12.63-9.51-25.7-18.8-35C.5-89.1-12.56-93.62-22.85-102.19c-10.9-9.08-18.07-22.1-26.13-34A221,221,0,0,0-92-183.58c-8.85-7.25-19.77-14.08-30.63-11.2-11.21,3-17.88,15.2-21.11,26.94s-4.46,24.4-10.64,34.74c5.85,9.49,1.43,24.15-8.54,28.3-8.92,3.71-18.8-.46-28.18-2.58A66.3,66.3,0,0,0-231-103.9c-20.17,8.37-35.42,26-49.91,43,13.31-7.28,22.8-20.63,35.63-28.82,19.43-12.39,43.66-11.41,66.31-10,5.51.33,11.3.77,15.89,4s7.25,10.31,4.09,15.09c-1.79,2.72-4.92,4-7.85,5.2l-32,12.66a11.33,11.33,0,0,1,4.27,8.5,56.56,56.56,0,0,0-26.95,11.56l29.83,3.07c4.71.48,9.51,1,14.12-.18,8.86-2.21,16.42-10.27,25.49-9.43.12,3.43-1.61,6.59-3.29,9.53-5,8.69-10.12,17.62-17.84,23.66s-18.72,8.55-27,3.38c-3.76-2.36-6.71-6.11-10.76-7.86-8.13-3.52-17.27,2.35-22.94,9.46s-9.8,15.83-17,21.12-19.36,4.84-22.67-3.77c-2-5.33.1-11.31.6-17s-2.42-13.07-7.85-12.67c1,10.39-2.43,22.43-11.45,26.65S-314.1-2.66-310-12.14c1.51-3.47,4.84-6.19,5-10,.16-4.26-4.14-7.55-8.17-7.46s-7.64,2.62-10.7,5.39C-331.65-29-331-42-325.2-49.25s14.76-10.63,22.92-14.66,16.56-10,18.82-19.18c.7-2.84.56-6.31-1.6-8.15,3.75,1.3,7.48-2.64,8.45-6.69s.3-8.37,1.09-12.47c2.76-14.15,19.81-18.06,33.43-19l5.43-.38c-10.7-2.65-16.36-18-10.17-27.65l45.33,18.24c3.54,1.42,7.71,2.79,10.9.65,2-1.37,3.11-3.84,4.27-6.08,7.47-14.44,23.35-23.49,38.86-22.14-6.68-5.33-15.82.48-23.11,4.81a64.52,64.52,0,0,1-57.07,4.2c-9.82-4.07-21.21-10.52-30-4.34-3.79,2.67-6,7.16-8.06,11.46L-277-127c-2.38,5-4.87,10.11-8.87,13.75C-304.26-96.54-338.94-121.11-355-101.84Zm311.26,298.3a17,17,0,0,1-2.13,5.37A50.88,50.88,0,0,1-58.42,216.7l1.54-1.55c-4.74-5.2-3.35-13.86-.16-20.25s7.89-12.14,9.21-19.23c1.09-5.87.29-13.27,5.07-16.48,1.82,8.82-2.8,17.87-1.89,26.84C-44.3,189.53-43.12,193-43.71,196.46Zm25.31-61.39a5.21,5.21,0,0,1,2.92-.88,5.91,5.91,0,0,1,3.26,2c2.76,2.62,5.6,5.36,7.13,8.94s1.41,8.26-1.3,11c-1.54,1.53-3.78,2.32-4.82,4.27-1.49,2.76.18,6.17,1.82,8.84l14.3,23.33c1.3,2.12,2.28,5.58.11,6.63Q-5.74,185-15.71,170.2a4.06,4.06,0,0,0-3.23,1.15c-2.83-.82-2.42-5.39-4.38-7.7-2.45-2.9-7.26-1-10.4-3.05-2.62-1.68-3.18-5.67-2.06-8.69s3.48-5.31,5.76-7.48C-26.39,141-22.72,137.48-18.4,135.07ZM-2.28,38.29C-.73,40.84,1.65,42.67,3.46,45a34.85,34.85,0,0,1,3.77,6.81L11.47,61A54.7,54.7,0,0,1-9.94,47.35l3,1.31-4.29-2.12c-.22,4.78,3.52,9,3.43,13.75C-7.85,64.17-10.4,67.41-12,70.9a22.89,22.89,0,0,0-1.6,13.92c.5,2.49,1.42,4.9,1.53,7.45s-.86,5.39-3.07,6.4c-4-1.13-6.2-6-6.2-10.44s1.54-8.66,2.34-13,.69-9.31-2.11-12.6c-2.06-2.44-5.21-3.5-7.59-5.59-2.77-2.43-4.3-6-5.75-9.52-.7-1.68-1.41-3.5-1.05-5.3A9,9,0,0,1-32.87,38c3.33-3.56,7.8-7.42,12.26-5.75,2.06.77,3.92,2.7,6.08,2.3,3.53-.65,3.41-6.06,2.26-9.65s-1.68-8.83,1.74-10C-3.75,19.57-6.63,31.13-2.28,38.29ZM1.82-83.36a2.67,2.67,0,0,1,2.25,1c6.5,6.33,8.39,16.22,12.51,24.49,2.62,5.25,6.21,10,8.33,15.46S27.4-30,23.83-25.46l2-1.07c-4.84,5.4-1.29,14.91-4.91,21.3A9.47,9.47,0,0,1,10-.84,10.26,10.26,0,0,1,3.37-10.89c.24-4.93,3.89-9.53,2.79-14.33C5.29-29,1.82-31.31-.76-34.09c-5.55-6-7.28-15-6.39-23.35S-3.08-73.59.07-81.27C.44-82.16.93-83.16,1.82-83.36ZM-73.38-24.21c3-1.84,6.82-3.33,9.91-1.61,2.1,1.17,3.31,3.53,4.5,5.7C-55.38-13.6-50.58-7.44-44-4.38s15,2.29,19.77-3.38A69.23,69.23,0,0,1-39.43,34.37c-2,2.5-4.31,4.95-5.33,8.07-3.28,10,7.5,19.43,7.4,30,0,4.66-2.24,9.13-1.89,13.77.67,8.88,10,14.25,12.74,22.67,2.33,7.09-.56,15.15-5.4,20.64-4.08,4.63-9.36,7.79-14.73,10.65-.11.51-.23,1-.37,1.52l-2.62.05,3-1.58a37.35,37.35,0,0,0-5.73-29.24c-1.17-1.65-2.55-3.36-2.62-5.43-.17-5.06,6.86-6.67,8.92-11.24,1-2.32.64-5,.21-7.58l-10-58.43C-56.87,22.06-58,15.71-61,10.31-67.48-1-82.79-5.47-93.79.78A49.9,49.9,0,0,1-73.38-24.21ZM-223.51-8.77a12.15,12.15,0,0,1,6.27-1c6.46.21,14.34,2.24,16,8.86-.89,4-6.37,3.45-10.23,4.24s-6.92,3.82-10.07,6.33-7.14,4.68-10.9,3.43l-2.75,1.65Q-232.1,6.85-228.9-1C-227.68-4-226.26-7.28-223.51-8.77Z"/>
        </g>
      </g>
      <rect class="cls-6" x="-439.53" y="-0.59" width="419.53" height="595.95"/>
    </g>
    <g class="cls-10">
      <polygon class="cls-3" points="391.73 594.25 352.59 732.59 375.54 723.23 428.87 616.24 391.73 594.25"/>
    </g>
  </g>
</svg>
