<?xml version="1.0" encoding="utf-8"?>
<!-- Generator: Adobe Illustrator 22.0.1, SVG Export Plug-In . SVG Version: 6.00 Build 0)  -->
<svg version="1.1" id="Calque_1" xmlns="http://www.w3.org/2000/svg" xmlns:xlink="http://www.w3.org/1999/xlink" x="0px" y="0px"
	 viewBox="0 0 419.5 595.3" style="enable-background:new 0 0 419.5 595.3;" xml:space="preserve">
<style type="text/css">
	.st0{fill:#141412;}
	.st1{clip-path:url(#SVGID_2_);}
	.st2{fill:#FFFFFF;stroke:#141412;stroke-miterlimit:10;}
	.st3{clip-path:url(#SVGID_4_);}
	.st4{fill:none;}
	.st5{clip-path:url(#SVGID_6_);}
	.st6{fill:none;stroke:#141412;stroke-miterlimit:10;}
</style>
<title>Plan de travail 2</title>
<g id="Calque_1_1_">
	<g>
		<rect x="0" y="-615.3" class="st0" width="419.5" height="595.3"/>
		<g>
			<defs>
				<rect id="SVGID_1_" x="0" y="-615.3" width="419.5" height="595.3"/>
			</defs>
			<clipPath id="SVGID_2_">
				<use xlink:href="#SVGID_1_"  style="overflow:visible;"/>
			</clipPath>
			<g class="st1">
				<polygon class="st2" points="183.1,-75.7 153.4,-25.7 183.1,24.3 212.9,-25.5 				"/>
				<polygon class="st2" points="242.7,-75.7 213,-25.7 242.7,24.3 272.6,-25.5 				"/>
				<polygon class="st0" points="212.9,-25.6 183.2,24.4 212.9,74.4 242.7,24.6 				"/>
				<polygon class="st2" points="302.3,-76.9 272.5,-26.9 302.3,23.1 332.1,-26.7 				"/>
				<polygon class="st0" points="272.5,-26.9 242.7,23.1 272.5,73.1 302.3,23.3 				"/>
				<polygon class="st2" points="361.9,-76.9 332.1,-26.9 361.9,23.1 391.7,-26.7 				"/>
				<polygon class="st0" points="332.1,-26.8 302.3,23.2 332.1,73.2 361.9,23.4 				"/>
				<polygon class="st2" points="302.3,23.2 272.5,73.2 302.3,123.2 332.1,73.4 				"/>
				<polygon class="st2" points="421.6,-77 391.8,-27 421.6,23 451.4,-26.8 				"/>
				<polygon class="st0" points="391.8,-26.9 362,23.1 391.8,73.1 421.6,23.3 				"/>
				<polygon class="st2" points="361.9,23.1 332.2,73.1 361.9,123.1 391.8,73.3 				"/>
				<polygon class="st2" points="332.1,73.2 302.4,123.2 332.1,173.2 362,123.4 				"/>
				<polygon class="st2" points="421.6,23.2 391.8,73.2 421.6,123.2 451.4,73.4 				"/>
				<polygon class="st2" points="391.7,73.2 362,123.2 391.7,173.2 421.6,123.4 				"/>
				<polygon class="st2" points="361.9,123.3 332.2,173.3 361.9,223.3 391.8,173.5 				"/>
				<polygon class="st2" points="4.1,-75.7 -25.6,-25.7 4.1,24.3 34,-25.5 				"/>
				<polygon class="st2" points="-25.6,-25.6 -55.4,24.4 -25.6,74.4 4.2,24.6 				"/>
				<polygon class="st0" points="34.1,-27 4.3,23 34.1,73 63.9,23.2 				"/>
				<polygon class="st2" points="63.8,-76.9 34.1,-26.9 63.8,23.1 93.7,-26.7 				"/>
				<polygon class="st2" points="4.2,23.1 -25.5,73.1 4.2,123.1 34.1,73.3 				"/>
				<polygon class="st2" points="-25.6,73.1 -55.3,123.1 -25.6,173.1 4.3,123.3 				"/>
				<polygon class="st2" points="63.8,23.1 34.1,73.1 63.8,123.1 93.6,73.3 				"/>
				<polygon class="st2" points="34,73.2 4.3,123.2 34,173.2 63.9,123.4 				"/>
				<polygon class="st2" points="4.2,123.2 -25.5,173.2 4.2,223.2 34.1,173.4 				"/>
				<polygon class="st2" points="-25.6,173.3 -55.4,223.3 -25.6,273.3 4.2,223.5 				"/>
				<polygon class="st0" points="93.7,-26.9 63.9,23.1 93.7,73.1 123.5,23.3 				"/>
				<polygon class="st2" points="123.4,-76.9 93.7,-26.9 123.4,23.1 153.3,-26.7 				"/>
				<polygon class="st2" points="93.7,73.1 64,123.1 93.7,173.1 123.6,123.3 				"/>
				<polygon class="st2" points="123.5,23.1 93.7,73.1 123.5,123.1 153.3,73.4 				"/>
				<polygon class="st2" points="63.9,123.1 34.2,173.1 63.9,223.1 93.7,173.4 				"/>
				<polygon class="st0" points="153.3,-26.8 123.5,23.2 153.3,73.2 183.1,23.4 				"/>
				<polygon class="st2" points="34.1,173.2 4.3,223.2 34.1,273.2 63.9,223.4 				"/>
				<polygon class="st2" points="4.3,223.3 -25.5,273.3 4.3,323.3 34.1,273.5 				"/>
				<polygon class="st2" points="123.5,123.2 93.7,173.2 123.5,223.2 153.3,173.4 				"/>
				<polygon class="st2" points="93.7,173.3 63.9,223.3 93.7,273.3 123.5,223.5 				"/>
				<polygon class="st2" points="63.9,223.3 34.1,273.3 63.9,323.3 93.7,273.5 				"/>
				<polygon class="st2" points="34.1,273.4 4.3,323.4 34.1,373.4 63.9,323.6 				"/>
				<polygon class="st2" points="153.4,73.2 123.6,123.2 153.4,173.2 183.2,123.4 				"/>
				<polygon class="st2" points="183.1,23.2 153.3,73.2 183.1,123.2 212.9,73.4 				"/>
			</g>
		</g>
	</g>
</g>
<g>
	<defs>
		<rect id="SVGID_3_" x="708.5" y="10" width="419.5" height="593.9"/>
	</defs>
	<clipPath id="SVGID_4_">
		<use xlink:href="#SVGID_3_"  style="overflow:visible;"/>
	</clipPath>
	<g class="st3">
		<path class="st2" d="M1232.2,484.8c-1.2-1.1-3.5-0.9-5.5,0.2c-1.1-1.5-2.4-2.9-3.9-4.1c-0.6-0.5-1.3-1-1.9-1.5
			c0.3-0.1,0.6-0.3,0.9-0.5c0.7-0.6,0.8-1.7,0.2-2.4c-0.1-0.1-0.1-0.1-0.2-0.2c-0.9-0.7-2.1-0.6-2.9,0.1c-0.4,0.3-0.6,0.8-0.6,1.3
			c-1.3-0.8-2.7-1.4-4.1-1.9c0.2-0.1,0.3-0.3,0.5-0.4c2.3-2.1,2.9-5,1.3-6.4c6.3-7.5,5.8-18-1.7-24.4c-8.1-7-21.4-6.5-29.6,1
			c-4.2,3.7-6.4,9.1-6.1,14.6c-2.6,1-5.1,2.5-7.1,4.4c-3.5,3.1-5.7,7.5-6.1,12.2c-8.8,1.5-19.7,7.1-29.1,15.9
			c-0.5,0.5-1,0.9-1.4,1.4c-1.8-0.1-3.5-0.1-5.3,0c0-0.3,0-0.5,0-0.8c-0.6-1.5-2.4-2.3-3.9-1.7c-1.1,0.4-1.8,1.5-1.9,2.7
			c0,0.1,0,0.1,0,0.2c-1.7,0.2-3.4,0.4-5.2,0.7c-3.4,0.6-6.8,1.4-10.1,2.4c-0.4-0.7-0.9-1.3-1.5-1.8c0.9-0.5,1.3-1.5,1.2-2.5
			c-0.6-1.5-2.4-2.3-3.9-1.7c-1.1,0.4-1.8,1.5-1.9,2.7v0.1c-0.4,0-0.8,0-1.2,0.1c-3.8,0.7-6.4,4-5.9,7.3c0.1,0.4,0.2,0.7,0.3,1.1
			c-2.5,1.3-5,2.8-7.4,4.4l-0.5-0.4c2.3-1.3,3.6-3.9,3.2-6.6c-0.6-3.6-4.4-5.9-8.4-5.2c-3.1,0.4-5.6,2.8-6.2,5.9
			c-1.9-0.5-3.8-0.8-5.7-0.9c0.1-0.8,0-1.7-0.1-2.5c-1.5-8.9-14-14.1-27.8-11.7c-13.8,2.4-23.8,11.5-22.2,20.4c1.1,6.4,8,11,16.9,12
			c0.5,0.3,1,0.5,1.5,0.7c-1.5,4-2,8.3-1.2,12.6c0.5,2.6,1.3,5.1,2.6,7.5h-0.2c-3.5,0.6-6,3.6-5.4,6.8c0.1,0.4,0.2,0.8,0.4,1.2
			c-0.3,0-0.6,0-0.9,0.1c-1,0.2-1.9,0.5-2.7,1.1c-2.1-4.1-5.3-7.6-9.3-10c1-1.1,1.5-2.6,1.3-4.1c-0.6-2.7-3.2-4.5-6-4.2
			c1.9-1.6,2.8-4,2.5-6.5c-0.7-4-4.9-6.5-9.3-5.8c-4.5,0.8-7.5,4.6-6.8,8.6c0.7,4,4.9,6.5,9.3,5.8l0,0c-0.6,0.6-1,1.4-1.2,2.3
			c-7.9-1.5-16-0.1-23,3.9c0-0.3,0-0.7-0.1-1c-0.8-4.4-5.4-7.3-10.5-6.4c-1.4,0.2-2.8,0.8-3.9,1.6c-0.7-0.9-1.4-1.8-2.2-2.7
			c4.5-1.6,7.3-5.7,6.6-10c-0.8-4.8-6-8-11.4-7.1c-5.4,0.9-9.2,5.6-8.4,10.5c0,0.1,0,0.2,0.1,0.3c-1.6,0-3.2,0.2-4.8,0.7
			c-1.1-3.7-2.6-7.3-4.4-10.6c2.1,0.6,4.3,0,5.9-1.4c2-1.7,2.3-4.7,0.6-6.7c-0.2-0.2-0.4-0.4-0.6-0.6c-2.4-1.9-5.9-1.8-8.2,0.3l0,0
			c0-0.6-0.1-1.2-0.3-1.7c2.6-1,5-2.5,7.1-4.4c1.9-1.8,3.5-3.9,4.6-6.3c0.2,0.2,0.3,0.4,0.5,0.5c2.7,2.2,6.6,2,9.1-0.3
			c0.7-0.6,1.2-1.4,1.6-2.3c0.8,0.3,1.7,0.5,2.6,0.6c-2,2.4-1.6,6,0.8,8c3,2.4,7.2,2.2,10-0.3c2.5-2.1,2.8-5.7,0.7-8.2
			c-0.2-0.3-0.4-0.5-0.7-0.7l-0.2-0.1c0.6-0.3,1.1-0.7,1.6-1.2c2.9-2.6,3.6-6.6,2.5-10.8c0.2-0.1,0.4-0.3,0.5-0.5
			c2.5-2.3,3.1-5.2,1.5-6.6c-1.2-1.1-3.4-0.9-5.5,0.2c-1.1-1.5-2.4-2.9-3.9-4.1c-0.6-0.5-1.3-1-1.9-1.5c0.3-0.1,0.6-0.3,0.9-0.5
			c0.7-0.6,0.8-1.7,0.2-2.4c-0.1-0.1-0.1-0.1-0.2-0.2c-0.9-0.7-2.1-0.6-2.9,0.1c-0.4,0.3-0.6,0.8-0.6,1.3c-1.3-0.8-2.7-1.4-4.1-1.9
			c0.2-0.1,0.3-0.3,0.5-0.4c2.3-2.1,2.9-5,1.3-6.4c6.3-7.5,5.8-18-1.7-24.4c-8.1-7-21.4-6.5-29.6,1c-4.1,3.7-6.4,9.1-6,14.6
			c-2.6,1-5.1,2.5-7.1,4.4c-3.5,3.1-5.7,7.5-6.1,12.2c-8.8,1.5-19.7,7.1-29.1,15.9c-0.5,0.5-1,0.9-1.5,1.4c-1.8-0.1-3.5-0.1-5.3,0
			c0-0.3,0-0.5,0-0.8c-0.6-1.5-2.4-2.3-3.9-1.7c-1.1,0.4-1.8,1.5-1.9,2.7c0,0.1,0,0.1,0,0.2c-1.7,0.2-3.4,0.4-5.1,0.7
			c-3.4,0.6-6.8,1.4-10.1,2.4c-0.4-0.7-0.9-1.3-1.5-1.8c0.9-0.5,1.3-1.5,1.2-2.5c-0.6-1.5-2.4-2.3-3.9-1.7c-1.1,0.4-1.8,1.5-1.9,2.7
			v0.1c-0.4,0-0.8,0-1.2,0.1c-3.8,0.7-6.4,4-5.9,7.3c0.1,0.4,0.2,0.7,0.3,1.1c-2.5,1.3-5,2.8-7.4,4.4l-0.5-0.4
			c2.3-1.3,3.6-3.9,3.2-6.6c-0.6-3.6-4.4-5.9-8.4-5.2c-3.1,0.4-5.6,2.8-6.2,5.9c-4.5-1.2-9.3-1.4-13.9-0.5c-2.4,0.4-4.7,1.1-6.9,2
			l0,0c-0.8-4.5-4-7.7-7.1-7.2c-3.1,0.5-5,4.6-4.3,9.2c0,0.2,0.1,0.5,0.1,0.7c-1.2-0.3-2.4-0.3-3.5-0.1c-4.5,0.8-7.5,4.6-6.8,8.6
			c0.5,2.6,2.4,4.7,4.9,5.4c-1.5,4-2,8.3-1.2,12.6c0.5,2.6,1.3,5.1,2.6,7.5H797c-3.5,0.6-6,3.6-5.4,6.8c0.1,0.4,0.2,0.8,0.4,1.2
			c-0.3,0-0.6,0-0.9,0.1c-1,0.2-1.9,0.5-2.7,1.1c-2.1-4.2-5.3-7.7-9.3-10.2c1-1.1,1.5-2.6,1.3-4.1c-0.6-2.7-3.2-4.5-6-4.2
			c1.9-1.6,2.8-4,2.5-6.5c-0.7-4-4.9-6.5-9.3-5.8c-4.5,0.8-7.5,4.6-6.8,8.6c0.7,4,4.9,6.5,9.3,5.8l0,0c-0.6,0.6-1,1.4-1.2,2.3
			c-7.9-1.5-16-0.1-23,3.9c0-0.3,0-0.7-0.1-1c-0.8-4.4-5.5-7.3-10.5-6.4c-1.4,0.2-2.8,0.8-3.9,1.6c-0.7-0.9-1.4-1.8-2.2-2.7
			c4.5-1.6,7.3-5.7,6.6-10c-0.8-4.8-6-8-11.4-7.1c-5.4,0.9-9.2,5.6-8.4,10.5c0,0.1,0,0.2,0.1,0.3c-1,0-1.9,0.1-2.9,0.2
			c-5.7,1-10.3,5.1-12.9,10.9c-0.3,0-0.7,0.1-1,0.1c-4.8,0.8-8.4,3.9-7.9,6.7c0.4,2.2,3,3.7,6.3,3.9c-0.1,2.6,0,5.2,0.5,7.8
			c0.2,1.1,0.4,2.2,0.7,3.2c-0.5-0.1-1-0.2-1.5-0.1c-1.4,0.1-2.6,1.3-2.5,2.7c0.1,1.4,1.3,2.6,2.7,2.5c0.2,0,0.4,0,0.7-0.1
			c0.7-0.1,1.4-0.5,1.9-1.1c0.8,1.9,1.7,3.6,2.8,5.3c-0.3,0-0.6,0.1-1,0.1c-4.6,0.8-8,3.7-7.5,6.5c-14.1,4.2-23.3,17-21.1,30.2
			c2.5,14.4,17.6,23.7,33.9,20.9c8.3-1.3,15.7-5.9,20.6-12.7c4,0.8,8.1,0.8,12.1,0.1c7-1.2,13.5-4.6,18.3-9.9
			c3.7,1.5,7.5,2.6,11.4,3.3c-0.6,0.4-1.2,0.9-1.8,1.4c-2.9,2.9-2.9,7.5-0.1,10.4c0.3,0.3,0.6,0.6,1,0.8c4,2.7,9.3,2.2,12.7-1.3
			c2.8-2.7,2.9-7.1,0.4-10.1c5.8,0.2,11.7,0,17.4-0.8c-0.4,0.2-0.7,0.5-1,0.8c-1.6,1.6-1.6,4.2,0,5.8c0.2,0.2,0.4,0.3,0.6,0.5
			c2.2,1.5,5.2,1.2,7-0.7c1.6-1.6,1.6-4.2,0-5.8c-0.2-0.2-0.4-0.3-0.6-0.5c-0.5-0.3-1-0.6-1.5-0.7l1.8-0.3c1.6-0.3,3.1-0.6,4.6-0.9
			c3,7.5,10.8,11.9,18.8,10.7c4.8-0.8,9-3.7,11.6-7.9c15,11,35.4,16.1,56.5,12.4c6.5-1.1,12.9-3.1,18.9-5.8c0,1.5,0.1,2.9,0.3,4.4
			c2.5,14.4,17.6,23.7,33.9,20.9c8.3-1.3,15.7-5.9,20.6-12.7c4,0.8,8.1,0.8,12.1,0.1c7-1.2,13.5-4.6,18.3-9.9
			c3.7,1.5,7.5,2.6,11.4,3.3c-0.6,0.4-1.2,0.9-1.8,1.4c-2.9,2.9-2.9,7.5-0.1,10.4c0.3,0.3,0.6,0.6,1,0.8c4,2.7,9.3,2.2,12.7-1.3
			c2.8-2.7,2.9-7.1,0.4-10.1c5.8,0.2,11.7,0,17.4-0.8c-0.4,0.2-0.7,0.5-1,0.8c-1.6,1.6-1.6,4.2,0,5.8c0.2,0.2,0.4,0.3,0.6,0.5
			c2.2,1.5,5.2,1.2,7-0.7c1.6-1.6,1.6-4.2,0-5.8c-0.2-0.2-0.4-0.3-0.6-0.5c-0.5-0.3-1-0.6-1.5-0.7l1.8-0.3c1.6-0.3,3.1-0.6,4.6-0.9
			c3,7.5,10.8,11.9,18.8,10.7c4.8-0.8,9-3.7,11.6-7.9c15,11,35.4,16.1,56.5,12.4c38.2-6.6,64.5-39.5,58.6-73.3c-1-6-3-11.7-5.9-17
			c2.1,0.6,4.3,0,5.9-1.4c2-1.7,2.3-4.7,0.6-6.7c-0.2-0.2-0.4-0.4-0.6-0.6c-2.4-1.9-5.9-1.8-8.2,0.3l0,0c0-0.6-0.1-1.2-0.3-1.7
			c2.6-1,5-2.5,7.1-4.4c1.9-1.8,3.5-3.9,4.6-6.3c0.2,0.2,0.3,0.4,0.5,0.5c2.7,2.2,6.6,2,9.1-0.3c0.7-0.6,1.2-1.4,1.6-2.3
			c0.8,0.3,1.7,0.5,2.6,0.6c-2,2.4-1.6,6,0.8,8c3,2.4,7.2,2.2,10-0.3c2.5-2.1,2.8-5.7,0.7-8.2c-0.2-0.3-0.4-0.5-0.7-0.7l-0.2-0.1
			c0.6-0.3,1.1-0.7,1.6-1.2c2.9-2.6,3.6-6.6,2.5-10.8c0.2-0.1,0.4-0.3,0.6-0.5C1233.2,489.1,1233.8,486.2,1232.2,484.8z"/>
	</g>
</g>
<g>
	<rect x="0" y="-0.6" class="st4" width="419.5" height="595.9"/>
	<g>
		<defs>
			<rect id="SVGID_5_" x="0" y="-0.6" width="419.5" height="595.9"/>
		</defs>
		<clipPath id="SVGID_6_">
			<use xlink:href="#SVGID_5_"  style="overflow:visible;"/>
		</clipPath>
		<g class="st5">
			<g>
				<path class="st2" d="M71,542.2l-2.2,1C69.6,543.1,70.4,542.8,71,542.2z"/>
				<path class="st2" d="M421.2,471.3c-11.5,4.9-18.7,20.3-31.2,19.1c-11.3-1.1-16.1-15.5-14.2-26.7s7.7-21.9,6.6-33.2
					c-0.4-4.8-2.1-9.8-0.2-14.2c2.9-7,12.2-8.1,19.8-8.1c-4.8-16-4.6-33.1-2.9-49.7c1.9-18.6,5.6-36.9,11-54.8
					c-11.9,5-16,19.6-17.1,32.4c-1.1,12.8-1.1,26.9-9.4,36.8c-2.8,3.3-6.7,6.3-7.2,10.7c-0.3,2.2,0.4,4.5,0.7,6.7
					c1.7,11.3-5.2,21.9-11.8,31.2c-3.5,4.9-7.6,10.2-13.5,11c-5.9,0.8-12.1-6.8-8-11.1c-5,0.6-10.1-1-13.7-4.5
					c6.8-7,9.4-17.1,6.7-26.5c-2.8-9.4-10.4-16.4-17.8-22.9c-2.7,2.4-1.2,6.9,1.3,9.5c2.5,2.5,5.9,4.3,7.5,7.5
					c4.5,9-8.3,16.9-10.9,26.6c-1.1,4.1-0.3,8.7-2,12.6c-1.1,2.5-3.1,4.4-5,6.3l-14.4,14c0.7-7.6-5.9-15.2-13.6-15.4
					c6.1,15.3,1.7,32.9-5.5,47.7c-7.2,14.8-17.1,28.3-22.9,43.8c-2,5.3-4.3,11.5-9.7,12.9c7.1,7,8.7,17.9,4,26.6
					c-5.2-0.3-9.9-3.1-12.5-7.6l-2.5,5.9l-9-0.1c-0.6-12.8-4.2-25.3-10.6-36.4c-2.2-0.5-4.5,0.8-5.1,3.1c-0.1,0.4-0.1,0.8-0.1,1.3
					c2.9,19.7,0.8,39.8-6.3,58.4c-0.3,1.3-1.1,2.4-2.1,3.2c-1.5,1-3.5,0.7-5.3,0.2c-25.3-6.8-46.7-23.7-59.1-46.8
					c-2.2-4.2-4.7-9-9.3-10.2l-2.9,11.4c-5.7-18.5-31.1-24.2-39-41.8c-2.6-5.8-3.2-12.9-7.8-17.4c-3.2-3.3-8.3-5-9.9-9.4
					c-0.9-2.4-0.4-5.1-1-7.6c-1.6-7.5-10.4-10.4-17.6-12.7c-7.3-2.3-15.7-7.8-14.3-15.3c-2.7-0.1-5.2,1.4-6.3,3.9
					c-3.1-0.4-5.5-2.7-6.1-5.7c-2.5-0.3-5,0.4-6.9,1.9C27,449.7,41.2,460,56.5,468.7c2.6,8.2,1,17,1,25.5c0,8.5,2.4,18.2,9.8,22.4
					c4.7,2.6,12.2,6.4,9,10.6c-1,1.3-2.7,1.8-4.3,2.1c-12.6,2.6-25.7,1.8-37.8-2.4c-12.1-4.2-25.4-11.6-36.7-5.7
					C17.4,535.5,39,547,62,555.4c-2.3,6.3,5.6,11.9,12.3,12.4c6.7,0.5,14.2-1.1,19.8,2.7c1,0.6,1.8,1.5,2.3,2.6
					c1.2,3.1-2,6.3-5.2,7.1s-6.7,0.4-9.8,1.5c-4.4,1.6-7.4,6-11.8,7.6c-3.6,1.4-7.7,0.7-11.5,0l-40-7.5c-3,2.4,0.4,7.5,4.2,8.2
					c3.8,0.7,8-0.6,11.6,1c3,1.3,4.9,4.3,7.7,6.1c4.1,2.6,9.4,2.1,14.3,1.5l40.3-5c5-0.6,10.2-1.2,14.9,0.3c4.8,1.6,9,6,8.6,11
					c-9.5-3.5-16,9.6-24.4,15.4c-7.6,5.3-17.8,4.3-27,3.2c-1.7,5.4,4.3,10.7,10,10.9c5.7,0.2,10.9-2.9,16.2-5.2
					c15-6.5,31.9-7.4,47.5-2.3c2.4,0.8,5,1.9,6.5,4c3.3,4.9-1.6,11.7-7.2,13.5c-5.7,1.8-11.9,0.8-17.6,2.3c-1.2,0.2-2.4,0.8-3.3,1.7
					c-2.5,2.9,1.1,7.6,4.9,8c3.8,0.4,7.5-1.5,11.3-2c3.8-0.5,8.7,1.7,8.4,5.6l-17.7,5.6l46.7,17.2c10.1,3.7,20.6,7.5,31.3,6.5
					c10.9-1,20.9-6.8,31.7-8.8c11.4-2.1,23.2,0.2,34.8,1.4c17.4,1.8,34.9,1,52.1-2.3c9.2-1.8,19.3-5.1,23.7-13.4
					c4.5-8.6,0.9-19.2-4.3-27.4s-12-15.6-14.8-24.9c-8.9-1.3-15.2-11.8-12.1-20.2c2.7-7.6,10.7-11.6,17.2-16.4
					c9.2-6.8,16.1-16.2,20.1-26.9c6.2-17.1,4.2-35.9,2.1-54c-3.1,12.2-0.4,25.2-2.6,37.5c-3.4,18.7-17.4,33.5-30.8,47
					c-3.3,3.3-6.7,6.7-11.2,7.9c-4.5,1.2-10.1-0.8-11.2-5.3c-0.6-2.6,0.3-5.2,1.3-7.7l10.2-26.8c-2.6,0.6-5.3-0.1-7.4-1.8
					c4.6-6.9,7.4-14.8,8.1-23l-18.4,17.2c-2.9,2.7-5.8,5.5-7.7,9c-3.6,6.7-3,15.7-8.5,21c-2.1-1.7-3-4.5-3.8-7.1
					c-2.4-7.7-4.9-15.6-4.2-23.6s5.3-16.3,13-18.7c3.5-1.1,7.4-1,10.6-2.7c6.6-3.3,8.2-12.1,7.1-19.4c-1.1-7.3-4-14.5-3.1-21.8
					c0.9-7.3,7.9-14.7,14.8-12.3c4.3,1.5,6.7,6,9.8,9.3c3.1,3.3,9.1,5.3,11.9,1.7c-6.7-4.8-12-13.3-9.5-21.2
					c2.5-7.9,15.6-10.7,18.9-3.1c1.2,2.8,1,6.3,3.2,8.4c2.5,2.3,6.8,1.4,9-1.2c2.2-2.6,2.7-6.2,2.7-9.6c7.2-2.4,14.5,4.8,15.6,12.3
					c1.1,7.5-1.9,14.9-4,22.1c-2.1,7.3-3.3,15.6,1,21.9c1.3,1.9,3.4,3.7,5.7,3.3c-2.9,1.7-2.6,6.1-0.7,8.8c1.9,2.7,4.8,4.6,6.8,7.2
					c6.9,9.2-0.2,21.9-7.2,31l-2.8,3.6c7.5-5.3,19.8-0.8,22.1,8.1l-36,19c-2.8,1.5-5.9,3.4-6.4,6.5c-0.3,2,0.6,4,1.2,5.9
					c4.4,12.6,1.1,26.7-8.4,36.1c6.9-1.4,8.5-10.2,10-17.1c3.6-16.4,14.3-30.3,29.2-38.1c7.9-4,18-7.8,19.2-16.6
					c0.5-3.8-0.9-7.5-2.3-11.1l-7.9-19.5c-1.6-4.1-3.3-8.4-3.3-12.8C389.9,500.5,423.8,491.5,421.2,471.3z M71,510.7
					c-0.9-1.3-1.6-2.7-2-4.2c-1.6-5.1-2.3-10.4-1.9-15.7l0.1,1.8c5.7-0.2,10.1,5.2,12.1,10.5c2,5.3,2.8,11.3,6.3,15.9
					c2.9,3.8,7.7,7.1,7,11.8c-6.3-3.5-9.1-11.1-14.9-15.3C75.4,514,72.7,512.9,71,510.7z M93.5,558.9c-0.1,0.9-0.5,1.7-1.1,2.3
					c-0.9,0.6-1.9,1-3,1c-3.1,0.4-6.3,0.7-9.3-0.2s-5.7-3.5-5.8-6.6c-0.1-1.8,0.7-3.6,0.1-5.3c-0.8-2.4-3.8-3.1-6.3-3.5l-21.8-3.2
					c-2-0.3-4.6-1.5-4-3.4c9.6,0.4,19.2,1.1,28.7,2.1c0.7-0.7,1.1-1.6,1.1-2.6c2.1-1.3,4.5,1.3,7,1.3c3.1,0,4.6-4,7.6-4.9
					c2.5-0.8,5.1,1,6.3,3.3c1.2,2.3,1.2,5,1.2,7.5C94.5,550.7,94.3,554.8,93.5,558.9z M142.1,619.8c-2.4-0.4-4.8,0.2-7.2,0.1
					c-2.1-0.2-4.1-0.6-6.1-1.2l-7.8-2.2c6.1-3.6,12.9-5.7,20-6.3l-2.5,1.2l3.6-1.6c-2.7-2.6-7.3-2.5-10.1-5.1
					c-2.3-2.1-2.8-5.4-4-8.2c-1.5-3.5-4.1-6.4-7.4-8.3c-1.8-1-3.7-1.7-5.3-3c-1.6-1.3-2.7-3.4-2.1-5.3c2.9-2,7-0.7,9.7,1.6
					c2.7,2.3,4.3,5.5,6.4,8.3c2.1,2.8,5.2,5.3,8.7,5.3c2.6,0,5-1.4,7.5-1.8c3-0.5,6,0.5,8.8,1.4c2.9,0.3,5.1,2.9,4.8,5.8
					c0,0.1,0,0.1,0,0.2c0.3,4,0.1,8.8-3.4,10.7c-1.6,0.9-3.8,1-4.7,2.6c-1.6,2.6,1.7,5.3,4.5,6.5c2.8,1.2,6.2,3.6,5,6.3
					C154,628.7,148.7,620.8,142.1,619.8z M212.2,686.2c-0.4,0.6-1.1,0.9-1.9,0.9c-7.4,0.8-14.3-3.2-21.5-5
					c-4.6-1.1-9.4-1.3-13.8-2.9c-4.4-1.5-8.7-4.9-9.5-9.5l-0.4,1.8c-0.5-5.9-8.2-8.6-9.9-14.3c-1.3-4.2,1.1-8.6,5.2-9.9
					c2.8-0.8,5.8-0.1,7.8,1.9c2.8,2.7,3.5,7.4,7,9.3c2.7,1.4,6,0.5,9.1,0.3c6.6-0.4,13,3.3,17.4,8.2s7.3,11,10.2,17.1
					C212.3,684.7,212.4,685.5,212.2,686.2L212.2,686.2z M218.7,607.8c-0.6,2.9-1.8,6-4.5,7.1c-1.9,0.7-3.9,0.2-5.9-0.2
					c-5.9-1.2-12.2-1.4-17.7,1.1c-5.4,2.5-9.7,8.3-9,14.2c-9-8.3-14.9-19.5-16.6-31.6c-0.4-2.6-0.6-5.3-1.8-7.6
					c-4.1-7.3-15.7-5.5-22-11.1c-2.7-2.5-4.2-6.2-7.1-8.4c-5.7-4.2-14-1.2-20.6-3.9c-5.5-2.3-8.7-8.3-9.3-14.2
					c-0.5-5,0.6-10,1.8-14.9c-0.2-0.3-0.5-0.7-0.7-1l1.4-1.7c-0.2,0.9-0.5,1.8-0.7,2.7c4.8,6.7,12.3,11,20.6,11.7
					c1.6,0.1,3.4,0.2,4.7,1.2c3.1,2.5,0.2,7.8,1.7,11.5c0.8,1.9,2.6,3,4.4,4.1l40.3,24.4c4.3,2.6,8.7,5.2,13.6,6.1
					c10.3,1.9,21.5-5.4,23.8-15.6C219.2,589.9,220.5,599,218.7,607.8z M292.9,505.3c-0.6,1.7-1.6,3.2-2.9,4.5
					c-3.7,4-9.3,7.8-14.1,5.4c-1.9-2.7,1.5-5.8,3.2-8.7c1.7-2.8,1.6-6.4,1.8-9.7s1.2-7,4-8.7l0.5-2.6c2,4.1,4,8.2,5.9,12.3
					C292.4,500.1,293.5,502.7,292.9,505.3z"/>
			</g>
			<path class="st2" d="M296.5,558.3c-10.2,5.7-15.5,17.4-13.2,28.9c0.3,1.4,1.6,3.2,2.9,2.4c1.2-10.7,4.3-21,9.2-30.6"/>
			<path class="st2" d="M87.8,459.1c-3.1,2.4-3.6,6.7-1.3,9.8c0,0.1,0.1,0.1,0.1,0.2c1.2,1.3,2.9,2.2,3.9,3.7
				c1.6,2.4,0.6,5.6,0.5,8.5c-0.1,2.9,1.6,6.6,4.4,6.1c0.6-5.1,1.1-10.3,0-15.4s-4.1-9.9-8.8-12"/>
			<path class="st2" d="M50.6,379.2c-2.4,3.2-2.2,7.7-1.1,11.5s2.9,7.5,3.4,11.5c0.1,1.6,0.4,3.1,0.9,4.6c0.7,1.4,2.2,2.5,3.7,2.1
				c0.8-6.2,0.8-12.4,0-18.6c-0.2-2.4-0.9-4.7-2.1-6.7c-1.4-2-3.8-3.3-6.1-2.7"/>
			<path class="st2" d="M263.6,474c3.3-4.1,3.8-9.8,1.4-14.5c-1.3-2-2.6-3.9-4.1-5.7c-4.5-6.3-5.6-14.5-4.5-22.2
				c0.4-1.5,0.4-3.1,0.1-4.7c-0.4-1.5-1.8-2.9-3.3-2.8c2.6-2.2,6.7,1,7.4,4.3c0.8,3.3,0,7.1,1.4,10.2s4.5,4.8,7.2,6.8
				c2.7,2,5.3,5,4.7,8.3c-0.3,1.6-1.2,3-1,4.6c0.2,1.1,0.9,2,1,3.1c0.3,2.8-3.1,4.3-4.8,6.5c-1.7,2.2-1.8,5.3-2.1,8.2
				c-0.5,4.6-2,9.3-5.1,12.8s-7.9,5.7-12.5,4.9c-0.9-2.2-0.4-4.8,1.4-6.4c0.9-0.8,2.1-1.3,2.8-2.4c1.5-2.4-1-5.3-3.1-7.2
				c-2.1-1.9-4.4-5.1-2.5-7.3c2.4-1.6,5.6,0.1,8.3,1.2c2.7,1.2,6.7,1.3,7.6-1.5"/>
			<path class="st2" d="M419.1,462.1c-5.3,1.9-11,3.8-16.4,2.2c-5.4-1.6-9.4-8.4-6.2-13c2.7-3.8,9.4-5.6,8.4-10.1
				c-0.4-1.9-2.2-3.2-3.7-4.5c-7.4-6.3-10.3-16.2-15.1-24.5c-9.6-16.4-27.7-28.2-31.9-46.7c-2.3-10.1,0-20.7,0-31.1
				c0-10.7-2.4-21.2-7-30.8c2.1-1.4,4.8,0.8,6.1,3c8.4,14,4.6,31.6,4.6,47.9c0,2.6,0.2,5.5,1.8,7.6c1.6,2.1,5.1,3,6.9,1
				c1.8-2,2.2-6.6,4.9-5.8c0.6,0.2,1.1,0.7,1.5,1.2c2.8,4.4,1.6,10.2-2.7,13.1c-1.3,0.8-2.9,1.4-3.6,2.7c-1.2,2.2,0.7,4.8,2.4,6.6
				c13.4,14,25.1,29.6,35,46.3c3.5,5.9,6.8,12.2,6.9,19c0,3.1-0.5,6.2,0.5,9.1s4.7,5.2,7.2,3.4"/>
			<ellipse transform="matrix(0.9577 -0.2877 0.2877 0.9577 -125.7416 34.1606)" class="st2" cx="53.4" cy="444.9" rx="4" ry="9"/>
			<circle class="st2" cx="123.9" cy="511.5" r="3.4"/>
			<circle class="st2" cx="136" cy="485.1" r="2.4"/>
			<ellipse class="st2" cx="325" cy="353.2" rx="3.5" ry="11.7"/>
			<circle class="st2" cx="309.4" cy="343.3" r="1.8"/>
			<ellipse class="st2" cx="11.3" cy="567.2" rx="6.6" ry="1.6"/>
			<ellipse class="st2" cx="14.6" cy="495.4" rx="3.3" ry="1.2"/>
			
				<ellipse transform="matrix(0.3484 -0.9373 0.9373 0.3484 -463.1099 363.7955)" class="st2" cx="30.1" cy="515" rx="3.6" ry="5.5"/>
			<circle class="st2" cx="41" cy="511.5" r="3.4"/>
			<circle class="st2" cx="121.1" cy="494.8" r="0.6"/>
			<ellipse class="st2" cx="267.4" cy="432.5" rx="4.5" ry="9"/>
			<path class="st2" d="M239.7,444.9c1.9,0,3.5,0,3.5,0S241.7,444.9,239.7,444.9s-3.5,0-3.5,0S237.8,444.9,239.7,444.9z"/>
			
				<ellipse transform="matrix(0.9217 -0.3878 0.3878 0.9217 -132.5746 132.9074)" class="st2" cx="263" cy="394.9" rx="1.9" ry="4.1"/>
			<circle class="st2" cx="390" cy="199.5" r="6.8"/>
			<circle class="st2" cx="351.2" cy="199.9" r="1.6"/>
			<circle class="st2" cx="307.4" cy="166.3" r="2.5"/>
			<circle class="st2" cx="30.1" cy="603.7" r="8.3"/>
			<circle class="st2" cx="9.7" cy="413.8" r="4.9"/>
			<path class="st2" d="M341,381.8c-2.6,1.1-3.8,4.1-2.7,6.7c0,0,0,0.1,0.1,0.1c0.6,1.2,1.6,2.1,2,3.3c0.6,2-0.6,4.1-1.2,6.1
				c-0.6,2-0.1,5,2,5.2c1.4-3.5,2.7-7.1,2.8-10.9c0.1-3.8-1.1-7.8-4-10.2"/>
			<g>
				<path class="st2" d="M71,542.2l-2.2,1C69.6,543.1,70.4,542.8,71,542.2z"/>
				<path class="st2" d="M421.2,471.3c-11.5,4.9-18.7,20.3-31.2,19.1c-11.3-1.1-16.1-15.5-14.2-26.7s7.7-21.9,6.6-33.2
					c-0.4-4.8-2.1-9.8-0.2-14.2c2.9-7,12.2-8.1,19.8-8.1c-4.8-16-4.6-33.1-2.9-49.7c1.9-18.6,5.6-36.9,11-54.8
					c-11.9,5-16,19.6-17.1,32.4c-1.1,12.8-1.1,26.9-9.4,36.8c-2.8,3.3-6.7,6.3-7.2,10.7c-0.3,2.2,0.4,4.5,0.7,6.7
					c1.7,11.3-5.2,21.9-11.8,31.2c-3.5,4.9-7.6,10.2-13.5,11c-5.9,0.8-12.1-6.8-8-11.1c-5,0.6-10.1-1-13.7-4.5
					c6.8-7,9.4-17.1,6.7-26.5c-2.8-9.4-10.4-16.4-17.8-22.9c-2.7,2.4-1.2,6.9,1.3,9.5c2.5,2.5,5.9,4.3,7.5,7.5
					c4.5,9-8.3,16.9-10.9,26.6c-1.1,4.1-0.3,8.7-2,12.6c-1.1,2.5-3.1,4.4-5,6.3l-14.4,14c0.7-7.6-5.9-15.2-13.6-15.4
					c6.1,15.3,1.7,32.9-5.5,47.7c-7.2,14.8-17.1,28.3-22.9,43.8c-2,5.3-4.3,11.5-9.7,12.9c7.1,7,8.7,17.9,4,26.6
					c-5.2-0.3-9.9-3.1-12.5-7.6l-2.5,5.9l-9-0.1c-0.6-12.8-4.2-25.3-10.6-36.4c-2.2-0.5-4.5,0.8-5.1,3.1c-0.1,0.4-0.1,0.8-0.1,1.3
					c2.9,19.7,0.8,39.8-6.3,58.4c-0.3,1.3-1.1,2.4-2.1,3.2c-1.5,1-3.5,0.7-5.3,0.2c-25.3-6.8-46.7-23.7-59.1-46.8
					c-2.2-4.2-4.7-9-9.3-10.2l-2.9,11.4c-5.7-18.5-31.1-24.2-39-41.8c-2.6-5.8-3.2-12.9-7.8-17.4c-3.2-3.3-8.3-5-9.9-9.4
					c-0.9-2.4-0.4-5.1-1-7.6c-1.6-7.5-10.4-10.4-17.6-12.7c-7.3-2.3-15.7-7.8-14.3-15.3c-2.7-0.1-5.2,1.4-6.3,3.9
					c-3.1-0.4-5.5-2.7-6.1-5.7c-2.5-0.3-5,0.4-6.9,1.9C27,449.7,41.2,460,56.5,468.7c2.6,8.2,1,17,1,25.5c0,8.5,2.4,18.2,9.8,22.4
					c4.7,2.6,12.2,6.4,9,10.6c-1,1.3-2.7,1.8-4.3,2.1c-12.6,2.6-25.7,1.8-37.8-2.4c-12.1-4.2-25.4-11.6-36.7-5.7
					C17.4,535.5,39,547,62,555.4c-2.3,6.3,5.6,11.9,12.3,12.4c6.7,0.5,14.2-1.1,19.8,2.7c1,0.6,1.8,1.5,2.3,2.6
					c1.2,3.1-2,6.3-5.2,7.1s-6.7,0.4-9.8,1.5c-4.4,1.6-7.4,6-11.8,7.6c-3.6,1.4-7.7,0.7-11.5,0l-40-7.5c-3,2.4,0.4,7.5,4.2,8.2
					c3.8,0.7,8-0.6,11.6,1c3,1.3,4.9,4.3,7.7,6.1c4.1,2.6,9.4,2.1,14.3,1.5l40.3-5c5-0.6,10.2-1.2,14.9,0.3c4.8,1.6,9,6,8.6,11
					c-9.5-3.5-16,9.6-24.4,15.4c-7.6,5.3-17.8,4.3-27,3.2c-1.7,5.4,4.3,10.7,10,10.9c5.7,0.2,10.9-2.9,16.2-5.2
					c15-6.5,31.9-7.4,47.5-2.3c2.4,0.8,5,1.9,6.5,4c3.3,4.9-1.6,11.7-7.2,13.5c-5.7,1.8-11.9,0.8-17.6,2.3c-1.2,0.2-2.4,0.8-3.3,1.7
					c-2.5,2.9,1.1,7.6,4.9,8c3.8,0.4,7.5-1.5,11.3-2c3.8-0.5,8.7,1.7,8.4,5.6l-17.7,5.6l46.7,17.2c10.1,3.7,20.6,7.5,31.3,6.5
					c10.9-1,20.9-6.8,31.7-8.8c11.4-2.1,23.2,0.2,34.8,1.4c17.4,1.8,34.9,1,52.1-2.3c9.2-1.8,19.3-5.1,23.7-13.4
					c4.5-8.6,0.9-19.2-4.3-27.4s-12-15.6-14.8-24.9c-8.9-1.3-15.2-11.8-12.1-20.2c2.7-7.6,10.7-11.6,17.2-16.4
					c9.2-6.8,16.1-16.2,20.1-26.9c6.2-17.1,4.2-35.9,2.1-54c-3.1,12.2-0.4,25.2-2.6,37.5c-3.4,18.7-17.4,33.5-30.8,47
					c-3.3,3.3-6.7,6.7-11.2,7.9c-4.5,1.2-10.1-0.8-11.2-5.3c-0.6-2.6,0.3-5.2,1.3-7.7l10.2-26.8c-2.6,0.6-5.3-0.1-7.4-1.8
					c4.6-6.9,7.4-14.8,8.1-23l-18.4,17.2c-2.9,2.7-5.8,5.5-7.7,9c-3.6,6.7-3,15.7-8.5,21c-2.1-1.7-3-4.5-3.8-7.1
					c-2.4-7.7-4.9-15.6-4.2-23.6s5.3-16.3,13-18.7c3.5-1.1,7.4-1,10.6-2.7c6.6-3.3,8.2-12.1,7.1-19.4c-1.1-7.3-4-14.5-3.1-21.8
					c0.9-7.3,7.9-14.7,14.8-12.3c4.3,1.5,6.7,6,9.8,9.3c3.1,3.3,9.1,5.3,11.9,1.7c-6.7-4.8-12-13.3-9.5-21.2
					c2.5-7.9,15.6-10.7,18.9-3.1c1.2,2.8,1,6.3,3.2,8.4c2.5,2.3,6.8,1.4,9-1.2c2.2-2.6,2.7-6.2,2.7-9.6c7.2-2.4,14.5,4.8,15.6,12.3
					c1.1,7.5-1.9,14.9-4,22.1c-2.1,7.3-3.3,15.6,1,21.9c1.3,1.9,3.4,3.7,5.7,3.3c-2.9,1.7-2.6,6.1-0.7,8.8c1.9,2.7,4.8,4.6,6.8,7.2
					c6.9,9.2-0.2,21.9-7.2,31l-2.8,3.6c7.5-5.3,19.8-0.8,22.1,8.1l-36,19c-2.8,1.5-5.9,3.4-6.4,6.5c-0.3,2,0.6,4,1.2,5.9
					c4.4,12.6,1.1,26.7-8.4,36.1c6.9-1.4,8.5-10.2,10-17.1c3.6-16.4,14.3-30.3,29.2-38.1c7.9-4,18-7.8,19.2-16.6
					c0.5-3.8-0.9-7.5-2.3-11.1l-7.9-19.5c-1.6-4.1-3.3-8.4-3.3-12.8C389.9,500.5,423.8,491.5,421.2,471.3z M71,510.7
					c-0.9-1.3-1.6-2.7-2-4.2c-1.6-5.1-2.3-10.4-1.9-15.7l0.1,1.8c5.7-0.2,10.1,5.2,12.1,10.5c2,5.3,2.8,11.3,6.3,15.9
					c2.9,3.8,7.7,7.1,7,11.8c-6.3-3.5-9.1-11.1-14.9-15.3C75.4,514,72.7,512.9,71,510.7z M93.5,558.9c-0.1,0.9-0.5,1.7-1.1,2.3
					c-0.9,0.6-1.9,1-3,1c-3.1,0.4-6.3,0.7-9.3-0.2s-5.7-3.5-5.8-6.6c-0.1-1.8,0.7-3.6,0.1-5.3c-0.8-2.4-3.8-3.1-6.3-3.5l-21.8-3.2
					c-2-0.3-4.6-1.5-4-3.4c9.6,0.4,19.2,1.1,28.7,2.1c0.7-0.7,1.1-1.6,1.1-2.6c2.1-1.3,4.5,1.3,7,1.3c3.1,0,4.6-4,7.6-4.9
					c2.5-0.8,5.1,1,6.3,3.3c1.2,2.3,1.2,5,1.2,7.5C94.5,550.7,94.3,554.8,93.5,558.9z M142.1,619.8c-2.4-0.4-4.8,0.2-7.2,0.1
					c-2.1-0.2-4.1-0.6-6.1-1.2l-7.8-2.2c6.1-3.6,12.9-5.7,20-6.3l-2.5,1.2l3.6-1.6c-2.7-2.6-7.3-2.5-10.1-5.1
					c-2.3-2.1-2.8-5.4-4-8.2c-1.5-3.5-4.1-6.4-7.4-8.3c-1.8-1-3.7-1.7-5.3-3c-1.6-1.3-2.7-3.4-2.1-5.3c2.9-2,7-0.7,9.7,1.6
					c2.7,2.3,4.3,5.5,6.4,8.3c2.1,2.8,5.2,5.3,8.7,5.3c2.6,0,5-1.4,7.5-1.8c3-0.5,6,0.5,8.8,1.4c2.9,0.3,5.1,2.9,4.8,5.8
					c0,0.1,0,0.1,0,0.2c0.3,4,0.1,8.8-3.4,10.7c-1.6,0.9-3.8,1-4.7,2.6c-1.6,2.6,1.7,5.3,4.5,6.5c2.8,1.2,6.2,3.6,5,6.3
					C154,628.7,148.7,620.8,142.1,619.8z M212.2,686.2c-0.4,0.6-1.1,0.9-1.9,0.9c-7.4,0.8-14.3-3.2-21.5-5
					c-4.6-1.1-9.4-1.3-13.8-2.9c-4.4-1.5-8.7-4.9-9.5-9.5l-0.4,1.8c-0.5-5.9-8.2-8.6-9.9-14.3c-1.3-4.2,1.1-8.6,5.2-9.9
					c2.8-0.8,5.8-0.1,7.8,1.9c2.8,2.7,3.5,7.4,7,9.3c2.7,1.4,6,0.5,9.1,0.3c6.6-0.4,13,3.3,17.4,8.2s7.3,11,10.2,17.1
					C212.3,684.7,212.4,685.5,212.2,686.2L212.2,686.2z M218.7,607.8c-0.6,2.9-1.8,6-4.5,7.1c-1.9,0.7-3.9,0.2-5.9-0.2
					c-5.9-1.2-12.2-1.4-17.7,1.1c-5.4,2.5-9.7,8.3-9,14.2c-9-8.3-14.9-19.5-16.6-31.6c-0.4-2.6-0.6-5.3-1.8-7.6
					c-4.1-7.3-15.7-5.5-22-11.1c-2.7-2.5-4.2-6.2-7.1-8.4c-5.7-4.2-14-1.2-20.6-3.9c-5.5-2.3-8.7-8.3-9.3-14.2
					c-0.5-5,0.6-10,1.8-14.9c-0.2-0.3-0.5-0.7-0.7-1l1.4-1.7c-0.2,0.9-0.5,1.8-0.7,2.7c4.8,6.7,12.3,11,20.6,11.7
					c1.6,0.1,3.4,0.2,4.7,1.2c3.1,2.5,0.2,7.8,1.7,11.5c0.8,1.9,2.6,3,4.4,4.1l40.3,24.4c4.3,2.6,8.7,5.2,13.6,6.1
					c10.3,1.9,21.5-5.4,23.8-15.6C219.2,589.9,220.5,599,218.7,607.8z M292.9,505.3c-0.6,1.7-1.6,3.2-2.9,4.5
					c-3.7,4-9.3,7.8-14.1,5.4c-1.9-2.7,1.5-5.8,3.2-8.7c1.7-2.8,1.6-6.4,1.8-9.7s1.2-7,4-8.7l0.5-2.6c2,4.1,4,8.2,5.9,12.3
					C292.4,500.1,293.5,502.7,292.9,505.3z"/>
			</g>
			<path class="st2" d="M87.8,459.1c-3.1,2.4-3.6,6.7-1.3,9.8c0,0.1,0.1,0.1,0.1,0.2c1.2,1.3,2.9,2.2,3.9,3.7
				c1.6,2.4,0.6,5.6,0.5,8.5c-0.1,2.9,1.6,6.6,4.4,6.1c0.6-5.1,1.1-10.3,0-15.4s-4.1-9.9-8.8-12"/>
			<path class="st2" d="M50.6,379.2c-2.4,3.2-2.2,7.7-1.1,11.5s2.9,7.5,3.4,11.5c0.1,1.6,0.4,3.1,0.9,4.6c0.7,1.4,2.2,2.5,3.7,2.1
				c0.8-6.2,0.8-12.4,0-18.6c-0.2-2.4-0.9-4.7-2.1-6.7c-1.4-2-3.8-3.3-6.1-2.7"/>
			<ellipse transform="matrix(0.9577 -0.2877 0.2877 0.9577 -125.7416 34.1606)" class="st2" cx="53.4" cy="444.9" rx="4" ry="9"/>
			<circle class="st2" cx="123.9" cy="511.5" r="3.4"/>
			<circle class="st2" cx="136" cy="485.1" r="2.4"/>
			<ellipse class="st2" cx="11.3" cy="567.2" rx="6.6" ry="1.6"/>
			<ellipse class="st2" cx="14.6" cy="495.4" rx="3.3" ry="1.2"/>
			
				<ellipse transform="matrix(0.3484 -0.9373 0.9373 0.3484 -463.1099 363.7955)" class="st2" cx="30.1" cy="515" rx="3.6" ry="5.5"/>
			<circle class="st2" cx="41" cy="511.5" r="3.4"/>
			<circle class="st2" cx="121.1" cy="494.8" r="0.6"/>
			<circle class="st2" cx="9.7" cy="413.8" r="4.9"/>
			<path class="st2" d="M330.9,34.8c-0.6,7.8,3.6,10.9,8.3,6.1c2.3-2.3,4.5-5.9,6.7-7.6c3.6-2.7,5.8,0.5,8.4,1.8
				c2.6,1.3,7.5-1.3,9.5-8c-4.2-3.2-8.7-6.1-14.4-5.3c-5.7,0.9-12.8,6-18.8,16"/>
			<path class="st2" d="M269.3,26.6c-2.4,3.2-2.2,7.7-1.1,11.5c1.1,3.8,2.9,7.5,3.4,11.5c0.1,1.6,0.4,3.1,0.9,4.6
				c0.7,1.4,2.2,2.5,3.7,2.1c0.8-6.2,0.8-12.4,0-18.6c-0.2-2.4-0.9-4.7-2.1-6.7c-1.4-2-3.8-3.3-6.1-2.7"/>
			<ellipse transform="matrix(0.9577 -0.2877 0.2877 0.9577 -15.0587 82.1829)" class="st2" cx="272.1" cy="92.3" rx="4" ry="9"/>
			<circle class="st2" cx="343.9" cy="335.5" r="3.4"/>
			<circle class="st2" cx="356" cy="309.1" r="2.4"/>
			<ellipse class="st2" cx="231.3" cy="391.2" rx="6.6" ry="1.6"/>
			<ellipse class="st2" cx="233.3" cy="142.8" rx="3.3" ry="1.2"/>
			
				<ellipse transform="matrix(0.3484 -0.9373 0.9373 0.3484 -168.2596 547.7469)" class="st2" cx="309.8" cy="394.9" rx="3.6" ry="5.5"/>
			<circle class="st2" cx="259.7" cy="158.9" r="3.4"/>
			<circle class="st2" cx="341.1" cy="318.8" r="0.6"/>
			<circle class="st2" cx="228.4" cy="61.2" r="4.9"/>
			<path class="st2" d="M84.6-101.8C98-95,117.4-101,126.2-88.3c7.9,11.6-1.2,28.1-12.7,35.7s-25.6,11-34.9,21.4
				c-3.9,4.4-7.1,10.1-12.5,12.1c-8.6,3.1-16.9-4.8-22.8-12C32.8-13.3,17.4,0.8,1.2,13c-18,13.7-37.3,25.5-57.7,35.3
				c13.8,7.1,30.1-1.2,42.5-10.9s24.9-21.4,40.3-21.7c5.2-0.1,10.9,1,15.2-2.1c2.2-1.6,3.7-4.1,5.4-6.3c8.8-11,23.7-13.3,37.2-14.9
				c7.1-0.8,15.1-1.3,20.5,3.6s3.5,17.2-3.7,16.8c4.6,4.3,7.1,10.4,6.9,16.7c-11.4-0.7-22.9,5.5-29,15.8C72.7,56,72.5,69,72.4,81.4
				c4.2,0.5,7.1-4.6,7.4-9.1c0.3-4.5-0.8-9.2,0.8-13.4c4.5-11.7,21.7-6.3,32.4-11.9c4.6-2.4,8-6.9,12.9-8.6c3.1-1,6.4-0.8,9.6-0.5
				l23.9,2c-7.4,5.7-8.9,18.3-3,25.7c8.9-18.5,28-29,46.9-34.6s38.8-7.4,57.2-14.8c6.3-2.5,13.7-5.5,19.2-1.6
				C280,2.3,289-9,300.3-11.5c3.9,5.2,5,12,3.1,18.2l7.2-2.6l7,8.6c-11.1,11.4-19.4,25.2-24.1,40.4c1.3,3.1,5.9,3.8,7.9,1.2
				c15-19,34.7-33.7,57.1-42.8c1.4-0.7,3-1,4.5-0.7c2.1,0.6,3.4,2.8,4.4,4.8c13.9,29.8,15.6,63.8,4.8,94.9c-2,5.6-4.4,12-1.8,17.4
				l12.5-6.8c-12.1,20.8,2.9,49.5-6.6,71.8c-3.1,7.4-8.9,13.8-9.4,21.9c-0.4,5.8,2,12.1-0.6,17.2c-1.5,2.9-4.2,4.7-6.1,7.3
				c-5.4,7.7-1.1,18.5,2.5,27.3c3.6,8.8,5.4,21.3-2.4,26.2c1.9,2.7,5.4,3.7,8.5,2.7c2,3.3,1.9,7.4-0.4,10.5c1.6,2.6,4.2,4.3,7.2,4.9
				c0.4-22.1-1.7-44.1-6-65.7c5.3-9.2,14.4-15.1,22-22.2c7.6-7.1,14.4-17.4,12.3-28c-1.4-6.6-3.9-16.8,2.4-17.3
				c1.9-0.2,3.7,1.1,5.2,2.3c12.4,9.9,22,22.9,27.7,37.7c5.8,14.9,9.6,33.7,23.9,39.4c-2.9-30.6-9.7-60.6-20.3-89.4
				c7.5-3.1,6.2-15.2,1.3-22c-4.9-6.8-12.1-12.4-13.2-20.8c-0.3-1.5-0.1-3,0.5-4.4c1.8-3.7,7.1-3.4,10.4-1c3.3,2.4,5.6,6,9,8
				c4.9,2.9,11.2,2,16.1,4.8c4.1,2.3,6.7,6.7,9,10.9l24.9,44.1c4.6,0.9,6.4-6.7,4-10.9c-2.4-4.2-6.8-7.1-8.3-11.7
				c-1.2-3.9,0-8.2-0.6-12.3c-0.9-6.1-5.5-10.7-9.9-14.8l-36.2-33.9c-4.5-4.2-9.1-8.6-11.5-14.4c-2.4-5.8-1.7-13.5,3-17.3
				c4.4,12,21.2,7.2,32.9,10.2c10.7,2.8,17.9,13.2,24.1,22.8c6.2-2.9,6.2-13,1.9-18.5c-4.3-5.5-11.2-8-17.4-11
				c-17.5-8.6-31.9-24.2-39.5-43c-1.2-3-2.3-6.3-1.5-9.4c1.8-7.3,11.7-8.3,17.8-4.4c6.1,3.8,10.1,10.6,15.9,14.8
				c1.2,1,2.6,1.6,4.1,1.7c4.6,0,5.9-7.3,3.2-11.3c-2.7-4-7.3-5.8-10.7-9.1S467.1,5,470.8,2l19,12l-21.4-58.5
				c-4.6-12.6-9.5-25.7-18.8-35c-9.5-9.6-22.5-14.1-32.8-22.6c-10.9-9.1-18.1-22.1-26.1-34c-12-17.8-26.5-33.7-43-47.3
				c-8.8-7.2-19.8-14.1-30.6-11.2c-11.2,3-17.9,15.2-21.1,26.9c-3.2,11.7-4.5,24.4-10.6,34.7c5.8,9.5,1.4,24.1-8.5,28.3
				c-8.9,3.7-18.8-0.5-28.2-2.6c-13.3-3-27.2-1.8-39.9,3.5c-20.2,8.4-35.4,26-49.9,43c13.3-7.3,22.8-20.6,35.6-28.8
				c19.4-12.4,43.7-11.4,66.3-10c5.5,0.3,11.3,0.8,15.9,4c4.6,3.2,7.2,10.3,4.1,15.1c-1.8,2.7-4.9,4-7.8,5.2l-32,12.7
				c2.6,2.1,4.2,5.2,4.3,8.5c-9.8,1.4-19.1,5.4-26.9,11.6l29.8,3.1c4.7,0.5,9.5,1,14.1-0.2c8.9-2.2,16.4-10.3,25.5-9.4
				c0.1,3.4-1.6,6.6-3.3,9.5C279.2-31,274-22,266.3-16s-18.7,8.5-27,3.4c-3.8-2.4-6.7-6.1-10.8-7.9c-8.1-3.5-17.3,2.3-22.9,9.5
				s-9.8,15.8-17,21.1c-7.2,5.3-19.3,4.8-22.6-3.8c-2-5.3,0.1-11.3,0.6-17s-2.4-13.1-7.8-12.7c1,10.4-2.4,22.4-11.4,26.6
				c-9,4.2-21.8-5.8-17.7-15.3c1.5-3.5,4.8-6.2,5-10c0.2-4.3-4.1-7.5-8.2-7.5c-4,0.1-7.6,2.6-10.7,5.4c-7.8-4.8-7.1-17.7-1.3-25
				c5.8-7.2,14.8-10.6,22.9-14.7s16.6-10,18.8-19.2c0.7-2.8,0.6-6.3-1.6-8.1c3.7,1.3,7.5-2.6,8.4-6.7c1-4,0.3-8.4,1.1-12.5
				c2.8-14.1,19.8-18.1,33.4-19l5.4-0.4c-10.7-2.6-16.4-18-10.2-27.6l45.2,18.1c3.5,1.4,7.7,2.8,10.9,0.6c2-1.4,3.1-3.8,4.3-6.1
				c7.5-14.4,23.3-23.5,38.9-22.1c-6.7-5.3-15.8,0.5-23.1,4.8c-17.3,10.2-38.4,11.8-57.1,4.2c-9.8-4.1-21.2-10.5-30-4.3
				c-3.8,2.7-6,7.2-8.1,11.5L162.5-127c-2.4,5-4.9,10.1-8.9,13.7C135.3-96.5,100.6-121.1,84.6-101.8z M395.8,196.5
				c-0.4,1.9-1.1,3.7-2.1,5.4c-3.2,5.7-7.5,10.8-12.6,14.9l1.5-1.5c-4.7-5.2-3.3-13.9-0.2-20.2c3.2-6.4,7.9-12.1,9.2-19.2
				c1.1-5.9,0.3-13.3,5.1-16.5c1.8,8.8-2.8,17.9-1.9,26.8C395.2,189.5,396.4,193,395.8,196.5L395.8,196.5z M421.1,135.1
				c0.9-0.6,1.9-0.9,2.9-0.9c1.3,0.3,2.4,1,3.3,2c2.8,2.6,5.6,5.4,7.1,8.9c1.5,3.6,1.4,8.3-1.3,11c-1.5,1.5-3.8,2.3-4.8,4.3
				c-1.5,2.8,0.2,6.2,1.8,8.8l14.3,23.3c1.3,2.1,2.3,5.6,0.1,6.6c-7.2-9.5-14.1-19.1-20.7-29c-1.2-0.1-2.4,0.3-3.2,1.1
				c-2.8-0.8-2.4-5.4-4.4-7.7c-2.4-2.9-7.3-1-10.4-3c-2.6-1.7-3.2-5.7-2.1-8.7c1.1-3,3.5-5.3,5.8-7.5
				C413.1,141,416.8,137.5,421.1,135.1L421.1,135.1z M437.2,38.3c1.5,2.5,3.9,4.4,5.7,6.7c1.5,2.1,2.8,4.4,3.8,6.8L451,61
				c-8.1-2.8-15.4-7.5-21.4-13.7l3,1.3l-4.3-2.1c-0.2,4.8,3.5,9,3.4,13.7c-0.1,3.9-2.6,7.1-4.2,10.6c-2,4.4-2.5,9.2-1.6,13.9
				c0.5,2.5,1.4,4.9,1.5,7.4c0.1,2.5-0.9,5.4-3.1,6.4c-4-1.1-6.2-6-6.2-10.4c0-4.4,1.5-8.7,2.3-13s0.7-9.3-2.1-12.6
				c-2.1-2.4-5.2-3.5-7.6-5.6c-2.8-2.4-4.3-6-5.7-9.5c-0.7-1.7-1.4-3.5-1-5.3c0.5-1.6,1.4-3.1,2.7-4.2c3.3-3.6,7.8-7.4,12.3-5.7
				c2.1,0.8,3.9,2.7,6.1,2.3c3.5-0.6,3.4-6.1,2.3-9.6c-1.1-3.6-1.7-8.8,1.7-10C435.8,19.6,432.9,31.1,437.2,38.3z M441.3-83.4
				c0.9-0.1,1.7,0.3,2.2,1c6.5,6.4,8.4,16.2,12.5,24.5c2.6,5.2,6.2,10,8.3,15.5c2.1,5.5,2.5,12.3-1.1,16.9l2-1.1
				c-4.8,5.4-1.3,14.9-4.9,21.3c-2.2,3.8-6.6,5.6-10.8,4.4c-4.2-1.6-6.8-5.6-6.7-10c0.2-4.9,3.9-9.5,2.8-14.3
				c-0.9-3.8-4.3-6.1-6.9-8.9c-5.5-6-7.3-15-6.4-23.3s4.1-16.1,7.2-23.8C440-82.2,440.5-83.2,441.3-83.4z M366.1-24.2
				c3-1.8,6.8-3.3,9.9-1.6c2.1,1.2,3.3,3.5,4.5,5.7c3.6,6.5,8.4,12.7,14.9,15.7c6.5,3.1,15,2.3,19.8-3.4
				c-0.2,15.3-5.6,30.1-15.2,42.1c-2,2.5-4.3,4.9-5.3,8.1c-3.3,10,7.5,19.4,7.4,30c0,4.7-2.2,9.1-1.9,13.8
				c0.7,8.9,10,14.2,12.7,22.7c2.3,7.1-0.6,15.1-5.4,20.6c-4.1,4.6-9.4,7.8-14.7,10.6c-0.1,0.5-0.2,1-0.4,1.5l-2.6,0.1l3-1.6
				c2.2-10.1,0.2-20.7-5.7-29.2c-1.2-1.6-2.5-3.4-2.6-5.4c-0.2-5.1,6.9-6.7,8.9-11.2c1-2.3,0.6-5,0.2-7.6l-10-58.4
				c-1.1-6.2-2.2-12.5-5.2-17.9C372-1,356.7-5.5,345.7,0.8C349.6-9.6,356.8-18.4,366.1-24.2z M216-8.8c2-0.9,4.1-1.2,6.3-1
				c6.5,0.2,14.3,2.2,16,8.9c-0.9,4-6.4,3.4-10.2,4.2s-6.9,3.8-10.1,6.3c-3.1,2.5-7.2,4.7-11,3.4l-2.7,1.6
				c2.1-5.3,4.2-10.5,6.4-15.7C211.8-4,213.3-7.3,216-8.8z"/>
			<path class="st2" d="M336.5,223.6c4.4,1.1,9.3-2.5,9.8-7.2c0.2-2.2-0.3-4.6,0.2-6.7c1-3.5,4.5-5.3,7.2-7.6c2.7-2.3,4.6-7,2-9.3
				c-5.1,3.7-10.1,7.6-13.7,12.9s-5.5,12.1-3.8,18.4"/>
			<path class="st2" d="M294.3,325.5c4.7-0.4,8.6-4.3,11.2-8.5c2.6-4.2,4.5-9,7.6-12.8c1.2-1.5,2.6-2.9,3.4-4.7
				c0.7-1.8,0.5-4.2-1.1-5.3c-6.2,4.4-11.8,9.6-16.6,15.5c-1.9,2.3-3.7,4.7-4.3,7.6s0.1,6.4,2.4,8"/>
			<path class="st2" d="M346.9,265.4c3.1-5.3,7.5-8.5,9.7-7c2.2,1.5,1.5,7-1.7,12.3c-3.1,5.3-7.5,8.5-9.7,7
				C343,276.2,343.7,270.7,346.9,265.4z"/>
			<path class="st2" d="M352.1,142.5c1.6-1.5,4.2-1.4,5.7,0.2c0.1,0.1,0.1,0.1,0.1,0.2c1.5,1.8,1.3,4.5-0.4,6.1
				c-1.6,1.5-4.2,1.4-5.7-0.2c-0.1-0.1-0.1-0.1-0.1-0.2C350.3,146.8,350.4,144.1,352.1,142.5z"/>
			<path class="st2" d="M319.7,154.1c1.1-1.1,2.9-1,3.9,0.1c0.1,0.1,0.1,0.1,0.1,0.2c1,1.3,0.9,3.1-0.2,4.3c-1.1,1.1-2.9,1-3.9-0.1
				c-0.1-0.1-0.1-0.1-0.1-0.2C318.4,157.1,318.6,155.3,319.7,154.1z"/>
			<path class="st2" d="M143,71.6c0.8-0.8,3.8,1.4,6.6,4.8c2.9,3.4,4.5,6.8,3.7,7.6c-0.8,0.8-3.8-1.4-6.6-4.8
				C143.8,75.8,142.1,72.4,143,71.6z"/>
			<path class="st2" d="M404.1,238.5c0.6-0.6,2.3,0.4,3.7,2.1s2.1,3.6,1.5,4.1c-0.6,0.6-2.3-0.4-3.7-2.1
				C404.2,240.9,403.5,239.1,404.1,238.5z"/>
			<path class="st2" d="M407.3,263c-1.3-3.6-0.5-7.2,1.7-8.1c2.2-0.9,5.1,1.3,6.4,4.8c1.3,3.6,0.5,7.2-1.7,8.1
				C411.5,268.7,408.6,266.6,407.3,263z"/>
			<path class="st2" d="M417.5,220.9c1.6-1.5,4.2-1.4,5.7,0.2c0.1,0.1,0.1,0.1,0.1,0.2c1.5,1.8,1.3,4.5-0.4,6.1
				c-1.6,1.5-4.2,1.4-5.7-0.2c-0.1-0.1-0.1-0.1-0.1-0.2C415.6,225.2,415.8,222.5,417.5,220.9z"/>
			<path class="st2" d="M341.6,161.8c0.3-0.3,0.7-0.2,1,0.1c0,0,0,0,0,0c0.3,0.3,0.2,0.8-0.1,1.1c-0.3,0.3-0.7,0.2-1-0.1
				c0,0,0,0,0,0C341.3,162.6,341.3,162.1,341.6,161.8z"/>
			<path class="st2" d="M353.7,330.6c2.3-2.1,5.8-2,8,0.2c0.1,0.1,0.2,0.2,0.3,0.3c2.1,2.6,1.9,6.4-0.5,8.8c-2.3,2.1-5.8,2-8-0.2
				c-0.1-0.1-0.2-0.2-0.3-0.3C351,336.8,351.3,333,353.7,330.6z"/>
			<g>
				<path class="st2" d="M382.3,187.6l-0.2,0.1l0.3,0.2L382.3,187.6z"/>
				<path class="st2" d="M399.6,291.3l1.2-0.5C400.3,290.7,399.9,290.9,399.6,291.3z"/>
				<path class="st2" d="M397.8,301.5c6.9-0.9,13.9,1.1,19.3,5.4c5.8,4.5,12,11.7,18.4,7.9c-8.3-12.6-18.4-23.8-30-33.2
					c1.8-4.8-1.8-10-5.2-11c-3.4-1-7.4-0.4-10-4c-0.5-0.7-0.9-1.5-1-2.3c-0.3-2.3,1.1-4.5,3.3-5.2c1.7-0.4,3.5,0.3,5.2-0.3
					c2.4-0.8,4.4-4.1,6.8-5c2-0.7,4,0.2,5.9,1.1l20,9.7c1.8-1.6,0.5-6-1.4-7c-1.9-1-4.2-0.3-5.9-1.8c-1.4-1.3-2.1-3.9-3.4-5.6
					c-1.9-2.5-4.7-2.6-7.2-2.5l-21.2,0.2c-2.6,0-5.4,0-7.7-1.7c-2.3-1.7-4.1-5.6-3.4-9.6c4.6,3.7,9.2-6.1,14-10
					c4.4-3.5,9.6-1.8,14.2,0c1.4-4.2-1.2-9-4.1-9.6c-2.9-0.6-5.9,1.3-8.8,2.6c-8.1,3.8-17.6,2.8-24.7-2.6c-1.4-0.9-2.5-2.2-3-3.8
					c-1.3-4.2,1.9-9.2,5-10.1c3.1-0.9,6.2,0.5,9.3-0.2c0.7-0.1,1.4-0.4,1.9-1c1.6-2.1,0.2-6.1-1.8-6.8c-1.9-0.7-4,0.5-6,0.5
					c-2,0-4.3-2.2-3.8-5.2l9.6-2.8l-22.5-18.1c-4.8-3.9-9.9-7.9-15.5-8.1c-1.4,0-2.9,0.1-4.2,0.4l-0.1,6.3c0.1,1.2-0.2,2.4-0.9,3.3
					c-1,1-2.8,0.9-4.1,1.5c-2.9,1.4-2.5,5.8-0.5,8.3c2,2.5,5.1,4,7.1,6.4c1.8,2.1,2.7,4.8,2.7,7.6c0,2.5-1.1,4.9-3,6.5
					c-2,1.6-4.8,1.7-6.9,0.3c-1.2-0.9-2.9-2.5-4-1.4c-1.1,1.1,0.7,2.6,1.3,4c1,2.3-1.3,4.9-3.7,5.3c-2.5,0.3-4.9-0.8-7.2-1.9
					c-2.3-1-5.4-1.8-7.1,0.1c-1,1.2-0.9,3-0.6,4.6c0.9,6.2,3,12.1,3.5,18.4s-0.6,13-5.1,17.3c-0.2,0.2-0.4,0.3-0.6,0.4
					c-0.3,0-0.5-0.1-0.7-0.3c-5.2-3.5-10.9-7.5-12.2-13.6c-1-4.7,0.8-9.6,1.3-14.4c0.4-3.5,0-6.9-1-10.3c-0.4-1.2-1.5-2.5-2.5-1.8
					c-1.5,4.2-2.7,8.6-3.4,13.1c-8.7-6.5-11.5-19-8.4-29.4c0.7-2.3,1.6-4.5,1.7-6.9c0-2.4-0.5-4.8-1.5-7c-1.6-4.1-3.8-8-5.2-12.2
					c-0.8-2.3-1.3-4.7-1.4-7.2c-3.8,1.1-7,3.9-8.7,7.5c-3.1,6.5-2.3,15.3-0.4,22.3c1.9,7,4.8,13.6,5.3,21.2
					c4.5,1.9,6.7,10.8,4.3,17.3c-2.1,5.8-6.6,8.2-10.4,11.5c-5.3,4.5-9.9,11.5-12.9,19.6c-4.8,13-5.6,28.3-6.2,42.9
					c2.7-9.4,2.6-20,4.9-29.7c3.5-14.6,12.2-25.1,20.3-34.6c2-2.3,4.1-4.7,6.5-5.3c2.4-0.5,5.2,1.6,5.3,5.3c-0.1,2.1-0.5,4.1-1.4,6
					l-7.8,20.4c1.5-0.1,3,0.7,3.7,2.1c-3.2,5.4-5.3,11.4-6.3,17.6l11.1-12c1.9-1.9,3.5-4.1,4.8-6.4c2.5-5,3-12.3,6.4-15.9
					c0.9,1.6,1.1,3.8,1.3,6c0.5,6.4,1,12.9-0.1,19.2c-1.1,6.3-4.3,12.5-8.5,13.7c-1.9,0.6-3.9,0.1-5.7,1.1c-3.7,2-5.4,8.9-5.5,14.8
					c-0.1,5.9,0.7,11.9-0.5,17.7c-1.1,5.8-5.4,11-8.8,8.4c-2.1-1.6-2.9-5.4-4.2-8.3c-1.3-2.9-4.2-5.1-6-2.5c3,4.5,4.9,11.7,2.9,17.8
					c-2,6.1-9.1,7.1-10.1,0.7c-0.4-2.3,0.1-5.1-0.9-7c-1-2.1-3.4-1.7-4.7,0.1c-1.4,1.9-2,4.7-2.3,7.4c-3.9,1.2-7-5.2-6.9-11.3
					c0.1-6.1,2.4-11.7,4.1-17.3s3.2-12.2,1.6-17.6c-0.5-1.7-1.4-3.2-2.6-3.1c1.6-1.1,1.9-4.6,1.2-7c-0.7-2.4-2-4.1-2.8-6.4
					c-2.7-7.9,2.2-17.5,6.7-24.1l1.8-2.6c-4.4,3.6-10.3-1.2-10.6-8.5l20.4-11.8c1.6-0.9,3.4-2.1,3.9-4.6c0.2-1.6,0.2-3.2-0.1-4.8
					c-1.1-10.2,2-21.6,7.7-28c-3.7,0.5-5.3,7.3-6.7,12.7c-3.3,12.6-10.4,23-18.7,27.7c-4.4,2.5-10,4.6-11.5,11.4
					c-0.5,3-0.4,6.1,0.2,9.1l2.2,16.3c0.6,3.5,0.8,7,0.5,10.5c-2,16.2-20.4,20.2-20.9,36.5c6.4-2.8,11.6-14.4,17.9-12.3
					c5.7,1.9,6.8,13.9,4.8,22.6s-6,16.7-6.5,25.8c-0.2,3.8,0.1,8-1.2,11.4c-2.2,5.3-7.1,5.3-11,4.6c1,13.2-0.7,26.8-3.2,39.9
					c-2.7,14.5-6.3,28.8-10.8,42.8c6.6-2.8,10.1-14.1,11.9-24.3c1.8-10.1,3.1-21.4,8.3-28.5c1.8-2.4,4-4.4,4.7-7.8
					c0.2-1.8,0.3-3.6,0.3-5.4c0.2-9.2,4.8-17,9-23.8c2.2-3.6,4.9-7.4,8-7.5c3.1-0.1,5.6,6.6,3.1,9.6c2.6-0.1,5.1,1.8,6.7,4.8
					c-4.1,4.8-6.5,13-5.9,20.5c0.6,7.7,3.8,14,7,19.9c1.6-1.6,1.3-5.4,0.2-7.7c-1-2.3-2.6-4-3.2-6.7c-1.5-7.6,5.9-12.7,8.1-20.2
					c1-3.2,1-6.9,2.2-9.9c0.8-1.7,1.9-3.2,3.2-4.6l8.8-9.8c-1.1,6,1.6,12.7,5.6,13.6c-1.7-12.8,2.2-26.4,7.3-37.6s11.5-21,16-32.8
					c1.5-4,3.3-8.8,6.2-9.4c-3-6-2.8-15.4,0.5-21.6c2.6,0.6,4.9,3.5,5.7,7.2l1.8-4.5l4.6,0.9c-0.9,10-0.3,20.2,2,30
					c1.2,0.9,3-0.8,3.1-3c0.3-15.7,3.3-31.3,8.7-46c0.3-0.9,0.7-1.7,1.4-2.4c0.9-0.7,1.9-0.2,2.8,0.3c12.3,7.6,22,23.5,26.1,42.8
					c0.8,3.6,1.6,7.7,3.8,9l2.6-8.8c1.2,15.3,13.7,22.2,16.2,37c0.8,4.9,0.5,10.6,2.4,14.6c1.4,2.9,3.8,4.8,4.2,8.4
					c0.2,2-0.3,4.1-0.2,6.2c0.1,6.1,4.4,9.3,7.9,11.8c3.5,2.5,7.3,7.7,5.9,13.5c1.4,0.4,2.9-0.7,3.6-2.5c1.5,0.5,2.6,2.8,2.6,5.2
					c1.3,0.5,2.8,0.1,3.8-0.9c-5.3-10.2-11.6-19.7-19-28.5c-0.6-6.7,1.1-13.6,1.9-20.5c0.8-6.8,0.5-14.8-3-18.8
					c-2.2-2.5-5.7-6.2-3.6-9.3C395.9,301.9,396.8,301.5,397.8,301.5z M288.8,300.4c-1.1,2.1-1.4,4.9-1.8,7.5
					c-0.4,2.6-1.3,5.4-2.9,6.5l-0.5,2c-0.6-3.4-1.3-6.9-1.9-10.3c-0.5-2-0.5-4.1-0.1-6.1c0.4-1.2,1.1-2.3,1.9-3.3
					c2.3-2.8,5.5-5.4,7.8-3C292,296.1,290,298.3,288.8,300.4L288.8,300.4z M370.2,222.8c1.2,0.5,2.5,0.3,3.7,0.6
					c1.1,0.3,2.1,0.9,3.1,1.5l3.8,2.5c-3.2,2.2-7,3.3-10.9,3.1l1.4-0.7l-2,0.9c1.1,2.4,3.5,2.7,4.7,5c1,1.9,0.9,4.6,1.3,6.9
					c0.3,2.7,1.3,5.2,3,7.3c0.9,0.9,1.7,1.8,2.4,2.8c0.8,1.3,1,2.9,0.6,4.4c-1.7,1.3-3.7-0.1-4.8-2.2s-1.7-4.8-2.5-7.2
					c-0.8-2.4-2.2-4.7-4-5c-1.3-0.2-2.7,0.7-4.1,0.8c-1.6,0.1-3-0.9-4.4-1.9c-0.8-0.5-1.4-1.2-1.7-2c-0.3-1-0.3-2.1-0.2-3.2
					c0.2-3.2,0.8-7,2.8-8.2c0.9-0.6,2-0.5,2.7-1.6c1-1.9-0.4-4.4-1.7-5.6c-1.3-1.2-2.8-3.4-2-5.5
					C364.9,214.6,366.9,221.3,370.2,222.8L370.2,222.8z M343.9,179.6c-1.8-4.3-2.7-9.5-3.6-14.6c-0.2-0.6-0.1-1.2,0.1-1.8
					c0.2-0.4,0.6-0.6,1-0.5c3.9,0.1,7.1,3.9,10.6,6c2.3,1.3,4.7,1.9,6.9,3.6c2.6,2.1,4.1,5.2,4,8.5l0.4-1.4
					c-0.3,4.7,3.4,7.6,3.8,12.3c0.2,2.8-0.9,5.8-2.6,7c-1.7,1.2-3.8,0.4-4.9-1.8c-1.2-2.4-1.1-6.3-2.7-8c-1.3-1.4-3.1-0.9-4.7-1.1
					C348.6,187.4,345.7,183.9,343.9,179.6L343.9,179.6z M383.4,279.4c-0.3,4-1.1,7.9-2.3,11.7c0.1,0.3,0.2,0.6,0.3,0.9l-0.9,1.2
					l0.6-2.1c-1.8-5.7-5.4-10-9.5-11.3c-0.9-0.1-1.8-0.6-2.3-1.4c-1.4-2.3,0.6-6.2,0.2-9.3c-0.3-1.4-0.9-2.7-1.9-3.7l-18.5-23.2
					c-2-2.5-4-5-6.4-6.1c-5.1-2.5-11.6,2.3-13.8,10.2c-1.3-7-1.1-14.1,0.6-21c0.6-2.2,1.5-4.6,3-5.2c1-0.4,2,0.2,3,0.7
					c2.9,1.5,6.2,2.2,9.2,0.7c3-1.5,5.8-5.7,6-10.5c3.9,7.4,5.9,17,5.6,26.8c-0.2,2.1-0.1,4.2,0.2,6.2c1.4,6.2,7.6,5.8,10.3,10.9
					c1.2,2.2,1.6,5.3,2.9,7.4c2.5,3.9,7.1,2.3,10.2,5C382.6,269.5,383.7,274.6,383.4,279.4L383.4,279.4z M396.6,316.4
					c0.4,1.1,0.6,2.3,0.6,3.5c0.4,4.2,0.2,8.5-0.5,12.7l0.1-1.4c-3-0.3-4.7-5.1-5.3-9.5s-0.4-9.3-1.8-13.3
					c-1.1-3.3-3.3-6.4-2.5-10.1c2.9,3.4,3.6,9.7,6.2,13.6C394.6,313.4,395.9,314.5,396.6,316.4L396.6,316.4z M390.8,294.9
					c-1.3,0.4-2.6-1.3-2.9-3.2c-0.3-2-0.3-4.1,0.1-6.1c0.3-3.3,0.8-6.5,1.6-9.7c0.1-0.6,0.4-1.2,0.8-1.7c0.4-0.4,1-0.6,1.6-0.5
					c1.7-0.2,3.3,0.2,4.8,1c1.7,1.4,2.6,3.6,2.4,5.8c-0.1,1.4-0.7,2.8-0.6,4.2c0.2,1.6,1.4,2.9,2.9,3.4l10.9,4.6
					c1,0.4,2.2,1.6,1.7,3.1c-4.9-1.2-9.8-2.7-14.6-4.4c-0.5,0.6-0.8,1.3-0.8,2c-1.2,0.9-2.2-1.5-3.5-1.7
					C393.6,291.4,392.4,294.5,390.8,294.9L390.8,294.9z"/>
				<path class="st2" d="M309.1,161.1c5.9,2,11.7,5,17.8,4.4c4.3-0.4,8.6-2.7,12.9-3.6l0.1-6.8c0.3-1.1-0.4-2.3-1.5-2.5
					c-0.2,0-0.4-0.1-0.6-0.1l-4.3-0.9c-1.4-1.8-3.2-3.3-5.3-4.3c-9.2-5-19.5-7.1-29.9-6.3c-8.3,0.7-17.5,4.3-20.3,12.2
					c-0.6,1.9-0.9,3.9-0.8,5.8c1.6-0.5,3.2-0.8,4.8-1C291.2,157,300.5,158,309.1,161.1z"/>
			</g>
		</g>
	</g>
	<rect x="0" y="-0.6" class="st6" width="419.5" height="595.9"/>
</g>
<ellipse class="st2" cx="215.4" cy="344" rx="5.6" ry="10"/>
<circle class="st2" cx="165.1" cy="308" r="4.7"/>
<circle class="st2" cx="215.4" cy="247.1" r="5.6"/>
<ellipse class="st2" cx="315.6" cy="99.4" rx="10.7" ry="8.1"/>
<circle class="st2" cx="318" cy="67.2" r="2.4"/>
<ellipse class="st2" cx="365.2" cy="82.3" rx="1.7" ry="5.6"/>
<circle class="st2" cx="315.6" cy="134.9" r="4.7"/>
<ellipse class="st2" cx="224" cy="444.2" rx="3" ry="9"/>
<circle class="st2" cx="202.1" cy="468.9" r="4.3"/>
<ellipse class="st2" cx="95.5" cy="86" rx="5.7" ry="8.2"/>
<circle class="st2" cx="68.6" cy="95.3" r="4.1"/>
<circle class="st2" cx="75.4" cy="10.6" r="6.8"/>
<circle class="st2" cx="101.2" cy="17.4" r="6.8"/>
<circle class="st2" cx="24.6" cy="53.5" r="2"/>
<circle class="st2" cx="35.7" cy="142.7" r="3.1"/>
<circle class="st2" cx="135.8" cy="200" r="2"/>
</svg>
