<svg xmlns="http://www.w3.org/2000/svg" xmlns:xlink="http://www.w3.org/1999/xlink" width="148mm" height="210mm" viewBox="0 0 419.53 595.28">
  <defs>
    <style>
      .cls-1, .cls-5 {
        fill: none;
      }

      .cls-2 {
        clip-path: url(#clip-path);
      }

      .cls-3, .cls-4 {
        fill: #fff;
      }

      .cls-3, .cls-5 {
        stroke: #141412;
        stroke-miterlimit: 10;
      }

      .cls-6 {
        clip-path: url(#clip-path-2);
      }

      .cls-7 {
        clip-path: url(#clip-path-3);
      }
    </style>
    <clipPath id="clip-path">
      <rect class="cls-1" y="-615.28" width="419.53" height="593.88"/>
    </clipPath>
    <clipPath id="clip-path-2">
      <rect class="cls-1" x="-439.53" y="0.96" width="419.53" height="594.32"/>
    </clipPath>
    <clipPath id="clip-path-3">
      <rect class="cls-1" y="0.96" width="419.16" height="594.2"/>
    </clipPath>
  </defs>
  <title>Plan de travail 14</title>
  <g id="Calque_2" data-name="Calque 2">
    <g class="cls-2">
      <path class="cls-3" d="M276.88-7.26A4.09,4.09,0,0,0,277.39-1a5.46,5.46,0,0,0,7-.72A4.09,4.09,0,0,0,283.91-8,5.46,5.46,0,0,0,276.88-7.26Z"/>
    </g>
    <g>
      <rect class="cls-4" x="-439.53" y="-615.87" width="419.53" height="595.95"/>
      <rect class="cls-5" x="-439.53" y="-615.87" width="419.53" height="595.95"/>
    </g>
    <g class="cls-6">
      <path class="cls-3" d="M-82.88,16.66c-4.1-2.4-9-4.22-13.55-3s-8.21,6.6-6.11,10.86c-9.71-.29-17.22,12-12.51,20.53a23.07,23.07,0,0,0-7.1,23.31A23.07,23.07,0,0,0-103.91,84.5c-2.91,7.44-5.68,16.37-1.11,22.92,2.12,3,5.51,4.95,8.95,6.33A45.62,45.62,0,0,0-69.49,116c1.34,6.25,8.76,8.72,15,10.07,4.1.88,8.54,1.73,12.34,0s6-7.34,3-10.26A74.35,74.35,0,0,0,1.36,126.1a6.81,6.81,0,0,0,4.25-1.17,6.58,6.58,0,0,0,1.81-4.08,41.25,41.25,0,0,0-1.89-20.67c11.36,3.32,24.93.34,32.17-9s5.76-25-4.29-31.2c5.94,5.62,16.85,1.43,19.89-6.16s.12-16.38-4.6-23.06A47.91,47.91,0,0,0,7.85,10.9c2-2.6,1.37-6.53-.66-9.09s-5.16-4-8.27-5A45.53,45.53,0,0,0-21.62-5c-1.32.19-2.78.53-3.54,1.62s-.08,3.08,1.25,2.94c2.7-3.12-1.62-7.45-5.43-9a78.77,78.77,0,0,0-26.14-5.8c-5.29-.25-12,1.08-13.19,6.23-.4,1.66-.1,3.47-.71,5.07C-70.25-1.66-72.65-.45-74.63,1a19.85,19.85,0,0,0-8.24,16.12"/>
      <path class="cls-3" d="M15.24,436.67c-3-9.5-10.42-18.27-20.25-20-.88-14.47-18.22-25.24-31.58-19.63-4.11-3.58-8.82-7-14.26-7.35s-11.42,4-10.82,9.44a17.09,17.09,0,0,0-21.24,6.67c-3.32,5.72-3.34,13.55-8.56,17.59l.69-.7c-7.78-1.25-15.68,6.25-14.83,14.09-4.25-3.54-11.21-1.18-14.39,3.35s-3.61,10.38-3.94,15.91c-.52,8.83-1,17.78.7,26.45a40.62,40.62,0,0,0,5.64,14.18,25.73,25.73,0,0,0-8.13-2c-3.43-.39-7.14-.58-10.1,1.2-4.8,2.89-5.51,9.45-5.54,15.05,0,4.65.12,9.61,2.73,13.46s8.61,5.74,12,2.56a18.79,18.79,0,0,0,23.52,2.4c1.8,3,5.8,4,9.34,3.8s7-1.34,10.53-1.26c3.77.09,7.41,1.54,11.22,1.26a8.66,8.66,0,0,0,7.4-6.77v-.08a3.74,3.74,0,0,1,2.79-3c6.82-1.69,4.91,1.77,12.93,2a3.36,3.36,0,0,0,2.43-.92c1.49-.53,1.4-5.23,1.47-8.64.05-2.73-.09-5.21-2.1-7a21,21,0,0,0,8.87,3.23c4,.28,8.42-1.93,9.27-5.82l14-.12c12-.11,21.15-11.46,17.91-23q-.11-.41-.2-.82c-.66-3.23-.17-7.2-.66-10.41a4.5,4.5,0,0,1,4.34-5.26h.08a11.32,11.32,0,0,0,11.18-11.31A60.11,60.11,0,0,0,15.24,436.67Z"/>
    </g>
    <g class="cls-7">
      <rect class="cls-3" x="203.5" y="280.3" width="6.27" height="6.27"/>
      <polygon class="cls-3" points="141.79 203.96 170.51 239.96 173.03 226.19 156.54 195.3 141.79 203.96"/>
      <polygon class="cls-3" points="228.29 226.64 271.93 181.71 312.61 181.71 277.71 226.64 259.33 223.58 228.29 226.64"/>
      <polygon class="cls-3" points="232.23 318.42 253.82 355.87 265.26 337.15 253.82 321.83 232.23 318.42"/>
      <polygon class="cls-3" points="188.46 302.17 141.48 349.2 160.88 353.63 180.29 327.9 188.46 302.17"/>
      <polygon class="cls-3" points="190.98 343.52 188.46 368.23 202.42 359.89 196.29 343.52 190.98 343.52"/>
      <polygon class="cls-3" points="165.85 277.03 137.93 254.22 151.89 240.94 167.01 266.14 165.85 277.03"/>
      <polygon class="cls-3" points="245.79 277.01 267.66 257.74 275.6 269.93 258.88 282.37 245.79 277.01"/>
      <polygon class="cls-3" points="225.86 371.85 220.59 391.07 227.99 394.95 233.42 390.3 229.35 374.29 225.86 371.85"/>
      <polygon class="cls-3" points="0 0.96 44.67 100.15 68.16 85.87 44.67 0.96 0 0.96"/>
      <polygon class="cls-3" points="107.99 423.7 151.63 378.76 155.03 395.11 157.41 423.7 139.03 420.64 107.99 423.7"/>
      <polygon class="cls-3" points="253 461.96 274.59 499.41 286.02 480.69 274.59 465.37 253 461.96"/>
      <polygon class="cls-3" points="29.68 462.01 -13.9 488.93 12.01 507.21 27.52 487.19 29.68 462.01"/>
      <polygon class="cls-3" points="197.72 461.96 192.67 511.38 220.59 494.7 208.33 461.96 197.72 461.96"/>
      <polygon class="cls-3" points="74.48 410.23 62.17 423.21 56.12 415.82 69.13 409.26 74.48 410.23"/>
      <polygon class="cls-3" points="378.89 238.21 398.04 227.23 402.52 237.12 388.18 243.86 378.89 238.21"/>
      <polygon class="cls-3" points="321.86 395.58 312.61 429.34 325.61 436.15 335.14 427.98 327.99 399.87 321.86 395.58"/>
      <polygon class="cls-3" points="291.58 595.28 286.02 524.96 302.59 524.96 323.87 595.28 291.58 595.28"/>
      <polygon class="cls-3" points="419.16 595.15 342.04 451.87 335.14 486.67 375.54 595.28 419.16 595.15"/>
      <polygon class="cls-3" points="302.59 524.96 312.61 514.26 348 595.28 323.87 595.28 302.59 524.96"/>
      <polygon class="cls-3" points="322.23 536.28 340.01 537.87 370.7 582.27 375.54 595.28 348 595.28 322.23 536.28"/>
      <polygon class="cls-3" points="431.35 509.19 377.15 464.04 388.72 452.18 453.91 486.08 431.35 509.19"/>
      <polygon class="cls-3" points="438.12 557.71 441.81 540.23 408.34 497.88 397.32 489.44 389.25 515.78 438.12 557.71"/>
      <polygon class="cls-3" points="63.83 0.96 85.58 42.37 63.83 36.26 51.96 27.32 44.67 0.96 63.83 0.96"/>
      <polygon class="cls-3" points="0 100.15 85.58 151.12 65.12 158.6 42.79 149.76 42.79 162 25.09 162 0 156.56 0 100.15"/>
      <polygon class="cls-3" points="10.38 158.81 16.25 172.87 10.38 188.51 0 234.05 0 156.56 10.38 158.81"/>
      <polygon class="cls-3" points="0 50.55 23.58 53.31 0 0.96 0 50.55"/>
      <polygon class="cls-3" points="55.48 276.93 47.48 319.41 68.35 312.64 69.65 293.57 55.48 276.93"/>
      <polygon class="cls-3" points="88.73 218.26 62.34 176.16 50.57 206.48 80.35 224.78 88.73 218.26"/>
      <polygon class="cls-3" points="23.75 349.52 67.91 326.7 73.82 342.18 35.28 379.69 23.75 349.52"/>
      <polygon class="cls-3" points="66.34 364.93 79.91 370.48 16.86 432.45 8.25 409.92 66.34 364.93"/>
      <polygon class="cls-3" points="204.08 127.13 207.62 69.7 197.22 77.51 198.12 105.43 204.08 127.13"/>
      <polygon class="cls-3" points="184.16 117.31 181.34 171.48 173.69 162.47 161.91 144.72 171.33 136.57 184.16 117.31"/>
      <polygon class="cls-3" points="230.39 76.03 231.56 58.19 240.94 60 235.13 73.36 230.39 76.03"/>
      <polygon class="cls-3" points="307.12 106.19 323.89 75.47 307.22 80.78 301.33 94.52 307.12 106.19"/>
      <polygon class="cls-3" points="245.99 81.23 234.66 120.94 226.2 113.91 229.5 67.51 245.99 81.23"/>
      <polygon class="cls-3" points="221.04 94.58 212.86 98.41 218.03 22.11 230.35 32.35 221.04 94.58"/>
      <polygon class="cls-3" points="71.69 486.67 -4.88 601.27 48.47 598.23 73.04 542.26 71.69 486.67"/>
      <polygon class="cls-3" points="204.29 410.12 208.94 476.44 225.01 464.71 218.34 433.18 204.29 410.12"/>
      <polygon class="cls-3" points="237.15 435.36 254.13 453.49 257 437.48 240.63 431.36 237.15 435.36"/>
      <polygon class="cls-3" points="281.41 427.65 292.46 444.25 300.24 441.21 300.29 434.06 285.55 426.63 281.41 427.65"/>
      <polygon class="cls-3" points="243.15 550.61 237.9 488.19 252.46 496.35 275.6 513.33 261.21 525.18 243.15 550.61"/>
      <polygon class="cls-3" points="210.69 519.4 214.54 559.51 204.99 559.23 208.59 545.1 210.69 519.4"/>
      <polygon class="cls-3" points="120.88 485.33 105.85 525.87 127.56 522.7 132.05 504.12 120.88 485.33"/>
      <polygon class="cls-3" points="136.88 526.94 160.45 483.18 174.06 492.61 163.42 545.34 136.88 526.94"/>
      <polygon class="cls-3" points="171.48 543.45 184.57 536.85 189.93 625.1 167.28 616.8 171.48 543.45"/>
      <polygon class="cls-3" points="343.21 344.13 307.27 315.35 307.84 329.33 330.73 355.82 343.21 344.13"/>
      <polygon class="cls-3" points="292.83 248.42 348.83 212.59 330.84 204.09 306.35 225.05 292.83 248.42"/>
      <polygon class="cls-3" points="317.76 370.04 367.51 401.11 378.23 419.86 338.35 389.39 317.76 370.04"/>
      <polygon class="cls-3" points="327.79 122.34 295.12 175.79 288.2 160.6 279.58 133.22 298.19 132.16 327.79 122.34"/>
      <polygon class="cls-3" points="363.44 128.1 372.59 112.73 380.13 118.61 368.87 127.87 363.44 128.1"/>
      <polygon class="cls-3" points="344.04 300.65 389.76 314.91 378.43 293.59 358.37 289.42 344.04 300.65"/>
      <polygon class="cls-3" points="426.29 176.15 388.25 208.13 379.07 194.34 408.4 149.26 426.29 176.15"/>
      <polygon class="cls-3" points="381.36 170.49 366.9 168.08 414.75 93.73 428.12 113.82 381.36 170.49"/>
      <polygon class="cls-3" points="391.73 -21.03 352.59 117.31 375.54 107.95 428.87 0.96 391.73 -21.03"/>
      <polygon class="cls-3" points="439.19 21.3 427.68 66.64 415.6 47.55 412.75 32.97 424.95 8.49 439.19 21.3"/>
      <polygon class="cls-3" points="372 -1.81 352.09 -14.74 350.02 42.64 372 -1.81"/>
      <polygon class="cls-3" points="155.74 62.83 146.87 13.95 124.68 37.73 145.55 65.78 155.74 62.83"/>
      <polygon class="cls-3" points="294.78 259.96 301.26 271.2 304.69 265.58 301.26 260.98 294.78 259.96"/>
      <polygon class="cls-3" points="410.3 325.44 396 321.22 399.38 330.38 409.72 328.57 410.3 325.44"/>
      <polygon class="cls-3" points="217.53 227 215.95 208.26 220.32 210.71 227.26 215.81 222.95 219.37 217.53 227"/>
    </g>
  </g>
</svg>
