<svg xmlns="http://www.w3.org/2000/svg" xmlns:xlink="http://www.w3.org/1999/xlink" width="148mm" height="210mm" viewBox="0 0 419.53 595.28">
  <defs>
    <style>
      .cls-1 {
        fill: none;
      }

      .cls-2 {
        clip-path: url(#clip-path);
      }

      .cls-3 {
        fill: #fff;
        stroke: #141412;
        stroke-miterlimit: 10;
      }

      .cls-4 {
        clip-path: url(#clip-path-2);
      }
    </style>
    <clipPath id="clip-path">
      <rect class="cls-1" width="417.15" height="591.04"/>
    </clipPath>
    <clipPath id="clip-path-2">
      <rect class="cls-1" x="439.53" width="419.53" height="595.28"/>
    </clipPath>
  </defs>
  <title>Plan de travail 18</title>
  <g id="Calque_2" data-name="Calque 2">
    <g class="cls-2">
      <path class="cls-3" d="M371.62,515.1c-3.19-17.37,3.3-36.15-3.31-52.52-1.84-4.55-4.61-8.67-6.67-13.13-4.07-8.83-5.2-18.68-6.37-28.33q-5.88-48.52-14.78-96.61c-2.91-15.73-6.07-31.49-6.67-47.47a150.3,150.3,0,0,1,21-82.1l89.85,136.94L391.32,227.5c-2.77-5.43-5.58-10.91-9.51-15.57-3.28-3.9-7.28-7.14-10.62-11-17.5-20.23-12.69-50.78-6.86-76.89,5.13,11.06,53.24,47,71.77,76.14,11.5-32-4-66.49-12.19-99.5q-2.21-9-3.68-18.11l16.19-35-9-43.63,2.36-9.43-16.9-6.29L261.89-8.69l-1.7,4.89c-16.52-.63-35.2-.47-48.85.89-3.11.31-6.43.7-8.84,2.69-2.8,2.32-3.73,6.26-6.24,8.88-4.1,4.28-10.92,3.86-16.81,3.21A641.08,641.08,0,0,0-3.29,18a35,35,0,0,1-5,18.06l51.44-1.9,0-15.45A725.81,725.81,0,0,1,148.28,30.19L138.09,37.6l76.61-4.13a34,34,0,0,1-21.39,23.25l21-5.27a65.06,65.06,0,0,1-33.69,26.23c-7.92,2.66-16.9,4.1-22.46,10.34-4.48,5-5.73,12.14-9.4,17.78-5.22,8-14.58,12.1-23.16,16.34A212.07,212.07,0,0,0,65.55,166.6l54.22-31c-11.7,16.6-24.29,34-42.84,42.22-8.64,3.85-18.09,5.47-27,8.72-21,7.7-37.55,23.94-53.4,39.73a228.32,228.32,0,0,0,60.91-28.53l-44,50.79c-4.59,5.3-9.23,10.67-12.27,17C-4.84,278-4.1,293.1-8.65,306.05-1.72,288.69,0,268.3,14,256.32c4.13-3.51,9.05-6,13.2-9.47,6.17-5.18,10.3-12.3,14.84-19A160.78,160.78,0,0,1,87.5,183.52c6.58-4.26,13.5-8.05,19.48-13.12,6.13-5.2,11.09-11.61,16-18L157,108.37c7.46-9.65,15.63-19.82,27.24-23.57l-11.58,26.72a95.15,95.15,0,0,1,36.48-34.26c2.4-1.27,5.56-2.37,7.63-.61,1.58,1.34,1.69,3.69,1.69,5.76v1c3-7.35,7.36,1,9,3.78,7.73,12.09,1.36,28.9-9.47,38.32s-25,13.78-38,19.91S162,157.2,158.38,171.09c10.55-8.79,36.72.8,47-11C194,176.8,139,231.15,95.46,241.51c2.46,6.39-2.59,12.89-5.9,18.88S86.25,276.33,93,277.55C85.57,292.37,61.55,291,52.92,305.16c-2.63,4.31-3.4,9.49-5.48,14.08-5.06,11.17-16.89,17.35-25.69,25.89-19.19,18.64-24.64,49.53-47,64.22,28.1-7.11,48.17-31.14,66.22-53.83l27.83-35,10.64-13.38c10-12.58,20.43-26.15,21.9-42.16a38,38,0,0,1,.71-5.88c2.09-8.25,11.15-12.23,18.83-15.92,41.39-19.89,74.76-51.46,99.47-91.88-13.3,2-23.8,10.26-55.92,14.24,0-15.19,62.5-28.39,88.21-65.7-.27,25.67-24.46,45.75-27.12,71.29,9.84-14.67,34.4-56.05,45.76-63.87l-1.78.93a77,77,0,0,1,30.24-16.07c1.72,19.58-17.26,35.12-20.42,54.52-1.48,9.1.64,18.39.21,27.59-1.58,33.79-34.68,55.54-58.93,79.12-10.26,10-19.9,25.22-12.85,37.68,2.09,3.69,5.59,7,5.65,11.2,0,2.63-1.31,5.06-2.55,7.38-29.86,55.78-24,130.78-70.26,173.92-5.27,4.91-11.1,9.25-15.79,14.71-5.29,6.17-8.94,13.54-12.54,20.83l-45.42,92.1,13.64-.64A735.61,735.61,0,0,1,140,506.94l9.71,7c6.53-11.88,17.41-20.68,25.57-31.5,19.16-25.4,21.73-59.12,25.39-90.72s10.65-65.79,35-86.21c-13.4.79-20.4-17.93-14.52-30s18.72-18.74,30.14-25.8a204.57,204.57,0,0,0,37.8-30.1c3.91-4,7.79-8.29,9.26-13.66,2.47-9-2.43-18.29-3.53-27.59-3.26-27.53,25.39-47.23,37.12-72.35a86.63,86.63,0,0,1,8.13,31.63l2.79-24.82c8,28,3.14,58.5-8.28,85.3C329.08,211,322,223.44,319.78,237.25c-2.07,12.61,0,25.48.05,38.26.23,42.82-21.75,84.21-17.14,126.78.76,7,2.23,14,1.46,21-.84,7.6-4.29,14.62-7.67,21.47l-26.73,54,17-3.5c-10.56,40.14,2.49,83-1.74,124.08l17.19-111.28c.83-5.38,1.6-11.17-.85-16s-9.54-7.67-13.5-3.94c-2.33-25.52,27.2-41.91,36.28-65.87.91-2.4,1.59-5.13.54-7.47-1.5-3.31-5.62-4.26-8.83-6-12.73-6.75-11.21-25.19-7.86-39.21,4.07-17,8.57-34.84,20.54-47.58q7.11,62.26,20.23,123.64c1.34,6.27,2.75,12.59,5.37,18.44,3.57,8,9.37,15.09,11,23.66,2.18,11.47-3.54,23.11-2.63,34.74.52,6.65,3.18,12.93,5.8,19.06l34,79.64a237,237,0,0,0-20.35-79.15C377.94,533.32,373.36,524.61,371.62,515.1Z"/>
    </g>
    <g class="cls-4">
      <rect class="cls-3" x="546.12" y="390.66" width="10.47" height="543.57" transform="translate(-272.04 407.8) rotate(-33.04)"/>
    </g>
  </g>
</svg>
