<?xml version="1.0" encoding="utf-8"?>
<!-- Generator: Adobe Illustrator 22.0.1, SVG Export Plug-In . SVG Version: 6.00 Build 0)  -->
<svg version="1.1" id="Calque_1" xmlns="http://www.w3.org/2000/svg" xmlns:xlink="http://www.w3.org/1999/xlink" x="0px" y="0px"
	 viewBox="0 0 419.5 595.3" style="enable-background:new 0 0 419.5 595.3;" xml:space="preserve">
<style type="text/css">
	.st0{fill:#141412;}
	.st1{clip-path:url(#SVGID_2_);}
	.st2{fill:#FFFFFF;stroke:#141412;stroke-miterlimit:10;}
	.st3{clip-path:url(#SVGID_4_);}
	.st4{clip-path:url(#SVGID_6_);}
	.st5{fill:#FFFFFF;}
	.st6{clip-path:url(#SVGID_8_);}
	.st7{fill:none;stroke:#141412;stroke-miterlimit:10;}
</style>
<title>Plan de travail 6</title>
<g id="Calque_1_1_">
	<g>
		<rect x="-801" y="1.5" class="st0" width="419.5" height="595.3"/>
		<g>
			<defs>
				<rect id="SVGID_1_" x="-801" y="1.5" width="419.5" height="595.3"/>
			</defs>
			<clipPath id="SVGID_2_">
				<use xlink:href="#SVGID_1_"  style="overflow:visible;"/>
			</clipPath>
			<g class="st1">
				<polygon class="st2" points="-379.4,-59.5 -409.1,-9.5 -379.4,40.5 -349.5,-9.3 				"/>
				<polygon class="st2" points="-379.4,40.5 -409.1,90.5 -379.4,140.5 -349.5,90.7 				"/>
				<polygon class="st2" points="-379.3,140.5 -409.1,190.5 -379.3,240.5 -349.5,190.7 				"/>
				<polygon class="st2" points="-379.3,240.7 -409.1,290.7 -379.3,340.7 -349.5,290.9 				"/>
				<polygon class="st2" points="-379.5,339.8 -409.3,389.8 -379.5,439.8 -349.7,390 				"/>
				<polygon class="st2" points="-379.4,439.8 -409.2,489.8 -379.4,539.8 -349.6,490 				"/>
				<polygon class="st2" points="-379.4,539.8 -409.2,589.8 -379.4,639.8 -349.6,590 				"/>
				<polygon class="st2" points="-12.5,72.7 -43.4,64.9 -67.4,86 -69.5,54.2 -96.9,37.9 -67.4,26.1 -60.4,-5 -39.9,19.4 -8.2,16.5 
					-25.2,43.4 				"/>
			</g>
		</g>
	</g>
</g>
<g>
	<defs>
		<rect id="SVGID_3_" x="-0.5" y="-0.9" width="419.5" height="595.3"/>
	</defs>
	<clipPath id="SVGID_4_">
		<use xlink:href="#SVGID_3_"  style="overflow:visible;"/>
	</clipPath>
	<g class="st3">
		<polygon class="st2" points="293.9,223.9 292.3,216.4 285.3,213.5 291.9,209.7 292.5,202.1 298.2,207.2 305.6,205.5 302.5,212.4 
			306.4,218.9 298.9,218.1 		"/>
		<polygon class="st2" points="321.2,461.9 319.6,454.4 312.6,451.5 319.2,447.7 319.8,440.1 325.5,445.2 332.9,443.5 329.8,450.4 
			333.7,456.9 326.2,456.1 		"/>
		<polygon class="st2" points="165.8,373.1 162.1,355.8 145.7,348.9 161.1,340.1 162.5,322.4 175.7,334.3 193,330.1 185.7,346.4 
			195,361.5 177.3,359.7 		"/>
		<polygon class="st2" points="191.4,515.6 189.8,508.1 182.8,505.2 189.4,501.4 190,493.8 195.7,498.9 203.1,497.2 200,504.1 
			203.9,510.6 196.4,509.8 		"/>
		<polygon class="st2" points="268.4,527.1 251.4,506.5 224.8,508.8 239.2,486.3 228.8,461.7 254.7,468.5 274.8,451 276.4,477.6 
			299.3,491.4 274.4,501.2 		"/>
		<polygon class="st2" points="371.7,262.9 353.3,245.2 328.3,250.4 339.4,227.4 326.9,205.2 352.1,208.7 369.3,189.9 373.8,215 
			397,225.5 374.5,237.6 		"/>
		<polygon class="st2" points="209.5,285.1 205.6,281.6 200.6,282.7 202.7,278 200.1,273.5 205.3,274.1 208.7,270.2 209.7,275.3 
			214.5,277.4 209.9,279.9 		"/>
		<polygon class="st2" points="327.1,307.6 325.5,300.1 318.5,297.2 325.1,293.4 325.7,285.8 331.4,290.9 338.8,289.2 335.7,296.1 
			339.6,302.6 332.1,301.8 		"/>
		<polygon class="st2" points="81.4,93.8 65.7,83.1 48.1,90 53.4,71.8 41.4,57.1 60.4,56.5 70.7,40.6 77.1,58.5 95.4,63.3 
			80.4,74.9 		"/>
		<polygon class="st2" points="288.1,328.9 272.4,318.2 254.7,325 260.1,306.8 248.1,292.1 267.1,291.6 277.4,275.6 283.8,293.5 
			302.1,298.4 287.1,309.9 		"/>
		<polygon class="st2" points="416.3,68.2 385.7,69.2 369.1,95 358.7,66.1 329.1,58.3 353.3,39.5 351.6,8.9 376.9,26.2 405.5,15.1 
			396.9,44.5 		"/>
		<polygon class="st2" points="68.7,572.8 53.1,562.1 35.4,568.9 40.8,550.7 28.8,536 47.7,535.5 58,519.6 64.4,537.4 82.7,542.3 
			67.7,553.9 		"/>
		<polygon class="st2" points="50.5,355.5 39.5,361.1 37.9,373.4 29.1,364.7 16.9,367 22.5,355.9 16.6,345 28.8,346.9 37.4,337.9 
			39.3,350.2 		"/>
		<polygon class="st2" points="148.2,275.6 139.9,270 130.6,273.6 133.4,264 127.2,256.3 137.1,256 142.5,247.6 145.9,257 
			155.5,259.6 147.6,265.7 		"/>
		<polygon class="st2" points="419,637 368.8,602.7 312.1,624.5 329.3,566.2 291,519.1 351.7,517.4 384.7,466.4 405.1,523.6 
			463.8,539.2 415.7,576.3 		"/>
		<polygon class="st2" points="62.3,255.6 43.6,258.6 35.4,275.7 26.8,258.9 8,256.4 21.4,243 17.9,224.3 34.8,232.9 51.5,223.9 
			48.5,242.6 		"/>
		<polygon class="st2" points="230,68 223.8,63.7 216.7,66.5 218.8,59.2 214,53.3 221.6,53 225.8,46.7 228.3,53.8 235.7,55.8 
			229.6,60.4 		"/>
		<polygon class="st2" points="170,192.3 135.9,204.8 126.9,239.9 104.5,211.4 68.4,213.6 88.6,183.5 75.3,149.9 110.1,159.8 
			138,136.7 139.4,172.9 		"/>
		<polygon class="st2" points="288.1,189.9 272.4,179.2 254.7,186 260.1,167.9 248.1,153.1 267.1,152.6 277.4,136.7 283.8,154.5 
			302.1,159.4 287.1,171 		"/>
		<polygon class="st2" points="148,370.2 141.9,410 171.3,437.6 131.5,444.2 114.3,480.7 95.8,444.8 55.8,439.7 84.1,411.1 
			76.6,371.4 112.6,389.6 		"/>
		<polygon class="st2" points="207.3,605.2 205.8,597.8 198.7,594.9 205.3,591.1 205.9,583.5 211.6,588.6 219,586.8 215.9,593.8 
			219.9,600.2 212.3,599.4 		"/>
		<polygon class="st2" points="310.7,78.9 309.1,71.5 302.1,68.5 308.7,64.7 309.3,57.2 314.9,62.3 322.3,60.5 319.2,67.4 
			323.2,73.9 315.6,73.1 		"/>
		<polygon class="st2" points="407.9,419.2 388.8,408.1 368.8,417.5 373.5,395.9 358.3,379.8 380.3,377.6 390.9,358.2 399.8,378.4 
			421.6,382.5 405.1,397.2 		"/>
	</g>
</g>
<g>
	<defs>
		<rect id="SVGID_5_" x="0" y="852.3" width="419.5" height="593.9"/>
	</defs>
	<clipPath id="SVGID_6_">
		<use xlink:href="#SVGID_5_"  style="overflow:visible;"/>
	</clipPath>
	<g class="st4">
		<path class="st2" d="M517,612.8c-1.4,0.8-2.1,2.9-1.8,5.2c-1.8,0.5-3.6,1.2-5.2,2.1c-0.7,0.4-1.4,0.8-2.1,1.2c0-0.3,0-0.7-0.1-1
			c-0.3-0.9-1.3-1.4-2.2-1.1c-0.1,0-0.2,0.1-0.3,0.1c-1,0.5-1.4,1.7-1,2.7c0.2,0.5,0.5,0.8,1,1c-1.2,1-2.3,2-3.3,3.1
			c-0.1-0.2-0.1-0.4-0.2-0.6c-1.2-3-3.6-4.5-5.5-3.6c-4.7-8.6-14.7-11.9-23.4-7.2c-9.5,5.1-13.8,17.6-9.7,27.9
			c1.9,5.2,6.1,9.3,11.4,11c0,2.8,0.5,5.6,1.5,8.2c1.7,4.4,5,8,9.2,10.1c-1.8,8.8-0.4,20.9,4.3,32.9c0.2,0.6,0.5,1.2,0.8,1.9
			c-0.7,1.6-1.3,3.3-1.9,4.9c-0.2-0.1-0.5-0.2-0.7-0.3c-1.7,0-3,1.4-3,3c0,1.2,0.7,2.3,1.8,2.7h0.2c-0.4,1.7-0.8,3.3-1.2,5.1
			c-0.7,3.4-1.1,6.8-1.4,10.3c-0.8,0.1-1.5,0.4-2.2,0.8c-0.2-1-1-1.8-2-2c-1.7,0-3,1.4-3,3c0,1.2,0.7,2.3,1.8,2.7h0.1
			c-0.1,0.4-0.2,0.7-0.3,1.1c-0.8,3.8,1.4,7.4,4.7,8.1c0.4,0.1,0.7,0.1,1.1,0.1c0.3,2.9,0.8,5.7,1.5,8.5l-0.6,0.3
			c-0.4-2.6-2.4-4.8-5-5.4c-3.6-0.7-7.1,2-7.9,6c-0.7,3.1,0.6,6.3,3.3,7.9c-1.1,1.6-2.1,3.2-2.9,5c-0.8-0.3-1.6-0.6-2.4-0.8
			c-8.8-1.8-18.2,8-21,21.7s2.2,26.3,11,28.1c6.4,1.3,13.1-3.5,17.3-11.4c0.4-0.3,0.8-0.7,1.1-1.1c3.2,2.9,7.1,4.8,11.3,5.7
			c2.6,0.5,5.3,0.6,7.9,0.2c0,0.1,0,0.1,0,0.2c-0.7,3.5,1.2,6.9,4.4,7.5c0.4,0.1,0.9,0.1,1.3,0.1c-0.1,0.3-0.2,0.6-0.2,0.9
			c-0.2,1-0.2,2,0.1,2.9c-4.6,0.5-9.1,2.3-12.8,5.1c-0.7-1.4-1.9-2.4-3.4-2.7c-2.7-0.4-5.3,1.3-6.1,4c-0.8-2.3-2.8-4.1-5.2-4.6
			c-3.9-0.8-7.9,2.2-8.7,6.6c-0.9,4.4,1.6,8.7,5.5,9.5c3.9,0.8,7.9-2.2,8.7-6.6l0,0c0.4,0.8,1,1.4,1.7,1.9c-4.2,6.8-5.9,15-4.6,22.9
			c-0.3-0.1-0.7-0.2-1-0.3c-4.4-0.9-8.8,2.5-9.8,7.4c-0.3,1.4-0.3,2.8,0,4.2c-1.1,0.3-2.2,0.7-3.3,1.1c0.2-4.7-2.7-8.9-7-9.8
			c-4.8-1-9.6,2.7-10.7,8.1c-1.1,5.4,2,10.6,6.8,11.6h0.3c-0.6,1.5-1,3.1-1.1,4.7c-3.8-0.3-7.7-0.2-11.5,0.3c1.3-1.7,1.6-4,0.8-6
			c-0.8-2.5-3.5-3.8-6-3c-0.3,0.1-0.5,0.2-0.7,0.3c-2.7,1.6-3.8,4.8-2.7,7.7l0,0c-0.5-0.2-1.1-0.3-1.7-0.3c0-2.8-0.5-5.6-1.5-8.2
			c-0.9-2.4-2.4-4.7-4.2-6.5c0.2-0.1,0.5-0.2,0.7-0.3c3-1.7,4.3-5.4,3-8.6c-0.3-0.9-0.9-1.7-1.6-2.3c0.5-0.7,1.1-1.4,1.5-2.2
			c1.6,2.7,5,3.6,7.7,2.1c3.3-1.9,4.7-5.9,3.3-9.4c-1-3-4.3-4.7-7.4-3.6c-0.3,0.1-0.6,0.2-0.9,0.4l-0.2,0.1
			c-0.1-0.7-0.3-1.3-0.5-1.9c-1.4-3.6-4.9-5.8-9.2-6.2c-0.1-0.2-0.1-0.5-0.2-0.7c-1.2-3.1-3.8-4.8-5.6-3.8c-1.4,0.8-2.1,2.9-1.8,5.2
			c-1.8,0.5-3.6,1.2-5.2,2.1c-0.7,0.4-1.4,0.8-2.1,1.2c0-0.3,0-0.7-0.1-1c-0.3-0.9-1.3-1.4-2.2-1.1c-0.1,0-0.2,0.1-0.3,0.1
			c-1,0.5-1.4,1.7-1,2.7c0.2,0.5,0.5,0.8,1,1c-1.2,1-2.3,2-3.3,3.2c-0.1-0.2-0.1-0.4-0.2-0.6c-1.2-3-3.6-4.5-5.5-3.6
			c-4.7-8.6-14.7-11.9-23.4-7.2c-9.5,5.1-13.8,17.6-9.7,27.9c1.9,5.2,6.1,9.3,11.4,11c0,2.8,0.5,5.6,1.5,8.2c1.7,4.4,5,8,9.2,10.1
			c-1.8,8.8-0.4,20.9,4.3,32.9c0.2,0.6,0.5,1.2,0.8,1.8c-0.7,1.6-1.3,3.3-1.9,4.9c-0.2-0.1-0.5-0.2-0.7-0.3c-1.7,0-3,1.3-3,3
			c0,1.2,0.8,2.3,1.9,2.8h0.2c-0.4,1.7-0.8,3.3-1.2,5.1c-0.7,3.4-1.1,6.8-1.4,10.3c-0.8,0.1-1.5,0.4-2.2,0.8c-0.2-1-1-1.8-2-2
			c-1.7,0-3,1.4-3,3c0,1.2,0.7,2.3,1.8,2.7h0.1c-0.1,0.4-0.2,0.7-0.3,1.1c-0.8,3.8,1.4,7.4,4.7,8.1c0.4,0.1,0.7,0.1,1.1,0.1
			c0.3,2.9,0.8,5.7,1.5,8.5l-0.6,0.3c-0.4-2.6-2.4-4.8-5-5.4c-3.6-0.7-7.1,2-7.9,6c-0.7,3.1,0.6,6.3,3.3,7.9
			c-2.7,3.8-4.6,8.2-5.5,12.8c-0.5,2.4-0.7,4.8-0.6,7.2l0,0c-4.5-0.9-8.6,0.9-9.3,4c-0.6,3.1,2.5,6.4,7,7.3l0.7,0.1
			c-0.7,1-1.1,2.1-1.4,3.3c-0.9,4.4,1.6,8.7,5.5,9.5c2.6,0.4,5.2-0.6,6.8-2.7c3.2,2.9,7.1,4.8,11.3,5.7c2.6,0.5,5.3,0.6,7.9,0.2
			c0,0.1,0,0.1,0,0.2c-0.7,3.5,1.2,6.9,4.4,7.5c0.4,0.1,0.9,0.1,1.3,0.1c-0.1,0.3-0.2,0.6-0.2,0.9c-0.2,1-0.2,2,0.1,2.9
			c-4.6,0.5-9.1,2.3-12.8,5.1c-0.7-1.4-1.9-2.4-3.4-2.7c-2.7-0.4-5.3,1.3-6.1,4c-0.8-2.3-2.8-4.1-5.2-4.6c-3.9-0.8-7.9,2.2-8.7,6.6
			s1.6,8.7,5.5,9.5c3.9,0.8,7.9-2.2,8.7-6.6l0,0c0.4,0.8,1,1.4,1.7,1.9c-4.3,6.8-5.9,14.9-4.7,22.9c-0.3-0.1-0.7-0.2-1-0.3
			c-4.4-0.9-8.8,2.4-9.8,7.4c-0.3,1.4-0.3,2.8,0,4.2c-1.1,0.3-2.2,0.7-3.3,1.1c0.2-4.7-2.7-8.9-7-9.8c-4.8-1-9.6,2.7-10.7,8.1
			c-1.1,5.5,2,10.7,6.8,11.6h0.3c-0.4,0.9-0.6,1.8-0.8,2.8c-1.1,5.7,1.1,11.4,5.5,16c-0.1,0.3-0.2,0.7-0.2,1c-1,4.8,0.6,9.2,3.4,9.8
			c2.2,0.4,4.5-1.5,5.9-4.5c2.4,1.1,4.9,1.9,7.4,2.4c1.1,0.2,2.2,0.4,3.3,0.5c-0.3,0.4-0.5,0.9-0.6,1.3c-0.5,1.4,0.3,2.9,1.7,3.3
			c1.4,0.5,2.9-0.3,3.3-1.7c0.1-0.2,0.1-0.4,0.1-0.7c0.2-0.7,0-1.5-0.3-2.2c2,0,4-0.3,6-0.7c-0.1,0.3-0.2,0.6-0.2,1
			c-0.9,4.6,0.6,8.8,3.4,9.3c-1.2,14.7,7.4,27.9,20.6,30.5c14.3,2.8,28.5-7.9,31.7-24.1c1.7-8.2,0.1-16.8-4.5-23.8
			c2.2-3.4,3.7-7.2,4.5-11.2c1.4-7,0.5-14.2-2.6-20.6c2.7-2.9,5.2-6,7.2-9.4c0.2,0.7,0.4,1.5,0.7,2.2c1.6,3.7,6,5.4,9.7,3.8
			c0.4-0.2,0.8-0.4,1.1-0.6c3.9-2.7,5.3-7.8,3.3-12.2c-1.5-3.6-5.6-5.3-9.3-4c2.3-5.4,4.2-10.9,5.6-16.5c0.1,0.4,0.2,0.8,0.4,1.2
			c0.9,2.1,3.3,3,5.4,2.1c0.2-0.1,0.4-0.2,0.6-0.3c2.2-1.5,3-4.4,1.9-6.8c-0.9-2.1-3.3-3-5.4-2.1c-0.2,0.1-0.4,0.2-0.6,0.3
			c-0.5,0.3-0.9,0.7-1.2,1.2c0.1-0.6,0.3-1.2,0.4-1.8c0.3-1.6,0.6-3.1,0.8-4.6c8.1-0.1,15.1-5.8,16.7-13.7c0.9-4.8-0.3-9.8-3.3-13.6
			c15.7-10,27.8-27.2,32-48.2c1.3-6.5,1.8-13.1,1.4-19.8c1.4,0.6,2.8,1,4.2,1.3c14.3,2.8,28.5-7.9,31.7-24.1
			c1.7-8.2,0.1-16.8-4.5-23.8c2.2-3.4,3.7-7.2,4.5-11.2c1.4-7,0.5-14.2-2.6-20.6c2.7-2.9,5.2-6,7.2-9.4c0.2,0.7,0.4,1.5,0.7,2.2
			c1.6,3.7,6,5.4,9.7,3.8c0.4-0.2,0.8-0.4,1.1-0.6c4-2.7,5.4-7.9,3.4-12.3c-1.5-3.6-5.6-5.3-9.3-4c2.3-5.4,4.2-10.9,5.6-16.5
			c0.1,0.4,0.2,0.8,0.4,1.2c0.9,2.1,3.3,3,5.4,2.1c0.2-0.1,0.4-0.2,0.6-0.3c2.2-1.5,3-4.4,1.9-6.8c-0.9-2.1-3.3-3-5.4-2.1
			c-0.2,0.1-0.4,0.2-0.6,0.3c-0.5,0.3-0.9,0.7-1.2,1.2c0.1-0.6,0.3-1.2,0.4-1.8c0.3-1.6,0.6-3.1,0.8-4.6c8.1-0.1,15.1-5.8,16.7-13.7
			c0.9-4.8-0.2-9.8-3.2-13.6c15.7-10,27.8-27.2,32-48.2c7.6-38.1-13.6-74.4-47.3-81.1c-5.9-1.2-12-1.4-18-0.6c1.3-1.7,1.6-4,0.8-6
			c-0.8-2.5-3.5-3.8-6-3c-0.3,0.1-0.5,0.2-0.7,0.3c-2.7,1.6-3.8,4.8-2.7,7.7l0,0c-0.5-0.2-1.1-0.3-1.7-0.3c0-2.8-0.5-5.6-1.5-8.2
			c-0.9-2.4-2.4-4.7-4.2-6.5c0.2-0.1,0.5-0.2,0.7-0.3c3-1.7,4.3-5.4,3-8.6c-0.3-0.9-0.9-1.7-1.6-2.3c0.5-0.7,1.1-1.4,1.5-2.2
			c1.6,2.7,5,3.6,7.7,2.1c3.3-1.9,4.7-5.9,3.3-9.4c-1-3-4.3-4.7-7.4-3.6c-0.3,0.1-0.6,0.2-0.9,0.4l-0.2,0.1
			c-0.1-0.7-0.3-1.3-0.5-1.9c-1.4-3.6-4.9-5.8-9.2-6.2c-0.1-0.2-0.2-0.5-0.2-0.7C521.4,613.5,518.9,611.8,517,612.8z"/>
	</g>
</g>
<g>
	<rect x="-802.5" y="623.7" class="st5" width="419.5" height="595.9"/>
	<g>
		<defs>
			<rect id="SVGID_7_" x="-802.5" y="623.7" width="419.5" height="595.9"/>
		</defs>
		<clipPath id="SVGID_8_">
			<use xlink:href="#SVGID_7_"  style="overflow:visible;"/>
		</clipPath>
		<g class="st6">
			<path class="st2" d="M-718,522.4c13.4,6.8,32.9,0.8,41.6,13.5c7.9,11.6-1.2,28.1-12.7,35.7s-25.6,11-34.9,21.4
				c-3.9,4.4-7.1,10.1-12.5,12.1c-8.6,3.1-16.9-4.8-22.8-12c-10.5,17.9-25.9,32-42.1,44.2c-18,13.6-37.3,25.5-57.6,35.3
				c13.8,7.1,30.1-1.2,42.5-10.9c12.3-9.7,24.9-21.4,40.3-21.7c5.2-0.1,10.9,1,15.2-2.1c2.2-1.6,3.7-4.1,5.4-6.3
				c8.8-11,23.7-13.3,37.2-14.9c7.1-0.8,15.1-1.3,20.5,3.6c5.4,4.9,3.5,17.2-3.7,16.8c4.6,4.3,7.1,10.4,6.8,16.8
				c-11.4-0.8-22.9,5.5-29,15.8c-6.2,10.5-6.4,23.5-6.5,35.9c4.2,0.5,7.1-4.6,7.4-9.1c0.3-4.5-0.8-9.2,0.8-13.4
				c4.5-11.7,21.7-6.3,32.4-11.9c4.6-2.4,8-6.9,12.9-8.6c3.1-1,6.4-0.8,9.6-0.5l23.9,2c-7.4,5.7-8.9,18.3-3,25.7
				c8.9-18.5,28-29,46.9-34.6c18.9-5.6,38.8-7.4,57.2-14.8c6.3-2.5,13.7-5.5,19.2-1.6c0.4-12.2,9.4-23.5,20.7-26
				c3.8,5.2,5,11.9,3.1,18.1l7.2-2.6l7,8.6c-11.1,11.4-19.4,25.2-24.1,40.4c1.3,3.1,5.9,3.8,7.9,1.2c15-19,34.7-33.7,57.1-42.8
				c1.4-0.7,3-1,4.5-0.7c2.1,0.6,3.4,2.8,4.4,4.8c13.9,29.8,15.6,63.9,4.8,95c-2,5.6-4.4,12-1.8,17.4l12.5-6.8
				c-12.1,20.8,2.9,49.5-6.6,71.8c-3.1,7.4-8.9,13.8-9.4,21.9c-0.4,5.8,2,12.1-0.6,17.2c-1.5,2.9-4.2,4.7-6.1,7.3
				c-5.4,7.7-1.1,18.5,2.5,27.3s5.4,21.3-2.4,26.2c1.9,2.7,5.4,3.7,8.5,2.7c2,3.3,1.9,7.4-0.4,10.5c1.6,2.6,4.2,4.3,7.2,4.9
				c0.4-22.1-1.7-44.1-6-65.7c5.3-9.2,14.4-15.1,22-22.2c7.6-7.1,14.4-17.4,12.3-28c-1.4-6.6-3.9-16.8,2.4-17.3
				c1.9-0.2,3.7,1.1,5.2,2.3c12.4,9.9,22,22.9,27.7,37.7c5.8,14.9,9.6,33.7,23.9,39.4c-2.9-30.6-9.7-60.7-20.3-89.5
				c7.5-3.1,6.2-15.2,1.3-22s-12.2-12.4-13.2-20.8c-0.3-1.5-0.1-3,0.5-4.4c1.8-3.7,7.1-3.4,10.4-1c3.3,2.4,5.6,6,9,8
				c4.9,2.9,11.2,2,16.1,4.8c4.1,2.3,6.7,6.7,9,10.9l24.9,44.1c4.6,0.9,6.4-6.7,4-10.9c-2.4-4.2-6.8-7.1-8.2-11.7
				c-1.2-3.9,0-8.2-0.6-12.3c-0.9-6.1-5.5-10.7-9.9-14.8l-36.2-33.9c-4.5-4.2-9.1-8.6-11.5-14.4c-2.4-5.8-1.7-13.5,3-17.3
				c4.4,12,21.2,7.2,32.9,10.2c10.7,2.8,17.9,13.2,24.1,22.8c6.2-2.9,6.2-13,1.9-18.5c-4.3-5.5-11.2-8-17.4-11
				c-17.5-8.6-31.8-24.2-39.5-43c-1.2-3-2.3-6.3-1.5-9.4c1.8-7.3,11.7-8.3,17.8-4.4c6.1,3.8,10.1,10.6,15.9,14.8
				c1.2,1,2.6,1.6,4.1,1.7c4.6,0,5.9-7.3,3.2-11.3c-2.7-4-7.3-5.8-10.7-9.1c-3.4-3.2-5.3-9.7-1.6-12.6l19,12l-21.4-58.6
				c-4.6-12.6-9.5-25.7-18.8-35c-9.5-9.5-22.6-14.1-32.8-22.6C-396.7,513-403.9,500-412,488c-12-17.8-26.4-33.7-43-47.3
				c-8.8-7.2-19.8-14.1-30.6-11.2c-11.2,3-17.9,15.2-21.1,26.9c-3.2,11.7-4.5,24.4-10.6,34.7c5.8,9.5,1.4,24.1-8.5,28.3
				c-8.9,3.7-18.8-0.5-28.2-2.6c-13.3-3-27.3-1.8-39.9,3.5c-20.2,8.4-35.4,26-49.9,43c13.3-7.3,22.8-20.6,35.6-28.8
				c19.4-12.4,43.7-11.4,66.3-10c5.5,0.3,11.3,0.8,15.9,4c4.6,3.2,7.2,10.3,4.1,15.1c-1.8,2.7-4.9,4-7.8,5.2l-32,12.7
				c2.6,2.1,4.2,5.2,4.3,8.5c-9.8,1.4-19.1,5.4-26.9,11.6l29.8,3.1c4.7,0.5,9.5,1,14.1-0.2c8.9-2.2,16.4-10.3,25.5-9.4
				c0.1,3.4-1.6,6.6-3.3,9.5c-5,8.7-10.1,17.6-17.8,23.7c-7.7,6-18.7,8.5-27,3.4c-3.8-2.4-6.7-6.1-10.8-7.9
				c-8.1-3.5-17.3,2.3-22.9,9.5c-5.7,7.1-9.8,15.8-17,21.1c-7.2,5.3-19.4,4.8-22.7-3.8c-2-5.3,0.1-11.3,0.6-17
				c0.5-5.7-2.4-13.1-7.8-12.7c1,10.4-2.4,22.4-11.4,26.6c-9,4.2-21.8-5.8-17.7-15.3c1.5-3.5,4.8-6.2,5-10c0.2-4.3-4.1-7.5-8.2-7.5
				s-7.6,2.6-10.7,5.4c-7.8-4.8-7.1-17.7-1.3-25s14.8-10.6,22.9-14.7c8.2-4,16.6-10,18.8-19.2c0.7-2.8,0.6-6.3-1.6-8.1
				c3.8,1.3,7.5-2.6,8.4-6.7c1-4,0.3-8.4,1.1-12.5c2.8-14.1,19.8-18.1,33.4-19l5.4-0.4c-10.7-2.6-16.4-18-10.2-27.6l45.3,18.2
				c3.5,1.4,7.7,2.8,10.9,0.6c2-1.4,3.1-3.8,4.3-6.1c7.5-14.4,23.3-23.5,38.9-22.1c-6.7-5.3-15.8,0.5-23.1,4.8
				c-17.3,10.2-38.4,11.8-57.1,4.2c-9.8-4.1-21.2-10.5-30-4.3c-3.8,2.7-6,7.2-8.1,11.5l-11.3,23.5c-2.4,5-4.9,10.1-8.9,13.7
				C-667.2,527.7-701.9,503.2-718,522.4z M-406.7,820.7c-0.4,1.9-1.1,3.7-2.1,5.4c-3.2,5.7-7.4,10.8-12.5,14.9l1.5-1.5
				c-4.7-5.2-3.3-13.9-0.2-20.2s7.9-12.2,9.2-19.2c1.1-5.9,0.3-13.3,5.1-16.5c1.8,8.8-2.8,17.9-1.9,26.8
				C-407.3,813.8-406.1,817.3-406.7,820.7L-406.7,820.7z M-381.4,759.3c0.9-0.6,1.9-0.9,2.9-0.9c1.3,0.3,2.4,1,3.3,2
				c2.8,2.6,5.6,5.4,7.1,8.9c1.5,3.6,1.4,8.3-1.3,11c-1.5,1.5-3.8,2.3-4.8,4.3c-1.5,2.8,0.2,6.2,1.8,8.8l14.3,23.3
				c1.3,2.1,2.3,5.6,0.1,6.6c-7.2-9.4-14.1-19.1-20.7-28.9c-1.2-0.1-2.4,0.3-3.2,1.2c-2.8-0.8-2.4-5.4-4.4-7.7
				c-2.4-2.9-7.3-1-10.4-3c-2.6-1.7-3.2-5.7-2.1-8.7c1.1-3,3.5-5.3,5.8-7.5C-389.4,765.2-385.7,761.8-381.4,759.3L-381.4,759.3z
				 M-365.3,662.6c1.5,2.5,3.9,4.4,5.7,6.7c1.5,2.1,2.8,4.4,3.8,6.8l4.2,9.2c-8.1-2.8-15.4-7.5-21.4-13.7l3,1.3l-4.3-2.1
				c-0.2,4.8,3.5,9,3.4,13.7c-0.1,3.9-2.6,7.1-4.2,10.6c-2,4.4-2.5,9.2-1.6,13.9c0.5,2.5,1.4,4.9,1.5,7.4c0.1,2.5-0.9,5.4-3.1,6.4
				c-4-1.1-6.2-6-6.2-10.4c0-4.4,1.5-8.7,2.3-13c0.8-4.3,0.7-9.3-2.1-12.6c-2.1-2.4-5.2-3.5-7.6-5.6c-2.8-2.4-4.3-6-5.7-9.5
				c-0.7-1.7-1.4-3.5-1-5.3c0.5-1.6,1.4-3.1,2.6-4.2c3.3-3.6,7.8-7.4,12.3-5.7c2.1,0.8,3.9,2.7,6.1,2.3c3.5-0.7,3.4-6.1,2.3-9.6
				c-1.1-3.6-1.7-8.8,1.7-10C-366.7,643.8-369.6,655.4-365.3,662.6L-365.3,662.6z M-361.2,540.9c0.9-0.1,1.7,0.3,2.2,1
				c6.5,6.3,8.4,16.2,12.5,24.5c2.6,5.2,6.2,10,8.3,15.5c2.1,5.5,2.5,12.3-1.1,16.9l2-1.1c-4.8,5.4-1.3,14.9-4.9,21.3
				c-2.2,3.8-6.7,5.7-10.9,4.4c-4.2-1.6-6.8-5.6-6.7-10c0.2-4.9,3.9-9.5,2.8-14.3c-0.9-3.8-4.3-6.1-6.9-8.9c-5.5-6-7.3-15-6.4-23.3
				s4.1-16.1,7.3-23.8C-362.5,542.1-362.1,541.1-361.2,540.9L-361.2,540.9z M-436.4,600.1c3-1.8,6.8-3.3,9.9-1.6
				c2.1,1.2,3.3,3.5,4.5,5.7c3.6,6.5,8.4,12.7,14.9,15.7c6.5,3.1,15,2.3,19.8-3.4c-0.2,15.3-5.6,30.1-15.2,42.1
				c-2,2.5-4.3,4.9-5.3,8.1c-3.3,10,7.5,19.4,7.4,30c0,4.7-2.2,9.1-1.9,13.8c0.7,8.9,10,14.2,12.7,22.7c2.3,7.1-0.6,15.1-5.4,20.6
				c-4.1,4.6-9.4,7.8-14.7,10.6c-0.1,0.5-0.2,1-0.4,1.5l-2.6,0l3-1.6c2.2-10.1,0.2-20.7-5.7-29.2c-1.2-1.6-2.5-3.4-2.6-5.4
				c-0.2-5.1,6.9-6.7,8.9-11.2c1-2.3,0.6-5,0.2-7.6l-10-58.4c-1-6.2-2.1-12.5-5.1-17.9c-6.4-11.3-21.7-15.8-32.7-9.5
				C-452.9,614.7-445.7,605.9-436.4,600.1L-436.4,600.1z M-586.5,615.5c2-0.9,4.1-1.2,6.3-1c6.5,0.2,14.3,2.2,16,8.9
				c-0.9,4-6.4,3.5-10.2,4.2c-3.9,0.8-6.9,3.8-10.1,6.3c-3.1,2.5-7.1,4.7-10.9,3.4l-2.8,1.7c2.1-5.3,4.2-10.5,6.3-15.8
				C-590.7,620.2-589.2,617-586.5,615.5L-586.5,615.5z"/>
		</g>
	</g>
	<rect x="-802.5" y="623.7" class="st7" width="419.5" height="595.9"/>
</g>
</svg>
