<svg xmlns="http://www.w3.org/2000/svg" xmlns:xlink="http://www.w3.org/1999/xlink" width="148mm" height="210mm" viewBox="0 0 419.53 595.28">
  <defs>
    <style>
      .cls-1, .cls-3, .cls-4 {
        fill: none;
      }

      .cls-2 {
        clip-path: url(#clip-path);
      }

      .cls-3, .cls-4 {
        stroke: #141412;
        stroke-miterlimit: 10;
      }

      .cls-3 {
        stroke-width: 0.88px;
      }
    </style>
    <clipPath id="clip-path">
      <rect class="cls-1" x="0.28" width="419.02" height="591.56"/>
    </clipPath>
  </defs>
  <title>Plan de travail 9</title>
  <g id="Calque_2" data-name="Calque 2">
    <g class="cls-2">
      <line class="cls-3" x1="154.5" y1="305.11" x2="154.5" y2="533.24"/>
      <line class="cls-3" x1="154.5" y1="305.11" x2="154.5" y2="533.24"/>
      <line class="cls-3" x1="143.59" y1="325.52" x2="143.59" y2="535.54"/>
      <line class="cls-3" x1="132.69" y1="284.74" x2="132.69" y2="535.54"/>
      <line class="cls-3" x1="85.45" y1="305.11" x2="85.45" y2="533.24"/>
      <line class="cls-3" x1="143.87" y1="331.92" x2="143.87" y2="541.94"/>
      <line class="cls-3" x1="363.91" y1="321.16" x2="363.91" y2="552.7"/>
      <line class="cls-3" x1="114.66" y1="298.54" x2="114.66" y2="539.64"/>
      <line class="cls-4" x1="178.87" y1="324.22" x2="178.87" y2="621.86"/>
      <line class="cls-4" x1="178.87" y1="324.22" x2="178.87" y2="621.86"/>
      <line class="cls-4" x1="189.78" y1="350.85" x2="189.78" y2="624.87"/>
      <line class="cls-4" x1="200.69" y1="297.64" x2="200.69" y2="624.87"/>
      <line class="cls-4" x1="247.92" y1="324.22" x2="247.92" y2="621.86"/>
      <line class="cls-4" x1="189.5" y1="359.2" x2="189.5" y2="633.22"/>
      <line class="cls-4" x1="213.26" y1="332.57" x2="213.26" y2="634.66"/>
      <line class="cls-4" x1="218.71" y1="315.64" x2="218.71" y2="630.21"/>
      <line class="cls-4" x1="37.76" y1="289.29" x2="37.76" y2="586.93"/>
      <line class="cls-4" x1="131.72" y1="438.11" x2="131.72" y2="591.95"/>
      <line class="cls-4" x1="301.42" y1="235.15" x2="298.66" y2="586.93"/>
      <line class="cls-4" x1="37.76" y1="289.29" x2="37.76" y2="586.93"/>
      <line class="cls-4" x1="48.67" y1="315.92" x2="48.67" y2="589.94"/>
      <line class="cls-4" x1="59.57" y1="262.71" x2="59.57" y2="589.94"/>
      <line class="cls-4" x1="3.07" y1="543.03" x2="422.6" y2="543.03"/>
      <line class="cls-4" x1="0.28" y1="567.79" x2="419.81" y2="567.79"/>
      <line class="cls-4" x1="0.28" y1="567.79" x2="419.81" y2="567.79"/>
      <line class="cls-4" x1="3.07" y1="563.03" x2="422.6" y2="563.03"/>
      <line class="cls-4" x1="0.28" y1="532.26" x2="419.81" y2="532.26"/>
      <line class="cls-4" x1="3.07" y1="579.61" x2="422.6" y2="579.61"/>
      <line class="cls-4" x1="0.28" y1="573.7" x2="419.81" y2="573.7"/>
      <line class="cls-4" x1="0.28" y1="549.16" x2="419.81" y2="549.16"/>
      <line class="cls-4" x1="420.11" y1="540.16" x2="0.59" y2="543.69"/>
      <line class="cls-4" x1="422.99" y1="550.9" x2="3.48" y2="554.43"/>
      <line class="cls-4" x1="422.85" y1="534.01" x2="3.34" y2="537.54"/>
      <line class="cls-4" x1="423.16" y1="570.17" x2="3.64" y2="573.7"/>
      <line class="cls-4" x1="3.07" y1="543.03" x2="422.6" y2="543.03"/>
      <line class="cls-4" x1="0.28" y1="567.79" x2="419.81" y2="567.79"/>
      <line class="cls-4" x1="0.28" y1="567.79" x2="419.81" y2="567.79"/>
      <line class="cls-4" x1="3.07" y1="563.03" x2="422.6" y2="563.03"/>
      <line class="cls-4" x1="0.28" y1="532.26" x2="419.81" y2="532.26"/>
      <line class="cls-4" x1="3.07" y1="579.61" x2="422.6" y2="579.61"/>
      <line class="cls-4" x1="0.28" y1="573.7" x2="419.81" y2="573.7"/>
      <line class="cls-4" x1="0.28" y1="549.16" x2="419.81" y2="549.16"/>
      <line class="cls-4" x1="171.52" y1="384.97" x2="171.52" y2="586.93"/>
      <line class="cls-4" x1="334.37" y1="262.49" x2="334.37" y2="560.13"/>
      <line class="cls-4" x1="368.5" y1="289.29" x2="368.5" y2="586.93"/>
      <line class="cls-4" x1="28.63" y1="328.1" x2="28.63" y2="595.28"/>
      <line class="cls-4" x1="312.35" y1="444.42" x2="312.35" y2="598.26"/>
      <line class="cls-4" x1="294.25" y1="262.71" x2="291.64" y2="595.28"/>
      <line class="cls-4" x1="14.19" y1="365.58" x2="14.19" y2="598.71"/>
      <line class="cls-4" x1="48.39" y1="324.27" x2="48.39" y2="598.29"/>
      <line class="cls-4" x1="72.14" y1="297.64" x2="72.14" y2="599.73"/>
      <line class="cls-4" x1="0.14" y1="418.38" x2="256.22" y2="418.38"/>
      <line class="cls-4" x1="345.53" y1="407.61" x2="418.27" y2="407.61"/>
      <line class="cls-4" x1="218.66" y1="388.34" x2="418.27" y2="388.34"/>
      <line class="cls-4" x1="119.98" y1="425.5" x2="419.67" y2="425.5"/>
      <line class="cls-4" x1="-1.26" y1="407.61" x2="323.22" y2="407.61"/>
      <line class="cls-4" x1="-1.76" y1="443.38" x2="417.77" y2="443.38"/>
      <line class="cls-4" x1="-0.42" y1="355.69" x2="223.39" y2="355.69"/>
      <line class="cls-4" x1="81.24" y1="482.38" x2="421.9" y2="482.38"/>
      <line class="cls-4" x1="-0.42" y1="507.14" x2="419.11" y2="507.14"/>
      <line class="cls-4" x1="-0.42" y1="507.14" x2="419.11" y2="507.14"/>
      <line class="cls-4" x1="2.37" y1="502.39" x2="421.9" y2="502.39"/>
      <line class="cls-4" x1="-0.42" y1="471.62" x2="354.92" y2="471.62"/>
      <line class="cls-4" x1="2.37" y1="518.96" x2="421.9" y2="518.96"/>
      <line class="cls-4" x1="-0.42" y1="513.05" x2="419.11" y2="513.05"/>
      <line class="cls-4" x1="-0.42" y1="488.51" x2="419.11" y2="488.51"/>
      <line class="cls-4" x1="21.81" y1="452.34" x2="419.11" y2="452.34"/>
      <line class="cls-4" x1="2.79" y1="551.38" x2="422.32" y2="551.38"/>
      <line class="cls-4" y1="576.14" x2="419.53" y2="576.14"/>
      <line class="cls-4" y1="576.14" x2="419.53" y2="576.14"/>
      <line class="cls-4" x1="2.79" y1="571.38" x2="422.32" y2="571.38"/>
      <line class="cls-4" y1="540.61" x2="419.53" y2="540.61"/>
      <line class="cls-4" x1="2.79" y1="587.96" x2="422.32" y2="587.96"/>
      <line class="cls-4" y1="582.05" x2="419.53" y2="582.05"/>
      <line class="cls-4" y1="557.51" x2="419.53" y2="557.51"/>
      <line class="cls-4" y1="521.34" x2="419.53" y2="521.34"/>
      <line class="cls-4" x1="419.83" y1="548.51" x2="0.31" y2="552.04"/>
      <line class="cls-4" x1="422.42" y1="523.73" x2="2.9" y2="527.25"/>
      <line class="cls-4" x1="420" y1="485.95" x2="0.28" y2="485.95"/>
      <line class="cls-4" x1="419.66" y1="528.51" x2="0.15" y2="532.03"/>
      <line class="cls-4" x1="422.72" y1="559.25" x2="3.2" y2="562.78"/>
      <line class="cls-4" x1="425.52" y1="511.94" x2="6.01" y2="515.46"/>
      <line class="cls-4" x1="428.37" y1="517.82" x2="8.85" y2="521.34"/>
      <line class="cls-4" x1="422.57" y1="542.36" x2="3.06" y2="545.89"/>
      <line class="cls-4" x1="422.88" y1="578.52" x2="3.36" y2="582.05"/>
      <line class="cls-4" x1="2.79" y1="551.38" x2="422.32" y2="551.38"/>
      <line class="cls-4" y1="576.14" x2="419.53" y2="576.14"/>
      <line class="cls-4" y1="576.14" x2="419.53" y2="576.14"/>
      <line class="cls-4" x1="2.79" y1="571.38" x2="422.32" y2="571.38"/>
      <line class="cls-4" y1="540.61" x2="419.53" y2="540.61"/>
      <line class="cls-4" x1="2.79" y1="587.96" x2="422.32" y2="587.96"/>
      <line class="cls-4" y1="582.05" x2="419.53" y2="582.05"/>
      <line class="cls-4" y1="557.51" x2="419.53" y2="557.51"/>
      <line class="cls-4" y1="521.34" x2="419.53" y2="521.34"/>
      <line class="cls-4" x1="161.45" y1="433.26" x2="161.45" y2="598.19"/>
      <line class="cls-4" x1="77.6" y1="280.71" x2="77.6" y2="595.28"/>
      <line class="cls-4" x1="391.96" y1="280.71" x2="389.46" y2="597.5"/>
      <line class="cls-4" x1="-3.29" y1="580.83" x2="416.24" y2="580.83"/>
      <line class="cls-4" x1="-3.29" y1="580.83" x2="416.24" y2="580.83"/>
      <line class="cls-4" x1="-0.5" y1="592.64" x2="419.03" y2="592.64"/>
      <line class="cls-4" x1="-3.29" y1="586.74" x2="416.24" y2="586.74"/>
      <line class="cls-4" x1="419.58" y1="583.21" x2="0.07" y2="586.74"/>
      <line class="cls-4" x1="-3.29" y1="580.83" x2="416.24" y2="580.83"/>
      <line class="cls-4" x1="-3.29" y1="580.83" x2="416.24" y2="580.83"/>
      <line class="cls-4" x1="-0.5" y1="592.64" x2="419.03" y2="592.64"/>
      <line class="cls-4" x1="-3.29" y1="586.74" x2="416.24" y2="586.74"/>
      <line class="cls-4" x1="-3.57" y1="589.18" x2="415.96" y2="589.18"/>
      <line class="cls-4" x1="-3.57" y1="589.18" x2="415.96" y2="589.18"/>
      <line class="cls-4" x1="-0.78" y1="584.42" x2="418.75" y2="584.42"/>
      <line class="cls-4" x1="13.63" y1="467.36" x2="433.16" y2="467.36"/>
      <line class="cls-4" x1="419.3" y1="591.56" x2="-0.21" y2="595.09"/>
      <line class="cls-4" x1="-3.57" y1="589.18" x2="415.96" y2="589.18"/>
      <line class="cls-4" x1="-3.57" y1="589.18" x2="415.96" y2="589.18"/>
      <line class="cls-4" x1="-0.78" y1="584.42" x2="418.75" y2="584.42"/>
      <line class="cls-4" x1="184.72" y1="381.65" x2="420" y2="381.65"/>
      <line class="cls-4" x1="213.94" y1="250.43" x2="211.18" y2="602.21"/>
      <line class="cls-4" x1="262.2" y1="311.42" x2="259.85" y2="611.09"/>
    </g>
  </g>
</svg>
