<?xml version="1.0" encoding="utf-8"?>
<!-- Generator: Adobe Illustrator 22.0.1, SVG Export Plug-In . SVG Version: 6.00 Build 0)  -->
<svg version="1.1" id="Calque_1" xmlns="http://www.w3.org/2000/svg" xmlns:xlink="http://www.w3.org/1999/xlink" x="0px" y="0px"
	 viewBox="0 0 419.5 595.3" style="enable-background:new 0 0 419.5 595.3;" xml:space="preserve">
<style type="text/css">
	.st0{fill:none;}
	.st1{fill:#141412;}
	.st2{fill:#FFFFFF;}
	.st3{clip-path:url(#SVGID_2_);}
	.st4{fill:#FFFFFF;stroke:#141412;stroke-miterlimit:10;}
	.st5{fill:none;stroke:#141412;stroke-miterlimit:10;}
</style>
<title>Plan de travail 1</title>
<g id="Calque_1_1_">
	<g>
		<rect y="0" class="st0" width="419.5" height="595.3"/>
		<g>
			<polygon class="st1" points="93.7,89.2 63.9,139.2 93.7,189.2 123.5,139.4 			"/>
			<polygon class="st1" points="153.2,-10.7 123.5,39.3 153.2,89.3 183.1,39.5 			"/>
			<polygon class="st1" points="34,189.3 4.3,239.3 34,289.3 63.9,239.5 			"/>
			<polygon class="st1" points="93.6,189.3 63.9,239.3 93.6,289.3 123.5,239.5 			"/>
			<polygon class="st1" points="34,289.4 4.3,339.4 34,389.4 63.8,339.6 			"/>
			<polygon class="st1" points="153.3,89.3 123.6,139.3 153.3,189.3 183.2,139.5 			"/>
			<polygon class="st1" points="153.3,189.2 123.6,239.2 153.3,289.2 183.2,239.4 			"/>
			<polygon class="st1" points="212.9,89.3 183.1,139.3 212.9,189.3 242.7,139.5 			"/>
			<polygon class="st1" points="93.7,289.3 63.9,339.3 93.7,389.3 123.5,339.5 			"/>
			<polygon class="st1" points="153.3,289.4 123.6,339.4 153.3,389.4 183.2,339.6 			"/>
			<polygon class="st1" points="93.7,389.5 63.9,439.5 93.7,489.5 123.5,439.7 			"/>
			<polygon class="st1" points="213,189.3 183.2,239.3 213,289.3 242.8,239.5 			"/>
			<polygon class="st1" points="212.9,289.3 183.1,339.3 212.9,389.3 242.7,339.5 			"/>
			<polygon class="st1" points="272.5,189.4 242.7,239.4 272.5,289.4 302.3,239.6 			"/>
			<polygon class="st1" points="153.3,389.4 123.5,439.4 153.3,489.4 183.1,439.6 			"/>
			<polygon class="st1" points="212.9,389.5 183.1,439.5 212.9,489.5 242.7,439.7 			"/>
			<polygon class="st1" points="153.2,488.6 123.5,538.6 153.2,588.6 183.1,538.8 			"/>
			<polygon class="st1" points="272.6,289.4 242.8,339.4 272.6,389.4 302.4,339.6 			"/>
			<polygon class="st1" points="272.6,389.4 242.8,439.4 272.6,489.4 302.4,439.6 			"/>
			<polygon class="st1" points="332.1,289.5 302.4,339.5 332.1,389.5 362,339.7 			"/>
			<polygon class="st1" points="212.9,489.5 183.2,539.5 212.9,589.5 242.8,539.7 			"/>
			<polygon class="st1" points="272.5,489.6 242.8,539.6 272.5,589.6 302.4,539.8 			"/>
			<polygon class="st1" points="212.9,589.7 183.2,639.7 212.9,689.7 242.7,639.9 			"/>
			<polygon class="st1" points="332.2,389.5 302.5,439.5 332.2,489.5 362.1,439.7 			"/>
			<polygon class="st1" points="212.9,-10.8 183.1,39.2 212.9,89.2 242.7,39.4 			"/>
			<polygon class="st1" points="272.6,-10.9 242.8,39.1 272.6,89.1 302.4,39.3 			"/>
			<polygon class="st1" points="332.2,-10.9 302.4,39.1 332.2,89.1 362,39.3 			"/>
			<polygon class="st1" points="272.5,89.2 242.8,139.2 272.5,189.2 302.4,139.4 			"/>
			<polygon class="st1" points="391.9,-11.1 362.1,38.9 391.9,88.9 421.7,39.1 			"/>
			<polygon class="st1" points="332.2,89 302.5,139 332.2,189 362.1,139.2 			"/>
			<polygon class="st1" points="391.8,89.1 362.1,139.1 391.8,189.1 421.7,139.3 			"/>
			<polygon class="st1" points="332.2,189.2 302.4,239.2 332.2,289.2 362,239.4 			"/>
			<polygon class="st1" points="391.9,189.1 362.1,239.1 391.9,289.1 421.7,239.3 			"/>
			<polygon class="st1" points="391.9,289.2 362.1,339.2 391.9,389.2 421.7,339.4 			"/>
			<polygon class="st1" points="391.7,388.3 361.9,438.3 391.7,488.3 421.5,438.5 			"/>
			<polygon class="st1" points="332.1,488.3 302.4,538.3 332.1,588.3 361.9,538.5 			"/>
			<polygon class="st1" points="272.5,588.4 242.7,638.4 272.5,688.4 302.3,638.6 			"/>
			<polygon class="st1" points="391.7,488.3 361.9,538.3 391.7,588.3 421.5,538.5 			"/>
			<polygon class="st1" points="332.1,588.4 302.3,638.4 332.1,688.4 361.9,638.6 			"/>
			<polygon class="st1" points="391.8,588.4 362,638.4 391.8,688.4 421.6,638.6 			"/>
			<polygon class="st1" points="33.9,389.6 4.2,439.6 33.9,489.6 63.8,439.8 			"/>
			<polygon points="34,488.4 4.3,538.3 34,588.3 63.9,538.5 			"/>
			<polygon class="st1" points="34.1,588.3 4.3,638.3 34.1,688.3 63.9,638.5 			"/>
			<polygon points="93.6,488.4 63.8,538.4 93.6,588.4 123.4,538.6 			"/>
			<polygon class="st1" points="93.7,588.4 63.9,638.4 93.7,688.4 123.5,638.6 			"/>
			<polygon class="st1" points="153.3,588.5 123.5,638.5 153.3,688.5 183.1,638.7 			"/>
			<polygon class="st1" points="34.1,-10.8 4.3,39.2 34.1,89.2 63.9,39.4 			"/>
			<polygon class="st1" points="34.1,89.3 4.3,139.3 34.1,189.3 63.9,139.5 			"/>
			<polygon class="st1" points="93.7,-10.7 64,39.3 93.7,89.3 123.6,39.5 			"/>
		</g>
	</g>
</g>
<g id="Calque_2_1_">
	<g>
		<rect y="844.7" class="st2" width="419.5" height="595.9"/>
		<g>
			<g>
				<defs>
					<rect id="SVGID_1_" y="844.7" width="419.5" height="595.9"/>
				</defs>
				<clipPath id="SVGID_2_">
					<use xlink:href="#SVGID_1_"  style="overflow:visible;"/>
				</clipPath>
				<g class="st3">
					<path class="st4" d="M84.6,743.4c13.4,6.8,32.9,0.8,41.6,13.5c7.9,11.6-1.2,28.1-12.7,35.7s-25.6,11-34.9,21.4
						c-3.9,4.4-7.1,10.1-12.5,12.1c-8.6,3.1-16.9-4.8-22.8-12c-10.5,17.9-25.9,32-42.1,44.2c-18,13.6-37.3,25.5-57.7,35.3
						c13.8,7.1,30.1-1.2,42.5-10.9s24.9-21.4,40.3-21.8c5.2-0.1,10.9,1,15.2-2.1c2.2-1.6,3.7-4.1,5.4-6.3
						c8.8-11,23.7-13.3,37.2-14.9c7.1-0.8,15.1-1.3,20.5,3.6c5.4,4.9,3.5,17.2-3.7,16.8c4.6,4.3,7.1,10.5,6.9,16.8
						c-11.4-0.8-22.9,5.5-29,15.8c-6.2,10.5-6.4,23.5-6.5,35.9c4.2,0.5,7.1-4.6,7.4-9.1s-0.8-9.2,0.8-13.4
						c4.5-11.7,21.7-6.3,32.4-11.9c4.6-2.4,8-7,12.9-8.6c3.1-1,6.4-0.8,9.6-0.5l23.9,2c-7.4,5.7-8.9,18.3-3,25.7
						c8.9-18.5,28-29,46.9-34.6s38.8-7.5,57.2-14.8c6.3-2.5,13.7-5.5,19.2-1.6c0.4-12.2,9.4-23.5,20.7-26c3.8,5.2,5,11.9,3.1,18.1
						l7.2-2.6l7,8.6c-11.1,11.4-19.4,25.2-24.1,40.4c1.3,3.1,5.9,3.8,7.9,1.2c15-19,34.7-33.7,57.1-42.8c1.4-0.7,3-1,4.5-0.7
						c2.1,0.6,3.4,2.8,4.4,4.8c13.9,29.8,15.6,63.9,4.8,95c-2,5.6-4.4,12-1.8,17.4l12.5-6.8c-12.1,20.8,2.9,49.5-6.6,71.8
						c-3.1,7.4-8.9,13.8-9.4,21.9c-0.4,5.8,2,12.1-0.6,17.2c-1.5,2.9-4.2,4.7-6.1,7.3c-5.4,7.7-1.1,18.5,2.5,27.3s5.4,21.3-2.4,26.2
						c1.9,2.7,5.4,3.7,8.5,2.7c2,3.3,1.9,7.4-0.4,10.5c1.6,2.6,4.2,4.3,7.2,4.9c0.4-22.1-1.7-44.1-6-65.7c5.3-9.2,14.4-15.1,22-22.2
						s14.4-17.4,12.3-28c-1.4-6.6-3.9-16.8,2.4-17.3c1.9-0.2,3.7,1.1,5.2,2.3c12.4,9.9,22,22.9,27.7,37.7
						c5.8,14.9,9.6,33.7,23.9,39.4c-2.8-30.6-9.7-60.7-20.3-89.5c7.5-3.1,6.2-15.2,1.3-22c-4.9-6.8-12.2-12.4-13.2-20.8
						c-0.3-1.5-0.1-3,0.5-4.4c1.8-3.7,7.1-3.4,10.4-1s5.6,6,9,8c4.9,2.9,11.2,2,16.1,4.8c4.1,2.3,6.7,6.7,9,10.9l24.9,44.1
						c4.6,0.9,6.4-6.7,4-10.9c-2.4-4.2-6.8-7.1-8.3-11.7c-1.2-3.9,0-8.2-0.6-12.3c-0.9-6.1-5.5-10.7-9.9-14.8L449.8,949
						c-4.5-4.2-9.1-8.6-11.5-14.4c-2.4-5.8-1.7-13.5,3-17.3c4.4,12,21.2,7.2,32.9,10.2c10.7,2.8,17.9,13.2,24.1,22.8
						c6.2-2.9,6.2-13,1.9-18.5c-4.3-5.5-11.2-8-17.4-11c-17.5-8.6-31.9-24.2-39.5-43c-1.2-3-2.3-6.3-1.5-9.4
						c1.8-7.3,11.7-8.3,17.8-4.4c6.1,3.9,10.1,10.6,15.9,14.8c1.2,1,2.6,1.6,4.1,1.7c4.6,0,5.9-7.3,3.2-11.3
						c-2.7-4-7.3-5.8-10.7-9.1c-3.4-3.2-5.3-9.7-1.6-12.6l19,12l-21.4-58.6c-4.6-12.6-9.5-25.7-18.8-35
						c-9.5-9.5-22.6-14.1-32.8-22.6c-10.9-9.1-18.1-22.1-26.1-34c-12-17.8-26.5-33.7-43-47.3c-8.8-7.2-19.8-14.1-30.6-11.2
						c-11.2,3-17.9,15.2-21.1,26.9s-4.5,24.4-10.6,34.7c5.8,9.5,1.4,24.1-8.5,28.3c-8.9,3.7-18.8-0.5-28.2-2.6
						c-13.3-3-27.2-1.8-39.9,3.5c-20.2,8.4-35.4,26-49.9,43c13.3-7.3,22.8-20.6,35.6-28.8c19.4-12.4,43.7-11.4,66.3-10
						c5.5,0.3,11.3,0.8,15.9,4s7.2,10.3,4.1,15.1c-1.8,2.7-4.9,4-7.8,5.2l-32,12.7c2.6,2,4.3,5.1,4.4,8.4
						c-9.8,1.4-19.1,5.4-26.9,11.6l29.8,3.1c4.7,0.5,9.5,1,14.1-0.2c8.9-2.2,16.4-10.3,25.5-9.4c0.1,3.4-1.6,6.6-3.3,9.5
						c-5,8.7-10.1,17.6-17.8,23.7c-7.7,6-18.7,8.5-27,3.4c-3.8-2.4-6.7-6.1-10.8-7.9c-8.1-3.5-17.3,2.3-22.9,9.5s-9.8,15.8-17,21.1
						s-19.4,4.8-22.7-3.8c-2-5.3,0.1-11.3,0.6-17s-2.4-13.1-7.8-12.7c1,10.4-2.4,22.4-11.4,26.6c-9,4.2-21.8-5.8-17.7-15.3
						c1.5-3.5,4.8-6.2,5-10c0.2-4.3-4.1-7.5-8.2-7.5s-7.6,2.6-10.7,5.4c-7.8-4.8-7.1-17.7-1.3-25c5.8-7.2,14.8-10.6,22.9-14.7
						c8.2-4,16.6-10,18.8-19.2c0.7-2.8,0.6-6.3-1.6-8.1c3.7,1.3,7.5-2.6,8.4-6.7c1-4,0.3-8.4,1.1-12.5c2.8-14.1,19.8-18.1,33.4-19
						l5.4-0.4c-10.7-2.6-16.4-18-10.2-27.6l45.3,18.1c3.5,1.4,7.7,2.8,10.9,0.6c2-1.4,3.1-3.8,4.3-6.1c7.5-14.4,23.3-23.5,38.9-22.1
						c-6.7-5.3-15.8,0.5-23.1,4.8c-17.3,10.2-38.4,11.8-57.1,4.2c-9.8-4.1-21.2-10.5-30-4.3c-3.8,2.7-6,7.2-8.1,11.5l-11.3,23.6
						c-2.4,5-4.9,10.1-8.9,13.7C135.3,748.7,100.6,724.2,84.6,743.4z M395.8,1041.7c-0.4,1.9-1.1,3.7-2.1,5.4
						c-3.2,5.7-7.5,10.8-12.6,14.9l1.5-1.6c-4.7-5.2-3.3-13.9-0.2-20.2c3.2-6.4,7.9-12.2,9.2-19.2c1.1-5.9,0.3-13.3,5.1-16.5
						c1.8,8.8-2.8,17.9-1.9,26.8C395.2,1034.8,396.4,1038.3,395.8,1041.7z M421.1,980.3c0.9-0.6,1.9-0.9,2.9-0.9
						c1.3,0.3,2.4,1,3.3,2c2.8,2.6,5.6,5.4,7.1,8.9c1.5,3.6,1.4,8.3-1.3,11c-1.5,1.5-3.8,2.3-4.8,4.3c-1.5,2.8,0.2,6.2,1.8,8.8
						l14.3,23.3c1.3,2.1,2.3,5.6,0.1,6.6c-7.2-9.4-14.1-19.1-20.7-28.9c-1.2-0.1-2.4,0.3-3.2,1.2c-2.8-0.8-2.4-5.4-4.4-7.7
						c-2.4-2.9-7.3-1-10.4-3c-2.6-1.7-3.2-5.7-2.1-8.7s3.5-5.3,5.8-7.5C413.1,986.2,416.8,982.8,421.1,980.3z M437.2,883.6
						c1.5,2.5,3.9,4.4,5.7,6.7c1.5,2.1,2.8,4.4,3.8,6.8l4.2,9.2c-8.1-2.8-15.4-7.5-21.4-13.7l3,1.3l-4.3-2.1
						c-0.2,4.8,3.5,9,3.4,13.7c-0.1,3.9-2.6,7.1-4.2,10.6c-2,4.4-2.5,9.2-1.6,13.9c0.5,2.5,1.4,4.9,1.5,7.4s-0.9,5.4-3.1,6.4
						c-4-1.1-6.2-6-6.2-10.4s1.5-8.7,2.3-13s0.7-9.3-2.1-12.6c-2.1-2.4-5.2-3.5-7.6-5.6c-2.8-2.4-4.3-6-5.7-9.5
						c-0.7-1.7-1.4-3.5-1-5.3c0.5-1.6,1.4-3.1,2.6-4.2c3.3-3.6,7.8-7.4,12.3-5.8c2.1,0.8,3.9,2.7,6.1,2.3c3.5-0.7,3.4-6.1,2.3-9.6
						c-1.1-3.6-1.7-8.8,1.7-10C435.8,864.8,432.9,876.4,437.2,883.6L437.2,883.6z M441.3,761.9c0.9-0.1,1.7,0.3,2.2,1
						c6.5,6.3,8.4,16.2,12.5,24.5c2.6,5.2,6.2,10,8.3,15.5c2.1,5.5,2.5,12.3-1.1,16.9l2-1.1c-4.8,5.4-1.3,14.9-4.9,21.3
						c-2.2,3.8-6.6,5.6-10.8,4.4c-4.2-1.6-6.8-5.6-6.7-10c0.2-4.9,3.9-9.5,2.8-14.3c-0.9-3.8-4.3-6.1-6.9-8.9
						c-5.5-6-7.3-15-6.4-23.3s4.1-16.1,7.2-23.8C440,763.1,440.5,762.1,441.3,761.9L441.3,761.9z M366.1,821.1
						c3-1.8,6.8-3.3,9.9-1.6c2.1,1.2,3.3,3.5,4.5,5.7c3.6,6.5,8.4,12.7,14.9,15.7c6.5,3.1,15,2.3,19.8-3.4
						c-0.2,15.3-5.6,30.1-15.2,42.1c-2,2.5-4.3,4.9-5.3,8.1c-3.3,10,7.5,19.4,7.4,30c0,4.7-2.2,9.1-1.9,13.8
						c0.7,8.9,10,14.2,12.7,22.7c2.3,7.1-0.6,15.1-5.4,20.6c-4.1,4.6-9.4,7.8-14.7,10.6c-0.1,0.5-0.2,1-0.4,1.5h-2.6l3-1.6
						c2.2-10.1,0.2-20.7-5.7-29.2c-1.2-1.7-2.5-3.4-2.6-5.4c-0.2-5.1,6.9-6.7,8.9-11.2c1-2.3,0.6-5,0.2-7.6l-10-58.4
						c-1.1-6.2-2.2-12.5-5.2-17.9c-6.4-11.3-21.7-15.8-32.7-9.5C349.6,835.7,356.7,826.9,366.1,821.1L366.1,821.1z M216,836.5
						c2-0.9,4.1-1.2,6.3-1c6.5,0.2,14.3,2.2,16,8.9c-0.9,4-6.4,3.5-10.2,4.2s-6.9,3.8-10.1,6.3c-3.1,2.5-7.1,4.7-10.9,3.4l-2.8,1.6
						c2.1-5.3,4.2-10.5,6.3-15.8C211.8,841.2,213.3,838,216,836.5z"/>
				</g>
			</g>
		</g>
		<rect y="844.7" class="st5" width="419.5" height="595.9"/>
	</g>
</g>
</svg>
