<?xml version="1.0" encoding="utf-8"?>
<!-- Generator: Adobe Illustrator 22.0.1, SVG Export Plug-In . SVG Version: 6.00 Build 0)  -->
<svg version="1.1" id="Calque_1" xmlns="http://www.w3.org/2000/svg" xmlns:xlink="http://www.w3.org/1999/xlink" x="0px" y="0px"
	 viewBox="0 0 419.5 595.3" style="enable-background:new 0 0 419.5 595.3;" xml:space="preserve">
<style type="text/css">
	.st0{fill:#FFFFFF;}
	.st1{clip-path:url(#SVGID_2_);}
	.st2{fill:#FFFFFF;stroke:#141412;stroke-miterlimit:10;}
	.st3{fill:none;stroke:#141412;stroke-miterlimit:10;}
	.st4{clip-path:url(#SVGID_4_);}
</style>
<title>Plan de travail 3</title>
<g>
	<rect x="8" y="-750.9" class="st0" width="419.5" height="595.9"/>
	<g>
		<defs>
			<rect id="SVGID_1_" x="8" y="-750.9" width="419.5" height="595.9"/>
		</defs>
		<clipPath id="SVGID_2_">
			<use xlink:href="#SVGID_1_"  style="overflow:visible;"/>
		</clipPath>
		<g class="st1">
			<g>
				<path class="st2" d="M135-84.6l0.3-0.1l-0.6-0.2L135-84.6z"/>
				<path class="st2" d="M429.2-278.9c-11.5,4.9-18.7,20.3-31.2,19.1c-11.3-1.1-16.1-15.5-14.2-26.7c1.9-11.2,7.7-21.9,6.6-33.2
					c-0.4-4.8-2.1-9.8-0.2-14.2c2.9-7,12.2-8.1,19.8-8.1c-4.8-16-4.6-33.1-2.9-49.7c1.9-18.6,5.6-36.9,11-54.8
					c-11.9,5-16,19.6-17.1,32.4c-1.1,12.8-1.1,26.9-9.4,36.8c-2.8,3.3-6.7,6.3-7.2,10.7c-0.3,2.2,0.4,4.5,0.7,6.7
					c1.7,11.3-5.2,21.9-11.8,31.2c-3.5,4.9-7.6,10.2-13.5,11c-5.9,0.8-12.1-6.8-8-11.1c-5,0.6-10.1-1-13.8-4.4
					c6.8-7,9.4-17.1,6.7-26.5c-2.7-9.4-10.4-16.4-17.7-22.9c-2.7,2.4-1.2,6.9,1.3,9.5c2.5,2.5,5.9,4.3,7.5,7.5
					c4.5,9-8.3,16.9-10.9,26.6c-1.1,4.1-0.3,8.7-2,12.6c-1.1,2.5-3.1,4.4-5,6.3l-14.4,14c0.7-7.6-5.9-15.2-13.6-15.4
					c6.1,15.3,1.7,32.9-5.5,47.7c-7.2,14.8-17.1,28.3-22.9,43.8c-2,5.3-4.3,11.5-9.7,12.9c7.1,7,8.7,17.9,4,26.6
					c-5.2-0.3-9.9-3.1-12.5-7.6l-2.5,5.9l-9-0.1c-0.6-12.8-4.2-25.3-10.6-36.4c-2.2-0.5-4.5,0.8-5.1,3.1c-0.1,0.4-0.1,0.8-0.1,1.3
					c2.9,19.7,0.7,39.8-6.3,58.4c-0.3,1.3-1.1,2.4-2.1,3.2c-1.5,1-3.5,0.7-5.3,0.2c-25.3-6.8-46.7-23.7-59.1-46.8
					c-2.2-4.2-4.7-9-9.3-10.2l-2.9,11.4c-5.7-18.5-31.1-24.2-39-41.8c-2.6-5.8-3.2-12.9-7.8-17.4c-3.2-3.3-8.3-5-9.9-9.4
					c-0.9-2.4-0.4-5.1-1-7.6c-1.6-7.5-10.4-10.4-17.6-12.7S40-305,41.4-312.5c-2.7-0.1-5.2,1.4-6.3,3.9c-3.1-0.4-5.5-2.7-6.1-5.8
					c-2.5-0.3-5,0.4-6.9,1.9c12.9,11.8,27.2,22.1,42.4,30.7c2.6,8.2,1,17,1,25.5c0,8.5,2.4,18.2,9.8,22.4c4.7,2.6,12.2,6.4,9,10.6
					c-1,1.3-2.7,1.8-4.3,2.1c-12.6,2.6-25.7,1.8-37.9-2.4C30.1-227.6,16.8-235,5.5-229C25.3-214.7,47-203.3,70-194.9
					c-2.3,6.3,5.5,11.9,12.3,12.4s14.2-1.1,19.8,2.6c1,0.6,1.9,1.5,2.3,2.6c1.2,3.1-2,6.3-5.2,7.1s-6.7,0.4-9.8,1.5
					c-4.4,1.6-7.4,6-11.8,7.6c-3.6,1.4-7.7,0.7-11.5,0l-40-7.5c-3,2.4,0.4,7.5,4.2,8.2c3.8,0.7,8-0.6,11.6,0.9
					c3,1.3,4.9,4.3,7.7,6.1c4.1,2.6,9.4,2.1,14.3,1.5l40.3-5c5-0.6,10.2-1.2,14.9,0.3c4.8,1.6,9,6,8.6,11c-9.5-3.6-16,9.5-24.4,15.4
					c-7.6,5.3-17.8,4.3-27,3.2c-1.7,5.4,4.3,10.7,10,10.9c5.7,0.2,10.9-2.9,16.2-5.2c15-6.5,31.9-7.4,47.5-2.3c2.4,0.8,5,1.9,6.5,4
					c3.3,4.9-1.6,11.7-7.2,13.5c-5.7,1.8-11.9,0.8-17.6,2.3c-1.2,0.2-2.4,0.8-3.3,1.7c-2.5,2.9,1.1,7.6,4.9,8
					c3.8,0.4,7.5-1.5,11.3-2s8.7,1.7,8.4,5.6l-17.7,5.6l46.7,17.3c10.1,3.7,20.6,7.5,31.3,6.5c10.9-1,20.9-6.8,31.7-8.8
					c11.4-2.1,23.2,0.2,34.8,1.4c17.4,1.8,34.9,1,52.1-2.3c9.2-1.8,19.3-5.1,23.7-13.4c4.5-8.6,0.9-19.2-4.3-27.4
					s-12-15.6-14.8-24.9c-8.9-1.3-15.2-11.8-12.1-20.2c2.7-7.6,10.7-11.6,17.2-16.4c9.2-6.8,16.1-16.2,20.1-26.9
					c6.2-17.1,4.2-35.9,2.1-54c-3.1,12.2-0.4,25.2-2.6,37.5c-3.4,18.7-17.4,33.5-30.8,47c-3.3,3.3-6.7,6.7-11.2,7.9
					c-4.5,1.2-10.1-0.8-11.2-5.3c-0.6-2.6,0.3-5.2,1.3-7.7l10.2-26.8c-2.6,0.6-5.3-0.1-7.4-1.8c4.6-6.9,7.4-14.8,8.1-23l-18.4,17.1
					c-2.9,2.7-5.8,5.5-7.7,9c-3.6,6.7-3,15.7-8.5,21c-2.1-1.7-3-4.5-3.8-7.1c-2.4-7.7-4.9-15.6-4.2-23.6s5.3-16.3,13-18.7
					c3.5-1.1,7.4-1,10.6-2.6c6.6-3.3,8.2-12.1,7.1-19.4c-1.1-7.3-4-14.5-3.1-21.8c0.9-7.3,7.9-14.7,14.8-12.3c4.3,1.5,6.7,6,9.8,9.3
					c3.1,3.3,9.1,5.3,11.9,1.7c-6.7-4.8-12-13.3-9.5-21.2c2.5-7.9,15.6-10.7,18.9-3.1c1.2,2.8,1,6.3,3.2,8.4c2.5,2.3,6.8,1.4,9-1.2
					c2.2-2.6,2.7-6.2,2.7-9.6c7.2-2.4,14.5,4.8,15.6,12.3c1.1,7.5-1.9,14.9-4,22.1c-2.1,7.3-3.3,15.6,1,21.9
					c1.3,1.9,3.4,3.7,5.7,3.3c-2.9,1.7-2.6,6.1-0.7,8.8c1.9,2.7,4.8,4.6,6.8,7.2c6.9,9.2-0.2,21.9-7.2,31l-2.8,3.6
					c7.5-5.3,19.8-0.8,22.1,8.1l-36,19c-2.8,1.5-5.9,3.4-6.4,6.5c-0.3,2,0.6,4,1.2,5.9c4.4,12.6,1.1,26.7-8.4,36.1
					c6.9-1.4,8.5-10.2,10-17.1c3.6-16.4,14.3-30.3,29.2-38.1c7.9-4,18-7.8,19.2-16.6c0.5-3.8-0.9-7.5-2.3-11.1l-7.9-19.5
					c-1.6-4.1-3.3-8.4-3.3-12.8C397.9-249.8,431.8-258.7,429.2-278.9z M79-239.5c-0.9-1.3-1.6-2.7-2-4.2c-1.6-5.1-2.3-10.4-1.9-15.7
					l0.1,1.8c5.7-0.2,10.1,5.2,12.1,10.5c2,5.3,2.8,11.3,6.3,15.9c2.9,3.8,7.7,7.1,7,11.8c-6.3-3.5-9.1-11.1-14.9-15.3
					C83.4-236.3,80.7-237.3,79-239.5z M101.5-191.4c-0.1,0.9-0.5,1.7-1.1,2.3c-0.9,0.6-1.9,1-3,1c-3.1,0.4-6.3,0.7-9.3-0.2
					c-3-0.9-5.7-3.4-5.8-6.6c-0.1-1.8,0.7-3.6,0.1-5.3c-0.8-2.4-3.8-3.1-6.3-3.5l-21.8-3.2c-2-0.3-4.6-1.5-4-3.4
					c9.6,0.4,19.2,1.1,28.7,2.1c0.7-0.7,1.1-1.6,1.1-2.6c2.1-1.3,4.5,1.3,7,1.3c3.1,0,4.6-4,7.6-4.9c2.5-0.8,5.1,1,6.3,3.3
					c1.2,2.3,1.2,5,1.2,7.5C102.5-199.5,102.3-195.4,101.5-191.4z M150.1-130.5c-2.4-0.4-4.8,0.2-7.2,0.1c-2.1-0.2-4.1-0.6-6.1-1.2
					l-7.8-2.2c6.1-3.6,12.9-5.7,20-6.3l-2.5,1.2l3.6-1.6c-2.7-2.6-7.3-2.5-10.1-5.1c-2.3-2.1-2.8-5.4-4-8.2c-1.5-3.5-4-6.4-7.3-8.3
					c-1.8-1-3.7-1.7-5.3-2.9c-1.6-1.3-2.7-3.4-2.1-5.3c2.9-2,7-0.7,9.7,1.6c2.7,2.3,4.3,5.5,6.4,8.3s5.2,5.3,8.7,5.3
					c2.6,0,5-1.4,7.5-1.8c3-0.5,6,0.5,8.8,1.4c1.4,0.3,2.7,1,3.7,2.1c0.7,1.2,1,2.5,1,3.8c0.3,4,0.1,8.8-3.4,10.7
					c-1.6,0.9-3.8,1-4.7,2.6c-1.6,2.6,1.7,5.3,4.5,6.5c2.8,1.2,6.2,3.6,5,6.3C162-121.6,156.7-129.5,150.1-130.5z M220.2-64.1
					c-0.4,0.6-1.1,0.9-1.9,0.9c-7.4,0.8-14.3-3.2-21.5-5c-4.6-1.1-9.4-1.3-13.8-2.9s-8.7-4.9-9.5-9.5l-0.4,1.8
					c-0.5-5.9-8.2-8.6-9.9-14.3c-1.3-4.2,1.1-8.6,5.2-9.9c2.8-0.8,5.8-0.1,7.8,1.9c2.8,2.7,3.5,7.4,7,9.3c2.7,1.4,6,0.5,9.1,0.3
					c6.6-0.4,13,3.3,17.4,8.2s7.3,11,10.2,17.1C220.3-65.6,220.4-64.8,220.2-64.1L220.2-64.1z M226.7-142.4c-0.6,2.9-1.8,6-4.5,7.1
					c-1.9,0.7-3.9,0.2-5.9-0.2c-5.9-1.2-12.2-1.4-17.7,1.1c-5.4,2.5-9.7,8.3-9,14.2c-9-8.3-14.9-19.5-16.6-31.6
					c-0.4-2.6-0.6-5.3-1.8-7.6c-4.1-7.3-15.7-5.5-22-11.1c-2.7-2.5-4.2-6.2-7.1-8.4c-5.7-4.2-14-1.2-20.6-3.9
					c-5.5-2.2-8.6-8.3-9.2-14.2c-0.5-5,0.6-10,1.8-14.9c-0.2-0.3-0.5-0.7-0.7-1l1.4-1.7c-0.2,0.9-0.5,1.8-0.7,2.7
					c4.8,6.7,12.3,11,20.6,11.7c1.6,0.1,3.4,0.2,4.7,1.2c3.1,2.5,0.2,7.8,1.7,11.5c0.8,1.9,2.6,3,4.4,4.1l40.3,24.4
					c4.3,2.6,8.7,5.2,13.6,6.1c10.3,1.9,21.5-5.4,23.8-15.6C227.2-160.4,228.5-151.2,226.7-142.4z M300.9-245
					c-0.6,1.7-1.6,3.2-2.9,4.5c-3.7,4-9.3,7.8-14.1,5.4c-1.9-2.7,1.5-5.8,3.2-8.7c1.7-2.8,1.6-6.4,1.8-9.7c0.3-3.3,1.2-7,4-8.7
					l0.5-2.6c2,4.1,4,8.2,5.9,12.3C300.4-250.1,301.5-247.5,300.9-245z"/>
			</g>
			<path class="st2" d="M107.9-80.5c-4.3,0.9-7.3-4.3-7.8-8.7c-0.4-4.4,0-9.4-3.1-12.5c-0.8-0.8-2.4-1.4-3.2-0.5
				c-0.3,0.4-0.4,0.8-0.5,1.2l-1.9,8.9c-3.8,1.3-7.8-1.2-11.1-3.5l-14-9.9c-8.5-6-17.6-12.3-28.1-13c-0.8,4.2,0.5,8.6,3.6,11.6
				c3,3,7.1,4.6,11.4,4.4c2.3-0.1,5.2-0.2,6.1,1.8c0.6,1.4-0.1,3-0.5,4.4s-0.4,3.4,1,4c0.4,0.1,0.8,0.2,1.2,0.2
				c9.7,0.7,18.8,4.7,25.9,11.3c-1.1,2.2-3,3.8-5.2,4.7v2.1l17.6,0.2c1,0.1,2.1-0.1,3-0.6c1.9-1.2,2.5-4.7,4.7-4.3"/>
			<path class="st2" d="M338.5-105.6c-0.5-3.5-1.1-7.2-0.3-10.6s3-6.9,6.5-7.9c5.1-1.5,10,2.7,13.8,6.5c2.8-5.1,7.3-9.6,13-10.9
				c5.7-1.3,12.4,1.2,14.8,6.4c1.5,3.3,1.4,7.3,3.4,10.4c4,6.1,14,4.8,19.2,10s3.5,14.8,8.8,19.9c3.2,3.1,8,3.7,12.2,5.2
				c6.4,2.3,11.7,7,14.9,13.1"/>
			<g>
				<path class="st2" d="M135-84.6l0.3-0.1l-0.6-0.2L135-84.6z"/>
				<path class="st2" d="M429.2-278.9c-11.5,4.9-18.7,20.3-31.2,19.1c-11.3-1.1-16.1-15.5-14.2-26.7c1.9-11.2,7.7-21.9,6.6-33.2
					c-0.4-4.8-2.1-9.8-0.2-14.2c2.9-7,12.2-8.1,19.8-8.1c-4.8-16-4.6-33.1-2.9-49.7c1.9-18.6,5.6-36.9,11-54.8
					c-11.9,5-16,19.6-17.1,32.4c-1.1,12.8-1.1,26.9-9.4,36.8c-2.8,3.3-6.7,6.3-7.2,10.7c-0.3,2.2,0.4,4.5,0.7,6.7
					c1.7,11.3-5.2,21.9-11.8,31.2c-3.5,4.9-7.6,10.2-13.5,11c-5.9,0.8-12.1-6.8-8-11.1c-5,0.6-10.1-1-13.8-4.4
					c6.8-7,9.4-17.1,6.7-26.5c-2.7-9.4-10.4-16.4-17.7-22.9c-2.7,2.4-1.2,6.9,1.3,9.5c2.5,2.5,5.9,4.3,7.5,7.5
					c4.5,9-8.3,16.9-10.9,26.6c-1.1,4.1-0.3,8.7-2,12.6c-1.1,2.5-3.1,4.4-5,6.3l-14.4,14c0.7-7.6-5.9-15.2-13.6-15.4
					c6.1,15.3,1.7,32.9-5.5,47.7c-7.2,14.8-17.1,28.3-22.9,43.8c-2,5.3-4.3,11.5-9.7,12.9c7.1,7,8.7,17.9,4,26.6
					c-5.2-0.3-9.9-3.1-12.5-7.6l-2.5,5.9l-9-0.1c-0.6-12.8-4.2-25.3-10.6-36.4c-2.2-0.5-4.5,0.8-5.1,3.1c-0.1,0.4-0.1,0.8-0.1,1.3
					c2.9,19.7,0.7,39.8-6.3,58.4c-0.3,1.3-1.1,2.4-2.1,3.2c-1.5,1-3.5,0.7-5.3,0.2c-25.3-6.8-46.7-23.7-59.1-46.8
					c-2.2-4.2-4.7-9-9.3-10.2l-2.9,11.4c-5.7-18.5-31.1-24.2-39-41.8c-2.6-5.8-3.2-12.9-7.8-17.4c-3.2-3.3-8.3-5-9.9-9.4
					c-0.9-2.4-0.4-5.1-1-7.6c-1.6-7.5-10.4-10.4-17.6-12.7S40-305,41.4-312.5c-2.7-0.1-5.2,1.4-6.3,3.9c-3.1-0.4-5.5-2.7-6.1-5.8
					c-2.5-0.3-5,0.4-6.9,1.9c12.9,11.8,27.2,22.1,42.4,30.7c2.6,8.2,1,17,1,25.5c0,8.5,2.4,18.2,9.8,22.4c4.7,2.6,12.2,6.4,9,10.6
					c-1,1.3-2.7,1.8-4.3,2.1c-12.6,2.6-25.7,1.8-37.9-2.4C30.1-227.6,16.8-235,5.5-229C25.3-214.7,47-203.3,70-194.9
					c-2.3,6.3,5.5,11.9,12.3,12.4s14.2-1.1,19.8,2.6c1,0.6,1.9,1.5,2.3,2.6c1.2,3.1-2,6.3-5.2,7.1s-6.7,0.4-9.8,1.5
					c-4.4,1.6-7.4,6-11.8,7.6c-3.6,1.4-7.7,0.7-11.5,0l-40-7.5c-3,2.4,0.4,7.5,4.2,8.2c3.8,0.7,8-0.6,11.6,0.9
					c3,1.3,4.9,4.3,7.7,6.1c4.1,2.6,9.4,2.1,14.3,1.5l40.3-5c5-0.6,10.2-1.2,14.9,0.3c4.8,1.6,9,6,8.6,11c-9.5-3.6-16,9.5-24.4,15.4
					c-7.6,5.3-17.8,4.3-27,3.2c-1.7,5.4,4.3,10.7,10,10.9c5.7,0.2,10.9-2.9,16.2-5.2c15-6.5,31.9-7.4,47.5-2.3c2.4,0.8,5,1.9,6.5,4
					c3.3,4.9-1.6,11.7-7.2,13.5c-5.7,1.8-11.9,0.8-17.6,2.3c-1.2,0.2-2.4,0.8-3.3,1.7c-2.5,2.9,1.1,7.6,4.9,8
					c3.8,0.4,7.5-1.5,11.3-2s8.7,1.7,8.4,5.6l-17.7,5.6l46.7,17.3c10.1,3.7,20.6,7.5,31.3,6.5c10.9-1,20.9-6.8,31.7-8.8
					c11.4-2.1,23.2,0.2,34.8,1.4c17.4,1.8,34.9,1,52.1-2.3c9.2-1.8,19.3-5.1,23.7-13.4c4.5-8.6,0.9-19.2-4.3-27.4
					s-12-15.6-14.8-24.9c-8.9-1.3-15.2-11.8-12.1-20.2c2.7-7.6,10.7-11.6,17.2-16.4c9.2-6.8,16.1-16.2,20.1-26.9
					c6.2-17.1,4.2-35.9,2.1-54c-3.1,12.2-0.4,25.2-2.6,37.5c-3.4,18.7-17.4,33.5-30.8,47c-3.3,3.3-6.7,6.7-11.2,7.9
					c-4.5,1.2-10.1-0.8-11.2-5.3c-0.6-2.6,0.3-5.2,1.3-7.7l10.2-26.8c-2.6,0.6-5.3-0.1-7.4-1.8c4.6-6.9,7.4-14.8,8.1-23l-18.4,17.1
					c-2.9,2.7-5.8,5.5-7.7,9c-3.6,6.7-3,15.7-8.5,21c-2.1-1.7-3-4.5-3.8-7.1c-2.4-7.7-4.9-15.6-4.2-23.6s5.3-16.3,13-18.7
					c3.5-1.1,7.4-1,10.6-2.6c6.6-3.3,8.2-12.1,7.1-19.4c-1.1-7.3-4-14.5-3.1-21.8c0.9-7.3,7.9-14.7,14.8-12.3c4.3,1.5,6.7,6,9.8,9.3
					c3.1,3.3,9.1,5.3,11.9,1.7c-6.7-4.8-12-13.3-9.5-21.2c2.5-7.9,15.6-10.7,18.9-3.1c1.2,2.8,1,6.3,3.2,8.4c2.5,2.3,6.8,1.4,9-1.2
					c2.2-2.6,2.7-6.2,2.7-9.6c7.2-2.4,14.5,4.8,15.6,12.3c1.1,7.5-1.9,14.9-4,22.1c-2.1,7.3-3.3,15.6,1,21.9
					c1.3,1.9,3.4,3.7,5.7,3.3c-2.9,1.7-2.6,6.1-0.7,8.8c1.9,2.7,4.8,4.6,6.8,7.2c6.9,9.2-0.2,21.9-7.2,31l-2.8,3.6
					c7.5-5.3,19.8-0.8,22.1,8.1l-36,19c-2.8,1.5-5.9,3.4-6.4,6.5c-0.3,2,0.6,4,1.2,5.9c4.4,12.6,1.1,26.7-8.4,36.1
					c6.9-1.4,8.5-10.2,10-17.1c3.6-16.4,14.3-30.3,29.2-38.1c7.9-4,18-7.8,19.2-16.6c0.5-3.8-0.9-7.5-2.3-11.1l-7.9-19.5
					c-1.6-4.1-3.3-8.4-3.3-12.8C397.9-249.8,431.8-258.7,429.2-278.9z M79-239.5c-0.9-1.3-1.6-2.7-2-4.2c-1.6-5.1-2.3-10.4-1.9-15.7
					l0.1,1.8c5.7-0.2,10.1,5.2,12.1,10.5c2,5.3,2.8,11.3,6.3,15.9c2.9,3.8,7.7,7.1,7,11.8c-6.3-3.5-9.1-11.1-14.9-15.3
					C83.4-236.3,80.7-237.3,79-239.5z M101.5-191.4c-0.1,0.9-0.5,1.7-1.1,2.3c-0.9,0.6-1.9,1-3,1c-3.1,0.4-6.3,0.7-9.3-0.2
					c-3-0.9-5.7-3.4-5.8-6.6c-0.1-1.8,0.7-3.6,0.1-5.3c-0.8-2.4-3.8-3.1-6.3-3.5l-21.8-3.2c-2-0.3-4.6-1.5-4-3.4
					c9.6,0.4,19.2,1.1,28.7,2.1c0.7-0.7,1.1-1.6,1.1-2.6c2.1-1.3,4.5,1.3,7,1.3c3.1,0,4.6-4,7.6-4.9c2.5-0.8,5.1,1,6.3,3.3
					c1.2,2.3,1.2,5,1.2,7.5C102.5-199.5,102.3-195.4,101.5-191.4z M150.1-130.5c-2.4-0.4-4.8,0.2-7.2,0.1c-2.1-0.2-4.1-0.6-6.1-1.2
					l-7.8-2.2c6.1-3.6,12.9-5.7,20-6.3l-2.5,1.2l3.6-1.6c-2.7-2.6-7.3-2.5-10.1-5.1c-2.3-2.1-2.8-5.4-4-8.2c-1.5-3.5-4-6.4-7.3-8.3
					c-1.8-1-3.7-1.7-5.3-2.9c-1.6-1.3-2.7-3.4-2.1-5.3c2.9-2,7-0.7,9.7,1.6c2.7,2.3,4.3,5.5,6.4,8.3s5.2,5.3,8.7,5.3
					c2.6,0,5-1.4,7.5-1.8c3-0.5,6,0.5,8.8,1.4c1.4,0.3,2.7,1,3.7,2.1c0.7,1.2,1,2.5,1,3.8c0.3,4,0.1,8.8-3.4,10.7
					c-1.6,0.9-3.8,1-4.7,2.6c-1.6,2.6,1.7,5.3,4.5,6.5c2.8,1.2,6.2,3.6,5,6.3C162-121.6,156.7-129.5,150.1-130.5z M220.2-64.1
					c-0.4,0.6-1.1,0.9-1.9,0.9c-7.4,0.8-14.3-3.2-21.5-5c-4.6-1.1-9.4-1.3-13.8-2.9s-8.7-4.9-9.5-9.5l-0.4,1.8
					c-0.5-5.9-8.2-8.6-9.9-14.3c-1.3-4.2,1.1-8.6,5.2-9.9c2.8-0.8,5.8-0.1,7.8,1.9c2.8,2.7,3.5,7.4,7,9.3c2.7,1.4,6,0.5,9.1,0.3
					c6.6-0.4,13,3.3,17.4,8.2s7.3,11,10.2,17.1C220.3-65.6,220.4-64.8,220.2-64.1L220.2-64.1z M226.7-142.4c-0.6,2.9-1.8,6-4.5,7.1
					c-1.9,0.7-3.9,0.2-5.9-0.2c-5.9-1.2-12.2-1.4-17.7,1.1c-5.4,2.5-9.7,8.3-9,14.2c-9-8.3-14.9-19.5-16.6-31.6
					c-0.4-2.6-0.6-5.3-1.8-7.6c-4.1-7.3-15.7-5.5-22-11.1c-2.7-2.5-4.2-6.2-7.1-8.4c-5.7-4.2-14-1.2-20.6-3.9
					c-5.5-2.2-8.6-8.3-9.2-14.2c-0.5-5,0.6-10,1.8-14.9c-0.2-0.3-0.5-0.7-0.7-1l1.4-1.7c-0.2,0.9-0.5,1.8-0.7,2.7
					c4.8,6.7,12.3,11,20.6,11.7c1.6,0.1,3.4,0.2,4.7,1.2c3.1,2.5,0.2,7.8,1.7,11.5c0.8,1.9,2.6,3,4.4,4.1l40.3,24.4
					c4.3,2.6,8.7,5.2,13.6,6.1c10.3,1.9,21.5-5.4,23.8-15.6C227.2-160.4,228.5-151.2,226.7-142.4z M300.9-245
					c-0.6,1.7-1.6,3.2-2.9,4.5c-3.7,4-9.3,7.8-14.1,5.4c-1.9-2.7,1.5-5.8,3.2-8.7c1.7-2.8,1.6-6.4,1.8-9.7c0.3-3.3,1.2-7,4-8.7
					l0.5-2.6c2,4.1,4,8.2,5.9,12.3C300.4-250.1,301.5-247.5,300.9-245z"/>
			</g>
		</g>
	</g>
	<rect x="8" y="-750.9" class="st3" width="419.5" height="595.9"/>
</g>
<g>
	<defs>
		<rect id="SVGID_3_" x="0" y="1" width="419.5" height="594.3"/>
	</defs>
	<clipPath id="SVGID_4_">
		<use xlink:href="#SVGID_3_"  style="overflow:visible;"/>
	</clipPath>
	<g class="st4">
		<line class="st3" x1="171.8" y1="311" x2="61.1" y2="422.1"/>
		<line class="st3" x1="196.5" y1="289.1" x2="96.8" y2="429.3"/>
		<line class="st3" x1="192.3" y1="297.6" x2="100" y2="449.9"/>
		<line class="st3" x1="198.2" y1="292" x2="113.5" y2="459.6"/>
		<line class="st3" x1="196.9" y1="296.3" x2="126.4" y2="453.2"/>
		<line class="st3" x1="186" y1="328.2" x2="136.3" y2="460.2"/>
		<line class="st3" x1="183.2" y1="302.3" x2="72.3" y2="426.7"/>
		<path class="st2" d="M38.9,454.6c-11.4-7.5-13.9-25.4-5.1-35.7s26.9-10.6,36.1-0.5c4.5-13.2,18.9-20.3,32.1-15.8
			c4.5,1.5,8.6,4.4,11.6,8.1c3.5,4.4,5.5,10.6,3.1,15.7c5.9-1.1,12.3-1.3,17.9,0.9c5.6,2.2,10.5,7.2,11.2,13.2
			c0.8,6-3.5,12.6-9.5,13.3c8.5,1.3,17.7,3.7,22.7,10.7c5,7,1.9,19.5-6.7,20.2c10.3,7.5,12.6,21.9,5.2,32.2
			c-4.2,5.8-11,9.4-18.2,9.5c-2.8,15.9-17.9,26.6-33.8,23.8c-4.9-0.8-9.5-2.9-13.3-6c-3.8,3.5-8.6,7.3-13.5,5.7
			c-1.9-0.8-3.6-2-5-3.6c-5.5-5.7-9.6-12.5-12.1-20c-6.8,2.3-14.5,3.3-20.9,0.1c-6.4-3.1-10.6-11.4-7.5-17.8
			c-11,0.7-22.7-2.4-30.3-10.5s-9.5-21.6-2.8-30.3c-6.1-3.8-4.8-13.8,0.6-18.5c5.4-4.8,13.1-5.6,20.3-6.3c-2.6-3-3.7-7.5-2-11
			s6.8-5.3,10-3"/>
		<path class="st2" d="M347,189.8c-6.2-4.1-7.6-13.8-2.8-19.4c4.8-5.6,14.7-5.8,19.6-0.3c2.5-7.2,10.3-11.1,17.5-8.6
			c2.5,0.8,4.6,2.4,6.3,4.4c1.9,2.4,3,5.8,1.7,8.5c3.2-0.8,6.6-0.6,9.7,0.5c3.1,1.2,5.7,3.9,6.1,7.2c0.4,3.3-1.9,6.9-5.2,7.2
			c4.6,0.7,9.7,2,12.4,5.8s1,10.6-3.7,11c5.6,4.1,6.9,11.9,2.8,17.5c-2.3,3.2-6,5.1-9.9,5.2c-1.5,8.7-9.7,14.5-18.4,13
			c-2.7-0.5-5.1-1.6-7.2-3.3c-2,1.9-4.7,4-7.4,3.1c-1-0.4-2-1.1-2.7-2c-3-3.1-5.2-6.8-6.6-10.9c-3.7,1.3-7.9,1.8-11.4,0.1
			c-3.5-1.7-5.8-6.2-4.1-9.7c-6,0.4-12.4-1.3-16.5-5.7s-5.2-11.7-1.5-16.5c-3.3-2.1-2.6-7.5,0.3-10.1s7.1-3,11-3.4
			c-1.5-1.6-1.9-4-1.1-6c1-1.9,3.7-2.9,5.4-1.6"/>
		<line class="st3" x1="284" y1="381.8" x2="322.8" y2="468.5"/>
		<line class="st3" x1="274.6" y1="350.2" x2="343.8" y2="441.4"/>
		<line class="st3" x1="272.2" y1="344.9" x2="362.4" y2="441.9"/>
		<line class="st3" x1="278.6" y1="347.3" x2="376.2" y2="432.6"/>
		<line class="st3" x1="284.1" y1="350.2" x2="376.3" y2="421.5"/>
		<line class="st3" x1="298.1" y1="357" x2="386.3" y2="414.7"/>
		<line class="st3" x1="282.8" y1="369" x2="331.4" y2="460.4"/>
		<line class="st3" x1="301.9" y1="186.1" x2="400.7" y2="108.1"/>
		<line class="st3" x1="280.1" y1="197.6" x2="367.8" y2="95.4"/>
		<line class="st3" x1="272.5" y1="204.7" x2="365.4" y2="76"/>
		<line class="st3" x1="268.6" y1="207.1" x2="353.1" y2="64.8"/>
		<line class="st3" x1="283.6" y1="177.7" x2="340.9" y2="68.4"/>
		<line class="st3" x1="291.9" y1="151.8" x2="331.9" y2="60.4"/>
		<line class="st3" x1="287.2" y1="193.5" x2="390.4" y2="102"/>
		<line class="st3" x1="96.8" y1="106.1" x2="38.4" y2="22.3"/>
		<line class="st3" x1="101.9" y1="119.5" x2="22.3" y2="52"/>
		<line class="st3" x1="106.3" y1="124.4" x2="4.8" y2="56"/>
		<line class="st3" x1="104.8" y1="125.6" x2="-6.9" y2="67.8"/>
		<line class="st3" x1="95.7" y1="122.2" x2="-5.6" y2="77.9"/>
		<line class="st3" x1="88.8" y1="121.3" x2="-14" y2="86.5"/>
		<line class="st3" x1="101.3" y1="117.1" x2="31.5" y2="31.7"/>
		<path class="st2" d="M161.5,582.5c-10.2-5.1-10.8-19.9-1.3-29.5s27-11.7,34.8-4.1c3.7-7.5,11.8-13.8,20.6-16.1
			c8.7-2.2,17.6-0.2,22.3,5.1c3,3.3,4.2,8.3,1.4,12.9c5.8-1.6,12-2.4,17.2-1.1c5.2,1.3,9.3,5,9.5,9.9c0.1,4.9-4.6,10.9-10.5,12.1
			c8.1,0.2,16.7,1.3,20.8,6.7s-0.2,16.2-8.5,17.6c6.9,3.9,9.3,12.6,5.6,20.6s-13.1,14.6-22.4,15.8c-2.7,8.5-10.6,16.7-20.1,20.6
			c-9.5,4-20.2,3.6-27.1-0.9c-4,3.3-9.1,7-13.6,6.2c-1.7-0.4-3.2-1.3-4.4-2.5c-4.6-4.1-8-9.5-9.6-15.5c-6.8,2.7-14.3,4.2-20.2,2.2
			s-9.1-8.5-5.4-14.2c-10.7,1.7-21.7,0.3-28.1-5.7c-6.4-6-7-17.1,0.4-25.2c-5.5-2.6-3.2-11.1,2.5-15.6c5.7-4.5,13.2-6,20.2-7.3
			c-2.4-2.5-2.7-6.2-0.8-9.1c2.1-3.2,7.1-5.1,9.9-3.5"/>
		<path class="st2" d="M92.3,48.9c-1.5-3.4-4.5-6.3-4.8-10c-0.2-2.1,0.5-4.2,0.7-6.4c0.7-8.2-8.4-15.7-16.3-13.3
			c1.4-4.4-1.2-9.2-4.9-11.8c-3.7-2.7-8.3-3.6-12.8-4.5L22.7-3.6c-4.8-1-12,0-11.4,4.9C5.7,0.5-0.4-0.2-5,2.9
			c-5.3,3.6-4,12.2-9.6,15.3c-4.3-3-9.9-3.2-14.5-0.6c-4.4,2.7-6.9,7.8-6.3,13c-5.4,0.6-10,4.2-12,9.2c-1.4,3.7-1.3,7.7-0.8,11.6
			c0.9,6.8,2.4,13.4,4.6,19.9c3.4,9.8,8.5,20.2,17.4,25.9c4.5,2.9,9.8,4.4,15.2,4.5c3.2,5.1,7.5,9.3,12.7,12.3
			c-1.5,1.2-2.5,2.9-2.9,4.8c-0.3,1.4-0.3,2.9-0.7,4.3c-0.5,1.3-1,2.6-1.7,3.8c-3.7,8.3,1.3,19.4,10.1,22.1c2.3,0.7,5,0.8,7.1-0.4
			s3.2-4.3,1.8-6.3c2.2,1.3,4.7,2.5,7.2,2.1s4.8-3,3.9-5.4c2.4-1.4,6,0.9,8.1-1c0.5-0.6,0.9-1.3,1.1-2.1c0.7-3.1-0.1-6.3-2-8.8
			c1.6,1.7,4.9,1.2,6.4-0.8c1.6-2.1,1.5-5.1,0.8-7.7c-0.2-1.2-0.8-2.2-1.8-2.8c-0.9-0.4-2,0-3-0.5c-0.7-0.5-1.3-1.3-1.6-2.1
			c-0.4-0.7-0.9-1.3-1.4-1.9c0.1-0.7,0.4-1.4,0.8-1.9c0.8-0.6,1.9-0.9,2.9-0.7l13.6,0.2c10.6,0.2,19.2-8.3,19.4-18.8
			c0-0.3,0-0.6,0-0.9c0-0.3,0-0.7,0-1c6,0.2,12.4-1.5,16.5-6c4-4.5,4.7-12.1,0.4-16.4C92.4,62.5,94.9,55.2,92.3,48.9z"/>
		<path class="st2" d="M356.6,16.7c-4.1-2.4-9-4.2-13.5-3s-8.2,6.6-6.1,10.9c-9.7-0.3-17.2,12-12.5,20.5c-6.6,5.8-9.4,14.8-7.1,23.3
			c2.5,8.4,9.6,14.7,18.2,16.1c-2.9,7.4-5.7,16.4-1.1,22.9c2.1,3,5.5,4.9,8.9,6.3c8.4,3.4,17.7,4.2,26.5,2.2
			c1.3,6.2,8.8,8.7,15,10.1c4.1,0.9,8.5,1.7,12.3,0s6-7.3,3-10.3c12.2,7.3,26.3,10.8,40.5,10.3c1.5,0.1,3-0.3,4.2-1.2
			c1.1-1.1,1.7-2.6,1.8-4.1c1.1-6.9,0.5-14.1-1.9-20.7c11.4,3.3,24.9,0.3,32.2-9s5.8-25-4.3-31.2c5.9,5.6,16.8,1.4,19.9-6.2
			s0.1-16.4-4.6-23.1c-9.4-13.1-24.7-20.6-40.8-19.9c2-2.6,1.4-6.5-0.7-9.1c-2-2.6-5.2-4-8.3-5C431.8-5.4,424.8-6,417.9-5
			c-1.3,0.2-2.8,0.5-3.5,1.6c-0.8,1.1-0.1,3.1,1.2,2.9c2.7-3.1-1.6-7.4-5.4-9c-8.3-3.4-17.2-5.4-26.2-5.8c-5.3-0.2-12,1.1-13.2,6.2
			c-0.4,1.7-0.1,3.5-0.7,5.1c-0.9,2.3-3.3,3.5-5.2,4.9c-5.2,3.7-8.2,9.7-8.2,16.1"/>
		<path class="st2" d="M454.8,436.7c-3-9.5-10.4-18.3-20.2-20c-0.9-14.5-18.2-25.2-31.6-19.6c-4.1-3.6-8.8-7-14.3-7.3
			s-11.4,4-10.8,9.4c-7.8-3.3-16.8-0.5-21.2,6.7c-3.3,5.7-3.3,13.5-8.6,17.6l0.7-0.7c-7.8-1.2-15.7,6.2-14.8,14.1
			c-4.2-3.5-11.2-1.2-14.4,3.3s-3.6,10.4-3.9,15.9c-0.5,8.8-1,17.8,0.7,26.4c1,5,2.9,9.9,5.6,14.2c-2.6-1.1-5.3-1.8-8.1-2
			c-3.4-0.4-7.1-0.6-10.1,1.2c-4.8,2.9-5.5,9.4-5.5,15c0,4.6,0.1,9.6,2.7,13.5c2.6,3.8,8.6,5.7,12,2.6c6.3,6.2,16.1,7.3,23.5,2.4
			c1.8,3,5.8,4,9.3,3.8c3.5-0.2,7-1.3,10.5-1.3c3.8,0.1,7.4,1.5,11.2,1.3c3.7-0.5,6.6-3.2,7.4-6.8v-0.1c0.3-1.5,1.3-2.6,2.8-3
			c6.8-1.7,4.9,1.8,12.9,2c0.9,0,1.8-0.3,2.4-0.9c1.5-0.5,1.4-5.2,1.5-8.6c0-2.7-0.1-5.2-2.1-7c2.7,1.7,5.7,2.8,8.9,3.2
			c4,0.3,8.4-1.9,9.3-5.8l14-0.1c12-0.1,21.1-11.5,17.9-23c-0.1-0.3-0.1-0.5-0.2-0.8c-0.7-3.2-0.2-7.2-0.7-10.4
			c-0.4-2.4,1.2-4.8,3.7-5.2c0.2,0,0.4-0.1,0.7-0.1h0.1c6.2-0.1,11.2-5.1,11.2-11.3C457.3,448.9,456.5,442.7,454.8,436.7z"/>
	</g>
</g>
</svg>
