<svg xmlns="http://www.w3.org/2000/svg" xmlns:xlink="http://www.w3.org/1999/xlink" width="148mm" height="210mm" viewBox="0 0 419.53 595.28">
  <defs>
    <style>
      .cls-1, .cls-2, .cls-4, .cls-6, .cls-7 {
        fill: none;
      }

      .cls-2, .cls-4, .cls-6, .cls-7, .cls-9 {
        stroke: #141412;
        stroke-miterlimit: 10;
      }

      .cls-2 {
        stroke-width: 0.5px;
      }

      .cls-3 {
        clip-path: url(#clip-path);
      }

      .cls-5 {
        clip-path: url(#clip-path-2);
      }

      .cls-6 {
        stroke-width: 0.45px;
      }

      .cls-7 {
        stroke-width: 0.31px;
      }

      .cls-8 {
        clip-path: url(#clip-path-3);
      }

      .cls-9 {
        fill: #fff;
      }

      .cls-10 {
        clip-path: url(#clip-path-4);
      }
    </style>
    <clipPath id="clip-path">
      <rect class="cls-1" x="-439.53" y="-615.28" width="419.53" height="595.28"/>
    </clipPath>
    <clipPath id="clip-path-2">
      <rect class="cls-1" y="-0.59" width="417.88" height="594.47"/>
    </clipPath>
    <clipPath id="clip-path-3">
      <rect class="cls-1" x="-439.53" width="419.53" height="593.88"/>
    </clipPath>
    <clipPath id="clip-path-4">
      <rect class="cls-1" y="615.28" width="417.88" height="595.16"/>
    </clipPath>
  </defs>
  <title>Plan de travail 10</title>
  <g id="Calque_2" data-name="Calque 2">
    <line class="cls-2" x1="23.25" y1="32.79" x2="23.25" y2="98.96"/>
    <line class="cls-2" x1="408.91" y1="117.1" x2="410.5" y2="9.73"/>
    <g class="cls-3">
      <polygon class="cls-4" points="-20.1 22.62 -70.25 -11.68 -126.93 10.18 -109.8 -48.11 -148.11 -95.26 -87.38 -96.98 -54.37 -147.98 -33.97 -90.76 24.74 -75.13 -23.38 -38.04 -20.1 22.62"/>
    </g>
    <line class="cls-2" x1="25.36" y1="101.51" x2="25.36" y2="208.9"/>
    <line class="cls-2" x1="23.25" y1="32.79" x2="23.25" y2="98.96"/>
    <line class="cls-2" x1="8.43" y1="-3.9" x2="8.43" y2="62.26"/>
    <line class="cls-2" x1="8.43" y1="-3.9" x2="8.43" y2="62.26"/>
    <line class="cls-2" x1="6.4" y1="2.02" x2="6.4" y2="62.93"/>
    <line class="cls-2" x1="4.37" y1="-9.81" x2="4.37" y2="62.93"/>
    <line class="cls-2" x1="4.37" y1="55.54" x2="4.37" y2="121.71"/>
    <line class="cls-2" x1="6.45" y1="3.87" x2="6.45" y2="64.79"/>
    <line class="cls-2" x1="1.01" y1="-5.81" x2="1.01" y2="64.12"/>
    <line class="cls-2" x1="12.98" y1="1.64" x2="12.98" y2="87.97"/>
    <line class="cls-2" x1="12.98" y1="1.64" x2="12.98" y2="87.97"/>
    <line class="cls-2" x1="15.01" y1="9.36" x2="15.01" y2="88.84"/>
    <line class="cls-2" x1="17.04" y1="-6.07" x2="17.04" y2="88.84"/>
    <line class="cls-2" x1="14.96" y1="11.78" x2="14.96" y2="91.26"/>
    <line class="cls-2" x1="4.19" y1="34.67" x2="4.19" y2="79.29"/>
    <line class="cls-2" x1="11.61" y1="19.26" x2="11.61" y2="77.84"/>
    <line class="cls-2" x1="9.73" y1="33.26" x2="9.73" y2="81.1"/>
    <line class="cls-2" x1="6.45" y1="119.14" x2="6.45" y2="256.24"/>
    <line class="cls-2" x1="10.67" y1="76.7" x2="10.67" y2="221.6"/>
    <line class="cls-2" x1="27.53" y1="198.32" x2="27.53" y2="278.37"/>
    <line class="cls-2" x1="19.19" y1="114.61" x2="17.88" y2="281.44"/>
    <line class="cls-2" x1="404.65" y1="180.13" x2="404.6" y2="132.4"/>
    <line class="cls-2" x1="401.53" y1="180.4" x2="401.47" y2="119.91"/>
    <line class="cls-2" x1="402.33" y1="144.19" x2="402.28" y2="96.45"/>
    <line class="cls-2" x1="399.21" y1="144.45" x2="399.15" y2="83.97"/>
    <g class="cls-5">
      <line class="cls-2" x1="36.12" y1="32.79" x2="36.12" y2="98.96"/>
      <line class="cls-2" x1="36.12" y1="32.79" x2="36.12" y2="98.96"/>
      <line class="cls-2" x1="34.09" y1="38.71" x2="34.09" y2="99.63"/>
      <line class="cls-2" x1="32.06" y1="26.88" x2="32.06" y2="99.63"/>
      <line class="cls-2" x1="34.14" y1="40.57" x2="34.14" y2="101.48"/>
      <line class="cls-2" x1="28.7" y1="30.88" x2="28.7" y2="100.81"/>
      <line class="cls-2" x1="40.67" y1="38.33" x2="40.67" y2="124.66"/>
      <line class="cls-2" x1="40.67" y1="38.33" x2="40.67" y2="124.66"/>
      <line class="cls-2" x1="42.7" y1="46.06" x2="42.7" y2="125.53"/>
      <line class="cls-2" x1="44.73" y1="30.62" x2="44.73" y2="125.53"/>
      <line class="cls-2" x1="42.65" y1="48.48" x2="42.65" y2="127.96"/>
      <line class="cls-2" x1="31.88" y1="71.37" x2="31.88" y2="115.99"/>
      <line class="cls-2" x1="39.3" y1="55.95" x2="39.3" y2="114.53"/>
      <line class="cls-2" x1="7.35" y1="65.64" x2="55.09" y2="65.64"/>
      <line class="cls-2" x1="7.09" y1="62.52" x2="67.58" y2="62.52"/>
      <line class="cls-2" x1="37.42" y1="69.96" x2="37.42" y2="117.8"/>
      <line class="cls-2" x1="-0.76" y1="14.3" x2="65.41" y2="14.44"/>
      <line class="cls-2" x1="-0.76" y1="14.3" x2="65.41" y2="14.44"/>
      <line class="cls-2" x1="5.15" y1="16.34" x2="66.07" y2="16.48"/>
      <line class="cls-2" x1="-6.68" y1="18.35" x2="66.07" y2="18.51"/>
      <line class="cls-2" x1="-0.79" y1="27.17" x2="65.38" y2="27.32"/>
      <line class="cls-2" x1="7.01" y1="16.3" x2="67.93" y2="16.43"/>
      <line class="cls-2" x1="-2.68" y1="21.72" x2="67.25" y2="21.88"/>
      <line class="cls-2" x1="4.79" y1="9.77" x2="91.12" y2="9.96"/>
      <line class="cls-2" x1="4.79" y1="9.77" x2="91.12" y2="9.96"/>
      <line class="cls-2" x1="12.52" y1="7.75" x2="92" y2="7.93"/>
      <line class="cls-2" x1="-2.91" y1="5.68" x2="92" y2="5.89"/>
      <line class="cls-2" x1="14.94" y1="7.81" x2="94.42" y2="7.98"/>
      <line class="cls-2" x1="37.81" y1="18.63" x2="82.43" y2="18.73"/>
      <line class="cls-2" x1="22.41" y1="11.18" x2="80.99" y2="11.31"/>
      <line class="cls-2" x1="32.03" y1="43.15" x2="32.13" y2="-4.59"/>
      <line class="cls-2" x1="28.9" y1="43.4" x2="29.04" y2="-17.09"/>
      <line class="cls-2" x1="36.41" y1="13.08" x2="84.25" y2="13.19"/>
      <line class="cls-2" x1="66.63" y1="100.56" x2="132.79" y2="101.44"/>
      <line class="cls-2" x1="66.63" y1="100.56" x2="132.79" y2="101.44"/>
      <line class="cls-2" x1="72.52" y1="102.67" x2="133.43" y2="103.48"/>
      <line class="cls-2" x1="60.66" y1="104.54" x2="133.4" y2="105.51"/>
      <line class="cls-2" x1="66.46" y1="113.43" x2="132.62" y2="114.31"/>
      <line class="cls-2" x1="74.38" y1="102.64" x2="135.29" y2="103.45"/>
      <line class="cls-2" x1="64.62" y1="107.96" x2="134.55" y2="108.89"/>
      <line class="cls-2" x1="72.23" y1="96.09" x2="158.55" y2="97.24"/>
      <line class="cls-2" x1="72.23" y1="96.09" x2="158.55" y2="97.24"/>
      <line class="cls-2" x1="79.98" y1="94.16" x2="159.45" y2="95.22"/>
      <line class="cls-2" x1="64.58" y1="91.92" x2="159.48" y2="93.18"/>
      <line class="cls-2" x1="81.78" y1="83" x2="161.25" y2="84.06"/>
      <line class="cls-2" x1="105.14" y1="105.32" x2="149.76" y2="105.91"/>
      <line class="cls-2" x1="89.83" y1="97.69" x2="148.4" y2="98.47"/>
      <line class="cls-2" x1="99.09" y1="129.77" x2="99.73" y2="82.03"/>
      <line class="cls-2" x1="95.97" y1="129.99" x2="96.77" y2="69.51"/>
      <line class="cls-2" x1="103.81" y1="99.76" x2="151.64" y2="100.39"/>
      <line class="cls-2" x1="219.63" y1="99.51" x2="219.63" y2="165.67"/>
      <line class="cls-2" x1="219.63" y1="99.51" x2="219.63" y2="165.67"/>
      <line class="cls-2" x1="217.6" y1="105.43" x2="217.6" y2="166.34"/>
      <line class="cls-2" x1="215.56" y1="93.6" x2="215.56" y2="166.34"/>
      <line class="cls-2" x1="206.76" y1="99.51" x2="206.76" y2="165.67"/>
      <line class="cls-2" x1="217.65" y1="107.28" x2="217.65" y2="168.2"/>
      <line class="cls-2" x1="212.2" y1="97.6" x2="212.2" y2="167.53"/>
      <line class="cls-2" x1="224.17" y1="105.05" x2="224.17" y2="191.38"/>
      <line class="cls-2" x1="224.17" y1="105.05" x2="224.17" y2="191.38"/>
      <line class="cls-2" x1="226.21" y1="112.77" x2="226.21" y2="192.25"/>
      <line class="cls-2" x1="228.24" y1="97.34" x2="228.24" y2="192.25"/>
      <line class="cls-2" x1="226.15" y1="115.19" x2="226.15" y2="194.67"/>
      <line class="cls-2" x1="215.38" y1="138.08" x2="215.38" y2="182.7"/>
      <line class="cls-2" x1="222.8" y1="122.67" x2="222.8" y2="181.25"/>
      <line class="cls-2" x1="190.85" y1="132.36" x2="238.59" y2="132.36"/>
      <line class="cls-2" x1="190.59" y1="129.24" x2="251.08" y2="129.24"/>
      <line class="cls-2" x1="220.93" y1="136.67" x2="220.93" y2="184.51"/>
      <line class="cls-2" x1="201.88" y1="4.07" x2="201.88" y2="70.23"/>
      <line class="cls-2" x1="201.88" y1="4.07" x2="201.88" y2="70.23"/>
      <line class="cls-2" x1="199.84" y1="9.99" x2="199.84" y2="70.9"/>
      <line class="cls-2" x1="197.81" y1="-1.84" x2="197.81" y2="70.9"/>
      <line class="cls-2" x1="189" y1="4.07" x2="189" y2="70.23"/>
      <line class="cls-2" x1="199.89" y1="11.84" x2="199.89" y2="72.76"/>
      <line class="cls-2" x1="194.45" y1="2.16" x2="194.45" y2="72.09"/>
      <line class="cls-2" x1="206.42" y1="9.61" x2="206.42" y2="95.94"/>
      <line class="cls-2" x1="206.42" y1="9.61" x2="206.42" y2="95.94"/>
      <line class="cls-2" x1="208.45" y1="17.33" x2="208.45" y2="96.81"/>
      <line class="cls-2" x1="210.49" y1="1.9" x2="210.49" y2="96.81"/>
      <line class="cls-2" x1="208.4" y1="19.76" x2="208.4" y2="99.23"/>
      <line class="cls-2" x1="197.63" y1="42.64" x2="197.63" y2="87.26"/>
      <line class="cls-2" x1="205.05" y1="27.23" x2="205.05" y2="85.81"/>
      <line class="cls-2" x1="173.1" y1="36.92" x2="220.84" y2="36.92"/>
      <line class="cls-2" x1="172.84" y1="33.8" x2="233.33" y2="33.8"/>
      <line class="cls-2" x1="203.17" y1="41.24" x2="203.17" y2="89.07"/>
      <line class="cls-2" x1="268.07" y1="11.53" x2="268.07" y2="77.69"/>
      <line class="cls-2" x1="268.07" y1="11.53" x2="268.07" y2="77.69"/>
      <line class="cls-2" x1="266.03" y1="17.45" x2="266.03" y2="78.36"/>
      <line class="cls-2" x1="264" y1="5.62" x2="264" y2="78.36"/>
      <line class="cls-2" x1="255.2" y1="11.53" x2="255.2" y2="77.69"/>
      <line class="cls-2" x1="266.09" y1="19.3" x2="266.09" y2="80.22"/>
      <line class="cls-2" x1="260.64" y1="9.62" x2="260.64" y2="79.55"/>
      <line class="cls-2" x1="272.61" y1="17.07" x2="272.61" y2="103.4"/>
      <line class="cls-2" x1="272.61" y1="17.07" x2="272.61" y2="103.4"/>
      <line class="cls-2" x1="274.64" y1="24.79" x2="274.64" y2="104.27"/>
      <line class="cls-2" x1="276.68" y1="9.36" x2="276.68" y2="104.27"/>
      <line class="cls-2" x1="274.59" y1="27.22" x2="274.59" y2="106.69"/>
      <line class="cls-2" x1="263.82" y1="50.1" x2="263.82" y2="94.72"/>
      <line class="cls-2" x1="271.24" y1="34.69" x2="271.24" y2="93.27"/>
      <line class="cls-2" x1="239.29" y1="44.38" x2="287.03" y2="44.38"/>
      <line class="cls-2" x1="239.03" y1="41.26" x2="299.52" y2="41.26"/>
      <line class="cls-2" x1="269.36" y1="48.7" x2="269.36" y2="96.53"/>
      <line class="cls-2" x1="237.82" y1="1.79" x2="237.82" y2="67.95"/>
      <line class="cls-2" x1="237.82" y1="1.79" x2="237.82" y2="67.95"/>
      <line class="cls-2" x1="235.79" y1="7.7" x2="235.79" y2="68.62"/>
      <line class="cls-2" x1="233.76" y1="-4.12" x2="233.76" y2="68.62"/>
      <line class="cls-2" x1="224.95" y1="1.79" x2="224.95" y2="67.95"/>
      <line class="cls-2" x1="235.84" y1="9.56" x2="235.84" y2="70.48"/>
      <line class="cls-2" x1="230.4" y1="-0.12" x2="230.4" y2="69.81"/>
      <line class="cls-2" x1="242.37" y1="7.33" x2="242.37" y2="93.66"/>
      <line class="cls-2" x1="242.37" y1="7.33" x2="242.37" y2="93.66"/>
      <line class="cls-2" x1="244.4" y1="15.05" x2="244.4" y2="94.53"/>
      <line class="cls-2" x1="246.43" y1="-0.38" x2="246.43" y2="94.53"/>
      <line class="cls-2" x1="244.35" y1="17.47" x2="244.35" y2="96.95"/>
      <line class="cls-2" x1="233.58" y1="40.36" x2="233.58" y2="84.98"/>
      <line class="cls-2" x1="241" y1="24.95" x2="241" y2="83.53"/>
      <line class="cls-2" x1="209.05" y1="34.64" x2="256.79" y2="34.64"/>
      <line class="cls-2" x1="208.79" y1="31.52" x2="269.28" y2="31.52"/>
      <line class="cls-2" x1="239.12" y1="38.95" x2="239.12" y2="86.79"/>
      <line class="cls-2" x1="352.05" y1="90.67" x2="353.6" y2="-14.4"/>
      <line class="cls-2" x1="352.05" y1="90.67" x2="353.6" y2="-14.4"/>
      <line class="cls-2" x1="357.21" y1="81.34" x2="358.64" y2="-15.39"/>
      <line class="cls-2" x1="361.95" y1="100.2" x2="363.66" y2="-15.31"/>
      <line class="cls-2" x1="383.85" y1="91.14" x2="385.4" y2="-13.93"/>
      <line class="cls-2" x1="357.12" y1="78.39" x2="358.55" y2="-18.34"/>
      <line class="cls-2" x1="370.35" y1="93.97" x2="371.99" y2="-17.08"/>
      <line class="cls-2" x1="292.83" y1="170.18" x2="294.86" y2="33.09"/>
      <line class="cls-2" x1="292.83" y1="170.18" x2="294.86" y2="33.09"/>
      <line class="cls-2" x1="287.99" y1="157.84" x2="289.86" y2="31.63"/>
      <line class="cls-2" x1="282.6" y1="182.27" x2="284.83" y2="31.56"/>
      <line class="cls-2" x1="288.17" y1="153.99" x2="290.04" y2="27.79"/>
      <line class="cls-2" x1="321.48" y1="135.43" x2="323.51" y2="-1.66"/>
      <line class="cls-2" x1="363.44" y1="29.57" x2="364.49" y2="-41.29"/>
      <line class="cls-2" x1="321.48" y1="135.43" x2="323.51" y2="-1.66"/>
      <line class="cls-2" x1="316.64" y1="123.09" x2="318.5" y2="-3.12"/>
      <line class="cls-2" x1="311.25" y1="147.52" x2="313.63" y2="-13.33"/>
      <line class="cls-2" x1="403.42" y1="271.44" x2="210.2" y2="268.58"/>
      <line class="cls-2" x1="228.29" y1="119.94" x2="421.53" y2="121.18"/>
      <line class="cls-2" x1="419.53" y1="270.01" x2="284.47" y2="269.68"/>
      <line class="cls-2" x1="296.63" y1="142.25" x2="298.01" y2="49.23"/>
      <line class="cls-2" x1="325.95" y1="117.62" x2="327.77" y2="-5.44"/>
      <line class="cls-2" x1="316.82" y1="119.25" x2="318.69" y2="-6.96"/>
      <line class="cls-2" x1="305.7" y1="131.35" x2="308.14" y2="-33.56"/>
      <line class="cls-2" x1="423.91" y1="39.55" x2="305.97" y2="37.81"/>
      <line class="cls-2" x1="368.77" y1="35.46" x2="230.73" y2="33.41"/>
      <line class="cls-2" x1="424.48" y1="44.52" x2="275.04" y2="42.31"/>
      <line class="cls-2" x1="424.96" y1="28.05" x2="231.73" y2="25.19"/>
      <line class="cls-2" x1="423.74" y1="68.43" x2="320.66" y2="66.9"/>
      <line class="cls-2" x1="387" y1="9.52" x2="230.09" y2="7.2"/>
      <line class="cls-2" x1="423.46" y1="0.84" x2="230.23" y2="-2.01"/>
      <line class="cls-2" x1="424.53" y1="15.03" x2="260.87" y2="12.61"/>
      <line class="cls-2" x1="311.1" y1="12.2" x2="117.87" y2="9.34"/>
      <line class="cls-2" x1="312.34" y1="14.94" x2="119.12" y2="12.08"/>
      <line class="cls-2" x1="380.94" y1="6.61" x2="231.42" y2="4.4"/>
      <line class="cls-2" x1="414.16" y1="23.76" x2="231.18" y2="21.05"/>
      <line class="cls-2" x1="423.09" y1="119.78" x2="229.87" y2="116.93"/>
      <line class="cls-2" x1="312.21" y1="11.12" x2="118.98" y2="8.26"/>
      <line class="cls-2" x1="208.94" y1="272.49" x2="402.18" y2="273.73"/>
      <line class="cls-2" x1="231" y1="5.57" x2="424.31" y2="8.43"/>
      <line class="cls-2" x1="114.89" y1="9.83" x2="308.13" y2="11.06"/>
      <line class="cls-2" x1="423.09" y1="119.78" x2="229.87" y2="116.93"/>
      <line class="cls-2" x1="312.21" y1="11.12" x2="118.98" y2="8.26"/>
      <line class="cls-2" x1="349.72" y1="31.6" x2="350.84" y2="-44.37"/>
      <line class="cls-2" x1="303.07" y1="139.11" x2="305.42" y2="-19.4"/>
      <line class="cls-2" x1="338.65" y1="55.21" x2="230.29" y2="53.61"/>
      <line class="cls-2" x1="89.99" y1="73.66" x2="89.99" y2="178.74"/>
      <line class="cls-2" x1="89.99" y1="73.66" x2="89.99" y2="178.74"/>
      <line class="cls-2" x1="84.96" y1="83.06" x2="84.96" y2="179.8"/>
      <line class="cls-2" x1="79.94" y1="64.27" x2="79.94" y2="179.8"/>
      <line class="cls-2" x1="58.18" y1="73.66" x2="58.18" y2="178.74"/>
      <line class="cls-2" x1="85.09" y1="86.01" x2="85.09" y2="182.75"/>
      <line class="cls-2" x1="186.44" y1="81.05" x2="186.44" y2="187.7"/>
      <line class="cls-2" x1="71.63" y1="70.63" x2="71.63" y2="181.68"/>
      <line class="cls-2" x1="101.21" y1="82.46" x2="101.21" y2="219.56"/>
      <line class="cls-2" x1="101.21" y1="82.46" x2="101.21" y2="219.56"/>
      <line class="cls-2" x1="106.24" y1="94.73" x2="106.24" y2="220.95"/>
      <line class="cls-2" x1="111.26" y1="70.21" x2="111.26" y2="220.95"/>
      <line class="cls-2" x1="133.02" y1="82.46" x2="133.02" y2="219.56"/>
      <line class="cls-2" x1="106.11" y1="98.57" x2="106.11" y2="224.79"/>
      <line class="cls-2" x1="117.05" y1="86.31" x2="117.05" y2="225.46"/>
      <line class="cls-2" x1="119.72" y1="72.34" x2="119.72" y2="217.24"/>
      <line class="cls-2" x1="36.21" y1="66.37" x2="36.21" y2="203.47"/>
      <line class="cls-2" x1="79.49" y1="134.92" x2="79.49" y2="205.78"/>
      <line class="cls-2" x1="157.66" y1="41.43" x2="156.39" y2="203.47"/>
      <line class="cls-2" x1="36.21" y1="66.37" x2="36.21" y2="203.47"/>
      <line class="cls-2" x1="41.24" y1="78.63" x2="41.24" y2="204.85"/>
      <line class="cls-2" x1="46.26" y1="54.12" x2="46.26" y2="215"/>
      <line class="cls-2" x1="20.23" y1="183.25" x2="213.48" y2="183.25"/>
      <line class="cls-2" x1="20.23" y1="192.46" x2="213.48" y2="192.46"/>
      <line class="cls-2" x1="18.95" y1="178.29" x2="212.19" y2="178.29"/>
      <line class="cls-2" x1="18.95" y1="186.07" x2="212.19" y2="186.07"/>
      <line class="cls-2" x1="212.33" y1="181.93" x2="19.09" y2="183.55"/>
      <line class="cls-2" x1="213.66" y1="186.87" x2="20.42" y2="188.5"/>
      <line class="cls-2" x1="213.6" y1="179.09" x2="20.36" y2="180.72"/>
      <line class="cls-2" x1="20.23" y1="183.25" x2="213.48" y2="183.25"/>
      <line class="cls-2" x1="20.23" y1="192.46" x2="213.48" y2="192.46"/>
      <line class="cls-2" x1="18.95" y1="178.29" x2="212.19" y2="178.29"/>
      <line class="cls-2" x1="18.95" y1="186.07" x2="212.19" y2="186.07"/>
      <line class="cls-2" x1="97.83" y1="110.44" x2="97.83" y2="203.47"/>
      <line class="cls-2" x1="172.84" y1="54.02" x2="172.84" y2="191.12"/>
      <line class="cls-2" x1="188.56" y1="66.37" x2="188.56" y2="240.02"/>
      <line class="cls-2" x1="32.01" y1="84.24" x2="32.01" y2="207.32"/>
      <line class="cls-2" x1="162.7" y1="137.83" x2="162.7" y2="217.88"/>
      <line class="cls-2" x1="154.36" y1="54.12" x2="153.05" y2="220.95"/>
      <line class="cls-2" x1="41.11" y1="82.48" x2="41.11" y2="208.7"/>
      <line class="cls-2" x1="52.05" y1="70.21" x2="52.05" y2="235.14"/>
      <line class="cls-2" x1="18.88" y1="125.83" x2="136.84" y2="125.83"/>
      <line class="cls-2" x1="177.98" y1="120.87" x2="211.49" y2="120.87"/>
      <line class="cls-2" x1="119.54" y1="111.99" x2="211.49" y2="111.99"/>
      <line class="cls-2" x1="74.08" y1="129.11" x2="212.13" y2="129.11"/>
      <line class="cls-2" x1="18.24" y1="120.87" x2="167.7" y2="120.87"/>
      <line class="cls-2" x1="18.01" y1="137.35" x2="211.25" y2="137.35"/>
      <line class="cls-2" x1="18.62" y1="96.95" x2="121.72" y2="96.95"/>
      <line class="cls-2" x1="56.24" y1="155.31" x2="213.16" y2="155.31"/>
      <line class="cls-2" x1="18.62" y1="166.72" x2="211.87" y2="166.72"/>
      <line class="cls-2" x1="18.62" y1="166.72" x2="211.87" y2="166.72"/>
      <line class="cls-2" x1="19.91" y1="164.53" x2="213.16" y2="164.53"/>
      <line class="cls-2" x1="18.62" y1="150.35" x2="182.31" y2="150.35"/>
      <line class="cls-2" x1="19.91" y1="172.16" x2="213.16" y2="172.16"/>
      <line class="cls-2" x1="18.62" y1="169.44" x2="211.87" y2="169.44"/>
      <line class="cls-2" x1="62.34" y1="158.13" x2="211.87" y2="158.13"/>
      <line class="cls-2" x1="28.87" y1="141.48" x2="211.87" y2="141.48"/>
      <line class="cls-2" x1="20.11" y1="187.09" x2="213.35" y2="187.09"/>
      <line class="cls-2" x1="18.82" y1="182.14" x2="212.07" y2="182.14"/>
      <line class="cls-2" x1="20.11" y1="203.94" x2="213.35" y2="203.94"/>
      <line class="cls-2" x1="18.82" y1="189.92" x2="212.07" y2="189.92"/>
      <line class="cls-2" x1="18.82" y1="173.26" x2="212.07" y2="173.26"/>
      <line class="cls-2" x1="212.83" y1="194.44" x2="19.59" y2="196.07"/>
      <line class="cls-2" x1="213.4" y1="174.36" x2="20.15" y2="175.98"/>
      <line class="cls-2" x1="212.28" y1="156.95" x2="18.95" y2="156.95"/>
      <line class="cls-2" x1="216.14" y1="171.64" x2="22.9" y2="173.26"/>
      <line class="cls-2" x1="63.9" y1="199.19" x2="211.25" y2="199.19"/>
      <line class="cls-2" x1="18.82" y1="182.14" x2="212.07" y2="182.14"/>
      <line class="cls-2" x1="18.82" y1="189.92" x2="212.07" y2="189.92"/>
      <line class="cls-2" x1="18.82" y1="173.26" x2="212.07" y2="173.26"/>
      <line class="cls-2" x1="93.19" y1="132.68" x2="93.19" y2="208.66"/>
      <line class="cls-2" x1="54.56" y1="62.42" x2="54.56" y2="220.95"/>
      <line class="cls-2" x1="199.37" y1="62.42" x2="198.21" y2="208.34"/>
      <line class="cls-2" x1="132.56" y1="215.94" x2="213.12" y2="215.94"/>
      <line class="cls-2" x1="17.3" y1="203.38" x2="210.55" y2="203.38"/>
      <line class="cls-2" x1="63.9" y1="204.85" x2="217.67" y2="204.85"/>
      <line class="cls-2" x1="18.46" y1="202.31" x2="211.71" y2="202.31"/>
      <line class="cls-2" x1="74.08" y1="210.4" x2="210.42" y2="210.4"/>
      <line class="cls-2" x1="18.46" y1="202.31" x2="211.71" y2="202.31"/>
      <line class="cls-2" x1="102.32" y1="212.14" x2="210.32" y2="212.14"/>
      <line class="cls-2" x1="103.91" y1="108.91" x2="212.28" y2="108.91"/>
      <line class="cls-2" x1="117.36" y1="48.47" x2="116.09" y2="210.51"/>
      <line class="cls-2" x1="142.79" y1="41.42" x2="141.71" y2="179.46"/>
      <line class="cls-2" x1="351.47" y1="189.53" x2="351.47" y2="294.61"/>
      <line class="cls-2" x1="351.47" y1="189.53" x2="351.47" y2="294.61"/>
      <line class="cls-2" x1="348.34" y1="198.93" x2="348.34" y2="295.67"/>
      <line class="cls-2" x1="345.22" y1="180.14" x2="345.22" y2="295.67"/>
      <line class="cls-2" x1="331.69" y1="189.53" x2="331.69" y2="294.61"/>
      <line class="cls-2" x1="348.42" y1="201.88" x2="348.42" y2="298.62"/>
      <line class="cls-2" x1="340.06" y1="186.5" x2="340.06" y2="297.56"/>
      <line class="cls-2" x1="358.44" y1="198.33" x2="358.44" y2="335.43"/>
      <line class="cls-2" x1="358.44" y1="198.33" x2="358.44" y2="335.43"/>
      <line class="cls-2" x1="361.57" y1="210.6" x2="361.57" y2="336.82"/>
      <line class="cls-2" x1="364.69" y1="186.09" x2="364.69" y2="336.82"/>
      <line class="cls-2" x1="361.49" y1="214.44" x2="361.49" y2="340.66"/>
      <line class="cls-2" x1="318.04" y1="182.24" x2="318.04" y2="319.34"/>
      <line class="cls-2" x1="344.94" y1="250.79" x2="344.94" y2="321.65"/>
      <line class="cls-2" x1="318.04" y1="182.24" x2="318.04" y2="319.34"/>
      <line class="cls-2" x1="321.16" y1="194.5" x2="321.16" y2="320.73"/>
      <line class="cls-2" x1="324.28" y1="169.99" x2="324.28" y2="330.87"/>
      <line class="cls-2" x1="244.34" y1="259.53" x2="364.47" y2="259.53"/>
      <line class="cls-2" x1="365.34" y1="260.33" x2="245.22" y2="261.96"/>
      <line class="cls-2" x1="244.34" y1="259.53" x2="364.47" y2="259.53"/>
      <line class="cls-2" x1="356.34" y1="226.31" x2="356.34" y2="319.34"/>
      <line class="cls-2" x1="315.42" y1="200.11" x2="315.42" y2="323.19"/>
      <line class="cls-2" x1="311.29" y1="217.38" x2="311.29" y2="324.77"/>
      <line class="cls-2" x1="321.08" y1="198.35" x2="321.08" y2="324.57"/>
      <line class="cls-2" x1="327.88" y1="186.09" x2="327.88" y2="351.01"/>
      <line class="cls-2" x1="307.26" y1="241.7" x2="380.59" y2="241.7"/>
      <line class="cls-2" x1="341.58" y1="244.98" x2="427.4" y2="244.98"/>
      <line class="cls-2" x1="306.86" y1="236.74" x2="399.78" y2="236.74"/>
      <line class="cls-2" x1="306.72" y1="253.22" x2="426.85" y2="253.22"/>
      <line class="cls-2" x1="307.1" y1="212.82" x2="371.19" y2="212.82"/>
      <line class="cls-2" x1="330.49" y1="271.18" x2="428.03" y2="271.18"/>
      <line class="cls-2" x1="307.1" y1="282.59" x2="427.23" y2="282.59"/>
      <line class="cls-2" x1="307.1" y1="282.59" x2="427.23" y2="282.59"/>
      <line class="cls-2" x1="307.9" y1="280.4" x2="428.03" y2="280.4"/>
      <line class="cls-2" x1="307.1" y1="266.22" x2="408.86" y2="266.22"/>
      <line class="cls-2" x1="307.9" y1="288.03" x2="428.03" y2="288.03"/>
      <line class="cls-2" x1="307.1" y1="285.31" x2="427.23" y2="285.31"/>
      <line class="cls-2" x1="334.28" y1="274" x2="427.23" y2="274"/>
      <line class="cls-2" x1="313.47" y1="257.35" x2="427.23" y2="257.35"/>
      <line class="cls-2" x1="244.26" y1="263.37" x2="364.39" y2="263.37"/>
      <line class="cls-2" x1="307.22" y1="289.13" x2="427.36" y2="289.13"/>
      <line class="cls-2" x1="428.18" y1="290.23" x2="308.06" y2="291.85"/>
      <line class="cls-2" x1="427.49" y1="272.83" x2="307.3" y2="272.83"/>
      <line class="cls-2" x1="429.89" y1="287.51" x2="309.76" y2="289.13"/>
      <line class="cls-2" x1="244.26" y1="263.37" x2="364.39" y2="263.37"/>
      <line class="cls-2" x1="307.22" y1="289.13" x2="427.36" y2="289.13"/>
      <line class="cls-2" x1="353.46" y1="248.55" x2="353.46" y2="324.53"/>
      <line class="cls-2" x1="329.44" y1="178.29" x2="329.44" y2="336.82"/>
      <line class="cls-2" x1="360.12" y1="224.78" x2="427.49" y2="224.78"/>
      <line class="cls-2" x1="36.12" y1="32.79" x2="36.12" y2="98.96"/>
      <line class="cls-2" x1="36.12" y1="32.79" x2="36.12" y2="98.96"/>
      <line class="cls-2" x1="34.09" y1="38.71" x2="34.09" y2="99.63"/>
      <line class="cls-2" x1="32.06" y1="26.88" x2="32.06" y2="99.63"/>
      <line class="cls-2" x1="34.14" y1="40.57" x2="34.14" y2="101.48"/>
      <line class="cls-2" x1="28.7" y1="30.88" x2="28.7" y2="100.81"/>
      <line class="cls-2" x1="40.67" y1="38.33" x2="40.67" y2="124.66"/>
      <line class="cls-2" x1="40.67" y1="38.33" x2="40.67" y2="124.66"/>
      <line class="cls-2" x1="42.7" y1="46.06" x2="42.7" y2="125.53"/>
      <line class="cls-2" x1="44.73" y1="30.62" x2="44.73" y2="125.53"/>
      <line class="cls-2" x1="42.65" y1="48.48" x2="42.65" y2="127.96"/>
      <line class="cls-2" x1="31.88" y1="71.37" x2="31.88" y2="115.99"/>
      <line class="cls-2" x1="39.3" y1="55.95" x2="39.3" y2="114.53"/>
      <line class="cls-2" x1="7.35" y1="65.64" x2="55.09" y2="65.64"/>
      <line class="cls-2" x1="7.09" y1="62.52" x2="67.58" y2="62.52"/>
      <line class="cls-2" x1="7.24" y1="47.46" x2="48.97" y2="47.46"/>
      <line class="cls-2" x1="37.42" y1="69.96" x2="37.42" y2="117.8"/>
      <line class="cls-2" x1="185.75" y1="83.15" x2="251.91" y2="84.3"/>
      <line class="cls-2" x1="185.75" y1="83.15" x2="251.91" y2="84.3"/>
      <line class="cls-2" x1="191.64" y1="85.29" x2="252.55" y2="86.34"/>
      <line class="cls-2" x1="179.78" y1="87.12" x2="252.51" y2="88.37"/>
      <line class="cls-2" x1="185.53" y1="96.02" x2="251.69" y2="97.17"/>
      <line class="cls-2" x1="193.5" y1="85.27" x2="254.4" y2="86.32"/>
      <line class="cls-2" x1="183.72" y1="90.55" x2="253.64" y2="91.75"/>
      <line class="cls-2" x1="191.38" y1="78.71" x2="277.69" y2="80.2"/>
      <line class="cls-2" x1="191.38" y1="78.71" x2="277.69" y2="80.2"/>
      <line class="cls-2" x1="199.13" y1="76.81" x2="278.6" y2="78.18"/>
      <line class="cls-2" x1="183.74" y1="74.51" x2="278.63" y2="76.15"/>
      <line class="cls-2" x1="201.55" y1="76.9" x2="281.02" y2="78.27"/>
      <line class="cls-2" x1="224.25" y1="88.07" x2="268.86" y2="88.84"/>
      <line class="cls-2" x1="208.97" y1="80.38" x2="267.54" y2="81.39"/>
      <line class="cls-2" x1="218.11" y1="112.49" x2="218.93" y2="64.76"/>
      <line class="cls-2" x1="214.98" y1="112.7" x2="216.02" y2="52.22"/>
      <line class="cls-2" x1="222.94" y1="82.5" x2="270.77" y2="83.33"/>
      <line class="cls-2" x1="106.46" y1="17.33" x2="154.19" y2="17.33"/>
      <line class="cls-2" x1="121.57" y1="15.05" x2="182.06" y2="15.05"/>
      <line class="cls-2" x1="48.38" y1="36.67" x2="114.53" y2="35.34"/>
      <line class="cls-2" x1="48.38" y1="36.67" x2="114.53" y2="35.34"/>
      <line class="cls-2" x1="54.33" y1="38.59" x2="115.24" y2="37.36"/>
      <line class="cls-2" x1="42.55" y1="40.86" x2="115.28" y2="39.4"/>
      <line class="cls-2" x1="48.63" y1="49.54" x2="114.79" y2="48.21"/>
      <line class="cls-2" x1="56.19" y1="38.5" x2="117.09" y2="37.27"/>
      <line class="cls-2" x1="46.62" y1="44.14" x2="116.53" y2="42.73"/>
      <line class="cls-2" x1="81.57" y1="73.93" x2="167.88" y2="72.2"/>
      <line class="cls-2" x1="81.57" y1="73.93" x2="167.88" y2="72.2"/>
      <line class="cls-2" x1="89.25" y1="71.74" x2="168.71" y2="70.15"/>
      <line class="cls-2" x1="73.78" y1="70.02" x2="168.67" y2="68.11"/>
      <line class="cls-2" x1="91.67" y1="71.75" x2="171.13" y2="70.15"/>
      <line class="cls-2" x1="87.03" y1="40.14" x2="131.64" y2="39.25"/>
      <line class="cls-2" x1="71.47" y1="33.04" x2="130.04" y2="31.86"/>
      <line class="cls-2" x1="81.8" y1="64.78" x2="80.84" y2="17.06"/>
      <line class="cls-2" x1="78.68" y1="65.11" x2="77.47" y2="4.63"/>
      <line class="cls-2" x1="85.51" y1="34.63" x2="133.34" y2="33.67"/>
      <line class="cls-2" x1="53.39" y1="126.86" x2="53.39" y2="300.51"/>
      <line class="cls-2" x1="64.2" y1="122.91" x2="63.05" y2="268.83"/>
      <line class="cls-2" x1="-2.61" y1="276.43" x2="77.95" y2="276.43"/>
      <line class="cls-2" x1="3.47" y1="241.2" x2="139.8" y2="241.2"/>
      <line class="cls-2" x1="31.71" y1="242.94" x2="139.7" y2="242.94"/>
      <line class="cls-6" x1="228.95" y1="335.94" x2="229.03" y2="283.11"/>
      <line class="cls-6" x1="228.95" y1="335.94" x2="229.03" y2="283.11"/>
      <line class="cls-6" x1="230.99" y1="331.22" x2="231.06" y2="282.57"/>
      <line class="cls-6" x1="233.01" y1="340.66" x2="233.09" y2="282.58"/>
      <line class="cls-6" x1="230.94" y1="329.73" x2="231.01" y2="281.09"/>
      <line class="cls-6" x1="224.41" y1="331.51" x2="224.51" y2="262.58"/>
      <line class="cls-6" x1="224.41" y1="331.51" x2="224.51" y2="262.58"/>
      <line class="cls-6" x1="222.39" y1="325.34" x2="222.48" y2="261.88"/>
      <line class="cls-6" x1="220.34" y1="337.66" x2="220.45" y2="261.88"/>
      <line class="cls-6" x1="222.44" y1="323.41" x2="222.54" y2="259.94"/>
      <line class="cls-6" x1="233.24" y1="305.14" x2="233.29" y2="269.51"/>
      <line class="cls-6" x1="225.8" y1="317.44" x2="225.87" y2="270.67"/>
      <line class="cls-6" x1="227.7" y1="306.26" x2="227.75" y2="268.06"/>
      <line class="cls-2" x1="238.75" y1="143.9" x2="304.92" y2="143.83"/>
      <line class="cls-2" x1="238.75" y1="143.9" x2="304.92" y2="143.83"/>
      <line class="cls-2" x1="244.67" y1="145.93" x2="305.59" y2="145.87"/>
      <line class="cls-2" x1="232.84" y1="147.98" x2="305.59" y2="147.9"/>
      <line class="cls-2" x1="238.76" y1="156.77" x2="304.93" y2="156.7"/>
      <line class="cls-2" x1="246.53" y1="145.88" x2="307.44" y2="145.81"/>
      <line class="cls-2" x1="236.85" y1="151.33" x2="306.78" y2="151.26"/>
      <line class="cls-2" x1="291.06" y1="192.83" x2="335.68" y2="192.78"/>
      <line class="cls-2" x1="271.63" y1="172.64" x2="271.58" y2="124.91"/>
      <line class="cls-2" x1="268.51" y1="172.91" x2="268.45" y2="112.42"/>
      <line class="cls-2" x1="275.92" y1="142.57" x2="323.76" y2="142.52"/>
      <line class="cls-2" x1="362.07" y1="151.41" x2="428.24" y2="151.34"/>
      <line class="cls-2" x1="362.07" y1="151.41" x2="428.24" y2="151.34"/>
      <line class="cls-2" x1="367.99" y1="153.43" x2="428.91" y2="153.37"/>
      <line class="cls-2" x1="356.17" y1="155.48" x2="428.91" y2="155.4"/>
      <line class="cls-2" x1="362.09" y1="164.28" x2="428.25" y2="164.21"/>
      <line class="cls-2" x1="369.85" y1="153.38" x2="430.77" y2="153.32"/>
      <line class="cls-2" x1="360.17" y1="158.84" x2="430.1" y2="158.76"/>
      <line class="cls-2" x1="338.06" y1="148.1" x2="424.39" y2="148.01"/>
      <line class="cls-2" x1="338.06" y1="148.1" x2="424.39" y2="148.01"/>
      <line class="cls-2" x1="345.78" y1="146.06" x2="425.26" y2="145.97"/>
      <line class="cls-2" x1="330.35" y1="144.04" x2="425.26" y2="143.94"/>
      <line class="cls-2" x1="348.21" y1="146.11" x2="427.68" y2="146.02"/>
      <line class="cls-2" x1="371.1" y1="156.86" x2="415.72" y2="156.81"/>
      <line class="cls-2" x1="355.68" y1="149.45" x2="414.26" y2="149.39"/>
      <line class="cls-2" x1="369.69" y1="151.31" x2="417.53" y2="151.26"/>
      <line class="cls-2" x1="379.79" y1="42.16" x2="377.14" y2="235.39"/>
      <line class="cls-2" x1="382.53" y1="40.91" x2="379.88" y2="234.14"/>
      <line class="cls-2" x1="378.71" y1="41.06" x2="376.05" y2="234.29"/>
      <line class="cls-2" x1="377.62" y1="238.38" x2="378.65" y2="45.13"/>
      <line class="cls-2" x1="378.71" y1="41.06" x2="376.05" y2="234.29"/>
      <line class="cls-2" x1="234.06" y1="221.83" x2="340.71" y2="221.71"/>
      <line class="cls-7" x1="183.06" y1="286.39" x2="182.86" y2="211.99"/>
      <line class="cls-7" x1="178.1" y1="286.89" x2="177.9" y2="212.48"/>
      <line class="cls-7" x1="181.54" y1="212.43" x2="183.37" y2="286.83"/>
      <line class="cls-7" x1="178.71" y1="211.94" x2="180.53" y2="286.34"/>
      <line class="cls-7" x1="183.06" y1="286.39" x2="182.86" y2="211.99"/>
      <line class="cls-7" x1="178.13" y1="298.62" x2="177.9" y2="212.48"/>
      <line class="cls-7" x1="66.01" y1="221.63" x2="239.65" y2="221.56"/>
      <line class="cls-2" x1="260.16" y1="185.53" x2="260.12" y2="152.02"/>
      <line class="cls-2" x1="251.34" y1="243.98" x2="251.25" y2="152.03"/>
      <line class="cls-2" x1="268.51" y1="289.42" x2="268.36" y2="151.37"/>
      <line class="cls-2" x1="276.8" y1="345.48" x2="276.6" y2="152.24"/>
      <line class="cls-7" x1="155.09" y1="272.54" x2="154.92" y2="212.12"/>
      <line class="cls-7" x1="166.53" y1="287.01" x2="166.33" y2="212.61"/>
      <line class="cls-7" x1="166.53" y1="287.01" x2="166.33" y2="212.61"/>
      <line class="cls-7" x1="164.34" y1="286.52" x2="164.14" y2="212.12"/>
      <line class="cls-7" x1="171.98" y1="286.52" x2="171.77" y2="212.11"/>
      <line class="cls-7" x1="169.3" y1="304.83" x2="169.05" y2="212.61"/>
      <line class="cls-7" x1="157.9" y1="270.19" x2="157.75" y2="212.62"/>
      <line class="cls-7" x1="141.28" y1="283.08" x2="141.09" y2="212.62"/>
      <line class="cls-7" x1="181.95" y1="286.93" x2="181.75" y2="212.53"/>
      <line class="cls-7" x1="173.07" y1="286.94" x2="172.87" y2="212.53"/>
      <line class="cls-7" x1="173.97" y1="212.02" x2="175.79" y2="286.42"/>
      <line class="cls-7" x1="156.57" y1="212.46" x2="156.77" y2="286.89"/>
      <line class="cls-7" x1="171.24" y1="210.97" x2="173.07" y2="285.37"/>
      <line class="cls-7" x1="194.83" y1="284.5" x2="194.63" y2="210.1"/>
      <line class="cls-7" x1="173.13" y1="309.61" x2="172.87" y2="212.53"/>
      <line class="cls-2" x1="201.68" y1="164.2" x2="347.61" y2="165.2"/>
      <line class="cls-2" x1="248.28" y1="259.61" x2="248.16" y2="151.24"/>
      <line class="cls-2" x1="347.63" y1="160.15" x2="348.7" y2="93.99"/>
      <line class="cls-2" x1="347.63" y1="160.15" x2="348.7" y2="93.99"/>
      <line class="cls-2" x1="349.76" y1="154.27" x2="350.74" y2="93.36"/>
      <line class="cls-2" x1="351.6" y1="166.13" x2="352.78" y2="93.39"/>
      <line class="cls-2" x1="360.5" y1="160.36" x2="361.57" y2="94.2"/>
      <line class="cls-2" x1="349.74" y1="152.41" x2="350.72" y2="91.5"/>
      <line class="cls-2" x1="355.02" y1="162.18" x2="356.16" y2="92.26"/>
      <line class="cls-2" x1="343.18" y1="154.53" x2="344.57" y2="68.22"/>
      <line class="cls-2" x1="343.18" y1="154.53" x2="344.57" y2="68.22"/>
      <line class="cls-2" x1="341.27" y1="146.78" x2="342.56" y2="67.31"/>
      <line class="cls-2" x1="338.98" y1="162.18" x2="340.52" y2="67.28"/>
      <line class="cls-2" x1="341.36" y1="144.36" x2="342.65" y2="64.89"/>
      <line class="cls-2" x1="344.83" y1="136.94" x2="345.78" y2="78.37"/>
      <line class="cls-2" x1="251.74" y1="145.41" x2="204.01" y2="144.64"/>
      <line class="cls-2" x1="431.44" y1="139.44" x2="370.96" y2="138.46"/>
      <line class="cls-6" x1="231.87" y1="250.33" x2="231.82" y2="212.21"/>
      <line class="cls-2" x1="382.84" y1="231.68" x2="382.78" y2="171.2"/>
      <line class="cls-6" x1="279.35" y1="269.97" x2="231.62" y2="270.78"/>
      <line class="cls-6" x1="279.67" y1="272.46" x2="219.2" y2="273.48"/>
    </g>
    <g class="cls-8">
      <g>
        <path class="cls-9" d="M54,512.75a1.7,1.7,0,0,0,0,2.59,2.24,2.24,0,0,0,2.91-.1,1.7,1.7,0,0,0,0-2.59A2.24,2.24,0,0,0,54,512.75Z"/>
        <path class="cls-9" d="M53.29,503.26a1.7,1.7,0,0,0,0,2.59,2.24,2.24,0,0,0,2.91-.1,1.7,1.7,0,0,0,0-2.59A2.24,2.24,0,0,0,53.29,503.26Z"/>
        <path class="cls-9" d="M84.16,474.78c-1.24-1.07-3.45-.92-5.52.21a26.73,26.73,0,0,0-3.88-4.11c-.62-.54-1.27-1-1.92-1.51a2.22,2.22,0,0,0,.9-.5,1.7,1.7,0,0,0,0-2.59,2.24,2.24,0,0,0-2.91.1,1.8,1.8,0,0,0-.61,1.31,27.14,27.14,0,0,0-4.12-1.91c.17-.14.34-.28.5-.43,2.33-2.15,2.93-5,1.35-6.38,6.33-7.52,5.77-18-1.72-24.45-8.14-7-21.38-6.54-29.56,1a18.14,18.14,0,0,0-6.11,14.64,22.28,22.28,0,0,0-7.13,4.4,18.47,18.47,0,0,0-6.12,12.23C8.46,468.33-2.35,474-11.81,482.69c-.5.46-1,.92-1.45,1.38-1.75-.06-3.52-.07-5.3,0a2.32,2.32,0,0,0,0-.76,2.78,2.78,0,0,0-3.34-2.06,2.78,2.78,0,0,0-2.45,3.06c0,.06,0,.11,0,.17q-2.56.28-5.15.72a79.84,79.84,0,0,0-10.08,2.43,6,6,0,0,0-1.55-1.76,2.58,2.58,0,0,0,1.16-2.54,2.78,2.78,0,0,0-3.34-2.06,2.78,2.78,0,0,0-2.45,3.06l0,.09a7.94,7.94,0,0,0-1.17.11c-3.83.66-6.45,4-5.87,7.34a5.56,5.56,0,0,0,.31,1.08,74.88,74.88,0,0,0-7.4,4.43l-.53-.44a6.57,6.57,0,0,0,3.2-6.59c-.62-3.58-4.4-5.91-8.44-5.21a7.34,7.34,0,0,0-6.22,5.94,32.09,32.09,0,0,0-5.71-.94,10.7,10.7,0,0,0-.14-2.49c-1.54-8.87-14-14.12-27.81-11.72s-23.77,11.53-22.23,20.41c1.12,6.43,8,11,16.91,12a8.23,8.23,0,0,0,1.46.67,23.88,23.88,0,0,0-1.23,12.57,23.55,23.55,0,0,0,2.64,7.46l-.18,0c-3.53.61-6,3.65-5.42,6.78a5.12,5.12,0,0,0,.38,1.24,6.63,6.63,0,0,0-.89.09,6.44,6.44,0,0,0-2.69,1.12,25.82,25.82,0,0,0-9.37-10.08,4.94,4.94,0,0,0,1.28-4.15,5.46,5.46,0,0,0-6-4.2,7.07,7.07,0,0,0,2.46-6.49c-.69-4-4.87-6.54-9.34-5.77s-7.54,4.62-6.85,8.58,4.87,6.54,9.34,5.77h0a5.24,5.24,0,0,0-1.19,2.26,33,33,0,0,0-12-.11,33,33,0,0,0-11,4,7.27,7.27,0,0,0-.1-1c-.77-4.43-5.45-7.32-10.46-6.45a10.12,10.12,0,0,0-3.94,1.58,27.07,27.07,0,0,0-2.25-2.68c4.48-1.56,7.35-5.73,6.6-10-.84-4.85-6-8-11.44-7.06s-9.23,5.65-8.39,10.5c0,.09,0,.18.06.27a15.17,15.17,0,0,0-2.88.22,15.15,15.15,0,0,0-1.91.47,56,56,0,0,0-4.42-10.65,6.41,6.41,0,0,0,5.92-1.43,4.75,4.75,0,0,0,0-7.27,6.29,6.29,0,0,0-8.16.28l0,0a3.27,3.27,0,0,0-.35-1.69,22.27,22.27,0,0,0,7.1-4.39,19.54,19.54,0,0,0,4.58-6.26,5.71,5.71,0,0,0,.54.53,7,7,0,0,0,9.13-.31,6,6,0,0,0,1.57-2.33,23.54,23.54,0,0,0,2.56.64,5.74,5.74,0,0,0,.8,8,7.7,7.7,0,0,0,10-.34,5.82,5.82,0,0,0,0-8.9l-.16-.13a9.87,9.87,0,0,0,1.59-1.19c2.88-2.65,3.63-6.62,2.51-10.8.19-.15.37-.3.55-.47,2.45-2.26,3.11-5.23,1.48-6.63-1.24-1.07-3.45-.92-5.52.21a26.73,26.73,0,0,0-3.88-4.11c-.62-.54-1.27-1-1.92-1.51a2.22,2.22,0,0,0,.9-.5,1.7,1.7,0,0,0,0-2.59,2.24,2.24,0,0,0-2.91.1,1.8,1.8,0,0,0-.61,1.31,27.14,27.14,0,0,0-4.12-1.91c.17-.14.34-.28.5-.43,2.33-2.15,2.93-5,1.35-6.38,6.33-7.52,5.77-18-1.72-24.45-8.14-7-21.38-6.54-29.56,1A18.14,18.14,0,0,0-212.36,436a22.28,22.28,0,0,0-7.13,4.4,18.47,18.47,0,0,0-6.12,12.23c-8.85,1.51-19.66,7.15-29.13,15.88-.5.46-1,.92-1.45,1.38-1.75-.06-3.52-.07-5.3,0a2.32,2.32,0,0,0,0-.76,2.78,2.78,0,0,0-3.34-2.06,2.78,2.78,0,0,0-2.45,3.06c0,.06,0,.11,0,.17q-2.56.28-5.15.72a79.84,79.84,0,0,0-10.08,2.43,6,6,0,0,0-1.55-1.76,2.58,2.58,0,0,0,1.16-2.54,2.78,2.78,0,0,0-3.34-2.06,2.78,2.78,0,0,0-2.45,3.06l0,.09a7.94,7.94,0,0,0-1.17.11c-3.83.66-6.45,4-5.87,7.34a5.56,5.56,0,0,0,.31,1.08,74.88,74.88,0,0,0-7.4,4.43l-.53-.44a6.57,6.57,0,0,0,3.2-6.59c-.62-3.58-4.4-5.91-8.44-5.21a7.34,7.34,0,0,0-6.22,5.94,32.76,32.76,0,0,0-13.9-.55,33.53,33.53,0,0,0-6.92,2v0c-.78-4.52-4-7.74-7.1-7.2s-5,4.65-4.26,9.17c0,.23.09.45.14.68a9.07,9.07,0,0,0-3.54-.09c-4.47.78-7.54,4.62-6.85,8.58a7.14,7.14,0,0,0,4.94,5.44,23.88,23.88,0,0,0-1.23,12.57,23.55,23.55,0,0,0,2.64,7.46l-.18,0c-3.53.61-6,3.65-5.42,6.78a5.12,5.12,0,0,0,.38,1.24,6.63,6.63,0,0,0-.89.09,6.44,6.44,0,0,0-2.69,1.12A25.82,25.82,0,0,0-369,514a4.94,4.94,0,0,0,1.28-4.15,5.46,5.46,0,0,0-6-4.2,7.07,7.07,0,0,0,2.46-6.49c-.69-4-4.87-6.54-9.34-5.77s-7.54,4.62-6.85,8.58,4.87,6.54,9.34,5.77h0A5.24,5.24,0,0,0-379.2,510a33,33,0,0,0-12-.11,33,33,0,0,0-11,4,7.27,7.27,0,0,0-.1-1c-.77-4.43-5.45-7.32-10.46-6.45a10.12,10.12,0,0,0-3.94,1.58,27.07,27.07,0,0,0-2.25-2.68c4.48-1.56,7.35-5.73,6.6-10-.84-4.85-6-8-11.44-7.06s-9.23,5.65-8.39,10.5c0,.09,0,.18.06.27a15.17,15.17,0,0,0-2.88.22c-5.69,1-10.26,5.11-12.94,10.89-.35,0-.7.08-1.05.14-4.85.84-8.38,3.86-7.88,6.73.38,2.19,3,3.66,6.35,3.87a34.45,34.45,0,0,0,.47,7.76c.19,1.1.44,2.17.72,3.22a3.22,3.22,0,0,0-1.46-.08,2.78,2.78,0,0,0-2.45,3.06,2.78,2.78,0,0,0,3.34,2.06,3.13,3.13,0,0,0,1.91-1.1,31.36,31.36,0,0,0,2.79,5.33c-.32,0-.64.07-1,.13-4.61.8-8,3.72-7.49,6.53-14.12,4.16-23.35,17-21.06,30.2,2.49,14.36,17.65,23.71,33.87,20.9a31.47,31.47,0,0,0,20.57-12.74,33,33,0,0,0,12.07.12,32,32,0,0,0,18.3-9.89,55,55,0,0,0,11.39,3.33,9.21,9.21,0,0,0-1.75,1.44,7.36,7.36,0,0,0,.93,11.25,9.84,9.84,0,0,0,12.67-1.29,7.36,7.36,0,0,0,.37-10.07,110.4,110.4,0,0,0,17.44-.75,5.09,5.09,0,0,0-1,.81,4.09,4.09,0,0,0,.52,6.25,5.46,5.46,0,0,0,7-.72,4.09,4.09,0,0,0-.52-6.25,4.9,4.9,0,0,0-1.51-.73l1.81-.29c1.56-.27,3.1-.58,4.62-.9a17.29,17.29,0,0,0,18.81,10.66,16.88,16.88,0,0,0,11.56-7.95c15,11,35.36,16.11,56.49,12.45a78.74,78.74,0,0,0,18.94-5.81,23.58,23.58,0,0,0,.34,4.4c2.49,14.36,17.65,23.71,33.87,20.9a31.47,31.47,0,0,0,20.57-12.74,33,33,0,0,0,12.07.12,32,32,0,0,0,18.3-9.89,55,55,0,0,0,11.39,3.33,9.21,9.21,0,0,0-1.75,1.44,7.36,7.36,0,0,0,.93,11.25,9.84,9.84,0,0,0,12.67-1.29,7.36,7.36,0,0,0,.37-10.07,110.4,110.4,0,0,0,17.44-.75,5.09,5.09,0,0,0-1,.81,4.09,4.09,0,0,0,.52,6.25,5.46,5.46,0,0,0,7-.72,4.09,4.09,0,0,0-.52-6.25,4.9,4.9,0,0,0-1.51-.73l1.81-.29c1.56-.27,3.1-.58,4.62-.9A17.29,17.29,0,0,0-76.24,603.3a16.88,16.88,0,0,0,11.56-7.95c15,11,35.36,16.11,56.49,12.45,38.24-6.64,64.47-39.46,58.6-73.32a55.62,55.62,0,0,0-5.93-17A6.41,6.41,0,0,0,50.4,516a4.75,4.75,0,0,0,0-7.27,6.29,6.29,0,0,0-8.16.28l0,0a3.27,3.27,0,0,0-.35-1.69A22.27,22.27,0,0,0,49,503a19.54,19.54,0,0,0,4.58-6.26,5.71,5.71,0,0,0,.54.53,7,7,0,0,0,9.13-.31,6,6,0,0,0,1.57-2.33,23.54,23.54,0,0,0,2.56.64,5.74,5.74,0,0,0,.8,8,7.7,7.7,0,0,0,10-.34,5.82,5.82,0,0,0,0-8.9l-.16-.13a9.87,9.87,0,0,0,1.59-1.19c2.88-2.65,3.63-6.62,2.51-10.8.19-.15.37-.3.55-.47C85.13,479.15,85.79,476.19,84.16,474.78Z"/>
      </g>
      <path class="cls-9" d="M1.22,23.9a1.7,1.7,0,0,0,2.42.94,2.24,2.24,0,0,0,1-2.75,1.7,1.7,0,0,0-2.42-.94A2.24,2.24,0,0,0,1.22,23.9Z"/>
      <ellipse class="cls-9" cx="32.25" cy="-2.36" rx="2.93" ry="2.6" transform="translate(28.26 29.73) rotate(-78.73)"/>
      <path class="cls-9" d="M77.48-239.43c-1.44.77-2.1,2.89-1.79,5.23a26.73,26.73,0,0,0-5.23,2.14c-.73.39-1.42.81-2.1,1.25a2.22,2.22,0,0,0-.14-1,1.7,1.7,0,0,0-2.42-.94,2.24,2.24,0,0,0-1,2.75,1.8,1.8,0,0,0,1,1,27.14,27.14,0,0,0-3.26,3.15c-.07-.21-.14-.42-.22-.62-1.17-2.95-3.61-4.54-5.46-3.56-4.73-8.62-14.73-11.87-23.43-7.21-9.46,5.07-13.81,17.58-9.71,27.94a18.14,18.14,0,0,0,11.45,11,22.28,22.28,0,0,0,1.54,8.24A18.47,18.47,0,0,0,46-179.94c-1.78,8.8-.42,20.92,4.32,32.89.25.63.5,1.24.76,1.85-.69,1.62-1.34,3.26-1.92,4.94a2.32,2.32,0,0,0-.71-.27,2.78,2.78,0,0,0-3.12,2.37,2.78,2.78,0,0,0,2,3.39l.17,0q-.67,2.49-1.18,5.06a79.84,79.84,0,0,0-1.36,10.28,6,6,0,0,0-2.2.81,2.58,2.58,0,0,0-1.95-2,2.78,2.78,0,0,0-3.12,2.37,2.78,2.78,0,0,0,2,3.39h.09a7.94,7.94,0,0,0-.32,1.13c-.76,3.81,1.36,7.44,4.73,8.12a5.56,5.56,0,0,0,1.12.1A74.88,74.88,0,0,0,46.68-97l-.6.33a6.57,6.57,0,0,0-5-5.36c-3.56-.71-7.1,2-7.9,6a7.34,7.34,0,0,0,3.3,7.94,32.09,32.09,0,0,0-2.93,5,10.7,10.7,0,0,0-2.37-.77c-8.83-1.76-18.21,8-21,21.72S12.42-35.8,21.25-34c6.4,1.28,13.09-3.48,17.33-11.44a8.23,8.23,0,0,0,1.15-1.12A23.88,23.88,0,0,0,51-40.91a23.55,23.55,0,0,0,7.91.22c0,.06,0,.11,0,.17-.7,3.52,1.25,6.87,4.37,7.49a5.12,5.12,0,0,0,1.29.09,6.63,6.63,0,0,0-.24.86,6.44,6.44,0,0,0,.08,2.91,25.82,25.82,0,0,0-12.78,5.11,4.94,4.94,0,0,0-3.41-2.69,5.46,5.46,0,0,0-6.06,4A7.07,7.07,0,0,0,37-27.34c-3.94-.79-7.86,2.19-8.74,6.64s1.59,8.7,5.53,9.48,7.86-2.19,8.74-6.64v0A5.24,5.24,0,0,0,44.18-16,33,33,0,0,0,39.73-4.78,33,33,0,0,0,39.49,6.9a7.27,7.27,0,0,0-1-.28c-4.41-.88-8.8,2.45-9.79,7.43a10.12,10.12,0,0,0,.05,4.24,27.07,27.07,0,0,0-3.31,1.14c.16-4.74-2.7-8.92-7-9.77-4.83-1-9.62,2.68-10.71,8.13s1.95,10.65,6.77,11.61l.28,0a14.83,14.83,0,0,0-1.09,4.72,56,56,0,0,0-11.53.29,6.41,6.41,0,0,0,.8-6,4.75,4.75,0,0,0-6.77-2.64,6.29,6.29,0,0,0-2.68,7.71v0a3.27,3.27,0,0,0-1.7-.28A22.27,22.27,0,0,0-9.69,25a19.54,19.54,0,0,0-4.19-6.53,5.71,5.71,0,0,0,.69-.31,7,7,0,0,0,3-8.63,6,6,0,0,0-1.6-2.3,23.54,23.54,0,0,0,1.52-2.16A5.74,5.74,0,0,0-2.54,7.2,7.7,7.7,0,0,0,.74-2.24,5.82,5.82,0,0,0-7.55-5.47l-.18.11a9.87,9.87,0,0,0-.54-1.91C-9.7-10.91-13.13-13-17.43-13.5c-.07-.23-.15-.46-.24-.68-1.23-3.1-3.76-4.79-5.65-3.77-1.44.77-2.1,2.89-1.79,5.23a26.73,26.73,0,0,0-5.23,2.14c-.73.39-1.42.81-2.1,1.25a2.22,2.22,0,0,0-.14-1A1.7,1.7,0,0,0-35-11.29a2.24,2.24,0,0,0-1,2.75,1.8,1.8,0,0,0,1,1,27.14,27.14,0,0,0-3.26,3.15c-.07-.21-.14-.42-.22-.62C-39.6-7.92-42-9.51-43.89-8.53c-4.73-8.62-14.73-11.87-23.43-7.21C-76.78-10.67-81.13,1.84-77,12.2a18.14,18.14,0,0,0,11.45,11A22.28,22.28,0,0,0-64,31.42a18.47,18.47,0,0,0,9.2,10.11c-1.78,8.8-.42,20.92,4.32,32.89.25.63.5,1.24.76,1.85-.69,1.62-1.34,3.26-1.92,4.94a2.32,2.32,0,0,0-.71-.27,2.78,2.78,0,0,0-3.12,2.37,2.78,2.78,0,0,0,2,3.39l.17,0q-.67,2.49-1.18,5.06a79.84,79.84,0,0,0-1.36,10.28,6,6,0,0,0-2.2.81,2.58,2.58,0,0,0-1.95-2,2.78,2.78,0,0,0-3.12,2.37,2.78,2.78,0,0,0,2,3.39h.09a7.94,7.94,0,0,0-.32,1.13c-.76,3.81,1.36,7.44,4.73,8.12a5.56,5.56,0,0,0,1.12.1,74.88,74.88,0,0,0,1.46,8.5l-.6.33a6.57,6.57,0,0,0-5-5.36c-3.56-.71-7.1,2-7.9,6a7.34,7.34,0,0,0,3.3,7.94,32.76,32.76,0,0,0-5.52,12.77,33.53,33.53,0,0,0-.64,7.17h0c-4.5-.9-8.65.91-9.27,4s2.52,6.38,7,7.28l.68.11A9.07,9.07,0,0,0-73.45,168c-.89,4.45,1.59,8.7,5.53,9.48a7.14,7.14,0,0,0,6.85-2.65,23.88,23.88,0,0,0,11.28,5.68,23.55,23.55,0,0,0,7.91.22c0,.06,0,.11,0,.17-.7,3.52,1.25,6.87,4.37,7.49a5.12,5.12,0,0,0,1.29.09,6.63,6.63,0,0,0-.24.86,6.44,6.44,0,0,0,.08,2.91,25.82,25.82,0,0,0-12.78,5.11,4.94,4.94,0,0,0-3.41-2.69,5.46,5.46,0,0,0-6.06,4,7.07,7.07,0,0,0-5.17-4.64c-3.94-.79-7.86,2.19-8.74,6.64s1.59,8.7,5.53,9.48,7.86-2.19,8.74-6.64v0a5.24,5.24,0,0,0,1.68,1.93,33,33,0,0,0-4.44,11.19,33,33,0,0,0-.24,11.68,7.27,7.27,0,0,0-1-.28c-4.41-.88-8.8,2.45-9.79,7.43a10.12,10.12,0,0,0,.05,4.24,27.07,27.07,0,0,0-3.31,1.14c.16-4.74-2.7-8.92-7-9.77-4.83-1-9.62,2.68-10.71,8.13s1.95,10.65,6.77,11.61l.28,0a15.17,15.17,0,0,0-.84,2.77c-1.13,5.67,1.07,11.41,5.49,16-.09.34-.18.68-.25,1-1,4.83.58,9.2,3.44,9.77,2.18.43,4.49-1.47,5.9-4.52a34.45,34.45,0,0,0,7.4,2.36c1.1.22,2.19.38,3.27.49a3.22,3.22,0,0,0-.6,1.34,2.78,2.78,0,0,0,2,3.39,2.78,2.78,0,0,0,3.12-2.37,3.13,3.13,0,0,0-.34-2.18,31.36,31.36,0,0,0,6-.68c-.08.31-.16.62-.23.95-.92,4.59.6,8.77,3.39,9.34-1.21,14.67,7.43,27.91,20.58,30.53C-13.39,321.95.8,311.17,4,295A31.47,31.47,0,0,0-.46,271.26,33,33,0,0,0,4,260a32,32,0,0,0-2.63-20.63A55,55,0,0,0,8.58,230a9.21,9.21,0,0,0,.72,2.15,7.36,7.36,0,0,0,10.83,3.19A9.84,9.84,0,0,0,23.49,223a7.36,7.36,0,0,0-9.26-4,110.4,110.4,0,0,0,5.58-16.54,5.09,5.09,0,0,0,.39,1.24,4.09,4.09,0,0,0,6,1.77,5.46,5.46,0,0,0,1.87-6.82,4.09,4.09,0,0,0-6-1.77,4.9,4.9,0,0,0-1.22,1.15c.13-.6.26-1.19.38-1.79.31-1.56.58-3.1.82-4.63A17.29,17.29,0,0,0,38.77,178a16.88,16.88,0,0,0-3.25-13.64c15.67-10,27.77-27.18,32-48.21a78.74,78.74,0,0,0,1.41-19.76,23.58,23.58,0,0,0,4.23,1.27c14.29,2.85,28.48-7.92,31.7-24.06a31.47,31.47,0,0,0-4.48-23.78,33,33,0,0,0,4.46-11.22,32,32,0,0,0-2.63-20.63,55,55,0,0,0,7.21-9.42,9.21,9.21,0,0,0,.72,2.15,7.36,7.36,0,0,0,10.83,3.19,9.84,9.84,0,0,0,3.36-12.28,7.36,7.36,0,0,0-9.26-4,110.4,110.4,0,0,0,5.58-16.54A5.09,5.09,0,0,0,121-17.7a4.09,4.09,0,0,0,6,1.77,5.46,5.46,0,0,0,1.87-6.82,4.09,4.09,0,0,0-6-1.77,4.9,4.9,0,0,0-1.22,1.15c.13-.6.26-1.19.38-1.79.31-1.56.58-3.1.82-4.63A17.29,17.29,0,0,0,139.57-43.5a16.88,16.88,0,0,0-3.25-13.64c15.67-10,27.77-27.18,32-48.21,7.59-38.06-13.58-74.36-47.28-81.08a55.62,55.62,0,0,0-18-.6,6.41,6.41,0,0,0,.8-6A4.75,4.75,0,0,0,97-195.72,6.29,6.29,0,0,0,94.34-188v0a3.27,3.27,0,0,0-1.7-.28,22.27,22.27,0,0,0-1.54-8.21A19.54,19.54,0,0,0,86.92-203a5.71,5.71,0,0,0,.69-.31,7,7,0,0,0,3-8.63,6,6,0,0,0-1.6-2.3,23.54,23.54,0,0,0,1.52-2.16,5.74,5.74,0,0,0,7.73,2.13,7.7,7.7,0,0,0,3.28-9.44,5.82,5.82,0,0,0-8.29-3.23l-.18.11a9.87,9.87,0,0,0-.54-1.91c-1.44-3.64-4.86-5.77-9.17-6.23-.07-.23-.15-.46-.24-.68C81.91-238.75,79.38-240.44,77.48-239.43Z"/>
    </g>
    <g class="cls-10">
      <path class="cls-9" d="M250.91,591.56a35.78,35.78,0,1,0,35.78,35.78A35.78,35.78,0,0,0,250.91,591.56Zm0,69.26a33.48,33.48,0,1,1,33.48-33.48A33.48,33.48,0,0,1,250.91,660.82Z"/>
    </g>
  </g>
</svg>
