<svg xmlns="http://www.w3.org/2000/svg" xmlns:xlink="http://www.w3.org/1999/xlink" width="148mm" height="210mm" viewBox="0 0 419.53 595.28">
  <defs>
    <style>
      .cls-1 {
        fill: none;
      }

      .cls-2 {
        clip-path: url(#clip-path);
      }

      .cls-3, .cls-5 {
        fill: #fff;
        stroke: #141412;
        stroke-miterlimit: 10;
      }

      .cls-3 {
        stroke-width: 0.35px;
      }

      .cls-4 {
        clip-path: url(#clip-path-2);
      }
    </style>
    <clipPath id="clip-path">
      <rect class="cls-1" x="-0.77" width="420.3" height="594.51"/>
    </clipPath>
    <clipPath id="clip-path-2">
      <rect class="cls-1" x="439.53" width="417.15" height="591.04"/>
    </clipPath>
  </defs>
  <title>Plan de travail 5</title>
  <g id="Calque_2" data-name="Calque 2">
    <g class="cls-2">
      <circle class="cls-3" cx="37.42" cy="47.34" r="6.07"/>
      <circle class="cls-3" cx="72.68" cy="47.34" r="6.07"/>
      <circle class="cls-3" cx="109.27" cy="47.34" r="6.07"/>
      <circle class="cls-3" cx="151.56" cy="47.34" r="6.07"/>
      <circle class="cls-3" cx="192.79" cy="47.65" r="6.07"/>
      <circle class="cls-3" cx="231.62" cy="47.34" r="6.07"/>
      <circle class="cls-3" cx="269.66" cy="47.65" r="6.07"/>
      <circle class="cls-3" cx="310.68" cy="47.34" r="6.07"/>
      <circle class="cls-3" cx="346.68" cy="47.34" r="6.07"/>
      <circle class="cls-3" cx="381.69" cy="47.34" r="6.07"/>
      <circle class="cls-3" cx="415.63" cy="47.65" r="6.07"/>
      <circle class="cls-3" cx="1.01" cy="47.65" r="6.07"/>
      <circle class="cls-3" cx="47.29" cy="72.28" r="6.07"/>
      <circle class="cls-3" cx="82.55" cy="72.28" r="6.07"/>
      <circle class="cls-3" cx="119.14" cy="72.28" r="6.07"/>
      <circle class="cls-3" cx="161.43" cy="72.28" r="6.07"/>
      <circle class="cls-3" cx="202.67" cy="72.58" r="6.07"/>
      <circle class="cls-3" cx="241.5" cy="72.28" r="6.07"/>
      <circle class="cls-3" cx="279.53" cy="72.58" r="6.07"/>
      <circle class="cls-3" cx="320.55" cy="72.28" r="6.07"/>
      <circle class="cls-3" cx="356.56" cy="72.28" r="6.07"/>
      <circle class="cls-3" cx="391.56" cy="72.28" r="6.07"/>
      <circle class="cls-3" cx="425.51" cy="72.58" r="6.07"/>
      <circle class="cls-3" cx="10.89" cy="72.58" r="6.07"/>
      <circle class="cls-3" cx="34.59" cy="97.52" r="6.07"/>
      <circle class="cls-3" cx="69.86" cy="97.52" r="6.07"/>
      <circle class="cls-3" cx="106.44" cy="97.52" r="6.07"/>
      <circle class="cls-3" cx="148.74" cy="97.52" r="6.07"/>
      <circle class="cls-3" cx="189.97" cy="97.83" r="6.07"/>
      <circle class="cls-3" cx="228.8" cy="97.52" r="6.07"/>
      <circle class="cls-3" cx="266.84" cy="97.83" r="6.07"/>
      <circle class="cls-3" cx="307.86" cy="97.52" r="6.07"/>
      <circle class="cls-3" cx="343.86" cy="97.52" r="6.07"/>
      <circle class="cls-3" cx="378.87" cy="97.52" r="6.07"/>
      <circle class="cls-3" cx="412.81" cy="97.83" r="6.07"/>
      <circle class="cls-3" cx="-1.81" cy="97.83" r="6.07"/>
      <circle class="cls-3" cx="49.3" cy="121.43" r="6.07"/>
      <circle class="cls-3" cx="84.56" cy="121.43" r="6.07"/>
      <circle class="cls-3" cx="121.14" cy="121.43" r="6.07"/>
      <circle class="cls-3" cx="163.44" cy="121.43" r="6.07"/>
      <circle class="cls-3" cx="204.67" cy="121.74" r="6.07"/>
      <circle class="cls-3" cx="243.5" cy="121.43" r="6.07"/>
      <circle class="cls-3" cx="281.54" cy="121.74" r="6.07"/>
      <circle class="cls-3" cx="322.56" cy="121.43" r="6.07"/>
      <circle class="cls-3" cx="358.56" cy="121.43" r="6.07"/>
      <circle class="cls-3" cx="393.57" cy="121.43" r="6.07"/>
      <circle class="cls-3" cx="12.89" cy="121.74" r="6.07"/>
      <circle class="cls-3" cx="32.4" cy="143.56" r="6.07"/>
      <circle class="cls-3" cx="67.67" cy="143.56" r="6.07"/>
      <circle class="cls-3" cx="104.25" cy="143.56" r="6.07"/>
      <circle class="cls-3" cx="146.55" cy="143.56" r="6.07"/>
      <circle class="cls-3" cx="187.78" cy="143.86" r="6.07"/>
      <circle class="cls-3" cx="226.61" cy="143.56" r="6.07"/>
      <circle class="cls-3" cx="264.65" cy="143.86" r="6.07"/>
      <circle class="cls-3" cx="305.67" cy="143.56" r="6.07"/>
      <circle class="cls-3" cx="341.67" cy="143.56" r="6.07"/>
      <circle class="cls-3" cx="376.68" cy="143.56" r="6.07"/>
      <circle class="cls-3" cx="410.62" cy="143.86" r="6.07"/>
      <circle class="cls-3" cx="-4" cy="143.86" r="6.07"/>
      <circle class="cls-3" cx="42.28" cy="168.49" r="6.07"/>
      <circle class="cls-3" cx="77.54" cy="168.49" r="6.07"/>
      <circle class="cls-3" cx="114.13" cy="168.49" r="6.07"/>
      <circle class="cls-3" cx="156.42" cy="168.49" r="6.07"/>
      <circle class="cls-3" cx="197.65" cy="168.8" r="6.07"/>
      <circle class="cls-3" cx="236.48" cy="168.49" r="6.07"/>
      <circle class="cls-3" cx="274.52" cy="168.8" r="6.07"/>
      <circle class="cls-3" cx="315.54" cy="168.49" r="6.07"/>
      <circle class="cls-3" cx="351.54" cy="168.49" r="6.07"/>
      <circle class="cls-3" cx="386.55" cy="168.49" r="6.07"/>
      <circle class="cls-3" cx="420.49" cy="168.8" r="6.07"/>
      <circle class="cls-3" cx="5.88" cy="168.8" r="6.07"/>
      <circle class="cls-3" cx="29.58" cy="193.74" r="6.07"/>
      <circle class="cls-3" cx="64.85" cy="193.74" r="6.07"/>
      <circle class="cls-3" cx="101.43" cy="193.74" r="6.07"/>
      <circle class="cls-3" cx="143.73" cy="193.74" r="6.07"/>
      <circle class="cls-3" cx="184.96" cy="194.04" r="6.07"/>
      <circle class="cls-3" cx="223.79" cy="193.73" r="6.07"/>
      <circle class="cls-3" cx="261.83" cy="194.04" r="6.07"/>
      <circle class="cls-3" cx="302.85" cy="193.73" r="6.07"/>
      <circle class="cls-3" cx="338.85" cy="193.73" r="6.07"/>
      <circle class="cls-3" cx="373.86" cy="193.73" r="6.07"/>
      <circle class="cls-3" cx="407.8" cy="194.04" r="6.07"/>
      <circle class="cls-3" cx="44.28" cy="217.65" r="6.07"/>
      <circle class="cls-3" cx="79.55" cy="217.65" r="6.07"/>
      <circle class="cls-3" cx="116.13" cy="217.65" r="6.07"/>
      <circle class="cls-3" cx="158.43" cy="217.65" r="6.07"/>
      <circle class="cls-3" cx="199.66" cy="217.95" r="6.07"/>
      <circle class="cls-3" cx="238.49" cy="217.65" r="6.07"/>
      <circle class="cls-3" cx="276.53" cy="217.95" r="6.07"/>
      <circle class="cls-3" cx="317.55" cy="217.65" r="6.07"/>
      <circle class="cls-3" cx="353.55" cy="217.65" r="6.07"/>
      <circle class="cls-3" cx="388.56" cy="217.65" r="6.07"/>
      <circle class="cls-3" cx="422.5" cy="217.95" r="6.07"/>
      <circle class="cls-3" cx="7.88" cy="217.95" r="6.07"/>
      <circle class="cls-3" cx="28.02" cy="245.01" r="6.07"/>
      <circle class="cls-3" cx="63.29" cy="245.01" r="6.07"/>
      <circle class="cls-3" cx="99.87" cy="245.01" r="6.07"/>
      <circle class="cls-3" cx="142.17" cy="245.01" r="6.07"/>
      <circle class="cls-3" cx="183.4" cy="245.32" r="6.07"/>
      <circle class="cls-3" cx="222.23" cy="245.01" r="6.07"/>
      <circle class="cls-3" cx="260.27" cy="245.32" r="6.07"/>
      <circle class="cls-3" cx="301.29" cy="245.01" r="6.07"/>
      <circle class="cls-3" cx="337.29" cy="245.01" r="6.07"/>
      <circle class="cls-3" cx="372.3" cy="245.01" r="6.07"/>
      <circle class="cls-3" cx="406.24" cy="245.32" r="6.07"/>
      <circle class="cls-3" cx="37.9" cy="269.95" r="6.07"/>
      <circle class="cls-3" cx="73.16" cy="269.95" r="6.07"/>
      <circle class="cls-3" cx="109.75" cy="269.95" r="6.07"/>
      <circle class="cls-3" cx="152.04" cy="269.95" r="6.07"/>
      <circle class="cls-3" cx="193.27" cy="270.25" r="6.07"/>
      <circle class="cls-3" cx="232.1" cy="269.95" r="6.07"/>
      <circle class="cls-3" cx="270.14" cy="270.25" r="6.07"/>
      <circle class="cls-3" cx="311.16" cy="269.95" r="6.07"/>
      <circle class="cls-3" cx="347.16" cy="269.95" r="6.07"/>
      <circle class="cls-3" cx="382.17" cy="269.95" r="6.07"/>
      <circle class="cls-3" cx="416.11" cy="270.25" r="6.07"/>
      <circle class="cls-3" cx="1.5" cy="270.25" r="6.07"/>
      <circle class="cls-3" cx="25.2" cy="295.19" r="6.07"/>
      <circle class="cls-3" cx="60.47" cy="295.19" r="6.07"/>
      <circle class="cls-3" cx="97.05" cy="295.19" r="6.07"/>
      <circle class="cls-3" cx="139.35" cy="295.19" r="6.07"/>
      <circle class="cls-3" cx="180.58" cy="295.5" r="6.07"/>
      <circle class="cls-3" cx="219.41" cy="295.19" r="6.07"/>
      <circle class="cls-3" cx="257.45" cy="295.5" r="6.07"/>
      <circle class="cls-3" cx="298.47" cy="295.19" r="6.07"/>
      <circle class="cls-3" cx="334.47" cy="295.19" r="6.07"/>
      <circle class="cls-3" cx="369.48" cy="295.19" r="6.07"/>
      <circle class="cls-3" cx="403.42" cy="295.5" r="6.07"/>
      <circle class="cls-3" cx="39.9" cy="319.1" r="6.07"/>
      <circle class="cls-3" cx="75.17" cy="319.1" r="6.07"/>
      <circle class="cls-3" cx="111.75" cy="319.1" r="6.07"/>
      <circle class="cls-3" cx="154.05" cy="319.1" r="6.07"/>
      <circle class="cls-3" cx="195.28" cy="319.41" r="6.07"/>
      <circle class="cls-3" cx="234.11" cy="319.1" r="6.07"/>
      <circle class="cls-3" cx="272.15" cy="319.41" r="6.07"/>
      <circle class="cls-3" cx="313.17" cy="319.1" r="6.07"/>
      <circle class="cls-3" cx="349.17" cy="319.1" r="6.07"/>
      <circle class="cls-3" cx="384.18" cy="319.1" r="6.07"/>
      <circle class="cls-3" cx="418.12" cy="319.41" r="6.07"/>
      <circle class="cls-3" cx="3.5" cy="319.41" r="6.07"/>
      <circle class="cls-3" cx="23.01" cy="341.23" r="6.07"/>
      <circle class="cls-3" cx="58.28" cy="341.23" r="6.07"/>
      <circle class="cls-3" cx="94.86" cy="341.23" r="6.07"/>
      <circle class="cls-3" cx="137.16" cy="341.23" r="6.07"/>
      <circle class="cls-3" cx="178.39" cy="341.53" r="6.07"/>
      <circle class="cls-3" cx="217.22" cy="341.23" r="6.07"/>
      <circle class="cls-3" cx="255.26" cy="341.53" r="6.07"/>
      <circle class="cls-3" cx="296.28" cy="341.23" r="6.07"/>
      <circle class="cls-3" cx="332.28" cy="341.23" r="6.07"/>
      <circle class="cls-3" cx="367.29" cy="341.23" r="6.07"/>
      <circle class="cls-3" cx="401.23" cy="341.53" r="6.07"/>
      <circle class="cls-3" cx="32.88" cy="366.16" r="6.07"/>
      <circle class="cls-3" cx="68.15" cy="366.16" r="6.07"/>
      <circle class="cls-3" cx="104.73" cy="366.16" r="6.07"/>
      <circle class="cls-3" cx="147.03" cy="366.16" r="6.07"/>
      <circle class="cls-3" cx="188.26" cy="366.47" r="6.07"/>
      <circle class="cls-3" cx="227.09" cy="366.16" r="6.07"/>
      <circle class="cls-3" cx="265.13" cy="366.47" r="6.07"/>
      <circle class="cls-3" cx="306.15" cy="366.16" r="6.07"/>
      <circle class="cls-3" cx="342.15" cy="366.16" r="6.07"/>
      <circle class="cls-3" cx="377.16" cy="366.16" r="6.07"/>
      <circle class="cls-3" cx="411.1" cy="366.47" r="6.07"/>
      <circle class="cls-3" cx="-3.52" cy="366.47" r="6.07"/>
      <circle class="cls-3" cx="20.19" cy="391.41" r="6.07"/>
      <circle class="cls-3" cx="55.45" cy="391.41" r="6.07"/>
      <circle class="cls-3" cx="92.04" cy="391.41" r="6.07"/>
      <circle class="cls-3" cx="134.33" cy="391.41" r="6.07"/>
      <circle class="cls-3" cx="175.57" cy="391.71" r="6.07"/>
      <circle class="cls-3" cx="214.4" cy="391.41" r="6.07"/>
      <circle class="cls-3" cx="252.43" cy="391.71" r="6.07"/>
      <circle class="cls-3" cx="293.45" cy="391.41" r="6.07"/>
      <circle class="cls-3" cx="329.46" cy="391.41" r="6.07"/>
      <circle class="cls-3" cx="364.47" cy="391.41" r="6.07"/>
      <circle class="cls-3" cx="398.41" cy="391.71" r="6.07"/>
      <circle class="cls-3" cx="34.89" cy="415.32" r="6.07"/>
      <circle class="cls-3" cx="70.16" cy="415.32" r="6.07"/>
      <circle class="cls-3" cx="106.74" cy="415.32" r="6.07"/>
      <circle class="cls-3" cx="149.04" cy="415.32" r="6.07"/>
      <circle class="cls-3" cx="190.27" cy="415.62" r="6.07"/>
      <circle class="cls-3" cx="229.1" cy="415.32" r="6.07"/>
      <circle class="cls-3" cx="267.14" cy="415.62" r="6.07"/>
      <circle class="cls-3" cx="308.16" cy="415.32" r="6.07"/>
      <circle class="cls-3" cx="344.16" cy="415.32" r="6.07"/>
      <circle class="cls-3" cx="379.17" cy="415.32" r="6.07"/>
      <circle class="cls-3" cx="413.11" cy="415.62" r="6.07"/>
      <circle class="cls-3" cx="-1.51" cy="415.62" r="6.07"/>
      <circle class="cls-3" cx="17.69" cy="443.74" r="6.07"/>
      <circle class="cls-3" cx="52.95" cy="443.74" r="6.07"/>
      <circle class="cls-3" cx="89.53" cy="443.74" r="6.07"/>
      <circle class="cls-3" cx="131.83" cy="443.74" r="6.07"/>
      <circle class="cls-3" cx="173.06" cy="444.04" r="6.07"/>
      <circle class="cls-3" cx="211.89" cy="443.74" r="6.07"/>
      <circle class="cls-3" cx="249.93" cy="444.04" r="6.07"/>
      <circle class="cls-3" cx="290.95" cy="443.74" r="6.07"/>
      <circle class="cls-3" cx="326.95" cy="443.74" r="6.07"/>
      <circle class="cls-3" cx="361.96" cy="443.74" r="6.07"/>
      <circle class="cls-3" cx="395.9" cy="444.04" r="6.07"/>
      <circle class="cls-3" cx="27.56" cy="468.67" r="6.07"/>
      <circle class="cls-3" cx="62.82" cy="468.67" r="6.07"/>
      <circle class="cls-3" cx="99.41" cy="468.67" r="6.07"/>
      <circle class="cls-3" cx="141.7" cy="468.67" r="6.07"/>
      <circle class="cls-3" cx="182.94" cy="468.98" r="6.07"/>
      <circle class="cls-3" cx="221.77" cy="468.67" r="6.07"/>
      <circle class="cls-3" cx="259.8" cy="468.98" r="6.07"/>
      <circle class="cls-3" cx="300.82" cy="468.67" r="6.07"/>
      <circle class="cls-3" cx="336.82" cy="468.67" r="6.07"/>
      <circle class="cls-3" cx="371.83" cy="468.67" r="6.07"/>
      <circle class="cls-3" cx="405.77" cy="468.98" r="6.07"/>
      <circle class="cls-3" cx="14.86" cy="493.92" r="6.07"/>
      <circle class="cls-3" cx="50.13" cy="493.92" r="6.07"/>
      <circle class="cls-3" cx="86.71" cy="493.92" r="6.07"/>
      <circle class="cls-3" cx="129.01" cy="493.92" r="6.07"/>
      <circle class="cls-3" cx="170.24" cy="494.22" r="6.07"/>
      <circle class="cls-3" cx="209.07" cy="493.92" r="6.07"/>
      <circle class="cls-3" cx="247.11" cy="494.22" r="6.07"/>
      <circle class="cls-3" cx="288.13" cy="493.92" r="6.07"/>
      <circle class="cls-3" cx="324.13" cy="493.92" r="6.07"/>
      <circle class="cls-3" cx="359.14" cy="493.92" r="6.07"/>
      <circle class="cls-3" cx="393.08" cy="494.22" r="6.07"/>
      <circle class="cls-3" cx="29.56" cy="517.83" r="6.07"/>
      <circle class="cls-3" cx="64.83" cy="517.83" r="6.07"/>
      <circle class="cls-3" cx="101.41" cy="517.83" r="6.07"/>
      <circle class="cls-3" cx="143.71" cy="517.83" r="6.07"/>
      <circle class="cls-3" cx="184.94" cy="518.13" r="6.07"/>
      <circle class="cls-3" cx="223.77" cy="517.83" r="6.07"/>
      <circle class="cls-3" cx="261.81" cy="518.13" r="6.07"/>
      <circle class="cls-3" cx="302.83" cy="517.83" r="6.07"/>
      <circle class="cls-3" cx="338.83" cy="517.83" r="6.07"/>
      <circle class="cls-3" cx="373.84" cy="517.83" r="6.07"/>
      <circle class="cls-3" cx="407.78" cy="518.13" r="6.07"/>
      <circle class="cls-3" cx="12.67" cy="539.95" r="6.07"/>
      <circle class="cls-3" cx="47.94" cy="539.95" r="6.07"/>
      <circle class="cls-3" cx="84.52" cy="539.95" r="6.07"/>
      <circle class="cls-3" cx="126.82" cy="539.95" r="6.07"/>
      <circle class="cls-3" cx="168.05" cy="540.26" r="6.07"/>
      <circle class="cls-3" cx="206.88" cy="539.95" r="6.07"/>
      <circle class="cls-3" cx="244.92" cy="540.26" r="6.07"/>
      <circle class="cls-3" cx="285.94" cy="539.95" r="6.07"/>
      <circle class="cls-3" cx="321.94" cy="539.95" r="6.07"/>
      <circle class="cls-3" cx="356.95" cy="539.95" r="6.07"/>
      <circle class="cls-3" cx="390.89" cy="540.26" r="6.07"/>
      <circle class="cls-3" cx="22.55" cy="564.89" r="6.07"/>
      <circle class="cls-3" cx="57.81" cy="564.89" r="6.07"/>
      <circle class="cls-3" cx="94.39" cy="564.89" r="6.07"/>
      <circle class="cls-3" cx="136.69" cy="564.89" r="6.07"/>
      <circle class="cls-3" cx="177.92" cy="565.2" r="6.07"/>
      <circle class="cls-3" cx="216.75" cy="564.89" r="6.07"/>
      <circle class="cls-3" cx="254.79" cy="565.2" r="6.07"/>
      <circle class="cls-3" cx="295.81" cy="564.89" r="6.07"/>
      <circle class="cls-3" cx="331.81" cy="564.89" r="6.07"/>
      <circle class="cls-3" cx="366.82" cy="564.89" r="6.07"/>
      <circle class="cls-3" cx="400.76" cy="565.2" r="6.07"/>
      <circle class="cls-3" cx="9.85" cy="590.13" r="6.07"/>
      <circle class="cls-3" cx="45.11" cy="590.13" r="6.07"/>
      <circle class="cls-3" cx="81.7" cy="590.13" r="6.07"/>
      <circle class="cls-3" cx="123.99" cy="590.13" r="6.07"/>
      <circle class="cls-3" cx="165.23" cy="590.44" r="6.07"/>
      <circle class="cls-3" cx="204.06" cy="590.13" r="6.07"/>
      <circle class="cls-3" cx="242.09" cy="590.44" r="6.07"/>
      <circle class="cls-3" cx="283.11" cy="590.13" r="6.07"/>
      <circle class="cls-3" cx="319.12" cy="590.13" r="6.07"/>
      <circle class="cls-3" cx="354.13" cy="590.13" r="6.07"/>
      <circle class="cls-3" cx="388.07" cy="590.44" r="6.07"/>
      <circle class="cls-3" cx="34" cy="-3.16" r="6.07"/>
      <circle class="cls-3" cx="69.26" cy="-3.16" r="6.07"/>
      <circle class="cls-3" cx="105.85" cy="-3.16" r="6.07"/>
      <circle class="cls-3" cx="148.14" cy="-3.16" r="6.07"/>
      <circle class="cls-3" cx="189.38" cy="-2.85" r="6.07"/>
      <circle class="cls-3" cx="228.21" cy="-3.16" r="6.07"/>
      <circle class="cls-3" cx="266.24" cy="-2.85" r="6.07"/>
      <circle class="cls-3" cx="307.26" cy="-3.16" r="6.07"/>
      <circle class="cls-3" cx="343.27" cy="-3.16" r="6.07"/>
      <circle class="cls-3" cx="378.28" cy="-3.16" r="6.07"/>
      <circle class="cls-3" cx="412.22" cy="-2.85" r="6.07"/>
      <circle class="cls-3" cx="-2.4" cy="-2.85" r="6.07"/>
      <circle class="cls-3" cx="48.7" cy="20.76" r="6.07"/>
      <circle class="cls-3" cx="83.97" cy="20.76" r="6.07"/>
      <circle class="cls-3" cx="120.55" cy="20.76" r="6.07"/>
      <circle class="cls-3" cx="162.85" cy="20.76" r="6.07"/>
      <circle class="cls-3" cx="204.08" cy="21.06" r="6.07"/>
      <circle class="cls-3" cx="242.91" cy="20.75" r="6.07"/>
      <circle class="cls-3" cx="280.95" cy="21.06" r="6.07"/>
      <circle class="cls-3" cx="321.97" cy="20.75" r="6.07"/>
      <circle class="cls-3" cx="357.97" cy="20.75" r="6.07"/>
      <circle class="cls-3" cx="392.98" cy="20.75" r="6.07"/>
      <circle class="cls-3" cx="12.3" cy="21.06" r="6.07"/>
    </g>
    <g class="cls-4">
      <path class="cls-5" d="M811.15,515.1c-3.19-17.37,3.3-36.15-3.31-52.52-1.84-4.55-4.61-8.67-6.67-13.13-4.07-8.83-5.2-18.68-6.37-28.33Q788.92,372.6,780,324.5C777.11,308.78,774,293,773.35,277a150.3,150.3,0,0,1,21-82.1l89.85,136.94L830.85,227.5c-2.77-5.43-5.58-10.91-9.51-15.57-3.28-3.9-7.28-7.14-10.62-11-17.5-20.23-12.69-50.78-6.86-76.89,5.13,11.06,53.24,47,71.77,76.14,11.5-32-4-66.49-12.19-99.5q-2.21-9-3.68-18.11l16.19-35-9-43.63,2.36-9.43-16.9-6.29L701.42-8.69l-1.7,4.89c-16.52-.63-35.2-.47-48.85.89-3.11.31-6.43.7-8.84,2.69-2.8,2.32-3.73,6.26-6.24,8.88-4.1,4.28-10.92,3.86-16.81,3.21A641.08,641.08,0,0,0,436.24,18a35,35,0,0,1-5,18.06l51.44-1.9,0-15.45A725.81,725.81,0,0,1,587.81,30.19L577.62,37.6l76.61-4.13a34,34,0,0,1-21.39,23.25l21-5.27a65.06,65.06,0,0,1-33.69,26.23c-7.92,2.66-16.9,4.1-22.46,10.34-4.48,5-5.73,12.14-9.4,17.78-5.22,8-14.58,12.1-23.16,16.34a212.07,212.07,0,0,0-60.06,44.47l54.22-31c-11.7,16.6-24.29,34-42.84,42.22-8.64,3.85-18.09,5.47-27,8.72-21,7.7-37.55,23.94-53.4,39.73A228.32,228.32,0,0,0,497,197.72l-44,50.79c-4.59,5.3-9.23,10.67-12.27,17-6.06,12.54-5.31,27.61-9.86,40.56,6.93-17.37,8.6-37.76,22.68-49.74,4.13-3.51,9.05-6,13.2-9.47,6.17-5.18,10.3-12.3,14.84-19A160.78,160.78,0,0,1,527,183.52c6.58-4.26,13.5-8.05,19.48-13.12,6.13-5.2,11.09-11.61,16-18l34.06-44.06c7.46-9.65,15.63-19.82,27.24-23.57l-11.58,26.72a95.15,95.15,0,0,1,36.48-34.26c2.4-1.27,5.56-2.37,7.63-.61C657.93,78,658,80.34,658,82.41v1c3-7.35,7.36,1,9,3.78,7.73,12.09,1.36,28.9-9.47,38.32s-25,13.78-38,19.91-18.05,11.75-21.68,25.64c10.55-8.79,36.72.8,47-11C633.5,176.8,578.57,231.15,535,241.51c2.46,6.39-2.59,12.89-5.9,18.88s-3.31,15.94,3.42,17.16c-7.41,14.82-31.43,13.47-40.07,27.61-2.63,4.31-3.4,9.49-5.48,14.08-5.06,11.17-16.89,17.35-25.69,25.89-19.19,18.64-24.64,49.53-47,64.22,28.1-7.11,48.17-31.14,66.22-53.83l27.83-35L519,307.16C529,294.58,539.4,281,540.87,265a38,38,0,0,1,.71-5.88c2.09-8.25,11.15-12.23,18.83-15.92,41.39-19.89,74.76-51.46,99.47-91.88-13.3,2-23.8,10.26-55.92,14.24,0-15.19,62.5-28.39,88.21-65.7-.27,25.67-24.46,45.75-27.12,71.29,9.84-14.67,34.4-56.05,45.76-63.87l-1.78.93a77,77,0,0,1,30.24-16.07C741,111.7,722,127.24,718.84,146.64c-1.48,9.1.64,18.39.21,27.59-1.58,33.79-34.68,55.54-58.93,79.12-10.26,10-19.9,25.22-12.85,37.68,2.09,3.69,5.59,7,5.65,11.2,0,2.63-1.31,5.06-2.55,7.38-29.86,55.78-24,130.78-70.26,173.92-5.27,4.91-11.1,9.25-15.79,14.71-5.29,6.17-8.94,13.54-12.54,20.83l-45.42,92.1,13.64-.64a735.61,735.61,0,0,1,59.48-103.6l9.71,7c6.53-11.88,17.41-20.68,25.57-31.5,19.16-25.4,21.73-59.12,25.39-90.72s10.65-65.79,35-86.21c-13.4.79-20.4-17.93-14.52-30s18.72-18.74,30.14-25.8a204.57,204.57,0,0,0,37.8-30.1c3.91-4,7.79-8.29,9.26-13.66,2.47-9-2.43-18.29-3.53-27.59-3.26-27.53,25.39-47.23,37.12-72.35a86.63,86.63,0,0,1,8.13,31.63l2.79-24.82c8,28,3.14,58.5-8.28,85.3-5.49,12.88-12.51,25.36-14.78,39.17-2.07,12.61,0,25.48.05,38.26.23,42.82-21.75,84.21-17.14,126.78.76,7,2.23,14,1.46,21-.84,7.6-4.29,14.62-7.67,21.47l-26.73,54,17-3.5c-10.56,40.14,2.49,83-1.74,124.08L741.7,508.14c.83-5.38,1.6-11.17-.85-16s-9.54-7.67-13.5-3.94c-2.33-25.52,27.2-41.91,36.28-65.87.91-2.4,1.59-5.13.54-7.47-1.5-3.31-5.62-4.26-8.83-6-12.73-6.75-11.21-25.19-7.86-39.21,4.07-17,8.57-34.84,20.54-47.58q7.11,62.26,20.23,123.64c1.34,6.27,2.75,12.59,5.37,18.44,3.57,8,9.37,15.09,11,23.66,2.18,11.47-3.54,23.11-2.63,34.74.52,6.65,3.18,12.93,5.8,19.06l34,79.64a237,237,0,0,0-20.35-79.15C817.47,533.32,812.89,524.61,811.15,515.1Z"/>
    </g>
  </g>
</svg>
