<?xml version="1.0" encoding="utf-8"?>
<!-- Generator: Adobe Illustrator 22.0.1, SVG Export Plug-In . SVG Version: 6.00 Build 0)  -->
<svg version="1.1" id="Calque_1" xmlns="http://www.w3.org/2000/svg" xmlns:xlink="http://www.w3.org/1999/xlink" x="0px" y="0px"
	 viewBox="0 0 419.5 595.3" style="enable-background:new 0 0 419.5 595.3;" xml:space="preserve">
<style type="text/css">
	.st0{clip-path:url(#SVGID_2_);}
	.st1{fill:#FFFFFF;stroke:#141412;stroke-miterlimit:10;}
	.st2{clip-path:url(#SVGID_4_);}
	.st3{clip-path:url(#SVGID_6_);}
	.st4{fill:none;stroke:#141412;stroke-width:1.02;stroke-miterlimit:10;}
	.st5{fill:none;stroke:#141412;stroke-width:1.27;stroke-miterlimit:10;}
	.st6{fill:none;stroke:#141412;stroke-width:0.72;stroke-miterlimit:10;}
	.st7{fill:none;stroke:#141412;stroke-width:1.89;stroke-miterlimit:10;}
	.st8{fill:none;stroke:#141412;stroke-width:1.31;stroke-miterlimit:10;}
	.st9{fill:none;stroke:#141412;stroke-miterlimit:10;}
	.st10{fill:none;stroke:#141412;stroke-width:1.26;stroke-miterlimit:10;}
	.st11{fill:none;stroke:#141412;stroke-width:1.54;stroke-miterlimit:10;}
	.st12{stroke:#141412;stroke-width:1.27;stroke-miterlimit:10;}
	.st13{fill:#FFFFFF;}
	.st14{fill:none;stroke:#141412;stroke-width:2.18;stroke-miterlimit:10;}
	.st15{clip-path:url(#SVGID_8_);}
</style>
<title>Plan de travail 16</title>
<g>
	<defs>
		<rect id="SVGID_1_" x="-12" y="-883.3" width="417.9" height="595.2"/>
	</defs>
	<clipPath id="SVGID_2_">
		<use xlink:href="#SVGID_1_"  style="overflow:visible;"/>
	</clipPath>
	<g class="st0">
		<path class="st1" d="M88.3-462.5C26.8-462.5-23-412.7-23-351.2c0,61.5,49.8,111.3,111.3,111.3c61.5,0,111.3-49.9,111.3-111.3
			c0,0,0,0,0,0C199.7-412.7,149.8-462.5,88.3-462.5z M88.3-247c-57.5,0-104.2-46.7-104.2-104.2c0,0,0,0,0,0
			c0-57.5,46.7-104.2,104.2-104.2s104.2,46.7,104.2,104.2C192.5-293.6,145.9-247,88.3-247L88.3-247z"/>
		<path class="st1" d="M334.8-395.9c-40.2,0-72.8,32.6-72.8,72.8c0,40.2,32.6,72.8,72.8,72.8s72.8-32.6,72.8-72.8
			S375-395.9,334.8-395.9C334.8-395.9,334.8-395.9,334.8-395.9z M334.8-255.1c-37.6,0-68.1-30.5-68.1-68.1l0,0
			c0-37.6,30.5-68.1,68.1-68.1l0,0c37.6,0,68.1,30.5,68.1,68.1l0,0C402.8-285.5,372.4-255.1,334.8-255.1
			C334.8-255.1,334.8-255.1,334.8-255.1z"/>
	</g>
</g>
<g>
	<defs>
		<rect id="SVGID_3_" x="427.5" y="-883.3" width="420.6" height="595.3"/>
	</defs>
	<clipPath id="SVGID_4_">
		<use xlink:href="#SVGID_3_"  style="overflow:visible;"/>
	</clipPath>
	<g class="st2">
		<path class="st1" d="M986.2-358.4c-4.6-25.2-28.8-41.9-54-37.3c0,0,0,0,0,0c-11.2,2.1-21.2,8.2-28.2,17.2
			c-9.4-5.2-20.2-6.9-30.8-5c-15.3,2.8-28.1,13-34.2,27.3c-10.8-11.2-26.4-16.2-41.7-13.4c-13.1,2.4-24.5,10.3-31.3,21.6
			c-10.4-8.2-23.9-11.6-37-9.1c-12,2.2-22.7,9.1-29.7,19.1c-10.1-6.9-22.5-9.6-34.6-7.4c-13.5,2.5-25.1,10.7-31.9,22.6
			c-10.5-8.7-24.4-12.3-37.8-9.9c-15.2,2.8-28,13-34.2,27.2c-10.8-11.9-26.9-17.3-42.7-14.4c-14.8,2.7-27.3,12.4-33.6,26
			c-20.2-13.7-47.6-9.4-62.6,9.9c-22.4-12.4-50.6-4.2-63,18.2c-0.7,1.3-1.4,2.7-2,4.1c-17.8-18.4-47.1-18.9-65.5-1.2
			c-2.9,2.8-5.4,5.9-7.5,9.3c-20.1-15.8-49.3-12.3-65.1,7.9c-0.5,0.7-1.1,1.4-1.6,2.1c-21.1-14.5-50-9.1-64.4,12
			c-0.7,1-1.4,2.1-2,3.2c-19.7-16.3-49-13.5-65.3,6.2c-2.8,3.4-5.1,7.1-6.8,11.1c-17.2-18.9-46.5-20.3-65.5-3.1s-20.3,46.5-3.1,65.5
			s46.5,20.3,65.5,3.1c4.9-4.4,8.7-9.8,11.3-15.8c17.2,18.9,46.5,20.4,65.5,3.1c3.6-3.3,6.7-7.1,9.1-11.3
			c19.7,16.3,49,13.5,65.2-6.2c0.8-1,1.6-2,2.3-3c21.1,14.5,50,9.1,64.5-11.9c0.5-0.7,1-1.5,1.5-2.3c20.2,15.8,49.3,12.2,65.1-7.9
			c2.5-3.2,4.5-6.6,6.1-10.3c17.8,18.4,47.2,18.9,65.6,1.1c1.6-1.5,3-3.1,4.4-4.9c9.4,5.2,20.2,6.9,30.8,5
			c14.8-2.7,27.3-12.4,33.6-26c10.1,6.8,22.4,9.5,34.4,7.2c15.2-2.8,28-12.9,34.2-27.1c10.8,11.9,26.9,17.3,42.7,14.4
			c13.5-2.4,25.1-10.7,31.9-22.6c10.5,8.7,24.4,12.3,37.8,9.8c12.1-2.2,22.7-9.1,29.7-19.1c10.1,6.9,22.5,9.6,34.6,7.4
			c13-2.4,24.4-10.2,31.3-21.6c10.5,8.2,23.9,11.5,37,9.1c15.3-2.8,28.1-13,34.2-27.3c10.8,11.2,26.4,16.2,41.7,13.4
			c11.2-2,21.3-8.1,28.3-17.2c9.4,5.2,20.2,6.9,30.8,5C974.1-309.1,990.8-333.2,986.2-358.4z"/>
		<circle class="st1" cx="-10.4" cy="-249.3" r="33.9"/>
	</g>
</g>
<g>
	<defs>
		<rect id="SVGID_5_" x="0" y="0" width="419.5" height="595.3"/>
	</defs>
	<clipPath id="SVGID_6_">
		<use xlink:href="#SVGID_5_"  style="overflow:visible;"/>
	</clipPath>
	<g class="st3">
		<rect x="-5.5" y="145.5" class="st4" width="431.5" height="6.9"/>
		<rect x="-4.6" y="152.4" width="431.5" height="23.7"/>
		<rect x="-4.6" y="176.1" class="st5" width="431.5" height="10.7"/>
		<rect x="-3.8" y="186.8" class="st6" width="431.5" height="3.4"/>
		<rect x="-5.1" y="131.4" class="st5" width="431.5" height="10.7"/>
		<rect x="-4.2" y="142.1" class="st6" width="431.5" height="3.4"/>
		<rect x="-5.7" y="204.6" class="st4" width="431.5" height="6.9"/>
		<rect x="-4.8" y="211.5" class="st7" width="431.5" height="23.7"/>
		<rect x="-4.8" y="235.2" class="st5" width="431.5" height="10.7"/>
		<rect x="-4" y="245.9" class="st8" width="431.5" height="11.4"/>
		<rect x="-5.2" y="190.5" class="st5" width="431.5" height="10.7"/>
		<rect x="-4.4" y="201.2" class="st6" width="431.5" height="3.4"/>
		<rect x="-5.7" y="295.8" class="st4" width="431.5" height="6.9"/>
		<rect x="-4.8" y="289.2" class="st9" width="431.5" height="6.6"/>
		<rect x="-4.8" y="261.4" class="st5" width="431.5" height="10.7"/>
		<rect x="-4" y="258" class="st6" width="431.5" height="3.4"/>
		<rect x="-5.2" y="306.1" class="st5" width="431.5" height="10.7"/>
		<rect x="-4.4" y="302.7" class="st6" width="431.5" height="3.4"/>
		<rect x="-4.2" y="282.7" width="431.5" height="6.6"/>
		<rect x="-4.4" y="272.1" class="st10" width="431.5" height="10.6"/>
		<rect x="-6.4" y="331.1" class="st4" width="431.5" height="6.9"/>
		<rect x="-5.6" y="337.9" class="st7" width="431.5" height="23.7"/>
		<rect x="-5.6" y="361.6" class="st5" width="431.5" height="10.7"/>
		<rect x="-4.7" y="372.3" class="st6" width="431.5" height="3.4"/>
		<rect x="-6" y="316.9" class="st5" width="431.5" height="10.7"/>
		<rect x="-5.2" y="327.6" class="st6" width="431.5" height="3.4"/>
		<rect x="-6.6" y="390.1" class="st4" width="431.5" height="6.9"/>
		<rect x="-5.8" y="397" class="st7" width="431.5" height="23.7"/>
		<rect x="-5.8" y="420.7" class="st5" width="431.5" height="10.7"/>
		<rect x="-4.9" y="431.4" class="st8" width="431.5" height="11.4"/>
		<rect x="-6.2" y="376" width="431.5" height="10.7"/>
		<rect x="-5.3" y="386.7" class="st6" width="431.5" height="3.4"/>
		<rect x="-6.6" y="481.4" class="st4" width="431.5" height="6.9"/>
		<rect x="-5.8" y="474.8" class="st9" width="431.5" height="6.6"/>
		<rect x="-5.8" y="446.9" class="st5" width="431.5" height="10.7"/>
		<rect x="-4.9" y="443.5" class="st6" width="431.5" height="3.4"/>
		<rect x="-6.2" y="491.7" class="st5" width="431.5" height="10.7"/>
		<rect x="-5.3" y="488.2" class="st6" width="431.5" height="3.4"/>
		<rect x="-5.2" y="468.2" class="st9" width="431.5" height="6.6"/>
		<rect x="-5.3" y="457.6" width="431.5" height="10.6"/>
		<rect x="-7" y="19.2" class="st4" width="431.5" height="6.9"/>
		<rect x="-6.1" y="26" class="st7" width="431.5" height="23.7"/>
		<rect x="-6.1" y="49.8" width="431.5" height="10.7"/>
		<rect x="-5.2" y="60.5" width="431.5" height="11.4"/>
		<rect x="-6.5" y="0" class="st11" width="431.5" height="15.7"/>
		<rect x="-5.7" y="15.7" width="431.5" height="3.4"/>
		<rect x="-7" y="110.4" class="st4" width="431.5" height="6.9"/>
		<rect x="-6.1" y="103.8" class="st9" width="431.5" height="6.6"/>
		<rect x="-6.1" y="76" class="st5" width="431.5" height="10.7"/>
		<rect x="-5.2" y="72.5" class="st6" width="431.5" height="3.4"/>
		<rect x="-6.5" y="120.7" class="st12" width="431.5" height="10.7"/>
		<rect x="-5.7" y="117.3" class="st6" width="431.5" height="3.4"/>
		<rect x="-5.5" y="97.2" class="st13" width="431.5" height="6.6"/>
		<rect x="-5.7" y="86.7" class="st10" width="431.5" height="10.6"/>
		<rect x="-6.6" y="502.4" class="st4" width="431.5" height="6.9"/>
		<rect x="-6.1" y="512.6" class="st14" width="431.5" height="31.7"/>
		<rect x="-5.3" y="509.2" class="st13" width="431.5" height="3.4"/>
		<rect x="-7.3" y="572.2" class="st9" width="431.5" height="6.6"/>
		<rect x="-7.3" y="544.3" class="st5" width="431.5" height="10.7"/>
		<rect x="-6.6" y="565.6" class="st9" width="431.5" height="6.6"/>
		<rect x="-6.8" y="555" class="st10" width="431.5" height="10.6"/>
		<rect x="-5.1" y="578.7" class="st9" width="431.5" height="6.6"/>
		<rect x="-4.5" y="585.3" width="431.5" height="6.6"/>
		<rect x="-4.6" y="591.9" class="st10" width="431.5" height="10.6"/>
	</g>
</g>
<g>
	<defs>
		<rect id="SVGID_7_" x="526.5" y="772.8" width="419.5" height="595.3"/>
	</defs>
	<clipPath id="SVGID_8_">
		<use xlink:href="#SVGID_7_"  style="overflow:visible;"/>
	</clipPath>
	<g class="st15">
		
			<rect x="519.2" y="743.1" transform="matrix(0.8907 -0.4546 0.4546 0.8907 -329.6859 361.7707)" class="st9" width="136.5" height="246.8"/>
	</g>
</g>
</svg>
