<?xml version="1.0" encoding="utf-8"?>
<!-- Generator: Adobe Illustrator 22.0.1, SVG Export Plug-In . SVG Version: 6.00 Build 0)  -->
<svg version="1.1" id="Calque_1" xmlns="http://www.w3.org/2000/svg" xmlns:xlink="http://www.w3.org/1999/xlink" x="0px" y="0px"
	 viewBox="0 0 419.5 595.3" style="enable-background:new 0 0 419.5 595.3;" xml:space="preserve">
<style type="text/css">
	.st0{clip-path:url(#SVGID_2_);}
	.st1{fill:none;stroke:#141412;stroke-miterlimit:10;}
	.st2{clip-path:url(#SVGID_4_);}
	.st3{fill:#FFFFFF;stroke:#141412;stroke-miterlimit:10;}
	.st4{clip-path:url(#SVGID_6_);}
	.st5{fill:#FFFFFF;stroke:#141412;stroke-width:0.82;stroke-miterlimit:10;}
	.st6{fill:#FFFFFF;stroke:#141412;stroke-width:0.6;stroke-miterlimit:10;}
	.st7{fill:#FFFFFF;stroke:#141412;stroke-width:0.66;stroke-miterlimit:10;}
	.st8{fill:#FFFFFF;stroke:#141412;stroke-width:0.53;stroke-miterlimit:10;}
	.st9{fill:#FFFFFF;stroke:#141412;stroke-width:0.42;stroke-miterlimit:10;}
	.st10{fill:#FFFFFF;stroke:#141412;stroke-width:0.31;stroke-miterlimit:10;}
</style>
<title>Plan de travail 13</title>
<g id="Calque_2_1_">
	<g>
		<defs>
			<rect id="SVGID_1_" x="0.3" y="-615.3" width="419" height="591.6"/>
		</defs>
		<clipPath id="SVGID_2_">
			<use xlink:href="#SVGID_1_"  style="overflow:visible;"/>
		</clipPath>
		<g class="st0">
			<line class="st1" x1="178.9" y1="-291.1" x2="178.9" y2="6.6"/>
			<line class="st1" x1="178.9" y1="-291.1" x2="178.9" y2="6.6"/>
			<line class="st1" x1="189.8" y1="-264.4" x2="189.8" y2="9.6"/>
			<line class="st1" x1="200.7" y1="-317.6" x2="200.7" y2="9.6"/>
			<line class="st1" x1="247.9" y1="-291.1" x2="247.9" y2="6.6"/>
			<line class="st1" x1="189.5" y1="-256.1" x2="189.5" y2="17.9"/>
			<line class="st1" x1="213.3" y1="-282.7" x2="213.3" y2="19.4"/>
			<line class="st1" x1="218.7" y1="-299.6" x2="218.7" y2="14.9"/>
		</g>
	</g>
	<g>
		<defs>
			<rect id="SVGID_3_" x="-439.5" y="0" width="417.9" height="595.2"/>
		</defs>
		<clipPath id="SVGID_4_">
			<use xlink:href="#SVGID_3_"  style="overflow:visible;"/>
		</clipPath>
		<g class="st2">
			<path class="st3" d="M36,61c-91.6,0-165.8,74.2-165.8,165.8c0,91.6,74.2,165.8,165.8,165.8c91.6,0,165.8-74.2,165.8-165.8
				c0,0,0,0,0,0C201.8,135.3,127.6,61,36,61z M36,382c-85.7,0-155.2-69.4-155.2-155.1S-49.8,71.7,35.9,71.7s155.2,69.4,155.2,155.1
				c0,0,0,0,0,0C191.1,312.5,121.7,382,36,382z"/>
		</g>
	</g>
	<g>
		<defs>
			<rect id="SVGID_5_" x="0" y="0" width="420.6" height="595.3"/>
		</defs>
		<clipPath id="SVGID_6_">
			<use xlink:href="#SVGID_5_"  style="overflow:visible;"/>
		</clipPath>
		<g class="st4">
			<circle class="st5" cx="118.3" cy="526" r="33.9"/>
			<circle class="st5" cx="189.6" cy="512.9" r="33.9"/>
			
				<ellipse transform="matrix(0.9837 -0.18 0.18 0.9837 -85.8215 55.3899)" class="st5" cx="262.3" cy="500.6" rx="33.9" ry="33.9"/>
			<circle class="st5" cx="334.1" cy="487.4" r="33.9"/>
			<circle class="st5" cx="407.6" cy="474" r="33.9"/>
			<circle class="st6" cx="-20" cy="443.7" r="24.8"/>
			<circle class="st7" cx="73.9" cy="472.1" r="27.6"/>
			<circle class="st7" cx="137.2" cy="460.5" r="27.6"/>
			<circle class="st7" cx="213.7" cy="447.3" r="27.6"/>
			<circle class="st7" cx="282.9" cy="434.6" r="27.6"/>
			<circle class="st7" cx="352.9" cy="421.8" r="27.6"/>
			<circle class="st7" cx="418.5" cy="408.3" r="27.6"/>
			<circle class="st8" cx="33.8" cy="427.9" r="21.9"/>
			<circle class="st8" cx="95.7" cy="415.9" r="21.9"/>
			<circle class="st8" cx="164.4" cy="404.8" r="21.9"/>
			<circle class="st8" cx="231.6" cy="391.7" r="21.9"/>
			<circle class="st8" cx="293.1" cy="379.8" r="21.9"/>
			<circle class="st8" cx="356.8" cy="369.6" r="21.9"/>
			<circle class="st8" cx="421.8" cy="354.8" r="21.9"/>
			<circle class="st9" cx="10.7" cy="376.7" r="17.4"/>
			<circle class="st9" cx="64.2" cy="365.8" r="17.4"/>
			<circle class="st9" cx="121.5" cy="355.3" r="17.4"/>
			
				<ellipse transform="matrix(0.9837 -0.18 0.18 0.9837 -59.0632 38.8644)" class="st9" cx="184.6" cy="344.9" rx="17.4" ry="17.4"/>
			<circle class="st9" cx="236.4" cy="334.2" r="17.4"/>
			<circle class="st9" cx="300.4" cy="323" r="17.4"/>
			<circle class="st9" cx="372.1" cy="308.3" r="17.4"/>
			
				<ellipse transform="matrix(0.979 -0.204 0.204 0.979 -64.9551 10.9707)" class="st10" cx="20.7" cy="320.5" rx="12.9" ry="12.9"/>
			
				<ellipse transform="matrix(0.9835 -0.1807 0.1807 0.9835 -52.7543 22.4652)" class="st10" cx="97" cy="300.9" rx="12.9" ry="12.9"/>
			<ellipse transform="matrix(0.9837 -0.18 0.18 0.9837 -47.8546 37.0379)" class="st10" cx="180.2" cy="282.2" rx="13" ry="13"/>
			<circle class="st10" cx="262.3" cy="259.9" r="13"/>
			<ellipse transform="matrix(0.9837 -0.18 0.18 0.9837 -37.6852 65.1131)" class="st10" cx="339.9" cy="240.2" rx="13" ry="13"/>
			
				<ellipse transform="matrix(0.9835 -0.1807 0.1807 0.9835 -33.3452 77.0179)" class="st10" cx="406.2" cy="221.6" rx="12.9" ry="12.9"/>
			<path class="st3" d="M558.7,524.9c-4.6-25.2-28.8-41.9-53.9-37.3c-11.2,2.1-21.3,8.2-28.3,17.2c-22.4-12.4-50.6-4.2-63,18.2
				c-0.7,1.3-1.4,2.7-2,4.1c-17.8-18.4-47.1-18.9-65.5-1.2c-2.9,2.8-5.4,5.9-7.5,9.3c-20.1-15.8-49.3-12.3-65.1,7.9
				c-0.5,0.7-1.1,1.4-1.6,2.1c-21.1-14.5-50-9.1-64.4,12c-0.7,1-1.4,2.1-2,3.2c-19.8-16.3-49-13.5-65.3,6.3c-2.7,3.3-5,7-6.7,11
				c-17.2-19-46.5-20.4-65.5-3.2c-4.6,4.1-8.3,9.2-10.9,14.7c-20.2-13.7-47.6-9.4-62.6,9.9c-9.4-5.2-20.2-6.9-30.8-5
				c-15.3,2.8-28.1,13-34.2,27.3c-10.8-11.2-26.4-16.2-41.7-13.4c-13,2.4-24.4,10.2-31.3,21.6c-10.4-8.2-23.9-11.5-36.9-9.1
				c-12.1,2.2-22.7,9.1-29.7,19.1c-10.1-6.9-22.5-9.6-34.6-7.4c-13.5,2.4-25.2,10.7-31.9,22.5c-10.5-8.7-24.4-12.3-37.8-9.8
				c-15.2,2.8-28,13-34.2,27.2c-10.8-11.9-26.9-17.3-42.7-14.4c-25.2,4.6-41.9,28.8-37.3,54c0,0,0,0,0,0c4.6,25.2,28.8,41.9,54,37.3
				c0,0,0,0,0,0c15.2-2.8,28-13,34.1-27.1c10.8,11.8,26.9,17.3,42.6,14.4c13.5-2.5,25.1-10.7,31.9-22.6c10.5,8.7,24.4,12.3,37.8,9.8
				c12.1-2.2,22.7-9.1,29.7-19.1c10.1,6.9,22.5,9.6,34.6,7.4c13-2.4,24.4-10.2,31.3-21.6c10.4,8.2,23.9,11.5,36.9,9.1
				c15.3-2.8,28.1-13,34.2-27.3c10.8,11.2,26.4,16.2,41.7,13.4c11.2-2,21.3-8.1,28.3-17.1c22.4,12.4,50.6,4.2,63-18.2
				c0.5-0.9,1-1.9,1.4-2.8c21.2,14.4,50,8.9,64.4-12.3c1.6-2.4,3-4.9,4.2-7.6c17.2,18.9,46.5,20.4,65.5,3.1
				c3.6-3.3,6.7-7.1,9.1-11.3c19.7,16.3,48.9,13.5,65.3-6.2c0.8-1,1.6-2,2.3-3c21.1,14.5,50,9.1,64.4-12c0.5-0.7,1-1.5,1.4-2.2
				c20.2,15.8,49.3,12.2,65.1-7.9c2.5-3.2,4.5-6.6,6.1-10.3c17.8,18.4,47.1,19,65.6,1.2c1.6-1.5,3.1-3.2,4.4-5
				c22.4,12.4,50.6,4.2,63-18.2C558.8,546.2,560.6,535.4,558.7,524.9L558.7,524.9z"/>
			<circle class="st3" cx="44.2" cy="539.5" r="33.9"/>
		</g>
	</g>
</g>
</svg>
