<svg xmlns="http://www.w3.org/2000/svg" xmlns:xlink="http://www.w3.org/1999/xlink" width="148mm" height="210mm" viewBox="0 0 419.53 595.28">
  <defs>
    <style>
      .cls-1, .cls-3 {
        fill: none;
      }

      .cls-2 {
        clip-path: url(#clip-path);
      }

      .cls-3 {
        stroke: #141412;
        stroke-miterlimit: 10;
      }
    </style>
    <clipPath id="clip-path">
      <rect class="cls-1" y="-614.32" width="419.53" height="594.32"/>
    </clipPath>
  </defs>
  <title>Plan de travail 4</title>
  <g id="Calque_2" data-name="Calque 2">
    <g class="cls-2">
      <path class="cls-3" d="M161.55-32.73c-10.2-5.11-10.83-19.9-1.26-29.48s27-11.66,34.82-4.13c3.67-7.46,11.85-13.85,20.56-16.08s17.59-.18,22.32,5.14c3,3.32,4.23,8.33,1.44,12.86,5.84-1.57,12-2.38,17.16-1.1s9.34,5,9.46,9.92-4.61,10.93-10.48,12.15c8.08.2,16.72,1.28,20.8,6.68s-.2,16.23-8.55,17.63c6.91,3.93,9.27,12.62,5.59,20.6S260.27,16.11,251,17.26c-2.68,8.55-10.6,16.69-20.09,20.65s-20.18,3.6-27.13-.92c-4,3.34-9.07,7-13.63,6.17a9.19,9.19,0,0,1-4.43-2.49,32.2,32.2,0,0,1-9.61-15.53c-6.76,2.65-14.29,4.21-20.16,2.23s-9.1-8.48-5.39-14.19c-10.68,1.72-21.66.29-28.08-5.72s-7-17.14.42-25.16c-5.49-2.58-3.25-11.12,2.46-15.64s13.19-6,20.16-7.33a7.19,7.19,0,0,1-.77-9.07c2.06-3.16,7.11-5.15,9.94-3.5"/>
    </g>
    <line class="cls-3" x1="419.53" y1="338.55" x2="31.34" y2="338.55"/>
    <line class="cls-3" x1="419.53" y1="357.25" x2="52.68" y2="357.25"/>
    <line class="cls-3" x1="419.53" y1="329.75" x2="52.68" y2="329.75"/>
    <line class="cls-3" x1="419.53" y1="283.54" x2="8.9" y2="283.54"/>
    <line class="cls-3" x1="419.53" y1="273.64" x2="31.34" y2="273.64"/>
    <line class="cls-3" x1="419.53" y1="293.44" x2="103.19" y2="293.44"/>
    <line class="cls-3" x1="419.53" y1="384.76" x2="164.69" y2="384.76"/>
    <line class="cls-3" x1="419.53" y1="253.83" x2="318.15" y2="253.83"/>
  </g>
</svg>
