<svg xmlns="http://www.w3.org/2000/svg" xmlns:xlink="http://www.w3.org/1999/xlink" width="148mm" height="210mm" viewBox="0 0 419.53 595.28">
  <defs>
    <style>
      .cls-1, .cls-5 {
        fill: none;
      }

      .cls-2 {
        clip-path: url(#clip-path);
      }

      .cls-3 {
        fill: #fff;
      }

      .cls-3, .cls-5 {
        stroke: #141412;
        stroke-miterlimit: 10;
      }

      .cls-4 {
        clip-path: url(#clip-path-2);
      }

      .cls-6 {
        clip-path: url(#clip-path-3);
      }
    </style>
    <clipPath id="clip-path">
      <rect class="cls-1" x="-439.53" width="417.15" height="591.04"/>
    </clipPath>
    <clipPath id="clip-path-2">
      <rect class="cls-1" width="419.53" height="595.28"/>
    </clipPath>
    <clipPath id="clip-path-3">
      <rect class="cls-1" x="439.53" width="419.53" height="595.28"/>
    </clipPath>
  </defs>
  <title>Plan de travail 19</title>
  <g id="Calque_2" data-name="Calque 2">
    <g class="cls-2">
      <path class="cls-3" d="M-67.91,515.1c-3.19-17.37,3.3-36.15-3.31-52.52-1.84-4.55-4.61-8.67-6.67-13.13-4.07-8.83-5.2-18.68-6.37-28.33Q-90.14,372.6-99,324.5c-2.91-15.73-6.07-31.49-6.67-47.47a150.3,150.3,0,0,1,21-82.1L5.11,331.87-48.21,227.5c-2.77-5.43-5.58-10.91-9.51-15.57-3.28-3.9-7.28-7.14-10.62-11C-85.84,180.71-81,150.16-75.2,124c5.13,11.06,53.24,47,71.77,76.14,11.5-32-4-66.49-12.19-99.5q-2.21-9-3.68-18.11l16.19-35-9-43.63,2.36-9.43-16.9-6.29L-177.64-8.69l-1.7,4.89c-16.52-.63-35.2-.47-48.85.89-3.11.31-6.43.7-8.84,2.69-2.8,2.32-3.73,6.26-6.24,8.88-4.1,4.28-10.92,3.86-16.81,3.21A641.08,641.08,0,0,0-442.82,18a35,35,0,0,1-5,18.06l51.44-1.9,0-15.45A725.81,725.81,0,0,1-291.25,30.19l-10.19,7.42,76.61-4.13a34,34,0,0,1-21.39,23.25l21-5.27a65.06,65.06,0,0,1-33.69,26.23c-7.92,2.66-16.9,4.1-22.46,10.34-4.48,5-5.73,12.14-9.4,17.78-5.22,8-14.58,12.1-23.16,16.34A212.07,212.07,0,0,0-374,166.6l54.22-31c-11.7,16.6-24.29,34-42.84,42.22-8.64,3.85-18.09,5.47-27,8.72-21,7.7-37.55,23.94-53.4,39.73a228.32,228.32,0,0,0,60.91-28.53l-44,50.79c-4.59,5.3-9.23,10.67-12.27,17-6.06,12.54-5.31,27.61-9.86,40.56,6.93-17.37,8.6-37.76,22.68-49.74,4.13-3.51,9.05-6,13.2-9.47,6.17-5.18,10.3-12.3,14.84-19A160.78,160.78,0,0,1-352,183.52c6.58-4.26,13.5-8.05,19.48-13.12,6.13-5.2,11.09-11.61,16-18l34.06-44.06c7.46-9.65,15.63-19.82,27.24-23.57l-11.58,26.72a95.15,95.15,0,0,1,36.48-34.26c2.4-1.27,5.56-2.37,7.63-.61,1.58,1.34,1.69,3.69,1.69,5.76v1c3-7.35,7.36,1,9,3.78,7.73,12.09,1.36,28.9-9.47,38.32s-25,13.78-38,19.91-18.05,11.75-21.68,25.64c10.55-8.79,36.72.8,47-11-11.43,16.7-66.36,71.05-109.93,81.41,2.46,6.39-2.59,12.89-5.9,18.88s-3.31,15.94,3.42,17.16C-354,292.37-378,291-386.61,305.16c-2.63,4.31-3.4,9.49-5.48,14.08-5.06,11.17-16.89,17.35-25.69,25.89-19.19,18.64-24.64,49.53-47,64.22,28.1-7.11,48.17-31.14,66.22-53.83l27.83-35,10.64-13.38c10-12.58,20.43-26.15,21.9-42.16a38,38,0,0,1,.71-5.88c2.09-8.25,11.15-12.23,18.83-15.92,41.39-19.89,74.76-51.46,99.47-91.88-13.3,2-23.8,10.26-55.92,14.24,0-15.19,62.5-28.39,88.21-65.7-.27,25.67-24.46,45.75-27.12,71.29,9.84-14.67,34.4-56.05,45.76-63.87l-1.78.93a77,77,0,0,1,30.24-16.07c1.72,19.58-17.26,35.12-20.42,54.52-1.48,9.1.64,18.39.21,27.59-1.58,33.79-34.68,55.54-58.93,79.12-10.26,10-19.9,25.22-12.85,37.68,2.09,3.69,5.59,7,5.65,11.2,0,2.63-1.31,5.06-2.55,7.38-29.86,55.78-24,130.78-70.26,173.92-5.27,4.91-11.1,9.25-15.79,14.71-5.29,6.17-8.94,13.54-12.54,20.83l-45.42,92.1,13.64-.64a735.61,735.61,0,0,1,59.48-103.6l9.71,7c6.53-11.88,17.41-20.68,25.57-31.5,19.16-25.4,21.73-59.12,25.39-90.72s10.65-65.79,35-86.21c-13.4.79-20.4-17.93-14.52-30s18.72-18.74,30.14-25.8a204.57,204.57,0,0,0,37.8-30.1c3.91-4,7.79-8.29,9.26-13.66,2.47-9-2.43-18.29-3.53-27.59C-148,150.79-119.33,131.09-107.6,106a86.63,86.63,0,0,1,8.13,31.63l2.79-24.82c8,28,3.14,58.5-8.28,85.3-5.49,12.88-12.51,25.36-14.78,39.17-2.07,12.61,0,25.48.05,38.26.23,42.82-21.75,84.21-17.14,126.78.76,7,2.23,14,1.46,21-.84,7.6-4.29,14.62-7.67,21.47l-26.73,54,17-3.5c-10.56,40.14,2.49,83-1.74,124.08l17.19-111.28c.83-5.38,1.6-11.17-.85-16s-9.54-7.67-13.5-3.94c-2.33-25.52,27.2-41.91,36.28-65.87.91-2.4,1.59-5.13.54-7.47-1.5-3.31-5.62-4.26-8.83-6-12.73-6.75-11.21-25.19-7.86-39.21,4.07-17,8.57-34.84,20.54-47.58q7.11,62.26,20.23,123.64c1.34,6.27,2.75,12.59,5.37,18.44,3.57,8,9.37,15.09,11,23.66,2.18,11.47-3.54,23.11-2.63,34.74.52,6.65,3.18,12.93,5.8,19.06l34,79.64A237,237,0,0,0-57.6,542.13C-61.59,533.32-66.17,524.61-67.91,515.1Z"/>
    </g>
    <g class="cls-4">
      <rect class="cls-3" x="135.63" y="143.98" width="10.47" height="543.57" transform="translate(-203.93 144.07) rotate(-33.04)"/>
      <rect class="cls-3" x="193.92" y="-46.19" width="5.55" height="740.75" transform="translate(-144.96 159.69) rotate(-33.04)"/>
      <rect class="cls-3" x="332.58" y="-39.17" width="5.23" height="362.59" transform="translate(-23.28 205.77) rotate(-33.04)"/>
      <polygon class="cls-5" points="305.48 363.48 431.05 557.86 431.05 526.04 305.48 363.48"/>
      <polygon class="cls-5" points="19.93 358.32 196.69 668.95 196.69 618.1 19.93 358.32"/>
      <path class="cls-5" d="M112,276a21.46,21.46,0,0,1,10.62,12.5,30.94,30.94,0,0,0,1.7,5.08,20.76,20.76,0,0,0,4.09,4.84,65.62,65.62,0,0,1,12.5,17.33c-1.34.29-2.09-1.49-2.29-2.85l-1.9-13c-.44-3-1.68-6.77-4.71-6.9a33.05,33.05,0,0,0-20.14-17.69"/>
      <path class="cls-5" d="M151.28,337.17a4,4,0,0,0,1.48,4.52,3.3,3.3,0,0,0,.67,3.93c.51.46,1.16.74,1.65,1.22a5.7,5.7,0,0,1,1,1.58l3.73,7.37,9,17.68c2.85,5.61,5.7,11.23,9,16.57a11.31,11.31,0,0,1-1.67-6,6.82,6.82,0,0,0-.19-2.53,5.34,5.34,0,0,0-1.35-1.78,9.89,9.89,0,0,1-3-4.47,23.1,23.1,0,0,1-.17-4,18.28,18.28,0,0,0-2-6.41c-4.71-10.31-9.76-21-18.8-27.89"/>
      <path class="cls-5" d="M186.52,401.2c2.78,4.88,5.62,9.92,6.41,15.48a40,40,0,0,0,.65,4.45,24.91,24.91,0,0,0,2.53,5.49c4.52,8.32,7.31,17.44,10.87,26.22a34.38,34.38,0,0,0,5.54,9.93,20.13,20.13,0,0,1,2.77,3.4c.8,1.46,1,3.21,2.05,4.53,1.67,2.18,5.38,3.32,5.09,6.06-.07.65-.4,1.32-.18,1.94a2.35,2.35,0,0,0,1.15,1.12,47.44,47.44,0,0,0,7.49,3.54,9.88,9.88,0,0,0,4.83,6.32,17.91,17.91,0,0,0,1.68,10.17,35.59,35.59,0,0,0,2.49,4.09l9.93,14.75a13.81,13.81,0,0,1,9.28,5c4.44,5.52,7.27,12.36,12.81,16.77a9.62,9.62,0,0,1,2.85,2.95,23.81,23.81,0,0,1,.86,2.58c1.69,4.63,8.06,6.93,8.33,11.85A173.85,173.85,0,0,0,278.07,534a11.05,11.05,0,0,0-1.52-3.33c-1-1.3-2.46-2.11-3.65-3.21a9.93,9.93,0,0,1-3.16-7.21c0-1.27.24-2.61-.3-3.77a6.06,6.06,0,0,0-1.72-1.93l-9-7.55c-3.25-2.74-6.65-5.68-8-9.7a10.91,10.91,0,0,0-1.07-2.71c-1-1.46-2.89-2-4-3.39a8.85,8.85,0,0,1-1.49-3.11l-2.39-7.32c-1.35-4.12-2.84-8.46-6.17-11.24s-8.94-4.47-9.35-8.92c-.18-1.94.8-3.87.48-5.79-.56-3.47-4.92-5.25-5.68-8.69l-3.43,1.7,4.8-7c0,.71-1.18.7-1.56.1s-.32-1.37-.61-2c-.69-1.54-3.5-1.14-3.74.53l.1-4.31a2.73,2.73,0,0,0-2.58.44c1.18-2,.52-4.65-.64-6.69s-2.79-3.83-3.66-6c-.54-1.36-.78-2.83-1.4-4.15-1-2.11-2.89-3.63-4.71-5.08l-4.41-3.49-12.39-9.81c-.31-.24-.69-.5-1.06-.37s-.31.86.07.77Z"/>
      <path class="cls-5" d="M220.94,102v4.78l3.72.38a15.5,15.5,0,0,1-2.05,8.25l13,.31-4.08,7.63c2.95.34,4.5,3.78,4.57,6.75s-.73,6,0,8.87c.94,3.49,4,6,7.06,7.87a10.08,10.08,0,0,1,3.36,2.77c.8,1.23.85,3.09-.3,4a35.29,35.29,0,0,0,11,3.33c-2.47,0-3.25,3.82-1.56,5.62s4.43,2,6.9,2.11c-1.9,2.16-.74,5.63,1.15,7.79s4.46,3.8,5.73,6.37,1,5.33,1.47,8,1.84,5.67,4.52,6.26c-2.35,2.11-.28,5.92,1.82,8.29l11.82,13.32a7.54,7.54,0,0,1,2.19,3.74c.24,1.77-.75,3.75.21,5.26,1.92,3,7.8-.72,9.86,2.2a4.73,4.73,0,0,1,.63,2.45q.51,7.48.3,15a109.08,109.08,0,0,0,26.11-1.25,59.27,59.27,0,0,1,2,14.24,16.7,16.7,0,0,1,8-1.63c-1,1.45-.31,3.47.8,4.8s2.64,2.3,3.71,3.68a22.77,22.77,0,0,1,1.83,3.15,43.83,43.83,0,0,0,3.12,4.7l25.51,35-10.24-29.21c-1.79-5.09-3.76-10.46-8-13.85-1.41-1.14-3-2-4.33-3.26a19.49,19.49,0,0,1-3.38-4.82q-5.22-9.42-9.55-19.29c-1.84-4.19-4.78-9.21-9.33-8.71a11.3,11.3,0,0,0-14.09-2.67c-1.66-3.84-.21-8.53-2-12.32a8.16,8.16,0,0,0-11.64-3l.56-3.75c-5.1-2.09-12.09-.6-15.33-5.06s.58-11.41-1.57-16.69c-1.65-4-6.31-6-8.88-9.48-3.58-4.91-2.6-12.17-6.44-16.89-1.57-1.92-3.78-3.2-5.55-4.94s-3.12-4.33-2.27-6.66l-10.61-2.58c1.79-2.18.14-5.56-2.11-7.27s-5.1-2.73-6.76-5c-3.26-4.51-.1-10.79-.64-16.33a3.11,3.11,0,0,0-.76-2c-1-1-2.65-.45-4-.48-3.15-.07-5.3-3.07-7.22-5.57s-5-5-7.9-3.77"/>
      <path class="cls-5" d="M172.09,137.85a2.48,2.48,0,0,0-1.16-3,2,2,0,0,0-.54-2.59c-.39-.3-.88-.48-1.25-.79a3.76,3.76,0,0,1-.79-1l-2.88-4.83-6.91-11.58c-2.19-3.67-4.39-7.35-6.95-10.84a6.8,6.8,0,0,1,1.31,4,4,4,0,0,0,.17,1.67,3.61,3.61,0,0,0,1,1.16,6.56,6.56,0,0,1,2.32,2.92,13.43,13.43,0,0,1,.16,2.62,11.05,11.05,0,0,0,1.58,4.21c3.64,6.76,7.54,13.79,14.4,18.21"/>
      <path class="cls-5" d="M145,95.95c-2.14-3.2-4.32-6.49-5-10.16a23.43,23.43,0,0,0-.53-2.93,15.6,15.6,0,0,0-2-3.6c-3.48-5.44-5.66-11.44-8.42-17.2a22.1,22.1,0,0,0-4.26-6.5,13.81,13.81,0,0,1-2.11-2.21c-.61-1-.81-2.11-1.59-3-1.28-1.42-4.08-2.14-3.88-3.94,0-.43.28-.88.12-1.29a1.68,1.68,0,0,0-.88-.73,38,38,0,0,0-5.66-2.26,6.71,6.71,0,0,0-3.69-4.12,10.58,10.58,0,0,0-1.36-6.7,23.18,23.18,0,0,0-1.91-2.67l-7.6-9.63a10.84,10.84,0,0,1-7-3.22c-3.39-3.6-5.58-8.08-9.79-10.94A6.81,6.81,0,0,1,77.31,3a14.44,14.44,0,0,1-.67-1.7c-1.32-3-6.12-4.49-6.37-7.73A103.51,103.51,0,0,0,74.91,9.24a6.92,6.92,0,0,0,1.17,2.18,19.91,19.91,0,0,0,2.78,2.08,6.22,6.22,0,0,1,2.45,4.73,5.13,5.13,0,0,0,.26,2.48A4.23,4.23,0,0,0,82.88,22l6.82,4.89c2.47,1.77,5,3.68,6.12,6.32A6.72,6.72,0,0,0,96.65,35c.76,1,2.19,1.32,3.07,2.19a5.58,5.58,0,0,1,1.15,2L102.74,44c1.05,2.71,2.22,5.56,4.74,7.36s6.76,2.86,7.11,5.79c.15,1.28-.56,2.57-.31,3.83.46,2.28,3.75,3.42,4.35,5.67l2.56-1.16-3.54,4.67c0-.47.88-.47,1.17-.09s.25.9.48,1.32c.54,1,2.64.71,2.81-.39l0,2.84a2.28,2.28,0,0,0,1.93-.32c-.87,1.35-.34,3.08.55,4.41a33.66,33.66,0,0,1,2.81,3.93c.42.89.61,1.86,1.09,2.73a10.77,10.77,0,0,0,3.59,3.3l3.35,2.26,9.4,6.34a1,1,0,0,0,.8.23c.28-.09.23-.57-.06-.51Z"/>
      <path class="cls-5" d="M200.88,179.72c4.2,4.36,4.66,11,5.74,16.91a63.73,63.73,0,0,0,16.6,32.46l-.49,3.43,6.08,1.79a7.35,7.35,0,0,1-.8,5.1c3.81,2.41,5.64,6.91,7.24,11.12,2-1.8,5.14.5,6,3s1,5.53,3,7.31c.93.82,2.14,1.24,3.13,2,1.63,1.23,2.48,3.2,3.35,5a63.45,63.45,0,0,0,11.31,16.49,22,22,0,0,1,4,4.89,23.14,23.14,0,0,1,1.45,4.28A49.41,49.41,0,0,0,275,309.11c7.29,10,18.67,17.94,21.07,30.1L293,324.73c-.6-2.81-1.53-6-4.17-7.13-1.33-.56-2.9-.47-4.15-1.19a6.72,6.72,0,0,1-2.38-3,52.48,52.48,0,0,1-4.65-32.2l-2.91.86a7.59,7.59,0,0,0-2.92-5.51L268.43,279A44.91,44.91,0,0,0,257,267.85L244.2,246.71c-2.62-4.34-5.35-8.79-9.45-11.78-1.87-1.36-4.11-2.53-5-4.67-.61-1.52-.4-3.28-1-4.8-1.17-2.89-4.86-4-6.47-6.64-1.35-2.24-1-5.14-2.09-7.51-1.38-3-4.7-4.44-6.84-6.9-3.2-3.7-3.37-9-4.44-13.79s-4.27-10-9.16-10"/>
      <rect class="cls-3" x="197" y="184.96" width="5.55" height="740.75" transform="matrix(0.84, -0.55, 0.55, 0.84, -270.51, 198.76)"/>
      <rect class="cls-3" x="469.76" y="-64.31" width="5.55" height="740.75" transform="translate(-90.46 307.18) rotate(-33.04)"/>
      <polygon class="cls-5" points="323.94 -0.43 449.51 193.94 449.51 162.12 323.94 -0.43"/>
      <rect class="cls-3" x="106.59" y="390.66" width="10.47" height="543.57" transform="translate(-343.14 168.13) rotate(-33.04)"/>
      <path class="cls-5" d="M82.92,522.63a21.46,21.46,0,0,1,10.62,12.5,30.94,30.94,0,0,0,1.7,5.08A20.76,20.76,0,0,0,99.33,545a65.62,65.62,0,0,1,12.5,17.33c-1.34.29-2.09-1.49-2.29-2.85l-1.9-13c-.44-3-1.68-6.77-4.71-6.9A33.05,33.05,0,0,0,82.77,522"/>
    </g>
    <g class="cls-6">
      <rect class="cls-5" x="432.19" y="-29.73" width="136.54" height="246.79" transform="translate(12.13 237.77) rotate(-27.04)"/>
      <rect class="cls-5" x="406.36" y="488.66" width="83.43" height="150.8" transform="translate(663.12 -123.46) rotate(55.83)"/>
      <rect class="cls-5" x="360.48" y="393.53" width="100.3" height="200.28" transform="translate(588.47 -123.34) rotate(55.83)"/>
    </g>
  </g>
</svg>
