<svg xmlns="http://www.w3.org/2000/svg" width="148mm" height="210mm" viewBox="0 0 419.53 595.28">
  <defs>
    <style>
      .cls-1 {
        fill: none;
        stroke: #141412;
        stroke-miterlimit: 10;
      }
    </style>
  </defs>
  <title>Plan de travail 8</title>
  <g id="Calque_2" data-name="Calque 2">
    <line class="cls-1" y1="472.03" x2="154.07" y2="356.53"/>
    <line class="cls-1" x1="419.53" y1="276.12" x2="284.56" y2="300.71"/>
    <line class="cls-1" x1="151.65" x2="197.13" y2="239.16"/>
    <line class="cls-1" y1="94.19" x2="142.87" y2="242.79"/>
    <line class="cls-1" y1="283.52" x2="131.79" y2="302.41"/>
    <line class="cls-1" x1="232.43" x2="217.27" y2="226.1"/>
    <line class="cls-1" x1="-2.17" y1="410.39" x2="139.66" y2="346.4"/>
    <line class="cls-1" x1="354.21" y1="595.28" x2="244.56" y2="379.61"/>
    <line class="cls-1" x1="419.53" y1="437.66" x2="258.26" y2="341.89"/>
    <line class="cls-1" y1="390.92" x2="122.41" y2="346.4"/>
    <line class="cls-1" x1="419.53" y1="488.24" x2="269.91" y2="363.03"/>
    <line class="cls-1" x1="209.76" y1="595.28" x2="210.72" y2="392.91"/>
    <line class="cls-1" x1="154.95" y1="595.28" x2="199.49" y2="372"/>
    <line class="cls-1" x1="314.89" y1="595.28" x2="244.56" y2="406.62"/>
    <line class="cls-1" x1="278.03" y1="595.28" x2="231.39" y2="399.14"/>
    <line class="cls-1" x1="419.53" y1="532.06" x2="305.49" y2="412.63"/>
    <line class="cls-1" x1="419.53" y1="287.42" x2="269.34" y2="306.41"/>
    <line class="cls-1" x1="419.53" y1="317.07" x2="289.38" y2="315.18"/>
    <line class="cls-1" x1="419.53" y1="330.44" x2="262.84" y2="318.1"/>
    <line class="cls-1" x1="117.69" y1="595.28" x2="178.96" y2="410.62"/>
    <line class="cls-1" x1="103.93" y1="595.28" x2="183.65" y2="385.88"/>
    <line class="cls-1" x1="260.78" y1="595.28" x2="220.33" y2="366.12"/>
    <line class="cls-1" x1="419.53" y1="362.94" x2="277.46" y2="329.57"/>
    <line class="cls-1" x1="419.53" y1="111.46" x2="264" y2="262.82"/>
    <line class="cls-1" x1="419.53" y1="204.29" x2="253.41" y2="291.88"/>
    <line class="cls-1" x1="419.53" y1="224.86" x2="279.73" y2="284.76"/>
    <line class="cls-1" x1="419.53" y1="595.28" x2="274.35" y2="399.14"/>
    <line class="cls-1" x1="185.65" y1="595.28" x2="205.15" y2="379.55"/>
    <line class="cls-1" x1="39.03" y1="595.28" x2="167.03" y2="385.88"/>
    <line class="cls-1" y1="134.76" x2="158.76" y2="269.39"/>
    <line class="cls-1" y1="210.29" x2="117.64" y2="268.04"/>
    <line class="cls-1" y1="255.98" x2="118.45" y2="288.41"/>
    <line class="cls-1" y1="303.8" x2="103.03" y2="308.8"/>
    <line class="cls-1" x1="357.74" x2="247.39" y2="236.77"/>
    <line class="cls-1" x1="214.13" x2="212.26" y2="193.47"/>
    <line class="cls-1" x1="173.92" x2="201.06" y2="229.09"/>
    <line class="cls-1" y1="334.98" x2="105.55" y2="324.38"/>
    <line class="cls-1" y1="363.37" x2="135.88" y2="331.66"/>
    <line class="cls-1" x1="286.14" x2="226.38" y2="251"/>
    <line class="cls-1" x1="74.36" x2="172.41" y2="224.75"/>
    <line class="cls-1" x2="134" y2="199.09"/>
    <line class="cls-1" y1="596.29" x2="168.09" y2="371.34"/>
    <line class="cls-1" x1="-0.6" y1="527.55" x2="154.05" y2="371.38"/>
    <line class="cls-1" y1="457.98" x2="135.93" y2="365.13"/>
    <line class="cls-1" x1="260.79" y1="240.19" x2="419.53" y2="2.97"/>
    <line class="cls-1" x1="240.56" y1="265.82" x2="399.61" y2="2.97"/>
  </g>
</svg>
