<svg xmlns="http://www.w3.org/2000/svg" xmlns:xlink="http://www.w3.org/1999/xlink" width="148mm" height="210mm" viewBox="0 0 419.53 595.28">
  <defs>
    <style>
      .cls-1, .cls-2, .cls-5 {
        fill: none;
      }

      .cls-2, .cls-5, .cls-7 {
        stroke: #141412;
        stroke-miterlimit: 10;
      }

      .cls-3 {
        clip-path: url(#clip-path);
      }

      .cls-4 {
        clip-path: url(#clip-path-2);
      }

      .cls-5 {
        stroke-width: 0.5px;
      }

      .cls-6 {
        clip-path: url(#clip-path-3);
      }

      .cls-7 {
        fill: #fff;
      }
    </style>
    <clipPath id="clip-path">
      <rect class="cls-1" x="-439.53" width="419.53" height="595.28"/>
    </clipPath>
    <clipPath id="clip-path-2">
      <rect class="cls-1" y="614.69" width="417.88" height="594.47"/>
    </clipPath>
    <clipPath id="clip-path-3">
      <rect class="cls-1" x="-439.53" y="615.28" width="419.53" height="593.88"/>
    </clipPath>
  </defs>
  <title>Plan de travail 7</title>
  <g id="Calque_2" data-name="Calque 2">
    <line class="cls-2" y1="363.37" x2="266.18" y2="132.82"/>
    <g class="cls-3">
      <polygon class="cls-2" points="-20.1 637.9 -70.25 603.6 -126.93 625.46 -109.8 567.17 -148.11 520.02 -87.38 518.3 -54.37 467.3 -33.97 524.52 24.74 540.15 -23.38 577.24 -20.1 637.9"/>
    </g>
    <line class="cls-2" y1="500.59" x2="336.24" y2="99.38"/>
    <line class="cls-2" y1="406" x2="305.46" y2="110.39"/>
    <line class="cls-2" y1="420.21" x2="359.45" y2="60.18"/>
    <line class="cls-2" y1="466.81" x2="354.84" y2="71.98"/>
    <line class="cls-2" x1="6.76" y1="595.28" x2="384.18" y2="50.98"/>
    <line class="cls-2" x1="114.18" y1="595.28" x2="375.68" y2="88.5"/>
    <line class="cls-2" x1="170.67" y1="595.28" x2="378.76" y2="97.52"/>
    <line class="cls-2" x1="62.72" y1="595.66" x2="377.66" y2="73"/>
    <line class="cls-2" x1="228.41" y1="595.28" x2="356.17" y2="203"/>
    <line class="cls-2" x1="18.95" y1="595.28" x2="367.6" y2="77.16"/>
    <line class="cls-2" y1="539.74" x2="359.99" y2="79.62"/>
    <line class="cls-2" x1="138.92" y1="597.3" x2="361.19" y2="128.76"/>
    <g class="cls-4">
      <line class="cls-5" x1="363.44" y1="644.85" x2="364.49" y2="573.99"/>
      <line class="cls-5" x1="305.7" y1="746.63" x2="308.14" y2="581.72"/>
      <line class="cls-5" x1="349.72" y1="646.88" x2="350.84" y2="570.91"/>
    </g>
    <g class="cls-6">
      <ellipse class="cls-7" cx="51.61" cy="578.06" rx="2.93" ry="2.6" transform="translate(-525.39 515.66) rotate(-78.73)"/>
      <path class="cls-7" d="M77.48,375.85c-1.44.77-2.1,2.89-1.79,5.23a26.73,26.73,0,0,0-5.23,2.14c-.73.39-1.42.81-2.1,1.25a2.22,2.22,0,0,0-.14-1,1.7,1.7,0,0,0-2.42-.94,2.24,2.24,0,0,0-1,2.75,1.8,1.8,0,0,0,1,1,27.14,27.14,0,0,0-3.26,3.15c-.07-.21-.14-.42-.22-.62-1.17-2.95-3.61-4.54-5.46-3.56-4.73-8.62-14.73-11.87-23.43-7.21C24,383.14,19.67,395.65,23.77,406a18.14,18.14,0,0,0,11.45,11,22.28,22.28,0,0,0,1.54,8.24A18.47,18.47,0,0,0,46,435.34c-1.78,8.8-.42,20.92,4.32,32.89.25.63.5,1.24.76,1.85-.69,1.62-1.34,3.26-1.92,4.94a2.32,2.32,0,0,0-.71-.27,3,3,0,0,0-1.15,5.76l.17,0q-.67,2.49-1.18,5.06a79.84,79.84,0,0,0-1.36,10.28,6,6,0,0,0-2.2.81,2.58,2.58,0,0,0-1.95-2,3,3,0,0,0-1.15,5.76h.09a7.94,7.94,0,0,0-.32,1.13c-.76,3.81,1.36,7.44,4.73,8.12a5.56,5.56,0,0,0,1.12.1,74.88,74.88,0,0,0,1.46,8.5l-.6.33a6.57,6.57,0,0,0-5-5.36c-3.56-.71-7.1,2-7.9,6a7.34,7.34,0,0,0,3.3,7.94,32.09,32.09,0,0,0-2.93,5,10.7,10.7,0,0,0-2.37-.77c-8.83-1.76-18.21,8-21,21.72s2.19,26.33,11,28.09c6.4,1.28,13.09-3.48,17.33-11.44a8.23,8.23,0,0,0,1.15-1.12A23.88,23.88,0,0,0,51,574.37a23.55,23.55,0,0,0,7.91.22c0,.06,0,.11,0,.17-.7,3.52,1.25,6.87,4.37,7.49a5.12,5.12,0,0,0,1.29.09,6.63,6.63,0,0,0-.24.86,6.44,6.44,0,0,0,.08,2.91,25.82,25.82,0,0,0-12.78,5.11,4.94,4.94,0,0,0-3.41-2.69,5.46,5.46,0,0,0-6.06,4A7.07,7.07,0,0,0,37,587.94c-3.94-.79-7.86,2.19-8.74,6.64s1.59,8.7,5.53,9.48,7.86-2.19,8.74-6.64v0a5.24,5.24,0,0,0,1.68,1.93,33.36,33.36,0,0,0-4.68,22.86,7.27,7.27,0,0,0-1-.28c-4.41-.88-8.8,2.45-9.79,7.43a10.12,10.12,0,0,0,.05,4.24,27.07,27.07,0,0,0-3.31,1.14c.16-4.74-2.7-8.92-7-9.77-4.83-1-9.62,2.68-10.71,8.13s1.95,10.65,6.77,11.61l.28,0a14.83,14.83,0,0,0-1.09,4.72,56,56,0,0,0-11.53.29,6.41,6.41,0,0,0,.8-6A4.75,4.75,0,0,0-3.78,641a6.29,6.29,0,0,0-2.68,7.71v0a3.27,3.27,0,0,0-1.7-.28,22.27,22.27,0,0,0-1.54-8.21,19.54,19.54,0,0,0-4.19-6.53,5.71,5.71,0,0,0,.69-.31,7,7,0,0,0,3-8.63,6,6,0,0,0-1.6-2.3,23.54,23.54,0,0,0,1.52-2.16,5.74,5.74,0,0,0,7.73,2.13A7.7,7.7,0,0,0,.74,613a5.82,5.82,0,0,0-8.29-3.23l-.18.11A9.87,9.87,0,0,0-8.26,608c-1.44-3.64-4.86-5.77-9.17-6.23-.07-.23-.15-.46-.24-.68-1.23-3.1-3.76-4.79-5.65-3.77-1.44.77-2.1,2.89-1.79,5.23a26.73,26.73,0,0,0-5.23,2.14c-.73.39-1.42.81-2.1,1.25a2.22,2.22,0,0,0-.14-1A1.7,1.7,0,0,0-35,604a2.24,2.24,0,0,0-1,2.75,1.8,1.8,0,0,0,1,1,27.14,27.14,0,0,0-3.26,3.15c-.07-.21-.14-.42-.22-.62-1.17-2.95-3.61-4.54-5.46-3.56-4.73-8.62-14.73-11.87-23.43-7.21-9.46,5.07-13.81,17.58-9.71,27.94a18.14,18.14,0,0,0,11.45,11A22.28,22.28,0,0,0-64,646.7a18.47,18.47,0,0,0,9.2,10.11c-1.78,8.8-.42,20.92,4.32,32.89.25.63.5,1.24.76,1.85-.69,1.62-1.34,3.26-1.92,4.94a2.32,2.32,0,0,0-.71-.27,2.78,2.78,0,0,0-3.12,2.37,2.78,2.78,0,0,0,2,3.39l.17,0q-.67,2.49-1.18,5.06a79.84,79.84,0,0,0-1.36,10.28,6,6,0,0,0-2.2.81,2.58,2.58,0,0,0-1.95-2,2.78,2.78,0,0,0-3.12,2.37,2.78,2.78,0,0,0,2,3.39h.09a7.94,7.94,0,0,0-.32,1.13c-.76,3.81,1.36,7.44,4.73,8.12a5.56,5.56,0,0,0,1.12.1,74.88,74.88,0,0,0,1.46,8.5l-.6.33a6.57,6.57,0,0,0-5-5.36c-3.56-.71-7.1,2-7.9,6a7.34,7.34,0,0,0,3.3,7.94,32.76,32.76,0,0,0-5.52,12.77,33.53,33.53,0,0,0-.64,7.17h0c-4.5-.9-8.65.91-9.27,4s2.52,6.38,7,7.28l.68.11a9.07,9.07,0,0,0-1.36,3.28c-.89,4.45,1.59,8.7,5.53,9.48a7.14,7.14,0,0,0,6.85-2.65,23.88,23.88,0,0,0,11.28,5.68,23.55,23.55,0,0,0,7.91.22c0,.06,0,.11,0,.17-.7,3.52,1.25,6.87,4.37,7.49a5.12,5.12,0,0,0,1.29.09,6.63,6.63,0,0,0-.24.86,6.44,6.44,0,0,0,.08,2.91,25.82,25.82,0,0,0-12.78,5.11A4.94,4.94,0,0,0-52.61,810a5.46,5.46,0,0,0-6.06,4,7.07,7.07,0,0,0-5.17-4.64c-3.94-.79-7.86,2.19-8.74,6.64s1.59,8.7,5.53,9.48,7.86-2.19,8.74-6.64v0a5.24,5.24,0,0,0,1.68,1.93A33,33,0,0,0-61.07,832a33,33,0,0,0-.24,11.68,7.27,7.27,0,0,0-1-.28c-4.41-.88-8.8,2.45-9.79,7.43A10.12,10.12,0,0,0-72,855a27.07,27.07,0,0,0-3.31,1.14c.16-4.74-2.7-8.92-7-9.77-4.83-1-9.62,2.68-10.71,8.13s1.95,10.65,6.77,11.61l.28,0a15.17,15.17,0,0,0-.84,2.77c-1.13,5.67,1.07,11.41,5.49,16-.09.34-.18.68-.25,1-1,4.83.58,9.2,3.44,9.77,2.18.43,4.49-1.47,5.9-4.52a34.45,34.45,0,0,0,7.4,2.36c1.1.22,2.19.38,3.27.49a3.22,3.22,0,0,0-.6,1.34,2.78,2.78,0,0,0,2,3.39,2.78,2.78,0,0,0,3.12-2.37,3.13,3.13,0,0,0-.34-2.18,31.36,31.36,0,0,0,6-.68c-.08.31-.16.62-.23.95-.92,4.59.6,8.77,3.39,9.34-1.21,14.67,7.43,27.91,20.58,30.53C-13.39,937.23.8,926.45,4,910.32A31.47,31.47,0,0,0-.46,886.54,33,33,0,0,0,4,875.32a32,32,0,0,0-2.63-20.63,55,55,0,0,0,7.21-9.42,9.21,9.21,0,0,0,.72,2.15,7.36,7.36,0,0,0,10.83,3.19,9.84,9.84,0,0,0,3.36-12.28,7.36,7.36,0,0,0-9.26-4,110.4,110.4,0,0,0,5.58-16.54,5.09,5.09,0,0,0,.39,1.24,4.09,4.09,0,0,0,6,1.77A5.46,5.46,0,0,0,28.08,814a4.09,4.09,0,0,0-6-1.77,4.9,4.9,0,0,0-1.22,1.15c.13-.6.26-1.19.38-1.79.31-1.56.58-3.1.82-4.63a17.29,17.29,0,0,0,16.73-13.71,16.88,16.88,0,0,0-3.25-13.64c15.67-10,27.77-27.18,32-48.21a78.74,78.74,0,0,0,1.41-19.76,23.58,23.58,0,0,0,4.23,1.27c14.29,2.85,28.48-7.92,31.7-24.06a31.47,31.47,0,0,0-4.48-23.78,33,33,0,0,0,4.46-11.22,32,32,0,0,0-2.63-20.63,55,55,0,0,0,7.21-9.42,9.21,9.21,0,0,0,.72,2.15,7.36,7.36,0,0,0,10.83,3.19,9.84,9.84,0,0,0,3.36-12.28,7.36,7.36,0,0,0-9.26-4,110.4,110.4,0,0,0,5.58-16.54,5.09,5.09,0,0,0,.39,1.24,4.09,4.09,0,0,0,6,1.77,5.46,5.46,0,0,0,1.87-6.82,4.09,4.09,0,0,0-6-1.77,4.9,4.9,0,0,0-1.22,1.15c.13-.6.26-1.19.38-1.79.31-1.56.58-3.1.82-4.63a17.29,17.29,0,0,0,16.73-13.71,16.88,16.88,0,0,0-3.25-13.64c15.67-10,27.77-27.18,32-48.21,7.59-38.06-13.58-74.36-47.28-81.08a55.62,55.62,0,0,0-18-.6,6.41,6.41,0,0,0,.8-6A4.75,4.75,0,0,0,97,419.56a6.29,6.29,0,0,0-2.68,7.71v0a3.27,3.27,0,0,0-1.7-.28,22.27,22.27,0,0,0-1.54-8.21,19.54,19.54,0,0,0-4.19-6.53,5.71,5.71,0,0,0,.69-.31,7,7,0,0,0,3-8.63A6,6,0,0,0,89,401a23.54,23.54,0,0,0,1.52-2.16A5.74,5.74,0,0,0,98.26,401a7.7,7.7,0,0,0,3.28-9.44,5.82,5.82,0,0,0-8.29-3.23l-.18.11a9.87,9.87,0,0,0-.54-1.91c-1.44-3.64-4.86-5.77-9.17-6.23-.07-.23-.15-.46-.24-.68C81.91,376.53,79.38,374.84,77.48,375.85Z"/>
    </g>
  </g>
</svg>
